<svg width="281" height="367" viewBox="0 0 281 367" fill="none" xmlns="http://www.w3.org/2000/svg">
<path d="M280.261 351.933V160.811C280.261 157.083 277.634 152.55 274.406 150.708L16.9599 3.75505C15.6379 3.00046 14.3578 2.7893 13.3302 3.15631L3.69971 6.59575C2.21199 7.12709 1.41101 8.8104 1.55722 11.0983L13.5624 198.943C13.7896 202.497 16.2134 206.572 19.1849 208.395L265.338 359.438C266.853 360.367 268.327 360.589 269.446 360.055L278.364 355.803C279.573 355.226 280.261 353.822 280.261 351.933Z" fill="#07101D"/>
<path d="M269.916 359.688V163.325C269.916 161.895 268.912 160.156 267.673 159.441L2.49733 6.34125C1.25886 5.62622 0.254904 6.20586 0.254904 7.63591V204C0.254904 205.43 1.25886 207.169 2.49733 207.884L267.673 360.983C268.912 361.698 269.916 361.118 269.916 359.688Z" fill="url(#paint0_linear_1_6999)"/>
<path d="M15.9531 41.8357L254.215 179.396C259.315 182.341 263.45 179.954 263.45 174.064C263.45 168.175 259.315 161.014 254.215 158.069L15.9531 20.5085C10.8528 17.5638 6.71814 19.9509 6.71814 25.8403C6.71814 31.7296 10.8528 38.891 15.9531 41.8357Z" fill="white"/>
<path d="M39.1572 45.7329C39.1572 48.0887 40.8111 50.9532 42.8512 52.1311C44.8913 53.309 46.5452 52.3541 46.5452 49.9984C46.5452 47.6426 44.8913 44.7781 42.8512 43.6002C40.8111 42.4223 39.1572 43.3772 39.1572 45.7329Z" fill="#3A5DF3"/>
<path d="M26.2283 38.2684C26.2283 40.6241 27.8821 43.4887 29.9222 44.6665C31.9624 45.8444 33.6162 44.8896 33.6162 42.5338C33.6162 40.1781 31.9624 37.3135 29.9222 36.1357C27.8821 34.9578 26.2283 35.9126 26.2283 38.2684Z" fill="#3A5DF3"/>
<path d="M13.2993 30.8039C13.2993 33.1596 14.9532 36.0241 16.9933 37.202C19.0334 38.3799 20.6873 37.425 20.6873 35.0693C20.6873 32.7136 19.0334 29.849 16.9933 28.6711C14.9532 27.4933 13.2993 28.4481 13.2993 30.8039Z" fill="#3A5DF3"/>
<g clip-path="url(#clip0_1_6999)">
<path d="M154.163 206.824L125.946 222.802L97.7293 174.242C95.8682 171.077 94.4022 167.717 93.4237 164.374C92.4451 161.031 91.9753 157.779 92.0436 154.821C92.112 151.862 92.7172 149.263 93.821 147.186C94.9248 145.109 96.5034 143.599 98.4573 142.752C100.411 141.905 102.698 141.739 105.174 142.264C107.65 142.789 110.261 143.994 112.844 145.803C115.426 147.612 117.923 149.985 120.178 152.775C122.433 155.564 124.397 158.708 125.946 162.009C127.502 160.518 129.468 159.66 131.721 159.49C133.975 159.319 136.467 159.84 139.042 161.018C141.617 162.197 144.219 164.008 146.686 166.339C149.153 168.67 151.431 171.47 153.379 174.564C155.326 177.659 156.899 180.98 158.002 184.321C159.104 187.663 159.711 190.951 159.785 193.982C159.858 197.013 159.397 199.72 158.43 201.934C157.462 204.148 156.01 205.822 154.163 206.85M125.944 161.982L113.555 169.135C112.85 169.542 112.454 170.418 112.454 171.57C112.454 172.722 112.85 174.056 113.555 175.278L115.598 178.816C118.194 183.312 122.408 185.745 125.004 184.246L128.766 182.074C131.011 180.778 134.056 181.08 137.231 182.913C140.406 184.746 143.451 187.96 145.696 191.849L154.161 206.511M127.826 204.339L135.35 217.372M137.232 198.909L144.756 211.941" stroke="white" stroke-width="5.17865" stroke-linecap="round" stroke-linejoin="round"/>
</g>
<defs>
<linearGradient id="paint0_linear_1_6999" x1="269.916" y1="261.507" x2="0.254904" y2="261.507" gradientUnits="userSpaceOnUse">
<stop offset="0.01" stop-color="#3F4B75"/>
<stop offset="1" stop-color="#6181E2"/>
</linearGradient>
<clipPath id="clip0_1_6999">
<rect width="104.262" height="104.262" fill="white" transform="matrix(0.866025 0.5 0 1 80.7982 109.852)"/>
</clipPath>
</defs>
</svg>
