<svg width="1204" height="1049" viewBox="0 0 1204 1049" fill="none" xmlns="http://www.w3.org/2000/svg">
<rect x="181" y="161" width="779" height="725.555" rx="12" fill="#0309BB"/>
<g filter="url(#filter0_f_133_4080)">
<ellipse cx="571" cy="524.5" rx="233" ry="124.5" fill="#1482FF"/>
</g>
<path fill-rule="evenodd" clip-rule="evenodd" d="M616.914 475.056V522.322L660.44 546.763L703.966 522.322V475.056L660.42 451.421L616.914 475.056Z" fill="url(#paint0_linear_133_4080)"/>
<path fill-rule="evenodd" clip-rule="evenodd" d="M660.401 451.421C659.797 451.421 659.237 451.542 658.719 451.786C658.288 452.03 618.426 473.658 617.994 473.902C617.606 474.065 617.347 474.43 617.304 474.837C617.347 475.243 617.606 475.609 617.994 475.772C618.426 475.975 658.288 497.603 658.719 497.847C659.797 498.375 661.049 498.375 662.127 497.847C662.558 497.644 702.42 476.016 702.852 475.772C703.24 475.609 703.499 475.243 703.542 474.837C703.499 474.43 703.24 474.065 702.852 473.902C702.42 473.699 662.558 452.071 662.127 451.827C661.566 451.542 661.005 451.421 660.401 451.421Z" fill="url(#paint1_linear_133_4080)"/>
<path fill-rule="evenodd" clip-rule="evenodd" d="M708.787 480.148C708.739 480.628 708.45 481.06 708.017 481.252C707.536 481.492 663.049 507.507 662.568 507.747C661.364 508.371 659.968 508.371 658.764 507.747C658.283 507.507 613.797 481.492 613.315 481.252C612.882 481.06 612.545 480.628 612.545 480.148C612.545 480.052 612.593 479.956 612.593 479.908H612.545V462.148L708.835 462.244V479.908H708.787C708.739 480.004 708.739 480.052 708.787 480.148Z" fill="url(#paint2_linear_133_4080)"/>
<path fill-rule="evenodd" clip-rule="evenodd" d="M660.834 434.741C660.16 434.741 659.534 434.885 658.956 435.173C658.475 435.461 613.989 460.996 613.507 461.284C613.074 461.476 612.785 461.908 612.737 462.388C612.785 462.868 613.074 463.3 613.507 463.492C613.989 463.732 658.475 489.267 658.956 489.555C660.16 490.179 661.556 490.179 662.76 489.555C663.241 489.315 707.727 463.78 708.209 463.492C708.642 463.3 708.931 462.868 708.979 462.388C708.931 461.908 708.642 461.476 708.209 461.284C707.727 461.044 663.241 435.509 662.76 435.221C662.134 434.885 661.508 434.741 660.834 434.741Z" fill="url(#paint3_linear_133_4080)"/>
<path d="M688.6 530.856V491.934L685.621 493.722V532.643L688.6 530.856Z" fill="#262CE7"/>
<path d="M633.198 531.45V492.529L635.978 494.089V494.117V533.039L633.198 531.45Z" fill="#262CE7"/>
<path d="M635.978 448.641L640.743 445.861L688.601 473.661L689.196 474.059V492.129L685.026 494.711V477.037L635.978 448.641Z" fill="url(#paint4_linear_133_4080)"/>
<path d="M686.02 448.641L681.254 445.861L633.397 473.661L632.801 474.059V492.557L636.971 495.018V477.037L686.02 448.641Z" fill="url(#paint5_linear_133_4080)"/>
<path fill-rule="evenodd" clip-rule="evenodd" d="M511.403 521.406V591.112L575.594 627.157L639.785 591.112V521.406L575.564 486.548L511.403 521.406Z" fill="url(#paint6_linear_133_4080)"/>
<path fill-rule="evenodd" clip-rule="evenodd" d="M575.537 486.548C574.647 486.548 573.82 486.728 573.056 487.088C572.42 487.448 513.633 519.344 512.996 519.704C512.424 519.943 512.042 520.483 511.978 521.082C512.042 521.682 512.424 522.222 512.996 522.461C513.633 522.761 572.42 554.657 573.056 555.017C574.647 555.796 576.492 555.796 578.082 555.017C578.719 554.717 637.506 522.821 638.142 522.461C638.715 522.222 639.096 521.682 639.16 521.082C639.096 520.483 638.715 519.943 638.142 519.704C637.506 519.404 578.719 487.508 578.082 487.148C577.255 486.728 576.428 486.548 575.537 486.548Z" fill="url(#paint7_linear_133_4080)"/>
<path fill-rule="evenodd" clip-rule="evenodd" d="M646.896 528.912C646.825 529.62 646.399 530.257 645.76 530.54C645.05 530.894 579.442 569.261 578.732 569.615C576.957 570.535 574.898 570.535 573.123 569.615C572.413 569.261 506.805 530.894 506.095 530.54C505.456 530.257 504.959 529.62 504.959 528.912C504.959 528.77 505.03 528.629 505.03 528.558H504.959V502.366L646.967 502.508V528.558H646.896C646.825 528.699 646.825 528.77 646.896 528.912Z" fill="url(#paint8_linear_133_4080)"/>
<path fill-rule="evenodd" clip-rule="evenodd" d="M576.175 461.946C575.181 461.946 574.258 462.159 573.406 462.583C572.696 463.008 507.088 500.667 506.378 501.092C505.739 501.375 505.313 502.012 505.242 502.72C505.313 503.428 505.739 504.065 506.378 504.348C507.088 504.702 572.696 542.361 573.406 542.786C575.181 543.706 577.24 543.706 579.015 542.786C579.725 542.432 645.333 504.773 646.043 504.348C646.682 504.065 647.108 503.428 647.179 502.72C647.108 502.012 646.682 501.375 646.043 501.092C645.333 500.738 579.725 463.079 579.015 462.654C578.092 462.159 577.169 461.946 576.175 461.946Z" fill="url(#paint9_linear_133_4080)"/>
<path d="M617.126 603.693V546.293L612.733 548.928V606.329L617.126 603.693Z" fill="#262CE7"/>
<path d="M535.417 604.572V547.172L539.517 549.473V549.515V606.915L535.417 604.572Z" fill="#262CE7"/>
<path d="M539.517 482.446L546.545 478.346L617.125 519.346L618.003 519.932V546.582L611.853 550.389V524.325L539.517 482.446Z" fill="url(#paint10_linear_133_4080)"/>
<path d="M613.318 482.446L606.289 478.346L535.71 519.346L534.832 519.932V547.214L540.982 550.843V524.325L613.318 482.446Z" fill="url(#paint11_linear_133_4080)"/>
<path fill-rule="evenodd" clip-rule="evenodd" d="M406.102 565.03V672.833L505.376 728.579L604.65 672.833V565.03L505.33 511.121L406.102 565.03Z" fill="url(#paint12_linear_133_4080)"/>
<path fill-rule="evenodd" clip-rule="evenodd" d="M505.288 511.121C503.91 511.121 502.631 511.399 501.451 511.956C500.467 512.512 409.55 561.841 408.566 562.397C407.68 562.768 407.09 563.602 406.991 564.53C407.09 565.457 407.68 566.291 408.566 566.662C409.55 567.126 500.467 616.454 501.451 617.011C503.91 618.216 506.764 618.216 509.224 617.011C510.208 616.547 601.125 567.219 602.109 566.662C602.994 566.291 603.585 565.457 603.683 564.53C603.585 563.602 602.994 562.768 602.109 562.397C601.125 561.933 510.208 512.605 509.224 512.048C507.945 511.399 506.666 511.121 505.288 511.121Z" fill="url(#paint13_linear_133_4080)"/>
<path fill-rule="evenodd" clip-rule="evenodd" d="M615.647 576.641C615.537 577.735 614.878 578.721 613.89 579.158C612.792 579.706 511.327 639.042 510.229 639.589C507.484 641.012 504.299 641.012 501.554 639.589C500.456 639.042 398.992 579.706 397.893 579.158C396.905 578.721 396.136 577.735 396.136 576.641C396.136 576.422 396.246 576.203 396.246 576.093H396.136V535.587L615.757 535.806V576.093H615.647C615.537 576.312 615.537 576.422 615.647 576.641Z" fill="url(#paint14_linear_133_4080)"/>
<path fill-rule="evenodd" clip-rule="evenodd" d="M506.274 473.076C504.737 473.076 503.31 473.404 501.992 474.061C500.894 474.718 399.429 532.959 398.331 533.616C397.343 534.054 396.684 535.039 396.574 536.134C396.684 537.229 397.343 538.214 398.331 538.652C399.429 539.199 500.894 597.441 501.992 598.097C504.737 599.521 507.922 599.521 510.667 598.097C511.765 597.55 613.229 539.309 614.328 538.652C615.316 538.214 615.975 537.229 616.084 536.134C615.975 535.039 615.316 534.054 614.328 533.616C613.229 533.069 511.765 474.828 510.667 474.171C509.239 473.404 507.812 473.076 506.274 473.076Z" fill="url(#paint15_linear_133_4080)"/>
<path d="M569.606 692.292V603.52L562.812 607.596V696.368L569.606 692.292Z" fill="#262CE7"/>
<path d="M443.241 693.649V604.878L449.582 608.436V608.501V697.273L443.241 693.649Z" fill="#262CE7"/>
<path d="M449.582 504.782L460.452 498.441L569.605 561.85L570.964 562.755V603.971L561.452 609.859V569.549L449.582 504.782Z" fill="url(#paint16_linear_133_4080)"/>
<path d="M563.718 504.782L552.848 498.441L443.694 561.85L442.336 562.755V604.947L451.847 610.56V569.549L563.718 504.782Z" fill="url(#paint17_linear_133_4080)"/>
<path fill-rule="evenodd" clip-rule="evenodd" d="M879.411 666.323C879.344 666.994 878.94 667.598 878.334 667.866C877.661 668.202 815.469 704.571 814.796 704.907C813.113 705.779 811.161 705.779 809.478 704.907C808.805 704.571 746.613 668.202 745.94 667.866C745.334 667.598 744.863 666.994 744.863 666.323C744.863 666.189 744.931 666.055 744.931 665.987H744.863V641.159L879.478 641.294V665.987H879.411C879.344 666.122 879.344 666.189 879.411 666.323Z" fill="url(#paint18_linear_133_4080)"/>
<path fill-rule="evenodd" clip-rule="evenodd" d="M812.372 602.844C811.429 602.844 810.554 603.045 809.747 603.448C809.074 603.85 746.882 639.549 746.209 639.951C745.603 640.22 745.199 640.824 745.132 641.495C745.199 642.166 745.603 642.77 746.209 643.038C746.882 643.374 809.074 679.072 809.747 679.475C811.429 680.347 813.381 680.347 815.064 679.475C815.737 679.139 877.929 643.441 878.602 643.038C879.208 642.77 879.612 642.166 879.679 641.495C879.612 640.824 879.208 640.22 878.602 639.951C877.929 639.616 815.737 603.917 815.064 603.515C814.189 603.045 813.314 602.844 812.372 602.844Z" fill="url(#paint19_linear_133_4080)"/>
<g clip-path="url(#clip0_133_4080)">
<path d="M811.606 657.6C830.803 657.6 846.365 642.038 846.365 622.841C846.365 603.644 830.803 588.082 811.606 588.082C792.409 588.082 776.846 603.644 776.846 622.841C776.846 642.038 792.409 657.6 811.606 657.6Z" fill="url(#paint20_radial_133_4080)"/>
</g>
<g clip-path="url(#clip1_133_4080)">
<path d="M881.026 524.045C889.295 524.045 895.999 517.341 895.999 509.072C895.999 500.802 889.295 494.098 881.026 494.098C872.756 494.098 866.052 500.802 866.052 509.072C866.052 517.341 872.756 524.045 881.026 524.045Z" fill="url(#paint21_radial_133_4080)"/>
</g>
<g clip-path="url(#clip2_133_4080)">
<path d="M665.735 374.177C684.866 374.177 700.376 358.668 700.376 339.536C700.376 320.405 684.866 304.896 665.735 304.896C646.603 304.896 631.094 320.405 631.094 339.536C631.094 358.668 646.603 374.177 665.735 374.177Z" fill="url(#paint22_radial_133_4080)"/>
</g>
<g clip-path="url(#clip3_133_4080)">
<path d="M950.157 354.391C958.362 354.391 965.012 347.74 965.012 339.536C965.012 331.332 958.362 324.681 950.157 324.681C941.953 324.681 935.303 331.332 935.303 339.536C935.303 347.74 941.953 354.391 950.157 354.391Z" fill="url(#paint23_radial_133_4080)"/>
</g>
<rect width="80.133" height="80.133" rx="10.6844" transform="matrix(0.866025 -0.5 0 1 358.741 381.121)" fill="#1482FF"/>
<g clip-path="url(#clip4_133_4080)">
<rect width="80.133" height="80.133" rx="10.6844" transform="matrix(0.866025 -0.5 0 1 368.09 386.463)" fill="white"/>
<g clip-path="url(#clip5_133_4080)">
<path d="M397.167 418.372C395.176 420.864 393.567 423.792 392.544 426.78C391.522 429.768 391.133 432.679 391.428 435.142C393.696 434.137 395.999 432.314 398.044 429.908C400.089 427.501 401.782 424.621 402.906 421.636M391.428 419.56C394.839 418.003 398.015 417.907 400.444 419.288C402.873 420.669 404.414 423.447 404.819 427.175C406.51 425.035 407.925 422.576 408.929 420.031C409.933 417.486 410.494 414.939 410.558 412.631C413.77 409.405 416.575 405.343 418.618 400.958C420.661 396.573 421.851 392.062 422.036 387.995C422.036 386.224 421.431 384.886 420.355 384.274C419.279 383.662 417.819 383.826 416.297 384.732C412.897 386.97 409.628 390.299 406.904 394.297C404.18 398.295 402.123 402.782 400.993 407.192C399.043 408.428 397.141 410.212 395.467 412.376C393.793 414.54 392.403 417.013 391.428 419.56ZM410.558 399.276C410.558 399.866 410.76 400.312 411.118 400.516C411.477 400.72 411.964 400.665 412.471 400.364C412.978 400.062 413.465 399.538 413.824 398.907C414.183 398.276 414.384 397.59 414.384 397C414.384 396.409 414.183 395.963 413.824 395.759C413.465 395.555 412.978 395.61 412.471 395.912C411.964 396.214 411.477 396.738 411.118 397.368C410.76 397.999 410.558 398.685 410.558 399.276Z" stroke="black" stroke-width="2.47324" stroke-linecap="round" stroke-linejoin="round"/>
</g>
</g>
<defs>
<filter id="filter0_f_133_4080" x="-62" y="0" width="1266" height="1049" filterUnits="userSpaceOnUse" color-interpolation-filters="sRGB">
<feFlood flood-opacity="0" result="BackgroundImageFix"/>
<feBlend mode="normal" in="SourceGraphic" in2="BackgroundImageFix" result="shape"/>
<feGaussianBlur stdDeviation="200" result="effect1_foregroundBlur_133_4080"/>
</filter>
<linearGradient id="paint0_linear_133_4080" x1="660.44" y1="451.421" x2="660.44" y2="546.763" gradientUnits="userSpaceOnUse">
<stop offset="0.155" stop-color="#3F4B75"/>
<stop offset="0.375" stop-color="#636F99"/>
</linearGradient>
<linearGradient id="paint1_linear_133_4080" x1="660.423" y1="451.421" x2="660.423" y2="498.243" gradientUnits="userSpaceOnUse">
<stop offset="0.39" stop-color="#6B77A0"/>
<stop offset="0.79" stop-color="#3F4B75"/>
</linearGradient>
<linearGradient id="paint2_linear_133_4080" x1="612.545" y1="485.182" x2="708.835" y2="485.182" gradientUnits="userSpaceOnUse">
<stop stop-color="white"/>
<stop offset="1" stop-color="#A9BCEA"/>
</linearGradient>
<linearGradient id="paint3_linear_133_4080" x1="660.858" y1="434.741" x2="660.858" y2="490.023" gradientUnits="userSpaceOnUse">
<stop offset="0.31" stop-color="white"/>
<stop offset="0.81" stop-color="#C4D1F1"/>
<stop offset="1" stop-color="#C4D1F1"/>
</linearGradient>
<linearGradient id="paint4_linear_133_4080" x1="662.587" y1="494.711" x2="662.587" y2="445.861" gradientUnits="userSpaceOnUse">
<stop stop-color="#0309BB"/>
<stop offset="1" stop-color="#010455"/>
</linearGradient>
<linearGradient id="paint5_linear_133_4080" x1="659.41" y1="494.711" x2="659.41" y2="445.861" gradientUnits="userSpaceOnUse">
<stop stop-color="#0309BB"/>
<stop offset="1" stop-color="#010455"/>
</linearGradient>
<linearGradient id="paint6_linear_133_4080" x1="575.594" y1="486.548" x2="575.594" y2="627.157" gradientUnits="userSpaceOnUse">
<stop offset="0.155" stop-color="#3F4B75"/>
<stop offset="0.375" stop-color="#636F99"/>
</linearGradient>
<linearGradient id="paint7_linear_133_4080" x1="575.569" y1="486.548" x2="575.569" y2="555.602" gradientUnits="userSpaceOnUse">
<stop offset="0.39" stop-color="#6B77A0"/>
<stop offset="0.79" stop-color="#3F4B75"/>
</linearGradient>
<linearGradient id="paint8_linear_133_4080" x1="535.926" y1="506.95" x2="490.342" y2="624.093" gradientUnits="userSpaceOnUse">
<stop stop-color="#354065"/>
<stop offset="0.652971" stop-color="#636F99"/>
</linearGradient>
<linearGradient id="paint9_linear_133_4080" x1="505.242" y1="502.711" x2="647.179" y2="502.711" gradientUnits="userSpaceOnUse">
<stop offset="0.51" stop-color="#636F99"/>
<stop offset="0.875" stop-color="#3F4B75"/>
</linearGradient>
<linearGradient id="paint10_linear_133_4080" x1="578.76" y1="550.389" x2="578.76" y2="478.346" gradientUnits="userSpaceOnUse">
<stop stop-color="#0309BB"/>
<stop offset="1" stop-color="#010455"/>
</linearGradient>
<linearGradient id="paint11_linear_133_4080" x1="574.075" y1="550.389" x2="574.075" y2="478.346" gradientUnits="userSpaceOnUse">
<stop stop-color="#0309BB"/>
<stop offset="1" stop-color="#010455"/>
</linearGradient>
<linearGradient id="paint12_linear_133_4080" x1="505.376" y1="511.121" x2="505.376" y2="728.579" gradientUnits="userSpaceOnUse">
<stop offset="0.155" stop-color="#3F4B75"/>
<stop offset="0.375" stop-color="#636F99"/>
</linearGradient>
<linearGradient id="paint13_linear_133_4080" x1="505.337" y1="511.121" x2="505.337" y2="617.915" gradientUnits="userSpaceOnUse">
<stop offset="0.39" stop-color="#6B77A0"/>
<stop offset="0.79" stop-color="#3F4B75"/>
</linearGradient>
<linearGradient id="paint14_linear_133_4080" x1="396.136" y1="588.122" x2="615.757" y2="588.122" gradientUnits="userSpaceOnUse">
<stop stop-color="white"/>
<stop offset="1" stop-color="#A9BCEA"/>
</linearGradient>
<linearGradient id="paint15_linear_133_4080" x1="506.329" y1="473.076" x2="506.329" y2="599.165" gradientUnits="userSpaceOnUse">
<stop offset="0.31" stop-color="white"/>
<stop offset="0.81" stop-color="#C4D1F1"/>
<stop offset="1" stop-color="#C4D1F1"/>
</linearGradient>
<linearGradient id="paint16_linear_133_4080" x1="510.273" y1="609.859" x2="510.273" y2="498.441" gradientUnits="userSpaceOnUse">
<stop stop-color="#0309BB"/>
<stop offset="1" stop-color="#010455"/>
</linearGradient>
<linearGradient id="paint17_linear_133_4080" x1="503.027" y1="609.859" x2="503.027" y2="498.441" gradientUnits="userSpaceOnUse">
<stop stop-color="#0309BB"/>
<stop offset="1" stop-color="#010455"/>
</linearGradient>
<linearGradient id="paint18_linear_133_4080" x1="774.218" y1="645.505" x2="731.007" y2="756.549" gradientUnits="userSpaceOnUse">
<stop stop-color="#354065"/>
<stop offset="0.652971" stop-color="#636F99"/>
</linearGradient>
<linearGradient id="paint19_linear_133_4080" x1="745.132" y1="641.486" x2="879.679" y2="641.486" gradientUnits="userSpaceOnUse">
<stop offset="0.51" stop-color="#636F99"/>
<stop offset="0.875" stop-color="#3F4B75"/>
</linearGradient>
<radialGradient id="paint20_radial_133_4080" cx="0" cy="0" r="1" gradientUnits="userSpaceOnUse" gradientTransform="translate(804.684 603.905) scale(48.0632)">
<stop offset="0.19" stop-color="#D3DAF5"/>
<stop offset="0.59" stop-color="#A6B0D3"/>
<stop offset="0.72" stop-color="#909DC8"/>
<stop offset="0.87" stop-color="#8390C0"/>
<stop offset="1" stop-color="#69759F"/>
</radialGradient>
<radialGradient id="paint21_radial_133_4080" cx="0" cy="0" r="1" gradientUnits="userSpaceOnUse" gradientTransform="translate(878.044 500.914) scale(20.7043)">
<stop offset="0.19" stop-color="#D3DAF5"/>
<stop offset="0.59" stop-color="#A6B0D3"/>
<stop offset="0.72" stop-color="#909DC8"/>
<stop offset="0.87" stop-color="#8390C0"/>
<stop offset="1" stop-color="#69759F"/>
</radialGradient>
<radialGradient id="paint22_radial_133_4080" cx="0" cy="0" r="1" gradientUnits="userSpaceOnUse" gradientTransform="translate(658.837 320.664) scale(47.8992)">
<stop offset="0.19" stop-color="#77AAE4"/>
<stop offset="0.59" stop-color="#2E90FF"/>
<stop offset="0.72" stop-color="#1482FF"/>
<stop offset="0.87" stop-color="#1A6CC9"/>
<stop offset="1" stop-color="#0D5DB8"/>
</radialGradient>
<radialGradient id="paint23_radial_133_4080" cx="0" cy="0" r="1" gradientUnits="userSpaceOnUse" gradientTransform="translate(947.199 331.444) scale(20.5403)">
<stop offset="0.19" stop-color="#77AAE4"/>
<stop offset="0.59" stop-color="#2E90FF"/>
<stop offset="0.72" stop-color="#1482FF"/>
<stop offset="0.87" stop-color="#1A6CC9"/>
<stop offset="1" stop-color="#0D5DB8"/>
</radialGradient>
<clipPath id="clip0_133_4080">
<rect width="69.5184" height="69.5184" fill="white" transform="translate(776.846 588.082)"/>
</clipPath>
<clipPath id="clip1_133_4080">
<rect width="29.9466" height="29.9466" fill="white" transform="translate(866.052 494.098)"/>
</clipPath>
<clipPath id="clip2_133_4080">
<rect width="69.2813" height="69.2813" fill="white" transform="translate(631.094 304.896)"/>
</clipPath>
<clipPath id="clip3_133_4080">
<rect width="29.7095" height="29.7095" fill="white" transform="translate(935.303 324.681)"/>
</clipPath>
<clipPath id="clip4_133_4080">
<rect width="80.133" height="80.133" rx="10.6844" transform="matrix(0.866025 -0.5 0 1 368.09 386.463)" fill="white"/>
</clipPath>
<clipPath id="clip5_133_4080">
<rect width="53.422" height="53.422" fill="white" transform="matrix(0.859406 -0.511293 0 1 383.778 395.175)"/>
</clipPath>
</defs>
</svg>
