<svg width="790" height="588" viewBox="0 0 790 588" fill="none" xmlns="http://www.w3.org/2000/svg">
<mask id="mask0_147_4378" style="mask-type:alpha" maskUnits="userSpaceOnUse" x="0" y="0" width="790" height="588">
<rect width="790" height="588" fill="#D9D9D9"/>
</mask>
<g mask="url(#mask0_147_4378)">
<rect y="-13" width="790" height="601" rx="12" fill="#0309BB"/>
<g filter="url(#filter0_f_147_4378)">
<ellipse cx="395" cy="288.5" rx="233" ry="124.5" fill="#1482FF"/>
</g>
<path fill-rule="evenodd" clip-rule="evenodd" d="M441.414 238.779V286.045L484.94 310.486L528.466 286.045V238.779L484.92 215.143L441.414 238.779Z" fill="url(#paint0_linear_147_4378)"/>
<path fill-rule="evenodd" clip-rule="evenodd" d="M484.902 215.143C484.298 215.143 483.737 215.265 483.219 215.509C482.788 215.753 442.926 237.381 442.495 237.625C442.106 237.787 441.847 238.153 441.804 238.56C441.847 238.966 442.106 239.332 442.495 239.495C442.926 239.698 482.788 261.326 483.219 261.57C484.298 262.098 485.549 262.098 486.627 261.57C487.059 261.366 526.92 239.739 527.352 239.495C527.74 239.332 527.999 238.966 528.042 238.56C527.999 238.153 527.74 237.787 527.352 237.625C526.92 237.421 487.059 215.794 486.627 215.55C486.066 215.265 485.505 215.143 484.902 215.143Z" fill="url(#paint1_linear_147_4378)"/>
<path fill-rule="evenodd" clip-rule="evenodd" d="M533.287 243.871C533.239 244.351 532.95 244.783 532.517 244.975C532.036 245.215 487.549 271.23 487.068 271.47C485.864 272.094 484.468 272.094 483.264 271.47C482.783 271.23 438.297 245.215 437.815 244.975C437.382 244.783 437.045 244.351 437.045 243.871C437.045 243.775 437.093 243.679 437.093 243.631H437.045V225.871L533.335 225.967V243.631H533.287C533.239 243.727 533.239 243.775 533.287 243.871Z" fill="url(#paint2_linear_147_4378)"/>
<path fill-rule="evenodd" clip-rule="evenodd" d="M485.334 198.464C484.66 198.464 484.034 198.608 483.456 198.896C482.975 199.184 438.489 224.719 438.007 225.007C437.574 225.199 437.285 225.631 437.237 226.111C437.285 226.591 437.574 227.023 438.007 227.215C438.489 227.455 482.975 252.99 483.456 253.278C484.66 253.902 486.056 253.902 487.26 253.278C487.741 253.038 532.227 227.503 532.709 227.215C533.142 227.023 533.431 226.591 533.479 226.111C533.431 225.631 533.142 225.199 532.709 225.007C532.227 224.767 487.741 199.232 487.26 198.944C486.634 198.608 486.008 198.464 485.334 198.464Z" fill="url(#paint3_linear_147_4378)"/>
<path d="M513.1 294.579V255.657L510.121 257.444V296.366L513.1 294.579Z" fill="#262CE7"/>
<path d="M457.698 295.173V256.251L460.478 257.812V257.84V296.761L457.698 295.173Z" fill="#262CE7"/>
<path d="M460.478 212.363L465.244 209.583L513.101 237.384L513.697 237.781V255.852L509.526 258.433V240.76L460.478 212.363Z" fill="url(#paint4_linear_147_4378)"/>
<path d="M510.52 212.363L505.754 209.583L457.897 237.384L457.301 237.781V256.28L461.471 258.741V240.76L510.52 212.363Z" fill="url(#paint5_linear_147_4378)"/>
<path fill-rule="evenodd" clip-rule="evenodd" d="M335.903 285.129V354.835L400.094 390.88L464.285 354.835V285.129L400.064 250.271L335.903 285.129Z" fill="url(#paint6_linear_147_4378)"/>
<path fill-rule="evenodd" clip-rule="evenodd" d="M400.037 250.271C399.147 250.271 398.319 250.451 397.556 250.811C396.92 251.171 338.132 283.067 337.496 283.426C336.924 283.666 336.542 284.206 336.478 284.805C336.542 285.405 336.924 285.945 337.496 286.184C338.132 286.484 396.92 318.38 397.556 318.74C399.147 319.519 400.992 319.519 402.582 318.74C403.218 318.44 462.006 286.544 462.642 286.184C463.215 285.945 463.596 285.405 463.66 284.805C463.596 284.206 463.215 283.666 462.642 283.426C462.006 283.127 403.218 251.231 402.582 250.871C401.755 250.451 400.928 250.271 400.037 250.271Z" fill="url(#paint7_linear_147_4378)"/>
<path fill-rule="evenodd" clip-rule="evenodd" d="M471.395 292.634C471.324 293.342 470.898 293.979 470.259 294.263C469.549 294.617 403.942 332.983 403.232 333.337C401.457 334.258 399.398 334.258 397.623 333.337C396.913 332.983 331.305 294.617 330.595 294.263C329.956 293.979 329.459 293.342 329.459 292.634C329.459 292.493 329.53 292.351 329.53 292.281H329.459V266.089L471.466 266.231V292.281H471.395C471.324 292.422 471.324 292.493 471.395 292.634Z" fill="url(#paint8_linear_147_4378)"/>
<path fill-rule="evenodd" clip-rule="evenodd" d="M400.675 225.669C399.681 225.669 398.758 225.882 397.906 226.306C397.196 226.731 331.588 264.39 330.878 264.815C330.239 265.098 329.813 265.735 329.742 266.443C329.813 267.151 330.239 267.788 330.878 268.071C331.588 268.425 397.196 306.084 397.906 306.509C399.681 307.429 401.74 307.429 403.515 306.509C404.225 306.155 469.832 268.496 470.543 268.071C471.182 267.788 471.608 267.151 471.679 266.443C471.608 265.735 471.182 265.098 470.543 264.815C469.832 264.461 404.225 226.802 403.515 226.377C402.592 225.882 401.669 225.669 400.675 225.669Z" fill="url(#paint9_linear_147_4378)"/>
<path d="M441.626 367.416V310.015L437.233 312.651V370.052L441.626 367.416Z" fill="#262CE7"/>
<path d="M359.917 368.295V310.895L364.017 313.196V313.237V370.638L359.917 368.295Z" fill="#262CE7"/>
<path d="M364.017 246.169L371.045 242.069L441.624 283.069L442.503 283.655V310.305L436.353 314.112V288.048L364.017 246.169Z" fill="url(#paint10_linear_147_4378)"/>
<path d="M437.818 246.169L430.789 242.069L360.21 283.069L359.332 283.655V310.936L365.482 314.565V288.048L437.818 246.169Z" fill="url(#paint11_linear_147_4378)"/>
<path fill-rule="evenodd" clip-rule="evenodd" d="M230.602 328.753V436.556L329.876 492.301L429.15 436.556V328.753L329.83 274.844L230.602 328.753Z" fill="url(#paint12_linear_147_4378)"/>
<path fill-rule="evenodd" clip-rule="evenodd" d="M329.788 274.844C328.411 274.844 327.131 275.122 325.951 275.678C324.967 276.235 234.05 325.563 233.066 326.12C232.18 326.491 231.59 327.325 231.492 328.252C231.59 329.18 232.18 330.014 233.066 330.385C234.05 330.849 324.967 380.177 325.951 380.733C328.411 381.939 331.264 381.939 333.724 380.733C334.708 380.27 425.625 330.941 426.609 330.385C427.494 330.014 428.085 329.18 428.183 328.252C428.085 327.325 427.494 326.491 426.609 326.12C425.625 325.656 334.708 276.328 333.724 275.771C332.445 275.122 331.166 274.844 329.788 274.844Z" fill="url(#paint13_linear_147_4378)"/>
<path fill-rule="evenodd" clip-rule="evenodd" d="M440.147 340.363C440.037 341.458 439.378 342.443 438.39 342.881C437.292 343.429 335.827 402.765 334.729 403.312C331.984 404.735 328.799 404.735 326.054 403.312C324.956 402.765 223.492 343.429 222.393 342.881C221.405 342.443 220.636 341.458 220.636 340.363C220.636 340.144 220.746 339.925 220.746 339.816H220.636V299.31L440.257 299.529V339.816H440.147C440.037 340.035 440.037 340.144 440.147 340.363Z" fill="url(#paint14_linear_147_4378)"/>
<path fill-rule="evenodd" clip-rule="evenodd" d="M330.774 236.799C329.237 236.799 327.81 237.127 326.492 237.784C325.394 238.441 223.929 296.682 222.831 297.339C221.843 297.777 221.184 298.762 221.074 299.857C221.184 300.952 221.843 301.937 222.831 302.375C223.929 302.922 325.394 361.163 326.492 361.82C329.237 363.243 332.422 363.243 335.167 361.82C336.265 361.273 437.729 303.032 438.828 302.375C439.816 301.937 440.475 300.952 440.584 299.857C440.475 298.762 439.816 297.777 438.828 297.339C437.729 296.792 336.265 238.55 335.167 237.894C333.739 237.127 332.312 236.799 330.774 236.799Z" fill="url(#paint15_linear_147_4378)"/>
<path d="M394.106 456.015V367.243L387.312 371.319V460.091L394.106 456.015Z" fill="#262CE7"/>
<path d="M267.741 457.372V368.6L274.082 372.159V372.224V460.996L267.741 457.372Z" fill="#262CE7"/>
<path d="M274.082 268.505L284.952 262.164L394.105 325.572L395.464 326.478V367.694L385.952 373.582V333.272L274.082 268.505Z" fill="url(#paint16_linear_147_4378)"/>
<path d="M388.218 268.505L377.348 262.164L268.194 325.572L266.836 326.478V368.67L276.347 374.282V333.272L388.218 268.505Z" fill="url(#paint17_linear_147_4378)"/>
<path fill-rule="evenodd" clip-rule="evenodd" d="M703.911 430.046C703.844 430.717 703.44 431.321 702.834 431.589C702.161 431.925 639.969 468.294 639.296 468.63C637.613 469.502 635.661 469.502 633.979 468.63C633.306 468.294 571.113 431.925 570.44 431.589C569.835 431.321 569.363 430.717 569.363 430.046C569.363 429.912 569.431 429.777 569.431 429.71H569.363V404.882L703.978 405.017V429.71H703.911C703.844 429.845 703.844 429.912 703.911 430.046Z" fill="url(#paint18_linear_147_4378)"/>
<path fill-rule="evenodd" clip-rule="evenodd" d="M636.872 366.566C635.93 366.566 635.055 366.768 634.247 367.17C633.574 367.573 571.382 403.272 570.709 403.674C570.103 403.943 569.699 404.547 569.632 405.218C569.699 405.889 570.103 406.492 570.709 406.761C571.382 407.096 633.574 442.795 634.247 443.198C635.93 444.07 637.881 444.07 639.564 443.198C640.237 442.862 702.429 407.164 703.102 406.761C703.708 406.492 704.112 405.889 704.179 405.218C704.112 404.547 703.708 403.943 703.102 403.674C702.429 403.339 640.237 367.64 639.564 367.237C638.689 366.768 637.814 366.566 636.872 366.566Z" fill="url(#paint19_linear_147_4378)"/>
<g clip-path="url(#clip0_147_4378)">
<path d="M636.106 421.323C655.303 421.323 670.865 405.761 670.865 386.564C670.865 367.367 655.303 351.805 636.106 351.805C616.909 351.805 601.346 367.367 601.346 386.564C601.346 405.761 616.909 421.323 636.106 421.323Z" fill="url(#paint20_radial_147_4378)"/>
</g>
<g clip-path="url(#clip1_147_4378)">
<path d="M705.525 287.768C713.795 287.768 720.499 281.064 720.499 272.795C720.499 264.525 713.795 257.821 705.525 257.821C697.256 257.821 690.552 264.525 690.552 272.795C690.552 281.064 697.256 287.768 705.525 287.768Z" fill="url(#paint21_radial_147_4378)"/>
</g>
<g clip-path="url(#clip2_147_4378)">
<path d="M490.235 137.9C509.367 137.9 524.876 122.391 524.876 103.259C524.876 84.1276 509.367 68.6184 490.235 68.6184C471.104 68.6184 455.594 84.1276 455.594 103.259C455.594 122.391 471.104 137.9 490.235 137.9Z" fill="url(#paint22_radial_147_4378)"/>
</g>
<g clip-path="url(#clip3_147_4378)">
<path d="M774.657 118.114C782.862 118.114 789.512 111.463 789.512 103.259C789.512 95.055 782.862 88.4043 774.657 88.4043C766.453 88.4043 759.803 95.055 759.803 103.259C759.803 111.463 766.453 118.114 774.657 118.114Z" fill="url(#paint23_radial_147_4378)"/>
</g>
<rect width="80.133" height="80.133" rx="10.6844" transform="matrix(0.866025 -0.5 0 1 183.241 144.844)" fill="#1482FF"/>
<g clip-path="url(#clip4_147_4378)">
<rect width="80.133" height="80.133" rx="10.6844" transform="matrix(0.866025 -0.5 0 1 192.59 150.186)" fill="white"/>
<g clip-path="url(#clip5_147_4378)">
<path d="M221.667 182.095C219.676 184.587 218.067 187.515 217.044 190.503C216.022 193.491 215.633 196.402 215.928 198.865C218.196 197.859 220.499 196.037 222.544 193.63C224.589 191.224 226.282 188.344 227.406 185.358M215.928 183.283C219.339 181.725 222.515 181.63 224.944 183.011C227.373 184.392 228.914 187.17 229.319 190.898C231.01 188.758 232.425 186.299 233.429 183.754C234.433 181.209 234.994 178.662 235.058 176.354C238.27 173.128 241.075 169.066 243.118 164.681C245.161 160.296 246.351 155.785 246.536 151.718C246.536 149.947 245.931 148.608 244.855 147.996C243.779 147.384 242.319 147.549 240.797 148.455C237.397 150.693 234.128 154.022 231.404 158.02C228.68 162.018 226.623 166.505 225.493 170.915C223.543 172.15 221.641 173.935 219.967 176.099C218.293 178.263 216.903 180.736 215.928 183.283ZM235.058 162.999C235.058 163.589 235.26 164.035 235.618 164.239C235.977 164.443 236.464 164.388 236.971 164.086C237.478 163.784 237.965 163.261 238.324 162.63C238.683 161.999 238.884 161.313 238.884 160.722C238.884 160.132 238.683 159.686 238.324 159.482C237.965 159.278 237.478 159.333 236.971 159.635C236.464 159.936 235.977 160.46 235.618 161.091C235.26 161.722 235.058 162.408 235.058 162.999Z" stroke="black" stroke-width="2.47324" stroke-linecap="round" stroke-linejoin="round"/>
</g>
</g>
</g>
<defs>
<filter id="filter0_f_147_4378" x="-238" y="-236" width="1266" height="1049" filterUnits="userSpaceOnUse" color-interpolation-filters="sRGB">
<feFlood flood-opacity="0" result="BackgroundImageFix"/>
<feBlend mode="normal" in="SourceGraphic" in2="BackgroundImageFix" result="shape"/>
<feGaussianBlur stdDeviation="200" result="effect1_foregroundBlur_147_4378"/>
</filter>
<linearGradient id="paint0_linear_147_4378" x1="484.94" y1="215.143" x2="484.94" y2="310.486" gradientUnits="userSpaceOnUse">
<stop offset="0.155" stop-color="#3F4B75"/>
<stop offset="0.375" stop-color="#636F99"/>
</linearGradient>
<linearGradient id="paint1_linear_147_4378" x1="484.923" y1="215.143" x2="484.923" y2="261.966" gradientUnits="userSpaceOnUse">
<stop offset="0.39" stop-color="#6B77A0"/>
<stop offset="0.79" stop-color="#3F4B75"/>
</linearGradient>
<linearGradient id="paint2_linear_147_4378" x1="437.045" y1="248.904" x2="533.335" y2="248.904" gradientUnits="userSpaceOnUse">
<stop stop-color="white"/>
<stop offset="1" stop-color="#A9BCEA"/>
</linearGradient>
<linearGradient id="paint3_linear_147_4378" x1="485.358" y1="198.464" x2="485.358" y2="253.746" gradientUnits="userSpaceOnUse">
<stop offset="0.31" stop-color="white"/>
<stop offset="0.81" stop-color="#C4D1F1"/>
<stop offset="1" stop-color="#C4D1F1"/>
</linearGradient>
<linearGradient id="paint4_linear_147_4378" x1="487.087" y1="258.433" x2="487.087" y2="209.583" gradientUnits="userSpaceOnUse">
<stop stop-color="#0309BB"/>
<stop offset="1" stop-color="#010455"/>
</linearGradient>
<linearGradient id="paint5_linear_147_4378" x1="483.911" y1="258.433" x2="483.911" y2="209.583" gradientUnits="userSpaceOnUse">
<stop stop-color="#0309BB"/>
<stop offset="1" stop-color="#010455"/>
</linearGradient>
<linearGradient id="paint6_linear_147_4378" x1="400.094" y1="250.271" x2="400.094" y2="390.88" gradientUnits="userSpaceOnUse">
<stop offset="0.155" stop-color="#3F4B75"/>
<stop offset="0.375" stop-color="#636F99"/>
</linearGradient>
<linearGradient id="paint7_linear_147_4378" x1="400.069" y1="250.271" x2="400.069" y2="319.325" gradientUnits="userSpaceOnUse">
<stop offset="0.39" stop-color="#6B77A0"/>
<stop offset="0.79" stop-color="#3F4B75"/>
</linearGradient>
<linearGradient id="paint8_linear_147_4378" x1="360.426" y1="270.673" x2="314.842" y2="387.816" gradientUnits="userSpaceOnUse">
<stop stop-color="#354065"/>
<stop offset="0.652971" stop-color="#636F99"/>
</linearGradient>
<linearGradient id="paint9_linear_147_4378" x1="329.742" y1="266.434" x2="471.679" y2="266.434" gradientUnits="userSpaceOnUse">
<stop offset="0.51" stop-color="#636F99"/>
<stop offset="0.875" stop-color="#3F4B75"/>
</linearGradient>
<linearGradient id="paint10_linear_147_4378" x1="403.26" y1="314.112" x2="403.26" y2="242.069" gradientUnits="userSpaceOnUse">
<stop stop-color="#0309BB"/>
<stop offset="1" stop-color="#010455"/>
</linearGradient>
<linearGradient id="paint11_linear_147_4378" x1="398.575" y1="314.112" x2="398.575" y2="242.069" gradientUnits="userSpaceOnUse">
<stop stop-color="#0309BB"/>
<stop offset="1" stop-color="#010455"/>
</linearGradient>
<linearGradient id="paint12_linear_147_4378" x1="329.876" y1="274.844" x2="329.876" y2="492.301" gradientUnits="userSpaceOnUse">
<stop offset="0.155" stop-color="#3F4B75"/>
<stop offset="0.375" stop-color="#636F99"/>
</linearGradient>
<linearGradient id="paint13_linear_147_4378" x1="329.838" y1="274.844" x2="329.838" y2="381.638" gradientUnits="userSpaceOnUse">
<stop offset="0.39" stop-color="#6B77A0"/>
<stop offset="0.79" stop-color="#3F4B75"/>
</linearGradient>
<linearGradient id="paint14_linear_147_4378" x1="220.636" y1="351.845" x2="440.257" y2="351.845" gradientUnits="userSpaceOnUse">
<stop stop-color="white"/>
<stop offset="1" stop-color="#A9BCEA"/>
</linearGradient>
<linearGradient id="paint15_linear_147_4378" x1="330.829" y1="236.799" x2="330.829" y2="362.888" gradientUnits="userSpaceOnUse">
<stop offset="0.31" stop-color="white"/>
<stop offset="0.81" stop-color="#C4D1F1"/>
<stop offset="1" stop-color="#C4D1F1"/>
</linearGradient>
<linearGradient id="paint16_linear_147_4378" x1="334.773" y1="373.582" x2="334.773" y2="262.164" gradientUnits="userSpaceOnUse">
<stop stop-color="#0309BB"/>
<stop offset="1" stop-color="#010455"/>
</linearGradient>
<linearGradient id="paint17_linear_147_4378" x1="327.527" y1="373.582" x2="327.527" y2="262.164" gradientUnits="userSpaceOnUse">
<stop stop-color="#0309BB"/>
<stop offset="1" stop-color="#010455"/>
</linearGradient>
<linearGradient id="paint18_linear_147_4378" x1="598.718" y1="409.228" x2="555.507" y2="520.272" gradientUnits="userSpaceOnUse">
<stop stop-color="#354065"/>
<stop offset="0.652971" stop-color="#636F99"/>
</linearGradient>
<linearGradient id="paint19_linear_147_4378" x1="569.632" y1="405.209" x2="704.179" y2="405.209" gradientUnits="userSpaceOnUse">
<stop offset="0.51" stop-color="#636F99"/>
<stop offset="0.875" stop-color="#3F4B75"/>
</linearGradient>
<radialGradient id="paint20_radial_147_4378" cx="0" cy="0" r="1" gradientUnits="userSpaceOnUse" gradientTransform="translate(629.184 367.628) scale(48.0632)">
<stop offset="0.19" stop-color="#D3DAF5"/>
<stop offset="0.59" stop-color="#A6B0D3"/>
<stop offset="0.72" stop-color="#909DC8"/>
<stop offset="0.87" stop-color="#8390C0"/>
<stop offset="1" stop-color="#69759F"/>
</radialGradient>
<radialGradient id="paint21_radial_147_4378" cx="0" cy="0" r="1" gradientUnits="userSpaceOnUse" gradientTransform="translate(702.544 264.637) scale(20.7043)">
<stop offset="0.19" stop-color="#D3DAF5"/>
<stop offset="0.59" stop-color="#A6B0D3"/>
<stop offset="0.72" stop-color="#909DC8"/>
<stop offset="0.87" stop-color="#8390C0"/>
<stop offset="1" stop-color="#69759F"/>
</radialGradient>
<radialGradient id="paint22_radial_147_4378" cx="0" cy="0" r="1" gradientUnits="userSpaceOnUse" gradientTransform="translate(483.337 84.3873) scale(47.8992)">
<stop offset="0.19" stop-color="#77AAE4"/>
<stop offset="0.59" stop-color="#2E90FF"/>
<stop offset="0.72" stop-color="#1482FF"/>
<stop offset="0.87" stop-color="#1A6CC9"/>
<stop offset="1" stop-color="#0D5DB8"/>
</radialGradient>
<radialGradient id="paint23_radial_147_4378" cx="0" cy="0" r="1" gradientUnits="userSpaceOnUse" gradientTransform="translate(771.699 95.1664) scale(20.5403)">
<stop offset="0.19" stop-color="#77AAE4"/>
<stop offset="0.59" stop-color="#2E90FF"/>
<stop offset="0.72" stop-color="#1482FF"/>
<stop offset="0.87" stop-color="#1A6CC9"/>
<stop offset="1" stop-color="#0D5DB8"/>
</radialGradient>
<clipPath id="clip0_147_4378">
<rect width="69.5184" height="69.5184" fill="white" transform="translate(601.346 351.805)"/>
</clipPath>
<clipPath id="clip1_147_4378">
<rect width="29.9466" height="29.9466" fill="white" transform="translate(690.552 257.821)"/>
</clipPath>
<clipPath id="clip2_147_4378">
<rect width="69.2813" height="69.2813" fill="white" transform="translate(455.594 68.6184)"/>
</clipPath>
<clipPath id="clip3_147_4378">
<rect width="29.7095" height="29.7095" fill="white" transform="translate(759.803 88.4043)"/>
</clipPath>
<clipPath id="clip4_147_4378">
<rect width="80.133" height="80.133" rx="10.6844" transform="matrix(0.866025 -0.5 0 1 192.59 150.186)" fill="white"/>
</clipPath>
<clipPath id="clip5_147_4378">
<rect width="53.422" height="53.422" fill="white" transform="matrix(0.859406 -0.511293 0 1 208.278 158.898)"/>
</clipPath>
</defs>
</svg>
