<svg version="1.1" xmlns="http://www.w3.org/2000/svg" xmlns:xlink="http://www.w3.org/1999/xlink" viewBox="0 0 130 120" enable-background="new 0 0 130 120" xml:space="preserve" width="64px" height="64px" fill="#000000"><g id="SVGRepo_bgCarrier" stroke-width="0"></g><g id="SVGRepo_tracerCarrier" stroke-linecap="round" stroke-linejoin="round"></g><g id="SVGRepo_iconCarrier"> <g id="Infos"> <rect id="BG" x="-1100" y="-740" fill="#D8D8D8" width="2180" height="1700"></rect> </g> <g id="Others"> </g> <g id="Europe"> <g id="Row_5"> </g> <g id="Row_4"> </g> <g id="Row_3"> </g> <g id="Row_2"> <g> <rect y="80" fill="#4393F5" width="130" height="13.3"></rect> <rect y="106.7" fill="#4393F5" width="130" height="13.3"></rect> <rect y="93.3" fill="#FFFFFF" width="130" height="13.3"></rect> <polygon fill="#4393F5" points="0,0 0,66.7 70,66.7 130,66.7 130,53.3 70,53.3 70,40 130,40 130,26.7 70,26.7 70,13.3 130,13.3 130,0 "></polygon> <g> <rect x="70" y="13.3" fill="#FFFFFF" width="60" height="13.3"></rect> <rect x="70" y="40" fill="#FFFFFF" width="60" height="13.3"></rect> <polygon fill="#FFFFFF" points="41.7,26.7 41.7,0 28.3,0 28.3,26.7 0,26.7 0,40 28.3,40 28.3,66.7 0,66.7 0,80 130,80 130,66.7 41.7,66.7 41.7,40 70,40 70,26.7 "></polygon> </g> </g> </g> <g id="Row_1"> </g> </g> </g></svg>