<svg width="343" height="34" viewBox="0 0 343 34" fill="none" xmlns="http://www.w3.org/2000/svg">
<path fill-rule="evenodd" clip-rule="evenodd" d="M12.0847 11.4868C12.5022 9.5197 13.6512 8.27312 15.5575 8.27312C17.2546 8.27312 18.5589 9.63089 18.7685 11.4868H12.0847ZM20.6999 13.814C21.9796 13.814 22.3714 13.4544 22.3714 12.0689C22.3714 8.74392 19.865 5.44727 15.4785 5.44727C10.9622 5.44727 8.2727 8.60541 8.2727 13.3154C8.2727 16.834 10.2835 20.6575 15.6091 20.6575C17.9063 20.6575 21.5882 19.5213 21.5882 17.0833C21.5882 16.3354 20.9351 15.5041 20.0213 15.5041C19.3703 15.5041 18.9945 15.8606 18.5606 16.2723C17.968 16.8345 17.2672 17.4995 15.6091 17.4995C13.39 17.4995 12.0847 15.9475 12.0847 13.814H20.6999ZM38.443 7.48631C38.443 6.39727 38.0207 5.44727 36.516 5.44727C35.0118 5.44727 34.5895 6.39731 34.5895 7.48631V14.2173C34.5895 16.2559 33.0058 17.4292 31.6595 17.4292C29.9964 17.4292 29.2308 16.2559 29.2308 14.6083V7.48631C29.2308 6.39727 28.8085 5.44727 27.3038 5.44727C25.7996 5.44727 25.3769 6.39731 25.3769 7.48631V15.418C25.3769 19.5517 27.9114 20.781 30.2338 20.781C32.4251 20.781 33.8239 19.7198 34.9068 18.2112H34.9588V18.742C34.9588 19.9709 35.4866 20.781 36.7014 20.781C37.9152 20.781 38.443 19.9709 38.443 18.742V7.48631ZM38.4712 23.6601C39.6811 23.6601 40.6611 24.6141 40.6611 25.7914C40.6611 26.9687 39.6811 27.9227 38.4712 27.9227H6.40215C4.38646 27.9227 2.75248 26.2892 2.75248 24.2735V22.5597C2.75248 22.35 2.77014 22.1449 2.80408 21.9445C3.02121 22.9259 3.89578 23.6601 4.94199 23.6601H38.4712ZM0.634888 18.7198C0.634888 19.9544 1.65019 20.9702 2.88529 20.9702C4.12039 20.9702 5.13573 19.9544 5.13573 18.7198C5.13573 17.4847 4.12039 16.4694 2.88529 16.4694C1.65019 16.4694 0.634888 17.4847 0.634888 18.7198ZM8.07115 24.5405L8.70038 26.0117V26.9661H9.18887V26.0117L9.81766 24.5405H9.2877L8.94794 25.4782L8.62183 24.5405H8.07115ZM9.65087 26.0523C9.65087 26.6873 9.80707 27.0235 10.3714 27.0138C10.908 27.0138 11.0911 26.6771 11.0911 26.0523C11.0911 25.4168 10.9349 25.0811 10.3714 25.0908C9.83487 25.0908 9.65087 25.4275 9.65087 26.0523ZM10.1199 26.0523C10.1199 25.6781 10.1402 25.4103 10.3714 25.4103C10.5612 25.4103 10.6225 25.5973 10.6225 26.0523C10.6225 26.5072 10.5612 26.6943 10.3714 26.6943C10.1402 26.6943 10.1199 26.4256 10.1199 26.0523ZM12.2803 26.9661H12.7282V25.1384H12.26V26.3515C12.26 26.5548 12.1713 26.6533 12.0116 26.6533C11.8731 26.6533 11.8117 26.5822 11.8117 26.3986V25.1384H11.3427V26.4935C11.3427 26.8536 11.5161 27.0138 11.8082 27.0138C12.0054 27.0138 12.1749 26.9322 12.2733 26.7517L12.2803 26.9661ZM13.0411 26.9661H13.5101V25.8687C13.5101 25.6242 13.6937 25.5395 13.8561 25.5395C13.9037 25.5395 13.9549 25.5426 14.0026 25.5457V25.0974C13.9752 25.0943 13.9443 25.0908 13.9174 25.0908C13.7237 25.0908 13.5913 25.2059 13.496 25.3833L13.4894 25.1384H13.0411V26.9661ZM15.0007 24.5405V26.9661H16.3902V26.565H15.4901V25.9129H16.3051V25.5122H15.4901V24.9412H16.3567V24.5405H15.0007ZM17.5591 26.9661H18.007V25.1384H17.5388V26.3515C17.5388 26.5548 17.4506 26.6533 17.2904 26.6533C17.1514 26.6533 17.0901 26.5822 17.0901 26.3986V25.1384H16.6214V26.4935C16.6214 26.8536 16.7944 27.0138 17.087 27.0138C17.2838 27.0138 17.4537 26.9322 17.5521 26.7517L17.5591 26.9661ZM18.3199 26.9661H18.7885V25.8687C18.7885 25.6242 18.9716 25.5395 19.1349 25.5395C19.1821 25.5395 19.2337 25.5426 19.2809 25.5457V25.0974C19.254 25.0943 19.2231 25.0908 19.1962 25.0908C19.0025 25.0908 18.8701 25.2059 18.7748 25.3833L18.7682 25.1384H18.3199V26.9661ZM19.3895 26.0523C19.3895 26.6873 19.5457 27.0235 20.1101 27.0138C20.6462 27.0138 20.8298 26.6771 20.8298 26.0523C20.8298 25.4168 20.6735 25.0811 20.1101 25.0908C19.573 25.0908 19.3895 25.4275 19.3895 26.0523ZM19.8585 26.0523C19.8585 25.6781 19.8789 25.4103 20.1101 25.4103C20.2998 25.4103 20.3611 25.5973 20.3611 26.0523C20.3611 26.5072 20.2998 26.6943 20.1101 26.6943C19.8789 26.6943 19.8585 26.4256 19.8585 26.0523ZM21.5503 26.0523C21.5503 25.6547 21.5905 25.4513 21.7979 25.4513C22.0017 25.4513 22.0428 25.6547 22.0428 26.0523C22.0428 26.4494 22.0017 26.6533 21.7979 26.6533C21.5905 26.6533 21.5503 26.4494 21.5503 26.0523ZM21.0813 27.5636H21.5503V26.7962C21.6549 26.9419 21.7741 27.0138 21.9505 27.0138C22.3344 27.0138 22.511 26.7318 22.511 26.0523C22.511 25.3727 22.3344 25.0908 21.9505 25.0908C21.7674 25.0908 21.6386 25.1618 21.5366 25.3322L21.5296 25.1384H21.0813V27.5636ZM24.1079 26.1233V26.0179C24.1079 25.4574 23.9856 25.0908 23.4389 25.0908C22.8066 25.0908 22.7117 25.5457 22.7117 26.0351C22.7117 26.49 22.7386 27.0138 23.4182 27.0138C23.8594 27.0138 24.0637 26.7755 24.0809 26.3515H23.6596C23.6327 26.5752 23.5678 26.6943 23.4111 26.6943C23.2381 26.6943 23.1808 26.4838 23.1808 26.2694V26.1233H24.1079ZM23.1808 25.8449V25.7738C23.1808 25.604 23.2346 25.4103 23.4217 25.4103C23.6154 25.4103 23.6494 25.5665 23.6596 25.8449H23.1808ZM24.7702 25.6953V25.6454C24.7702 25.5042 24.8448 25.4103 24.9878 25.4103C25.1435 25.4103 25.2049 25.4941 25.2049 25.6322C25.2049 25.7531 25.1576 25.8078 25.0182 25.8453L24.7535 25.9173C24.4305 26.0059 24.291 26.1454 24.291 26.4896C24.291 26.7353 24.4066 27.0138 24.7327 27.0138C24.9569 27.0138 25.0897 26.9661 25.1982 26.7755C25.2047 26.7949 25.2104 26.8152 25.2162 26.8358L25.2162 26.8359C25.2287 26.8805 25.2415 26.9263 25.2627 26.9661H25.7114C25.6638 26.8602 25.6536 26.7821 25.6536 26.6118V25.6485C25.6536 25.322 25.5481 25.0908 24.9908 25.0908C24.6379 25.0908 24.3488 25.2337 24.3488 25.6516V25.6953H24.7702ZM25.2049 26.4115C25.2049 26.6127 25.0416 26.6943 24.9167 26.6943C24.7905 26.6943 24.7402 26.5782 24.7402 26.4384C24.7402 26.2751 24.8143 26.1829 25.005 26.1423C25.0623 26.1282 25.1405 26.0973 25.2049 26.0501V26.4115ZM25.9859 26.9661H26.4549V25.7531C26.4549 25.5492 26.5432 25.4513 26.7029 25.4513C26.8419 25.4513 26.9033 25.5223 26.9033 25.7059V26.9661H27.3719V25.6106C27.3719 25.25 27.1989 25.0908 26.9068 25.0908C26.7095 25.0908 26.5397 25.1724 26.4417 25.3524L26.4347 25.1384H25.9859V26.9661ZM29.0262 26.9661V24.5405H28.5368V26.9661H29.0262ZM29.8006 26.0523C29.8006 25.6547 29.8416 25.4513 30.045 25.4513C30.2524 25.4513 30.293 25.6547 30.293 26.0523C30.293 26.4494 30.2524 26.6533 30.045 26.6533C29.8416 26.6533 29.8006 26.4494 29.8006 26.0523ZM30.3138 26.9661H30.7621V24.5405H30.293V25.3083C30.188 25.1618 30.0693 25.0908 29.8924 25.0908C29.5089 25.0908 29.332 25.3727 29.332 26.0523C29.332 26.7318 29.5089 27.0138 29.8924 27.0138C30.0759 27.0138 30.2048 26.9418 30.3071 26.772L30.3138 26.9661ZM32.4031 26.1233V26.0179C32.4031 25.4574 32.2805 25.0908 31.7333 25.0908C31.1019 25.0908 31.007 25.5457 31.007 26.0351C31.007 26.49 31.0339 27.0138 31.713 27.0138C32.1547 27.0138 32.3581 26.7755 32.3753 26.3515H31.9548C31.927 26.5752 31.8626 26.6943 31.7064 26.6943C31.533 26.6943 31.4752 26.4838 31.4752 26.2694V26.1233H32.4031ZM31.4752 25.8449V25.7738C31.4752 25.604 31.5299 25.4103 31.7165 25.4103C31.9107 25.4103 31.9442 25.5665 31.9548 25.8449H31.4752ZM32.6476 26.9661H33.1162V25.7531C33.1162 25.5492 33.2045 25.4513 33.3638 25.4513C33.5036 25.4513 33.5646 25.5223 33.5646 25.7059V26.9661H34.0336V25.6106C34.0336 25.25 33.8602 25.0908 33.5681 25.0908C33.3713 25.0908 33.2009 25.1724 33.1025 25.3524L33.0959 25.1384H32.6476V26.9661ZM34.4479 25.1384H34.2101V25.4574H34.4479V26.5041C34.4479 26.8739 34.5154 26.986 34.8821 26.986C34.9895 26.986 35.0835 26.9766 35.1832 26.9666L35.1879 26.9661V26.6396C35.1575 26.6431 35.12 26.6471 35.0833 26.6471C34.947 26.6471 34.9165 26.5888 34.9165 26.4459V25.4574H35.1879V25.1384H34.9165V24.6155H34.4479V25.1384ZM35.3684 26.9661H35.837V25.1384H35.3684V26.9661ZM35.3684 24.9143H35.837V24.5131H35.3684V24.9143ZM36.2686 25.1384H36.0308V25.4574H36.2686V26.5041C36.2686 26.8739 36.3365 26.986 36.7032 26.986C36.8101 26.986 36.904 26.9766 37.0037 26.9666L37.0086 26.9661V26.6396C36.9781 26.6431 36.941 26.6471 36.9031 26.6471C36.7676 26.6471 36.7372 26.5888 36.7372 26.4459V25.4574H37.0086V25.1384H36.7372V24.6155H36.2686V25.1384ZM37.1718 27.5636H37.362C37.7971 27.5636 37.9021 27.4754 38.065 26.8439L38.5067 25.1384H38.038L37.8002 26.4018L37.5217 25.1384H37.0324L37.5456 26.9661C37.5323 27.129 37.4675 27.2243 37.2941 27.2243C37.2535 27.2243 37.2129 27.2207 37.1718 27.2137V27.5636Z" fill="white"/>
<path fill-rule="evenodd" clip-rule="evenodd" d="M124.904 18.5718V18.0486H125.242C125.426 18.0486 125.595 18.0978 125.595 18.3068C125.595 18.5649 125.373 18.5718 125.15 18.5718H124.904ZM124.904 18.7292H125.211L125.634 19.3999H125.857L125.403 18.7292C125.611 18.694 125.787 18.5741 125.787 18.3068C125.787 18.0379 125.634 17.8911 125.296 17.8911H124.712V19.3999H124.904V18.7292ZM125.188 17.3411C124.451 17.3411 123.882 17.9127 123.882 18.6471C123.882 19.3792 124.451 19.9531 125.188 19.9531C125.926 19.9531 126.494 19.3792 126.494 18.6471C126.494 17.9127 125.926 17.3411 125.188 17.3411ZM125.188 17.527C125.818 17.527 126.287 18.021 126.287 18.6471C126.287 19.2709 125.818 19.7656 125.188 19.7656C124.558 19.7656 124.082 19.2709 124.082 18.6471C124.082 18.021 124.558 17.527 125.188 17.527ZM82.9055 6.2811H81.8223V5.19792H82.9055V6.2811ZM82.9055 4.13005H81.8223V3.04688H82.9055V4.13005ZM92.877 21.73H93.2995C93.6606 23.5759 94.6516 25.1309 96.7565 25.1309C98.1777 25.1309 99.3684 24.3265 99.3684 22.8438C99.3684 21.1815 97.9241 20.5215 96.5875 19.9914C94.9205 19.353 93.1536 18.4734 93.1536 16.3893C93.1536 14.3051 94.7822 13.099 96.7719 13.099C97.7782 13.099 98.7078 13.4462 99.5298 14.0309L99.9523 13.3187H100.16L100.244 16.4814H99.8216C99.4069 14.9634 98.5465 13.5922 96.7719 13.5922C95.6042 13.5922 94.6362 14.3428 94.6362 15.5289C94.6362 16.9255 95.8478 17.4347 96.9482 17.8971L97.0637 17.9457C98.9689 18.73 101.089 19.6834 101.089 22.0764C101.089 24.4717 98.8537 25.624 96.7181 25.624C95.4736 25.624 94.5056 25.2584 93.5146 24.5262L93.0767 25.296H92.877V21.73ZM102.142 14.087C102.142 13.5369 102.58 13.099 103.133 13.099C103.678 13.099 104.101 13.5369 104.101 14.087C104.101 14.617 103.678 15.0549 103.163 15.0549C102.618 15.0549 102.142 14.6531 102.142 14.087ZM104.116 17.3411V23.2103C104.121 23.3595 104.122 23.4986 104.123 23.6281V23.6281C104.13 24.5442 104.134 24.9769 105.399 25.0563V25.4243C105.135 25.4158 104.861 25.4041 104.582 25.3923L104.582 25.3923C104.205 25.3762 103.82 25.3598 103.44 25.3505C103.049 25.3594 102.659 25.3747 102.27 25.39L102.27 25.39C101.949 25.4026 101.627 25.4152 101.304 25.4243V25.0563C102.555 24.9725 102.557 24.5904 102.562 23.5781C102.563 23.4959 102.563 23.4094 102.564 23.3186V20.7051C102.564 20.3579 102.564 18.9513 102.487 18.674C102.364 18.2176 101.596 18.2538 101.228 18.2737V17.9081L104.116 17.3411ZM110.815 20.2857C110.815 19.115 110.377 17.7628 108.987 17.7628C107.581 17.7628 107.197 19.1318 107.197 20.2857C107.197 21.3835 107.635 22.7363 108.956 22.7363C110.362 22.7363 110.815 21.4718 110.815 20.2857ZM109.54 24.5824L109.708 24.5952C111.523 24.7333 113.373 24.8741 113.373 27.2542C113.373 29.5727 111.222 30.3232 109.225 30.3232C107.711 30.3232 105.391 29.7946 105.391 27.8926C105.391 27.1413 105.952 26.373 106.743 26.373C107.051 26.373 107.289 26.5021 107.504 26.7041C106.905 26.8124 106.559 27.4332 106.559 28.0009C106.559 29.5911 108.18 29.903 109.463 29.903C110.746 29.903 112.136 29.3552 112.136 27.8726C112.136 26.2484 110.481 26.1732 109.233 26.1165C109.105 26.1107 108.981 26.1051 108.864 26.098C108.808 26.0964 108.752 26.0949 108.695 26.0935C107.502 26.0624 105.99 26.023 105.99 24.454C105.99 23.5759 106.812 22.9906 107.596 22.8807V22.8438C106.536 22.4973 105.645 21.4918 105.645 20.3217C105.645 18.3821 107.289 17.3411 109.079 17.3411C109.924 17.3411 110.784 17.597 111.406 18.1639C111.898 17.7798 112.513 17.3948 113.181 17.3948C113.65 17.3948 114.256 17.6169 114.256 18.18C114.256 18.5119 114.003 18.7838 113.65 18.7838C113.369 18.7838 113.214 18.6246 113.058 18.4654C112.903 18.3062 112.747 18.1469 112.467 18.1469C112.205 18.1469 111.913 18.3291 111.714 18.4918C112.152 18.9859 112.374 19.6258 112.374 20.2857C112.374 22.442 110.746 23.0636 108.864 23.1557L108.771 23.1586C108.168 23.1762 106.905 23.2131 106.905 23.9224C106.905 24.4672 107.63 24.4961 108.094 24.5146C108.176 24.5179 108.25 24.5208 108.311 24.5262L109.54 24.5824ZM123.02 23.5164V23.5165C123.008 24.5092 123.003 24.9737 124.305 25.0563V25.4243C124.008 25.4153 123.707 25.4027 123.407 25.3902C123.039 25.3748 122.671 25.3594 122.307 25.3505C121.917 25.3594 121.533 25.3746 121.149 25.3899H121.149C120.83 25.4025 120.511 25.4152 120.187 25.4243V25.0563C121.478 24.9712 121.476 24.579 121.471 23.5327C121.47 23.4642 121.47 23.3928 121.47 23.3186V20.9793L121.47 20.8688C121.472 19.6153 121.474 17.9257 119.788 17.9257C118.359 17.9257 117.445 19.0411 117.445 20.3771V23.2103C117.445 23.3261 117.443 23.4359 117.442 23.5398V23.5399C117.428 24.5165 117.422 24.9744 118.728 25.0563V25.4243C118.428 25.4152 118.125 25.4025 117.823 25.3899L117.823 25.3899C117.458 25.3746 117.095 25.3594 116.738 25.3505C116.347 25.3594 115.96 25.3746 115.574 25.3899C115.254 25.4026 114.933 25.4152 114.61 25.4243V25.0563C115.9 24.9712 115.899 24.579 115.893 23.5327C115.893 23.4642 115.893 23.3928 115.893 23.3186V21.0731V21.0731C115.893 20.5598 115.893 19.2793 115.801 18.8576C115.668 18.2611 115.252 18.2662 114.741 18.2724C114.688 18.2731 114.634 18.2737 114.579 18.2737V17.9081C115.12 17.8447 115.573 17.7215 116.03 17.5971C116.371 17.5042 116.715 17.4107 117.099 17.3411L117.337 19.0035H117.375C118.013 17.8696 119.004 17.3411 120.295 17.3411C122.038 17.3411 123.022 18.1255 123.022 19.8639V23.2103C123.022 23.3175 123.021 23.4195 123.02 23.5164ZM79.7866 7.3335H78.7802V6.27374H78.7802V5.19826H80.7468V6.27365L79.7866 6.2737V7.3335ZM80.7468 5.19826V4.13038H81.8223V5.19826H80.7468ZM78.7802 8.34794V6.27374H77.7968V8.34794L76.7751 8.34785V7.37991H75.7611V8.34785H76.7751V9.35426L75.0851 9.35435V10.0917H74.1785V10.9944H73.103V12.5754H72.089V13.5864H71.413V14.5973H70.6755C69.8381 15.8372 67.7485 19.7014 67.1186 21.2724C64.8447 18.1073 63.0778 16.8498 61.6873 16.3973C60.9422 16.1714 60.028 16.9896 61.2802 18.2741C63.8722 21.1315 64.859 23.5416 65.6678 25.5167C65.7507 25.7193 65.8318 25.9172 65.9125 26.1106C66.3734 27.2053 68.4399 27.3774 68.8548 26.2612C69.7306 23.8982 71.0135 21.2463 72.5192 19.0699V17.9422H73.3335V16.922H74.1785V15.7459H75.2003V14.6066H76.199V13.5864H77.0056V12.3503H77.9044V11.503H78.7802V9.35426H79.7866V8.34794H80.9158V7.33392H79.7866V8.34794H78.7802ZM77.7968 9.35426V8.34794H78.7802V9.35426H77.7968ZM75.2003 14.6066V13.591H74.1785V14.6066H75.2003ZM74.1785 10.9944H75.1926V12.0008H74.1785V10.9944ZM77.7968 9.35426V10.3761H76.7751V9.35426H77.7968ZM77.935 19.9949C77.8874 19.9931 77.8432 19.9915 77.8044 19.9915H74.7854C75.0005 18.8031 75.5536 17.7629 76.921 17.7629C78.0734 17.7629 78.6956 18.4919 78.6956 19.6258C78.6956 20.0229 78.245 20.0063 77.935 19.9949ZM76.921 25.6241C78.2961 25.6241 79.3179 25.1309 80.1783 24.0708L79.7942 23.6859C79.2487 24.4149 78.4191 25.0387 77.4895 25.0387C75.5305 25.0387 74.6164 23.102 74.6164 21.3651L74.6932 20.4855H79.9401C79.975 20.4855 80.0129 20.4881 80.0515 20.4909C80.2166 20.5025 80.3933 20.5149 80.3933 20.3218C80.3933 18.3476 78.6956 17.3411 76.9056 17.3411C74.5241 17.3411 72.788 19.4054 72.788 21.6916C72.788 24.0324 74.6548 25.6241 76.921 25.6241ZM82.0149 20.8736C82.0146 20.949 82.0143 21.0165 82.0143 21.0732V23.3187C82.0143 23.3985 82.0147 23.4749 82.0151 23.5481C82.021 24.5829 82.0233 24.9717 80.739 25.0564V25.4243C81.0631 25.4153 81.3824 25.4026 81.7013 25.3899C82.0854 25.3747 82.4689 25.3594 82.8593 25.3506C83.2372 25.3594 83.622 25.3747 84.0074 25.3899C84.3272 25.4026 84.6473 25.4153 84.9643 25.4243V25.0564C83.5575 24.9902 83.5611 24.6176 83.5718 23.5298C83.5727 23.4295 83.5738 23.3231 83.5738 23.2104V21.3996C83.5738 20.56 83.5738 19.6642 83.9963 18.9129C84.2652 18.4559 84.872 17.9995 85.4175 17.9995C85.7682 17.9995 85.9079 18.2289 86.0501 18.4625C86.1976 18.7047 86.3477 18.9514 86.7389 18.9514C87.0846 18.9514 87.3765 18.6395 87.3765 18.2915C87.3765 17.617 86.6466 17.3411 86.0781 17.3411C84.8183 17.3411 83.9041 18.0733 83.4278 19.188H83.3894C83.4125 18.5281 83.3356 17.8697 83.1743 17.3411C82.9021 17.4026 82.6298 17.4807 82.3555 17.5593C81.8171 17.7138 81.2707 17.8705 80.7006 17.9082V18.2738C80.7558 18.2738 80.8098 18.2732 80.8626 18.2725C81.3689 18.2663 81.7607 18.2615 81.9068 18.8577C82.0224 19.2309 82.0176 20.2921 82.0149 20.8736ZM89.7656 13.099C89.2201 13.099 88.7823 13.537 88.7823 14.087C88.7823 14.6532 89.2585 15.055 89.804 15.055C90.3187 15.055 90.7412 14.617 90.7412 14.087C90.7412 13.537 90.3187 13.099 89.7656 13.099ZM90.7565 23.2104V17.3411L87.8681 17.9082V18.2738C88.2368 18.2539 89.005 18.2177 89.128 18.6741C89.2047 18.9514 89.2047 20.358 89.2047 20.7052V23.3187C89.2029 23.417 89.2019 23.5102 89.201 23.5985C89.1908 24.5956 89.1869 24.9731 87.9449 25.0564V25.4243C88.2609 25.4154 88.5784 25.403 88.8967 25.3905C89.2905 25.375 89.6855 25.3595 90.0805 25.3506C90.4606 25.3599 90.8457 25.3763 91.2228 25.3923C91.5012 25.4042 91.7752 25.4159 92.0395 25.4243V25.0564C90.7742 24.977 90.7707 24.5443 90.7635 23.6284C90.7624 23.4988 90.7613 23.3596 90.7565 23.2104Z" fill="white"/>
<path d="M169.319 18.5643L167.796 15.8992H166.924V18.5643H164.998V11.0116H168.361C169.128 11.0116 169.722 11.1717 170.201 11.5202C170.795 11.9439 171.102 12.6408 171.102 13.3942C171.102 14.3171 170.651 15.2117 169.645 15.6167L171.408 18.5643H169.319ZM168.112 12.4996H166.914V14.496H168.112C168.802 14.496 169.233 14.1005 169.233 13.4884C169.233 12.7915 168.754 12.4996 168.112 12.4996ZM172.29 18.5643V11.0116H174.216V18.5643H172.29ZM179.045 15.9463H177.445V18.5643H175.529V11.0116H178.997C180.703 11.0116 181.69 12.0381 181.69 13.4319C181.69 14.6844 180.914 15.9463 179.045 15.9463ZM178.691 12.4996H177.455V14.496H178.691C179.352 14.496 179.812 14.157 179.812 13.479C179.812 12.8292 179.381 12.4996 178.691 12.4996ZM182.658 18.5643V11.0116H188.311V12.5466H184.574V13.9875H187.717V15.5131H184.574V17.0199H188.331V18.5643H182.658ZM197.031 18.5643L194.023 14.1287H194.003V18.5643H192.221V11.0116H194.09L197.012 15.2777H197.031V11.0116H198.823V18.5643H197.031ZM203.203 18.6961C201.506 18.6961 199.925 17.858 199.925 15.9745V13.6767C199.925 11.8215 201.459 10.8892 203.145 10.8892C204.64 10.8892 206.269 11.6332 206.269 13.3754V13.8556H204.458V13.5543C204.458 12.7727 203.777 12.4336 203.183 12.4336C202.503 12.4336 201.851 12.7821 201.851 13.639V15.9275C201.851 16.6997 202.426 17.1423 203.212 17.1423C203.806 17.1423 204.458 16.8127 204.458 16.0216V15.7109H206.269V16.2194C206.269 17.9522 204.688 18.6961 203.203 18.6961ZM210.428 18.6961C208.732 18.6961 207.15 17.858 207.15 15.9745V13.6767C207.15 11.8215 208.684 10.8892 210.37 10.8892C211.865 10.8892 213.494 11.6332 213.494 13.3754V13.8556H211.683V13.5543C211.683 12.7727 211.003 12.4336 210.408 12.4336C209.728 12.4336 209.077 12.7821 209.077 13.639V15.9275C209.077 16.6997 209.651 17.1423 210.437 17.1423C211.031 17.1423 211.683 16.8127 211.683 16.0216V15.7391H213.494V16.2194C213.504 17.9522 211.913 18.6961 210.428 18.6961ZM158.654 15.4283V11.0399L154.505 8.68555L150.356 11.0399V15.4378L146.494 17.6226V22.3312L150.643 24.6855L154.505 22.4913L158.367 24.6855L162.516 22.3312V17.6226L158.654 15.4283ZM154.505 17.4531L151.209 15.579L154.505 13.705L157.801 15.579L154.505 17.4531ZM150.921 16.0687L154.217 17.9428V21.6814L150.921 19.8074V16.0687ZM154.783 17.9428L158.079 16.0687V19.8074L154.783 21.672V17.9428ZM150.921 11.3601L154.505 9.32592L158.089 11.3601V15.0987L154.505 13.0646L150.921 15.0987V11.3601ZM147.059 22.0016V17.9333L150.356 16.0593V20.1182L153.94 22.1523L150.634 24.0263L147.059 22.0016ZM161.95 22.0016L158.367 24.0358L155.061 22.1617L158.644 20.1276V16.0687L161.941 17.9428L161.95 22.0016ZM165.314 21.5873V22.3312H165.103V20.5325H165.601C165.822 20.5325 165.994 20.5702 166.1 20.6549C166.205 20.7397 166.262 20.8621 166.262 21.0411C166.262 21.2765 166.138 21.4366 165.898 21.5213L166.397 22.3312H166.138L165.697 21.5873H165.314ZM165.314 21.4083H165.601C165.755 21.4083 165.86 21.3801 165.937 21.3236C166.013 21.2671 166.042 21.1729 166.042 21.0599C166.042 20.9375 166.004 20.8527 165.937 20.8056C165.87 20.7585 165.755 20.7303 165.592 20.7303H165.314V21.4083ZM166.694 22.3312V20.5325H166.904V22.3312H166.694ZM168.581 21.0599C168.581 21.2388 168.514 21.3801 168.39 21.4837C168.265 21.5778 168.083 21.6343 167.844 21.6343H167.633V22.3406H167.422V20.5419H167.901C168.351 20.5325 168.581 20.7114 168.581 21.0599ZM167.633 21.446H167.824C168.016 21.446 168.15 21.4177 168.236 21.3518C168.323 21.2953 168.361 21.1917 168.361 21.0599C168.361 20.9375 168.323 20.8527 168.246 20.7962C168.169 20.7397 168.045 20.7114 167.872 20.7114H167.633V21.446ZM169.99 22.3312H168.965V20.5325H169.99V20.7209H169.185V21.3047H169.942V21.4931H169.185V22.1523H169.99V22.3312ZM172.51 22.3312H172.271L171.274 20.8245H171.264C171.274 21.0034 171.284 21.1635 171.284 21.3142V22.3312H171.082V20.5325H171.322L172.319 22.0393H172.328C172.328 22.0204 172.319 21.9451 172.319 21.8227C172.309 21.7003 172.309 21.6155 172.309 21.5684V20.5325H172.51V22.3312ZM174.043 22.3312H173.018V20.5325H174.043V20.7209H173.229V21.3047H173.986V21.4931H173.229V22.1523H174.034V22.3312H174.043ZM175.021 22.3312H174.81V20.7209H174.225V20.5325H175.596V20.7209H175.011V22.3312H175.021ZM177.483 22.3312H177.273L176.899 21.1258C176.88 21.0693 176.861 21.0034 176.841 20.928C176.822 20.8527 176.813 20.7962 176.803 20.7774C176.784 20.8904 176.755 21.0034 176.717 21.1352L176.362 22.3312H176.151L175.663 20.5325H175.893L176.18 21.6438C176.219 21.8039 176.247 21.9451 176.266 22.0675C176.286 21.9169 176.324 21.7662 176.362 21.6249L176.688 20.5325H176.918L177.263 21.6343C177.301 21.7662 177.34 21.9074 177.368 22.0675C177.388 21.9545 177.416 21.8133 177.455 21.6438L177.742 20.5325H177.972L177.483 22.3312ZM179.85 21.4272C179.85 21.7191 179.774 21.9451 179.63 22.1052C179.486 22.2747 179.275 22.3501 179.007 22.3501C178.739 22.3501 178.528 22.2653 178.384 22.1052C178.24 21.9451 178.164 21.7097 178.164 21.4177C178.164 21.1258 178.24 20.8998 178.384 20.7397C178.528 20.5796 178.739 20.4948 179.007 20.4948C179.266 20.4948 179.477 20.5796 179.62 20.7397C179.783 20.9186 179.85 21.1446 179.85 21.4272ZM178.394 21.4272C178.394 21.672 178.451 21.8604 178.557 21.9828C178.662 22.1052 178.815 22.1711 179.017 22.1711C179.218 22.1711 179.371 22.1052 179.477 21.9828C179.582 21.8604 179.63 21.672 179.63 21.4272C179.63 21.1823 179.582 21.0034 179.477 20.881C179.371 20.7585 179.218 20.6926 179.017 20.6926C178.815 20.6926 178.662 20.7585 178.557 20.881C178.451 21.0034 178.394 21.1917 178.394 21.4272ZM180.483 21.5873V22.3312H180.272V20.5325H180.77C180.991 20.5325 181.163 20.5702 181.268 20.6549C181.374 20.7397 181.431 20.8621 181.431 21.0411C181.431 21.2765 181.307 21.4366 181.067 21.5213L181.566 22.3312H181.316L180.876 21.5873H180.483ZM180.483 21.4083H180.77C180.923 21.4083 181.029 21.3801 181.106 21.3236C181.182 21.2671 181.211 21.1729 181.211 21.0599C181.211 20.9375 181.173 20.8527 181.106 20.8056C181.038 20.7491 180.923 20.7303 180.761 20.7303H180.483V21.4083ZM183.185 22.3312H182.936L182.265 21.4554L182.073 21.6249V22.3312H181.863V20.5325H182.073V21.4272L182.907 20.5325H183.156L182.418 21.3142L183.185 22.3312ZM184.9 20.6926C184.699 20.6926 184.536 20.7585 184.421 20.8904C184.306 21.0222 184.249 21.2011 184.249 21.4272C184.249 21.6626 184.306 21.8415 184.421 21.9734C184.536 22.1052 184.689 22.1617 184.9 22.1617C185.025 22.1617 185.178 22.1429 185.341 22.0958V22.2747C185.216 22.3218 185.053 22.3406 184.871 22.3406C184.603 22.3406 184.392 22.2559 184.249 22.0958C184.105 21.9357 184.028 21.7097 184.028 21.4083C184.028 21.22 184.067 21.0599 184.134 20.9186C184.201 20.7774 184.306 20.6738 184.44 20.5984C184.574 20.5231 184.728 20.4854 184.91 20.4854C185.101 20.4854 185.274 20.5231 185.418 20.589L185.331 20.7679C185.178 20.7303 185.044 20.6926 184.9 20.6926ZM187.334 21.4272C187.334 21.7191 187.257 21.9451 187.114 22.1052C186.97 22.2747 186.759 22.3501 186.491 22.3501C186.223 22.3501 186.012 22.2653 185.868 22.1052C185.724 21.9451 185.648 21.7097 185.648 21.4177C185.648 21.1258 185.724 20.8998 185.868 20.7397C186.012 20.5796 186.223 20.4948 186.491 20.4948C186.75 20.4948 186.96 20.5796 187.104 20.7397C187.257 20.9186 187.334 21.1446 187.334 21.4272ZM185.878 21.4272C185.878 21.672 185.935 21.8604 186.04 21.9828C186.146 22.1052 186.299 22.1711 186.5 22.1711C186.702 22.1711 186.855 22.1052 186.96 21.9828C187.066 21.8604 187.114 21.672 187.114 21.4272C187.114 21.1823 187.066 21.0034 186.96 20.881C186.855 20.7585 186.702 20.6926 186.5 20.6926C186.299 20.6926 186.146 20.7585 186.04 20.881C185.925 21.0034 185.878 21.1917 185.878 21.4272ZM189.337 21.4272C189.337 21.7191 189.26 21.9451 189.116 22.1052C188.973 22.2747 188.762 22.3501 188.494 22.3501C188.225 22.3501 188.014 22.2653 187.871 22.1052C187.727 21.9451 187.65 21.7097 187.65 21.4177C187.65 21.1258 187.727 20.8998 187.871 20.7397C188.014 20.5796 188.225 20.4948 188.494 20.4948C188.752 20.4948 188.963 20.5796 189.107 20.7397C189.27 20.9186 189.337 21.1446 189.337 21.4272ZM187.88 21.4272C187.88 21.672 187.938 21.8604 188.043 21.9828C188.149 22.1052 188.302 22.1711 188.503 22.1711C188.704 22.1711 188.858 22.1052 188.963 21.9828C189.069 21.8604 189.116 21.672 189.116 21.4272C189.116 21.1823 189.069 21.0034 188.963 20.881C188.858 20.7585 188.704 20.6926 188.503 20.6926C188.302 20.6926 188.149 20.7585 188.043 20.881C187.938 21.0034 187.88 21.1917 187.88 21.4272ZM189.969 21.5873V22.3312H189.758V20.5325H190.257C190.477 20.5325 190.65 20.5702 190.755 20.6549C190.86 20.7397 190.918 20.8621 190.918 21.0411C190.918 21.2765 190.793 21.4366 190.554 21.5213L191.052 22.3312H190.803L190.362 21.5873H189.969ZM189.969 21.4083H190.257C190.41 21.4083 190.515 21.3801 190.592 21.3236C190.669 21.2671 190.698 21.1729 190.698 21.0599C190.698 20.9375 190.659 20.8527 190.592 20.8056C190.525 20.7585 190.41 20.7303 190.247 20.7303H189.969V21.4083ZM192.815 21.4177C192.815 21.7191 192.729 21.9451 192.566 22.0958C192.403 22.2559 192.164 22.3312 191.857 22.3312H191.349V20.5325H191.914C192.202 20.5325 192.422 20.6079 192.576 20.7679C192.729 20.9186 192.815 21.1352 192.815 21.4177ZM192.585 21.4272C192.585 21.1917 192.528 21.0128 192.403 20.8998C192.288 20.7774 192.106 20.7209 191.867 20.7209H191.56V22.1617H191.819C192.068 22.1617 192.259 22.0958 192.394 21.9734C192.518 21.8415 192.585 21.6626 192.585 21.4272ZM193.227 22.3312V20.5325H193.438V22.3312H193.227ZM195.383 22.3312H195.144L194.147 20.8245H194.138C194.147 21.0034 194.157 21.1635 194.157 21.3142V22.3312H193.956V20.5325H194.195L195.192 22.0393H195.201C195.201 22.0204 195.192 21.9451 195.192 21.8227C195.182 21.7003 195.182 21.6155 195.182 21.5684V20.5325H195.383V22.3312ZM197.041 22.3312L196.811 21.7568H196.073L195.843 22.3312H195.632L196.361 20.5231H196.543L197.261 22.3312H197.041ZM196.744 21.5684L196.533 21.0128C196.504 20.9375 196.476 20.8527 196.447 20.7491C196.428 20.8245 196.399 20.9186 196.37 21.0128L196.159 21.5684H196.744ZM198.086 22.3312H197.875V20.7209H197.29V20.5325H198.66V20.7209H198.076V22.3312H198.086ZM198.948 22.3312V20.5325H199.159V22.3312H198.948ZM201.257 21.4272C201.257 21.7191 201.181 21.9451 201.037 22.1052C200.893 22.2747 200.682 22.3501 200.414 22.3501C200.146 22.3501 199.935 22.2653 199.791 22.1052C199.647 21.9451 199.571 21.7097 199.571 21.4177C199.571 21.1258 199.647 20.8998 199.791 20.7397C199.935 20.5796 200.146 20.4948 200.414 20.4948C200.673 20.4948 200.884 20.5796 201.027 20.7397C201.19 20.9186 201.257 21.1446 201.257 21.4272ZM199.801 21.4272C199.801 21.672 199.858 21.8604 199.964 21.9828C200.069 22.1052 200.222 22.1711 200.424 22.1711C200.625 22.1711 200.778 22.1052 200.884 21.9828C200.989 21.8604 201.037 21.672 201.037 21.4272C201.037 21.1823 200.989 21.0034 200.884 20.881C200.778 20.7585 200.625 20.6926 200.424 20.6926C200.222 20.6926 200.069 20.7585 199.964 20.881C199.858 21.0034 199.801 21.1917 199.801 21.4272ZM203.107 22.3312H202.867L201.871 20.8245H201.861C201.871 21.0034 201.88 21.1635 201.88 21.3142V22.3312H201.679V20.5325H201.918L202.915 22.0393H202.925C202.925 22.0204 202.915 21.9451 202.915 21.8227C202.905 21.7003 202.905 21.6155 202.905 21.5684V20.5325H203.107V22.3312ZM205.081 20.6926C204.879 20.6926 204.717 20.7585 204.602 20.8904C204.487 21.0222 204.429 21.2011 204.429 21.4272C204.429 21.6626 204.487 21.8415 204.602 21.9734C204.717 22.1052 204.87 22.1617 205.081 22.1617C205.205 22.1617 205.359 22.1429 205.521 22.0958V22.2747C205.397 22.3218 205.234 22.3406 205.052 22.3406C204.784 22.3406 204.573 22.2559 204.429 22.0958C204.285 21.9357 204.209 21.7097 204.209 21.4083C204.209 21.22 204.247 21.0599 204.314 20.9186C204.381 20.7774 204.487 20.6738 204.621 20.5984C204.755 20.5231 204.908 20.4854 205.09 20.4854C205.282 20.4854 205.454 20.5231 205.598 20.589L205.512 20.7679C205.359 20.7303 205.215 20.6926 205.081 20.6926ZM206.94 22.3312H205.914V20.5325H206.94V20.7209H206.135V21.3047H206.892V21.4931H206.135V22.1523H206.94V22.3312ZM208.789 22.3312H208.549L207.553 20.8245H207.534C207.543 21.0034 207.553 21.1635 207.553 21.3142V22.3312H207.352V20.5325H207.591L208.588 22.0393H208.597C208.597 22.0204 208.588 21.9451 208.588 21.8227C208.578 21.7003 208.578 21.6155 208.578 21.5684V20.5325H208.779V22.3312H208.789ZM209.862 22.3312H209.642V20.7209H209.067V20.5325H210.437V20.7209H209.853V22.3312H209.862ZM210.935 21.5873V22.3312H210.725V20.5325H211.223C211.443 20.5325 211.616 20.5702 211.721 20.6549C211.827 20.7397 211.884 20.8621 211.884 21.0411C211.884 21.2765 211.76 21.4366 211.52 21.5213L212.018 22.3312H211.769L211.328 21.5873H210.935ZM210.935 21.4083H211.223C211.376 21.4083 211.482 21.3801 211.558 21.3236C211.635 21.2671 211.664 21.1729 211.664 21.0599C211.664 20.9375 211.625 20.8527 211.558 20.8056C211.491 20.7585 211.376 20.7303 211.213 20.7303H210.935V21.4083ZM213.341 22.3312H212.315V20.5325H213.341V20.7209H212.536V21.3047H213.293V21.4931H212.536V22.1523H213.341V22.3312Z" fill="white"/>
<mask id="mask0_103_1055" style="mask-type:luminance" maskUnits="userSpaceOnUse" x="233" y="26" width="4" height="4">
<path d="M233.494 26.25H236.575V29.8078H233.494V26.25Z" fill="white"/>
</mask>
<g mask="url(#mask0_103_1055)">
<path d="M235.614 28.6886L235.993 29.8045H236.483L235.272 26.2568H234.719L233.513 29.8045H233.987L234.356 28.6886H235.614ZM234.451 28.3297L234.798 27.3042C234.867 27.0883 234.924 26.8724 234.978 26.6609H234.988C235.04 26.8666 235.093 27.0781 235.172 27.3085L235.519 28.3297H234.451H234.451Z" fill="white"/>
</g>
<mask id="mask1_103_1055" style="mask-type:luminance" maskUnits="userSpaceOnUse" x="236" y="27" width="3" height="3">
<path d="M236.855 27.1934H238.909V29.8906H236.855V27.1934Z" fill="white"/>
</mask>
<g mask="url(#mask1_103_1055)">
<path d="M238.818 29.3621C238.687 29.4204 238.513 29.4875 238.251 29.4875C237.744 29.4875 237.365 29.1243 237.365 28.535C237.365 28.004 237.682 27.5722 238.265 27.5722C238.519 27.5722 238.693 27.6291 238.804 27.6933L238.909 27.3344C238.782 27.2717 238.539 27.2031 238.265 27.2031C237.434 27.2031 236.897 27.772 236.897 28.5569C236.897 29.3359 237.397 29.8566 238.166 29.8566C238.507 29.8566 238.777 29.772 238.898 29.7093L238.818 29.3621Z" fill="white"/>
</g>
<mask id="mask2_103_1055" style="mask-type:luminance" maskUnits="userSpaceOnUse" x="239" y="27" width="3" height="3">
<path d="M239.376 27.1934H241.43V29.8906H239.376V27.1934Z" fill="white"/>
</mask>
<g mask="url(#mask2_103_1055)">
<path d="M241.305 29.3621C241.174 29.4204 241 29.4875 240.737 29.4875C240.231 29.4875 239.852 29.1243 239.852 28.535C239.852 28.004 240.169 27.5722 240.752 27.5722C241.006 27.5722 241.179 27.6291 241.29 27.6933L241.395 27.3344C241.268 27.2717 241.026 27.2031 240.752 27.2031C239.921 27.2031 239.384 27.772 239.384 28.5569C239.384 29.3359 239.884 29.8566 240.653 29.8566C240.994 29.8566 241.264 29.772 241.385 29.7093L241.305 29.3621Z" fill="white"/>
</g>
<path d="M242.084 29.8035H242.542V28.4454C242.542 28.3667 242.554 28.2923 242.564 28.2296C242.627 27.8824 242.859 27.6344 243.185 27.6344C243.248 27.6344 243.296 27.6402 243.343 27.6504V27.2128C243.301 27.2026 243.264 27.1982 243.212 27.1982C242.901 27.1982 242.622 27.4141 242.506 27.7555H242.485L242.469 27.2551H242.064C242.08 27.4929 242.084 27.7496 242.084 28.0501V29.8035Z" fill="white"/>
<mask id="mask3_103_1055" style="mask-type:luminance" maskUnits="userSpaceOnUse" x="243" y="26" width="8" height="4">
<path d="M243.67 26.0625H250.392V29.8903H243.67V26.0625Z" fill="white"/>
</mask>
<g mask="url(#mask3_103_1055)">
<path d="M245.959 28.6134C245.965 28.5667 245.975 28.4923 245.975 28.3975C245.975 27.9292 245.755 27.1984 244.922 27.1984C244.181 27.1984 243.727 27.8037 243.727 28.5711C243.727 29.3398 244.196 29.8562 244.98 29.8562C245.386 29.8562 245.665 29.7716 245.828 29.6987L245.749 29.3661C245.576 29.4404 245.376 29.4988 245.043 29.4988C244.581 29.4988 244.181 29.2406 244.169 28.6134H245.959ZM244.175 28.2823C244.212 27.9613 244.417 27.5295 244.886 27.5295C245.406 27.5295 245.533 27.9875 245.528 28.2823H244.175ZM248.443 26.0664V27.5879H248.433C248.318 27.3822 248.054 27.1984 247.664 27.1984C247.043 27.1984 246.518 27.7192 246.522 28.5667C246.522 29.3398 246.996 29.862 247.612 29.862C248.028 29.862 248.338 29.6462 248.481 29.3617H248.492L248.512 29.8037H248.928C248.913 29.6301 248.907 29.3719 248.907 29.1458V26.0664H248.443ZM248.443 28.7344C248.443 28.8089 248.439 28.8716 248.423 28.9357C248.338 29.283 248.054 29.4872 247.743 29.4872C247.244 29.4872 246.99 29.0612 246.99 28.5448C246.99 27.9817 247.275 27.5616 247.755 27.5616C248.102 27.5616 248.354 27.8038 248.423 28.0984C248.439 28.1553 248.443 28.2355 248.443 28.2925V28.7344ZM250.296 29.8037V27.2553H249.833V29.8037H250.296ZM250.064 26.2502C249.897 26.2502 249.776 26.3772 249.776 26.539C249.776 26.6981 249.891 26.8235 250.054 26.8235C250.238 26.8235 250.355 26.6981 250.349 26.539C250.349 26.3772 250.238 26.2502 250.064 26.2502Z" fill="white"/>
</g>
<mask id="mask4_103_1055" style="mask-type:luminance" maskUnits="userSpaceOnUse" x="250" y="26" width="3" height="4">
<path d="M250.859 26.4463H252.446V29.8904H250.859V26.4463Z" fill="white"/>
</mask>
<g mask="url(#mask4_103_1055)">
<path d="M251.33 26.6455V27.2552H250.935V27.6083H251.33V28.9984C251.33 29.2989 251.377 29.525 251.508 29.6621C251.619 29.7876 251.792 29.8562 252.008 29.8562C252.188 29.8562 252.329 29.8299 252.42 29.7934L252.398 29.4463C252.341 29.4608 252.251 29.4769 252.129 29.4769C251.871 29.4769 251.782 29.2989 251.782 28.9824V27.6083H252.446V27.2552H251.782V26.5244L251.33 26.6455Z" fill="white"/>
</g>
<mask id="mask5_103_1055" style="mask-type:luminance" maskUnits="userSpaceOnUse" x="252" y="26" width="7" height="4">
<path d="M252.82 26.0625H258.701V29.8903H252.82V26.0625Z" fill="white"/>
</mask>
<g mask="url(#mask5_103_1055)">
<path d="M255.139 28.6134C255.145 28.5667 255.156 28.4923 255.156 28.3975C255.156 27.9292 254.935 27.1984 254.102 27.1984C253.361 27.1984 252.908 27.8037 252.908 28.5711C252.908 29.3398 253.376 29.8562 254.161 29.8562C254.566 29.8562 254.845 29.7716 255.008 29.6987L254.929 29.3661C254.756 29.4404 254.556 29.4988 254.223 29.4988C253.761 29.4988 253.361 29.2406 253.35 28.6134H255.139ZM253.355 28.2823C253.392 27.9613 253.598 27.5295 254.066 27.5295C254.587 27.5295 254.714 27.9875 254.708 28.2823H253.355ZM257.624 26.0664V27.5879H257.613C257.498 27.3822 257.234 27.1984 256.845 27.1984C256.223 27.1984 255.698 27.7192 255.702 28.5667C255.702 29.3398 256.176 29.862 256.792 29.862C257.208 29.862 257.519 29.6462 257.661 29.3617H257.672L257.692 29.8037H258.108C258.093 29.6301 258.087 29.3719 258.087 29.1458V26.0664H257.624ZM257.624 28.7344C257.624 28.8089 257.619 28.8716 257.603 28.9357C257.519 29.283 257.234 29.4872 256.923 29.4872C256.424 29.4872 256.171 29.0612 256.171 28.5448C256.171 27.9817 256.455 27.5616 256.935 27.5616C257.282 27.5616 257.535 27.8038 257.603 28.0984C257.619 28.1553 257.624 28.2355 257.624 28.2925V28.7344Z" fill="white"/>
</g>
<path d="M260.304 29.8039H260.762V28.2664H261.194C261.61 28.2824 261.799 28.4662 261.904 28.9563C262.005 29.3983 262.084 29.7032 262.142 29.8039H262.616C262.542 29.6668 262.457 29.3254 262.342 28.8294C262.257 28.4618 262.094 28.208 261.821 28.1146V28.0986C262.195 27.9717 262.489 27.661 262.489 27.1927C262.489 26.9185 262.389 26.6763 262.211 26.5187C261.989 26.3189 261.674 26.2285 261.184 26.2285C260.867 26.2285 260.536 26.2562 260.304 26.3029V29.8039ZM260.762 26.6238C260.837 26.6034 260.994 26.5815 261.216 26.5815C261.7 26.5874 262.031 26.7872 262.031 27.2452C262.031 27.6508 261.721 27.9191 261.23 27.9191H260.762V26.6238Z" fill="white"/>
<mask id="mask6_103_1055" style="mask-type:luminance" maskUnits="userSpaceOnUse" x="263" y="27" width="3" height="3">
<path d="M263.089 27.1934H265.423V29.8906H263.089V27.1934Z" fill="white"/>
</mask>
<g mask="url(#mask6_103_1055)">
<path d="M265.348 28.6132C265.354 28.5665 265.364 28.4921 265.364 28.3973C265.364 27.929 265.143 27.1982 264.311 27.1982C263.57 27.1982 263.116 27.8036 263.116 28.5709C263.116 29.3397 263.584 29.8561 264.369 29.8561C264.774 29.8561 265.053 29.7715 265.216 29.6985L265.138 29.3659C264.964 29.4403 264.764 29.4987 264.432 29.4987C263.969 29.4987 263.57 29.2404 263.558 28.6132H265.348ZM263.564 28.2821C263.6 27.9612 263.806 27.5294 264.274 27.5294C264.795 27.5294 264.922 27.9874 264.916 28.2821H263.564Z" fill="white"/>
</g>
<mask id="mask7_103_1055" style="mask-type:luminance" maskUnits="userSpaceOnUse" x="265" y="27" width="4" height="4">
<path d="M265.89 27.1934H268.317V30.9176H265.89V27.1934Z" fill="white"/>
</mask>
<g mask="url(#mask7_103_1055)">
<path d="M267.888 27.2551L267.866 27.6402H267.855C267.745 27.4287 267.502 27.1982 267.06 27.1982C266.475 27.1982 265.912 27.6869 265.912 28.5505C265.912 29.2565 266.366 29.7933 266.998 29.7933C267.392 29.7933 267.666 29.6037 267.807 29.3659H267.819V29.6504C267.819 30.2937 267.47 30.5402 266.998 30.5402C266.681 30.5402 266.419 30.4454 266.249 30.3404L266.134 30.6933C266.338 30.8305 266.675 30.9034 266.982 30.9034C267.303 30.9034 267.66 30.8305 267.908 30.5985C268.156 30.3769 268.271 30.0194 268.271 29.4345V27.9553C268.271 27.6446 268.281 27.4404 268.292 27.2551H267.888ZM267.813 28.7197C267.813 28.7985 267.803 28.8875 267.777 28.9662C267.676 29.2609 267.418 29.4403 267.133 29.4403C266.634 29.4403 266.381 29.0246 266.381 28.5242C266.381 27.9349 266.697 27.5614 267.139 27.5614C267.476 27.5614 267.702 27.7817 267.787 28.0501C267.807 28.1143 267.813 28.1814 267.813 28.2616V28.7197Z" fill="white"/>
</g>
<mask id="mask8_103_1055" style="mask-type:luminance" maskUnits="userSpaceOnUse" x="269" y="26" width="6" height="4">
<path d="M269.064 26.25H274.105V29.891H269.064V26.25Z" fill="white"/>
</mask>
<g mask="url(#mask8_103_1055)">
<path d="M269.628 29.8045V27.256H269.164V29.8045H269.628ZM269.396 26.251C269.228 26.251 269.107 26.3779 269.107 26.5398C269.107 26.6988 269.222 26.8243 269.386 26.8243C269.569 26.8243 269.686 26.6988 269.68 26.5398C269.68 26.3779 269.569 26.251 269.396 26.251ZM270.376 29.6834C270.554 29.7884 270.812 29.857 271.092 29.857C271.698 29.857 272.045 29.5419 272.045 29.0941C272.045 28.7148 271.819 28.4931 271.375 28.3253C271.044 28.1984 270.891 28.1036 270.891 27.8936C270.891 27.7039 271.044 27.5463 271.318 27.5463C271.555 27.5463 271.738 27.6295 271.839 27.6937L271.954 27.3567C271.813 27.2721 271.587 27.1992 271.328 27.1992C270.781 27.1992 270.449 27.5361 270.449 27.9461C270.449 28.2509 270.665 28.5048 271.123 28.6667C271.466 28.7936 271.597 28.9147 271.597 29.1364C271.597 29.3465 271.439 29.5156 271.102 29.5156C270.87 29.5156 270.628 29.4208 270.491 29.3304L270.376 29.6834ZM272.903 26.6463V27.256H272.507V27.6091H272.903V28.9993C272.903 29.2998 272.949 29.5259 273.081 29.663C273.192 29.7884 273.365 29.857 273.581 29.857C273.76 29.857 273.902 29.8307 273.992 29.7943L273.971 29.4471C273.914 29.4617 273.823 29.4778 273.702 29.4778C273.444 29.4778 273.355 29.2998 273.355 28.9832V27.6091H274.019V27.256H273.355V26.5252L272.903 26.6463Z" fill="white"/>
</g>
<path d="M274.697 29.8035H275.155V28.4454C275.155 28.3667 275.167 28.2923 275.177 28.2296C275.24 27.8824 275.472 27.6344 275.799 27.6344C275.862 27.6344 275.91 27.6402 275.956 27.6504V27.2128C275.914 27.2026 275.878 27.1982 275.825 27.1982C275.514 27.1982 275.236 27.4141 275.119 27.7555H275.099L275.083 27.2551H274.677C274.693 27.4929 274.697 27.7496 274.697 28.0501V29.8035Z" fill="white"/>
<mask id="mask9_103_1055" style="mask-type:luminance" maskUnits="userSpaceOnUse" x="276" y="27" width="5" height="3">
<path d="M276.346 27.1934H280.547V29.8906H276.346V27.1934Z" fill="white"/>
</mask>
<g mask="url(#mask9_103_1055)">
<path d="M278.384 29.8035C278.353 29.63 278.343 29.4141 278.343 29.1923V28.2398C278.343 27.7292 278.153 27.1982 277.373 27.1982C277.052 27.1982 276.747 27.2872 276.537 27.4243L276.642 27.7292C276.822 27.6139 277.068 27.5396 277.306 27.5396C277.827 27.5396 277.885 27.9188 277.885 28.1289V28.1814C276.9 28.177 276.352 28.514 276.352 29.1296C276.352 29.4987 276.616 29.8619 277.131 29.8619C277.494 29.8619 277.768 29.6825 277.911 29.4826H277.926L277.964 29.8035H278.384ZM277.895 28.9458C277.895 28.9925 277.885 29.045 277.869 29.0931C277.795 29.3091 277.585 29.5191 277.252 29.5191C277.016 29.5191 276.816 29.3776 276.816 29.0771C276.816 28.5826 277.389 28.4921 277.895 28.5038V28.9458ZM279.246 29.8035H279.704V28.4454C279.704 28.3667 279.716 28.2923 279.726 28.2296C279.789 27.8824 280.021 27.6344 280.348 27.6344C280.411 27.6344 280.459 27.6402 280.505 27.6504V27.2128C280.463 27.2026 280.427 27.1982 280.374 27.1982C280.063 27.1982 279.785 27.4141 279.668 27.7555H279.648L279.632 27.2551H279.226C279.242 27.4929 279.246 27.7496 279.246 28.0501V29.8035Z" fill="white"/>
</g>
<mask id="mask10_103_1055" style="mask-type:luminance" maskUnits="userSpaceOnUse" x="234" y="7" width="11" height="17">
<path d="M234.334 7.96094H244.23V23.2617H234.334V7.96094Z" fill="white"/>
</mask>
<g mask="url(#mask10_103_1055)">
<path d="M242.495 8.26701L242.408 9.83881H242.365C241.913 8.97778 240.923 8.03027 239.114 8.03027C236.724 8.03027 234.42 10.0328 234.42 13.5637C234.42 16.4487 236.272 18.6448 238.856 18.6448C240.471 18.6448 241.59 17.8699 242.171 16.9009H242.214V18.0635C242.214 20.6904 240.794 21.7024 238.856 21.7024C237.564 21.7024 236.487 21.3147 235.798 20.884L235.325 22.3268C236.164 22.8865 237.542 23.1877 238.791 23.1877C240.104 23.1877 241.569 22.8865 242.581 21.9391C243.593 21.035 244.066 19.5708 244.066 17.181V11.1309C244.066 9.86031 244.109 9.02077 244.152 8.26701H242.495ZM242.193 14.2526C242.193 14.5757 242.15 14.9415 242.042 15.2646C241.633 16.4702 240.578 17.2025 239.415 17.2025C237.37 17.2025 236.336 15.5012 236.336 13.4561C236.336 11.0444 237.629 9.51602 239.437 9.51602C240.815 9.51602 241.741 10.4201 242.085 11.5182C242.171 11.7767 242.193 12.0564 242.193 12.3795V14.2526Z" fill="white"/>
</g>
<path d="M247.339 18.6888H249.212V13.1339C249.212 12.8111 249.255 12.5096 249.298 12.2513C249.556 10.8301 250.504 9.81815 251.839 9.81815C252.097 9.81815 252.291 9.83972 252.485 9.88271V8.09581C252.312 8.05275 252.162 8.03125 251.947 8.03125C250.676 8.03125 249.535 8.91413 249.062 10.3134H248.975L248.911 8.26792H247.253C247.317 9.23685 247.339 10.2919 247.339 11.5191V18.6888Z" fill="white"/>
<mask id="mask11_103_1055" style="mask-type:luminance" maskUnits="userSpaceOnUse" x="260" y="7" width="9" height="12">
<path d="M260.195 7.96094H268.504V18.9671H260.195V7.96094Z" fill="white"/>
</mask>
<g mask="url(#mask11_103_1055)">
<path d="M268.124 16.6858C267.5 17.0515 266.208 17.4822 265.067 17.4822C263.538 17.4822 262.246 16.8149 262.246 15.5877C262.246 14.3386 263.646 13.8219 265.519 13.8219H266.832V12.4656H265.584C263.947 12.4656 262.677 12.0134 262.677 10.9799C262.677 10.0328 263.646 9.42962 265.088 9.42962C266.143 9.42962 267.263 9.79575 267.693 10.0758L268.102 8.82682C267.349 8.31007 266.294 8.03027 264.937 8.03027C262.16 8.03027 260.782 9.47303 260.782 10.8508C260.782 11.8843 261.471 12.7453 262.849 13.0469V13.1545C261.32 13.3915 260.265 14.4681 260.265 15.7598C260.265 18.1066 262.569 18.9249 264.658 18.9249C266.122 18.9249 267.672 18.5158 268.469 17.9775L268.124 16.6858Z" fill="white"/>
</g>
<path d="M277.77 18.6886H279.772L275.789 8.09555C274.669 5.12447 273.7 3.16504 271.655 3.16504C271.397 3.16504 271.095 3.18654 270.923 3.25109L270.751 4.71528C270.88 4.69378 271.009 4.69378 271.117 4.69378C272.387 4.69378 273.162 6.13647 273.829 7.9665C273.937 8.22467 273.98 8.41869 273.98 8.54781C273.98 8.65536 273.937 8.80597 273.851 9.04306L270.083 18.6886H272.064L274.196 12.66C274.433 11.9496 274.712 11.1531 274.863 10.4638H274.971C275.186 11.3037 275.423 12.0141 275.66 12.7246L277.77 18.6886Z" fill="white"/>
<mask id="mask12_103_1055" style="mask-type:luminance" maskUnits="userSpaceOnUse" x="255" y="2" width="2" height="23">
<path d="M255.434 2.45312H256.927V24.1023H255.434V2.45312Z" fill="white"/>
</mask>
<g mask="url(#mask12_103_1055)">
<path d="M255.456 2.45898V24.0484H256.901V2.45898H255.456Z" fill="white"/>
</g>
<path fill-rule="evenodd" clip-rule="evenodd" d="M326.808 21.2905C325.691 21.2905 324.881 20.9833 324.127 20.6969L324.094 20.6844C323.356 20.3945 322.671 20.131 321.775 20.131C320.879 20.131 320.194 20.3945 319.456 20.6844L319.322 20.7334C318.575 21.0088 317.811 21.2905 316.741 21.2905C315.292 21.2905 313.948 20.8161 312.973 19.9729C311.787 18.9188 311.181 17.3904 311.181 15.493V5.87458C311.181 3.97724 311.787 2.42247 312.973 1.39475C313.948 0.525131 315.292 0.0771484 316.741 0.0771484C317.858 0.0771484 318.668 0.384355 319.423 0.670741L319.456 0.683243C320.194 0.973115 320.879 1.23663 321.775 1.23663C322.671 1.23663 323.356 0.973115 324.094 0.683243L324.227 0.634174C324.974 0.358822 325.739 0.0771484 326.808 0.0771484C328.257 0.0771484 329.601 0.551483 330.576 1.39475C331.736 2.42247 332.368 3.95089 332.368 5.84823V15.4667C332.368 17.364 331.762 18.8924 330.576 19.9202C329.601 20.8161 328.257 21.2905 326.808 21.2905ZM324.159 20.3797L324.159 20.3797L324.199 20.3945L324.286 20.4274C325.023 20.7078 325.794 21.0006 326.808 21.0006C329.232 21.0006 332.078 19.5512 332.078 15.493V5.87458C332.078 1.81638 329.232 0.36702 326.808 0.36702C325.728 0.36702 324.937 0.656891 324.199 0.973115C323.488 1.26299 322.723 1.52651 321.775 1.52651C320.844 1.52651 320.09 1.24737 319.39 0.987914L319.35 0.973115L319.264 0.940192C318.526 0.659818 317.756 0.36702 316.741 0.36702C314.317 0.36702 311.471 1.81638 311.471 5.87458V15.493C311.471 19.5512 314.317 21.0006 316.741 21.0006C317.822 21.0006 318.612 20.7107 319.35 20.3945L319.44 20.3612C320.124 20.1072 320.841 19.8411 321.775 19.8411C322.706 19.8411 323.459 20.1203 324.159 20.3797ZM323.258 18.5964C323.96 18.9606 324.745 19.3679 325.988 19.3679C327.174 19.3679 328.254 18.9462 329.071 18.2084C329.967 17.3651 330.442 16.1529 330.442 14.7036V6.69259C330.442 5.45404 330.02 4.32091 329.282 3.4513C328.465 2.50262 327.332 2.00194 326.015 2.00194C324.855 2.00194 324.091 2.39722 323.432 2.76614C322.905 3.05602 322.457 3.29318 321.877 3.29318C321.298 3.29318 320.823 3.05602 320.296 2.76614L320.259 2.74706C319.557 2.38283 318.772 1.97559 317.529 1.97559C316.343 1.97559 315.237 2.37087 314.446 3.13507C313.55 3.97833 313.076 5.19052 313.076 6.63988V14.6509C313.076 15.8894 313.497 17.0226 314.235 17.8922C315.052 18.8408 316.185 19.3415 317.503 19.3415C318.662 19.3415 319.427 18.9462 320.085 18.5773C320.612 18.2874 321.06 18.0503 321.64 18.0503C322.22 18.0503 322.694 18.2874 323.221 18.5773L323.258 18.5964ZM323.327 18.3402C322.8 18.0503 322.273 17.7868 321.64 17.7868C321.053 17.7868 320.58 18.0138 320.072 18.2571L319.954 18.3138C319.321 18.6564 318.583 19.0517 317.503 19.0517C315.447 19.0517 313.366 17.5232 313.366 14.6509V6.63988C313.366 5.26958 313.814 4.13645 314.657 3.34589C315.395 2.66074 316.422 2.26546 317.529 2.26546C318.646 2.26546 319.389 2.63933 320.044 2.96901L320.164 3.02966C320.691 3.31954 321.219 3.58306 321.851 3.58306C322.483 3.58306 323.01 3.29318 323.537 3.00331C324.17 2.66074 324.908 2.26546 325.988 2.26546C328.044 2.26546 330.125 3.79387 330.125 6.66623V14.7299C330.125 16.1002 329.677 17.2334 328.834 18.0239C328.096 18.7091 327.069 19.1044 325.962 19.1044C324.845 19.1044 324.102 18.7305 323.447 18.4008L323.327 18.3402ZM325.094 17.4958C323.859 17.4958 323.174 16.9977 322.595 16.5768L322.591 16.5735C322.222 16.2836 321.905 16.0728 321.537 16.0728C321.089 16.0728 320.746 16.3363 320.377 16.6262C319.876 17.0215 319.218 17.4958 318.084 17.4958C316.082 17.4958 314.896 16.2309 314.896 14.07V7.21853C314.896 6.16445 315.265 5.26848 315.976 4.66239C316.609 4.109 317.478 3.81913 318.401 3.81913C319.636 3.81913 320.321 4.31717 320.9 4.7381L320.904 4.74144C321.273 5.03132 321.589 5.24213 321.958 5.24213C322.406 5.24213 322.749 4.97861 323.118 4.68874C323.618 4.29346 324.277 3.81913 325.41 3.81913C327.413 3.81913 328.599 5.08402 328.599 7.24488V14.0964C328.599 15.1505 328.23 16.0464 327.518 16.6525C326.886 17.2059 326.016 17.4958 325.094 17.4958ZM321.537 15.8093C321.995 15.8093 322.331 16.0556 322.71 16.3339L322.749 16.3627L322.793 16.394C323.336 16.7826 323.964 17.2323 325.068 17.2323C326.675 17.2323 328.283 16.2572 328.283 14.0964V7.24488C328.283 6.29621 327.993 4.109 325.384 4.109C324.379 4.109 323.829 4.5162 323.346 4.87386L323.276 4.92591C322.881 5.24213 322.485 5.532 321.932 5.532C321.473 5.532 321.138 5.28567 320.759 5.00735L320.72 4.97861L320.676 4.94725C320.133 4.55869 319.504 4.109 318.401 4.109C316.793 4.109 315.186 5.08402 315.186 7.24488V14.0964C315.186 15.0451 315.476 17.2323 318.084 17.2323C319.089 17.2323 319.639 16.8251 320.122 16.4674L320.193 16.4154L320.23 16.387C320.637 16.082 321 15.8093 321.537 15.8093ZM322.744 14.8765C323.37 15.399 324.051 15.9665 325.016 15.9665C326.149 15.9665 327.045 15.0705 327.045 13.9374V7.40213C327.045 6.84874 326.887 6.34805 326.571 5.97913C326.228 5.58385 325.754 5.37303 325.174 5.37303C324.081 5.37303 323.605 5.93871 323.187 6.4351L323.172 6.45346L323.164 6.46166C322.851 6.82745 322.562 7.16496 322.065 7.16496C321.643 7.16496 321.248 6.84874 320.8 6.45346L320.78 6.43673C320.153 5.91423 319.472 5.34668 318.507 5.34668C317.4 5.34668 316.478 6.269 316.478 7.37578V13.9111C316.478 14.4645 316.636 14.9651 316.952 15.3341C317.295 15.7293 317.769 15.9402 318.349 15.9402C319.442 15.9402 319.919 15.3745 320.336 14.8781L320.352 14.8597L320.359 14.8515C320.672 14.4857 320.962 14.1482 321.459 14.1482C321.88 14.1482 322.276 14.4645 322.724 14.8597L322.744 14.8765ZM322.908 14.6753C322.434 14.2536 321.986 13.8847 321.485 13.8847C320.853 13.8847 320.484 14.3063 320.167 14.6753C319.772 15.1496 319.35 15.6503 318.375 15.6503C317.875 15.6503 317.479 15.4922 317.19 15.1496C316.926 14.8334 316.768 14.4118 316.768 13.9111V7.37578C316.768 6.42711 317.532 5.63655 318.507 5.63655C319.36 5.63655 320.01 6.16872 320.582 6.63664L320.615 6.66428C321.09 7.08591 321.538 7.45484 322.038 7.45484C322.65 7.45484 322.99 7.0611 323.321 6.6779L323.356 6.63792C323.751 6.16359 324.173 5.6629 325.148 5.6629C325.649 5.6629 326.044 5.82101 326.334 6.16359C326.597 6.47981 326.755 6.90144 326.755 7.40213V13.9638C326.755 14.9124 325.991 15.703 325.016 15.703C324.163 15.703 323.513 15.1708 322.942 14.7029L322.908 14.6753ZM305.258 27.98C305.258 27.6414 305.545 27.3809 305.857 27.3809C306.169 27.3809 306.43 27.6414 306.456 27.98V32.6941C306.456 33.0326 306.169 33.2931 305.857 33.2931C305.701 33.2931 305.545 33.2149 305.441 33.1108L302.265 29.9333C302.005 29.6468 301.745 29.8291 301.745 30.1417V32.6941C301.745 33.0326 301.458 33.2931 301.146 33.2931C300.808 33.2931 300.547 33.0066 300.547 32.6941V27.98C300.547 27.6414 300.808 27.3809 301.146 27.3809C301.302 27.3809 301.432 27.433 301.562 27.5632L304.738 30.7407C304.972 30.9751 305.258 30.897 305.258 30.5844V27.98ZM329.491 27.98C329.491 27.6414 329.777 27.3809 330.09 27.3809C330.428 27.3809 330.688 27.6414 330.688 27.98V32.6941C330.688 33.0326 330.402 33.2931 330.09 33.2931C329.934 33.2931 329.777 33.2149 329.673 33.1108L326.498 29.9333C326.237 29.6468 325.977 29.8291 325.977 30.1417V32.6941C325.977 33.0326 325.691 33.2931 325.379 33.2931C325.04 33.2931 324.78 33.0066 324.78 32.6941V27.98C324.78 27.6414 325.066 27.3809 325.379 27.3809C325.535 27.3809 325.691 27.433 325.795 27.5632L328.97 30.7407C329.205 30.9751 329.491 30.897 329.491 30.5844V27.98ZM319.913 27.5632C320.017 27.433 320.173 27.3809 320.329 27.3809C320.641 27.3809 320.928 27.6414 320.954 27.98V32.668C320.954 33.0066 320.667 33.267 320.355 33.267C320.017 33.267 319.756 32.9805 319.756 32.668V30.1156C319.756 29.8031 319.496 29.6468 319.236 29.9073L318.117 31.0272C318.012 31.1314 317.882 31.2095 317.7 31.2095C317.518 31.2095 317.388 31.1314 317.284 31.0272L316.164 29.9073C315.904 29.6208 315.644 29.8031 315.644 30.1156V32.668C315.644 33.0066 315.358 33.267 315.045 33.267C314.707 33.267 314.447 32.9805 314.447 32.668V27.9539C314.447 27.6153 314.733 27.3549 315.045 27.3549C315.201 27.3549 315.358 27.433 315.462 27.5372L317.388 29.4645C317.492 29.5687 317.596 29.6208 317.7 29.6208C317.804 29.6208 317.908 29.5687 318.012 29.4645L319.913 27.5632ZM322.255 27.98C322.255 27.6414 322.541 27.3809 322.854 27.3809C323.166 27.3809 323.452 27.6414 323.452 27.98V32.6941C323.452 33.0326 323.166 33.2931 322.854 33.2931C322.515 33.2931 322.255 33.0066 322.255 32.6941V27.98ZM307.497 30.324C307.497 28.7092 308.798 27.3809 310.438 27.3809C312.078 27.3809 313.379 28.7092 313.379 30.324C313.379 31.9388 312.078 33.267 310.438 33.267C308.824 33.267 307.497 31.9648 307.497 30.324ZM308.668 30.35C308.668 31.3397 309.449 32.1471 310.438 32.1471C311.427 32.1471 312.208 31.3397 312.208 30.35C312.208 29.3603 311.427 28.5529 310.438 28.5529C309.449 28.5529 308.668 29.3603 308.668 30.35ZM338.081 27.407H342.375C342.714 27.407 342.974 27.6674 343 27.98C343 28.3185 342.714 28.579 342.401 28.579H341.256C340.996 28.579 340.84 28.7353 340.84 28.9957V32.6941C340.84 33.0326 340.553 33.2931 340.241 33.2931C339.903 33.2931 339.642 33.0066 339.642 32.6941V29.0217C339.642 28.7613 339.486 28.605 339.226 28.605H338.081C337.742 28.605 337.482 28.3185 337.482 28.006C337.482 27.6674 337.768 27.407 338.081 27.407ZM336.232 28.579H333.604C333.343 28.579 333.213 28.7092 333.213 28.9957V29.2822C333.213 29.5426 333.343 29.6729 333.604 29.6729H335.66C335.998 29.6729 336.259 29.9594 336.259 30.2719C336.259 30.6105 335.972 30.8709 335.66 30.8709H333.604C333.343 30.8709 333.213 31.0011 333.213 31.2616V31.6262C333.213 31.8867 333.343 32.0169 333.604 32.0169H336.232C336.571 32.0169 336.831 32.3034 336.831 32.6159C336.831 32.9545 336.545 33.215 336.232 33.215H332.615C332.276 33.215 332.016 32.9285 332.016 32.6159V27.9018C332.068 27.6153 332.302 27.3809 332.615 27.3809H336.232C336.571 27.3809 336.831 27.6674 336.831 27.98C336.831 28.3185 336.545 28.579 336.232 28.579ZM324.089 7.55704C324.089 7.10806 324.469 6.76269 324.883 6.76269C325.298 6.76269 325.643 7.10806 325.678 7.55704V13.8082C325.678 14.2571 325.298 14.6025 324.883 14.6025C324.676 14.6025 324.469 14.4989 324.331 14.3607L320.117 10.1473C319.772 9.76738 319.426 10.0091 319.426 10.4236V13.8082C319.426 14.2571 319.046 14.6025 318.632 14.6025C318.183 14.6025 317.837 14.2226 317.837 13.8082V7.55704C317.837 7.10806 318.183 6.76269 318.632 6.76269C318.839 6.76269 319.012 6.83177 319.184 7.00445L323.398 11.2179C323.709 11.5287 324.089 11.4251 324.089 11.0107V7.55704Z" fill="white"/>
</svg>
