<svg width="57" height="14" viewBox="0 0 57 14" fill="none" xmlns="http://www.w3.org/2000/svg">
<g clip-path="url(#clip0_103_1023)">
<path d="M11.9378 8.60687C11.7739 9.43252 11.4564 10.211 11.0056 10.8924C10.5547 11.5739 9.98057 12.1431 9.31991 12.5638C8.66859 13.0084 7.94344 13.3031 7.1875 13.4306C6.43157 13.558 5.66028 13.5155 4.91943 13.3056C4.15079 13.1332 3.42468 12.7788 2.79061 12.2667C2.15654 11.7545 1.62942 11.0966 1.24519 10.3377C0.845305 9.60306 0.580379 8.78778 0.465687 7.9389C0.350995 7.09003 0.388806 6.22434 0.576938 5.39177C0.74396 4.55983 1.06833 3.77678 1.52856 3.09451C1.98879 2.41223 2.57437 1.8463 3.2465 1.43422C3.90916 0.991075 4.64408 0.697443 5.40914 0.570151C6.17421 0.442859 6.95439 0.484407 7.70496 0.692417C8.45438 0.879212 9.15958 1.24032 9.77403 1.7519C10.3885 2.26349 10.8982 2.91392 11.2695 3.66026C11.6686 4.39535 11.933 5.21061 12.0476 6.05933C12.1623 6.90806 12.125 7.77355 11.9378 8.60624V8.60687ZM7.59359 4.40078L7.81634 3.28808L7.15038 3.04209L6.92763 4.27843C6.75903 4.17116 6.56355 4.12776 6.37075 4.15479L6.70488 2.91846L6.03376 2.79546L5.81101 3.90816C5.65384 3.9296 5.4951 3.88554 5.36551 3.78453L4.4745 3.53726L4.36313 4.4027L4.80863 4.52633C4.95675 4.52633 5.03138 4.64996 5.03138 4.89723L4.80863 6.25784L4.3637 8.11234C4.3637 8.35961 4.25233 8.40231 4.02957 8.23597L3.58407 8.11234L3.2465 8.97714L4.13751 9.2244C4.29459 9.20436 4.4529 9.24829 4.58301 9.34804L4.24888 10.4607L4.91713 10.708L5.25126 9.47167C5.38083 9.57274 5.53959 9.6168 5.69676 9.5953L5.47401 10.8323L6.14226 10.9559L6.36501 9.84321C7.55149 10.0905 8.29418 9.76079 8.59309 8.85414C8.67018 8.70227 8.71698 8.53378 8.73032 8.36009C8.74367 8.1864 8.72325 8.01155 8.67045 7.84738C8.61765 7.68321 8.5337 7.53354 8.42428 7.40851C8.31486 7.28347 8.18252 7.18598 8.03622 7.12263C8.25159 7.08938 8.44895 6.97109 8.59214 6.78944C8.73532 6.60778 8.81474 6.37494 8.81585 6.13357C8.88761 5.39176 8.48114 4.8163 7.58957 4.4027L7.59359 4.40078ZM6.47926 7.36799C7.22023 7.61526 7.51723 7.94495 7.37026 8.35706C7.21985 8.85159 6.5514 8.93401 5.36493 8.60432L5.81043 7.12009C6.25593 7.20293 6.47868 7.28642 6.47868 7.36735L6.47926 7.36799ZM6.81339 5.01832C7.48164 5.26558 7.74151 5.59527 7.59301 6.00738C7.4426 6.58519 6.88553 6.70882 5.92181 6.37828L6.25593 4.89404C6.43794 4.95328 6.62428 4.99465 6.81281 5.01768L6.81339 5.01832ZM17.2293 4.46196C17.1401 4.49963 17.0461 4.52115 16.9508 4.52569C16.715 4.55551 16.4874 4.63974 16.2826 4.77296L17.285 0.566873L14.9455 0.937772L12.3833 12.8104C12.6353 13.0398 12.9486 13.1702 13.2743 13.1813C13.4239 13.1921 13.5727 13.2134 13.7198 13.245C13.8808 13.2603 14.0349 13.3245 14.1653 13.4305H15.5024C16.1478 13.4208 16.7875 13.2955 17.3969 13.0596C17.9826 12.7603 18.5118 12.3406 18.9567 11.8226C19.3772 11.313 19.7162 10.7274 19.9591 10.0911C20.1973 9.42234 20.311 8.70694 20.2933 7.98807C20.3117 7.53103 20.2742 7.07333 20.1819 6.62746C20.1002 6.20329 19.9063 5.81584 19.625 5.51476C19.5458 5.3396 19.4361 5.18366 19.3021 5.05599C19.1682 4.92831 19.0127 4.83146 18.8448 4.77105C18.4315 4.53261 17.9735 4.40554 17.5077 4.40015C17.4125 4.40656 17.3185 4.42801 17.2287 4.46388L17.2293 4.46196ZM15.3922 11.4485H14.9467L15.8371 6.87409L16.5053 6.50319H17.0622C17.5077 6.50319 17.7676 6.62683 17.8418 6.87409C18.0533 7.24438 18.1689 7.6721 18.176 8.11043C18.1598 8.53306 18.0847 8.95036 17.9532 9.3474C17.8066 9.74077 17.6198 10.1141 17.3963 10.4601C17.1585 10.7345 16.8974 10.9829 16.6167 11.2019C16.2954 11.3387 15.9576 11.422 15.6143 11.4492H15.3916L15.3922 11.4485ZM24.5261 4.64742H22.2974L20.5177 13.3037H22.7429L24.5261 4.64742ZM24.3033 3.41172C24.5022 3.31448 24.6893 3.18987 24.8602 3.04082C24.9947 2.89691 25.1076 2.72993 25.1943 2.54628C25.198 2.44045 25.2174 2.33603 25.2518 2.2372C25.285 2.13804 25.3044 2.0338 25.3092 1.92812C25.3133 1.73541 25.2748 1.54452 25.1971 1.37212C25.1195 1.19971 25.005 1.05103 24.8637 0.939047C24.6239 0.792007 24.3571 0.707451 24.0835 0.69178C23.8906 0.663938 23.6949 0.707389 23.5266 0.815414C23.4252 0.827198 23.3288 0.870001 23.2481 0.939047C23.1483 1.01114 23.055 1.09396 22.9697 1.18631C22.8346 1.32961 22.7217 1.4967 22.6356 1.68085C22.6309 1.78654 22.6115 1.89079 22.5782 1.98993C22.5439 2.08877 22.5245 2.19319 22.5208 2.29902C22.516 2.49184 22.5541 2.68301 22.6318 2.85554C22.7095 3.02808 22.8244 3.17665 22.9663 3.28808C23.2054 3.43625 23.4723 3.52089 23.7459 3.53535C23.9385 3.563 24.134 3.51956 24.3022 3.41172H24.3033ZM24.9716 9.22377C24.8883 9.75455 24.851 10.293 24.8602 10.8316C24.788 11.2881 24.8264 11.7577 24.9716 12.1922C25.1641 12.5908 25.4809 12.8978 25.8626 13.0558C26.3368 13.3515 26.8807 13.4809 27.4224 13.4267C27.8342 13.4485 28.2467 13.4069 28.6481 13.303C28.7978 13.2933 28.9466 13.272 29.0936 13.2393C29.255 13.2258 29.4096 13.1615 29.5391 13.0539L29.4255 11.0802C29.2208 11.2136 28.9931 11.2979 28.7572 11.3274C28.5454 11.4227 28.3172 11.4649 28.089 11.4511H27.6457L27.423 11.3274L27.0889 10.9565C27.084 10.8509 27.0646 10.7467 27.0315 10.6475C26.997 10.5487 26.9776 10.4442 26.9741 10.3384C26.9799 10.2127 26.9992 10.0882 27.0315 9.96748C27.0628 9.84656 27.0821 9.72218 27.0889 9.59658L27.7571 6.62874H30.208L30.6535 4.65315H28.2021L28.7589 2.05621L26.4195 2.42711L24.971 9.22504L24.9716 9.22377ZM30.7643 11.1994C30.8869 11.6431 31.0751 12.0611 31.3211 12.4363C31.6783 12.7103 32.0502 12.9598 32.4349 13.1832C32.9297 13.4022 33.4645 13.487 33.9947 13.4305C34.3696 13.449 34.7449 13.4074 35.109 13.3069C35.4523 13.2796 35.7901 13.1963 36.1114 13.0596L35.8887 11.084C35.8432 11.1283 35.7902 11.1621 35.7329 11.1833C35.6755 11.2045 35.6149 11.2128 35.5545 11.2076C35.4942 11.2025 35.4336 11.2108 35.3762 11.232C35.3188 11.2532 35.2659 11.287 35.2204 11.3313C35.0708 11.3419 34.922 11.3632 34.7749 11.395C34.6279 11.4277 34.4791 11.449 34.3294 11.4587C34.1222 11.464 33.9163 11.4218 33.7244 11.3347C33.5326 11.2477 33.359 11.1176 33.2145 10.9527C32.9727 10.5516 32.8554 10.0739 32.8804 9.59212C32.8604 8.76597 33.0536 7.9507 33.4373 7.24244C33.6731 6.99137 33.9525 6.79615 34.2585 6.66863C34.5644 6.54111 34.8905 6.48396 35.217 6.50064H35.9966C36.1692 6.61545 36.3572 6.69893 36.5535 6.74791L37.3331 4.89277C37.0423 4.75159 36.7449 4.62778 36.4421 4.52187C36.0405 4.41903 35.6281 4.37743 35.2164 4.39824C34.5699 4.39374 33.928 4.51941 33.3219 4.76914C32.762 5.11555 32.2388 5.53046 31.762 6.00611C31.386 6.52856 31.0855 7.1127 30.871 7.73762C30.6462 8.41049 30.533 9.123 30.5369 9.84066C30.544 10.3048 30.6192 10.7646 30.7597 11.2019L30.7643 11.1994ZM42.2376 12.9347C42.7463 12.6145 43.1991 12.1958 43.5747 11.6983C43.951 11.1955 44.2171 10.6025 44.3521 9.96621C44.5572 9.33154 44.67 8.66466 44.6862 7.99062C44.6614 7.48827 44.5867 6.99051 44.4634 6.50638C44.3168 6.11302 44.13 5.73967 43.9066 5.39368C43.801 5.19384 43.6559 5.02323 43.4823 4.89472C43.3086 4.76622 43.111 4.68318 42.9042 4.65188C42.4734 4.49006 42.0219 4.40656 41.5671 4.40461C40.9075 4.38247 40.2542 4.553 39.6726 4.89914C38.9297 5.56022 38.484 5.97233 38.3355 6.13548C37.9687 6.70935 37.6693 7.33275 37.4445 7.99062C37.3139 8.63981 37.2393 9.30132 37.2217 9.96621C37.1846 10.4337 37.2615 10.9037 37.4445 11.3268C37.5136 11.7561 37.7095 12.1476 38.0014 12.4395C38.2308 12.7767 38.5418 13.0346 38.8981 13.1832C39.3217 13.375 39.7785 13.4595 40.2352 13.4305C40.931 13.4619 41.6222 13.2915 42.2405 12.936L42.2376 12.9347ZM42.2376 6.87537C42.3768 7.31283 42.452 7.77216 42.4604 8.23597C42.469 8.57004 42.4314 8.9036 42.349 9.22504L42.0149 10.3377L41.3461 11.0802C41.228 11.2059 41.0881 11.3036 40.9349 11.3673C40.7817 11.4311 40.6185 11.4596 40.4551 11.4511C40.2954 11.4654 40.1355 11.4259 39.9963 11.3377C39.8572 11.2494 39.7454 11.1166 39.6754 10.9565C39.4791 10.5833 39.4007 10.1479 39.4527 9.71958C39.4391 9.34457 39.4767 8.96944 39.5641 8.60687C39.6218 8.25782 39.7349 7.92292 39.8982 7.61781C40.1075 7.31687 40.3305 7.02802 40.5664 6.75237C40.7878 6.56133 41.0672 6.47273 41.3461 6.5051C41.5106 6.48003 41.6781 6.50061 41.8337 6.565C41.9893 6.62939 42.1281 6.73559 42.2376 6.87409V6.87537ZM48.9213 4.64933H46.6932L44.9135 13.3056H47.0274L48.9213 4.64933ZM48.6986 3.41363C48.8563 3.30433 49.0054 3.18025 49.1441 3.04273C49.3668 2.87831 49.4782 2.71453 49.4782 2.54819C49.5571 2.3542 49.5952 2.1428 49.5896 1.93003C49.5972 1.74863 49.5716 1.56739 49.5141 1.39735C49.4567 1.22731 49.3687 1.07203 49.2554 0.940959C49.0158 0.793991 48.7492 0.709437 48.4758 0.693692C48.2476 0.68031 48.0195 0.722507 47.8076 0.817326L47.5848 0.940959C47.4344 1.02381 47.3621 1.10729 47.3621 1.18823C47.2269 1.3315 47.114 1.4986 47.0279 1.68276C46.9481 1.87643 46.91 2.08807 46.9166 2.30093C46.9089 2.48233 46.9346 2.66357 46.992 2.8336C47.0494 3.00364 47.1375 3.15892 47.2507 3.29C47.5369 3.41466 47.8363 3.49777 48.1417 3.53726C48.3334 3.54419 48.524 3.50188 48.6986 3.41363ZM48.6986 13.3056H50.9266L52.3751 6.6281C52.6621 6.5234 52.9647 6.48141 53.2661 6.50447C53.4589 6.47748 53.6544 6.52088 53.823 6.6281C53.9217 6.65462 54.0091 6.71849 54.0701 6.80873C54.1311 6.89897 54.1618 7.00996 54.1571 7.12263V7.86444C54.1503 7.99003 54.131 8.11442 54.0997 8.23534C54.0616 8.39678 54.0423 8.56298 54.0423 8.72987L53.0439 13.3056H55.272L56.2744 8.60687C56.4971 7.20485 56.4229 6.17435 56.0516 5.5154C55.6061 4.7736 54.7892 4.4027 53.6008 4.4027C53.263 4.38869 52.9252 4.43036 52.5984 4.52633C52.297 4.50334 51.9945 4.54532 51.7074 4.64996C51.5943 4.65753 51.4822 4.6789 51.3733 4.71369C51.2645 4.7491 51.1524 4.77048 51.0392 4.77742C50.8662 4.89137 50.6783 4.97479 50.4823 5.02469L48.6991 13.3094L48.6986 13.3056Z" fill="white"/>
</g>
<defs>
<clipPath id="clip0_103_1023">
<rect width="56" height="13" fill="white" transform="translate(0.400879 0.5)"/>
</clipPath>
</defs>
</svg>
