<svg width="26" height="18" viewBox="0 0 26 18" fill="none" xmlns="http://www.w3.org/2000/svg">
<g clip-path="url(#clip0_103_1015)">
<path d="M7.57357 9.41033H7.42682C7.07322 9.41033 6.89642 9.52838 6.89642 9.76449C6.89642 9.92694 6.97172 10.0082 7.12233 10.0082C7.18492 10.0084 7.24657 9.9933 7.30174 9.96432C7.35692 9.93533 7.40387 9.89334 7.43837 9.84213C7.52653 9.71473 7.57363 9.56429 7.57357 9.41033ZM12.0311 9.01366H12.7297V8.97853C12.7368 8.95522 12.7388 8.93068 12.7354 8.90656C12.7316 8.88805 12.7277 8.86217 12.7239 8.82893C12.7208 8.79854 12.7132 8.76875 12.7013 8.74053C12.6893 8.71357 12.672 8.68914 12.6505 8.66856C12.6262 8.6447 12.5976 8.62548 12.5661 8.61189C12.5248 8.5958 12.4806 8.58828 12.4361 8.58979C12.2255 8.58979 12.0906 8.72995 12.0317 9.01026L12.0311 9.01366ZM18.1249 9.41033H17.9874C17.6261 9.41033 17.4455 9.52838 17.4455 9.76449C17.4455 9.92694 17.5208 10.0082 17.6714 10.0082C17.734 10.0084 17.7956 9.9933 17.8508 9.96432C17.906 9.93533 17.9529 9.89334 17.9874 9.84213C18.0764 9.71499 18.1243 9.56453 18.1249 9.41033ZM21.7245 9.12246C21.7245 8.82024 21.6116 8.66913 21.3859 8.66913C21.3126 8.67109 21.2411 8.69279 21.1795 8.73186C21.1178 8.77094 21.0683 8.82589 21.0364 8.89069C20.9395 9.06395 20.8927 9.25991 20.9012 9.45736C20.9012 9.76714 21.0065 9.92203 21.2172 9.92203C21.2931 9.92097 21.3672 9.89982 21.4318 9.86082C21.4964 9.82181 21.549 9.7664 21.5841 9.70046C21.6859 9.52395 21.7346 9.32275 21.7245 9.12019V9.12246ZM5.41846 7.56186H6.40068L5.90437 10.4615H5.27171L5.63282 8.23676L4.83144 10.4615H4.39117L4.34611 8.24809L3.96246 10.4615H3.36446L3.86077 7.56186H4.77482L4.79735 9.36613L5.41846 7.56186ZM8.27326 8.74619C8.27326 8.79039 8.25824 8.94528 8.22819 9.21086C8.10763 9.95622 8.04369 10.3731 8.03637 10.4615H7.50597L7.51753 10.2178C7.44009 10.3139 7.34014 10.3903 7.22617 10.4404C7.11221 10.4905 6.98759 10.5129 6.86291 10.5057C6.78349 10.5082 6.70448 10.4936 6.63142 10.4629C6.55836 10.4323 6.49302 10.3863 6.43997 10.3283C6.32703 10.1996 6.26854 10.0333 6.27646 9.86366C6.26945 9.73738 6.29229 9.61122 6.3432 9.49503C6.39412 9.37884 6.47173 9.27577 6.56997 9.19386C6.80763 9.02217 7.09928 8.93792 7.39388 8.95586C7.4805 8.95511 7.5671 8.95889 7.65331 8.96719C7.6532 8.94685 7.65514 8.92654 7.65908 8.90656C7.66294 8.88805 7.66679 8.87143 7.67064 8.85669C7.67383 8.84579 7.67577 8.83458 7.67642 8.82326C7.67642 8.67555 7.5416 8.60169 7.27197 8.60169C7.04532 8.60395 6.82054 8.64222 6.60637 8.71503C6.60637 8.68556 6.63276 8.50838 6.68553 8.18349C6.93064 8.10864 7.18519 8.06764 7.44184 8.06166C7.99843 8.06166 8.27673 8.29041 8.27673 8.74789L8.27326 8.74619ZM10.0337 8.10416L9.94362 8.64646C9.79048 8.62513 9.63606 8.61396 9.48139 8.61303C9.2784 8.61303 9.17691 8.67574 9.17691 8.80116C9.17516 8.82555 9.1788 8.85002 9.18757 8.8729C9.19635 8.89579 9.21005 8.91654 9.22775 8.93376C9.30272 8.98483 9.38433 9.02581 9.47042 9.05559C9.60606 9.10746 9.72213 9.19902 9.80287 9.31784C9.8836 9.43666 9.92508 9.57698 9.92166 9.71973C9.92166 10.2509 9.59425 10.5129 8.93944 10.5057C8.71931 10.5095 8.49951 10.4873 8.28482 10.4394C8.28482 10.4247 8.3112 10.2439 8.36397 9.89709C8.5517 9.95163 8.74601 9.98136 8.94175 9.98549C9.18249 9.98549 9.30286 9.91542 9.30286 9.77526C9.30386 9.75171 9.29986 9.72822 9.2911 9.70627C9.28235 9.68432 9.26904 9.66439 9.25202 9.64776C9.17809 9.5908 9.09642 9.54426 9.00935 9.50949C8.86985 9.4628 8.74841 9.37508 8.66156 9.25827C8.57472 9.14146 8.52669 9.00124 8.52402 8.85669C8.52402 8.32554 8.84006 8.05996 9.47215 8.05996C9.66036 8.05707 9.84842 8.07187 10.0337 8.10416ZM11.0269 8.10416H11.343L11.2638 8.67989H10.9385C10.9235 8.80532 10.8991 8.95473 10.8652 9.12813C10.8313 9.30153 10.8049 9.44357 10.786 9.55426C10.7731 9.62023 10.7637 9.68681 10.7577 9.75373C10.7577 9.87197 10.8292 9.93109 10.9721 9.93109C11.033 9.93104 11.0938 9.92362 11.1529 9.90899L11.0628 10.4292C10.9176 10.4787 10.7652 10.5049 10.6115 10.5068C10.288 10.5068 10.1187 10.3334 10.1037 9.98663C10.1199 9.77827 10.15 9.57119 10.1938 9.36669C10.2165 9.21898 10.3105 8.68027 10.4757 7.75056H11.0946L11.0269 8.10416ZM13.3178 8.91223C13.3145 9.10652 13.288 9.29975 13.2387 9.48796H11.9861C11.9705 9.55346 11.9731 9.62183 11.9934 9.68606C12.0137 9.75029 12.051 9.80806 12.1016 9.85346C12.2253 9.94261 12.3772 9.98578 12.5303 9.97529C12.7579 9.97503 12.9822 9.92202 13.1849 9.82059L13.0833 10.4184C12.8737 10.4752 12.6576 10.5049 12.4402 10.5068C12.2946 10.5272 12.1462 10.514 12.0067 10.4684C11.8672 10.4228 11.7404 10.3459 11.6365 10.2439C11.5325 10.1419 11.4541 10.0176 11.4076 9.88081C11.3611 9.744 11.3477 9.59844 11.3684 9.45566C11.3533 9.09689 11.4627 8.7437 11.6787 8.45379C11.7675 8.33131 11.8852 8.23166 12.0217 8.1633C12.1582 8.09494 12.3095 8.05988 12.4627 8.06109C12.5778 8.05533 12.6929 8.07299 12.8007 8.11298C12.9085 8.15296 13.0066 8.2144 13.089 8.29343C13.1678 8.37642 13.2288 8.47403 13.2685 8.58049C13.3081 8.68696 13.3257 8.80013 13.3201 8.91336L13.3178 8.91223ZM14.8865 8.09339C14.7707 8.30971 14.6865 8.5409 14.6363 8.78019C14.4707 8.76546 14.3542 8.85405 14.2868 9.04596C14.1618 9.51175 14.0677 9.98495 14.0048 10.4626H13.3739L13.408 10.3079C13.5736 9.34875 13.6826 8.61454 13.735 8.10529H14.3128L14.2787 8.47079C14.3561 8.34718 14.4537 8.23691 14.5676 8.14439C14.6139 8.11276 14.6669 8.09184 14.7226 8.0832C14.7784 8.07456 14.8354 8.07844 14.8894 8.09453L14.8865 8.09339ZM16.9965 7.64006L16.8949 8.27019C16.7213 8.17678 16.5282 8.12384 16.3304 8.11549C16.2158 8.11475 16.1029 8.14222 16.0019 8.19538C15.901 8.24855 15.8152 8.32571 15.7526 8.41979C15.5939 8.64942 15.5147 8.92297 15.5267 9.20009C15.5157 9.38546 15.5695 9.56896 15.6792 9.72029C15.7312 9.78324 15.7977 9.83314 15.8733 9.86585C15.9488 9.89857 16.0313 9.91316 16.1137 9.90843C16.303 9.90052 16.4881 9.85135 16.6557 9.76449L16.5401 10.4173C16.357 10.4721 16.167 10.5018 15.9756 10.5057C15.8234 10.5122 15.6717 10.485 15.5316 10.4262C15.3916 10.3673 15.2669 10.2783 15.1667 10.1657C14.9559 9.90783 14.8494 9.58283 14.8674 9.25279C14.8475 8.79774 14.989 8.34998 15.2678 7.98573C15.3879 7.82938 15.5442 7.70322 15.7236 7.61761C15.9031 7.53201 16.1008 7.4894 16.3003 7.49329C16.5365 7.50146 16.7694 7.55018 16.9885 7.63723L16.9965 7.64006ZM18.8246 8.74676C18.8225 8.90259 18.8074 9.05799 18.7796 9.21143C18.6817 9.79434 18.6178 10.2112 18.5877 10.4621H18.0677L18.0793 10.2184C18.0001 10.3153 17.8983 10.392 17.7824 10.4422C17.6665 10.4923 17.5401 10.5143 17.4137 10.5063C17.335 10.5092 17.2566 10.4947 17.1843 10.464C17.112 10.4334 17.0477 10.3872 16.996 10.3289C16.8864 10.1986 16.8301 10.033 16.8382 9.86423C16.8312 9.73838 16.8536 9.61263 16.9037 9.49655C16.9537 9.38047 17.0302 9.27714 17.1271 9.19443C17.3623 9.02225 17.6524 8.93787 17.9453 8.95643C18.0319 8.9553 18.1185 8.95908 18.2047 8.96776C18.219 8.92104 18.2265 8.8726 18.2272 8.82383C18.2272 8.67612 18.0924 8.60226 17.8228 8.60226C17.5961 8.60452 17.3713 8.64279 17.1572 8.71559C17.1572 8.68613 17.1872 8.50895 17.2473 8.18406C17.4924 8.10921 17.747 8.0682 18.0036 8.06223C18.5529 8.06223 18.8275 8.29097 18.8275 8.74846L18.8246 8.74676ZM20.4141 8.09283C20.2958 8.30665 20.2157 8.53874 20.1772 8.77906C20.0962 8.76999 20.0147 8.79113 19.9489 8.83826C19.8831 8.8854 19.8377 8.95509 19.8219 9.03349C19.6973 9.50357 19.6009 9.98038 19.533 10.4615H18.9032L18.9373 10.3068C19.0802 9.53953 19.1892 8.80532 19.2643 8.10416H19.8513C19.8466 8.227 19.8315 8.34924 19.8063 8.46966C19.8891 8.34695 19.9899 8.23696 20.1056 8.14326C20.1498 8.112 20.2009 8.09123 20.2547 8.08258C20.3086 8.07393 20.3637 8.07763 20.4158 8.09339L20.4141 8.09283ZM22.0053 7.56129H22.6385L22.1532 10.4609H21.5552L21.5893 10.2507C21.5143 10.3301 21.4236 10.3937 21.3226 10.4375C21.2217 10.4812 21.1127 10.5042 21.0023 10.5051C20.8942 10.5084 20.7869 10.4859 20.6896 10.4396C20.5923 10.3933 20.5079 10.3246 20.4436 10.2394C20.2952 10.0328 20.2218 9.78337 20.235 9.53103C20.226 9.16742 20.3346 8.81034 20.5453 8.51103C20.6199 8.38494 20.7258 8.27931 20.853 8.20386C20.9802 8.1284 21.1247 8.08554 21.2733 8.07923C21.392 8.08116 21.5084 8.11136 21.6126 8.16724C21.7168 8.22311 21.8055 8.30298 21.8713 8.39996L22.0053 7.56129ZM23.2579 9.00006C23.258 7.88004 22.9395 6.7822 22.3382 5.82998C21.737 4.87775 20.8768 4.10888 19.8545 3.60981C18.8321 3.11073 17.6881 2.90123 16.551 3.00486C15.4139 3.10849 14.3289 3.52114 13.4178 4.19643C14.3626 5.035 15.0339 6.12847 15.3476 7.33973H14.7831C14.4694 6.26037 13.8514 5.28983 13.0001 4.53983C12.1487 5.28983 11.5307 6.26037 11.217 7.33973H10.6525C10.9662 6.12847 11.6376 5.035 12.5823 4.19643C11.8886 3.68162 11.0913 3.3172 10.2432 3.1273C9.39508 2.93741 8.51552 2.92637 7.66273 3.09491C6.80994 3.26345 6.00339 3.60773 5.29646 4.10496C4.58953 4.60219 3.99835 5.24102 3.56206 5.97916C2.74507 7.36169 2.52149 9.00589 2.94049 10.5501C3.35949 12.0943 4.38676 13.412 5.79633 14.2134C6.84395 14.8057 8.04608 15.0827 9.25303 15.0098C10.46 14.937 11.6184 14.5175 12.5841 13.8037C11.7013 13.0162 11.0569 12.0053 10.7219 10.882H11.2852C11.6148 11.8752 12.2069 12.7651 13.0012 13.4609C13.7953 12.765 14.3873 11.8752 14.7166 10.882H15.2811C14.9461 12.0053 14.3017 13.0162 13.4189 13.8037C14.329 14.483 15.4146 14.899 16.5532 15.0047C17.6917 15.1104 18.8376 14.9015 19.8614 14.4017C20.8853 13.902 21.746 13.1312 22.3465 12.1766C22.9469 11.222 23.263 10.1217 23.2591 9.00006H23.2579ZM26.0001 1.91673V16.0834C25.9948 16.4575 25.841 16.8149 25.5712 17.0795C25.3014 17.344 24.9371 17.4949 24.5556 17.5001H1.44451C1.25488 17.5018 1.06691 17.4654 0.892201 17.3931C0.717494 17.3208 0.559768 17.2141 0.428773 17.0796C0.291659 16.9511 0.18287 16.7964 0.109131 16.6251C0.0353924 16.4537 -0.00172892 16.2694 6.18366e-05 16.0834V1.91673C-0.00172892 1.73075 0.0353924 1.54639 0.109131 1.37504C0.18287 1.2037 0.291659 1.049 0.428773 0.920527C0.559768 0.78605 0.717494 0.679353 0.892201 0.607033C1.06691 0.534712 1.25488 0.498304 1.44451 0.500061H24.5556C24.9371 0.505191 25.3014 0.656094 25.5712 0.920667C25.841 1.18524 25.9948 1.5426 26.0001 1.91673Z" fill="white"/>
</g>
<defs>
<clipPath id="clip0_103_1015">
<rect width="26" height="17" fill="white" transform="translate(0 0.5)"/>
</clipPath>
</defs>
</svg>
