<svg width="59" height="46" viewBox="0 0 59 46" fill="none" xmlns="http://www.w3.org/2000/svg">
<g clip-path="url(#clip0_92_1003)">
<path d="M10.0325 38.8398H5.82422V40.0834H7.00106V44.6207H5.82422V45.8664H10.0325V44.6207H8.85332V40.0834H10.0325V38.8398Z" fill="white"/>
<path d="M16.939 38.6992C16.3918 38.6992 15.8881 38.7844 15.4279 38.9546C14.9677 39.1227 14.5808 39.3647 14.2694 39.6784C13.9443 40.001 13.697 40.3886 13.5276 40.8435C13.3582 41.2961 13.2734 41.8002 13.2734 42.3582C13.2734 42.9564 13.3627 43.483 13.5413 43.9378C13.7199 44.3949 13.9718 44.7735 14.2969 45.0805C14.622 45.3852 15.0089 45.6183 15.4577 45.7706C15.911 45.9252 16.4033 45.9992 16.9368 45.9992C17.2939 45.9992 17.5778 45.9835 17.7839 45.9499C17.99 45.914 18.2098 45.8647 18.4433 45.7975C18.6242 45.7482 18.7959 45.6877 18.9584 45.6183C19.1233 45.5466 19.295 45.4749 19.4736 45.3964V43.7182H19.2836C19.1966 43.7944 19.0844 43.8818 18.9516 43.9848C18.8142 44.0879 18.6677 44.1843 18.512 44.2739C18.3265 44.3882 18.1228 44.4755 17.9052 44.5405C17.6832 44.6055 17.4611 44.6391 17.239 44.6391C17.0169 44.6391 16.765 44.6033 16.5246 44.5293C16.2819 44.4554 16.0667 44.3321 15.8675 44.1619C15.6775 43.9916 15.5172 43.7585 15.389 43.4628C15.2631 43.167 15.199 42.7996 15.199 42.3604C15.199 41.9212 15.2585 41.5807 15.3776 41.2871C15.4943 40.9914 15.6477 40.7561 15.8355 40.5769C16.037 40.3909 16.2522 40.2587 16.488 40.178C16.7215 40.0974 16.9688 40.057 17.2298 40.057C17.4634 40.057 17.6832 40.0929 17.8892 40.1601C18.0953 40.2273 18.2853 40.3147 18.4639 40.4155C18.6356 40.5141 18.7913 40.6172 18.9264 40.7203C19.0615 40.8233 19.176 40.913 19.2653 40.9869H19.4759V39.284C19.3454 39.2213 19.192 39.1518 19.018 39.0801C18.844 39.0039 18.6471 38.939 18.4341 38.8785C18.2281 38.8247 18.0037 38.7821 17.761 38.7508C17.516 38.7171 17.2458 38.7015 16.9436 38.7015" fill="white"/>
<path d="M26.972 38.8398H24.8427L22.1914 45.8642H24.0597L24.5588 44.4481H27.2147L27.7116 45.8642H29.6234L26.972 38.8398ZM25.003 43.1575L25.8845 40.6435L26.766 43.1575H25.003Z" fill="white"/>
<path d="M39.343 38.8398H37.6419V42.864L35.0226 38.8398H32.8086V45.8642H34.5097V41.0424L37.5572 45.8642H39.3453V38.8398" fill="white"/>
<path d="M49.8609 38.8398H48.1598V42.864L45.5405 38.8398H43.3242V45.8642H45.0254V41.0424L48.0728 45.8642H49.8609V38.8398Z" fill="white"/>
<path d="M29.9646 0C28.8633 0 27.7414 0.109791 26.6127 0.329372C24.7375 0.737165 23.0822 1.61773 21.4222 2.51174C15.9547 5.13327 12.4677 10.6362 12.9508 16.5918L15.6136 15.8345C15.2885 11.6356 16.4516 7.90492 19.1304 4.85991C20.7583 13.316 24.275 21.0014 29.509 28.0078C29.9875 28.0369 30.45 28.0683 30.9079 28.0683C31.3658 28.0683 31.8306 28.0369 32.2977 27.9451C30.4523 26.1279 28.9824 24.1718 27.4942 22.2158C29.77 21.2008 32.0802 20.1544 34.1408 18.7294C33.8638 18.0482 33.6623 17.3043 33.3074 16.6971C31.1392 18.3059 28.8931 19.6996 26.4913 20.7459C25.3763 19.1103 24.4147 17.4253 23.4851 15.7269V15.5611C26.0403 14.5461 28.5039 13.2869 30.7957 11.6356C30.3951 10.9074 29.9623 10.1478 29.5113 9.498C27.3591 11.1337 25.1428 12.6506 22.8189 13.865H22.5876C21.1795 10.9387 20.0622 7.87579 19.2426 4.69411C20.0027 3.86059 20.8704 3.05621 21.7519 2.40643L24.3254 1.69391C30.798 8.80341 35.0131 16.8674 37.321 25.5969C37.9255 25.0076 38.4681 24.369 38.6055 23.5826C38.1567 22.3525 37.8316 21.0955 37.2592 19.9281C36.9661 19.0632 36.3915 18.2611 36.206 17.4119C37.8957 16.1997 39.5213 14.8822 41.1148 13.4236C41.0828 12.3324 40.8058 11.3331 40.2814 10.4234H40.1578C38.5917 12.1509 36.8127 13.8336 35.0292 15.2878C34.0675 13.7574 33.1838 12.1957 32.1351 10.6945C33.9302 9.36133 35.6657 7.75256 37.2615 6.05641C36.6891 5.3282 35.945 4.55295 35.0933 4.26615C33.731 5.75392 32.1992 7.3134 30.6309 8.57263C28.742 6.22221 26.6974 3.88972 24.4353 1.75217C25.3557 1.54827 26.4043 1.4452 27.453 1.4452C28.5016 1.4452 29.5456 1.54827 30.4615 1.75217C35.7916 2.69323 40.9775 7.8153 41.8315 13.0449C42.9625 18.8952 40.8241 24.2772 35.9313 27.8397C34.198 28.4559 32.3481 28.7674 30.505 28.7674C26.5394 28.7674 22.6059 27.3199 19.9294 24.3377C21.7863 24.0352 23.5538 23.4885 25.3351 22.9283C25.0695 22.4891 24.7444 22.0791 24.5452 21.6108C19.6226 23.5467 14.2582 24.6603 8.60062 24.6603C7.92062 24.6603 7.23375 24.6446 6.54688 24.611C8.47241 24.853 10.4414 24.9583 12.4196 24.9583C13.672 24.9583 14.929 24.9157 16.1837 24.8396C17.5002 26.4461 19.1716 27.7344 20.8773 28.6576C22.8212 29.7174 25.2389 30.2439 27.6705 30.2439C30.5645 30.2439 33.4814 29.4956 35.6542 28.0056C38.1018 26.9906 40.4554 25.2003 42.1108 22.9261C45.2407 19.0139 45.7192 12.5587 43.3953 8.13122L42.3901 6.44851C39.4526 2.2115 34.9193 0 29.9646 0Z" fill="white"/>
<path d="M21.0834 14.6858C16.7768 16.6553 12.1312 17.8518 7.14453 18.2327C7.48568 18.2372 7.82453 18.2395 8.16568 18.2395C9.83936 18.2395 11.5039 18.179 13.0608 18.0647C13.3859 19.9872 14.0522 21.7931 15.1214 23.4131C16.2364 23.2024 17.3514 23.021 18.4024 22.7028C17.4591 21.4749 16.7928 20.1081 16.2982 18.6697C16.2204 18.3224 15.9548 17.9101 16.1746 17.5785C18.0933 17.2312 19.9684 16.8055 21.7497 16.1534L21.0857 14.6836" fill="white"/>
<path d="M29.5492 34.3906C19.4018 34.3906 9.24072 35.3653 0 37.2855C9.26819 36.2996 18.9485 35.8336 28.6426 35.8336C38.9113 35.8336 49.1915 36.3557 59 37.3303C49.8005 35.3608 39.6783 34.3906 29.5469 34.3906" fill="white"/>
</g>
<defs>
<clipPath id="clip0_92_1003">
<rect width="59" height="46" fill="white"/>
</clipPath>
</defs>
</svg>
