<svg width="229" height="75" viewBox="0 0 229 75" fill="none" xmlns="http://www.w3.org/2000/svg">
<g clip-path="url(#clip0_133_914)">
<path d="M54.9511 11.3877H47.1036C46.3835 11.3877 45.7926 10.7959 45.7926 10.0745V2.21362C45.7926 1.49227 45.2202 0.900391 44.4816 0.900391H11.7805C11.0604 0.900391 10.4695 1.49227 10.4695 2.21362V10.0745C10.4695 10.7959 9.87865 11.3877 9.15852 11.3877H1.311C0.590872 11.3877 0 11.9796 0 12.701V41.5366C0 42.2579 0.590872 42.8498 1.311 42.8498H9.15852C9.87865 42.8498 10.4695 43.4417 10.4695 44.1631V52.0239C10.4695 52.7453 11.0604 53.3372 11.7805 53.3372H44.5001C45.2202 53.3372 45.8111 52.7453 45.8111 52.0239V44.1631C45.8111 43.4417 45.2202 42.8498 44.5001 42.8498H11.7805C11.0604 42.8498 10.4695 42.2579 10.4695 41.5366V33.6757C10.4695 32.9543 11.0604 32.3625 11.7805 32.3625H54.9696C55.6897 32.3625 56.2806 31.7706 56.2806 31.0492V12.701C56.2806 11.9796 55.6897 11.3877 54.9696 11.3877H54.9511ZM11.7805 21.8751C11.0604 21.8751 10.4695 21.2832 10.4695 20.5619V12.701C10.4695 11.9796 11.0604 11.3877 11.7805 11.3877H44.5001C45.2202 11.3877 45.8111 11.9796 45.8111 12.701V20.5619C45.8111 21.2832 45.2202 21.8751 44.5001 21.8751H11.7805Z" fill="white"/>
<path d="M227.687 0.900391H219.839C219.119 0.900391 218.528 1.49227 218.528 2.21362V41.5366C218.528 42.2579 217.937 42.8498 217.217 42.8498H187.12C186.4 42.8498 185.809 42.2579 185.809 41.5366V12.701C185.809 11.9796 185.218 11.3877 184.498 11.3877H176.65C175.93 11.3877 175.339 10.7959 175.339 10.0745V2.21362C175.339 1.49227 174.748 0.900391 174.028 0.900391H130.839C130.119 0.900391 129.528 1.49227 129.528 2.21362V10.0745C129.528 10.7959 128.937 11.3877 128.217 11.3877H120.37C119.649 11.3877 119.059 11.9796 119.059 12.701V31.0492C119.059 31.7706 119.649 32.3625 120.37 32.3625H158.315C159.035 32.3625 159.626 32.9543 159.626 33.6757V41.5366C159.626 42.2579 159.035 42.8498 158.315 42.8498H120.37C119.649 42.8498 119.059 43.4417 119.059 44.163V52.0239C119.059 52.7453 119.649 53.3372 120.37 53.3372H158.315C159.035 53.3372 159.626 52.7453 159.626 52.0239V44.163C159.626 43.4417 160.217 42.8498 160.937 42.8498H168.784C169.504 42.8498 170.095 42.2579 170.095 41.5366V23.1883C170.095 22.467 169.504 21.8751 168.784 21.8751H130.839C130.119 21.8751 129.528 21.2832 129.528 20.5619V12.701C129.528 11.9796 130.119 11.3877 130.839 11.3877H174.028C174.748 11.3877 175.339 11.9796 175.339 12.701V41.5366C175.339 42.2579 175.93 42.8498 176.65 42.8498H184.498C185.218 42.8498 185.809 43.4417 185.809 44.163V52.0239C185.809 52.7453 186.4 53.3372 187.12 53.3372H217.217C217.937 53.3372 218.528 53.9291 218.528 54.6504V62.5113C218.528 63.2327 217.937 63.8245 217.217 63.8245H187.12C186.4 63.8245 185.809 64.4164 185.809 65.1378V72.9986C185.809 73.72 186.4 74.3119 187.12 74.3119H217.217C217.937 74.3119 218.528 73.72 218.528 72.9986V65.1378C218.528 64.4164 219.119 63.8245 219.839 63.8245H227.687C228.407 63.8245 228.998 63.2327 228.998 62.5113V2.21362C228.998 1.49227 228.407 0.900391 227.687 0.900391Z" fill="white"/>
<path d="M113.84 11.3877H105.992C105.272 11.3877 104.681 10.7959 104.681 10.0745V2.21362C104.681 1.49227 104.109 0.900391 103.37 0.900391H68.0472C67.3271 0.900391 66.7362 1.49227 66.7362 2.21362V10.0745C66.7362 10.7959 67.3271 11.3877 68.0472 11.3877H103.37C104.09 11.3877 104.681 11.9796 104.681 12.701V20.5619C104.681 21.2832 104.09 21.8751 103.37 21.8751H62.8032C62.0831 21.8751 61.4922 22.467 61.4922 23.1883V41.5366C61.4922 42.2579 62.0831 42.8498 62.8032 42.8498H70.6507C71.3708 42.8498 71.9617 43.4417 71.9617 44.1631V52.0239C71.9617 52.7453 72.5526 53.3372 73.2727 53.3372H103.37C104.09 53.3372 104.681 52.7453 104.681 52.0239V44.1631C104.681 43.4417 105.272 42.8498 105.992 42.8498H113.84C114.56 42.8498 115.151 42.2579 115.151 41.5366V12.701C115.151 11.9796 114.56 11.3877 113.84 11.3877ZM73.2727 42.8498C72.5526 42.8498 71.9617 42.2579 71.9617 41.5366V33.6757C71.9617 32.9543 72.5526 32.3625 73.2727 32.3625H103.37C104.09 32.3625 104.681 32.9543 104.681 33.6757V41.5366C104.681 42.2579 104.09 42.8498 103.37 42.8498H73.2727Z" fill="white"/>
</g>
<defs>
<clipPath id="clip0_133_914">
<rect width="229" height="73.4115" fill="white" transform="translate(0 0.900391)"/>
</clipPath>
</defs>
</svg>
