<svg width="93" height="14" viewBox="0 0 93 14" fill="none" xmlns="http://www.w3.org/2000/svg">
<g clip-path="url(#clip0_103_1017)">
<path fill-rule="evenodd" clip-rule="evenodd" d="M5.99212 11.0815C6.08746 11.3313 6.25563 11.5505 6.47723 11.7139C6.69882 11.8773 6.96481 11.9783 7.2445 12.005H7.25138C7.52851 11.9812 7.793 11.8843 8.0148 11.7256C8.23659 11.5668 8.40679 11.3525 8.50605 11.1069L8.90746 10.2944L5.00467 2.48413L2.30953 3.67308L5.99212 11.0815ZM11.0613 11.1058C11.1601 11.3516 11.3299 11.5662 11.5516 11.7252C11.7732 11.8842 12.0377 11.9811 12.3148 12.005H12.32C12.5995 11.9791 12.8656 11.8788 13.0873 11.7158C13.309 11.5529 13.4772 11.3338 13.5723 11.0842L17.2079 3.67417L14.5128 2.48575L10.6536 10.2912L11.0607 11.1037L11.0613 11.1058ZM12.3148 13.5C11.7916 13.4847 11.2819 13.3391 10.8374 13.0779C10.3929 12.8167 10.0294 12.4492 9.78367 12.0126C9.53766 12.4492 9.17391 12.8167 8.72925 13.0779C8.28458 13.3391 7.77476 13.4847 7.25138 13.5H7.23475C6.65778 13.4743 6.10044 13.2941 5.6278 12.9805C5.15515 12.6669 4.78668 12.2327 4.56542 11.7288V11.7212L0.200439 2.95158L5.76275 0.501625L9.77678 8.53454L13.7444 0.5L19.3067 2.94887L15.0008 11.7288C14.7797 12.2327 14.4113 12.6669 13.9388 12.9805C13.4662 13.2942 12.9089 13.4743 12.332 13.5H12.3148Z" fill="white"/>
<path fill-rule="evenodd" clip-rule="evenodd" d="M26.0174 11.8423C26.3458 11.8204 26.6596 11.7059 26.9182 11.5136C27.1769 11.3213 27.3685 11.0601 27.4682 10.7639L29.5102 5.87261L27.8851 5.31523L26.018 10.2097L24.1492 5.31523L22.5247 5.87044L24.5661 10.7617C24.6661 11.0579 24.8579 11.319 25.1166 11.5112C25.3753 11.7035 25.6891 11.818 26.0174 11.8402M37.3227 11.8402C37.651 11.8182 37.9648 11.7037 38.2235 11.5114C38.4821 11.3192 38.6737 11.058 38.7735 10.7617L40.8149 5.87044L39.1904 5.31523L37.3227 10.2114L35.4544 5.31523L33.8293 5.87044L35.8713 10.7617C35.971 11.0583 36.1626 11.3199 36.4214 11.5125C36.6801 11.7052 36.9941 11.82 37.3227 11.8423M42.9137 8.47098C42.897 8.70956 42.9324 8.94883 43.0176 9.17397C43.1027 9.39911 43.236 9.60534 43.4089 9.77988C43.5819 9.95442 43.791 10.0936 44.0232 10.1887C44.2554 10.2838 44.5059 10.3329 44.759 10.3329C45.0121 10.3329 45.2625 10.2838 45.4947 10.1887C45.727 10.0936 45.936 9.95442 46.109 9.77988C46.282 9.60534 46.4152 9.39911 46.5004 9.17397C46.5856 8.94883 46.621 8.70956 46.6043 8.47098C46.6216 8.23211 46.5867 7.99243 46.5018 7.76682C46.4169 7.54122 46.2838 7.33451 46.1108 7.15953C45.9377 6.98455 45.7285 6.84504 45.496 6.74965C45.2635 6.65426 45.0127 6.60504 44.7593 6.60504C44.5058 6.60504 44.255 6.65426 44.0225 6.74965C43.79 6.84504 43.5808 6.98455 43.4078 7.15953C43.2347 7.33451 43.1017 7.54122 43.0168 7.76682C42.9319 7.99243 42.8964 8.23211 42.9137 8.47098ZM48.2294 11.6771H46.5498V10.9692C46.3068 11.2538 45.9968 11.4809 45.6445 11.6325C45.2922 11.7841 44.9073 11.8559 44.5204 11.8423C42.651 11.8423 41.2364 10.3944 41.2364 8.47098C41.2364 6.54753 42.651 5.09857 44.5204 5.09857C44.9078 5.08525 45.2931 5.15777 45.6455 5.31034C45.9979 5.4629 46.3076 5.69126 46.5498 5.97715V5.27136H48.2294V11.6771ZM80.3784 7.92065H83.6103C83.5918 7.53616 83.4168 7.17328 83.1217 6.90782C82.8267 6.64236 82.4345 6.49483 82.027 6.49607C81.6107 6.48709 81.2067 6.6302 80.8993 6.89557C80.5918 7.16095 80.4046 7.52814 80.3767 7.92065M85.3375 8.46232C85.3375 8.65672 85.3256 8.85096 85.3019 9.04407H80.3939C80.4709 9.44544 80.7004 9.80645 81.0392 10.0594C81.378 10.3123 81.8028 10.4397 82.234 10.4177C82.8706 10.4357 83.4901 10.2225 83.9652 9.8219L85.0181 10.8733C84.2233 11.5373 83.1876 11.8855 82.1274 11.845C81.6563 11.8679 81.1854 11.7967 80.7455 11.636C80.3056 11.4753 79.9064 11.2288 79.5742 10.9125C79.2419 10.5963 78.984 10.2174 78.8173 9.80061C78.6505 9.38383 78.5787 8.93851 78.6065 8.49373C78.6065 6.47657 80.0074 5.10182 82.0368 5.10182C83.9905 5.10182 85.3254 6.47007 85.3346 8.46719M91.6957 6.80482H89.0757V9.14536C89.0757 9.9454 89.3784 10.3132 90.2357 10.3132C90.7094 10.2615 91.1623 10.1006 91.5546 9.84465L92.1997 11.1679C91.5457 11.6129 90.7584 11.8489 89.9524 11.8418C88.2734 11.8418 87.4121 10.9432 87.4121 9.28294V6.80482H86.1024V5.31523H87.4121V3.36523H89.0751V5.31523H91.6957V6.80482ZM61.0479 5.31523L59.182 10.2114L57.5081 5.82386C57.445 5.61505 57.3115 5.43135 57.128 5.30057C56.9444 5.1698 56.7208 5.09906 56.4909 5.09906C56.261 5.09906 56.0373 5.1698 55.8538 5.30057C55.6702 5.43135 55.5368 5.61505 55.4736 5.82386L53.7986 10.2114L51.9275 5.31523L50.3029 5.87044L52.3541 10.7617C52.4315 11.0702 52.6168 11.3451 52.8801 11.5418C53.1434 11.7384 53.4692 11.8454 53.8049 11.8454C54.1406 11.8454 54.4664 11.7384 54.7297 11.5418C54.993 11.3451 55.1783 11.0702 55.2557 10.7617L56.4869 7.8069L57.7186 10.7622C57.7959 11.0708 57.9813 11.3456 58.2446 11.5423C58.5079 11.739 58.8337 11.846 59.1694 11.846C59.505 11.846 59.8309 11.739 60.0942 11.5423C60.3575 11.3456 60.5428 11.0708 60.6202 10.7622L62.6708 5.87153L61.0479 5.31523ZM64.7179 8.46936C64.7006 8.70824 64.7355 8.94792 64.8204 9.17352C64.9053 9.39913 65.0384 9.60583 65.2114 9.78081C65.3845 9.95579 65.5937 10.0953 65.8262 10.1907C66.0587 10.2861 66.3095 10.3353 66.5629 10.3353C66.8164 10.3353 67.0672 10.2861 67.2997 10.1907C67.5322 10.0953 67.7414 9.95579 67.9144 9.78081C68.0875 9.60583 68.2206 9.39913 68.3055 9.17352C68.3904 8.94792 68.4252 8.70824 68.408 8.46936C68.4252 8.23048 68.3904 7.9908 68.3055 7.7652C68.2206 7.53959 68.0875 7.33289 67.9144 7.15791C67.7414 6.98293 67.5322 6.84341 67.2997 6.74803C67.0672 6.65264 66.8164 6.60342 66.5629 6.60342C66.3095 6.60342 66.0587 6.65264 65.8262 6.74803C65.5937 6.84341 65.3845 6.98293 65.2114 7.15791C65.0384 7.33289 64.9053 7.53959 64.8204 7.7652C64.7355 7.9908 64.7006 8.23048 64.7179 8.46936ZM70.0308 11.6755H68.3546V10.9692C68.1115 11.2536 67.8014 11.4807 67.4492 11.6322C67.0969 11.7838 66.7121 11.8557 66.3253 11.8423C64.4553 11.8423 63.0412 10.3944 63.0412 8.47098C63.0412 6.54753 64.4547 5.09857 66.3235 5.09857C66.711 5.08529 67.0964 5.15783 67.4489 5.31039C67.8013 5.46294 68.1111 5.69128 68.3535 5.97715V5.27136H70.0302V11.6777L70.0308 11.6755Z" fill="white"/>
<path fill-rule="evenodd" clip-rule="evenodd" d="M71.8191 11.6852H73.4752V2.15562H71.8191V11.6852ZM75.4191 11.6852H77.0752V2.15562H75.4191V11.6852ZM30.8272 11.6852H32.4832V5.27562H30.8277L30.8272 11.6852ZM32.7166 3.10896C32.7147 3.30661 32.6509 3.49931 32.5334 3.66282C32.4158 3.82632 32.2496 3.95333 32.0558 4.02786C31.862 4.10239 31.6492 4.12112 31.4442 4.08168C31.2391 4.04224 31.051 3.94641 30.9035 3.80623C30.7559 3.66605 30.6556 3.48779 30.6151 3.29387C30.5745 3.09995 30.5956 2.89904 30.6757 2.71642C30.7557 2.53379 30.8911 2.3776 31.0649 2.2675C31.2387 2.15741 31.4431 2.09832 31.6523 2.09767C31.7928 2.09708 31.932 2.12289 32.0618 2.17358C32.1916 2.22427 32.3095 2.29883 32.4085 2.39294C32.5076 2.48704 32.5858 2.5988 32.6387 2.72172C32.6916 2.84465 32.7181 2.97628 32.7166 3.10896Z" fill="white"/>
</g>
<defs>
<clipPath id="clip0_103_1017">
<rect width="92" height="13" fill="white" transform="translate(0.200439 0.5)"/>
</clipPath>
</defs>
</svg>
