<svg width="36" height="12" viewBox="0 0 36 12" fill="none" xmlns="http://www.w3.org/2000/svg">
<path d="M15.9734 11.8H13.1174L14.9024 0.207148H17.7586L15.9734 11.8ZM10.7149 0.207148L7.99215 8.18079L7.66996 6.46376L7.67026 6.46438L6.70928 1.25095C6.70928 1.25095 6.59308 0.207148 5.35453 0.207148H0.853354L0.800537 0.403442C0.800537 0.403442 2.177 0.7061 3.78792 1.72851L6.26914 11.8003H9.24479L13.7885 0.207148H10.7149ZM33.1782 11.8H35.8005L33.5142 0.206838H31.2184C30.1582 0.206838 29.9 1.07078 29.9 1.07078L25.6406 11.8H28.6177L29.2131 10.078H32.8437L33.1782 11.8ZM30.0356 7.6992L31.5362 3.36088L32.3804 7.6992H30.0356ZM25.8639 2.99496L26.2715 0.505465C26.2715 0.505465 25.0139 0 23.7028 0C22.2856 0 18.92 0.654624 18.92 3.83782C18.92 6.83278 22.8701 6.86999 22.8701 8.44314C22.8701 10.0163 19.3269 9.7344 18.1576 8.74238L17.733 11.3454C17.733 11.3454 19.0083 12 20.9566 12C22.9056 12 25.8457 10.9336 25.8457 8.03101C25.8457 5.01682 21.8601 4.73618 21.8601 3.42569C21.8604 2.11489 24.6418 2.28328 25.8639 2.99496Z" fill="white"/>
</svg>
