<svg width="93" height="16" viewBox="0 0 93 16" fill="none" xmlns="http://www.w3.org/2000/svg">
<path d="M17.1726 7.16762C17.1622 6.84851 17.0118 6.68379 16.7197 6.67297H15.1596C14.7903 6.69559 14.5995 6.89817 14.5907 7.27923V10.0853C14.5995 10.4787 14.8105 10.6793 15.2205 10.6906H16.6504C16.7989 10.6906 16.9223 10.6355 17.0206 10.5229C17.1234 10.4384 17.1726 10.3297 17.1726 10.195V7.16762ZM12.5875 6.76934C12.5979 6.06721 12.7542 5.53372 13.0576 5.16888C13.2164 5.01596 13.415 4.88812 13.657 4.78241C13.9082 4.66981 14.1516 4.61523 14.3876 4.61523H17.2512C18.5144 4.62605 19.1566 5.31688 19.1767 6.6892V10.9128C19.1674 11.4001 18.9766 11.823 18.6078 12.1765C18.2425 12.5482 17.8064 12.7375 17.2984 12.7488H14.5907V15.7939H12.5875V6.76934Z" fill="white"/>
<path d="M22.7937 10.283C22.7937 10.4005 22.8478 10.4934 22.9535 10.5633C23.0479 10.6468 23.1669 10.6906 23.3173 10.6906H24.8559C25.2035 10.6906 25.3839 10.5559 25.3943 10.283V9.70869C25.3943 9.39499 25.2109 9.23666 24.8411 9.23666H23.3173C23.1167 9.23666 22.9781 9.2701 22.9009 9.33304C22.8296 9.40728 22.7937 9.5543 22.7937 9.77212V10.283ZM25.3943 7.11796C25.4046 6.81016 25.2251 6.66314 24.8554 6.67297H20.821V4.61523H25.3633C26.6864 4.63687 27.3581 5.27607 27.3807 6.53825V10.843C27.3694 11.3873 27.2027 11.8362 26.8792 12.1932C26.5409 12.563 26.1048 12.7488 25.5703 12.7488H22.8247C21.4882 12.7375 20.8107 12.1273 20.79 10.9143V9.25338C20.8004 7.98579 21.4479 7.34168 22.7298 7.31955H25.3943V7.11796Z" fill="white"/>
<path d="M33.0059 13.7357C33.1647 13.7258 33.3024 13.6688 33.414 13.5665C33.5212 13.4711 33.5753 13.3615 33.5753 13.2371V12.7488H31.0106C30.6763 12.7488 30.4088 12.7061 30.2091 12.621C29.9982 12.5438 29.7883 12.3997 29.5768 12.1952C29.3767 11.9783 29.2326 11.7517 29.1451 11.5147C29.0542 11.2978 29.0079 11.022 29.0079 10.6906V4.61523H31.0106V10.0386C31.0106 10.4733 31.1881 10.6906 31.5475 10.6906H32.9616C33.1298 10.6906 33.2758 10.6355 33.3983 10.5229C33.5163 10.4275 33.5753 10.3145 33.5753 10.1817V4.61523H35.5617V13.5778C35.5504 14.2411 35.3803 14.7722 35.0523 15.1748C34.7194 15.5775 34.2641 15.7836 33.6834 15.7939H29.0079V13.7357H33.0059Z" fill="white"/>
<path d="M37.1348 10.6906H40.704C41.0305 10.6793 41.2001 10.5485 41.2104 10.2977V10.1129C41.2104 10.0593 41.1942 9.99977 41.1627 9.93585C41.0831 9.78048 40.9852 9.70328 40.8687 9.70328H39.0991C38.574 9.69296 38.126 9.51201 37.7494 9.16291C37.3683 8.84036 37.1731 8.44356 37.1618 7.97793V6.44335C37.1825 5.24608 37.833 4.63687 39.1143 4.61523H43.2539V6.67297H39.7466C39.3351 6.67297 39.1276 6.79934 39.1276 7.05108V7.25022C39.1276 7.51131 39.3395 7.6421 39.7619 7.6421H41.5261C41.9961 7.65292 42.3969 7.83288 42.7307 8.18395C43.068 8.53748 43.2431 8.95787 43.2539 9.44613V10.9473C43.2431 11.3691 43.0479 11.79 42.6727 12.2099C42.4898 12.416 42.3025 12.5576 42.1151 12.6377C41.9214 12.7115 41.6583 12.7488 41.3225 12.7488H37.1348V10.6906Z" fill="white"/>
<path d="M46.6819 10.283C46.6819 10.4005 46.7359 10.4934 46.8441 10.5633C46.9375 10.6468 47.057 10.6906 47.2055 10.6906H48.747C49.0946 10.6906 49.2741 10.5559 49.2844 10.283V9.70869C49.2844 9.39499 49.0985 9.23666 48.7303 9.23666H47.2055C47.0054 9.23666 46.8672 9.2701 46.7905 9.33304C46.7192 9.40728 46.6819 9.5543 46.6819 9.77212V10.283ZM49.2844 7.11796C49.2932 6.81016 49.1138 6.66314 48.7435 6.67297H44.7102V4.61523H49.2539C50.5756 4.63687 51.2477 5.27607 51.2684 6.53825V10.843C51.2576 11.3873 51.0894 11.8362 50.7678 12.1932C50.432 12.563 49.9954 12.7488 49.4604 12.7488H46.7123C45.3769 12.7375 44.6989 12.1273 44.6802 10.9143V9.25338C44.689 7.98579 45.3361 7.34168 46.6189 7.31955H49.2844V7.11796Z" fill="white"/>
<path d="M52.8969 3.44894C52.9091 2.89333 53.1137 2.44736 53.5149 2.11301C53.9043 1.77325 54.4157 1.5987 55.048 1.58887H56.32V3.57678H55.5495C55.1262 3.58662 54.9103 3.7892 54.901 4.18058V4.61622H56.32V6.67593H54.901V12.7503H52.8969V3.44894Z" fill="white"/>
<path d="M62.0165 7.0796V7.03191C62.0165 6.9262 61.9738 6.83621 61.8877 6.76934C61.7943 6.70444 61.6802 6.67297 61.543 6.67297H60.1486C59.9696 6.67297 59.8255 6.72313 59.7139 6.82589C59.5753 6.92079 59.505 7.04568 59.505 7.19958V8.02562L62.0165 7.0796ZM59.5369 9.98846V10.1168C59.5369 10.2815 59.5797 10.4123 59.6667 10.5072C59.7297 10.6286 59.8142 10.6906 59.9268 10.6906H64.0418V12.7488H59.6667C59.2675 12.7488 58.9562 12.7115 58.7364 12.6367C58.496 12.5576 58.2802 12.4282 58.0918 12.2483C57.8716 12.0305 57.7216 11.8087 57.6464 11.5806C57.5638 11.3426 57.5229 11.0269 57.5229 10.6336L57.5057 6.51465C57.5279 5.27017 58.1779 4.63687 59.4553 4.61523H62.1557C63.4031 4.63687 64.0349 5.2923 64.0551 6.58496V8.21197L59.5369 9.98846Z" fill="white"/>
<path d="M68.2962 12.7492C67.9928 12.7492 67.716 12.7212 67.4647 12.67C67.2017 12.6273 66.9396 12.5053 66.6716 12.2993C66.3968 12.0598 66.2065 11.7914 66.1023 11.4949C65.9921 11.2033 65.939 10.8729 65.939 10.5012V6.66056C65.9277 6.34735 65.9592 6.07249 66.0324 5.83402C66.0998 5.59604 66.2414 5.36298 66.4553 5.13483C66.6992 4.89538 66.948 4.73607 67.2105 4.65789C67.4633 4.59446 67.748 4.5625 68.0671 4.5625H71.1372V5.04387H68.1384C67.6088 5.04387 67.1928 5.15253 66.8885 5.37035C66.5772 5.60784 66.4184 6.01742 66.4184 6.59467V10.4377C66.4184 10.7082 66.4597 10.9712 66.5418 11.2249C66.6259 11.4742 66.766 11.693 66.9671 11.8843C67.1855 12.05 67.4028 12.1533 67.6147 12.1956C67.8355 12.2442 68.0725 12.2673 68.3237 12.2673H71.1854V12.7492H68.2962Z" fill="white"/>
<path d="M79.0331 7.76638H75.0081C74.5263 7.77719 74.1487 7.92618 73.8767 8.21333C73.5955 8.5049 73.4564 8.90465 73.4564 9.41257V10.6384C73.4564 10.8758 73.4809 11.0932 73.5321 11.2889C73.5827 11.4949 73.7091 11.6788 73.9087 11.8366C74.2563 12.1247 74.6413 12.2673 75.0622 12.2673H77.501C78.5203 12.2565 79.0331 11.7196 79.0331 10.6536V7.76638ZM79.5116 10.5336C79.5116 10.8429 79.488 11.1143 79.4481 11.3533C79.3832 11.6129 79.25 11.8632 79.0479 12.1011C78.6275 12.5442 78.1063 12.76 77.4843 12.7492H75.0912C74.4692 12.7492 73.9653 12.5633 73.5748 12.1936C73.1761 11.8283 72.974 11.3203 72.974 10.6688V9.43076C72.9942 8.03386 73.6899 7.31844 75.0607 7.28599H79.0479V6.74415C79.0479 6.29769 78.9186 5.90679 78.6614 5.57047C78.4982 5.35216 78.3049 5.20613 78.0856 5.1309C77.8639 5.07288 77.6151 5.04387 77.3378 5.04387H72.9883V4.5625H77.1116C77.4887 4.5625 77.8295 4.58905 78.1383 4.64117C78.2971 4.67264 78.4411 4.73459 78.5744 4.82408C78.7155 4.90914 78.8473 5.03354 78.9692 5.19679C79.339 5.67373 79.5194 6.22393 79.5116 6.84347V10.5336Z" fill="white"/>
<path d="M84.0118 5.04387C82.8957 5.06452 82.3455 5.67373 82.3661 6.87248V12.7492H81.8867V6.87444C81.8641 5.33249 82.5982 4.5625 84.089 4.5625H84.622V5.04387H84.0118Z" fill="white"/>
<path d="M92.1212 5.04618H88.3273C88.0539 5.04618 87.809 5.07666 87.5882 5.13468C87.3572 5.1868 87.1339 5.32694 86.925 5.55508C86.7248 5.76307 86.599 5.96909 86.5463 6.17511C86.476 6.38309 86.4441 6.63238 86.4554 6.92297V10.6697C86.4554 11.2927 86.6358 11.7165 87.0017 11.9441C87.1821 12.0499 87.3803 12.129 87.6025 12.1821C87.8238 12.2411 88.0706 12.2701 88.3425 12.2701H90.0015C90.621 12.2701 91.1279 12.1276 91.5174 11.8399C91.9088 11.57 92.1079 11.1043 92.1212 10.4405V5.04618ZM92.6001 10.4735C92.5578 12.0243 91.7372 12.7845 90.1387 12.7525H88.3602C87.9846 12.7525 87.6487 12.7196 87.3517 12.6571C87.0459 12.5779 86.7534 12.3916 86.4716 12.101C86.2597 11.8399 86.1235 11.5759 86.0689 11.3054C85.9957 11.0355 85.9637 10.7351 85.975 10.4071V6.91068C85.9957 5.33579 86.7888 4.55301 88.3563 4.56481H92.1212V1.91016H92.6001V10.4735Z" fill="white"/>
<path d="M1.46118 4.30629C1.61852 4.23697 1.77586 4.18288 1.9332 4.14895C2.22232 2.76828 3.44516 1.73277 4.9109 1.73277C6.37762 1.73277 7.60096 2.76975 7.88958 4.14994C8.33948 4.23549 8.71169 4.41742 9.00179 4.68834C9.01359 4.42332 9.00277 4.16813 8.97131 3.92769C8.78594 1.84193 7.03698 0.205078 4.90451 0.205078C2.7091 0.205078 0.921789 1.94518 0.828859 4.12043C0.816075 4.30826 0.812142 4.50396 0.819026 4.7085C1.00341 4.55312 1.21386 4.41348 1.46118 4.30629Z" fill="white"/>
<path d="M7.29425 4.61523H2.4019C2.16638 4.61523 1.9225 4.66981 1.67124 4.78241C1.42884 4.88812 1.23019 5.01596 1.07089 5.16888C0.767511 5.53372 0.612135 6.06721 0.601318 6.76934V10.5937C0.612135 11.2974 0.767511 11.8303 1.07089 12.1932C1.23019 12.3486 1.42884 12.4764 1.67124 12.5831C1.9225 12.6933 2.16638 12.7488 2.4019 12.7488H7.29425C8.55791 12.7375 9.20055 12.0442 9.22071 10.6739V6.6892C9.20055 5.31688 8.55791 4.62605 7.29425 4.61523Z" fill="white"/>
</svg>
