<svg width="53" height="14" viewBox="0 0 53 14" fill="none" xmlns="http://www.w3.org/2000/svg">
<path d="M18.248 2.93164C18.1428 2.93164 18.0535 3.00806 18.0371 3.11213L16.82 10.8398C16.8156 10.868 16.8173 10.8968 16.8251 10.9243C16.8329 10.9518 16.8465 10.9773 16.8651 10.999C16.8836 11.0207 16.9066 11.0382 16.9326 11.0501C16.9585 11.0621 16.9867 11.0683 17.0152 11.0683H18.4586C18.5636 11.0683 18.653 10.9917 18.6695 10.8878L19.027 8.61851C19.0433 8.5146 19.1327 8.43803 19.2379 8.43803H20.5501C22.0834 8.43803 23.385 7.31796 23.6227 5.80022C23.8624 4.26965 22.6681 2.93496 20.9754 2.93164H18.248ZM19.6511 4.65675H20.701C21.5654 4.65675 21.8469 5.16739 21.7579 5.73211C21.6689 6.29803 21.2317 6.71488 20.3955 6.71488H19.3269L19.6511 4.65675ZM26.5583 5.18204C26.1938 5.1834 25.7745 5.25816 25.3037 5.45451C24.2237 5.90519 23.7051 6.83662 23.4848 7.51567C23.4848 7.51567 22.7838 9.5874 24.3676 10.7256C24.3676 10.7256 25.8365 11.8213 27.49 10.6581L27.4614 10.8398C27.457 10.868 27.4588 10.8968 27.4665 10.9243C27.4743 10.9517 27.4879 10.9772 27.5064 10.9989C27.5249 11.0206 27.5479 11.0381 27.5738 11.05C27.5997 11.062 27.6278 11.0682 27.6563 11.0683H29.0265C29.1317 11.0683 29.221 10.9917 29.2374 10.8878L30.0709 5.59588C30.0754 5.56765 30.0737 5.53879 30.0659 5.51128C30.0582 5.48378 30.0446 5.45827 30.0261 5.43653C30.0075 5.41478 29.9845 5.39732 29.9586 5.38532C29.9327 5.37333 29.9045 5.3671 29.876 5.36706H28.5058C28.4007 5.36706 28.3112 5.44363 28.2949 5.54754L28.2501 5.83239C28.2501 5.83239 27.6518 5.17797 26.5583 5.18204ZM26.6031 6.85353C26.7604 6.85353 26.9043 6.87528 27.0335 6.91682C27.6247 7.10682 27.9599 7.67546 27.8629 8.29183C27.7432 9.05077 27.1216 9.6096 26.3243 9.6096C26.1671 9.6096 26.0232 9.588 25.8939 9.54646C25.3029 9.35646 24.9656 8.78782 25.0626 8.17145C25.1822 7.41251 25.8058 6.85353 26.6031 6.85353Z" fill="white"/>
<path d="M37.9788 2.93164C37.8737 2.93164 37.7844 3.00806 37.7679 3.11213L36.5508 10.8398C36.5464 10.868 36.5482 10.8968 36.5559 10.9243C36.5637 10.9518 36.5774 10.9773 36.5959 10.999C36.6144 11.0207 36.6375 11.0382 36.6634 11.0501C36.6893 11.0621 36.7175 11.0683 36.7461 11.0683H38.1894C38.2944 11.0683 38.3839 10.9917 38.4003 10.8878L38.7578 8.61851C38.7741 8.5146 38.8636 8.43803 38.9687 8.43803H40.281C41.8142 8.43803 43.1156 7.31796 43.3532 5.80022C43.5931 4.26965 42.3989 2.93496 40.7062 2.93164H37.9788ZM39.3819 4.65675H40.4318C41.2962 4.65675 41.5777 5.16739 41.4887 5.73211C41.3997 6.29803 40.9627 6.71488 40.1264 6.71488H39.0577L39.3819 4.65675ZM46.289 5.18204C45.9245 5.1834 45.5051 5.25816 45.0343 5.45451C43.9544 5.90519 43.4357 6.83662 43.2155 7.51567C43.2155 7.51567 42.5148 9.5874 44.0986 10.7256C44.0986 10.7256 45.5671 11.8213 47.2208 10.6581L47.1923 10.8398C47.1879 10.868 47.1896 10.8968 47.1974 10.9243C47.2051 10.9518 47.2188 10.9773 47.2373 10.999C47.2559 11.0207 47.2789 11.0382 47.3048 11.0501C47.3307 11.0621 47.3589 11.0683 47.3875 11.0683H48.7575C48.8627 11.0683 48.952 10.9917 48.9684 10.8878L49.8022 5.59588C49.8066 5.56763 49.8049 5.53874 49.7972 5.51121C49.7894 5.48368 49.7758 5.45816 49.7573 5.43641C49.7387 5.41466 49.7157 5.3972 49.6897 5.38523C49.6638 5.37326 49.6355 5.36706 49.607 5.36706H48.2368C48.1316 5.36706 48.0422 5.44363 48.0259 5.54754L47.9811 5.83239C47.9811 5.83239 47.3825 5.17797 46.289 5.18204ZM46.3338 6.85353C46.4911 6.85353 46.635 6.87528 46.7642 6.91682C47.3554 7.10682 47.6905 7.67546 47.5935 8.29183C47.4739 9.05077 46.8523 9.6096 46.055 9.6096C45.8978 9.6096 45.7539 9.588 45.6246 9.54646C45.0336 9.35646 44.6963 8.78782 44.7933 8.17145C44.9129 7.41251 45.5365 6.85353 46.3338 6.85353Z" fill="white"/>
<path d="M30.721 5.36734C30.6124 5.36734 30.5351 5.47352 30.5683 5.57697L32.0705 10.2441L30.7122 12.4434C30.6463 12.5502 30.7229 12.6881 30.8483 12.6881H32.4537C32.4996 12.6881 32.5447 12.6762 32.5847 12.6536C32.6247 12.631 32.6582 12.5984 32.6819 12.5591L36.8773 5.6105C36.9417 5.50372 36.8647 5.36719 36.7401 5.36719H35.1349C35.0886 5.36723 35.043 5.37935 35.0028 5.40236C34.9625 5.42538 34.9289 5.45849 34.9053 5.49844L33.2539 8.28984L32.4157 5.51913C32.3884 5.42896 32.3052 5.36719 32.2113 5.36719L30.721 5.36734Z" fill="white"/>
<path d="M51.3593 2.93164C51.2543 2.93164 51.1648 3.00821 51.1484 3.11213L49.931 10.8395C49.9266 10.8677 49.9283 10.8966 49.936 10.9241C49.9438 10.9517 49.9574 10.9772 49.9759 10.9989C49.9945 11.0207 50.0175 11.0381 50.0435 11.0501C50.0694 11.0621 50.0977 11.0683 50.1262 11.0683H51.5696C51.6746 11.0683 51.764 10.9917 51.7805 10.8878L52.9975 3.16015C53.002 3.13195 53.0002 3.10313 52.9925 3.07566C52.9847 3.04818 52.9711 3.02272 52.9526 3.00101C52.9341 2.9793 52.9111 2.96186 52.8852 2.94989C52.8593 2.93791 52.8312 2.93169 52.8026 2.93164H51.3593Z" fill="white"/>
<g clip-path="url(#clip0_103_1040)">
<path d="M12.6921 5.70862C12.6921 6.01786 12.6546 6.33402 12.5946 6.6473C12.1059 9.19678 10.4334 10.0778 8.29699 10.0778H7.96698C7.70563 10.0778 7.48351 10.2705 7.44312 10.533L6.97984 13.4696C6.93888 13.7309 6.71676 13.9236 6.45598 13.9236H4.87749C4.65248 13.9236 4.48055 13.7228 4.51517 13.5013L5.3148 8.37811L5.35057 8.3458H6.59387C9.61413 8.3458 11.503 6.83538 12.0592 3.97954C12.5277 4.44917 12.6921 5.06188 12.6921 5.70862ZM4.49036 8.16175C4.55729 7.6852 4.75517 7.4827 5.28942 7.48155L6.59329 7.48039C9.2322 7.48039 10.7461 6.2746 11.2221 3.79377C11.6836 1.40872 10.0093 0.0771484 7.74255 0.0771484H3.50553C3.20726 0.0771484 2.95283 0.297538 2.90667 0.596968C1.57741 9.15582 1.19317 11.332 1.15394 11.9961C1.14182 12.2049 1.30914 12.3838 1.52029 12.3838H3.82169L4.49036 8.16175Z" fill="white"/>
</g>
<defs>
<clipPath id="clip0_103_1040">
<rect width="13.8465" height="13.8465" fill="white" transform="translate(0.000976562 0.0771484)"/>
</clipPath>
</defs>
</svg>
