<?xml version="1.0" encoding="UTF-8"?>
<svg xmlns="http://www.w3.org/2000/svg" xmlns:xlink="http://www.w3.org/1999/xlink" width="400px" height="269px" viewBox="0 0 400 269" version="1.1">
<defs>
<linearGradient id="linear0" gradientUnits="userSpaceOnUse" x1="241.264999" y1="233.889999" x2="193.770004" y2="355.941986" gradientTransform="matrix(0.5,0,0,0.500931,0,0)">
<stop offset="0" style="stop-color:rgb(20.784314%,25.098039%,39.607843%);stop-opacity:1;"/>
<stop offset="0.652971" style="stop-color:rgb(38.823529%,43.529412%,60%);stop-opacity:1;"/>
</linearGradient>
<linearGradient id="linear1" gradientUnits="userSpaceOnUse" x1="209.294998" y1="229.473007" x2="357.179993" y2="229.473007" gradientTransform="matrix(0.5,0,0,0.500931,0,0)">
<stop offset="0.51" style="stop-color:rgb(38.823529%,43.529412%,60%);stop-opacity:1;"/>
<stop offset="0.875" style="stop-color:rgb(24.705882%,29.411765%,45.882353%);stop-opacity:1;"/>
</linearGradient>
<linearGradient id="linear2" gradientUnits="userSpaceOnUse" x1="283.089996" y1="196.113998" x2="283.089996" y2="266.899994" gradientTransform="matrix(0.5,0,0,0.500931,0,0)">
<stop offset="0" style="stop-color:rgb(61.176471%,79.215686%,100%);stop-opacity:1;"/>
<stop offset="1" style="stop-color:rgb(7.843137%,50.980392%,100%);stop-opacity:1;"/>
</linearGradient>
<linearGradient id="linear3" gradientUnits="userSpaceOnUse" x1="209.026001" y1="196.475006" x2="357.164001" y2="196.475006" gradientTransform="matrix(0.5,0,0,0.500931,0,0)">
<stop offset="0" style="stop-color:rgb(7.843137%,50.980392%,100%);stop-opacity:1;"/>
<stop offset="1" style="stop-color:rgb(31.764706%,63.921569%,100%);stop-opacity:1;"/>
</linearGradient>
<linearGradient id="linear4" gradientUnits="userSpaceOnUse" x1="332.773987" y1="125.334999" x2="248" y2="125.334999" gradientTransform="matrix(0.5,0,0,0.500931,0,0)">
<stop offset="0.065" style="stop-color:rgb(56.470588%,67.058824%,87.45098%);stop-opacity:1;"/>
<stop offset="0.415" style="stop-color:rgb(59.215686%,70.588235%,92.941176%);stop-opacity:1;"/>
<stop offset="1" style="stop-color:rgb(67.058824%,71.764706%,87.843137%);stop-opacity:1;"/>
</linearGradient>
<linearGradient id="linear5" gradientUnits="userSpaceOnUse" x1="246.832993" y1="148.990997" x2="376.329987" y2="74.225098" gradientTransform="matrix(0.5,0,0,0.500931,0,0)">
<stop offset="0" style="stop-color:rgb(33.72549%,48.627451%,78.039216%);stop-opacity:1;"/>
<stop offset="0.36" style="stop-color:rgb(36.470588%,58.039216%,100%);stop-opacity:1;"/>
<stop offset="0.73" style="stop-color:rgb(47.45098%,63.529412%,94.901961%);stop-opacity:1;"/>
</linearGradient>
<linearGradient id="linear6" gradientUnits="userSpaceOnUse" x1="215.042007" y1="17.809799" x2="323.35199" y2="205.406006" gradientTransform="matrix(0.5,0,0,0.500931,0,0)">
<stop offset="0" style="stop-color:rgb(20.392157%,40.784314%,80.392157%);stop-opacity:1;"/>
<stop offset="0.36" style="stop-color:rgb(20.784314%,43.921569%,88.627451%);stop-opacity:1;"/>
<stop offset="1" style="stop-color:rgb(32.156863%,37.647059%,56.862745%);stop-opacity:1;"/>
</linearGradient>
<linearGradient id="linear7" gradientUnits="userSpaceOnUse" x1="161.264999" y1="281.834991" x2="113.769997" y2="403.886993" gradientTransform="matrix(0.5,0,0,0.500931,0,0)">
<stop offset="0" style="stop-color:rgb(20.784314%,25.098039%,39.607843%);stop-opacity:1;"/>
<stop offset="0.652971" style="stop-color:rgb(38.823529%,43.529412%,60%);stop-opacity:1;"/>
</linearGradient>
<linearGradient id="linear8" gradientUnits="userSpaceOnUse" x1="129.294998" y1="277.419006" x2="277.179993" y2="277.419006" gradientTransform="matrix(0.5,0,0,0.500931,0,0)">
<stop offset="0.51" style="stop-color:rgb(38.823529%,43.529412%,60%);stop-opacity:1;"/>
<stop offset="0.875" style="stop-color:rgb(24.705882%,29.411765%,45.882353%);stop-opacity:1;"/>
</linearGradient>
<linearGradient id="linear9" gradientUnits="userSpaceOnUse" x1="203.848007" y1="242.113998" x2="203.848007" y2="312.899994" gradientTransform="matrix(0.5,0,0,0.500931,0,0)">
<stop offset="0" style="stop-color:rgb(61.176471%,79.215686%,100%);stop-opacity:1;"/>
<stop offset="1" style="stop-color:rgb(7.843137%,50.980392%,100%);stop-opacity:1;"/>
</linearGradient>
<linearGradient id="linear10" gradientUnits="userSpaceOnUse" x1="129.783997" y1="242.475006" x2="277.921997" y2="242.475006" gradientTransform="matrix(0.5,0,0,0.500931,0,0)">
<stop offset="0" style="stop-color:rgb(7.843137%,50.980392%,100%);stop-opacity:1;"/>
<stop offset="1" style="stop-color:rgb(31.764706%,63.921569%,100%);stop-opacity:1;"/>
</linearGradient>
<linearGradient id="linear11" gradientUnits="userSpaceOnUse" x1="242.656006" y1="121.489998" x2="165" y2="121.489998" gradientTransform="matrix(0.5,0,0,0.500931,0,0)">
<stop offset="0.065" style="stop-color:rgb(56.470588%,67.058824%,87.45098%);stop-opacity:1;"/>
<stop offset="0.415" style="stop-color:rgb(59.215686%,70.588235%,92.941176%);stop-opacity:1;"/>
<stop offset="1" style="stop-color:rgb(67.058824%,71.764706%,87.843137%);stop-opacity:1;"/>
</linearGradient>
<linearGradient id="linear12" gradientUnits="userSpaceOnUse" x1="163.931" y1="192.843994" x2="287.526001" y2="127.476997" gradientTransform="matrix(0.5,0,0,0.500931,0,0)">
<stop offset="0" style="stop-color:rgb(33.72549%,48.627451%,78.039216%);stop-opacity:1;"/>
<stop offset="0.36" style="stop-color:rgb(36.470588%,58.039216%,100%);stop-opacity:1;"/>
<stop offset="0.73" style="stop-color:rgb(47.45098%,63.529412%,94.901961%);stop-opacity:1;"/>
</linearGradient>
<linearGradient id="linear13" gradientUnits="userSpaceOnUse" x1="134.809006" y1="61.662498" x2="247.639008" y2="240.677994" gradientTransform="matrix(0.5,0,0,0.500931,0,0)">
<stop offset="0" style="stop-color:rgb(20.392157%,40.784314%,80.392157%);stop-opacity:1;"/>
<stop offset="0.36" style="stop-color:rgb(20.784314%,43.921569%,88.627451%);stop-opacity:1;"/>
<stop offset="1" style="stop-color:rgb(32.156863%,37.647059%,56.862745%);stop-opacity:1;"/>
</linearGradient>
<linearGradient id="linear14" gradientUnits="userSpaceOnUse" x1="79.2649" y1="326.453003" x2="31.769899" y2="448.503998" gradientTransform="matrix(0.5,0,0,0.500931,0,0)">
<stop offset="0" style="stop-color:rgb(20.784314%,25.098039%,39.607843%);stop-opacity:1;"/>
<stop offset="0.652971" style="stop-color:rgb(38.823529%,43.529412%,60%);stop-opacity:1;"/>
</linearGradient>
<linearGradient id="linear15" gradientUnits="userSpaceOnUse" x1="47.294899" y1="322.036011" x2="195.179993" y2="322.036011" gradientTransform="matrix(0.5,0,0,0.500931,0,0)">
<stop offset="0.51" style="stop-color:rgb(38.823529%,43.529412%,60%);stop-opacity:1;"/>
<stop offset="0.875" style="stop-color:rgb(24.705882%,29.411765%,45.882353%);stop-opacity:1;"/>
</linearGradient>
<linearGradient id="linear16" gradientUnits="userSpaceOnUse" x1="121.089996" y1="286.114014" x2="121.089996" y2="356.899994" gradientTransform="matrix(0.5,0,0,0.500931,0,0)">
<stop offset="0" style="stop-color:rgb(61.176471%,79.215686%,100%);stop-opacity:1;"/>
<stop offset="1" style="stop-color:rgb(7.843137%,50.980392%,100%);stop-opacity:1;"/>
</linearGradient>
<linearGradient id="linear17" gradientUnits="userSpaceOnUse" x1="47.026199" y1="286.475006" x2="195.164001" y2="286.475006" gradientTransform="matrix(0.5,0,0,0.500931,0,0)">
<stop offset="0" style="stop-color:rgb(7.843137%,50.980392%,100%);stop-opacity:1;"/>
<stop offset="1" style="stop-color:rgb(31.764706%,63.921569%,100%);stop-opacity:1;"/>
</linearGradient>
<linearGradient id="linear18" gradientUnits="userSpaceOnUse" x1="310.941986" y1="430.390991" x2="310.941986" y2="501.178009" gradientTransform="matrix(0.5,0,0,0.500931,0,0)">
<stop offset="0" style="stop-color:rgb(61.176471%,79.215686%,100%);stop-opacity:1;"/>
<stop offset="1" style="stop-color:rgb(7.843137%,50.980392%,100%);stop-opacity:1;"/>
</linearGradient>
<linearGradient id="linear19" gradientUnits="userSpaceOnUse" x1="236.878006" y1="430.752014" x2="385.015991" y2="430.752014" gradientTransform="matrix(0.5,0,0,0.500931,0,0)">
<stop offset="0" style="stop-color:rgb(7.843137%,50.980392%,100%);stop-opacity:1;"/>
<stop offset="1" style="stop-color:rgb(31.764706%,63.921569%,100%);stop-opacity:1;"/>
</linearGradient>
<linearGradient id="linear20" gradientUnits="userSpaceOnUse" x1="512.429016" y1="460.058014" x2="464.93399" y2="582.109985" gradientTransform="matrix(0.5,0,0,0.500931,0,0)">
<stop offset="0" style="stop-color:rgb(20.784314%,25.098039%,39.607843%);stop-opacity:1;"/>
<stop offset="0.652971" style="stop-color:rgb(38.823529%,43.529412%,60%);stop-opacity:1;"/>
</linearGradient>
<linearGradient id="linear21" gradientUnits="userSpaceOnUse" x1="480.459015" y1="455.640991" x2="628.343994" y2="455.640991" gradientTransform="matrix(0.5,0,0,0.500931,0,0)">
<stop offset="0.51" style="stop-color:rgb(38.823529%,43.529412%,60%);stop-opacity:1;"/>
<stop offset="0.875" style="stop-color:rgb(24.705882%,29.411765%,45.882353%);stop-opacity:1;"/>
</linearGradient>
<linearGradient id="linear22" gradientUnits="userSpaceOnUse" x1="554.254028" y1="416.804993" x2="554.254028" y2="487.59201" gradientTransform="matrix(0.5,0,0,0.500931,0,0)">
<stop offset="0" style="stop-color:rgb(61.176471%,79.215686%,100%);stop-opacity:1;"/>
<stop offset="1" style="stop-color:rgb(7.843137%,50.980392%,100%);stop-opacity:1;"/>
</linearGradient>
<linearGradient id="linear23" gradientUnits="userSpaceOnUse" x1="480.190002" y1="417.165985" x2="628.328003" y2="417.165985" gradientTransform="matrix(0.5,0,0,0.500931,0,0)">
<stop offset="0" style="stop-color:rgb(7.843137%,50.980392%,100%);stop-opacity:1;"/>
<stop offset="1" style="stop-color:rgb(31.764706%,63.921569%,100%);stop-opacity:1;"/>
</linearGradient>
<linearGradient id="linear24" gradientUnits="userSpaceOnUse" x1="717.916016" y1="296.506989" x2="448.255005" y2="296.506989" gradientTransform="matrix(0.5,0,0,0.500931,0,0)">
<stop offset="0.01" style="stop-color:rgb(24.705882%,29.411765%,45.882353%);stop-opacity:1;"/>
<stop offset="1" style="stop-color:rgb(38.039216%,50.588235%,88.627451%);stop-opacity:1;"/>
</linearGradient>
<clipPath id="clip1">
  <path d="M 268 87 L 306 87 L 306 131 L 268 131 Z M 268 87 "/>
</clipPath>
<clipPath id="clip2">
  <path d="M 264.398438 72.5625 L 309.546875 98.675781 L 309.546875 150.902344 L 264.398438 124.789062 Z M 264.398438 72.5625 "/>
</clipPath>
<linearGradient id="linear25" gradientUnits="userSpaceOnUse" x1="33.152802" y1="0" x2="33.152802" y2="66.305603" gradientTransform="matrix(0.433012,-0.250466,0.433012,0.250466,126.839996,209.812487)">
<stop offset="0" style="stop-color:rgb(20.392157%,41.568627%,96.470588%);stop-opacity:1;"/>
<stop offset="1" style="stop-color:rgb(7.843137%,50.980392%,100%);stop-opacity:1;"/>
</linearGradient>
<linearGradient id="linear26" gradientUnits="userSpaceOnUse" x1="160.490997" y1="103.944" x2="82.835899" y2="103.944" gradientTransform="matrix(0.5,0,0,0.500931,0,0)">
<stop offset="0.065" style="stop-color:rgb(56.470588%,67.058824%,87.45098%);stop-opacity:1;"/>
<stop offset="0.415" style="stop-color:rgb(59.215686%,70.588235%,92.941176%);stop-opacity:1;"/>
<stop offset="1" style="stop-color:rgb(67.058824%,71.764706%,87.843137%);stop-opacity:1;"/>
</linearGradient>
<linearGradient id="linear27" gradientUnits="userSpaceOnUse" x1="81.766602" y1="241.348007" x2="200.307007" y2="172.811996" gradientTransform="matrix(0.5,0,0,0.500931,0,0)">
<stop offset="0" style="stop-color:rgb(33.72549%,48.627451%,78.039216%);stop-opacity:1;"/>
<stop offset="0.36" style="stop-color:rgb(36.470588%,58.039216%,100%);stop-opacity:1;"/>
<stop offset="0.73" style="stop-color:rgb(47.45098%,63.529412%,94.901961%);stop-opacity:1;"/>
</linearGradient>
<linearGradient id="linear28" gradientUnits="userSpaceOnUse" x1="52.645302" y1="121.351997" x2="151.649994" y2="293.075012" gradientTransform="matrix(0.5,0,0,0.500931,0,0)">
<stop offset="0" style="stop-color:rgb(20.392157%,40.784314%,80.392157%);stop-opacity:1;"/>
<stop offset="0.36" style="stop-color:rgb(20.784314%,43.921569%,88.627451%);stop-opacity:1;"/>
<stop offset="1" style="stop-color:rgb(32.156863%,37.647059%,56.862745%);stop-opacity:1;"/>
</linearGradient>
<linearGradient id="linear29" gradientUnits="userSpaceOnUse" x1="536.593994" y1="326.259003" x2="675.059021" y2="326.259003" gradientTransform="matrix(0.5,0,0,0.500931,0,0)">
<stop offset="0" style="stop-color:rgb(7.843137%,50.980392%,100%);stop-opacity:1;"/>
<stop offset="0.09" style="stop-color:rgb(23.921569%,49.803922%,100%);stop-opacity:1;"/>
<stop offset="0.19" style="stop-color:rgb(45.098039%,61.568627%,93.72549%);stop-opacity:1;"/>
<stop offset="0.27" style="stop-color:rgb(93.72549%,93.72549%,93.72549%);stop-opacity:1;"/>
<stop offset="0.32" style="stop-color:rgb(43.529412%,62.745098%,99.607843%);stop-opacity:1;"/>
</linearGradient>
<linearGradient id="linear30" gradientUnits="userSpaceOnUse" x1="542.463989" y1="329.665009" x2="680.929016" y2="329.665009" gradientTransform="matrix(0.5,0,0,0.500931,0,0)">
<stop offset="0.08" style="stop-color:rgb(59.607843%,72.156863%,96.470588%);stop-opacity:1;"/>
<stop offset="0.43" style="stop-color:rgb(35.294118%,59.607843%,87.843137%);stop-opacity:1;"/>
<stop offset="0.67" style="stop-color:rgb(40.784314%,58.431373%,92.156863%);stop-opacity:1;"/>
<stop offset="1" style="stop-color:rgb(23.921569%,49.803922%,100%);stop-opacity:1;"/>
</linearGradient>
<linearGradient id="linear31" gradientUnits="userSpaceOnUse" x1="536.593994" y1="365.358002" x2="605.625977" y2="365.358002" gradientTransform="matrix(0.5,0,0,0.500931,0,0)">
<stop offset="0" style="stop-color:rgb(28.627451%,47.843137%,85.098039%);stop-opacity:1;"/>
<stop offset="0.29" style="stop-color:rgb(27.45098%,56.862745%,89.803922%);stop-opacity:1;"/>
<stop offset="0.73" style="stop-color:rgb(49.411765%,71.764706%,97.254902%);stop-opacity:1;"/>
<stop offset="1" style="stop-color:rgb(26.27451%,60.784314%,100%);stop-opacity:1;"/>
</linearGradient>
<linearGradient id="linear32" gradientUnits="userSpaceOnUse" x1="639.031006" y1="240.619003" x2="680.929016" y2="240.619003" gradientTransform="matrix(0.5,0,0,0.500931,0,0)">
<stop offset="0" style="stop-color:rgb(27.843137%,53.333333%,98.431373%);stop-opacity:1;"/>
<stop offset="0.0001" style="stop-color:rgb(42.745098%,66.27451%,92.941176%);stop-opacity:1;"/>
<stop offset="0.955" style="stop-color:rgb(47.45098%,64.705882%,98.039216%);stop-opacity:1;"/>
<stop offset="0.9551" style="stop-color:rgb(36.862745%,64.705882%,96.078431%);stop-opacity:1;"/>
</linearGradient>
<linearGradient id="linear33" gradientUnits="userSpaceOnUse" x1="296.769989" y1="308.011993" x2="456.424011" y2="312.325989" gradientTransform="matrix(0.5,0,0,0.500931,0,0)">
<stop offset="0" style="stop-color:rgb(100%,100%,100%);stop-opacity:1;"/>
<stop offset="1" style="stop-color:rgb(79.215686%,79.607843%,80.784314%);stop-opacity:1;"/>
</linearGradient>
<linearGradient id="linear34" gradientUnits="userSpaceOnUse" x1="412.243988" y1="290.265991" x2="231.063004" y2="334.302002" gradientTransform="matrix(0.5,0,0,0.500931,0,0)">
<stop offset="0" style="stop-color:rgb(100%,100%,100%);stop-opacity:1;"/>
<stop offset="1" style="stop-color:rgb(70.588235%,70.588235%,71.372549%);stop-opacity:1;"/>
</linearGradient>
<linearGradient id="linear35" gradientUnits="userSpaceOnUse" x1="283.170013" y1="284.487" x2="442.824005" y2="288.808014" gradientTransform="matrix(0.5,0,0,0.500931,0,0)">
<stop offset="0" style="stop-color:rgb(100%,100%,100%);stop-opacity:1;"/>
<stop offset="1" style="stop-color:rgb(45.490196%,46.666667%,49.411765%);stop-opacity:1;"/>
</linearGradient>
<linearGradient id="linear36" gradientUnits="userSpaceOnUse" x1="398.652008" y1="266.744995" x2="217.462997" y2="310.781006" gradientTransform="matrix(0.5,0,0,0.500931,0,0)">
<stop offset="0" style="stop-color:rgb(100%,100%,100%);stop-opacity:1;"/>
<stop offset="1" style="stop-color:rgb(58.823529%,61.568627%,69.411765%);stop-opacity:1;"/>
</linearGradient>
<linearGradient id="linear37" gradientUnits="userSpaceOnUse" x1="269.553009" y1="260.859009" x2="429.207001" y2="265.171997" gradientTransform="matrix(0.5,0,0,0.500931,0,0)">
<stop offset="0" style="stop-color:rgb(100%,100%,100%);stop-opacity:1;"/>
<stop offset="1" style="stop-color:rgb(79.215686%,79.607843%,80.784314%);stop-opacity:1;"/>
</linearGradient>
<linearGradient id="linear38" gradientUnits="userSpaceOnUse" x1="385.020996" y1="243.110001" x2="203.839996" y2="287.144989" gradientTransform="matrix(0.5,0,0,0.500931,0,0)">
<stop offset="0" style="stop-color:rgb(100%,100%,100%);stop-opacity:1;"/>
<stop offset="1" style="stop-color:rgb(58.823529%,61.568627%,69.411765%);stop-opacity:1;"/>
</linearGradient>
<linearGradient id="linear39" gradientUnits="userSpaceOnUse" x1="255.955002" y1="237.341995" x2="415.609009" y2="241.654999" gradientTransform="matrix(0.5,0,0,0.500931,0,0)">
<stop offset="0" style="stop-color:rgb(100%,100%,100%);stop-opacity:1;"/>
<stop offset="1" style="stop-color:rgb(79.215686%,79.607843%,80.784314%);stop-opacity:1;"/>
</linearGradient>
<linearGradient id="linear40" gradientUnits="userSpaceOnUse" x1="371.428986" y1="219.593002" x2="190.248001" y2="263.627991" gradientTransform="matrix(0.5,0,0,0.500931,0,0)">
<stop offset="0" style="stop-color:rgb(100%,100%,100%);stop-opacity:1;"/>
<stop offset="1" style="stop-color:rgb(70.588235%,70.588235%,71.372549%);stop-opacity:1;"/>
</linearGradient>
</defs>
<g id="surface1">
<path style=" stroke:none;fill-rule:evenodd;fill:rgb(76.078433%,76.078433%,87.450981%);fill-opacity:1;" d="M 162.058594 136.023438 C 162.183594 136.234375 162.453125 136.304688 162.664062 136.183594 L 200.152344 114.335938 C 202.824219 112.773438 203.046875 108.988281 200.574219 107.128906 L 185.792969 96.015625 C 183.828125 94.539062 183.996094 91.539062 186.109375 90.289062 L 204.359375 79.503906 C 205.441406 78.867188 206.78125 78.867188 207.863281 79.511719 L 223.855469 89.015625 C 224.066406 89.140625 224.335938 89.070312 224.460938 88.859375 C 224.585938 88.652344 224.515625 88.378906 224.304688 88.253906 L 208.3125 78.75 C 206.957031 77.945312 205.269531 77.941406 203.910156 78.746094 L 185.660156 89.527344 C 183.007812 91.097656 182.796875 94.867188 185.261719 96.71875 L 200.042969 107.835938 C 202.011719 109.316406 201.835938 112.328125 199.707031 113.570312 L 162.21875 135.417969 C 162.007812 135.542969 161.9375 135.8125 162.058594 136.023438 Z M 162.058594 136.023438 "/>
<path style=" stroke:none;fill-rule:evenodd;fill:url(#linear0);" d="M 178.441406 128.625 C 178.40625 128.996094 178.183594 129.328125 177.851562 129.476562 C 177.480469 129.660156 143.300781 149.683594 142.933594 149.867188 C 142.007812 150.347656 140.933594 150.347656 140.011719 149.867188 C 139.640625 149.683594 105.460938 129.660156 105.09375 129.476562 C 104.757812 129.328125 104.5 128.996094 104.5 128.625 C 104.5 128.550781 104.535156 128.476562 104.535156 128.441406 L 104.5 128.441406 L 104.5 114.769531 L 178.480469 114.84375 L 178.480469 128.441406 L 178.441406 128.441406 C 178.40625 128.515625 178.40625 128.550781 178.441406 128.625 Z M 178.441406 128.625 "/>
<path style=" stroke:none;fill-rule:evenodd;fill:url(#linear1);" d="M 141.601562 93.675781 C 141.082031 93.675781 140.601562 93.785156 140.15625 94.007812 C 139.789062 94.226562 105.609375 113.882812 105.238281 114.105469 C 104.90625 114.253906 104.683594 114.585938 104.648438 114.957031 C 104.683594 115.324219 104.90625 115.65625 105.238281 115.804688 C 105.609375 115.988281 139.789062 135.644531 140.15625 135.867188 C 141.082031 136.347656 142.15625 136.347656 143.078125 135.867188 C 143.449219 135.683594 177.628906 116.027344 177.996094 115.804688 C 178.332031 115.65625 178.554688 115.324219 178.589844 114.957031 C 178.554688 114.585938 178.332031 114.253906 177.996094 114.105469 C 177.628906 113.921875 143.449219 94.265625 143.078125 94.042969 C 142.597656 93.785156 142.117188 93.675781 141.601562 93.675781 Z M 141.601562 93.675781 "/>
<path style=" stroke:none;fill-rule:evenodd;fill:url(#linear2);" d="M 178.554688 112.09375 C 178.527344 112.152344 178.292969 112.796875 177.960938 112.945312 C 177.589844 113.128906 143.359375 133.152344 142.988281 133.339844 C 142.0625 133.820312 140.988281 133.820312 140.0625 133.339844 C 139.691406 133.152344 105.464844 113.128906 105.09375 112.945312 C 104.757812 112.796875 104.5 112.464844 104.5 112.09375 C 104.5 112.019531 104.535156 111.945312 104.535156 111.910156 L 104.5 111.910156 L 104.5 98.238281 L 178.589844 98.3125 L 178.589844 111.933594 C 178.589844 111.933594 178.578125 112.035156 178.554688 112.09375 Z M 178.554688 112.09375 "/>
<path style=" stroke:none;fill-rule:evenodd;fill:url(#linear3);" d="M 141.527344 77.144531 C 141.011719 77.144531 140.527344 77.253906 140.085938 77.476562 C 139.714844 77.699219 105.476562 97.351562 105.105469 97.574219 C 104.773438 97.722656 104.550781 98.054688 104.511719 98.425781 C 104.550781 98.792969 104.773438 99.125 105.105469 99.273438 C 105.476562 99.460938 139.714844 119.113281 140.085938 119.335938 C 141.011719 119.816406 142.085938 119.816406 143.011719 119.335938 C 143.382812 119.152344 177.617188 99.496094 177.988281 99.273438 C 178.324219 99.125 178.546875 98.792969 178.582031 98.425781 C 178.546875 98.054688 178.324219 97.722656 177.988281 97.574219 C 177.617188 97.390625 143.382812 77.734375 143.011719 77.511719 C 142.53125 77.253906 142.046875 77.144531 141.527344 77.144531 Z M 141.527344 77.144531 "/>
<path style=" stroke:none;fill-rule:nonzero;fill:url(#linear4);" d="M 145.140625 75.128906 L 166.332031 62.863281 L 145.144531 50.59375 L 124 62.863281 Z M 145.140625 75.128906 "/>
<path style=" stroke:none;fill-rule:nonzero;fill:url(#linear5);" d="M 166.332031 62.863281 L 166.332031 100.292969 L 145.195312 112.425781 L 145.195312 75.007812 Z M 166.332031 62.863281 "/>
<path style=" stroke:none;fill-rule:nonzero;fill:url(#linear6);" d="M 124 62.863281 L 124 100.160156 L 145.195312 112.425781 L 145.195312 75.007812 Z M 124 62.863281 "/>
<path style=" stroke:none;fill-rule:evenodd;fill:url(#linear7);" d="M 138.441406 152.640625 C 138.40625 153.011719 138.183594 153.34375 137.851562 153.492188 C 137.480469 153.675781 103.300781 173.703125 102.933594 173.886719 C 102.007812 174.367188 100.933594 174.367188 100.011719 173.886719 C 99.640625 173.703125 65.460938 153.675781 65.09375 153.492188 C 64.757812 153.34375 64.5 153.011719 64.5 152.640625 C 64.5 152.566406 64.535156 152.496094 64.535156 152.457031 L 64.5 152.457031 L 64.5 138.789062 L 138.480469 138.863281 L 138.480469 152.457031 L 138.441406 152.457031 C 138.40625 152.53125 138.40625 152.566406 138.441406 152.640625 Z M 138.441406 152.640625 "/>
<path style=" stroke:none;fill-rule:evenodd;fill:url(#linear8);" d="M 101.601562 117.691406 C 101.082031 117.691406 100.601562 117.800781 100.15625 118.023438 C 99.789062 118.246094 65.609375 137.902344 65.238281 138.121094 C 64.90625 138.269531 64.683594 138.601562 64.648438 138.972656 C 64.683594 139.339844 64.90625 139.675781 65.238281 139.820312 C 65.609375 140.007812 99.789062 159.660156 100.15625 159.882812 C 101.082031 160.363281 102.15625 160.363281 103.078125 159.882812 C 103.449219 159.699219 137.628906 140.042969 137.996094 139.820312 C 138.332031 139.675781 138.554688 139.339844 138.589844 138.972656 C 138.554688 138.601562 138.332031 138.269531 137.996094 138.121094 C 137.628906 137.9375 103.449219 118.28125 103.078125 118.0625 C 102.597656 117.800781 102.117188 117.691406 101.601562 117.691406 Z M 101.601562 117.691406 "/>
<path style=" stroke:none;fill-rule:evenodd;fill:url(#linear9);" d="M 138.933594 135.136719 C 138.90625 135.195312 138.671875 135.839844 138.339844 135.988281 C 137.96875 136.171875 103.738281 156.195312 103.367188 156.382812 C 102.441406 156.863281 101.367188 156.863281 100.441406 156.382812 C 100.070312 156.195312 65.84375 136.171875 65.472656 135.988281 C 65.136719 135.839844 64.878906 135.507812 64.878906 135.136719 C 64.878906 135.0625 64.914062 134.988281 64.914062 134.953125 L 64.878906 134.953125 L 64.878906 121.28125 L 138.96875 121.355469 L 138.96875 134.976562 C 138.96875 134.976562 138.957031 135.078125 138.933594 135.136719 Z M 138.933594 135.136719 "/>
<path style=" stroke:none;fill-rule:evenodd;fill:url(#linear10);" d="M 101.90625 100.1875 C 101.390625 100.1875 100.90625 100.296875 100.464844 100.519531 C 100.09375 100.742188 65.855469 120.394531 65.484375 120.617188 C 65.152344 120.765625 64.929688 121.097656 64.890625 121.46875 C 64.929688 121.835938 65.152344 122.167969 65.484375 122.316406 C 65.855469 122.503906 100.09375 142.15625 100.464844 142.378906 C 101.390625 142.859375 102.464844 142.859375 103.390625 142.378906 C 103.761719 142.195312 137.996094 122.539062 138.367188 122.316406 C 138.703125 122.167969 138.925781 121.835938 138.960938 121.46875 C 138.925781 121.097656 138.703125 120.765625 138.367188 120.617188 C 137.996094 120.433594 103.761719 100.777344 103.390625 100.554688 C 102.910156 100.296875 102.425781 100.1875 101.90625 100.1875 Z M 101.90625 100.1875 "/>
<path style=" stroke:none;fill-rule:nonzero;fill:url(#linear11);" d="M 101.917969 73.125 L 121.328125 60.859375 L 101.917969 48.589844 L 82.5 60.859375 Z M 101.917969 73.125 "/>
<path style=" stroke:none;fill-rule:nonzero;fill:url(#linear12);" d="M 121.328125 60.933594 L 121.328125 122.125 L 101.917969 134.394531 L 101.917969 73.28125 Z M 121.328125 60.933594 "/>
<path style=" stroke:none;fill-rule:nonzero;fill:url(#linear13);" d="M 82.5 60.933594 L 82.5 122.125 L 101.917969 134.394531 L 101.917969 73.253906 Z M 82.5 60.933594 "/>
<path style="fill:none;stroke-width:1.94139;stroke-linecap:butt;stroke-linejoin:miter;stroke:rgb(100%,100%,100%);stroke-opacity:1;stroke-miterlimit:4;" d="M 479.851562 209.672049 L 507.671875 193.171526 L 527.414062 206.435888 L 548.765625 200.610798 L 571.09375 228.761501 L 590.507812 223.583643 L 614.125 236.855803 L 644.21875 204.821707 " transform="matrix(0.5,0,0,0.500931,0,0)"/>
<path style=" stroke:none;fill-rule:evenodd;fill:url(#linear14);" d="M 97.441406 174.992188 C 97.40625 175.363281 97.183594 175.695312 96.851562 175.84375 C 96.480469 176.027344 62.300781 196.050781 61.933594 196.234375 C 61.007812 196.714844 59.933594 196.714844 59.011719 196.234375 C 58.640625 196.050781 24.460938 176.027344 24.09375 175.84375 C 23.757812 175.695312 23.5 175.363281 23.5 174.992188 C 23.5 174.917969 23.535156 174.84375 23.535156 174.808594 L 23.5 174.808594 L 23.5 161.136719 L 97.480469 161.210938 L 97.480469 174.808594 L 97.441406 174.808594 C 97.40625 174.882812 97.40625 174.917969 97.441406 174.992188 Z M 97.441406 174.992188 "/>
<path style=" stroke:none;fill-rule:evenodd;fill:url(#linear15);" d="M 60.601562 140.042969 C 60.082031 140.042969 59.601562 140.152344 59.15625 140.375 C 58.789062 140.597656 24.609375 160.25 24.238281 160.472656 C 23.90625 160.621094 23.683594 160.953125 23.648438 161.324219 C 23.683594 161.691406 23.90625 162.023438 24.238281 162.171875 C 24.609375 162.355469 58.789062 182.011719 59.15625 182.234375 C 60.082031 182.714844 61.15625 182.714844 62.078125 182.234375 C 62.449219 182.050781 96.628906 162.394531 96.996094 162.171875 C 97.332031 162.023438 97.554688 161.691406 97.589844 161.324219 C 97.554688 160.953125 97.332031 160.621094 96.996094 160.472656 C 96.628906 160.289062 62.449219 140.632812 62.078125 140.410156 C 61.597656 140.152344 61.117188 140.042969 60.601562 140.042969 Z M 60.601562 140.042969 "/>
<path style=" stroke:none;fill-rule:evenodd;fill:url(#linear16);" d="M 97.554688 157.179688 C 97.527344 157.238281 97.292969 157.878906 96.960938 158.027344 C 96.589844 158.210938 62.359375 178.238281 61.988281 178.421875 C 61.0625 178.902344 59.988281 178.902344 59.0625 178.421875 C 58.691406 178.238281 24.464844 158.210938 24.09375 158.027344 C 23.757812 157.878906 23.5 157.546875 23.5 157.179688 C 23.5 157.105469 23.535156 157.03125 23.535156 156.992188 L 23.5 156.992188 L 23.5 143.324219 L 97.589844 143.398438 L 97.589844 157.015625 C 97.589844 157.015625 97.578125 157.117188 97.554688 157.179688 Z M 97.554688 157.179688 "/>
<path style=" stroke:none;fill-rule:evenodd;fill:url(#linear17);" d="M 60.527344 122.226562 C 60.011719 122.226562 59.527344 122.339844 59.085938 122.558594 C 58.714844 122.78125 24.476562 142.4375 24.105469 142.660156 C 23.773438 142.804688 23.550781 143.140625 23.511719 143.507812 C 23.550781 143.878906 23.773438 144.210938 24.105469 144.359375 C 24.476562 144.542969 58.714844 164.199219 59.085938 164.421875 C 60.011719 164.902344 61.085938 164.902344 62.011719 164.421875 C 62.382812 164.234375 96.617188 144.582031 96.988281 144.359375 C 97.324219 144.210938 97.546875 143.878906 97.582031 143.507812 C 97.546875 143.140625 97.324219 142.804688 96.988281 142.660156 C 96.617188 142.472656 62.382812 122.816406 62.011719 122.597656 C 61.53125 122.339844 61.046875 122.226562 60.527344 122.226562 Z M 60.527344 122.226562 "/>
<path style=" stroke:none;fill-rule:evenodd;fill:url(#linear18);" d="M 192.480469 229.449219 C 192.453125 229.511719 192.21875 230.152344 191.886719 230.300781 C 191.515625 230.484375 157.285156 250.511719 156.914062 250.695312 C 155.988281 251.175781 154.914062 251.175781 153.988281 250.695312 C 153.617188 250.511719 119.390625 230.484375 119.019531 230.300781 C 118.683594 230.152344 118.425781 229.820312 118.425781 229.449219 C 118.425781 229.378906 118.464844 229.304688 118.464844 229.265625 L 118.425781 229.265625 L 118.425781 215.597656 L 192.515625 215.671875 L 192.515625 229.289062 C 192.515625 229.289062 192.503906 229.390625 192.480469 229.449219 Z M 192.480469 229.449219 "/>
<path style=" stroke:none;fill-rule:evenodd;fill:url(#linear19);" d="M 155.453125 194.5 C 154.9375 194.5 154.453125 194.609375 154.011719 194.832031 C 153.640625 195.054688 119.402344 214.710938 119.03125 214.933594 C 118.699219 215.078125 118.476562 215.414062 118.4375 215.78125 C 118.476562 216.152344 118.699219 216.484375 119.03125 216.632812 C 119.402344 216.816406 153.640625 236.472656 154.011719 236.695312 C 154.9375 237.175781 156.011719 237.175781 156.9375 236.695312 C 157.308594 236.507812 191.542969 216.851562 191.914062 216.632812 C 192.25 216.484375 192.472656 216.152344 192.507812 215.78125 C 192.472656 215.414062 192.25 215.078125 191.914062 214.933594 C 191.542969 214.746094 157.308594 195.089844 156.9375 194.871094 C 156.457031 194.609375 155.972656 194.5 155.453125 194.5 Z M 155.453125 194.5 "/>
<path style=" stroke:none;fill-rule:evenodd;fill:url(#linear20);" d="M 314.023438 241.917969 C 313.988281 242.289062 313.765625 242.621094 313.433594 242.769531 C 313.0625 242.953125 278.882812 262.980469 278.515625 263.164062 C 277.589844 263.644531 276.515625 263.644531 275.59375 263.164062 C 275.222656 262.980469 241.042969 242.953125 240.675781 242.769531 C 240.339844 242.621094 240.082031 242.289062 240.082031 241.917969 C 240.082031 241.84375 240.117188 241.773438 240.117188 241.734375 L 240.082031 241.734375 L 240.082031 228.066406 L 314.0625 228.136719 L 314.0625 241.734375 L 314.023438 241.734375 C 313.988281 241.808594 313.988281 241.84375 314.023438 241.917969 Z M 314.023438 241.917969 "/>
<path style=" stroke:none;fill-rule:evenodd;fill:url(#linear21);" d="M 277.183594 206.96875 C 276.664062 206.96875 276.183594 207.078125 275.738281 207.300781 C 275.371094 207.523438 241.191406 227.179688 240.820312 227.398438 C 240.488281 227.546875 240.265625 227.878906 240.230469 228.25 C 240.265625 228.617188 240.488281 228.953125 240.820312 229.097656 C 241.191406 229.285156 275.371094 248.9375 275.738281 249.160156 C 276.664062 249.640625 277.738281 249.640625 278.660156 249.160156 C 279.03125 248.976562 313.210938 229.320312 313.578125 229.097656 C 313.914062 228.953125 314.136719 228.617188 314.171875 228.25 C 314.136719 227.878906 313.914062 227.546875 313.578125 227.398438 C 313.210938 227.214844 279.03125 207.558594 278.660156 207.339844 C 278.179688 207.078125 277.699219 206.96875 277.183594 206.96875 Z M 277.183594 206.96875 "/>
<path style=" stroke:none;fill-rule:nonzero;fill:rgb(64.313728%,71.372551%,88.627452%);fill-opacity:1;" d="M 297.789062 245.554688 C 297.789062 243.746094 296.527344 243.03125 294.976562 243.953125 C 293.421875 244.878906 292.164062 247.097656 292.164062 248.90625 C 292.164062 250.71875 293.421875 251.433594 294.976562 250.507812 C 296.527344 249.582031 297.789062 247.367188 297.789062 245.554688 Z M 297.789062 245.554688 "/>
<path style=" stroke:none;fill-rule:nonzero;fill:rgb(46.27451%,52.549022%,67.843139%);fill-opacity:1;" d="M 296.851562 246.320312 C 296.851562 245.253906 296.109375 244.828125 295.195312 245.375 C 294.277344 245.921875 293.535156 247.230469 293.535156 248.296875 C 293.535156 249.367188 294.277344 249.789062 295.195312 249.242188 C 296.109375 248.695312 296.851562 247.386719 296.851562 246.320312 Z M 296.851562 246.320312 "/>
<path style=" stroke:none;fill-rule:nonzero;fill:rgb(64.313728%,71.372551%,88.627452%);fill-opacity:1;" d="M 38.503906 177.804688 C 38.503906 175.992188 39.765625 175.277344 41.316406 176.203125 C 42.871094 177.128906 44.128906 179.34375 44.128906 181.15625 C 44.128906 182.964844 42.871094 183.683594 41.316406 182.757812 C 39.765625 181.832031 38.503906 179.613281 38.503906 177.804688 Z M 38.503906 177.804688 "/>
<path style=" stroke:none;fill-rule:nonzero;fill:rgb(46.27451%,52.549022%,67.843139%);fill-opacity:1;" d="M 39.441406 178.566406 C 39.441406 177.5 40.183594 177.078125 41.097656 177.621094 C 42.015625 178.167969 42.757812 179.476562 42.757812 180.542969 C 42.757812 181.613281 42.015625 182.035156 41.097656 181.488281 C 40.183594 180.945312 39.441406 179.636719 39.441406 178.566406 Z M 39.441406 178.566406 "/>
<path style=" stroke:none;fill-rule:nonzero;fill:rgb(64.313728%,71.372551%,88.627452%);fill-opacity:1;" d="M 133.953125 232.589844 C 133.953125 230.777344 135.214844 230.0625 136.765625 230.988281 C 138.320312 231.914062 139.578125 234.128906 139.578125 235.941406 C 139.578125 237.75 138.320312 238.46875 136.765625 237.542969 C 135.214844 236.617188 133.953125 234.398438 133.953125 232.589844 Z M 133.953125 232.589844 "/>
<path style=" stroke:none;fill-rule:nonzero;fill:rgb(46.27451%,52.549022%,67.843139%);fill-opacity:1;" d="M 134.890625 233.351562 C 134.890625 232.285156 135.632812 231.863281 136.546875 232.40625 C 137.464844 232.953125 138.207031 234.261719 138.207031 235.332031 C 138.207031 236.398438 137.464844 236.820312 136.546875 236.273438 C 135.632812 235.730469 134.890625 234.421875 134.890625 233.351562 Z M 134.890625 233.351562 "/>
<path style=" stroke:none;fill-rule:nonzero;fill:rgb(64.313728%,71.372551%,88.627452%);fill-opacity:1;" d="M 176.773438 232.265625 C 176.773438 230.453125 175.515625 229.738281 173.960938 230.664062 C 172.410156 231.585938 171.152344 233.804688 171.152344 235.613281 C 171.152344 237.425781 172.410156 238.140625 173.960938 237.214844 C 175.515625 236.292969 176.773438 234.074219 176.773438 232.265625 Z M 176.773438 232.265625 "/>
<path style=" stroke:none;fill-rule:nonzero;fill:rgb(46.27451%,52.549022%,67.843139%);fill-opacity:1;" d="M 175.839844 233.027344 C 175.839844 231.960938 175.097656 231.535156 174.179688 232.082031 C 173.265625 232.628906 172.523438 233.9375 172.523438 235.003906 C 172.523438 236.074219 173.265625 236.496094 174.179688 235.949219 C 175.097656 235.40625 175.839844 234.097656 175.839844 233.027344 Z M 175.839844 233.027344 "/>
<path style=" stroke:none;fill-rule:evenodd;fill:url(#linear22);" d="M 314.136719 222.644531 C 314.109375 222.703125 313.875 223.347656 313.542969 223.496094 C 313.171875 223.679688 278.941406 243.703125 278.570312 243.890625 C 277.644531 244.371094 276.570312 244.371094 275.644531 243.890625 C 275.273438 243.703125 241.046875 223.679688 240.675781 223.496094 C 240.339844 223.347656 240.082031 223.015625 240.082031 222.644531 C 240.082031 222.570312 240.117188 222.496094 240.117188 222.460938 L 240.082031 222.460938 L 240.082031 208.789062 L 314.171875 208.863281 L 314.171875 222.484375 C 314.171875 222.484375 314.160156 222.585938 314.136719 222.644531 Z M 314.136719 222.644531 "/>
<path style=" stroke:none;fill-rule:evenodd;fill:url(#linear23);" d="M 277.109375 187.695312 C 276.59375 187.695312 276.109375 187.804688 275.664062 188.027344 C 275.296875 188.25 241.058594 207.90625 240.6875 208.125 C 240.355469 208.273438 240.132812 208.605469 240.09375 208.976562 C 240.132812 209.34375 240.355469 209.679688 240.6875 209.824219 C 241.058594 210.011719 275.296875 229.667969 275.664062 229.886719 C 276.59375 230.367188 277.667969 230.367188 278.59375 229.886719 C 278.964844 229.703125 313.199219 210.046875 313.570312 209.824219 C 313.90625 209.679688 314.128906 209.34375 314.164062 208.976562 C 314.128906 208.605469 313.90625 208.273438 313.570312 208.125 C 313.199219 207.941406 278.964844 188.285156 278.59375 188.0625 C 278.113281 187.804688 277.628906 187.695312 277.109375 187.695312 Z M 277.109375 187.695312 "/>
<path style=" stroke:none;fill-rule:nonzero;fill:rgb(64.313728%,71.372551%,88.627452%);fill-opacity:1;" d="M 255.613281 226.105469 C 255.613281 224.296875 256.871094 223.578125 258.425781 224.503906 C 259.976562 225.429688 261.234375 227.648438 261.234375 229.457031 C 261.234375 231.265625 259.976562 231.984375 258.425781 231.058594 C 256.871094 230.132812 255.613281 227.917969 255.613281 226.105469 Z M 255.613281 226.105469 "/>
<path style=" stroke:none;fill-rule:nonzero;fill:rgb(46.27451%,52.549022%,67.843139%);fill-opacity:1;" d="M 256.546875 226.871094 C 256.546875 225.800781 257.289062 225.378906 258.207031 225.925781 C 259.121094 226.472656 259.867188 227.78125 259.867188 228.847656 C 259.867188 229.914062 259.121094 230.339844 258.207031 229.792969 C 257.289062 229.246094 256.546875 227.9375 256.546875 226.871094 Z M 256.546875 226.871094 "/>
<path style=" stroke:none;fill-rule:nonzero;fill:rgb(64.313728%,71.372551%,88.627452%);fill-opacity:1;" d="M 255.292969 244.257812 C 255.292969 242.449219 256.550781 241.730469 258.105469 242.65625 C 259.65625 243.582031 260.914062 245.800781 260.914062 247.609375 C 260.914062 249.421875 259.65625 250.136719 258.105469 249.210938 C 256.550781 248.285156 255.292969 246.070312 255.292969 244.257812 Z M 255.292969 244.257812 "/>
<path style=" stroke:none;fill-rule:nonzero;fill:rgb(46.27451%,52.549022%,67.843139%);fill-opacity:1;" d="M 256.226562 245.023438 C 256.226562 243.953125 256.96875 243.53125 257.886719 244.078125 C 258.800781 244.625 259.546875 245.933594 259.546875 247 C 259.546875 248.066406 258.800781 248.492188 257.886719 247.945312 C 256.96875 247.398438 256.226562 246.089844 256.226562 245.023438 Z M 256.226562 245.023438 "/>
<path style=" stroke:none;fill-rule:nonzero;fill:rgb(64.313728%,71.372551%,88.627452%);fill-opacity:1;" d="M 38.175781 159.652344 C 38.175781 157.84375 39.4375 157.125 40.988281 158.050781 C 42.542969 158.976562 43.800781 161.195312 43.800781 163.003906 C 43.800781 164.8125 42.542969 165.53125 40.988281 164.605469 C 39.4375 163.679688 38.175781 161.460938 38.175781 159.652344 Z M 38.175781 159.652344 "/>
<path style=" stroke:none;fill-rule:nonzero;fill:rgb(46.27451%,52.549022%,67.843139%);fill-opacity:1;" d="M 39.113281 160.417969 C 39.113281 159.347656 39.855469 158.925781 40.769531 159.472656 C 41.6875 160.019531 42.429688 161.324219 42.429688 162.394531 C 42.429688 163.460938 41.6875 163.886719 40.769531 163.339844 C 39.855469 162.792969 39.113281 161.484375 39.113281 160.417969 Z M 39.113281 160.417969 "/>
<path style="fill:none;stroke-width:1.76405;stroke-linecap:round;stroke-linejoin:miter;stroke:rgb(76.078433%,76.078433%,87.450981%);stroke-opacity:1;stroke-miterlimit:4;" d="M 71.828125 367.510935 L 71.828125 330.431546 C 71.828125 326.594941 74.625 323.335386 78.414062 322.758335 L 81.546875 322.274861 " transform="matrix(0.5,0,0,0.500931,0,0)"/>
<path style="fill:none;stroke-width:1.76405;stroke-linecap:round;stroke-linejoin:miter;stroke:rgb(76.078433%,76.078433%,87.450981%);stroke-opacity:1;stroke-miterlimit:4;" d="M 515.773438 490.071765 L 512.640625 490.555239 C 508.851562 491.140088 506.054688 494.399643 506.054688 498.22845 L 506.054688 520.530669 C 506.054688 526.784648 499.039062 530.465294 493.890625 526.917214 L 485.5 521.131113 C 483.03125 519.431154 479.8125 519.306387 477.21875 520.803598 L 460.179688 530.629051 C 457.742188 532.040486 454.726562 532.009294 452.3125 530.55887 L 347.828125 467.878717 " transform="matrix(0.5,0,0,0.500931,0,0)"/>
<path style="fill:none;stroke-width:1.76405;stroke-linecap:round;stroke-linejoin:miter;stroke:rgb(76.078433%,76.078433%,87.450981%);stroke-opacity:1;stroke-miterlimit:4;" d="M 506.054688 500.170147 L 506.054688 463.090759 C 506.054688 459.254153 508.851562 456.002396 512.632812 455.417548 L 515.773438 454.934073 " transform="matrix(0.5,0,0,0.500931,0,0)"/>
<path style=" stroke:none;fill-rule:nonzero;fill:rgb(2.745098%,6.27451%,11.372549%);fill-opacity:1;" d="M 364.128906 193.828125 L 364.128906 98.085938 C 364.128906 96.21875 362.816406 93.949219 361.203125 93.027344 L 232.480469 19.414062 C 231.820312 19.035156 231.179688 18.929688 230.664062 19.113281 L 225.851562 20.835938 C 225.105469 21.101562 224.707031 21.945312 224.777344 23.09375 L 230.78125 117.1875 C 230.894531 118.96875 232.105469 121.011719 233.59375 121.925781 L 356.667969 197.585938 C 357.425781 198.050781 358.164062 198.164062 358.722656 197.894531 L 363.183594 195.765625 C 363.785156 195.476562 364.128906 194.773438 364.128906 193.828125 Z M 364.128906 193.828125 "/>
<path style=" stroke:none;fill-rule:nonzero;fill:url(#linear24);" d="M 358.957031 197.710938 L 358.957031 99.347656 C 358.957031 98.628906 358.457031 97.757812 357.835938 97.402344 L 225.25 20.710938 C 224.628906 20.351562 224.128906 20.640625 224.128906 21.359375 L 224.128906 119.722656 C 224.128906 120.4375 224.628906 121.308594 225.25 121.667969 L 357.835938 198.359375 C 358.457031 198.71875 358.957031 198.429688 358.957031 197.710938 Z M 358.957031 197.710938 "/>
<path style=" stroke:none;fill-rule:nonzero;fill:rgb(100%,100%,100%);fill-opacity:1;" d="M 231.976562 38.488281 L 351.109375 107.398438 C 353.65625 108.871094 355.726562 107.675781 355.726562 104.726562 C 355.726562 101.777344 353.65625 98.191406 351.109375 96.714844 L 231.976562 27.804688 C 229.425781 26.332031 227.359375 27.527344 227.359375 30.476562 C 227.359375 33.425781 229.425781 37.015625 231.976562 38.488281 Z M 231.976562 38.488281 "/>
<path style=" stroke:none;fill-rule:nonzero;fill:rgb(22.745098%,36.470589%,95.294118%);fill-opacity:1;" d="M 243.578125 40.441406 C 243.578125 41.621094 244.40625 43.054688 245.425781 43.648438 C 246.445312 44.238281 247.273438 43.757812 247.273438 42.578125 C 247.273438 41.398438 246.445312 39.964844 245.425781 39.375 C 244.40625 38.785156 243.578125 39.261719 243.578125 40.441406 Z M 243.578125 40.441406 "/>
<path style=" stroke:none;fill-rule:nonzero;fill:rgb(22.745098%,36.470589%,95.294118%);fill-opacity:1;" d="M 237.113281 36.703125 C 237.113281 37.882812 237.941406 39.316406 238.960938 39.90625 C 239.980469 40.496094 240.808594 40.019531 240.808594 38.839844 C 240.808594 37.660156 239.980469 36.222656 238.960938 35.632812 C 237.941406 35.042969 237.113281 35.523438 237.113281 36.703125 Z M 237.113281 36.703125 "/>
<path style=" stroke:none;fill-rule:nonzero;fill:rgb(22.745098%,36.470589%,95.294118%);fill-opacity:1;" d="M 230.648438 32.964844 C 230.648438 34.144531 231.476562 35.578125 232.496094 36.167969 C 233.515625 36.757812 234.34375 36.28125 234.34375 35.101562 C 234.34375 33.917969 233.515625 32.484375 232.496094 31.894531 C 231.476562 31.304688 230.648438 31.78125 230.648438 32.964844 Z M 230.648438 32.964844 "/>
<g clip-path="url(#clip1)" clip-rule="nonzero">
<g clip-path="url(#clip2)" clip-rule="nonzero">
<path style="fill:none;stroke-width:5.17865;stroke-linecap:round;stroke-linejoin:round;stroke:rgb(100%,100%,100%);stroke-opacity:1;stroke-miterlimit:4;" d="M 602.164062 241.823115 L 573.945312 257.801173 L 545.726562 209.24316 C 543.867188 206.077181 542.398438 202.716252 541.421875 199.370919 C 540.445312 196.033385 539.976562 192.781628 540.046875 189.818396 C 540.109375 186.862962 540.71875 184.266235 541.820312 182.184175 C 542.921875 180.109912 544.5 178.597104 546.453125 177.754923 C 548.414062 176.904943 550.695312 176.741186 553.171875 177.26365 C 555.648438 177.786115 558.257812 178.994801 560.84375 180.803932 C 563.429688 182.613063 565.921875 184.983649 568.179688 187.775325 C 570.429688 190.567002 572.398438 193.709587 573.945312 197.008132 C 575.5 195.518718 577.46875 194.66094 579.71875 194.489385 C 581.976562 194.317829 584.46875 194.840294 587.039062 196.017789 C 589.617188 197.195283 592.21875 199.004414 594.6875 201.33601 C 597.15625 203.667606 599.429688 206.46708 601.382812 209.562878 C 603.328125 212.658675 604.898438 215.980614 606 219.318149 C 607.101562 222.663482 607.710938 225.954229 607.78125 228.979844 C 607.859375 232.013258 607.398438 234.719157 606.429688 236.933783 C 605.460938 239.148408 604.007812 240.824974 602.164062 241.846509 M 573.945312 196.984738 L 561.554688 204.135484 C 560.851562 204.540979 560.453125 205.414353 560.453125 206.568454 C 560.453125 207.722555 560.851562 209.056009 561.554688 210.280292 L 563.601562 213.812776 C 566.195312 218.31221 570.40625 220.745179 573.007812 219.247967 L 576.765625 217.072331 C 579.007812 215.777867 582.054688 216.081988 585.234375 217.914513 C 588.40625 219.747038 591.453125 222.959805 593.695312 226.850996 L 602.164062 241.511196 M 575.828125 239.33556 L 583.351562 252.37378 M 585.234375 233.908167 L 592.757812 246.938589 " transform="matrix(0.5,0,0,0.500931,0,0)"/>
</g>
</g>
<path style=" stroke:none;fill-rule:nonzero;fill:rgb(64.313728%,71.372551%,88.627452%);fill-opacity:1;" d="M 362.792969 157.875 C 362.792969 156.824219 362.050781 156.386719 361.132812 156.902344 C 360.214844 157.414062 359.472656 158.6875 359.472656 159.738281 C 359.472656 160.792969 360.214844 161.230469 361.132812 160.714844 C 362.050781 160.199219 362.792969 158.929688 362.792969 157.875 Z M 362.792969 157.875 "/>
<path style=" stroke:none;fill-rule:nonzero;fill:rgb(46.27451%,52.549022%,67.843139%);fill-opacity:1;" d="M 362.25 158.320312 C 362.25 157.699219 361.808594 157.441406 361.269531 157.746094 C 360.726562 158.046875 360.289062 158.796875 360.289062 159.417969 C 360.289062 160.039062 360.726562 160.296875 361.269531 159.996094 C 361.808594 159.691406 362.25 158.941406 362.25 158.320312 Z M 362.25 158.320312 "/>
<path style=" stroke:none;fill-rule:nonzero;fill:rgb(64.313728%,71.372551%,88.627452%);fill-opacity:1;" d="M 363.058594 138.023438 C 363.058594 136.972656 362.316406 136.535156 361.398438 137.050781 C 360.480469 137.5625 359.738281 138.835938 359.738281 139.886719 C 359.738281 140.941406 360.480469 141.378906 361.398438 140.863281 C 362.316406 140.347656 363.058594 139.078125 363.058594 138.023438 Z M 363.058594 138.023438 "/>
<path style=" stroke:none;fill-rule:nonzero;fill:rgb(46.27451%,52.549022%,67.843139%);fill-opacity:1;" d="M 362.511719 138.46875 C 362.511719 137.847656 362.074219 137.589844 361.535156 137.894531 C 360.992188 138.195312 360.554688 138.945312 360.554688 139.570312 C 360.554688 140.191406 360.992188 140.449219 361.535156 140.144531 C 362.074219 139.839844 362.511719 139.089844 362.511719 138.46875 Z M 362.511719 138.46875 "/>
<path style="fill:none;stroke-width:1.76405;stroke-linecap:round;stroke-linejoin:miter;stroke:rgb(76.078433%,76.078433%,87.450981%);stroke-opacity:1;stroke-miterlimit:4;" d="M 722.6875 317.112599 C 729.78125 322.142295 738.953125 328.840759 745.734375 333.823667 C 750.210938 337.114414 749.875 343.851867 745.117188 346.666938 L 682.328125 383.8477 C 677.21875 386.873316 677.304688 394.281395 682.492188 397.236829 L 753.851562 437.833106 C 759.078125 440.804136 759.117188 448.297993 753.921875 451.276821 L 638.03125 517.700003 C 635.570312 519.111437 632.523438 519.072447 630.09375 517.590831 L 590.492188 493.456087 " transform="matrix(0.5,0,0,0.500931,0,0)"/>
<path style=" stroke:none;fill-rule:evenodd;fill:rgb(76.078433%,76.078433%,87.450981%);fill-opacity:1;" d="M 41.429688 179.726562 C 41.488281 179.964844 41.34375 180.203125 41.109375 180.261719 L 38.972656 180.796875 C 37.441406 181.179688 36.367188 182.558594 36.367188 184.140625 L 36.367188 200.753906 C 36.367188 202.308594 35.53125 203.746094 34.183594 204.515625 L 2.621094 222.492188 C 0.363281 223.78125 0.289062 227.015625 2.488281 228.40625 L 19.113281 238.914062 C 20.203125 239.601562 21.585938 239.621094 22.695312 238.96875 L 68.367188 211.992188 C 69.714844 211.195312 71.382812 211.191406 72.734375 211.976562 L 108.257812 232.683594 C 110.933594 234.242188 111.152344 238.027344 108.679688 239.886719 L 93.898438 251.003906 C 91.9375 252.476562 92.101562 255.480469 94.214844 256.726562 L 112.464844 267.511719 C 113.546875 268.148438 114.890625 268.148438 115.96875 267.507812 L 130.027344 259.148438 C 131.089844 258.519531 131.730469 257.371094 131.714844 256.136719 L 131.464844 239.039062 C 131.4375 237.0625 132.75 235.316406 134.65625 234.796875 L 136.589844 234.269531 C 136.828125 234.207031 137.070312 234.347656 137.132812 234.582031 C 137.195312 234.816406 137.058594 235.058594 136.824219 235.125 L 134.886719 235.648438 C 133.371094 236.0625 132.324219 237.453125 132.347656 239.027344 L 132.59375 256.125 C 132.617188 257.675781 131.808594 259.117188 130.480469 259.910156 L 116.417969 268.265625 C 115.0625 269.070312 113.375 269.074219 112.019531 268.273438 L 93.769531 257.488281 C 91.113281 255.917969 90.902344 252.148438 93.367188 250.296875 L 108.148438 239.179688 C 110.117188 237.699219 109.941406 234.6875 107.816406 233.445312 L 72.289062 212.742188 C 71.214844 212.117188 69.886719 212.121094 68.8125 212.753906 L 23.144531 239.726562 C 21.75 240.550781 20.011719 240.527344 18.644531 239.660156 L 2.015625 229.152344 C -0.742188 227.40625 -0.652344 223.34375 2.1875 221.726562 L 33.746094 203.75 C 34.820312 203.136719 35.484375 201.992188 35.484375 200.753906 L 35.484375 184.140625 C 35.484375 182.152344 36.835938 180.421875 38.761719 179.941406 L 40.894531 179.40625 C 41.128906 179.347656 41.371094 179.488281 41.429688 179.726562 Z M 41.429688 179.726562 "/>
<path style="fill:none;stroke-width:1.76405;stroke-linecap:round;stroke-linejoin:miter;stroke:rgb(76.078433%,76.078433%,87.450981%);stroke-opacity:1;stroke-miterlimit:4;" d="M 723.578125 277.576847 L 744.695312 291.012764 C 746.914062 292.424198 748.265625 294.864966 748.289062 297.500683 L 748.625 338.510252 " transform="matrix(0.5,0,0,0.500931,0,0)"/>
<path style=" stroke:none;fill-rule:nonzero;fill:rgb(6.666667%,47.843137%,94.901961%);fill-opacity:1;" d="M 53.8125 221.234375 C 54.171875 221.855469 53.957031 222.648438 53.339844 223.003906 L 49.976562 224.949219 C 49.359375 225.308594 48.566406 225.09375 48.210938 224.476562 C 47.851562 223.855469 48.0625 223.0625 48.683594 222.703125 L 52.046875 220.757812 C 52.664062 220.402344 53.457031 220.613281 53.8125 221.234375 Z M 53.8125 221.234375 "/>
<path style=" stroke:none;fill-rule:nonzero;fill:rgb(6.666667%,47.843137%,94.901961%);fill-opacity:1;" d="M 8.476562 218.660156 C 8.832031 219.277344 8.621094 220.070312 8.003906 220.429688 L 4.640625 222.375 C 4.019531 222.734375 3.230469 222.519531 2.871094 221.902344 C 2.515625 221.28125 2.726562 220.488281 3.34375 220.128906 L 6.707031 218.183594 C 7.328125 217.824219 8.117188 218.039062 8.476562 218.660156 Z M 8.476562 218.660156 "/>
<path style=" stroke:none;fill-rule:nonzero;fill:rgb(6.666667%,47.843137%,94.901961%);fill-opacity:1;" d="M 104.679688 242.230469 C 105.101562 242.808594 104.976562 243.621094 104.398438 244.042969 L 101.257812 246.332031 C 100.679688 246.753906 99.871094 246.625 99.449219 246.046875 C 99.027344 245.46875 99.15625 244.65625 99.734375 244.234375 L 102.875 241.945312 C 103.449219 241.523438 104.261719 241.652344 104.679688 242.230469 Z M 104.679688 242.230469 "/>
<path style=" stroke:none;fill-rule:nonzero;fill:rgb(6.666667%,47.843137%,94.901961%);fill-opacity:1;" d="M 217.1875 260.519531 C 216.820312 261.132812 216.027344 261.335938 215.414062 260.96875 L 212.074219 258.984375 C 211.460938 258.617188 211.257812 257.820312 211.621094 257.207031 C 211.988281 256.589844 212.78125 256.386719 213.398438 256.753906 L 216.734375 258.742188 C 217.347656 259.105469 217.550781 259.902344 217.1875 260.519531 Z M 217.1875 260.519531 "/>
<path style=" stroke:none;fill-rule:nonzero;fill:rgb(6.666667%,47.843137%,94.901961%);fill-opacity:1;" d="M 363.4375 212.21875 C 363.074219 212.835938 362.277344 213.039062 361.664062 212.671875 L 358.328125 210.683594 C 357.710938 210.320312 357.511719 209.523438 357.875 208.90625 C 358.238281 208.292969 359.035156 208.089844 359.648438 208.457031 L 362.988281 210.441406 C 363.601562 210.808594 363.804688 211.601562 363.4375 212.21875 Z M 363.4375 212.21875 "/>
<path style=" stroke:none;fill-rule:nonzero;fill:rgb(6.666667%,47.843137%,94.901961%);fill-opacity:1;" d="M 310.648438 256.367188 C 310.285156 256.976562 309.492188 257.175781 308.882812 256.816406 L 305.546875 254.847656 C 304.9375 254.488281 304.738281 253.703125 305.101562 253.09375 C 305.464844 252.488281 306.253906 252.285156 306.863281 252.644531 L 310.203125 254.613281 C 310.8125 254.972656 311.011719 255.757812 310.648438 256.367188 Z M 310.648438 256.367188 "/>
<path style="fill-rule:nonzero;fill:rgb(100%,100%,100%);fill-opacity:1;stroke-width:4.97292;stroke-linecap:butt;stroke-linejoin:miter;stroke:rgb(20.392157%,41.568628%,96.470588%);stroke-opacity:0.721569;stroke-miterlimit:4;" d="M 12.700183 -0.00255084 L 53.605121 0.000707809 C 60.618909 0.00509988 66.303636 5.689826 66.308028 12.703615 L 66.303488 53.600754 C 66.30337 60.619053 60.615565 66.306859 53.597266 66.306977 L 12.704637 66.307006 C 5.686338 66.307124 0.00161125 60.622398 0.00172973 53.604099 L -0.00603947 12.703672 C 0.00187699 5.693171 5.689682 0.00536562 12.700183 -0.00255084 Z M 12.700183 -0.00255084 " transform="matrix(0.433012,0.250466,-0.433012,0.250466,155.772995,198.167337)"/>
<path style=" stroke:none;fill-rule:nonzero;fill:url(#linear25);" d="M 132.339844 206.628906 L 150.050781 196.386719 C 153.089844 194.628906 158.015625 194.628906 161.054688 196.386719 L 178.761719 206.628906 C 181.800781 208.386719 181.800781 211.238281 178.761719 212.996094 L 161.054688 223.238281 C 158.015625 224.996094 153.089844 224.996094 150.050781 223.238281 L 132.339844 212.996094 C 129.304688 211.238281 129.304688 208.386719 132.339844 206.628906 Z M 132.339844 206.628906 "/>
<path style="fill-rule:nonzero;fill:rgb(100%,100%,100%);fill-opacity:1;stroke-width:0.106806;stroke-linecap:butt;stroke-linejoin:miter;stroke:rgb(100%,100%,100%);stroke-opacity:1;stroke-miterlimit:4;" d="M 289.367188 410.69614 L 292.28125 409.019575 L 292.289062 409.011777 C 292.539062 408.871413 292.898438 408.855817 293.09375 408.972787 L 298.890625 412.31812 C 299.085938 412.427291 299.0625 412.637837 298.8125 412.778201 L 282.765625 422.049997 C 282.484375 422.213755 282.4375 422.471088 282.695312 422.61925 L 285.179688 424.054078 C 285.4375 424.202239 285.882812 424.178845 286.171875 424.015088 L 298.328125 416.989109 C 298.578125 416.848745 298.945312 416.840947 299.140625 416.950119 L 301.617188 418.384947 C 301.8125 418.494119 301.796875 418.704664 301.546875 418.852826 L 289.390625 425.871007 C 289.140625 426.01137 288.773438 426.026966 288.578125 425.909997 L 286.101562 424.482966 C 285.835938 424.327007 285.390625 424.358199 285.101562 424.521956 L 282.1875 426.20632 C 281.9375 426.346683 281.570312 426.362279 281.382812 426.24531 L 272.273438 420.989472 C 272.078125 420.8803 272.101562 420.669755 272.34375 420.521593 L 275.265625 418.83723 C 275.546875 418.673472 275.59375 418.416139 275.335938 418.267977 L 272.851562 416.833149 C 272.65625 416.71618 272.679688 416.513432 272.929688 416.365271 L 285.078125 409.34709 C 285.335938 409.206726 285.6875 409.19113 285.890625 409.3081 L 288.367188 410.742928 C 288.632812 410.89109 289.078125 410.867696 289.367188 410.69614 Z M 278.554688 420.233068 C 278.8125 420.38123 279.265625 420.357836 279.546875 420.18628 L 291.703125 413.168099 C 291.992188 413.004342 292.039062 412.747009 291.78125 412.598847 L 289.296875 411.164019 C 289.039062 411.015857 288.585938 411.039251 288.304688 411.203009 L 276.148438 418.22119 C 275.859375 418.392745 275.8125 418.650078 276.070312 418.79824 Z M 278.554688 420.233068 " transform="matrix(0.5,0,0,0.500931,0,0)"/>
<path style=" stroke:none;fill-rule:nonzero;fill:rgb(100%,100%,100%);fill-opacity:1;" d="M 164.242188 203.820312 L 162.78125 204.664062 C 162.648438 204.742188 162.632812 204.859375 162.746094 204.925781 L 168.953125 208.515625 C 169.066406 208.582031 169.050781 208.699219 168.917969 208.777344 L 163.324219 212.011719 C 163.191406 212.089844 162.988281 212.097656 162.875 212.03125 L 158.324219 209.398438 C 158.207031 209.332031 158.003906 209.34375 157.871094 209.421875 L 156.414062 210.265625 C 156.28125 210.339844 156.078125 210.351562 155.960938 210.285156 L 154.722656 209.566406 C 154.609375 209.5 154.40625 209.511719 154.269531 209.589844 L 146.246094 214.230469 C 146.113281 214.308594 146.097656 214.425781 146.210938 214.488281 L 147.449219 215.207031 C 147.566406 215.273438 147.546875 215.390625 147.414062 215.46875 L 145.957031 216.3125 C 145.824219 216.390625 145.804688 216.507812 145.921875 216.574219 L 148.816406 218.25 C 148.929688 218.3125 149.132812 218.304688 149.265625 218.226562 L 156.316406 214.148438 C 156.453125 214.074219 156.65625 214.0625 156.769531 214.128906 L 158.007812 214.847656 C 158.125 214.914062 158.105469 215.03125 157.972656 215.105469 L 150.921875 219.183594 C 150.789062 219.261719 150.773438 219.378906 150.886719 219.445312 L 152.128906 220.164062 C 152.242188 220.230469 152.445312 220.21875 152.578125 220.144531 L 159.628906 216.066406 C 159.761719 215.988281 159.777344 215.871094 159.664062 215.804688 L 158.425781 215.085938 C 158.308594 215.019531 158.328125 214.902344 158.460938 214.824219 L 159.917969 213.980469 C 160.050781 213.90625 160.070312 213.785156 159.953125 213.722656 L 157.058594 212.046875 C 156.945312 211.980469 156.742188 211.988281 156.609375 212.066406 L 149.558594 216.144531 C 149.421875 216.222656 149.21875 216.230469 149.105469 216.164062 L 147.867188 215.449219 C 147.75 215.382812 147.769531 215.265625 147.902344 215.1875 L 155.925781 210.546875 C 156.058594 210.46875 156.261719 210.457031 156.378906 210.523438 L 160.929688 213.15625 C 161.042969 213.222656 161.246094 213.214844 161.378906 213.136719 L 162.839844 212.292969 C 162.972656 212.214844 163.175781 212.207031 163.289062 212.273438 L 164.53125 212.988281 C 164.644531 213.054688 164.847656 213.046875 164.980469 212.96875 L 170.574219 209.734375 C 170.707031 209.65625 170.910156 209.648438 171.023438 209.714844 L 172.265625 210.429688 C 172.378906 210.496094 172.363281 210.613281 172.226562 210.691406 L 166.636719 213.925781 C 166.503906 214.003906 166.488281 214.121094 166.601562 214.1875 L 167.839844 214.90625 C 167.953125 214.972656 168.160156 214.960938 168.292969 214.882812 L 173.882812 211.648438 C 174.019531 211.570312 174.035156 211.453125 173.921875 211.390625 L 172.679688 210.671875 C 172.566406 210.605469 172.582031 210.488281 172.714844 210.410156 L 174.175781 209.566406 C 174.308594 209.488281 174.324219 209.371094 174.210938 209.304688 L 164.691406 203.800781 C 164.578125 203.734375 164.375 203.742188 164.242188 203.820312 Z M 164.242188 203.820312 "/>
<path style=" stroke:none;fill-rule:nonzero;fill:rgb(100%,100%,100%);fill-opacity:1;" d="M 157.058594 198.546875 L 155.601562 199.390625 C 155.464844 199.464844 155.261719 199.476562 155.148438 199.410156 L 153.910156 198.691406 C 153.792969 198.625 153.59375 198.632812 153.457031 198.714844 L 146.894531 202.511719 C 146.761719 202.585938 146.746094 202.703125 146.859375 202.769531 L 148.097656 203.488281 C 148.214844 203.554688 148.417969 203.542969 148.550781 203.46875 L 155.113281 199.671875 C 155.246094 199.59375 155.449219 199.585938 155.5625 199.652344 L 156.804688 200.367188 C 156.917969 200.433594 156.902344 200.550781 156.769531 200.628906 L 149.230469 204.988281 C 149.097656 205.066406 149.082031 205.183594 149.195312 205.25 L 152.09375 206.925781 C 152.207031 206.992188 152.410156 206.980469 152.542969 206.902344 L 154 206.058594 C 154.132812 205.984375 154.339844 205.972656 154.453125 206.039062 L 155.691406 206.757812 C 155.804688 206.824219 156.007812 206.8125 156.144531 206.734375 L 161.734375 203.5 C 161.871094 203.425781 161.886719 203.308594 161.773438 203.242188 L 160.53125 202.523438 C 160.417969 202.457031 160.433594 202.339844 160.566406 202.261719 L 162.023438 201.417969 C 162.160156 201.339844 162.175781 201.222656 162.0625 201.160156 L 157.507812 198.523438 C 157.394531 198.460938 157.191406 198.46875 157.058594 198.546875 Z M 154.488281 205.777344 C 154.355469 205.855469 154.152344 205.867188 154.035156 205.800781 L 152.796875 205.082031 C 152.683594 205.015625 152.699219 204.898438 152.832031 204.820312 L 158.425781 201.585938 C 158.558594 201.507812 158.761719 201.5 158.875 201.566406 L 160.117188 202.285156 C 160.230469 202.347656 160.214844 202.46875 160.078125 202.542969 Z M 154.488281 205.777344 "/>
<path style=" stroke:none;fill-rule:nonzero;fill:url(#linear26);" d="M 60.835938 63.289062 L 80.246094 52.070312 L 60.835938 40.847656 L 41.417969 52.070312 Z M 60.835938 63.289062 "/>
<path style=" stroke:none;fill-rule:nonzero;fill:url(#linear27);" d="M 80.246094 52.070312 L 80.246094 144.246094 L 60.835938 155.46875 L 60.835938 63.289062 Z M 80.246094 52.070312 "/>
<path style=" stroke:none;fill-rule:nonzero;fill:url(#linear28);" d="M 41.417969 52.070312 L 41.417969 144.246094 L 60.835938 155.46875 L 60.835938 63.289062 Z M 41.417969 52.070312 "/>
<path style=" stroke:none;fill-rule:nonzero;fill:url(#linear29);" d="M 337.53125 112.78125 L 319.515625 126.578125 L 324.59375 130.078125 L 311.117188 157.808594 L 299.878906 150.246094 L 268.296875 214.085938 L 280.574219 206.984375 L 301.910156 164.011719 L 313.050781 171.601562 L 331.082031 134.535156 L 335.601562 137.605469 Z M 337.53125 112.78125 "/>
<path style=" stroke:none;fill-rule:nonzero;fill:url(#linear30);" d="M 340.464844 114.488281 L 322.449219 128.285156 L 327.527344 131.785156 L 314.050781 159.511719 L 302.8125 151.953125 L 271.230469 215.792969 L 283.507812 208.691406 L 304.84375 165.71875 L 315.988281 173.304688 L 334.019531 136.242188 L 338.535156 139.308594 Z M 340.464844 114.488281 "/>
<path style=" stroke:none;fill-rule:nonzero;fill:url(#linear31);" d="M 271.230469 215.792969 L 268.296875 214.085938 L 299.878906 150.246094 L 302.8125 151.953125 Z M 271.230469 215.792969 "/>
<path style=" stroke:none;fill-rule:nonzero;fill:rgb(38.82353%,43.529412%,60.000002%);fill-opacity:1;" d="M 315.988281 173.304688 L 313.050781 171.601562 L 304.734375 165.9375 L 304.84375 165.71875 Z M 315.988281 173.304688 "/>
<path style=" stroke:none;fill-rule:nonzero;fill:url(#linear32);" d="M 340.464844 114.488281 L 337.53125 112.78125 L 319.515625 126.578125 L 322.449219 128.285156 Z M 340.464844 114.488281 "/>
<path style=" stroke:none;fill-rule:nonzero;fill:rgb(38.82353%,43.529412%,60.000002%);fill-opacity:1;" d="M 319.515625 126.578125 L 322.449219 128.285156 L 327.527344 131.785156 L 324.59375 130.078125 Z M 319.515625 126.578125 "/>
<path style=" stroke:none;fill-rule:nonzero;fill:rgb(6.666667%,47.843137%,94.901961%);fill-opacity:1;" d="M 198.164062 82.460938 C 198.527344 83.078125 198.324219 83.871094 197.707031 84.234375 L 194.363281 86.210938 C 193.746094 86.574219 192.953125 86.371094 192.589844 85.753906 C 192.226562 85.136719 192.433594 84.339844 193.046875 83.976562 L 196.394531 82 C 197.007812 81.636719 197.800781 81.84375 198.164062 82.460938 Z M 198.164062 82.460938 "/>
<path style=" stroke:none;fill-rule:nonzero;fill:url(#linear33);" d="M 162.914062 158.710938 C 162.914062 159.503906 163.304688 160.300781 164.089844 160.757812 L 175.351562 167.285156 C 176.078125 167.707031 176.976562 167.707031 177.707031 167.285156 L 211.21875 147.902344 C 212.003906 147.449219 212.394531 146.652344 212.394531 145.859375 L 212.394531 143.476562 L 162.949219 156.324219 L 162.910156 158.707031 Z M 162.914062 158.710938 "/>
<path style=" stroke:none;fill-rule:nonzero;fill:url(#linear34);" d="M 164.089844 158.371094 L 175.351562 164.902344 C 176.082031 165.324219 176.976562 165.324219 177.703125 164.902344 L 211.21875 145.523438 C 212.792969 144.617188 212.792969 142.339844 211.21875 141.433594 L 199.960938 134.902344 C 199.230469 134.480469 198.332031 134.480469 197.605469 134.902344 L 164.089844 154.28125 C 162.519531 155.191406 162.519531 157.464844 164.089844 158.371094 Z M 164.089844 158.371094 "/>
<path style=" stroke:none;fill-rule:nonzero;fill:rgb(7.843138%,50.980395%,100%);fill-opacity:1;" d="M 165.898438 147.921875 L 177.160156 154.449219 C 177.886719 154.871094 178.785156 154.871094 179.515625 154.449219 L 197.605469 144.003906 C 198.390625 143.546875 198.78125 142.75 198.78125 141.957031 L 198.78125 132.398438 Z M 165.898438 147.921875 "/>
<path style=" stroke:none;fill-rule:nonzero;fill:url(#linear35);" d="M 156.117188 146.929688 C 156.117188 147.726562 156.507812 148.519531 157.292969 148.976562 L 168.554688 155.503906 C 169.285156 155.925781 170.179688 155.925781 170.910156 155.503906 L 204.421875 136.125 C 205.207031 135.667969 205.597656 134.871094 205.597656 134.078125 L 205.597656 131.695312 L 156.152344 144.542969 L 156.113281 146.925781 Z M 156.117188 146.929688 "/>
<path style=" stroke:none;fill-rule:nonzero;fill:url(#linear36);" d="M 157.292969 146.589844 L 168.554688 153.121094 C 169.285156 153.542969 170.183594 153.542969 170.910156 153.121094 L 204.421875 133.742188 C 205.996094 132.832031 205.996094 130.558594 204.421875 129.652344 L 193.164062 123.121094 C 192.433594 122.699219 191.535156 122.699219 190.808594 123.121094 L 157.292969 142.5 C 155.722656 143.40625 155.722656 145.683594 157.292969 146.589844 Z M 157.292969 146.589844 "/>
<path style=" stroke:none;fill-rule:nonzero;fill:rgb(7.843138%,50.980395%,100%);fill-opacity:1;" d="M 159.085938 136.085938 L 170.347656 142.613281 C 171.074219 143.035156 171.972656 143.035156 172.703125 142.613281 L 190.792969 132.164062 C 191.578125 131.710938 191.96875 130.914062 191.96875 130.121094 L 191.96875 120.5625 Z M 159.085938 136.085938 "/>
<path style=" stroke:none;fill-rule:nonzero;fill:url(#linear37);" d="M 149.304688 135.089844 C 149.304688 135.886719 149.695312 136.679688 150.480469 137.136719 L 161.742188 143.664062 C 162.472656 144.085938 163.367188 144.085938 164.097656 143.664062 L 197.609375 124.285156 C 198.394531 123.828125 198.785156 123.03125 198.785156 122.238281 L 198.785156 119.855469 L 149.339844 132.703125 L 149.300781 135.085938 Z M 149.304688 135.089844 "/>
<path style=" stroke:none;fill-rule:nonzero;fill:url(#linear38);" d="M 150.484375 134.75 L 161.742188 141.28125 C 162.472656 141.703125 163.371094 141.703125 164.097656 141.28125 L 197.613281 121.902344 C 199.183594 120.992188 199.183594 118.71875 197.613281 117.8125 L 186.351562 111.28125 C 185.621094 110.859375 184.722656 110.859375 183.996094 111.28125 L 150.484375 130.660156 C 148.910156 131.566406 148.910156 133.839844 150.484375 134.75 Z M 150.484375 134.75 "/>
<path style=" stroke:none;fill-rule:nonzero;fill:rgb(7.843138%,50.980395%,100%);fill-opacity:1;" d="M 152.285156 124.304688 L 163.546875 130.832031 C 164.277344 131.253906 165.171875 131.253906 165.902344 130.832031 L 183.992188 120.386719 C 184.777344 119.929688 185.171875 119.132812 185.171875 118.339844 L 185.171875 108.78125 Z M 152.285156 124.304688 "/>
<path style=" stroke:none;fill-rule:nonzero;fill:url(#linear39);" d="M 142.503906 123.308594 C 142.503906 124.105469 142.894531 124.898438 143.683594 125.355469 L 154.945312 131.882812 C 155.671875 132.304688 156.570312 132.304688 157.300781 131.882812 L 190.808594 112.503906 C 191.597656 112.046875 191.988281 111.253906 191.988281 110.457031 L 191.988281 108.074219 L 142.542969 120.921875 L 142.5 123.304688 Z M 142.503906 123.308594 "/>
<path style=" stroke:none;fill-rule:nonzero;fill:url(#linear40);" d="M 143.683594 122.96875 L 154.941406 129.5 C 155.671875 129.921875 156.570312 129.921875 157.296875 129.5 L 190.8125 110.121094 C 192.382812 109.214844 192.382812 106.9375 190.8125 106.03125 L 179.550781 99.5 C 178.820312 99.078125 177.921875 99.078125 177.195312 99.5 L 143.683594 118.878906 C 142.109375 119.789062 142.109375 122.0625 143.683594 122.96875 Z M 143.683594 122.96875 "/>
</g>
</svg>
