<svg width="40" height="40" viewBox="0 0 40 40" fill="none" xmlns="http://www.w3.org/2000/svg">
<rect x="0.5" y="0.5" width="39" height="39" rx="19.5" stroke="#090909"/>
<path d="M30 20.75H10C9.31667 20.75 8.75 20.1833 8.75 19.5C8.75 18.8167 9.31667 18.25 10 18.25H30C30.6833 18.25 31.25 18.8167 31.25 19.5C31.25 20.1833 30.6833 20.75 30 20.75Z" fill="#090909"/>
<path d="M21.25 9.5V29.5C21.25 30.1833 20.6833 30.75 20 30.75C19.3167 30.75 18.75 30.1833 18.75 29.5V9.5C18.75 8.81667 19.3167 8.25 20 8.25C20.6833 8.25 21.25 8.81667 21.25 9.5Z" fill="#090909"/>
</svg>
