<svg width="24" height="24" viewBox="0 0 24 24" fill="none" xmlns="http://www.w3.org/2000/svg">
<path d="M8.9101 20.6695C8.7201 20.6695 8.5301 20.5995 8.3801 20.4495C8.0901 20.1595 8.0901 19.6795 8.3801 19.3895L14.9001 12.8695C15.3801 12.3895 15.3801 11.6095 14.9001 11.1295L8.3801 4.60953C8.0901 4.31953 8.0901 3.83953 8.3801 3.54953C8.6701 3.25953 9.1501 3.25953 9.4401 3.54953L15.9601 10.0695C16.4701 10.5795 16.7601 11.2695 16.7601 11.9995C16.7601 12.7295 16.4801 13.4195 15.9601 13.9295L9.4401 20.4495C9.2901 20.5895 9.1001 20.6695 8.9101 20.6695Z" fill="white"/>
</svg>
