<svg width="40" height="40" viewBox="0 0 40 40" fill="none" xmlns="http://www.w3.org/2000/svg">
<rect x="0.5" y="0.5" width="39" height="39" rx="19.5" stroke="white"/>
<path d="M30 21.25H10C9.31667 21.25 8.75 20.6833 8.75 20C8.75 19.3167 9.31667 18.75 10 18.75H30C30.6833 18.75 31.25 19.3167 31.25 20C31.25 20.6833 30.6833 21.25 30 21.25Z" fill="white"/>
<path d="M21.25 10V30C21.25 30.6833 20.6833 31.25 20 31.25C19.3167 31.25 18.75 30.6833 18.75 30V10C18.75 9.31667 19.3167 8.75 20 8.75C20.6833 8.75 21.25 9.31667 21.25 10Z" fill="white"/>
</svg>
