<svg width="178" height="54" viewBox="0 0 178 54" fill="none" xmlns="http://www.w3.org/2000/svg">
<g clip-path="url(#clip0_113_2693)">
<path d="M27.5955 13.7857H23.6547C23.293 13.7857 22.9963 13.4874 22.9963 13.1238V9.16188C22.9963 8.79831 22.7088 8.5 22.3379 8.5H5.91598C5.55435 8.5 5.25762 8.79831 5.25762 9.16188V13.1238C5.25762 13.4874 4.96089 13.7857 4.59926 13.7857H0.658362C0.296726 13.7857 0 14.084 0 14.4476V28.981C0 29.3445 0.296726 29.6429 0.658362 29.6429H4.59926C4.96089 29.6429 5.25762 29.9412 5.25762 30.3047V34.2667C5.25762 34.6303 5.55435 34.9286 5.91598 34.9286H22.3472C22.7088 34.9286 23.0056 34.6303 23.0056 34.2667V30.3047C23.0056 29.9412 22.7088 29.6429 22.3472 29.6429H5.91598C5.55435 29.6429 5.25762 29.3445 5.25762 28.981V25.019C5.25762 24.6555 5.55435 24.3571 5.91598 24.3571H27.6048C27.9665 24.3571 28.2632 24.0588 28.2632 23.6953V14.4476C28.2632 14.084 27.9665 13.7857 27.6048 13.7857H27.5955ZM5.91598 19.0714C5.55435 19.0714 5.25762 18.7731 5.25762 18.4096V14.4476C5.25762 14.084 5.55435 13.7857 5.91598 13.7857H22.3472C22.7088 13.7857 23.0056 14.084 23.0056 14.4476V18.4096C23.0056 18.7731 22.7088 19.0714 22.3472 19.0714H5.91598Z" fill="#0309BB"/>
<path d="M114.342 8.5H110.401C110.039 8.5 109.743 8.79831 109.743 9.16188V28.981C109.743 29.3445 109.446 29.6429 109.084 29.6429H93.9697C93.6081 29.6429 93.3113 29.3445 93.3113 28.981V14.4476C93.3113 14.084 93.0146 13.7857 92.653 13.7857H88.7121C88.3504 13.7857 88.0537 13.4874 88.0537 13.1238V9.16188C88.0537 8.79831 87.757 8.5 87.3954 8.5H65.7065C65.3449 8.5 65.0481 8.79831 65.0481 9.16188V13.1238C65.0481 13.4874 64.7514 13.7857 64.3898 13.7857H60.4489C60.0873 13.7857 59.7905 14.084 59.7905 14.4476V23.6953C59.7905 24.0588 60.0873 24.3571 60.4489 24.3571H79.5043C79.8659 24.3571 80.1626 24.6555 80.1626 25.019V28.981C80.1626 29.3445 79.8659 29.6429 79.5043 29.6429H60.4489C60.0873 29.6429 59.7905 29.9412 59.7905 30.3047V34.2667C59.7905 34.6303 60.0873 34.9286 60.4489 34.9286H79.5043C79.8659 34.9286 80.1626 34.6303 80.1626 34.2667V30.3047C80.1626 29.9412 80.4594 29.6429 80.821 29.6429H84.7619C85.1235 29.6429 85.4203 29.3445 85.4203 28.981V19.7333C85.4203 19.3697 85.1235 19.0714 84.7619 19.0714H65.7065C65.3449 19.0714 65.0481 18.7731 65.0481 18.4095V14.4476C65.0481 14.084 65.3449 13.7857 65.7065 13.7857H87.3954C87.757 13.7857 88.0537 14.084 88.0537 14.4476V28.981C88.0537 29.3445 88.3504 29.6429 88.7121 29.6429H92.653C93.0146 29.6429 93.3113 29.9412 93.3113 30.3047V34.2667C93.3113 34.6303 93.6081 34.9286 93.9697 34.9286H109.084C109.446 34.9286 109.743 35.2269 109.743 35.5905V39.5524C109.743 39.916 109.446 40.2143 109.084 40.2143H93.9697C93.6081 40.2143 93.3113 40.5126 93.3113 40.8762V44.8381C93.3113 45.2017 93.6081 45.5 93.9697 45.5H109.084C109.446 45.5 109.743 45.2017 109.743 44.8381V40.8762C109.743 40.5126 110.039 40.2143 110.401 40.2143H114.342C114.703 40.2143 115 39.916 115 39.5524V9.16188C115 8.79831 114.703 8.5 114.342 8.5Z" fill="#0309BB"/>
<path d="M57.1663 13.7857H53.2254C52.8637 13.7857 52.567 13.4874 52.567 13.1238V9.16188C52.567 8.79831 52.2796 8.5 51.9087 8.5H34.17C33.8083 8.5 33.5116 8.79831 33.5116 9.16188V13.1238C33.5116 13.4874 33.8083 13.7857 34.17 13.7857H51.9087C52.2703 13.7857 52.567 14.084 52.567 14.4476V18.4096C52.567 18.7731 52.2703 19.0714 51.9087 19.0714H31.5365C31.1749 19.0714 30.8782 19.3697 30.8782 19.7333V28.981C30.8782 29.3445 31.1749 29.6429 31.5365 29.6429H35.4774C35.8391 29.6429 36.1358 29.9412 36.1358 30.3047V34.2667C36.1358 34.6303 36.4325 34.9286 36.7942 34.9286H51.9087C52.2703 34.9286 52.567 34.6303 52.567 34.2667V30.3047C52.567 29.9412 52.8637 29.6429 53.2254 29.6429H57.1663C57.5279 29.6429 57.8246 29.3445 57.8246 28.981V14.4476C57.8246 14.084 57.5279 13.7857 57.1663 13.7857ZM36.7942 29.6429C36.4325 29.6429 36.1358 29.3445 36.1358 28.981V25.019C36.1358 24.6555 36.4325 24.3571 36.7942 24.3571H51.9087C52.2703 24.3571 52.567 24.6555 52.567 25.019V28.981C52.567 29.3445 52.2703 29.6429 51.9087 29.6429H36.7942Z" fill="#0309BB"/>
</g>
<rect x="125" y="7" width="2" height="40" fill="#0309BB"/>
<path d="M141.799 11.7168H138.695L138.053 14H137.137L140.008 4.19727H140.473L143.357 14H142.448L141.799 11.7168ZM138.935 10.876H141.566L140.274 6.35742L140.247 5.99512L140.22 6.35742L138.935 10.876ZM144.615 14V4.19727H145.456V14H144.615ZM147.705 14V4.19727H148.546V14H147.705ZM142.236 32L141.771 31.3027C141.58 31.5534 141.341 31.7562 141.054 31.9111C140.767 32.0615 140.452 32.1367 140.11 32.1367H139.898C139.616 32.1367 139.349 32.0843 139.099 31.9795C138.848 31.8701 138.629 31.722 138.442 31.5352C138.256 31.3483 138.107 31.1296 137.998 30.8789C137.893 30.6283 137.841 30.3617 137.841 30.0791V30.0107C137.841 29.7282 137.893 29.4616 137.998 29.2109C138.107 28.9603 138.256 28.7415 138.442 28.5547C138.629 28.3678 138.848 28.222 139.099 28.1172C139.349 28.0078 139.616 27.9531 139.898 27.9531H141.676V26.873C141.676 26.7044 141.644 26.5472 141.58 26.4014C141.516 26.251 141.43 26.1211 141.32 26.0117C141.211 25.9023 141.081 25.8158 140.931 25.752C140.785 25.6882 140.628 25.6562 140.459 25.6562H139.967C139.798 25.6562 139.639 25.6882 139.488 25.752C139.342 25.8158 139.215 25.9023 139.105 26.0117C138.996 26.1211 138.91 26.251 138.846 26.4014C138.782 26.5472 138.75 26.7044 138.75 26.873V27.126L137.909 26.9893V26.9209C137.909 26.6383 137.962 26.3717 138.066 26.1211C138.176 25.8704 138.324 25.6517 138.511 25.4648C138.698 25.278 138.916 25.1322 139.167 25.0273C139.418 24.918 139.684 24.8633 139.967 24.8633H140.459C140.742 24.8633 141.008 24.918 141.259 25.0273C141.509 25.1322 141.728 25.278 141.915 25.4648C142.102 25.6517 142.248 25.8704 142.353 26.1211C142.462 26.3717 142.517 26.6383 142.517 26.9209V32H142.236ZM141.676 28.6094H139.898C139.73 28.6094 139.57 28.6413 139.42 28.7051C139.274 28.7689 139.146 28.8577 139.037 28.9717C138.928 29.0811 138.841 29.2109 138.777 29.3613C138.714 29.5072 138.682 29.6644 138.682 29.833V30.127C138.682 30.2956 138.714 30.4551 138.777 30.6055C138.841 30.7513 138.928 30.8789 139.037 30.9883C139.146 31.0977 139.274 31.1842 139.42 31.248C139.57 31.3118 139.73 31.3438 139.898 31.3438H140.459C140.628 31.3438 140.785 31.3118 140.931 31.248C141.081 31.1842 141.211 31.0977 141.32 30.9883C141.43 30.8789 141.516 30.7513 141.58 30.6055C141.644 30.4551 141.676 30.2956 141.676 30.127V28.6094ZM148.874 30.0791C148.874 30.3617 148.819 30.6283 148.71 30.8789C148.605 31.1296 148.459 31.3483 148.272 31.5352C148.086 31.722 147.867 31.8701 147.616 31.9795C147.366 32.0843 147.099 32.1367 146.816 32.1367H146.256C145.973 32.1367 145.707 32.0843 145.456 31.9795C145.205 31.8701 144.987 31.722 144.8 31.5352C144.613 31.3483 144.465 31.1296 144.355 30.8789C144.251 30.6283 144.198 30.3617 144.198 30.0791V22.1973H145.039V25.5879C145.23 25.36 145.461 25.1823 145.729 25.0547C145.998 24.9271 146.29 24.8633 146.604 24.8633H146.816C147.099 24.8633 147.366 24.918 147.616 25.0273C147.867 25.1322 148.086 25.278 148.272 25.4648C148.459 25.6517 148.605 25.8704 148.71 26.1211C148.819 26.3717 148.874 26.6383 148.874 26.9209V30.0791ZM148.033 26.873C148.033 26.7044 148.001 26.5472 147.938 26.4014C147.874 26.251 147.787 26.1211 147.678 26.0117C147.568 25.9023 147.438 25.8158 147.288 25.752C147.142 25.6882 146.985 25.6562 146.816 25.6562H146.256C146.087 25.6562 145.928 25.6882 145.777 25.752C145.632 25.8158 145.504 25.9023 145.395 26.0117C145.285 26.1211 145.199 26.251 145.135 26.4014C145.071 26.5472 145.039 26.7044 145.039 26.873V30.127C145.039 30.2956 145.071 30.4551 145.135 30.6055C145.199 30.7513 145.285 30.8789 145.395 30.9883C145.504 31.0977 145.632 31.1842 145.777 31.248C145.928 31.3118 146.087 31.3438 146.256 31.3438H146.816C146.985 31.3438 147.142 31.3118 147.288 31.248C147.438 31.1842 147.568 31.0977 147.678 30.9883C147.787 30.8789 147.874 30.7513 147.938 30.6055C148.001 30.4551 148.033 30.2956 148.033 30.127V26.873ZM155.231 30.0791C155.231 30.3617 155.177 30.6283 155.067 30.8789C154.963 31.1296 154.817 31.3483 154.63 31.5352C154.443 31.722 154.224 31.8701 153.974 31.9795C153.723 32.0843 153.456 32.1367 153.174 32.1367H152.613C152.331 32.1367 152.064 32.0843 151.813 31.9795C151.563 31.8701 151.344 31.722 151.157 31.5352C150.97 31.3483 150.822 31.1296 150.713 30.8789C150.608 30.6283 150.556 30.3617 150.556 30.0791V26.9209C150.556 26.6383 150.608 26.3717 150.713 26.1211C150.822 25.8704 150.97 25.6517 151.157 25.4648C151.344 25.278 151.563 25.1322 151.813 25.0273C152.064 24.918 152.331 24.8633 152.613 24.8633H153.174C153.456 24.8633 153.723 24.918 153.974 25.0273C154.224 25.1322 154.443 25.278 154.63 25.4648C154.817 25.6517 154.963 25.8704 155.067 26.1211C155.177 26.3717 155.231 26.6383 155.231 26.9209V30.0791ZM154.391 26.873C154.391 26.7044 154.359 26.5472 154.295 26.4014C154.231 26.251 154.145 26.1211 154.035 26.0117C153.926 25.9023 153.796 25.8158 153.646 25.752C153.5 25.6882 153.342 25.6562 153.174 25.6562H152.613C152.445 25.6562 152.285 25.6882 152.135 25.752C151.989 25.8158 151.861 25.9023 151.752 26.0117C151.643 26.1211 151.556 26.251 151.492 26.4014C151.428 26.5472 151.396 26.7044 151.396 26.873V30.127C151.396 30.2956 151.428 30.4551 151.492 30.6055C151.556 30.7513 151.643 30.8789 151.752 30.9883C151.861 31.0977 151.989 31.1842 152.135 31.248C152.285 31.3118 152.445 31.3438 152.613 31.3438H153.174C153.342 31.3438 153.5 31.3118 153.646 31.248C153.796 31.1842 153.926 31.0977 154.035 30.9883C154.145 30.8789 154.231 30.7513 154.295 30.6055C154.359 30.4551 154.391 30.2956 154.391 30.127V26.873ZM161.309 32L160.844 31.2891C160.652 31.5488 160.413 31.7562 160.126 31.9111C159.839 32.0615 159.524 32.1367 159.183 32.1367H158.971C158.688 32.1367 158.422 32.0843 158.171 31.9795C157.92 31.8701 157.701 31.722 157.515 31.5352C157.328 31.3483 157.18 31.1296 157.07 30.8789C156.965 30.6283 156.913 30.3617 156.913 30.0791V25H157.754V30.127C157.754 30.2956 157.786 30.4551 157.85 30.6055C157.913 30.7513 158 30.8789 158.109 30.9883C158.219 31.0977 158.346 31.1842 158.492 31.248C158.643 31.3118 158.802 31.3438 158.971 31.3438H159.531C159.7 31.3438 159.857 31.3118 160.003 31.248C160.153 31.1842 160.283 31.0977 160.393 30.9883C160.502 30.8789 160.589 30.7513 160.652 30.6055C160.716 30.4551 160.748 30.2956 160.748 30.127V25H161.589V32H161.309ZM165.82 32C165.565 32 165.324 31.9521 165.096 31.8564C164.872 31.7607 164.676 31.6286 164.508 31.46C164.344 31.2913 164.212 31.0954 164.111 30.8721C164.016 30.6488 163.968 30.4095 163.968 30.1543V25.7998H162.71V25H163.968V23.3184L164.809 23.1816V25H166.586V25.7998H164.809V30.1953C164.809 30.3366 164.834 30.4688 164.884 30.5918C164.938 30.7103 165.011 30.8151 165.103 30.9062C165.194 30.9974 165.301 31.0703 165.424 31.125C165.547 31.1751 165.679 31.2002 165.82 31.2002H166.586V32H165.82ZM143.733 50H143.275L141.635 44.7227L141.607 44.3604L141.58 44.7227L139.939 50H139.475L137.137 43H137.991L139.659 48.291L139.687 48.6533L139.714 48.291L141.354 43H141.86L143.494 48.291L143.521 48.6533L143.549 48.291L145.217 43H146.071L143.733 50ZM151.731 48.0791C151.731 48.3617 151.677 48.6283 151.567 48.8789C151.463 49.1296 151.317 49.3483 151.13 49.5352C150.943 49.722 150.724 49.8701 150.474 49.9795C150.223 50.0843 149.956 50.1367 149.674 50.1367H149.113C148.831 50.1367 148.564 50.0843 148.313 49.9795C148.063 49.8701 147.844 49.722 147.657 49.5352C147.47 49.3483 147.322 49.1296 147.213 48.8789C147.108 48.6283 147.056 48.3617 147.056 48.0791V44.9209C147.056 44.6383 147.108 44.3717 147.213 44.1211C147.322 43.8704 147.47 43.6517 147.657 43.4648C147.844 43.278 148.063 43.1322 148.313 43.0273C148.564 42.918 148.831 42.8633 149.113 42.8633H149.674C149.956 42.8633 150.223 42.918 150.474 43.0273C150.724 43.1322 150.943 43.278 151.13 43.4648C151.317 43.6517 151.463 43.8704 151.567 44.1211C151.677 44.3717 151.731 44.6383 151.731 44.9209V46.5684H147.896V48.127C147.896 48.2956 147.928 48.4551 147.992 48.6055C148.056 48.7513 148.143 48.8789 148.252 48.9883C148.361 49.0977 148.489 49.1842 148.635 49.248C148.785 49.3118 148.945 49.3438 149.113 49.3438H149.674C149.842 49.3438 150 49.3118 150.146 49.248C150.296 49.1842 150.426 49.0977 150.535 48.9883C150.645 48.8789 150.731 48.7513 150.795 48.6055C150.859 48.4551 150.891 48.2956 150.891 48.127V47.6621L151.731 47.7988V48.0791ZM150.891 44.873C150.891 44.7044 150.859 44.5472 150.795 44.4014C150.731 44.251 150.645 44.1211 150.535 44.0117C150.426 43.9023 150.296 43.8158 150.146 43.752C150 43.6882 149.842 43.6562 149.674 43.6562H149.113C148.945 43.6562 148.785 43.6882 148.635 43.752C148.489 43.8158 148.361 43.9023 148.252 44.0117C148.143 44.1211 148.056 44.251 147.992 44.4014C147.928 44.5472 147.896 44.7044 147.896 44.873V45.9121H150.891V44.873ZM158.089 48.0791C158.089 48.3617 158.034 48.6283 157.925 48.8789C157.82 49.1296 157.674 49.3483 157.487 49.5352C157.3 49.722 157.082 49.8701 156.831 49.9795C156.58 50.0843 156.314 50.1367 156.031 50.1367H155.471C155.188 50.1367 154.922 50.0843 154.671 49.9795C154.42 49.8701 154.201 49.722 154.015 49.5352C153.828 49.3483 153.68 49.1296 153.57 48.8789C153.465 48.6283 153.413 48.3617 153.413 48.0791V40.1973H154.254V43.5879C154.445 43.36 154.675 43.1823 154.944 43.0547C155.213 42.9271 155.505 42.8633 155.819 42.8633H156.031C156.314 42.8633 156.58 42.918 156.831 43.0273C157.082 43.1322 157.3 43.278 157.487 43.4648C157.674 43.6517 157.82 43.8704 157.925 44.1211C158.034 44.3717 158.089 44.6383 158.089 44.9209V48.0791ZM157.248 44.873C157.248 44.7044 157.216 44.5472 157.152 44.4014C157.089 44.251 157.002 44.1211 156.893 44.0117C156.783 43.9023 156.653 43.8158 156.503 43.752C156.357 43.6882 156.2 43.6562 156.031 43.6562H155.471C155.302 43.6562 155.143 43.6882 154.992 43.752C154.846 43.8158 154.719 43.9023 154.609 44.0117C154.5 44.1211 154.413 44.251 154.35 44.4014C154.286 44.5472 154.254 44.7044 154.254 44.873V48.127C154.254 48.2956 154.286 48.4551 154.35 48.6055C154.413 48.7513 154.5 48.8789 154.609 48.9883C154.719 49.0977 154.846 49.1842 154.992 49.248C155.143 49.3118 155.302 49.3438 155.471 49.3438H156.031C156.2 49.3438 156.357 49.3118 156.503 49.248C156.653 49.1842 156.783 49.0977 156.893 48.9883C157.002 48.8789 157.089 48.7513 157.152 48.6055C157.216 48.4551 157.248 48.2956 157.248 48.127V44.873Z" fill="#0309BB"/>
<defs>
<clipPath id="clip0_113_2693">
<rect width="115" height="37" fill="white" transform="translate(0 8.5)"/>
</clipPath>
</defs>
</svg>
