<svg width="1341" height="684" viewBox="0 0 1341 684" fill="none" xmlns="http://www.w3.org/2000/svg">
<rect width="1341" height="684" rx="8" fill="white"/>
<path fill-rule="evenodd" clip-rule="evenodd" d="M1255.39 105.872H1283.87C1287.8 105.872 1290.89 108.961 1290.89 112.894V120.057C1290.89 123.99 1287.8 127.08 1283.87 127.08H1255.81C1251.88 127.08 1248.65 130.31 1248.65 134.243V148.007C1248.65 151.94 1245.43 155.17 1241.5 155.17H1199.41C1195.48 155.17 1192.25 158.4 1192.25 162.333V190.283C1192.25 194.215 1189.02 197.446 1185.1 197.446L1164.05 197.586H1127.99C1124.48 197.586 1121.54 200.536 1121.54 204.047V274.834C1121.54 278.767 1118.31 281.997 1114.38 281.997H1051.38C1047.46 281.997 1044.23 278.767 1044.23 274.834V253.767H1037.21V317.11C1037.21 321.043 1033.99 324.273 1030.06 324.273H1002.14C998.208 324.273 994.981 327.504 994.981 331.436V359.386C994.981 363.319 991.754 366.549 987.825 366.549H952.889C948.961 366.549 945.734 363.319 945.734 359.386V331.436C945.734 327.504 942.507 324.273 938.578 324.273H917.672C913.744 324.273 910.517 327.504 910.517 331.436V373.572C910.517 377.504 907.29 380.735 903.361 380.735H868.425C864.496 380.735 861.269 377.504 861.269 373.572V317.391C861.269 313.458 858.042 310.228 854.114 310.228H840.364C836.435 310.228 833.208 306.998 833.208 303.065V289.301C833.208 285.368 829.981 282.138 826.052 282.138H790.836C786.907 282.138 783.82 285.228 783.82 289.16V296.323C783.82 300.256 786.907 303.346 790.836 303.346H818.897C822.826 303.346 826.052 306.576 826.052 310.509V345.481C826.052 349.414 822.826 352.644 818.897 352.644H741.729C737.8 352.644 734.573 349.414 734.573 345.481V296.183H727.558V352.504C727.558 356.436 730.785 359.667 734.713 359.667H776.665C780.593 359.667 783.82 362.897 783.82 366.83V387.757C783.82 391.69 780.593 394.92 776.665 394.92H762.915C758.986 394.92 755.759 398.151 755.759 402.083V472.449C755.759 476.382 752.532 479.612 748.604 479.612H734.854C730.925 479.612 727.698 482.843 727.698 486.775V514.725C727.698 518.658 724.471 521.888 720.542 521.888H657.405C653.476 521.888 650.249 518.658 650.249 514.725V387.898C650.249 383.965 647.022 380.735 643.093 380.735H572.8C568.872 380.735 565.645 377.504 565.645 373.572V296.183C565.645 292.25 568.872 289.02 572.8 289.02H714.229C717.877 289.02 720.823 286.07 720.823 282.419V274.553C720.823 270.902 717.877 267.952 714.229 267.952H671.576C667.647 267.952 664.42 264.722 664.42 260.789V261.07C664.42 257.137 661.193 253.907 657.264 253.907H622.328C618.4 253.907 615.173 257.137 615.173 261.07V260.789C615.173 264.722 611.945 267.952 608.017 267.952H586.971C585.007 267.952 583.323 267.11 582.06 265.845C579.956 263.879 579.956 261.351 579.956 260.93C579.735 256.957 579.746 255.604 579.765 253.077C579.783 250.78 579.809 247.513 579.675 240.424C579.535 236.772 580.517 234.104 587.673 234.384C594.127 234.525 594.127 232.137 594.127 228.626V211.631C594.127 207.699 597.354 204.468 601.282 204.468H615.173C619.101 204.468 622.328 201.238 622.328 197.305V183.541C622.328 179.608 625.555 176.378 629.484 176.378H685.606C689.535 176.378 692.762 173.148 692.762 169.215V126.939H685.746V162.052C685.746 165.985 682.519 169.215 678.591 169.215H643.655C639.726 169.215 636.499 165.985 636.499 162.052V141.125C636.499 137.192 639.726 133.962 643.655 133.962H657.405C661.333 133.962 664.56 130.731 664.56 126.799V98.849C664.56 94.9163 667.787 91.686 671.716 91.686H798.412C802.341 91.686 805.568 88.4556 805.568 84.523V56.4327C805.568 52.5001 808.655 49.4102 812.583 49.4102H819.739C823.667 49.4102 826.754 52.5001 826.754 56.4327V84.523C826.754 88.4556 829.981 91.686 833.91 91.686H897.047C900.976 91.686 904.203 88.4556 904.203 84.523V56.5732C904.203 52.6405 907.43 49.4102 911.359 49.4102H1045.07C1049 49.4102 1052.23 52.6405 1052.23 56.5732V84.6634C1052.23 88.596 1055.45 91.8264 1059.38 91.8264H1241.64C1246.97 91.5455 1249.64 93.3714 1249.64 96.7422V103.343C1249.64 105.923 1250.71 105.905 1253.21 105.865C1253.85 105.855 1254.57 105.843 1255.39 105.872ZM455.921 416.551H476.406C482.158 416.551 486.929 421.186 486.929 427.085V483.547C486.929 489.305 482.299 494.08 476.406 494.08H455.22C449.467 494.08 444.697 498.715 444.697 504.614V539.867C444.697 545.626 440.067 550.401 434.174 550.401H398.957C393.204 550.401 388.434 555.036 388.434 560.935V624.56C388.434 630.318 383.804 635.093 377.911 635.093H363.74C357.988 635.093 353.217 630.458 353.217 624.56V490.429C353.217 484.67 348.587 479.895 342.694 479.895H335.679C329.926 479.895 325.156 475.26 325.156 469.361V405.737C325.156 399.978 320.526 395.203 314.633 395.203H307.618C301.865 395.203 297.095 390.568 297.095 384.669V363.461C297.095 357.702 292.465 352.927 286.572 352.927H223.013C217.261 352.927 212.49 348.292 212.49 342.393V307.14C212.49 301.381 207.86 296.606 201.967 296.606H180.781C175.029 296.606 170.258 291.971 170.258 286.072V222.448C170.258 216.689 165.628 211.914 159.735 211.914H138.549C132.796 211.914 128.026 207.279 128.026 201.38V180.172C128.026 174.413 123.396 169.638 117.503 169.638H89.3016C83.5491 169.638 78.7787 174.273 78.7787 180.172V187.195C78.7787 192.953 74.1486 197.728 68.2557 197.728H40.0542C34.3017 197.728 29.5312 193.093 29.5312 187.195V118.092C29.5312 115.283 30.6537 112.615 32.618 110.649C35.5644 107.559 39.3527 107.559 40.0542 107.559C41.0362 107.559 68.318 107.629 95.6035 107.699L95.615 107.699H95.6154L95.7386 107.699C122.987 107.77 150.196 107.84 151.177 107.84C151.177 107.84 156.508 108.963 156.508 102.643V98.7102C156.508 94.7776 160.717 91.9686 163.944 91.9686H308.179C313.932 91.9686 318.702 96.6035 318.702 102.502V144.919C318.702 150.677 314.072 155.453 308.179 155.453H301.164C295.411 155.453 290.641 160.087 290.641 165.986V194.217C290.641 199.976 295.271 204.751 301.164 204.751H329.365C335.118 204.751 339.888 200.116 339.888 194.217V102.362C339.888 96.6035 344.518 91.8281 350.411 91.8281H378.613C384.365 91.8281 389.136 96.463 389.136 102.362V180.593C389.136 186.352 393.766 191.127 399.659 191.127H406.674C412.426 191.127 417.197 195.762 417.197 201.661V244.077C417.197 249.836 412.567 254.611 406.674 254.611H357.286C351.534 254.611 346.763 259.246 346.763 265.145V300.398C346.763 306.157 342.133 310.932 336.24 310.932H286.853C281.1 310.932 276.33 315.707 276.33 321.466C276.33 327.224 280.96 332 286.853 332H308.039C313.791 332 318.562 336.635 318.562 342.534V363.742C318.562 369.5 323.192 374.275 329.085 374.275H434.875C440.628 374.275 445.398 378.91 445.398 384.809V406.017C445.398 411.776 450.028 416.551 455.921 416.551ZM570.126 162.332H609.973C612.607 162.332 614.743 164.47 614.743 167.107V192.81C614.743 195.447 612.607 197.585 609.973 197.585H570.126C567.491 197.585 565.355 195.447 565.355 192.81V167.107C565.355 164.47 567.491 162.332 570.126 162.332ZM1115.08 473.012H1055.03C1050.26 473.012 1046.33 476.944 1046.33 481.72V492.394C1046.33 497.169 1042.41 501.102 1037.63 501.102H1012.8C1008.03 501.102 1004.1 505.035 1004.1 509.81V555.878C1004.1 560.653 1008.03 564.586 1012.8 564.586H1098.11C1101.19 564.586 1102.46 565.569 1102.6 568.519C1102.6 571.618 1102.56 571.829 1102.54 571.91L1102.54 571.921C1102.53 571.964 1102.53 572.009 1102.56 572.585C1102.57 572.817 1102.58 573.135 1102.6 573.575C1102.88 577.227 1106.53 578.771 1108.35 578.771H1143.29C1143.29 578.771 1146.93 578.771 1149.46 576.243C1151 574.698 1151.98 572.451 1151.98 570.064V509.95C1151.98 505.175 1148.06 501.242 1143.29 501.242H1132.62C1127.85 501.242 1123.92 497.31 1123.92 492.534V481.86C1123.92 477.085 1119.99 473.152 1115.22 473.152L1115.08 473.012ZM73.5897 367.11L47.6331 367.391L47.4928 367.251C44.5464 367.391 42.3015 365.004 42.4418 362.054L43.003 350.537C43.1433 347.868 45.3882 345.762 48.054 345.762H73.4494C76.2555 345.762 78.5004 348.009 78.5004 350.818V362.054C78.5004 364.863 76.3958 367.11 73.5897 367.11ZM554.838 176.238H526.356C524.496 176.238 522.988 177.747 522.988 179.609V194.076C522.988 195.937 524.496 197.446 526.356 197.446H554.838C556.698 197.446 558.205 195.937 558.205 194.076V179.609C558.205 177.747 556.698 176.238 554.838 176.238ZM1062.46 398.852H1090.94C1092.8 398.852 1094.31 400.361 1094.31 402.222V416.689C1094.31 418.551 1092.8 420.06 1090.94 420.06H1062.46C1060.6 420.06 1059.09 418.551 1059.09 416.689V402.222C1059.09 400.361 1060.6 398.852 1062.46 398.852ZM782.272 444.074H767.54C764.905 444.074 762.77 446.212 762.77 448.85V473.288C762.77 475.925 764.905 478.063 767.54 478.063H782.272C784.907 478.063 787.042 475.925 787.042 473.288V448.85C787.042 446.212 784.907 444.074 782.272 444.074ZM1161.1 229.75H1182.29C1186.16 229.75 1189.3 232.894 1189.3 236.773V328.347C1189.3 332.225 1186.16 335.369 1182.29 335.369H1161.1C1157.23 335.369 1154.09 332.225 1154.09 328.347V236.773C1154.09 232.894 1157.23 229.75 1161.1 229.75ZM1175.13 517.395H1168.4C1164.6 517.395 1161.52 520.476 1161.52 524.277V571.89C1161.52 575.69 1164.6 578.772 1168.4 578.772H1175.13C1178.93 578.772 1182.01 575.69 1182.01 571.89V524.277C1182.01 520.476 1178.93 517.395 1175.13 517.395ZM329.5 331.855H384.921C387.169 331.855 388.99 333.679 388.99 335.929V348.991C388.99 351.24 387.169 353.064 384.921 353.064H329.5C327.253 353.064 325.432 351.24 325.432 348.991V335.929C325.432 333.679 327.253 331.855 329.5 331.855ZM1028.79 398.852H973.374C971.126 398.852 969.305 400.675 969.305 402.925V415.987C969.305 418.236 971.126 420.06 973.374 420.06H1028.79C1031.04 420.06 1032.86 418.236 1032.86 415.987V402.925C1032.86 400.675 1031.04 398.852 1028.79 398.852ZM1132.2 585.934H1119.99C1117.51 585.934 1115.5 587.946 1115.5 590.428V602.647C1115.5 605.129 1117.51 607.142 1119.99 607.142H1132.2C1134.68 607.142 1136.69 605.129 1136.69 602.647V590.428C1136.69 587.946 1134.68 585.934 1132.2 585.934ZM1037.21 377.645H1049.42C1051.9 377.645 1053.91 379.657 1053.91 382.139V394.358C1053.91 396.84 1051.9 398.853 1049.42 398.853H1037.21C1034.73 398.853 1032.72 396.84 1032.72 394.358V382.139C1032.72 379.657 1034.73 377.645 1037.21 377.645Z" fill="#000099" fill-opacity="0.06"/>
<g filter="url(#filter0_d_1_7771)">
<path d="M240 247.293C240 243.265 243.265 240 247.293 240H405.926C409.954 240 413.219 243.265 413.219 247.293V300.171C413.219 304.199 409.954 307.464 405.926 307.464H318.985C316.878 307.464 314.875 308.375 313.49 309.962L306.103 318.426C305.376 319.258 304.082 319.258 303.356 318.426L295.969 309.962C294.584 308.375 292.58 307.464 290.474 307.464H247.293C243.265 307.464 240 304.199 240 300.171V247.293Z" fill="#1482FF"/>
</g>
<path d="M289.452 269.455H291.653V279.021C291.653 280.039 291.414 280.941 290.936 281.727C290.458 282.509 289.786 283.124 288.919 283.574C288.053 284.019 287.037 284.241 285.872 284.241C284.712 284.241 283.699 284.019 282.832 283.574C281.966 283.124 281.294 282.509 280.815 281.727C280.337 280.941 280.098 280.039 280.098 279.021V269.455H282.293V278.844C282.293 279.502 282.437 280.087 282.726 280.598C283.019 281.109 283.434 281.512 283.969 281.805C284.504 282.094 285.138 282.239 285.872 282.239C286.611 282.239 287.248 282.094 287.783 281.805C288.322 281.512 288.734 281.109 289.018 280.598C289.307 280.087 289.452 279.502 289.452 278.844V269.455ZM295.389 284.135C295.001 284.135 294.667 283.998 294.388 283.723C294.108 283.444 293.969 283.107 293.969 282.714C293.969 282.326 294.108 281.995 294.388 281.72C294.667 281.441 295.001 281.301 295.389 281.301C295.777 281.301 296.111 281.441 296.391 281.72C296.67 281.995 296.81 282.326 296.81 282.714C296.81 282.975 296.743 283.214 296.611 283.432C296.483 283.645 296.312 283.815 296.099 283.943C295.886 284.071 295.65 284.135 295.389 284.135ZM307.758 273.276C307.682 272.603 307.37 272.082 306.82 271.713C306.271 271.339 305.58 271.152 304.746 271.152C304.15 271.152 303.634 271.247 303.198 271.436C302.763 271.621 302.424 271.876 302.183 272.203C301.946 272.525 301.827 272.892 301.827 273.304C301.827 273.65 301.908 273.948 302.069 274.199C302.235 274.45 302.45 274.661 302.715 274.831C302.985 274.997 303.274 275.136 303.582 275.25C303.889 275.359 304.185 275.449 304.469 275.52L305.89 275.889C306.354 276.003 306.83 276.157 307.317 276.351C307.805 276.545 308.257 276.801 308.674 277.118C309.091 277.435 309.427 277.828 309.683 278.297C309.943 278.766 310.073 279.327 310.073 279.98C310.073 280.804 309.86 281.536 309.434 282.175C309.013 282.814 308.399 283.318 307.594 283.688C306.794 284.057 305.826 284.241 304.69 284.241C303.601 284.241 302.658 284.069 301.863 283.723C301.067 283.377 300.445 282.887 299.995 282.253C299.545 281.614 299.297 280.856 299.249 279.98H301.451C301.494 280.506 301.664 280.944 301.962 281.294C302.265 281.64 302.651 281.898 303.12 282.068C303.594 282.234 304.112 282.317 304.675 282.317C305.296 282.317 305.847 282.22 306.33 282.026C306.818 281.827 307.201 281.552 307.481 281.202C307.76 280.847 307.9 280.432 307.9 279.959C307.9 279.528 307.777 279.175 307.531 278.901C307.289 278.626 306.96 278.399 306.543 278.219C306.131 278.039 305.665 277.88 305.144 277.743L303.425 277.274C302.261 276.957 301.337 276.491 300.656 275.875C299.978 275.259 299.64 274.445 299.64 273.432C299.64 272.594 299.867 271.862 300.322 271.237C300.776 270.612 301.392 270.127 302.168 269.781C302.945 269.431 303.821 269.256 304.796 269.256C305.781 269.256 306.65 269.429 307.403 269.774C308.16 270.12 308.757 270.596 309.192 271.202C309.628 271.803 309.855 272.494 309.874 273.276H307.758ZM313.924 284.135C313.536 284.135 313.202 283.998 312.923 283.723C312.644 283.444 312.504 283.107 312.504 282.714C312.504 282.326 312.644 281.995 312.923 281.72C313.202 281.441 313.536 281.301 313.924 281.301C314.313 281.301 314.646 281.441 314.926 281.72C315.205 281.995 315.345 282.326 315.345 282.714C315.345 282.975 315.279 283.214 315.146 283.432C315.018 283.645 314.848 283.815 314.635 283.943C314.422 284.071 314.185 284.135 313.924 284.135ZM319.588 284H317.259L322.493 269.455H325.029L330.263 284H327.934L323.821 272.097H323.708L319.588 284ZM319.979 278.304H327.536V280.151H319.979V278.304Z" fill="white"/>
<g filter="url(#filter1_d_1_7771)">
<path d="M180.5 110.293C180.5 106.265 183.765 103 187.793 103H346.426C350.454 103 353.719 106.265 353.719 110.293V163.171C353.719 167.199 350.454 170.464 346.426 170.464H259.485C257.378 170.464 255.375 171.375 253.99 172.962L246.603 181.426C245.876 182.258 244.582 182.258 243.856 181.426L236.469 172.962C235.084 171.375 233.08 170.464 230.974 170.464H187.793C183.765 170.464 180.5 167.199 180.5 163.171V110.293Z" fill="white"/>
</g>
<path d="M222.179 134.185H219.963C219.878 133.711 219.719 133.295 219.487 132.935C219.255 132.575 218.971 132.269 218.635 132.018C218.299 131.768 217.922 131.578 217.506 131.45C217.094 131.322 216.656 131.259 216.192 131.259C215.354 131.259 214.603 131.469 213.94 131.891C213.282 132.312 212.761 132.93 212.378 133.744C211.999 134.559 211.81 135.553 211.81 136.727C211.81 137.911 211.999 138.91 212.378 139.724C212.761 140.539 213.285 141.154 213.947 141.571C214.61 141.988 215.356 142.196 216.185 142.196C216.644 142.196 217.08 142.134 217.491 142.011C217.908 141.884 218.285 141.696 218.621 141.45C218.957 141.204 219.241 140.903 219.473 140.548C219.71 140.188 219.873 139.777 219.963 139.312L222.179 139.32C222.061 140.035 221.831 140.693 221.49 141.294C221.154 141.891 220.721 142.407 220.19 142.842C219.665 143.273 219.063 143.607 218.386 143.844C217.709 144.08 216.971 144.199 216.17 144.199C214.911 144.199 213.789 143.901 212.804 143.304C211.819 142.703 211.043 141.843 210.474 140.726C209.911 139.608 209.629 138.276 209.629 136.727C209.629 135.174 209.913 133.841 210.482 132.729C211.05 131.611 211.826 130.754 212.811 130.158C213.796 129.556 214.916 129.256 216.17 129.256C216.942 129.256 217.662 129.367 218.33 129.589C219.002 129.807 219.606 130.129 220.141 130.555C220.676 130.977 221.118 131.493 221.469 132.104C221.819 132.71 222.056 133.403 222.179 134.185ZM227.809 144.241C227.118 144.241 226.493 144.114 225.934 143.858C225.376 143.598 224.933 143.221 224.606 142.729C224.284 142.236 224.123 141.633 224.123 140.918C224.123 140.302 224.242 139.795 224.478 139.398C224.715 139 225.035 138.685 225.437 138.453C225.84 138.221 226.289 138.046 226.787 137.928C227.284 137.809 227.79 137.719 228.306 137.658C228.96 137.582 229.49 137.52 229.897 137.473C230.305 137.421 230.6 137.338 230.785 137.224C230.97 137.111 231.062 136.926 231.062 136.67V136.621C231.062 136 230.887 135.52 230.537 135.179C230.191 134.838 229.675 134.668 228.988 134.668C228.273 134.668 227.71 134.826 227.298 135.143C226.891 135.456 226.609 135.804 226.453 136.188L224.457 135.733C224.694 135.07 225.039 134.535 225.494 134.128C225.953 133.716 226.481 133.418 227.078 133.233C227.674 133.044 228.302 132.949 228.96 132.949C229.395 132.949 229.857 133.001 230.345 133.105C230.837 133.205 231.297 133.389 231.723 133.659C232.154 133.929 232.506 134.315 232.781 134.817C233.056 135.314 233.193 135.96 233.193 136.756V144H231.119V142.509H231.034C230.896 142.783 230.69 143.053 230.416 143.318C230.141 143.583 229.788 143.804 229.358 143.979C228.927 144.154 228.411 144.241 227.809 144.241ZM228.271 142.537C228.858 142.537 229.36 142.421 229.777 142.189C230.198 141.957 230.518 141.654 230.735 141.28C230.958 140.901 231.069 140.496 231.069 140.065V138.659C230.993 138.735 230.847 138.806 230.629 138.872C230.416 138.934 230.172 138.988 229.897 139.036C229.623 139.078 229.355 139.118 229.095 139.156C228.834 139.189 228.617 139.218 228.441 139.241C228.029 139.294 227.653 139.381 227.312 139.504C226.976 139.627 226.706 139.805 226.502 140.037C226.304 140.264 226.204 140.567 226.204 140.946C226.204 141.472 226.398 141.869 226.787 142.139C227.175 142.404 227.67 142.537 228.271 142.537ZM238.145 137.523V144H236.021V133.091H238.06V134.866H238.195C238.446 134.289 238.839 133.825 239.374 133.474C239.913 133.124 240.593 132.949 241.412 132.949C242.155 132.949 242.806 133.105 243.365 133.418C243.924 133.725 244.357 134.185 244.665 134.795C244.973 135.406 245.126 136.161 245.126 137.061V144H243.003V137.317C243.003 136.526 242.797 135.908 242.385 135.463C241.973 135.013 241.407 134.788 240.688 134.788C240.195 134.788 239.757 134.895 239.374 135.108C238.995 135.321 238.694 135.634 238.472 136.045C238.254 136.453 238.145 136.945 238.145 137.523ZM251.149 144.241C250.458 144.241 249.833 144.114 249.274 143.858C248.715 143.598 248.273 143.221 247.946 142.729C247.624 142.236 247.463 141.633 247.463 140.918C247.463 140.302 247.581 139.795 247.818 139.398C248.055 139 248.375 138.685 248.777 138.453C249.179 138.221 249.629 138.046 250.126 137.928C250.624 137.809 251.13 137.719 251.646 137.658C252.3 137.582 252.83 137.52 253.237 137.473C253.644 137.421 253.94 137.338 254.125 137.224C254.31 137.111 254.402 136.926 254.402 136.67V136.621C254.402 136 254.227 135.52 253.876 135.179C253.531 134.838 253.015 134.668 252.328 134.668C251.613 134.668 251.05 134.826 250.638 135.143C250.231 135.456 249.949 135.804 249.793 136.188L247.797 135.733C248.034 135.07 248.379 134.535 248.834 134.128C249.293 133.716 249.821 133.418 250.418 133.233C251.014 133.044 251.642 132.949 252.3 132.949C252.735 132.949 253.197 133.001 253.685 133.105C254.177 133.205 254.636 133.389 255.062 133.659C255.493 133.929 255.846 134.315 256.121 134.817C256.395 135.314 256.533 135.96 256.533 136.756V144H254.459V142.509H254.374C254.236 142.783 254.03 143.053 253.756 143.318C253.481 143.583 253.128 143.804 252.697 143.979C252.267 144.154 251.75 144.241 251.149 144.241ZM251.611 142.537C252.198 142.537 252.7 142.421 253.116 142.189C253.538 141.957 253.857 141.654 254.075 141.28C254.298 140.901 254.409 140.496 254.409 140.065V138.659C254.333 138.735 254.187 138.806 253.969 138.872C253.756 138.934 253.512 138.988 253.237 139.036C252.963 139.078 252.695 139.118 252.435 139.156C252.174 139.189 251.956 139.218 251.781 139.241C251.369 139.294 250.993 139.381 250.652 139.504C250.316 139.627 250.046 139.805 249.842 140.037C249.643 140.264 249.544 140.567 249.544 140.946C249.544 141.472 249.738 141.869 250.126 142.139C250.515 142.404 251.009 142.537 251.611 142.537ZM263.445 144.213C262.564 144.213 261.778 143.988 261.087 143.538C260.4 143.084 259.861 142.437 259.468 141.599C259.079 140.757 258.885 139.746 258.885 138.567C258.885 137.388 259.082 136.379 259.475 135.541C259.873 134.703 260.417 134.062 261.108 133.616C261.8 133.171 262.583 132.949 263.459 132.949C264.136 132.949 264.681 133.062 265.093 133.29C265.509 133.512 265.831 133.773 266.059 134.071C266.291 134.369 266.471 134.632 266.598 134.859H266.726V129.455H268.85V144H266.776V142.303H266.598C266.471 142.535 266.286 142.8 266.044 143.098C265.808 143.396 265.481 143.657 265.064 143.879C264.648 144.102 264.108 144.213 263.445 144.213ZM263.914 142.402C264.525 142.402 265.041 142.241 265.462 141.919C265.888 141.592 266.21 141.14 266.428 140.562C266.65 139.985 266.762 139.312 266.762 138.545C266.762 137.788 266.653 137.125 266.435 136.557C266.217 135.989 265.898 135.546 265.476 135.229C265.055 134.911 264.534 134.753 263.914 134.753C263.275 134.753 262.742 134.919 262.316 135.25C261.89 135.581 261.568 136.034 261.35 136.607C261.137 137.179 261.03 137.826 261.03 138.545C261.03 139.275 261.139 139.93 261.357 140.513C261.575 141.095 261.897 141.557 262.323 141.898C262.754 142.234 263.284 142.402 263.914 142.402ZM275.055 144.241C274.364 144.241 273.739 144.114 273.18 143.858C272.622 143.598 272.179 143.221 271.852 142.729C271.53 142.236 271.369 141.633 271.369 140.918C271.369 140.302 271.488 139.795 271.724 139.398C271.961 139 272.281 138.685 272.683 138.453C273.086 138.221 273.536 138.046 274.033 137.928C274.53 137.809 275.036 137.719 275.553 137.658C276.206 137.582 276.736 137.52 277.143 137.473C277.551 137.421 277.847 137.338 278.031 137.224C278.216 137.111 278.308 136.926 278.308 136.67V136.621C278.308 136 278.133 135.52 277.783 135.179C277.437 134.838 276.921 134.668 276.234 134.668C275.519 134.668 274.956 134.826 274.544 135.143C274.137 135.456 273.855 135.804 273.699 136.188L271.703 135.733C271.94 135.07 272.286 134.535 272.74 134.128C273.199 133.716 273.727 133.418 274.324 133.233C274.92 133.044 275.548 132.949 276.206 132.949C276.642 132.949 277.103 133.001 277.591 133.105C278.083 133.205 278.543 133.389 278.969 133.659C279.4 133.929 279.752 134.315 280.027 134.817C280.302 135.314 280.439 135.96 280.439 136.756V144H278.365V142.509H278.28C278.143 142.783 277.937 143.053 277.662 143.318C277.387 143.583 277.035 143.804 276.604 143.979C276.173 144.154 275.657 144.241 275.055 144.241ZM275.517 142.537C276.104 142.537 276.606 142.421 277.023 142.189C277.444 141.957 277.764 141.654 277.982 141.28C278.204 140.901 278.315 140.496 278.315 140.065V138.659C278.24 138.735 278.093 138.806 277.875 138.872C277.662 138.934 277.418 138.988 277.143 139.036C276.869 139.078 276.601 139.118 276.341 139.156C276.08 139.189 275.863 139.218 275.688 139.241C275.276 139.294 274.899 139.381 274.558 139.504C274.222 139.627 273.952 139.805 273.749 140.037C273.55 140.264 273.45 140.567 273.45 140.946C273.45 141.472 273.644 141.869 274.033 142.139C274.421 142.404 274.916 142.537 275.517 142.537Z" fill="black"/>
<g filter="url(#filter2_d_1_7771)">
<path d="M704.5 89.2935C704.5 85.2654 707.765 82 711.793 82H870.426C874.454 82 877.719 85.2654 877.719 89.2934V142.171C877.719 146.199 874.454 149.464 870.426 149.464H783.485C781.378 149.464 779.375 150.375 777.99 151.962L770.603 160.426C769.876 161.258 768.582 161.258 767.856 160.426L760.469 151.962C759.084 150.375 757.08 149.464 754.974 149.464H711.793C707.765 149.464 704.5 146.199 704.5 142.171V89.2935Z" fill="white"/>
</g>
<path d="M737.442 113.05C737.304 112.619 737.12 112.233 736.888 111.892C736.661 111.546 736.388 111.253 736.071 111.011C735.754 110.765 735.392 110.578 734.984 110.45C734.582 110.322 734.139 110.259 733.656 110.259C732.837 110.259 732.098 110.469 731.44 110.891C730.782 111.312 730.261 111.93 729.878 112.744C729.499 113.554 729.31 114.546 729.31 115.72C729.31 116.899 729.501 117.896 729.885 118.71C730.268 119.525 730.794 120.143 731.462 120.564C732.129 120.985 732.889 121.196 733.741 121.196C734.532 121.196 735.221 121.035 735.808 120.713C736.4 120.391 736.857 119.937 737.179 119.349C737.506 118.758 737.669 118.062 737.669 117.261L738.237 117.368H734.075V115.557H739.793V117.212C739.793 118.433 739.532 119.494 739.011 120.393C738.495 121.288 737.78 121.98 736.866 122.467C735.957 122.955 734.916 123.199 733.741 123.199C732.425 123.199 731.27 122.896 730.276 122.29C729.286 121.684 728.514 120.824 727.96 119.712C727.406 118.594 727.129 117.268 727.129 115.734C727.129 114.574 727.29 113.533 727.612 112.609C727.934 111.686 728.386 110.902 728.969 110.259C729.556 109.61 730.245 109.115 731.036 108.774C731.831 108.429 732.7 108.256 733.642 108.256C734.428 108.256 735.16 108.372 735.837 108.604C736.518 108.836 737.125 109.165 737.655 109.591C738.19 110.017 738.633 110.524 738.983 111.111C739.333 111.693 739.57 112.339 739.693 113.05H737.442ZM747.11 123.22C746.035 123.22 745.109 122.991 744.333 122.531C743.561 122.067 742.964 121.416 742.543 120.578C742.126 119.735 741.918 118.748 741.918 117.616C741.918 116.499 742.126 115.514 742.543 114.662C742.964 113.81 743.551 113.144 744.304 112.666C745.062 112.188 745.947 111.949 746.961 111.949C747.576 111.949 748.173 112.051 748.75 112.254C749.328 112.458 749.846 112.777 750.306 113.213C750.765 113.649 751.127 114.214 751.392 114.911C751.658 115.602 751.79 116.442 751.79 117.432V118.185H743.118V116.594H749.709C749.709 116.035 749.596 115.54 749.368 115.109C749.141 114.674 748.821 114.33 748.409 114.08C748.002 113.829 747.524 113.703 746.975 113.703C746.378 113.703 745.857 113.85 745.412 114.143C744.972 114.432 744.631 114.811 744.39 115.28C744.153 115.744 744.034 116.248 744.034 116.793V118.036C744.034 118.765 744.162 119.385 744.418 119.896C744.678 120.408 745.041 120.798 745.505 121.068C745.969 121.333 746.511 121.466 747.131 121.466C747.533 121.466 747.9 121.409 748.232 121.295C748.563 121.177 748.85 121.002 749.091 120.77C749.333 120.538 749.517 120.251 749.645 119.911L751.655 120.273C751.494 120.865 751.205 121.383 750.789 121.828C750.377 122.268 749.858 122.612 749.233 122.858C748.613 123.099 747.905 123.22 747.11 123.22ZM754.146 123V112.091H756.199V113.824H756.312C756.511 113.237 756.862 112.775 757.364 112.439C757.87 112.098 758.443 111.928 759.082 111.928C759.215 111.928 759.371 111.932 759.551 111.942C759.736 111.951 759.88 111.963 759.984 111.977V114.009C759.899 113.985 759.748 113.959 759.53 113.93C759.312 113.897 759.094 113.881 758.876 113.881C758.375 113.881 757.927 113.987 757.534 114.2C757.146 114.409 756.838 114.7 756.611 115.074C756.384 115.443 756.27 115.865 756.27 116.338V123H754.146ZM761.822 123V112.091H763.86V113.866H763.995C764.223 113.265 764.594 112.796 765.11 112.46C765.627 112.119 766.244 111.949 766.964 111.949C767.693 111.949 768.304 112.119 768.797 112.46C769.294 112.801 769.661 113.27 769.897 113.866H770.011C770.271 113.284 770.686 112.82 771.254 112.474C771.822 112.124 772.499 111.949 773.285 111.949C774.275 111.949 775.082 112.259 775.707 112.879C776.337 113.5 776.652 114.435 776.652 115.685V123H774.528V115.884C774.528 115.145 774.327 114.61 773.924 114.278C773.522 113.947 773.041 113.781 772.483 113.781C771.791 113.781 771.254 113.994 770.87 114.42C770.487 114.842 770.295 115.384 770.295 116.047V123H768.179V115.749C768.179 115.157 767.994 114.681 767.625 114.321C767.255 113.961 766.775 113.781 766.183 113.781C765.78 113.781 765.409 113.888 765.068 114.101C764.732 114.309 764.459 114.6 764.251 114.974C764.047 115.348 763.946 115.782 763.946 116.274V123H761.822ZM782.673 123.241C781.981 123.241 781.356 123.114 780.798 122.858C780.239 122.598 779.796 122.221 779.469 121.729C779.147 121.236 778.987 120.633 778.987 119.918C778.987 119.302 779.105 118.795 779.342 118.398C779.578 118 779.898 117.685 780.3 117.453C780.703 117.221 781.153 117.046 781.65 116.928C782.147 116.809 782.654 116.719 783.17 116.658C783.823 116.582 784.353 116.52 784.761 116.473C785.168 116.421 785.464 116.338 785.648 116.224C785.833 116.111 785.925 115.926 785.925 115.67V115.621C785.925 115 785.75 114.52 785.4 114.179C785.054 113.838 784.538 113.668 783.852 113.668C783.137 113.668 782.573 113.826 782.161 114.143C781.754 114.456 781.472 114.804 781.316 115.188L779.32 114.733C779.557 114.07 779.903 113.535 780.357 113.128C780.817 112.716 781.344 112.418 781.941 112.233C782.538 112.044 783.165 111.949 783.823 111.949C784.259 111.949 784.72 112.001 785.208 112.105C785.701 112.205 786.16 112.389 786.586 112.659C787.017 112.929 787.37 113.315 787.644 113.817C787.919 114.314 788.056 114.96 788.056 115.756V123H785.982V121.509H785.897C785.76 121.783 785.554 122.053 785.279 122.318C785.004 122.583 784.652 122.804 784.221 122.979C783.79 123.154 783.274 123.241 782.673 123.241ZM783.134 121.537C783.721 121.537 784.223 121.421 784.64 121.189C785.061 120.957 785.381 120.654 785.599 120.28C785.821 119.901 785.933 119.496 785.933 119.065V117.659C785.857 117.735 785.71 117.806 785.492 117.872C785.279 117.934 785.035 117.988 784.761 118.036C784.486 118.078 784.219 118.118 783.958 118.156C783.698 118.189 783.48 118.218 783.305 118.241C782.893 118.294 782.516 118.381 782.175 118.504C781.839 118.627 781.569 118.805 781.366 119.037C781.167 119.264 781.067 119.567 781.067 119.946C781.067 120.472 781.262 120.869 781.65 121.139C782.038 121.404 782.533 121.537 783.134 121.537ZM793.008 116.523V123H790.885V112.091H792.923V113.866H793.058C793.309 113.289 793.702 112.825 794.237 112.474C794.777 112.124 795.456 111.949 796.275 111.949C797.019 111.949 797.67 112.105 798.228 112.418C798.787 112.725 799.22 113.185 799.528 113.795C799.836 114.406 799.99 115.161 799.99 116.061V123H797.866V116.317C797.866 115.526 797.66 114.908 797.248 114.463C796.836 114.013 796.27 113.788 795.551 113.788C795.058 113.788 794.62 113.895 794.237 114.108C793.858 114.321 793.557 114.634 793.335 115.045C793.117 115.453 793.008 115.945 793.008 116.523ZM803.789 127.091C803.472 127.091 803.183 127.065 802.923 127.013C802.663 126.965 802.468 126.913 802.341 126.857L802.852 125.116C803.24 125.221 803.586 125.266 803.889 125.251C804.192 125.237 804.459 125.124 804.691 124.911C804.928 124.697 805.136 124.349 805.316 123.866L805.579 123.142L801.588 112.091H803.86L806.623 120.557H806.737L809.5 112.091H811.779L807.284 124.456C807.075 125.024 806.81 125.505 806.488 125.898C806.166 126.295 805.783 126.594 805.338 126.793C804.893 126.991 804.377 127.091 803.789 127.091Z" fill="black"/>
<g filter="url(#filter3_d_1_7771)">
<path d="M791.5 229.293C791.5 225.265 794.765 222 798.793 222H957.426C961.454 222 964.719 225.265 964.719 229.293V282.171C964.719 286.199 961.454 289.464 957.426 289.464H870.485C868.378 289.464 866.375 290.375 864.99 291.962L857.603 300.426C856.876 301.258 855.582 301.258 854.856 300.426L847.469 291.962C846.084 290.375 844.08 289.464 841.974 289.464H798.793C794.765 289.464 791.5 286.199 791.5 282.171V229.293Z" fill="white"/>
</g>
<path d="M833.442 253.05C833.304 252.619 833.12 252.233 832.888 251.892C832.661 251.546 832.388 251.253 832.071 251.011C831.754 250.765 831.392 250.578 830.984 250.45C830.582 250.322 830.139 250.259 829.656 250.259C828.837 250.259 828.098 250.469 827.44 250.891C826.782 251.312 826.261 251.93 825.878 252.744C825.499 253.554 825.31 254.546 825.31 255.72C825.31 256.899 825.501 257.896 825.885 258.71C826.268 259.525 826.794 260.143 827.462 260.564C828.129 260.985 828.889 261.196 829.741 261.196C830.532 261.196 831.221 261.035 831.808 260.713C832.4 260.391 832.857 259.937 833.179 259.349C833.506 258.758 833.669 258.062 833.669 257.261L834.237 257.368H830.075V255.557H835.793V257.212C835.793 258.433 835.532 259.494 835.011 260.393C834.495 261.288 833.78 261.98 832.866 262.467C831.957 262.955 830.916 263.199 829.741 263.199C828.425 263.199 827.27 262.896 826.276 262.29C825.286 261.684 824.514 260.824 823.96 259.712C823.406 258.594 823.129 257.268 823.129 255.734C823.129 254.574 823.29 253.533 823.612 252.609C823.934 251.686 824.386 250.902 824.969 250.259C825.556 249.61 826.245 249.115 827.036 248.774C827.831 248.429 828.7 248.256 829.642 248.256C830.428 248.256 831.16 248.372 831.837 248.604C832.518 248.836 833.125 249.165 833.655 249.591C834.19 250.017 834.633 250.524 834.983 251.111C835.333 251.693 835.57 252.339 835.693 253.05H833.442ZM838.408 263V252.091H840.461V253.824H840.574C840.773 253.237 841.123 252.775 841.625 252.439C842.132 252.098 842.705 251.928 843.344 251.928C843.477 251.928 843.633 251.932 843.813 251.942C843.998 251.951 844.142 251.963 844.246 251.977V254.009C844.161 253.985 844.009 253.959 843.792 253.93C843.574 253.897 843.356 253.881 843.138 253.881C842.636 253.881 842.189 253.987 841.796 254.2C841.408 254.409 841.1 254.7 840.873 255.074C840.645 255.443 840.532 255.865 840.532 256.338V263H838.408ZM850.395 263.22C849.32 263.22 848.394 262.991 847.618 262.531C846.846 262.067 846.25 261.416 845.828 260.578C845.411 259.735 845.203 258.748 845.203 257.616C845.203 256.499 845.411 255.514 845.828 254.662C846.25 253.81 846.837 253.144 847.589 252.666C848.347 252.188 849.232 251.949 850.246 251.949C850.861 251.949 851.458 252.051 852.036 252.254C852.613 252.458 853.132 252.777 853.591 253.213C854.05 253.649 854.412 254.214 854.678 254.911C854.943 255.602 855.075 256.442 855.075 257.432V258.185H846.403V256.594H852.994C852.994 256.035 852.881 255.54 852.653 255.109C852.426 254.674 852.107 254.33 851.695 254.08C851.287 253.829 850.809 253.703 850.26 253.703C849.663 253.703 849.143 253.85 848.697 254.143C848.257 254.432 847.916 254.811 847.675 255.28C847.438 255.744 847.32 256.248 847.32 256.793V258.036C847.32 258.765 847.447 259.385 847.703 259.896C847.964 260.408 848.326 260.798 848.79 261.068C849.254 261.333 849.796 261.466 850.416 261.466C850.819 261.466 851.186 261.409 851.517 261.295C851.848 261.177 852.135 261.002 852.376 260.77C852.618 260.538 852.803 260.251 852.93 259.911L854.94 260.273C854.779 260.865 854.491 261.383 854.074 261.828C853.662 262.268 853.143 262.612 852.518 262.858C851.898 263.099 851.19 263.22 850.395 263.22ZM862.133 263.22C861.058 263.22 860.133 262.991 859.356 262.531C858.584 262.067 857.988 261.416 857.566 260.578C857.15 259.735 856.941 258.748 856.941 257.616C856.941 256.499 857.15 255.514 857.566 254.662C857.988 253.81 858.575 253.144 859.328 252.666C860.085 252.188 860.971 251.949 861.984 251.949C862.6 251.949 863.196 252.051 863.774 252.254C864.351 252.458 864.87 252.777 865.329 253.213C865.788 253.649 866.151 254.214 866.416 254.911C866.681 255.602 866.814 256.442 866.814 257.432V258.185H858.142V256.594H864.733C864.733 256.035 864.619 255.54 864.392 255.109C864.164 254.674 863.845 254.33 863.433 254.08C863.026 253.829 862.547 253.703 861.998 253.703C861.402 253.703 860.881 253.85 860.436 254.143C859.995 254.432 859.654 254.811 859.413 255.28C859.176 255.744 859.058 256.248 859.058 256.793V258.036C859.058 258.765 859.186 259.385 859.441 259.896C859.702 260.408 860.064 260.798 860.528 261.068C860.992 261.333 861.534 261.466 862.154 261.466C862.557 261.466 862.924 261.409 863.255 261.295C863.587 261.177 863.873 261.002 864.115 260.77C864.356 260.538 864.541 260.251 864.669 259.911L866.679 260.273C866.518 260.865 866.229 261.383 865.812 261.828C865.4 262.268 864.882 262.612 864.257 262.858C863.636 263.099 862.929 263.22 862.133 263.22ZM873.765 263.22C872.709 263.22 871.8 262.981 871.038 262.503C870.28 262.02 869.698 261.355 869.29 260.507C868.883 259.66 868.68 258.689 868.68 257.595C868.68 256.487 868.888 255.509 869.305 254.662C869.721 253.81 870.308 253.144 871.066 252.666C871.824 252.188 872.716 251.949 873.744 251.949C874.572 251.949 875.311 252.103 875.96 252.411C876.608 252.714 877.131 253.14 877.529 253.689C877.932 254.238 878.171 254.88 878.246 255.614H876.18C876.066 255.102 875.806 254.662 875.398 254.293C874.996 253.923 874.456 253.739 873.779 253.739C873.187 253.739 872.669 253.895 872.224 254.207C871.783 254.515 871.44 254.955 871.194 255.528C870.948 256.097 870.825 256.769 870.825 257.545C870.825 258.341 870.945 259.027 871.187 259.605C871.428 260.183 871.769 260.63 872.21 260.947C872.655 261.265 873.178 261.423 873.779 261.423C874.182 261.423 874.546 261.35 874.873 261.203C875.204 261.052 875.481 260.836 875.704 260.557C875.931 260.277 876.09 259.941 876.18 259.548H878.246C878.171 260.254 877.941 260.884 877.558 261.438C877.174 261.991 876.66 262.427 876.016 262.744C875.377 263.062 874.627 263.22 873.765 263.22ZM885.219 263.22C884.144 263.22 883.219 262.991 882.442 262.531C881.67 262.067 881.074 261.416 880.652 260.578C880.236 259.735 880.027 258.748 880.027 257.616C880.027 256.499 880.236 255.514 880.652 254.662C881.074 253.81 881.661 253.144 882.414 252.666C883.171 252.188 884.057 251.949 885.07 251.949C885.685 251.949 886.282 252.051 886.86 252.254C887.437 252.458 887.956 252.777 888.415 253.213C888.874 253.649 889.237 254.214 889.502 254.911C889.767 255.602 889.9 256.442 889.9 257.432V258.185H881.228V256.594H887.819C887.819 256.035 887.705 255.54 887.478 255.109C887.25 254.674 886.931 254.33 886.519 254.08C886.112 253.829 885.633 253.703 885.084 253.703C884.488 253.703 883.967 253.85 883.522 254.143C883.081 254.432 882.74 254.811 882.499 255.28C882.262 255.744 882.144 256.248 882.144 256.793V258.036C882.144 258.765 882.272 259.385 882.527 259.896C882.788 260.408 883.15 260.798 883.614 261.068C884.078 261.333 884.62 261.466 885.24 261.466C885.643 261.466 886.01 261.409 886.341 261.295C886.673 261.177 886.959 261.002 887.201 260.77C887.442 260.538 887.627 260.251 887.755 259.911L889.765 260.273C889.604 260.865 889.315 261.383 888.898 261.828C888.486 262.268 887.968 262.612 887.343 262.858C886.722 263.099 886.015 263.22 885.219 263.22Z" fill="black"/>
<g filter="url(#filter4_d_1_7771)">
<path d="M1095.5 468.293C1095.5 464.265 1098.77 461 1102.79 461H1261.43C1265.45 461 1268.72 464.265 1268.72 468.293V521.171C1268.72 525.199 1265.45 528.464 1261.43 528.464H1174.48C1172.38 528.464 1170.37 529.375 1168.99 530.962L1161.6 539.426C1160.88 540.258 1159.58 540.258 1158.86 539.426L1151.47 530.962C1150.08 529.375 1148.08 528.464 1145.97 528.464H1102.79C1098.77 528.464 1095.5 525.199 1095.5 521.171V468.293Z" fill="white"/>
</g>
<path d="M1120.83 502H1118.5L1123.73 487.455H1126.27L1131.5 502H1129.17L1125.06 490.097H1124.95L1120.83 502ZM1121.22 496.304H1128.77V498.151H1121.22V496.304ZM1140.34 497.476V491.091H1142.47V502H1140.38V500.111H1140.27C1140.02 500.693 1139.62 501.179 1139.06 501.567C1138.51 501.95 1137.83 502.142 1137.01 502.142C1136.31 502.142 1135.69 501.988 1135.15 501.68C1134.62 501.368 1134.19 500.906 1133.89 500.295C1133.58 499.685 1133.43 498.929 1133.43 498.03V491.091H1135.56V497.774C1135.56 498.518 1135.76 499.109 1136.17 499.55C1136.58 499.99 1137.12 500.21 1137.78 500.21C1138.18 500.21 1138.57 500.111 1138.96 499.912C1139.36 499.713 1139.69 499.412 1139.95 499.01C1140.22 498.607 1140.35 498.096 1140.34 497.476ZM1153.5 493.754L1151.58 494.095C1151.5 493.849 1151.37 493.615 1151.19 493.392C1151.02 493.17 1150.79 492.987 1150.5 492.845C1150.2 492.703 1149.84 492.632 1149.4 492.632C1148.79 492.632 1148.29 492.767 1147.89 493.037C1147.49 493.302 1147.29 493.645 1147.29 494.067C1147.29 494.431 1147.42 494.725 1147.69 494.947C1147.96 495.17 1148.4 495.352 1149 495.494L1150.73 495.892C1151.73 496.124 1152.48 496.482 1152.98 496.964C1153.47 497.447 1153.71 498.075 1153.71 498.847C1153.71 499.5 1153.52 500.082 1153.15 500.594C1152.77 501.1 1152.25 501.498 1151.58 501.787C1150.91 502.076 1150.13 502.22 1149.25 502.22C1148.03 502.22 1147.04 501.96 1146.26 501.439C1145.49 500.913 1145.02 500.168 1144.84 499.202L1146.9 498.889C1147.02 499.424 1147.29 499.829 1147.68 500.104C1148.08 500.374 1148.6 500.509 1149.24 500.509C1149.94 500.509 1150.49 500.364 1150.91 500.075C1151.33 499.782 1151.53 499.424 1151.53 499.003C1151.53 498.662 1151.41 498.375 1151.15 498.143C1150.9 497.911 1150.51 497.736 1149.99 497.618L1148.15 497.213C1147.13 496.981 1146.37 496.612 1145.89 496.105C1145.4 495.598 1145.16 494.957 1145.16 494.18C1145.16 493.536 1145.34 492.973 1145.7 492.49C1146.06 492.007 1146.56 491.631 1147.19 491.361C1147.83 491.086 1148.56 490.949 1149.37 490.949C1150.55 490.949 1151.48 491.205 1152.16 491.716C1152.84 492.223 1153.28 492.902 1153.5 493.754ZM1161.14 491.091V492.795H1155.18V491.091H1161.14ZM1156.78 488.477H1158.9V498.797C1158.9 499.209 1158.97 499.519 1159.09 499.727C1159.21 499.931 1159.37 500.071 1159.56 500.146C1159.76 500.217 1159.98 500.253 1160.21 500.253C1160.38 500.253 1160.53 500.241 1160.66 500.217C1160.79 500.194 1160.89 500.175 1160.96 500.161L1161.34 501.915C1161.22 501.962 1161.04 502.009 1160.81 502.057C1160.59 502.109 1160.3 502.137 1159.96 502.142C1159.4 502.152 1158.88 502.052 1158.4 501.844C1157.92 501.635 1157.53 501.313 1157.23 500.878C1156.93 500.442 1156.78 499.895 1156.78 499.237V488.477ZM1163.49 502V491.091H1165.54V492.824H1165.66C1165.86 492.237 1166.21 491.775 1166.71 491.439C1167.21 491.098 1167.79 490.928 1168.43 490.928C1168.56 490.928 1168.71 490.932 1168.89 490.942C1169.08 490.951 1169.22 490.963 1169.33 490.977V493.009C1169.24 492.985 1169.09 492.959 1168.87 492.93C1168.66 492.897 1168.44 492.881 1168.22 492.881C1167.72 492.881 1167.27 492.987 1166.88 493.2C1166.49 493.409 1166.18 493.7 1165.95 494.074C1165.73 494.443 1165.61 494.865 1165.61 495.338V502H1163.49ZM1174.24 502.241C1173.55 502.241 1172.93 502.114 1172.37 501.858C1171.81 501.598 1171.37 501.221 1171.04 500.729C1170.72 500.236 1170.56 499.633 1170.56 498.918C1170.56 498.302 1170.68 497.795 1170.91 497.398C1171.15 497 1171.47 496.685 1171.87 496.453C1172.27 496.221 1172.72 496.046 1173.22 495.928C1173.72 495.809 1174.22 495.719 1174.74 495.658C1175.39 495.582 1175.92 495.52 1176.33 495.473C1176.74 495.421 1177.03 495.338 1177.22 495.224C1177.4 495.111 1177.5 494.926 1177.5 494.67V494.621C1177.5 494 1177.32 493.52 1176.97 493.179C1176.62 492.838 1176.11 492.668 1175.42 492.668C1174.71 492.668 1174.14 492.826 1173.73 493.143C1173.32 493.456 1173.04 493.804 1172.89 494.188L1170.89 493.733C1171.13 493.07 1171.47 492.535 1171.93 492.128C1172.39 491.716 1172.91 491.418 1173.51 491.233C1174.11 491.044 1174.74 490.949 1175.39 490.949C1175.83 490.949 1176.29 491.001 1176.78 491.105C1177.27 491.205 1177.73 491.389 1178.16 491.659C1178.59 491.929 1178.94 492.315 1179.21 492.817C1179.49 493.314 1179.63 493.96 1179.63 494.756V502H1177.55V500.509H1177.47C1177.33 500.783 1177.12 501.053 1176.85 501.318C1176.57 501.583 1176.22 501.804 1175.79 501.979C1175.36 502.154 1174.84 502.241 1174.24 502.241ZM1174.7 500.537C1175.29 500.537 1175.79 500.421 1176.21 500.189C1176.63 499.957 1176.95 499.654 1177.17 499.28C1177.39 498.901 1177.5 498.496 1177.5 498.065V496.659C1177.43 496.735 1177.28 496.806 1177.06 496.872C1176.85 496.934 1176.61 496.988 1176.33 497.036C1176.06 497.078 1175.79 497.118 1175.53 497.156C1175.27 497.189 1175.05 497.218 1174.88 497.241C1174.46 497.294 1174.09 497.381 1173.75 497.504C1173.41 497.627 1173.14 497.805 1172.94 498.037C1172.74 498.264 1172.64 498.567 1172.64 498.946C1172.64 499.472 1172.83 499.869 1173.22 500.139C1173.61 500.404 1174.1 500.537 1174.7 500.537ZM1184.58 487.455V502H1182.45V487.455H1184.58ZM1187.44 502V491.091H1189.56V502H1187.44ZM1188.51 489.408C1188.14 489.408 1187.82 489.285 1187.56 489.038C1187.3 488.787 1187.17 488.489 1187.17 488.143C1187.17 487.793 1187.3 487.495 1187.56 487.249C1187.82 486.998 1188.14 486.872 1188.51 486.872C1188.88 486.872 1189.19 486.998 1189.45 487.249C1189.72 487.495 1189.85 487.793 1189.85 488.143C1189.85 488.489 1189.72 488.787 1189.45 489.038C1189.19 489.285 1188.88 489.408 1188.51 489.408ZM1195.59 502.241C1194.9 502.241 1194.27 502.114 1193.72 501.858C1193.16 501.598 1192.71 501.221 1192.39 500.729C1192.07 500.236 1191.9 499.633 1191.9 498.918C1191.9 498.302 1192.02 497.795 1192.26 497.398C1192.5 497 1192.82 496.685 1193.22 496.453C1193.62 496.221 1194.07 496.046 1194.57 495.928C1195.06 495.809 1195.57 495.719 1196.09 495.658C1196.74 495.582 1197.27 495.52 1197.68 495.473C1198.09 495.421 1198.38 495.338 1198.57 495.224C1198.75 495.111 1198.84 494.926 1198.84 494.67V494.621C1198.84 494 1198.67 493.52 1198.32 493.179C1197.97 492.838 1197.46 492.668 1196.77 492.668C1196.05 492.668 1195.49 492.826 1195.08 493.143C1194.67 493.456 1194.39 493.804 1194.23 494.188L1192.24 493.733C1192.48 493.07 1192.82 492.535 1193.28 492.128C1193.73 491.716 1194.26 491.418 1194.86 491.233C1195.46 491.044 1196.08 490.949 1196.74 490.949C1197.18 490.949 1197.64 491.001 1198.13 491.105C1198.62 491.205 1199.08 491.389 1199.5 491.659C1199.93 491.929 1200.29 492.315 1200.56 492.817C1200.84 493.314 1200.97 493.96 1200.97 494.756V502H1198.9V500.509H1198.81C1198.68 500.783 1198.47 501.053 1198.2 501.318C1197.92 501.583 1197.57 501.804 1197.14 501.979C1196.71 502.154 1196.19 502.241 1195.59 502.241ZM1196.05 500.537C1196.64 500.537 1197.14 500.421 1197.56 500.189C1197.98 499.957 1198.3 499.654 1198.52 499.28C1198.74 498.901 1198.85 498.496 1198.85 498.065V496.659C1198.77 496.735 1198.63 496.806 1198.41 496.872C1198.2 496.934 1197.95 496.988 1197.68 497.036C1197.4 497.078 1197.14 497.118 1196.88 497.156C1196.62 497.189 1196.4 497.218 1196.22 497.241C1195.81 497.294 1195.43 497.381 1195.09 497.504C1194.76 497.627 1194.49 497.805 1194.28 498.037C1194.08 498.264 1193.99 498.567 1193.99 498.946C1193.99 499.472 1194.18 499.869 1194.57 500.139C1194.96 500.404 1195.45 500.537 1196.05 500.537Z" fill="black"/>
<g filter="url(#filter5_d_1_7771)">
<path d="M605.5 169.293C605.5 165.265 608.765 162 612.793 162H771.426C775.454 162 778.719 165.265 778.719 169.293V222.171C778.719 226.199 775.454 229.464 771.426 229.464H684.485C682.378 229.464 680.375 230.375 678.99 231.962L671.603 240.426C670.876 241.258 669.582 241.258 668.856 240.426L661.469 231.962C660.084 230.375 658.08 229.464 655.974 229.464H612.793C608.765 229.464 605.5 226.199 605.5 222.171V169.293Z" fill="white"/>
</g>
<path d="M639.098 203V188.455H648.118V190.344H641.293V194.776H647.472V196.658H641.293V203H639.098ZM650.51 203V192.091H652.562V193.824H652.676C652.875 193.237 653.225 192.775 653.727 192.439C654.234 192.098 654.806 191.928 655.446 191.928C655.578 191.928 655.734 191.932 655.914 191.942C656.099 191.951 656.243 191.963 656.348 191.977V194.009C656.262 193.985 656.111 193.959 655.893 193.93C655.675 193.897 655.458 193.881 655.24 193.881C654.738 193.881 654.29 193.987 653.897 194.2C653.509 194.409 653.201 194.7 652.974 195.074C652.747 195.443 652.633 195.865 652.633 196.338V203H650.51ZM661.262 203.241C660.571 203.241 659.946 203.114 659.387 202.858C658.829 202.598 658.386 202.221 658.059 201.729C657.737 201.236 657.576 200.633 657.576 199.918C657.576 199.302 657.695 198.795 657.931 198.398C658.168 198 658.488 197.685 658.89 197.453C659.293 197.221 659.743 197.046 660.24 196.928C660.737 196.809 661.243 196.719 661.76 196.658C662.413 196.582 662.943 196.52 663.35 196.473C663.758 196.421 664.054 196.338 664.238 196.224C664.423 196.111 664.515 195.926 664.515 195.67V195.621C664.515 195 664.34 194.52 663.99 194.179C663.644 193.838 663.128 193.668 662.441 193.668C661.726 193.668 661.163 193.826 660.751 194.143C660.344 194.456 660.062 194.804 659.906 195.188L657.91 194.733C658.147 194.07 658.493 193.535 658.947 193.128C659.406 192.716 659.934 192.418 660.531 192.233C661.127 192.044 661.755 191.949 662.413 191.949C662.849 191.949 663.31 192.001 663.798 192.105C664.29 192.205 664.75 192.389 665.176 192.659C665.607 192.929 665.959 193.315 666.234 193.817C666.509 194.314 666.646 194.96 666.646 195.756V203H664.572V201.509H664.487C664.35 201.783 664.144 202.053 663.869 202.318C663.594 202.583 663.242 202.804 662.811 202.979C662.38 203.154 661.864 203.241 661.262 203.241ZM661.724 201.537C662.311 201.537 662.813 201.421 663.23 201.189C663.651 200.957 663.971 200.654 664.189 200.28C664.411 199.901 664.522 199.496 664.522 199.065V197.659C664.447 197.735 664.3 197.806 664.082 197.872C663.869 197.934 663.625 197.988 663.35 198.036C663.076 198.078 662.808 198.118 662.548 198.156C662.288 198.189 662.07 198.218 661.895 198.241C661.483 198.294 661.106 198.381 660.765 198.504C660.429 198.627 660.159 198.805 659.956 199.037C659.757 199.264 659.657 199.567 659.657 199.946C659.657 200.472 659.851 200.869 660.24 201.139C660.628 201.404 661.123 201.537 661.724 201.537ZM671.598 196.523V203H669.474V192.091H671.513V193.866H671.648C671.899 193.289 672.292 192.825 672.827 192.474C673.366 192.124 674.046 191.949 674.865 191.949C675.608 191.949 676.259 192.105 676.818 192.418C677.377 192.725 677.81 193.185 678.118 193.795C678.426 194.406 678.58 195.161 678.58 196.061V203H676.456V196.317C676.456 195.526 676.25 194.908 675.838 194.463C675.426 194.013 674.86 193.788 674.141 193.788C673.648 193.788 673.21 193.895 672.827 194.108C672.448 194.321 672.147 194.634 671.925 195.045C671.707 195.453 671.598 195.945 671.598 196.523ZM686.023 203.22C684.967 203.22 684.058 202.981 683.295 202.503C682.538 202.02 681.955 201.355 681.548 200.507C681.141 199.66 680.938 198.689 680.938 197.595C680.938 196.487 681.146 195.509 681.562 194.662C681.979 193.81 682.566 193.144 683.324 192.666C684.081 192.188 684.974 191.949 686.001 191.949C686.83 191.949 687.569 192.103 688.217 192.411C688.866 192.714 689.389 193.14 689.787 193.689C690.189 194.238 690.429 194.88 690.504 195.614H688.438C688.324 195.102 688.063 194.662 687.656 194.293C687.254 193.923 686.714 193.739 686.037 193.739C685.445 193.739 684.927 193.895 684.482 194.207C684.041 194.515 683.698 194.955 683.452 195.528C683.205 196.097 683.082 196.769 683.082 197.545C683.082 198.341 683.203 199.027 683.445 199.605C683.686 200.183 684.027 200.63 684.467 200.947C684.912 201.265 685.436 201.423 686.037 201.423C686.439 201.423 686.804 201.35 687.131 201.203C687.462 201.052 687.739 200.836 687.962 200.557C688.189 200.277 688.348 199.941 688.438 199.548H690.504C690.429 200.254 690.199 200.884 689.815 201.438C689.432 201.991 688.918 202.427 688.274 202.744C687.635 203.062 686.884 203.22 686.023 203.22ZM697.477 203.22C696.402 203.22 695.476 202.991 694.7 202.531C693.928 202.067 693.332 201.416 692.91 200.578C692.493 199.735 692.285 198.748 692.285 197.616C692.285 196.499 692.493 195.514 692.91 194.662C693.332 193.81 693.919 193.144 694.672 192.666C695.429 192.188 696.315 191.949 697.328 191.949C697.943 191.949 698.54 192.051 699.118 192.254C699.695 192.458 700.214 192.777 700.673 193.213C701.132 193.649 701.494 194.214 701.76 194.911C702.025 195.602 702.157 196.442 702.157 197.432V198.185H693.485V196.594H700.076C700.076 196.035 699.963 195.54 699.735 195.109C699.508 194.674 699.189 194.33 698.777 194.08C698.369 193.829 697.891 193.703 697.342 193.703C696.745 193.703 696.225 193.85 695.779 194.143C695.339 194.432 694.998 194.811 694.757 195.28C694.52 195.744 694.402 196.248 694.402 196.793V198.036C694.402 198.765 694.529 199.385 694.785 199.896C695.046 200.408 695.408 200.798 695.872 201.068C696.336 201.333 696.878 201.466 697.498 201.466C697.901 201.466 698.268 201.409 698.599 201.295C698.931 201.177 699.217 201.002 699.458 200.77C699.7 200.538 699.885 200.251 700.012 199.911L702.022 200.273C701.861 200.865 701.573 201.383 701.156 201.828C700.744 202.268 700.225 202.612 699.6 202.858C698.98 203.099 698.272 203.22 697.477 203.22Z" fill="black"/>
<defs>
<filter id="filter0_d_1_7771" x="240" y="240" width="180.219" height="84.0503" filterUnits="userSpaceOnUse" color-interpolation-filters="sRGB">
<feFlood flood-opacity="0" result="BackgroundImageFix"/>
<feColorMatrix in="SourceAlpha" type="matrix" values="0 0 0 0 0 0 0 0 0 0 0 0 0 0 0 0 0 0 127 0" result="hardAlpha"/>
<feOffset dx="7" dy="5"/>
<feComposite in2="hardAlpha" operator="out"/>
<feColorMatrix type="matrix" values="0 0 0 0 0.294766 0 0 0 0 0.302647 0 0 0 0 0.491797 0 0 0 0.7 0"/>
<feBlend mode="normal" in2="BackgroundImageFix" result="effect1_dropShadow_1_7771"/>
<feBlend mode="normal" in="SourceGraphic" in2="effect1_dropShadow_1_7771" result="shape"/>
</filter>
<filter id="filter1_d_1_7771" x="180.5" y="103" width="180.219" height="84.0503" filterUnits="userSpaceOnUse" color-interpolation-filters="sRGB">
<feFlood flood-opacity="0" result="BackgroundImageFix"/>
<feColorMatrix in="SourceAlpha" type="matrix" values="0 0 0 0 0 0 0 0 0 0 0 0 0 0 0 0 0 0 127 0" result="hardAlpha"/>
<feOffset dx="7" dy="5"/>
<feComposite in2="hardAlpha" operator="out"/>
<feColorMatrix type="matrix" values="0 0 0 0 0.294766 0 0 0 0 0.302647 0 0 0 0 0.491797 0 0 0 0.7 0"/>
<feBlend mode="normal" in2="BackgroundImageFix" result="effect1_dropShadow_1_7771"/>
<feBlend mode="normal" in="SourceGraphic" in2="effect1_dropShadow_1_7771" result="shape"/>
</filter>
<filter id="filter2_d_1_7771" x="704.5" y="82" width="180.219" height="84.0503" filterUnits="userSpaceOnUse" color-interpolation-filters="sRGB">
<feFlood flood-opacity="0" result="BackgroundImageFix"/>
<feColorMatrix in="SourceAlpha" type="matrix" values="0 0 0 0 0 0 0 0 0 0 0 0 0 0 0 0 0 0 127 0" result="hardAlpha"/>
<feOffset dx="7" dy="5"/>
<feComposite in2="hardAlpha" operator="out"/>
<feColorMatrix type="matrix" values="0 0 0 0 0.294766 0 0 0 0 0.302647 0 0 0 0 0.491797 0 0 0 0.7 0"/>
<feBlend mode="normal" in2="BackgroundImageFix" result="effect1_dropShadow_1_7771"/>
<feBlend mode="normal" in="SourceGraphic" in2="effect1_dropShadow_1_7771" result="shape"/>
</filter>
<filter id="filter3_d_1_7771" x="791.5" y="222" width="180.219" height="84.0503" filterUnits="userSpaceOnUse" color-interpolation-filters="sRGB">
<feFlood flood-opacity="0" result="BackgroundImageFix"/>
<feColorMatrix in="SourceAlpha" type="matrix" values="0 0 0 0 0 0 0 0 0 0 0 0 0 0 0 0 0 0 127 0" result="hardAlpha"/>
<feOffset dx="7" dy="5"/>
<feComposite in2="hardAlpha" operator="out"/>
<feColorMatrix type="matrix" values="0 0 0 0 0.294766 0 0 0 0 0.302647 0 0 0 0 0.491797 0 0 0 0.7 0"/>
<feBlend mode="normal" in2="BackgroundImageFix" result="effect1_dropShadow_1_7771"/>
<feBlend mode="normal" in="SourceGraphic" in2="effect1_dropShadow_1_7771" result="shape"/>
</filter>
<filter id="filter4_d_1_7771" x="1095.5" y="461" width="180.219" height="84.0503" filterUnits="userSpaceOnUse" color-interpolation-filters="sRGB">
<feFlood flood-opacity="0" result="BackgroundImageFix"/>
<feColorMatrix in="SourceAlpha" type="matrix" values="0 0 0 0 0 0 0 0 0 0 0 0 0 0 0 0 0 0 127 0" result="hardAlpha"/>
<feOffset dx="7" dy="5"/>
<feComposite in2="hardAlpha" operator="out"/>
<feColorMatrix type="matrix" values="0 0 0 0 0.294766 0 0 0 0 0.302647 0 0 0 0 0.491797 0 0 0 0.7 0"/>
<feBlend mode="normal" in2="BackgroundImageFix" result="effect1_dropShadow_1_7771"/>
<feBlend mode="normal" in="SourceGraphic" in2="effect1_dropShadow_1_7771" result="shape"/>
</filter>
<filter id="filter5_d_1_7771" x="605.5" y="162" width="180.219" height="84.0503" filterUnits="userSpaceOnUse" color-interpolation-filters="sRGB">
<feFlood flood-opacity="0" result="BackgroundImageFix"/>
<feColorMatrix in="SourceAlpha" type="matrix" values="0 0 0 0 0 0 0 0 0 0 0 0 0 0 0 0 0 0 127 0" result="hardAlpha"/>
<feOffset dx="7" dy="5"/>
<feComposite in2="hardAlpha" operator="out"/>
<feColorMatrix type="matrix" values="0 0 0 0 0.294766 0 0 0 0 0.302647 0 0 0 0 0.491797 0 0 0 0.7 0"/>
<feBlend mode="normal" in2="BackgroundImageFix" result="effect1_dropShadow_1_7771"/>
<feBlend mode="normal" in="SourceGraphic" in2="effect1_dropShadow_1_7771" result="shape"/>
</filter>
</defs>
</svg>
