<svg width="181" height="85" viewBox="0 0 181 85" fill="none" xmlns="http://www.w3.org/2000/svg">
<g filter="url(#filter0_d_1_7787)">
<path d="M0 7.29345C0 3.26539 3.26539 0 7.29345 0H165.926C169.954 0 173.219 3.26539 173.219 7.29345V60.1709C173.219 64.199 169.954 67.4644 165.926 67.4644H78.9847C76.8783 67.4644 74.8747 68.3751 73.4897 69.9621L66.1031 78.4259C65.3765 79.2585 64.0822 79.2585 63.3556 78.4259L55.969 69.9621C54.584 68.3751 52.5804 67.4644 50.474 67.4644H7.29345C3.26539 67.4644 0 64.199 0 60.1709V7.29345Z" fill="white"/>
</g>
<path d="M49.4517 29.4545H51.6534V39.0213C51.6534 40.0393 51.4143 40.9413 50.9361 41.7273C50.4579 42.5085 49.7855 43.1241 48.919 43.5739C48.0526 44.0189 47.0369 44.2415 45.8722 44.2415C44.7121 44.2415 43.6989 44.0189 42.8324 43.5739C41.9659 43.1241 41.2936 42.5085 40.8153 41.7273C40.3371 40.9413 40.098 40.0393 40.098 39.0213V29.4545H42.2926V38.8438C42.2926 39.5019 42.437 40.0866 42.7259 40.598C43.0194 41.1094 43.4337 41.5118 43.9688 41.8054C44.5038 42.0942 45.1383 42.2386 45.8722 42.2386C46.6108 42.2386 47.2476 42.0942 47.7827 41.8054C48.3224 41.5118 48.7344 41.1094 49.0185 40.598C49.3073 40.0866 49.4517 39.5019 49.4517 38.8438V29.4545ZM55.3892 44.1349C55.0009 44.1349 54.6671 43.9976 54.3878 43.723C54.1084 43.4437 53.9688 43.1075 53.9688 42.7145C53.9688 42.3262 54.1084 41.9948 54.3878 41.7202C54.6671 41.4408 55.0009 41.3011 55.3892 41.3011C55.7775 41.3011 56.1113 41.4408 56.3906 41.7202C56.67 41.9948 56.8097 42.3262 56.8097 42.7145C56.8097 42.9749 56.7434 43.214 56.6108 43.4318C56.483 43.6449 56.3125 43.8153 56.0994 43.9432C55.8864 44.071 55.6496 44.1349 55.3892 44.1349ZM67.7578 33.2756C67.6821 32.6032 67.3696 32.0824 66.8203 31.7131C66.2711 31.339 65.5798 31.152 64.7464 31.152C64.1499 31.152 63.6338 31.2467 63.1982 31.4361C62.7625 31.6207 62.424 31.8764 62.1825 32.2031C61.9458 32.5251 61.8274 32.892 61.8274 33.304C61.8274 33.6496 61.9079 33.9479 62.0689 34.1989C62.2346 34.4498 62.45 34.6605 62.7152 34.831C62.9851 34.9967 63.2739 35.1364 63.5817 35.25C63.8894 35.3589 64.1854 35.4489 64.4695 35.5199L65.8899 35.8892C66.3539 36.0028 66.8298 36.1567 67.3175 36.3509C67.8052 36.545 68.2573 36.8007 68.674 37.1179C69.0907 37.4351 69.4268 37.8281 69.6825 38.2969C69.9429 38.7656 70.0732 39.3267 70.0732 39.9801C70.0732 40.804 69.8601 41.5355 69.4339 42.1747C69.0125 42.8139 68.3994 43.3182 67.5945 43.6875C66.7943 44.0568 65.826 44.2415 64.6896 44.2415C63.6006 44.2415 62.6584 44.0687 61.8629 43.723C61.0675 43.3774 60.4448 42.8873 59.995 42.2528C59.5452 41.6136 59.2966 40.8561 59.2493 39.9801H61.451C61.4936 40.5057 61.6641 40.9437 61.9624 41.294C62.2654 41.6397 62.6513 41.8977 63.12 42.0682C63.5935 42.2339 64.112 42.3168 64.6754 42.3168C65.2957 42.3168 65.8473 42.2197 66.3303 42.0256C66.8179 41.8267 67.2015 41.5521 67.4808 41.2017C67.7602 40.8466 67.8999 40.4323 67.8999 39.9588C67.8999 39.5279 67.7768 39.1752 67.5305 38.9006C67.2891 38.6259 66.96 38.3987 66.5433 38.2188C66.1314 38.0388 65.665 37.8802 65.1442 37.7429L63.4254 37.2741C62.2607 36.9569 61.3374 36.4905 60.6555 35.875C59.9785 35.2595 59.6399 34.4451 59.6399 33.4318C59.6399 32.5937 59.8672 31.8622 60.3217 31.2372C60.7763 30.6122 61.3918 30.1269 62.1683 29.7812C62.9448 29.4309 63.8208 29.2557 64.7962 29.2557C65.781 29.2557 66.6499 29.4285 67.4027 29.7741C68.1603 30.1198 68.7569 30.5956 69.1925 31.2017C69.6281 31.803 69.8554 32.4943 69.8743 33.2756H67.7578ZM73.9244 44.1349C73.5361 44.1349 73.2023 43.9976 72.9229 43.723C72.6436 43.4437 72.5039 43.1075 72.5039 42.7145C72.5039 42.3262 72.6436 41.9948 72.9229 41.7202C73.2023 41.4408 73.5361 41.3011 73.9244 41.3011C74.3126 41.3011 74.6464 41.4408 74.9258 41.7202C75.2051 41.9948 75.3448 42.3262 75.3448 42.7145C75.3448 42.9749 75.2785 43.214 75.146 43.4318C75.0181 43.6449 74.8477 43.8153 74.6346 43.9432C74.4215 44.071 74.1848 44.1349 73.9244 44.1349ZM79.5884 44H77.2589L82.4933 29.4545H85.0288L90.2631 44H87.9336L83.8214 32.0966H83.7077L79.5884 44ZM79.979 38.304H87.5359V40.1506H79.979V38.304Z" fill="black"/>
<defs>
<filter id="filter0_d_1_7787" x="0" y="0" width="180.219" height="84.0503" filterUnits="userSpaceOnUse" color-interpolation-filters="sRGB">
<feFlood flood-opacity="0" result="BackgroundImageFix"/>
<feColorMatrix in="SourceAlpha" type="matrix" values="0 0 0 0 0 0 0 0 0 0 0 0 0 0 0 0 0 0 127 0" result="hardAlpha"/>
<feOffset dx="7" dy="5"/>
<feComposite in2="hardAlpha" operator="out"/>
<feColorMatrix type="matrix" values="0 0 0 0 0.294766 0 0 0 0 0.302647 0 0 0 0 0.491797 0 0 0 0.7 0"/>
<feBlend mode="normal" in2="BackgroundImageFix" result="effect1_dropShadow_1_7787"/>
<feBlend mode="normal" in="SourceGraphic" in2="effect1_dropShadow_1_7787" result="shape"/>
</filter>
</defs>
</svg>
