<svg width="181" height="85" viewBox="0 0 181 85" fill="none" xmlns="http://www.w3.org/2000/svg">
<g filter="url(#filter0_d_1_7791)">
<path d="M0.5 7.29345C0.5 3.26539 3.76539 0 7.79345 0H166.426C170.454 0 173.719 3.26539 173.719 7.29345V60.1709C173.719 64.199 170.454 67.4644 166.426 67.4644H79.4847C77.3783 67.4644 75.3747 68.3751 73.9897 69.9621L66.6031 78.4259C65.8765 79.2585 64.5822 79.2585 63.8556 78.4259L56.469 69.9621C55.084 68.3751 53.0804 67.4644 50.974 67.4644H7.79345C3.76539 67.4644 0.5 64.199 0.5 60.1709V7.29345Z" fill="white"/>
</g>
<path d="M42.179 31.1847H39.9631C39.8778 30.7112 39.7192 30.2945 39.4872 29.9347C39.2552 29.5748 38.9711 29.2694 38.6349 29.0185C38.2988 28.7675 37.9223 28.5781 37.5057 28.4503C37.0938 28.3224 36.6558 28.2585 36.1918 28.2585C35.3537 28.2585 34.6032 28.4692 33.9403 28.8906C33.2822 29.312 32.7614 29.9299 32.3778 30.7443C31.9991 31.5587 31.8097 32.553 31.8097 33.7273C31.8097 34.911 31.9991 35.91 32.3778 36.7244C32.7614 37.5388 33.2846 38.1544 33.9474 38.571C34.6103 38.9877 35.3561 39.196 36.1847 39.196C36.6439 39.196 37.0795 39.1345 37.4915 39.0114C37.9081 38.8835 38.2846 38.6965 38.6207 38.4503C38.9569 38.2041 39.241 37.9034 39.473 37.5483C39.7098 37.1884 39.8731 36.7765 39.9631 36.3125L42.179 36.3196C42.0606 37.0346 41.831 37.6927 41.4901 38.294C41.1539 38.8906 40.7206 39.4067 40.1903 39.8423C39.6648 40.2732 39.0634 40.607 38.3864 40.8438C37.7093 41.0805 36.9706 41.1989 36.1705 41.1989C34.911 41.1989 33.7888 40.9006 32.804 40.304C31.8191 39.7027 31.0426 38.8433 30.4744 37.7259C29.911 36.6084 29.6293 35.2756 29.6293 33.7273C29.6293 32.1742 29.9134 30.8414 30.4815 29.7287C31.0497 28.6113 31.8262 27.7543 32.8111 27.1577C33.7959 26.5563 34.9157 26.2557 36.1705 26.2557C36.9422 26.2557 37.6619 26.367 38.3295 26.5895C39.0019 26.8073 39.6056 27.1293 40.1406 27.5554C40.6757 27.9768 41.1184 28.4929 41.4688 29.1037C41.8191 29.7098 42.0559 30.4034 42.179 31.1847ZM47.8093 41.2415C47.118 41.2415 46.493 41.1136 45.9343 40.858C45.3756 40.5975 44.9329 40.2211 44.6062 39.7287C44.2842 39.2363 44.1232 38.6326 44.1232 37.9176C44.1232 37.3021 44.2416 36.7955 44.4783 36.3977C44.7151 36 45.0347 35.6851 45.4371 35.4531C45.8396 35.2211 46.2894 35.0459 46.7866 34.9276C47.2837 34.8092 47.7904 34.7192 48.3065 34.6577C48.9599 34.5819 49.4902 34.5204 49.8974 34.473C50.3046 34.4209 50.6005 34.3381 50.7852 34.2244C50.9698 34.1108 51.0621 33.9261 51.0621 33.6705V33.6207C51.0621 33.0005 50.887 32.5199 50.5366 32.179C50.1909 31.8381 49.6748 31.6676 48.9883 31.6676C48.2733 31.6676 47.7099 31.8262 47.2979 32.1435C46.8907 32.456 46.609 32.804 46.4528 33.1875L44.457 32.733C44.6938 32.0701 45.0394 31.535 45.494 31.1278C45.9532 30.7159 46.4812 30.4176 47.0778 30.233C47.6744 30.0436 48.3017 29.9489 48.9599 29.9489C49.3955 29.9489 49.8571 30.0009 50.3448 30.1051C50.8372 30.2045 51.2965 30.3892 51.7227 30.6591C52.1535 30.929 52.5063 31.3149 52.7809 31.8168C53.0555 32.3139 53.1928 32.9602 53.1928 33.7557V41H51.119V39.5085H51.0337C50.8964 39.7831 50.6905 40.053 50.4158 40.3182C50.1412 40.5833 49.7885 40.8035 49.3576 40.9787C48.9267 41.1539 48.4106 41.2415 47.8093 41.2415ZM48.271 39.5369C48.8581 39.5369 49.36 39.4209 49.7766 39.1889C50.198 38.9569 50.5176 38.6539 50.7354 38.2798C50.958 37.901 51.0692 37.4962 51.0692 37.0653V35.6591C50.9935 35.7348 50.8467 35.8059 50.6289 35.8722C50.4158 35.9337 50.172 35.9882 49.8974 36.0355C49.6228 36.0781 49.3552 36.1184 49.0948 36.1562C48.8344 36.1894 48.6166 36.2178 48.4414 36.2415C48.0295 36.2936 47.6531 36.3812 47.3121 36.5043C46.976 36.6274 46.7061 36.8049 46.5025 37.0369C46.3036 37.2642 46.2042 37.5672 46.2042 37.946C46.2042 38.4716 46.3983 38.8693 46.7866 39.1392C47.1748 39.4044 47.6696 39.5369 48.271 39.5369ZM58.1449 34.5227V41H56.0213V30.0909H58.0597V31.8665H58.1946C58.4455 31.2888 58.8385 30.8248 59.3736 30.4744C59.9134 30.1241 60.5928 29.9489 61.4119 29.9489C62.1553 29.9489 62.8063 30.1051 63.3651 30.4176C63.9238 30.7254 64.357 31.1847 64.6648 31.7955C64.9725 32.4062 65.1264 33.1615 65.1264 34.0611V41H63.0028V34.3168C63.0028 33.526 62.7969 32.9081 62.3849 32.4631C61.973 32.0133 61.4072 31.7884 60.6875 31.7884C60.1951 31.7884 59.7571 31.8949 59.3736 32.108C58.9948 32.321 58.6941 32.6335 58.4716 33.0455C58.2538 33.4527 58.1449 33.9451 58.1449 34.5227ZM71.1491 41.2415C70.4579 41.2415 69.8329 41.1136 69.2741 40.858C68.7154 40.5975 68.2727 40.2211 67.946 39.7287C67.6241 39.2363 67.4631 38.6326 67.4631 37.9176C67.4631 37.3021 67.5814 36.7955 67.8182 36.3977C68.0549 36 68.3745 35.6851 68.777 35.4531C69.1795 35.2211 69.6293 35.0459 70.1264 34.9276C70.6236 34.8092 71.1302 34.7192 71.6463 34.6577C72.2997 34.5819 72.83 34.5204 73.2372 34.473C73.6444 34.4209 73.9403 34.3381 74.125 34.2244C74.3097 34.1108 74.402 33.9261 74.402 33.6705V33.6207C74.402 33.0005 74.2268 32.5199 73.8764 32.179C73.5308 31.8381 73.0147 31.6676 72.3281 31.6676C71.6132 31.6676 71.0497 31.8262 70.6378 32.1435C70.2306 32.456 69.9489 32.804 69.7926 33.1875L67.7969 32.733C68.0336 32.0701 68.3793 31.535 68.8338 31.1278C69.2931 30.7159 69.821 30.4176 70.4176 30.233C71.0142 30.0436 71.6416 29.9489 72.2997 29.9489C72.7353 29.9489 73.197 30.0009 73.6847 30.1051C74.1771 30.2045 74.6364 30.3892 75.0625 30.6591C75.4934 30.929 75.8461 31.3149 76.1207 31.8168C76.3954 32.3139 76.5327 32.9602 76.5327 33.7557V41H74.4588V39.5085H74.3736C74.2363 39.7831 74.0303 40.053 73.7557 40.3182C73.4811 40.5833 73.1283 40.8035 72.6974 40.9787C72.2666 41.1539 71.7505 41.2415 71.1491 41.2415ZM71.6108 39.5369C72.1979 39.5369 72.6998 39.4209 73.1165 39.1889C73.5379 38.9569 73.8575 38.6539 74.0753 38.2798C74.2978 37.901 74.4091 37.4962 74.4091 37.0653V35.6591C74.3333 35.7348 74.1866 35.8059 73.9688 35.8722C73.7557 35.9337 73.5118 35.9882 73.2372 36.0355C72.9626 36.0781 72.6951 36.1184 72.4347 36.1562C72.1742 36.1894 71.9564 36.2178 71.7812 36.2415C71.3693 36.2936 70.9929 36.3812 70.652 36.5043C70.3158 36.6274 70.0459 36.8049 69.8423 37.0369C69.6435 37.2642 69.544 37.5672 69.544 37.946C69.544 38.4716 69.7382 38.8693 70.1264 39.1392C70.5147 39.4044 71.0095 39.5369 71.6108 39.5369ZM83.445 41.2131C82.5643 41.2131 81.7783 40.9882 81.087 40.5384C80.4004 40.0838 79.8607 39.4375 79.4677 38.5994C79.0794 37.7566 78.8853 36.7457 78.8853 35.5668C78.8853 34.3878 79.0818 33.3793 79.4748 32.5412C79.8725 31.7031 80.417 31.0616 81.1083 30.6165C81.7996 30.1714 82.5832 29.9489 83.4592 29.9489C84.1362 29.9489 84.6808 30.0625 85.0927 30.2898C85.5094 30.5123 85.8313 30.7727 86.0586 31.071C86.2906 31.3693 86.4705 31.6321 86.5984 31.8594H86.7262V26.4545H88.8498V41H86.7759V39.3026H86.5984C86.4705 39.5346 86.2859 39.7997 86.0444 40.098C85.8076 40.3963 85.4809 40.6567 85.0643 40.8793C84.6476 41.1018 84.1078 41.2131 83.445 41.2131ZM83.9137 39.402C84.5245 39.402 85.0406 39.241 85.462 38.919C85.8881 38.5923 86.2101 38.1402 86.4279 37.5625C86.6504 36.9848 86.7617 36.3125 86.7617 35.5455C86.7617 34.7879 86.6528 34.125 86.435 33.5568C86.2172 32.9886 85.8976 32.5459 85.4762 32.2287C85.0548 31.9115 84.534 31.7528 83.9137 31.7528C83.2745 31.7528 82.7418 31.9186 82.3157 32.25C81.8896 32.5814 81.5676 33.0336 81.3498 33.6065C81.1367 34.1795 81.0302 34.8258 81.0302 35.5455C81.0302 36.2746 81.1391 36.9304 81.3569 37.5128C81.5747 38.0952 81.8967 38.5568 82.3228 38.8977C82.7537 39.2339 83.284 39.402 83.9137 39.402ZM95.0554 41.2415C94.3641 41.2415 93.7391 41.1136 93.1804 40.858C92.6217 40.5975 92.179 40.2211 91.8523 39.7287C91.5303 39.2363 91.3693 38.6326 91.3693 37.9176C91.3693 37.3021 91.4877 36.7955 91.7244 36.3977C91.9612 36 92.2808 35.6851 92.6832 35.4531C93.0857 35.2211 93.5355 35.0459 94.0327 34.9276C94.5298 34.8092 95.0365 34.7192 95.5526 34.6577C96.206 34.5819 96.7363 34.5204 97.1435 34.473C97.5507 34.4209 97.8466 34.3381 98.0312 34.2244C98.2159 34.1108 98.3082 33.9261 98.3082 33.6705V33.6207C98.3082 33.0005 98.133 32.5199 97.7827 32.179C97.437 31.8381 96.9209 31.6676 96.2344 31.6676C95.5194 31.6676 94.956 31.8262 94.544 32.1435C94.1368 32.456 93.8551 32.804 93.6989 33.1875L91.7031 32.733C91.9399 32.0701 92.2855 31.535 92.7401 31.1278C93.1993 30.7159 93.7273 30.4176 94.3239 30.233C94.9205 30.0436 95.5478 29.9489 96.206 29.9489C96.6416 29.9489 97.1032 30.0009 97.5909 30.1051C98.0833 30.2045 98.5426 30.3892 98.9688 30.6591C99.3996 30.929 99.7524 31.3149 100.027 31.8168C100.302 32.3139 100.439 32.9602 100.439 33.7557V41H98.3651V39.5085H98.2798C98.1425 39.7831 97.9366 40.053 97.6619 40.3182C97.3873 40.5833 97.0346 40.8035 96.6037 40.9787C96.1728 41.1539 95.6567 41.2415 95.0554 41.2415ZM95.517 39.5369C96.1042 39.5369 96.6061 39.4209 97.0227 39.1889C97.4441 38.9569 97.7637 38.6539 97.9815 38.2798C98.2041 37.901 98.3153 37.4962 98.3153 37.0653V35.6591C98.2396 35.7348 98.0928 35.8059 97.875 35.8722C97.6619 35.9337 97.4181 35.9882 97.1435 36.0355C96.8688 36.0781 96.6013 36.1184 96.3409 36.1562C96.0805 36.1894 95.8627 36.2178 95.6875 36.2415C95.2756 36.2936 94.8991 36.3812 94.5582 36.5043C94.2221 36.6274 93.9522 36.8049 93.7486 37.0369C93.5497 37.2642 93.4503 37.5672 93.4503 37.946C93.4503 38.4716 93.6444 38.8693 94.0327 39.1392C94.4209 39.4044 94.9157 39.5369 95.517 39.5369Z" fill="black"/>
<defs>
<filter id="filter0_d_1_7791" x="0.5" y="0" width="180.219" height="84.0503" filterUnits="userSpaceOnUse" color-interpolation-filters="sRGB">
<feFlood flood-opacity="0" result="BackgroundImageFix"/>
<feColorMatrix in="SourceAlpha" type="matrix" values="0 0 0 0 0 0 0 0 0 0 0 0 0 0 0 0 0 0 127 0" result="hardAlpha"/>
<feOffset dx="7" dy="5"/>
<feComposite in2="hardAlpha" operator="out"/>
<feColorMatrix type="matrix" values="0 0 0 0 0.294766 0 0 0 0 0.302647 0 0 0 0 0.491797 0 0 0 0.7 0"/>
<feBlend mode="normal" in2="BackgroundImageFix" result="effect1_dropShadow_1_7791"/>
<feBlend mode="normal" in="SourceGraphic" in2="effect1_dropShadow_1_7791" result="shape"/>
</filter>
</defs>
</svg>
