<svg width="181" height="85" viewBox="0 0 181 85" fill="none" xmlns="http://www.w3.org/2000/svg">
<g filter="url(#filter0_d_1_7787)">
<path d="M0 7.29345C0 3.26539 3.26539 0 7.29345 0H165.926C169.954 0 173.219 3.26539 173.219 7.29345V60.1709C173.219 64.199 169.954 67.4644 165.926 67.4644H78.9847C76.8783 67.4644 74.8747 68.3751 73.4897 69.9621L66.1031 78.4259C65.3765 79.2585 64.0822 79.2585 63.3556 78.4259L55.969 69.9621C54.584 68.3751 52.5804 67.4644 50.474 67.4644H7.29345C3.26539 67.4644 0 64.199 0 60.1709V7.29345Z" fill="#1482FF"/>
</g>
<path d="M32.9418 34.0497C32.8045 33.6188 32.6198 33.233 32.3878 32.892C32.1605 32.5464 31.8883 32.2528 31.571 32.0114C31.2538 31.7652 30.8916 31.5781 30.4844 31.4503C30.0819 31.3224 29.6392 31.2585 29.1562 31.2585C28.3371 31.2585 27.5985 31.4692 26.9403 31.8906C26.2822 32.312 25.7614 32.9299 25.3778 33.7443C24.9991 34.554 24.8097 35.5459 24.8097 36.7202C24.8097 37.8991 25.0014 38.8958 25.3849 39.7102C25.7685 40.5246 26.294 41.1425 26.9616 41.5639C27.6293 41.9853 28.3892 42.196 29.2415 42.196C30.0322 42.196 30.7211 42.035 31.3082 41.7131C31.9001 41.3911 32.357 40.9366 32.679 40.3494C33.0057 39.7576 33.169 39.0616 33.169 38.2614L33.7372 38.3679H29.5753V36.5568H35.2926V38.2116C35.2926 39.4332 35.0322 40.4938 34.5114 41.3935C33.9953 42.2884 33.2803 42.9796 32.3665 43.4673C31.4574 43.955 30.4157 44.1989 29.2415 44.1989C27.9252 44.1989 26.7699 43.8958 25.7756 43.2898C24.786 42.6837 24.0142 41.8243 23.4602 40.7116C22.9063 39.5942 22.6293 38.2685 22.6293 36.7344C22.6293 35.5743 22.7902 34.5327 23.1122 33.6094C23.4342 32.6861 23.8864 31.9025 24.4688 31.2585C25.0559 30.6098 25.7448 30.1151 26.5355 29.7741C27.331 29.4285 28.1998 29.2557 29.142 29.2557C29.928 29.2557 30.6596 29.3717 31.3366 29.6037C32.0185 29.8357 32.6245 30.1648 33.1548 30.5909C33.6899 31.017 34.1326 31.5237 34.483 32.1108C34.8333 32.6932 35.0701 33.3395 35.1932 34.0497H32.9418ZM42.6097 44.2202C41.5349 44.2202 40.6093 43.9905 39.8327 43.5312C39.061 43.0672 38.4644 42.4162 38.043 41.5781C37.6263 40.7353 37.418 39.7481 37.418 38.6165C37.418 37.4991 37.6263 36.5142 38.043 35.6619C38.4644 34.8097 39.0515 34.1444 39.8043 33.6662C40.5619 33.188 41.4473 32.9489 42.4606 32.9489C43.0761 32.9489 43.6727 33.0507 44.2504 33.2543C44.828 33.4579 45.3465 33.7775 45.8058 34.2131C46.265 34.6487 46.6272 35.2145 46.8924 35.9105C47.1576 36.6018 47.2901 37.4422 47.2901 38.4318V39.1847H38.6183V37.5938H45.2092C45.2092 37.035 45.0955 36.5402 44.8683 36.1094C44.641 35.6738 44.3214 35.3305 43.9094 35.0795C43.5022 34.8286 43.024 34.7031 42.4748 34.7031C41.8782 34.7031 41.3574 34.8499 40.9123 35.1435C40.4719 35.4323 40.131 35.8111 39.8896 36.2798C39.6528 36.7438 39.5344 37.2481 39.5344 37.7926V39.0355C39.5344 39.7647 39.6623 40.3849 39.918 40.8963C40.1784 41.4077 40.5406 41.7983 41.0046 42.0682C41.4686 42.3333 42.0108 42.4659 42.631 42.4659C43.0335 42.4659 43.4005 42.4091 43.7319 42.2955C44.0633 42.1771 44.3498 42.0019 44.5913 41.7699C44.8327 41.5379 45.0174 41.2514 45.1452 40.9105L47.1552 41.2727C46.9942 41.8646 46.7054 42.383 46.2887 42.8281C45.8768 43.2685 45.3583 43.6117 44.7333 43.858C44.113 44.0994 43.4052 44.2202 42.6097 44.2202ZM49.6463 44V33.0909H51.6989V34.8239H51.8125C52.0114 34.2367 52.3617 33.7751 52.8636 33.4389C53.3703 33.098 53.9432 32.9276 54.5824 32.9276C54.715 32.9276 54.8712 32.9323 55.0511 32.9418C55.2358 32.9512 55.3802 32.9631 55.4844 32.9773V35.0085C55.3991 34.9848 55.2476 34.9588 55.0298 34.9304C54.812 34.8973 54.5942 34.8807 54.3764 34.8807C53.8745 34.8807 53.4271 34.9872 53.0341 35.2003C52.6458 35.4086 52.3381 35.6998 52.1108 36.0739C51.8835 36.4432 51.7699 36.8646 51.7699 37.3381V44H49.6463ZM57.3221 44V33.0909H59.3604V34.8665H59.4954C59.7227 34.2652 60.0943 33.7964 60.6104 33.4602C61.1265 33.1193 61.7444 32.9489 62.4641 32.9489C63.1933 32.9489 63.8041 33.1193 64.2965 33.4602C64.7937 33.8011 65.1606 34.2699 65.3974 34.8665H65.511C65.7714 34.2841 66.1857 33.8201 66.7539 33.4744C67.3221 33.1241 67.9992 32.9489 68.7852 32.9489C69.7747 32.9489 70.582 33.259 71.207 33.8793C71.8368 34.4995 72.1516 35.4347 72.1516 36.6847V44H70.0281V36.8835C70.0281 36.1449 69.8268 35.6098 69.4244 35.2784C69.0219 34.947 68.5413 34.7812 67.9826 34.7812C67.2913 34.7812 66.7539 34.9943 66.3704 35.4205C65.9869 35.8419 65.7951 36.384 65.7951 37.0469V44H63.6786V36.7486C63.6786 36.1567 63.494 35.6809 63.1246 35.321C62.7553 34.9612 62.2747 34.7812 61.6829 34.7812C61.2804 34.7812 60.9087 34.8878 60.5678 35.1009C60.2317 35.3092 59.9594 35.6004 59.7511 35.9744C59.5475 36.3485 59.4457 36.7817 59.4457 37.2741V44H57.3221ZM78.1726 44.2415C77.4813 44.2415 76.8563 44.1136 76.2976 43.858C75.7389 43.5975 75.2962 43.2211 74.9695 42.7287C74.6475 42.2363 74.4865 41.6326 74.4865 40.9176C74.4865 40.3021 74.6049 39.7955 74.8416 39.3977C75.0784 39 75.398 38.6851 75.8004 38.4531C76.2029 38.2211 76.6527 38.0459 77.1499 37.9276C77.647 37.8092 78.1536 37.7192 78.6697 37.6577C79.3232 37.5819 79.8535 37.5204 80.2607 37.473C80.6679 37.4209 80.9638 37.3381 81.1484 37.2244C81.3331 37.1108 81.4254 36.9261 81.4254 36.6705V36.6207C81.4254 36.0005 81.2502 35.5199 80.8999 35.179C80.5542 34.8381 80.0381 34.6676 79.3516 34.6676C78.6366 34.6676 78.0732 34.8262 77.6612 35.1435C77.254 35.456 76.9723 35.804 76.8161 36.1875L74.8203 35.733C75.0571 35.0701 75.4027 34.535 75.8572 34.1278C76.3165 33.7159 76.8445 33.4176 77.4411 33.233C78.0376 33.0436 78.665 32.9489 79.3232 32.9489C79.7588 32.9489 80.2204 33.0009 80.7081 33.1051C81.2005 33.2045 81.6598 33.3892 82.0859 33.6591C82.5168 33.929 82.8696 34.3149 83.1442 34.8168C83.4188 35.3139 83.5561 35.9602 83.5561 36.7557V44H81.4822V42.5085H81.397C81.2597 42.7831 81.0537 43.053 80.7791 43.3182C80.5045 43.5833 80.1518 43.8035 79.7209 43.9787C79.29 44.1539 78.7739 44.2415 78.1726 44.2415ZM78.6342 42.5369C79.2214 42.5369 79.7232 42.4209 80.1399 42.1889C80.5613 41.9569 80.8809 41.6539 81.0987 41.2798C81.3213 40.901 81.4325 40.4962 81.4325 40.0653V38.6591C81.3568 38.7348 81.21 38.8059 80.9922 38.8722C80.7791 38.9337 80.5353 38.9882 80.2607 39.0355C79.986 39.0781 79.7185 39.1184 79.4581 39.1562C79.1977 39.1894 78.9799 39.2178 78.8047 39.2415C78.3928 39.2936 78.0163 39.3812 77.6754 39.5043C77.3393 39.6274 77.0694 39.8049 76.8658 40.0369C76.6669 40.2642 76.5675 40.5672 76.5675 40.946C76.5675 41.4716 76.7616 41.8693 77.1499 42.1392C77.5381 42.4044 78.0329 42.5369 78.6342 42.5369ZM88.5082 37.5227V44H86.3846V33.0909H88.4229V34.8665H88.5579C88.8088 34.2888 89.2018 33.8248 89.7369 33.4744C90.2766 33.1241 90.9561 32.9489 91.7752 32.9489C92.5186 32.9489 93.1696 33.1051 93.7283 33.4176C94.2871 33.7254 94.7203 34.1847 95.0281 34.7955C95.3358 35.4062 95.4897 36.1615 95.4897 37.0611V44H93.3661V37.3168C93.3661 36.526 93.1602 35.9081 92.7482 35.4631C92.3363 35.0133 91.7705 34.7884 91.0508 34.7884C90.5584 34.7884 90.1204 34.8949 89.7369 35.108C89.3581 35.321 89.0574 35.6335 88.8349 36.0455C88.6171 36.4527 88.5082 36.9451 88.5082 37.5227ZM99.2894 48.0909C98.9722 48.0909 98.6834 48.0649 98.4229 48.0128C98.1625 47.9654 97.9684 47.9134 97.8406 47.8565L98.3519 46.1165C98.7402 46.2206 99.0858 46.2656 99.3888 46.2514C99.6919 46.2372 99.9594 46.1236 100.191 45.9105C100.428 45.6974 100.636 45.3494 100.816 44.8665L101.079 44.142L97.0877 33.0909H99.3604L102.123 41.5568H102.237L105 33.0909H107.279L102.784 45.456C102.575 46.0241 102.31 46.5047 101.988 46.8977C101.666 47.2955 101.283 47.5938 100.838 47.7926C100.393 47.9915 99.8765 48.0909 99.2894 48.0909Z" fill="white"/>
<defs>
<filter id="filter0_d_1_7787" x="0" y="0" width="180.219" height="84.0503" filterUnits="userSpaceOnUse" color-interpolation-filters="sRGB">
<feFlood flood-opacity="0" result="BackgroundImageFix"/>
<feColorMatrix in="SourceAlpha" type="matrix" values="0 0 0 0 0 0 0 0 0 0 0 0 0 0 0 0 0 0 127 0" result="hardAlpha"/>
<feOffset dx="7" dy="5"/>
<feComposite in2="hardAlpha" operator="out"/>
<feColorMatrix type="matrix" values="0 0 0 0 0.294766 0 0 0 0 0.302647 0 0 0 0 0.491797 0 0 0 0.7 0"/>
<feBlend mode="normal" in2="BackgroundImageFix" result="effect1_dropShadow_1_7787"/>
<feBlend mode="normal" in="SourceGraphic" in2="effect1_dropShadow_1_7787" result="shape"/>
</filter>
</defs>
</svg>
