<svg width="181" height="85" viewBox="0 0 181 85" fill="none" xmlns="http://www.w3.org/2000/svg">
<g filter="url(#filter0_d_1_7787)">
<path d="M0 7.29345C0 3.26539 3.26539 0 7.29345 0H165.926C169.954 0 173.219 3.26539 173.219 7.29345V60.1709C173.219 64.199 169.954 67.4644 165.926 67.4644H78.9847C76.8783 67.4644 74.8747 68.3751 73.4897 69.9621L66.1031 78.4259C65.3765 79.2585 64.0822 79.2585 63.3556 78.4259L55.969 69.9621C54.584 68.3751 52.5804 67.4644 50.474 67.4644H7.29345C3.26539 67.4644 0 64.199 0 60.1709V7.29345Z" fill="#1482FF"/>
</g>
<path d="M25.3267 44H22.9972L28.2315 29.4545H30.767L36.0014 44H33.6719L29.5597 32.0966H29.446L25.3267 44ZM25.7173 38.304H33.2741V40.1506H25.7173V38.304ZM44.842 39.4759V33.0909H46.9727V44H44.8846V42.1108H44.771C44.52 42.6932 44.1175 43.1785 43.5636 43.5668C43.0143 43.9503 42.3301 44.142 41.511 44.142C40.8103 44.142 40.19 43.9882 39.6502 43.6804C39.1152 43.3679 38.6938 42.9062 38.386 42.2955C38.083 41.6847 37.9315 40.9295 37.9315 40.0298V33.0909H40.055V39.7741C40.055 40.5175 40.261 41.1094 40.6729 41.5497C41.0849 41.9901 41.6199 42.2102 42.2781 42.2102C42.6758 42.2102 43.0711 42.1108 43.4641 41.9119C43.8619 41.7131 44.1909 41.4124 44.4513 41.0099C44.7165 40.6075 44.8467 40.0961 44.842 39.4759ZM58.0007 35.7543L56.076 36.0952C55.9955 35.849 55.8677 35.6146 55.6925 35.392C55.522 35.1695 55.29 34.9872 54.9964 34.8452C54.7029 34.7031 54.3359 34.6321 53.8956 34.6321C53.2943 34.6321 52.7924 34.767 52.3899 35.0369C51.9875 35.3021 51.7862 35.6454 51.7862 36.0668C51.7862 36.4313 51.9212 36.7249 52.1911 36.9474C52.4609 37.17 52.8965 37.3523 53.4979 37.4943L55.2308 37.892C56.2346 38.1241 56.9827 38.4815 57.4751 38.9645C57.9676 39.4474 58.2138 40.0748 58.2138 40.8466C58.2138 41.5 58.0244 42.0824 57.6456 42.5938C57.2715 43.1004 56.7483 43.4981 56.076 43.7869C55.4084 44.0758 54.6342 44.2202 53.7536 44.2202C52.532 44.2202 51.5353 43.9598 50.7635 43.4389C49.9917 42.9134 49.5182 42.1676 49.343 41.2017L51.3956 40.8892C51.5234 41.4242 51.7862 41.8291 52.1839 42.1037C52.5817 42.3736 53.1001 42.5085 53.7393 42.5085C54.4354 42.5085 54.9917 42.3641 55.4084 42.0753C55.825 41.7817 56.0334 41.4242 56.0334 41.0028C56.0334 40.6619 55.9055 40.3755 55.6499 40.1435C55.3989 39.9115 55.013 39.7363 54.4922 39.6179L52.6456 39.2131C51.6276 38.9811 50.8748 38.6117 50.3871 38.1051C49.9041 37.5985 49.6626 36.9569 49.6626 36.1804C49.6626 35.5365 49.8426 34.973 50.2024 34.4901C50.5623 34.0071 51.0594 33.6307 51.6939 33.3608C52.3284 33.0862 53.0552 32.9489 53.8743 32.9489C55.0533 32.9489 55.9813 33.2045 56.6584 33.7159C57.3355 34.2225 57.7829 34.902 58.0007 35.7543ZM65.641 33.0909V34.7955H59.6822V33.0909H65.641ZM61.2802 30.4773H63.4038V40.7969C63.4038 41.2088 63.4653 41.5189 63.5884 41.7273C63.7115 41.9309 63.8701 42.0705 64.0643 42.1463C64.2631 42.2173 64.4786 42.2528 64.7106 42.2528C64.881 42.2528 65.0302 42.241 65.158 42.2173C65.2859 42.1937 65.3853 42.1747 65.4563 42.1605L65.8398 43.9148C65.7167 43.9621 65.5415 44.0095 65.3143 44.0568C65.087 44.1089 64.8029 44.1373 64.462 44.142C63.9033 44.1515 63.3825 44.0521 62.8995 43.8438C62.4165 43.6354 62.0259 43.3134 61.7276 42.8778C61.4293 42.4422 61.2802 41.8954 61.2802 41.2372V30.4773ZM67.9901 44V33.0909H70.0426V34.8239H70.1562C70.3551 34.2367 70.7055 33.7751 71.2074 33.4389C71.714 33.098 72.2869 32.9276 72.9261 32.9276C73.0587 32.9276 73.215 32.9323 73.3949 32.9418C73.5795 32.9512 73.724 32.9631 73.8281 32.9773V35.0085C73.7429 34.9848 73.5914 34.9588 73.3736 34.9304C73.1558 34.8973 72.938 34.8807 72.7202 34.8807C72.2183 34.8807 71.7708 34.9872 71.3778 35.2003C70.9896 35.4086 70.6818 35.6998 70.4545 36.0739C70.2273 36.4432 70.1136 36.8646 70.1136 37.3381V44H67.9901ZM78.7429 44.2415C78.0516 44.2415 77.4266 44.1136 76.8679 43.858C76.3092 43.5975 75.8665 43.2211 75.5398 42.7287C75.2178 42.2363 75.0568 41.6326 75.0568 40.9176C75.0568 40.3021 75.1752 39.7955 75.4119 39.3977C75.6487 39 75.9683 38.6851 76.3707 38.4531C76.7732 38.2211 77.223 38.0459 77.7202 37.9276C78.2173 37.8092 78.724 37.7192 79.2401 37.6577C79.8935 37.5819 80.4238 37.5204 80.831 37.473C81.2382 37.4209 81.5341 37.3381 81.7188 37.2244C81.9034 37.1108 81.9957 36.9261 81.9957 36.6705V36.6207C81.9957 36.0005 81.8205 35.5199 81.4702 35.179C81.1245 34.8381 80.6084 34.6676 79.9219 34.6676C79.2069 34.6676 78.6435 34.8262 78.2315 35.1435C77.8243 35.456 77.5426 35.804 77.3864 36.1875L75.3906 35.733C75.6274 35.0701 75.973 34.535 76.4276 34.1278C76.8868 33.7159 77.4148 33.4176 78.0114 33.233C78.608 33.0436 79.2353 32.9489 79.8935 32.9489C80.3291 32.9489 80.7907 33.0009 81.2784 33.1051C81.7708 33.2045 82.2301 33.3892 82.6562 33.6591C83.0871 33.929 83.4399 34.3149 83.7145 34.8168C83.9891 35.3139 84.1264 35.9602 84.1264 36.7557V44H82.0526V42.5085H81.9673C81.83 42.7831 81.6241 43.053 81.3494 43.3182C81.0748 43.5833 80.7221 43.8035 80.2912 43.9787C79.8603 44.1539 79.3442 44.2415 78.7429 44.2415ZM79.2045 42.5369C79.7917 42.5369 80.2936 42.4209 80.7102 42.1889C81.1316 41.9569 81.4512 41.6539 81.669 41.2798C81.8916 40.901 82.0028 40.4962 82.0028 40.0653V38.6591C81.9271 38.7348 81.7803 38.8059 81.5625 38.8722C81.3494 38.9337 81.1056 38.9882 80.831 39.0355C80.5563 39.0781 80.2888 39.1184 80.0284 39.1562C79.768 39.1894 79.5502 39.2178 79.375 39.2415C78.9631 39.2936 78.5866 39.3812 78.2457 39.5043C77.9096 39.6274 77.6397 39.8049 77.4361 40.0369C77.2372 40.2642 77.1378 40.5672 77.1378 40.946C77.1378 41.4716 77.3319 41.8693 77.7202 42.1392C78.1084 42.4044 78.6032 42.5369 79.2045 42.5369ZM89.0785 29.4545V44H86.9549V29.4545H89.0785ZM91.9354 44V33.0909H94.0589V44H91.9354ZM93.0078 31.4077C92.6385 31.4077 92.3213 31.2846 92.0561 31.0384C91.7957 30.7874 91.6655 30.4891 91.6655 30.1435C91.6655 29.7931 91.7957 29.4948 92.0561 29.2486C92.3213 28.9976 92.6385 28.8722 93.0078 28.8722C93.3771 28.8722 93.692 28.9976 93.9524 29.2486C94.2176 29.4948 94.3501 29.7931 94.3501 30.1435C94.3501 30.4891 94.2176 30.7874 93.9524 31.0384C93.692 31.2846 93.3771 31.4077 93.0078 31.4077ZM100.091 44.2415C99.3993 44.2415 98.7743 44.1136 98.2156 43.858C97.6568 43.5975 97.2141 43.2211 96.8874 42.7287C96.5655 42.2363 96.4045 41.6326 96.4045 40.9176C96.4045 40.3021 96.5228 39.7955 96.7596 39.3977C96.9963 39 97.3159 38.6851 97.7184 38.4531C98.1209 38.2211 98.5707 38.0459 99.0678 37.9276C99.565 37.8092 100.072 37.7192 100.588 37.6577C101.241 37.5819 101.771 37.5204 102.179 37.473C102.586 37.4209 102.882 37.3381 103.066 37.2244C103.251 37.1108 103.343 36.9261 103.343 36.6705V36.6207C103.343 36.0005 103.168 35.5199 102.818 35.179C102.472 34.8381 101.956 34.6676 101.27 34.6676C100.555 34.6676 99.9911 34.8262 99.5792 35.1435C99.172 35.456 98.8903 35.804 98.734 36.1875L96.7383 35.733C96.975 35.0701 97.3207 34.535 97.7752 34.1278C98.2345 33.7159 98.7624 33.4176 99.359 33.233C99.9556 33.0436 100.583 32.9489 101.241 32.9489C101.677 32.9489 102.138 33.0009 102.626 33.1051C103.118 33.2045 103.578 33.3892 104.004 33.6591C104.435 33.929 104.788 34.3149 105.062 34.8168C105.337 35.3139 105.474 35.9602 105.474 36.7557V44H103.4V42.5085H103.315C103.178 42.7831 102.972 43.053 102.697 43.3182C102.422 43.5833 102.07 43.8035 101.639 43.9787C101.208 44.1539 100.692 44.2415 100.091 44.2415ZM100.552 42.5369C101.139 42.5369 101.641 42.4209 102.058 42.1889C102.479 41.9569 102.799 41.6539 103.017 41.2798C103.239 40.901 103.35 40.4962 103.35 40.0653V38.6591C103.275 38.7348 103.128 38.8059 102.91 38.8722C102.697 38.9337 102.453 38.9882 102.179 39.0355C101.904 39.0781 101.636 39.1184 101.376 39.1562C101.116 39.1894 100.898 39.2178 100.723 39.2415C100.311 39.2936 99.9343 39.3812 99.5934 39.5043C99.2572 39.6274 98.9873 39.8049 98.7837 40.0369C98.5849 40.2642 98.4854 40.5672 98.4854 40.946C98.4854 41.4716 98.6796 41.8693 99.0678 42.1392C99.4561 42.4044 99.9509 42.5369 100.552 42.5369Z" fill="white"/>
<defs>
<filter id="filter0_d_1_7787" x="0" y="0" width="180.219" height="84.0503" filterUnits="userSpaceOnUse" color-interpolation-filters="sRGB">
<feFlood flood-opacity="0" result="BackgroundImageFix"/>
<feColorMatrix in="SourceAlpha" type="matrix" values="0 0 0 0 0 0 0 0 0 0 0 0 0 0 0 0 0 0 127 0" result="hardAlpha"/>
<feOffset dx="7" dy="5"/>
<feComposite in2="hardAlpha" operator="out"/>
<feColorMatrix type="matrix" values="0 0 0 0 0.294766 0 0 0 0 0.302647 0 0 0 0 0.491797 0 0 0 0.7 0"/>
<feBlend mode="normal" in2="BackgroundImageFix" result="effect1_dropShadow_1_7787"/>
<feBlend mode="normal" in="SourceGraphic" in2="effect1_dropShadow_1_7787" result="shape"/>
</filter>
</defs>
</svg>
