<svg width="1341" height="684" viewBox="0 0 1341 684" fill="none" xmlns="http://www.w3.org/2000/svg">
<rect width="1341" height="684" rx="8" fill="white"/>
<path fill-rule="evenodd" clip-rule="evenodd" d="M1255.39 105.872H1283.87C1287.8 105.872 1290.89 108.961 1290.89 112.894V120.057C1290.89 123.99 1287.8 127.08 1283.87 127.08H1255.81C1251.88 127.08 1248.65 130.31 1248.65 134.243V148.007C1248.65 151.94 1245.43 155.17 1241.5 155.17H1199.41C1195.48 155.17 1192.25 158.4 1192.25 162.333V190.283C1192.25 194.215 1189.02 197.446 1185.1 197.446L1164.05 197.586H1127.99C1124.48 197.586 1121.54 200.536 1121.54 204.047V274.834C1121.54 278.767 1118.31 281.997 1114.38 281.997H1051.38C1047.46 281.997 1044.23 278.767 1044.23 274.834V253.767H1037.21V317.11C1037.21 321.043 1033.99 324.273 1030.06 324.273H1002.14C998.208 324.273 994.981 327.504 994.981 331.436V359.386C994.981 363.319 991.754 366.549 987.825 366.549H952.889C948.961 366.549 945.734 363.319 945.734 359.386V331.436C945.734 327.504 942.507 324.273 938.578 324.273H917.672C913.744 324.273 910.517 327.504 910.517 331.436V373.572C910.517 377.504 907.29 380.735 903.361 380.735H868.425C864.496 380.735 861.269 377.504 861.269 373.572V317.391C861.269 313.458 858.042 310.228 854.114 310.228H840.364C836.435 310.228 833.208 306.998 833.208 303.065V289.301C833.208 285.368 829.981 282.138 826.052 282.138H790.836C786.907 282.138 783.82 285.228 783.82 289.16V296.323C783.82 300.256 786.907 303.346 790.836 303.346H818.897C822.826 303.346 826.052 306.576 826.052 310.509V345.481C826.052 349.414 822.826 352.644 818.897 352.644H741.729C737.8 352.644 734.573 349.414 734.573 345.481V296.183H727.558V352.504C727.558 356.436 730.785 359.667 734.713 359.667H776.665C780.593 359.667 783.82 362.897 783.82 366.83V387.757C783.82 391.69 780.593 394.92 776.665 394.92H762.915C758.986 394.92 755.759 398.151 755.759 402.083V472.449C755.759 476.382 752.532 479.612 748.604 479.612H734.854C730.925 479.612 727.698 482.843 727.698 486.775V514.725C727.698 518.658 724.471 521.888 720.542 521.888H657.405C653.476 521.888 650.249 518.658 650.249 514.725V387.898C650.249 383.965 647.022 380.735 643.093 380.735H572.8C568.872 380.735 565.645 377.504 565.645 373.572V296.183C565.645 292.25 568.872 289.02 572.8 289.02H714.229C717.877 289.02 720.823 286.07 720.823 282.419V274.553C720.823 270.902 717.877 267.952 714.229 267.952H671.576C667.647 267.952 664.42 264.722 664.42 260.789V261.07C664.42 257.137 661.193 253.907 657.264 253.907H622.328C618.4 253.907 615.173 257.137 615.173 261.07V260.789C615.173 264.722 611.945 267.952 608.017 267.952H586.971C585.007 267.952 583.323 267.11 582.06 265.845C579.956 263.879 579.956 261.351 579.956 260.93C579.735 256.957 579.746 255.604 579.765 253.077C579.783 250.78 579.809 247.513 579.675 240.424C579.535 236.772 580.517 234.104 587.673 234.384C594.127 234.525 594.127 232.137 594.127 228.626V211.631C594.127 207.699 597.354 204.468 601.282 204.468H615.173C619.101 204.468 622.328 201.238 622.328 197.305V183.541C622.328 179.608 625.555 176.378 629.484 176.378H685.606C689.535 176.378 692.762 173.148 692.762 169.215V126.939H685.746V162.052C685.746 165.985 682.519 169.215 678.591 169.215H643.655C639.726 169.215 636.499 165.985 636.499 162.052V141.125C636.499 137.192 639.726 133.962 643.655 133.962H657.405C661.333 133.962 664.56 130.731 664.56 126.799V98.849C664.56 94.9163 667.787 91.686 671.716 91.686H798.412C802.341 91.686 805.568 88.4556 805.568 84.523V56.4327C805.568 52.5001 808.655 49.4102 812.583 49.4102H819.739C823.667 49.4102 826.754 52.5001 826.754 56.4327V84.523C826.754 88.4556 829.981 91.686 833.91 91.686H897.047C900.976 91.686 904.203 88.4556 904.203 84.523V56.5732C904.203 52.6405 907.43 49.4102 911.359 49.4102H1045.07C1049 49.4102 1052.23 52.6405 1052.23 56.5732V84.6634C1052.23 88.596 1055.45 91.8264 1059.38 91.8264H1241.64C1246.97 91.5455 1249.64 93.3714 1249.64 96.7422V103.343C1249.64 105.923 1250.71 105.905 1253.21 105.865C1253.85 105.855 1254.57 105.843 1255.39 105.872ZM455.921 416.551H476.406C482.158 416.551 486.929 421.186 486.929 427.085V483.547C486.929 489.305 482.299 494.08 476.406 494.08H455.22C449.467 494.08 444.697 498.715 444.697 504.614V539.867C444.697 545.626 440.067 550.401 434.174 550.401H398.957C393.204 550.401 388.434 555.036 388.434 560.935V624.56C388.434 630.318 383.804 635.093 377.911 635.093H363.74C357.988 635.093 353.217 630.458 353.217 624.56V490.429C353.217 484.67 348.587 479.895 342.694 479.895H335.679C329.926 479.895 325.156 475.26 325.156 469.361V405.737C325.156 399.978 320.526 395.203 314.633 395.203H307.618C301.865 395.203 297.095 390.568 297.095 384.669V363.461C297.095 357.702 292.465 352.927 286.572 352.927H223.013C217.261 352.927 212.49 348.292 212.49 342.393V307.14C212.49 301.381 207.86 296.606 201.967 296.606H180.781C175.029 296.606 170.258 291.971 170.258 286.072V222.448C170.258 216.689 165.628 211.914 159.735 211.914H138.549C132.796 211.914 128.026 207.279 128.026 201.38V180.172C128.026 174.413 123.396 169.638 117.503 169.638H89.3016C83.5491 169.638 78.7787 174.273 78.7787 180.172V187.195C78.7787 192.953 74.1486 197.728 68.2557 197.728H40.0542C34.3017 197.728 29.5312 193.093 29.5312 187.195V118.092C29.5312 115.283 30.6537 112.615 32.618 110.649C35.5644 107.559 39.3527 107.559 40.0542 107.559C41.0362 107.559 68.318 107.629 95.6035 107.699L95.615 107.699H95.6154L95.7386 107.699C122.987 107.77 150.196 107.84 151.177 107.84C151.177 107.84 156.508 108.963 156.508 102.643V98.7102C156.508 94.7776 160.717 91.9686 163.944 91.9686H308.179C313.932 91.9686 318.702 96.6035 318.702 102.502V144.919C318.702 150.677 314.072 155.453 308.179 155.453H301.164C295.411 155.453 290.641 160.087 290.641 165.986V194.217C290.641 199.976 295.271 204.751 301.164 204.751H329.365C335.118 204.751 339.888 200.116 339.888 194.217V102.362C339.888 96.6035 344.518 91.8281 350.411 91.8281H378.613C384.365 91.8281 389.136 96.463 389.136 102.362V180.593C389.136 186.352 393.766 191.127 399.659 191.127H406.674C412.426 191.127 417.197 195.762 417.197 201.661V244.077C417.197 249.836 412.567 254.611 406.674 254.611H357.286C351.534 254.611 346.763 259.246 346.763 265.145V300.398C346.763 306.157 342.133 310.932 336.24 310.932H286.853C281.1 310.932 276.33 315.707 276.33 321.466C276.33 327.224 280.96 332 286.853 332H308.039C313.791 332 318.562 336.635 318.562 342.534V363.742C318.562 369.5 323.192 374.275 329.085 374.275H434.875C440.628 374.275 445.398 378.91 445.398 384.809V406.017C445.398 411.776 450.028 416.551 455.921 416.551ZM570.126 162.332H609.973C612.607 162.332 614.743 164.47 614.743 167.107V192.81C614.743 195.447 612.607 197.585 609.973 197.585H570.126C567.491 197.585 565.355 195.447 565.355 192.81V167.107C565.355 164.47 567.491 162.332 570.126 162.332ZM1115.08 473.012H1055.03C1050.26 473.012 1046.33 476.944 1046.33 481.72V492.394C1046.33 497.169 1042.41 501.102 1037.63 501.102H1012.8C1008.03 501.102 1004.1 505.035 1004.1 509.81V555.878C1004.1 560.653 1008.03 564.586 1012.8 564.586H1098.11C1101.19 564.586 1102.46 565.569 1102.6 568.519C1102.6 571.618 1102.56 571.829 1102.54 571.91L1102.54 571.921C1102.53 571.964 1102.53 572.009 1102.56 572.585C1102.57 572.817 1102.58 573.135 1102.6 573.575C1102.88 577.227 1106.53 578.771 1108.35 578.771H1143.29C1143.29 578.771 1146.93 578.771 1149.46 576.243C1151 574.698 1151.98 572.451 1151.98 570.064V509.95C1151.98 505.175 1148.06 501.242 1143.29 501.242H1132.62C1127.85 501.242 1123.92 497.31 1123.92 492.534V481.86C1123.92 477.085 1119.99 473.152 1115.22 473.152L1115.08 473.012ZM73.5897 367.11L47.6331 367.391L47.4928 367.251C44.5464 367.391 42.3015 365.004 42.4418 362.054L43.003 350.537C43.1433 347.868 45.3882 345.762 48.054 345.762H73.4494C76.2555 345.762 78.5004 348.009 78.5004 350.818V362.054C78.5004 364.863 76.3958 367.11 73.5897 367.11ZM554.838 176.238H526.356C524.496 176.238 522.988 177.747 522.988 179.609V194.076C522.988 195.937 524.496 197.446 526.356 197.446H554.838C556.698 197.446 558.205 195.937 558.205 194.076V179.609C558.205 177.747 556.698 176.238 554.838 176.238ZM1062.46 398.852H1090.94C1092.8 398.852 1094.31 400.361 1094.31 402.222V416.689C1094.31 418.551 1092.8 420.06 1090.94 420.06H1062.46C1060.6 420.06 1059.09 418.551 1059.09 416.689V402.222C1059.09 400.361 1060.6 398.852 1062.46 398.852ZM782.272 444.074H767.54C764.905 444.074 762.77 446.212 762.77 448.85V473.288C762.77 475.925 764.905 478.063 767.54 478.063H782.272C784.907 478.063 787.042 475.925 787.042 473.288V448.85C787.042 446.212 784.907 444.074 782.272 444.074ZM1161.1 229.75H1182.29C1186.16 229.75 1189.3 232.894 1189.3 236.773V328.347C1189.3 332.225 1186.16 335.369 1182.29 335.369H1161.1C1157.23 335.369 1154.09 332.225 1154.09 328.347V236.773C1154.09 232.894 1157.23 229.75 1161.1 229.75ZM1175.13 517.395H1168.4C1164.6 517.395 1161.52 520.476 1161.52 524.277V571.89C1161.52 575.69 1164.6 578.772 1168.4 578.772H1175.13C1178.93 578.772 1182.01 575.69 1182.01 571.89V524.277C1182.01 520.476 1178.93 517.395 1175.13 517.395ZM329.5 331.855H384.921C387.169 331.855 388.99 333.679 388.99 335.929V348.991C388.99 351.24 387.169 353.064 384.921 353.064H329.5C327.253 353.064 325.432 351.24 325.432 348.991V335.929C325.432 333.679 327.253 331.855 329.5 331.855ZM1028.79 398.852H973.374C971.126 398.852 969.305 400.675 969.305 402.925V415.987C969.305 418.236 971.126 420.06 973.374 420.06H1028.79C1031.04 420.06 1032.86 418.236 1032.86 415.987V402.925C1032.86 400.675 1031.04 398.852 1028.79 398.852ZM1132.2 585.934H1119.99C1117.51 585.934 1115.5 587.946 1115.5 590.428V602.647C1115.5 605.129 1117.51 607.142 1119.99 607.142H1132.2C1134.68 607.142 1136.69 605.129 1136.69 602.647V590.428C1136.69 587.946 1134.68 585.934 1132.2 585.934ZM1037.21 377.645H1049.42C1051.9 377.645 1053.91 379.657 1053.91 382.139V394.358C1053.91 396.84 1051.9 398.853 1049.42 398.853H1037.21C1034.73 398.853 1032.72 396.84 1032.72 394.358V382.139C1032.72 379.657 1034.73 377.645 1037.21 377.645Z" fill="#000099" fill-opacity="0.06"/>
</svg>
