<svg width="181" height="85" viewBox="0 0 181 85" fill="none" xmlns="http://www.w3.org/2000/svg">
<g filter="url(#filter0_d_1_7787)">
<path d="M0 7.29345C0 3.26539 3.26539 0 7.29345 0H165.926C169.954 0 173.219 3.26539 173.219 7.29345V60.1709C173.219 64.199 169.954 67.4644 165.926 67.4644H78.9847C76.8783 67.4644 74.8747 68.3751 73.4897 69.9621L66.1031 78.4259C65.3765 79.2585 64.0822 79.2585 63.3556 78.4259L55.969 69.9621C54.584 68.3751 52.5804 67.4644 50.474 67.4644H7.29345C3.26539 67.4644 0 64.199 0 60.1709V7.29345Z" fill="#1482FF"/>
</g>
<path d="M41.9418 34.0497C41.8045 33.6188 41.6198 33.233 41.3878 32.892C41.1605 32.5464 40.8883 32.2528 40.571 32.0114C40.2538 31.7652 39.8916 31.5781 39.4844 31.4503C39.0819 31.3224 38.6392 31.2585 38.1562 31.2585C37.3371 31.2585 36.5985 31.4692 35.9403 31.8906C35.2822 32.312 34.7614 32.9299 34.3778 33.7443C33.9991 34.554 33.8097 35.5459 33.8097 36.7202C33.8097 37.8991 34.0014 38.8958 34.3849 39.7102C34.7685 40.5246 35.294 41.1425 35.9616 41.5639C36.6293 41.9853 37.3892 42.196 38.2415 42.196C39.0322 42.196 39.7211 42.035 40.3082 41.7131C40.9001 41.3911 41.357 40.9366 41.679 40.3494C42.0057 39.7576 42.169 39.0616 42.169 38.2614L42.7372 38.3679H38.5753V36.5568H44.2926V38.2116C44.2926 39.4332 44.0322 40.4938 43.5114 41.3935C42.9953 42.2884 42.2803 42.9796 41.3665 43.4673C40.4574 43.955 39.4157 44.1989 38.2415 44.1989C36.9252 44.1989 35.7699 43.8958 34.7756 43.2898C33.786 42.6837 33.0142 41.8243 32.4602 40.7116C31.9063 39.5942 31.6293 38.2685 31.6293 36.7344C31.6293 35.5743 31.7902 34.5327 32.1122 33.6094C32.4342 32.6861 32.8864 31.9025 33.4688 31.2585C34.0559 30.6098 34.7448 30.1151 35.5355 29.7741C36.331 29.4285 37.1998 29.2557 38.142 29.2557C38.928 29.2557 39.6596 29.3717 40.3366 29.6037C41.0185 29.8357 41.6245 30.1648 42.1548 30.5909C42.6899 31.017 43.1326 31.5237 43.483 32.1108C43.8333 32.6932 44.0701 33.3395 44.1932 34.0497H41.9418ZM46.908 44V33.0909H48.9606V34.8239H49.0742C49.2731 34.2367 49.6235 33.7751 50.1254 33.4389C50.632 33.098 51.2049 32.9276 51.8441 32.9276C51.9767 32.9276 52.1329 32.9323 52.3129 32.9418C52.4975 32.9512 52.6419 32.9631 52.7461 32.9773V35.0085C52.6609 34.9848 52.5094 34.9588 52.2915 34.9304C52.0737 34.8973 51.8559 34.8807 51.6381 34.8807C51.1362 34.8807 50.6888 34.9872 50.2958 35.2003C49.9076 35.4086 49.5998 35.6998 49.3725 36.0739C49.1452 36.4432 49.0316 36.8646 49.0316 37.3381V44H46.908ZM58.8949 44.2202C57.8201 44.2202 56.8944 43.9905 56.1179 43.5312C55.3461 43.0672 54.7495 42.4162 54.3281 41.5781C53.9115 40.7353 53.7031 39.7481 53.7031 38.6165C53.7031 37.4991 53.9115 36.5142 54.3281 35.6619C54.7495 34.8097 55.3366 34.1444 56.0895 33.6662C56.8471 33.188 57.7325 32.9489 58.7457 32.9489C59.3613 32.9489 59.9579 33.0507 60.5355 33.2543C61.1132 33.4579 61.6316 33.7775 62.0909 34.2131C62.5502 34.6487 62.9124 35.2145 63.1776 35.9105C63.4427 36.6018 63.5753 37.4422 63.5753 38.4318V39.1847H54.9034V37.5938H61.4943C61.4943 37.035 61.3807 36.5402 61.1534 36.1094C60.9261 35.6738 60.6065 35.3305 60.1946 35.0795C59.7874 34.8286 59.3092 34.7031 58.7599 34.7031C58.1634 34.7031 57.6425 34.8499 57.1974 35.1435C56.7571 35.4323 56.4162 35.8111 56.1747 36.2798C55.938 36.7438 55.8196 37.2481 55.8196 37.7926V39.0355C55.8196 39.7647 55.9474 40.3849 56.2031 40.8963C56.4635 41.4077 56.8258 41.7983 57.2898 42.0682C57.7538 42.3333 58.2959 42.4659 58.9162 42.4659C59.3187 42.4659 59.6856 42.4091 60.017 42.2955C60.3485 42.1771 60.6349 42.0019 60.8764 41.7699C61.1179 41.5379 61.3026 41.2514 61.4304 40.9105L63.4403 41.2727C63.2794 41.8646 62.9905 42.383 62.5739 42.8281C62.1619 43.2685 61.6435 43.6117 61.0185 43.858C60.3982 44.0994 59.6903 44.2202 58.8949 44.2202ZM70.6332 44.2202C69.5584 44.2202 68.6327 43.9905 67.8562 43.5312C67.0844 43.0672 66.4878 42.4162 66.0664 41.5781C65.6497 40.7353 65.4414 39.7481 65.4414 38.6165C65.4414 37.4991 65.6497 36.5142 66.0664 35.6619C66.4878 34.8097 67.0749 34.1444 67.8278 33.6662C68.5853 33.188 69.4708 32.9489 70.484 32.9489C71.0996 32.9489 71.6961 33.0507 72.2738 33.2543C72.8514 33.4579 73.3699 33.7775 73.8292 34.2131C74.2885 34.6487 74.6507 35.2145 74.9158 35.9105C75.181 36.6018 75.3136 37.4422 75.3136 38.4318V39.1847H66.6417V37.5938H73.2326C73.2326 37.035 73.119 36.5402 72.8917 36.1094C72.6644 35.6738 72.3448 35.3305 71.9329 35.0795C71.5257 34.8286 71.0475 34.7031 70.4982 34.7031C69.9016 34.7031 69.3808 34.8499 68.9357 35.1435C68.4954 35.4323 68.1545 35.8111 67.913 36.2798C67.6763 36.7438 67.5579 37.2481 67.5579 37.7926V39.0355C67.5579 39.7647 67.6857 40.3849 67.9414 40.8963C68.2018 41.4077 68.564 41.7983 69.0281 42.0682C69.4921 42.3333 70.0342 42.4659 70.6545 42.4659C71.0569 42.4659 71.4239 42.4091 71.7553 42.2955C72.0868 42.1771 72.3732 42.0019 72.6147 41.7699C72.8562 41.5379 73.0408 41.2514 73.1687 40.9105L75.1786 41.2727C75.0176 41.8646 74.7288 42.383 74.3121 42.8281C73.9002 43.2685 73.3817 43.6117 72.7567 43.858C72.1365 44.0994 71.4286 44.2202 70.6332 44.2202ZM82.2649 44.2202C81.209 44.2202 80.3 43.9811 79.5376 43.5028C78.7801 43.0199 78.1977 42.3546 77.7905 41.5071C77.3833 40.6596 77.1797 39.6889 77.1797 38.5952C77.1797 37.4872 77.388 36.5095 77.8047 35.6619C78.2214 34.8097 78.8085 34.1444 79.5661 33.6662C80.3236 33.188 81.2161 32.9489 82.2436 32.9489C83.0722 32.9489 83.8108 33.1027 84.4595 33.4105C85.1082 33.7135 85.6314 34.1397 86.0291 34.6889C86.4316 35.2382 86.6707 35.8797 86.7464 36.6136H84.6797C84.5661 36.1023 84.3056 35.6619 83.8984 35.2926C83.496 34.9233 82.9562 34.7386 82.2791 34.7386C81.6873 34.7386 81.1688 34.8949 80.7237 35.2074C80.2834 35.5152 79.9401 35.9555 79.6939 36.5284C79.4477 37.0966 79.3246 37.7689 79.3246 38.5455C79.3246 39.3409 79.4453 40.0275 79.6868 40.6051C79.9283 41.1828 80.2692 41.6302 80.7095 41.9474C81.1546 42.2647 81.6778 42.4233 82.2791 42.4233C82.6816 42.4233 83.0462 42.3499 83.3729 42.2031C83.7043 42.0516 83.9813 41.8362 84.2038 41.5568C84.4311 41.2775 84.5897 40.9413 84.6797 40.5483H86.7464C86.6707 41.2538 86.4411 41.8835 86.0575 42.4375C85.674 42.9915 85.1603 43.4271 84.5163 43.7443C83.8771 44.0616 83.1267 44.2202 82.2649 44.2202ZM93.7191 44.2202C92.6443 44.2202 91.7186 43.9905 90.9421 43.5312C90.1703 43.0672 89.5737 42.4162 89.1523 41.5781C88.7357 40.7353 88.5273 39.7481 88.5273 38.6165C88.5273 37.4991 88.7357 36.5142 89.1523 35.6619C89.5737 34.8097 90.1609 34.1444 90.9137 33.6662C91.6713 33.188 92.5567 32.9489 93.57 32.9489C94.1855 32.9489 94.7821 33.0507 95.3597 33.2543C95.9374 33.4579 96.4558 33.7775 96.9151 34.2131C97.3744 34.6487 97.7366 35.2145 98.0018 35.9105C98.2669 36.6018 98.3995 37.4422 98.3995 38.4318V39.1847H89.7276V37.5938H96.3185C96.3185 37.035 96.2049 36.5402 95.9776 36.1094C95.7504 35.6738 95.4308 35.3305 95.0188 35.0795C94.6116 34.8286 94.1334 34.7031 93.5842 34.7031C92.9876 34.7031 92.4667 34.8499 92.0217 35.1435C91.5813 35.4323 91.2404 35.8111 90.9989 36.2798C90.7622 36.7438 90.6438 37.2481 90.6438 37.7926V39.0355C90.6438 39.7647 90.7717 40.3849 91.0273 40.8963C91.2878 41.4077 91.65 41.7983 92.114 42.0682C92.578 42.3333 93.1201 42.4659 93.7404 42.4659C94.1429 42.4659 94.5098 42.4091 94.8413 42.2955C95.1727 42.1771 95.4592 42.0019 95.7006 41.7699C95.9421 41.5379 96.1268 41.2514 96.2546 40.9105L98.2646 41.2727C98.1036 41.8646 97.8147 42.383 97.3981 42.8281C96.9862 43.2685 96.4677 43.6117 95.8427 43.858C95.2224 44.0994 94.5146 44.2202 93.7191 44.2202Z" fill="white"/>
<defs>
<filter id="filter0_d_1_7787" x="0" y="0" width="180.219" height="84.0503" filterUnits="userSpaceOnUse" color-interpolation-filters="sRGB">
<feFlood flood-opacity="0" result="BackgroundImageFix"/>
<feColorMatrix in="SourceAlpha" type="matrix" values="0 0 0 0 0 0 0 0 0 0 0 0 0 0 0 0 0 0 127 0" result="hardAlpha"/>
<feOffset dx="7" dy="5"/>
<feComposite in2="hardAlpha" operator="out"/>
<feColorMatrix type="matrix" values="0 0 0 0 0.294766 0 0 0 0 0.302647 0 0 0 0 0.491797 0 0 0 0.7 0"/>
<feBlend mode="normal" in2="BackgroundImageFix" result="effect1_dropShadow_1_7787"/>
<feBlend mode="normal" in="SourceGraphic" in2="effect1_dropShadow_1_7787" result="shape"/>
</filter>
</defs>
</svg>
