<svg width="181" height="85" viewBox="0 0 181 85" fill="none" xmlns="http://www.w3.org/2000/svg">
<g filter="url(#filter0_d_1_7787)">
<path d="M0 7.29345C0 3.26539 3.26539 0 7.29345 0H165.926C169.954 0 173.219 3.26539 173.219 7.29345V60.1709C173.219 64.199 169.954 67.4644 165.926 67.4644H78.9847C76.8783 67.4644 74.8747 68.3751 73.4897 69.9621L66.1031 78.4259C65.3765 79.2585 64.0822 79.2585 63.3556 78.4259L55.969 69.9621C54.584 68.3751 52.5804 67.4644 50.474 67.4644H7.29345C3.26539 67.4644 0 64.199 0 60.1709V7.29345Z" fill="#1482FF"/>
</g>
<path d="M33.598 44V29.4545H42.6179V31.3438H35.7926V35.7756H41.9716V37.6577H35.7926V44H33.598ZM45.0096 44V33.0909H47.0621V34.8239H47.1758C47.3746 34.2367 47.725 33.7751 48.2269 33.4389C48.7335 33.098 49.3065 32.9276 49.9457 32.9276C50.0782 32.9276 50.2345 32.9323 50.4144 32.9418C50.5991 32.9512 50.7435 32.9631 50.8477 32.9773V35.0085C50.7624 34.9848 50.6109 34.9588 50.3931 34.9304C50.1753 34.8973 49.9575 34.8807 49.7397 34.8807C49.2378 34.8807 48.7904 34.9872 48.3974 35.2003C48.0091 35.4086 47.7013 35.6998 47.4741 36.0739C47.2468 36.4432 47.1332 36.8646 47.1332 37.3381V44H45.0096ZM55.7624 44.2415C55.0711 44.2415 54.4461 44.1136 53.8874 43.858C53.3287 43.5975 52.886 43.2211 52.5593 42.7287C52.2373 42.2363 52.0763 41.6326 52.0763 40.9176C52.0763 40.3021 52.1947 39.7955 52.4315 39.3977C52.6682 39 52.9878 38.6851 53.3903 38.4531C53.7927 38.2211 54.2425 38.0459 54.7397 37.9276C55.2369 37.8092 55.7435 37.7192 56.2596 37.6577C56.913 37.5819 57.4433 37.5204 57.8505 37.473C58.2577 37.4209 58.5536 37.3381 58.7383 37.2244C58.9229 37.1108 59.0153 36.9261 59.0153 36.6705V36.6207C59.0153 36.0005 58.8401 35.5199 58.4897 35.179C58.1441 34.8381 57.628 34.6676 56.9414 34.6676C56.2264 34.6676 55.663 34.8262 55.2511 35.1435C54.8439 35.456 54.5621 35.804 54.4059 36.1875L52.4102 35.733C52.6469 35.0701 52.9925 34.535 53.4471 34.1278C53.9064 33.7159 54.4343 33.4176 55.0309 33.233C55.6275 33.0436 56.2549 32.9489 56.913 32.9489C57.3486 32.9489 57.8103 33.0009 58.2979 33.1051C58.7904 33.2045 59.2496 33.3892 59.6758 33.6591C60.1067 33.929 60.4594 34.3149 60.734 34.8168C61.0086 35.3139 61.146 35.9602 61.146 36.7557V44H59.0721V42.5085H58.9869C58.8496 42.7831 58.6436 43.053 58.369 43.3182C58.0943 43.5833 57.7416 43.8035 57.3107 43.9787C56.8799 44.1539 56.3638 44.2415 55.7624 44.2415ZM56.2241 42.5369C56.8112 42.5369 57.3131 42.4209 57.7298 42.1889C58.1512 41.9569 58.4708 41.6539 58.6886 41.2798C58.9111 40.901 59.0224 40.4962 59.0224 40.0653V38.6591C58.9466 38.7348 58.7998 38.8059 58.582 38.8722C58.369 38.9337 58.1251 38.9882 57.8505 39.0355C57.5759 39.0781 57.3084 39.1184 57.0479 39.1562C56.7875 39.1894 56.5697 39.2178 56.3945 39.2415C55.9826 39.2936 55.6062 39.3812 55.2653 39.5043C54.9291 39.6274 54.6592 39.8049 54.4556 40.0369C54.2567 40.2642 54.1573 40.5672 54.1573 40.946C54.1573 41.4716 54.3514 41.8693 54.7397 42.1392C55.128 42.4044 55.6228 42.5369 56.2241 42.5369ZM66.098 37.5227V44H63.9744V33.0909H66.0128V34.8665H66.1477C66.3987 34.2888 66.7917 33.8248 67.3267 33.4744C67.8665 33.1241 68.5459 32.9489 69.3651 32.9489C70.1084 32.9489 70.7595 33.1051 71.3182 33.4176C71.8769 33.7254 72.3101 34.1847 72.6179 34.7955C72.9257 35.4062 73.0795 36.1615 73.0795 37.0611V44H70.956V37.3168C70.956 36.526 70.75 35.9081 70.3381 35.4631C69.9261 35.0133 69.3603 34.7884 68.6406 34.7884C68.1482 34.7884 67.7102 34.8949 67.3267 35.108C66.9479 35.321 66.6473 35.6335 66.4247 36.0455C66.2069 36.4527 66.098 36.9451 66.098 37.5227ZM80.5227 44.2202C79.4669 44.2202 78.5578 43.9811 77.7955 43.5028C77.0379 43.0199 76.4555 42.3546 76.0483 41.5071C75.6411 40.6596 75.4375 39.6889 75.4375 38.5952C75.4375 37.4872 75.6458 36.5095 76.0625 35.6619C76.4792 34.8097 77.0663 34.1444 77.8239 33.6662C78.5814 33.188 79.474 32.9489 80.5014 32.9489C81.33 32.9489 82.0687 33.1027 82.7173 33.4105C83.366 33.7135 83.8892 34.1397 84.2869 34.6889C84.6894 35.2382 84.9285 35.8797 85.0043 36.6136H82.9375C82.8239 36.1023 82.5634 35.6619 82.1562 35.2926C81.7538 34.9233 81.214 34.7386 80.5369 34.7386C79.9451 34.7386 79.4266 34.8949 78.9815 35.2074C78.5412 35.5152 78.1979 35.9555 77.9517 36.5284C77.7055 37.0966 77.5824 37.7689 77.5824 38.5455C77.5824 39.3409 77.7031 40.0275 77.9446 40.6051C78.1861 41.1828 78.527 41.6302 78.9673 41.9474C79.4124 42.2647 79.9356 42.4233 80.5369 42.4233C80.9394 42.4233 81.304 42.3499 81.6307 42.2031C81.9621 42.0516 82.2391 41.8362 82.4616 41.5568C82.6889 41.2775 82.8475 40.9413 82.9375 40.5483H85.0043C84.9285 41.2538 84.6989 41.8835 84.3153 42.4375C83.9318 42.9915 83.4181 43.4271 82.7741 43.7443C82.1349 44.0616 81.3845 44.2202 80.5227 44.2202ZM91.9769 44.2202C90.9021 44.2202 89.9764 43.9905 89.1999 43.5312C88.4281 43.0672 87.8316 42.4162 87.4102 41.5781C86.9935 40.7353 86.7852 39.7481 86.7852 38.6165C86.7852 37.4991 86.9935 36.5142 87.4102 35.6619C87.8316 34.8097 88.4187 34.1444 89.1715 33.6662C89.9291 33.188 90.8145 32.9489 91.8278 32.9489C92.4433 32.9489 93.0399 33.0507 93.6175 33.2543C94.1952 33.4579 94.7137 33.7775 95.1729 34.2131C95.6322 34.6487 95.9944 35.2145 96.2596 35.9105C96.5247 36.6018 96.6573 37.4422 96.6573 38.4318V39.1847H87.9854V37.5938H94.5763C94.5763 37.035 94.4627 36.5402 94.2354 36.1094C94.0082 35.6738 93.6886 35.3305 93.2766 35.0795C92.8694 34.8286 92.3912 34.7031 91.842 34.7031C91.2454 34.7031 90.7246 34.8499 90.2795 35.1435C89.8391 35.4323 89.4982 35.8111 89.2567 36.2798C89.02 36.7438 88.9016 37.2481 88.9016 37.7926V39.0355C88.9016 39.7647 89.0295 40.3849 89.2852 40.8963C89.5456 41.4077 89.9078 41.7983 90.3718 42.0682C90.8358 42.3333 91.378 42.4659 91.9982 42.4659C92.4007 42.4659 92.7676 42.4091 93.0991 42.2955C93.4305 42.1771 93.717 42.0019 93.9585 41.7699C94.1999 41.5379 94.3846 41.2514 94.5124 40.9105L96.5224 41.2727C96.3614 41.8646 96.0726 42.383 95.6559 42.8281C95.244 43.2685 94.7255 43.6117 94.1005 43.858C93.4802 44.0994 92.7724 44.2202 91.9769 44.2202Z" fill="white"/>
<defs>
<filter id="filter0_d_1_7787" x="0" y="0" width="180.219" height="84.0503" filterUnits="userSpaceOnUse" color-interpolation-filters="sRGB">
<feFlood flood-opacity="0" result="BackgroundImageFix"/>
<feColorMatrix in="SourceAlpha" type="matrix" values="0 0 0 0 0 0 0 0 0 0 0 0 0 0 0 0 0 0 127 0" result="hardAlpha"/>
<feOffset dx="7" dy="5"/>
<feComposite in2="hardAlpha" operator="out"/>
<feColorMatrix type="matrix" values="0 0 0 0 0.294766 0 0 0 0 0.302647 0 0 0 0 0.491797 0 0 0 0.7 0"/>
<feBlend mode="normal" in2="BackgroundImageFix" result="effect1_dropShadow_1_7787"/>
<feBlend mode="normal" in="SourceGraphic" in2="effect1_dropShadow_1_7787" result="shape"/>
</filter>
</defs>
</svg>
