<svg width="181" height="85" viewBox="0 0 181 85" fill="none" xmlns="http://www.w3.org/2000/svg">
<g filter="url(#filter0_d_1_7787)">
<path d="M0 7.29345C0 3.26539 3.26539 0 7.29345 0H165.926C169.954 0 173.219 3.26539 173.219 7.29345V60.1709C173.219 64.199 169.954 67.4644 165.926 67.4644H78.9847C76.8783 67.4644 74.8747 68.3751 73.4897 69.9621L66.1031 78.4259C65.3765 79.2585 64.0822 79.2585 63.3556 78.4259L55.969 69.9621C54.584 68.3751 52.5804 67.4644 50.474 67.4644H7.29345C3.26539 67.4644 0 64.199 0 60.1709V7.29345Z" fill="#1482FF"/>
</g>
<path d="M41.679 34.1847H39.4631C39.3778 33.7112 39.2192 33.2945 38.9872 32.9347C38.7552 32.5748 38.4711 32.2694 38.1349 32.0185C37.7988 31.7675 37.4223 31.5781 37.0057 31.4503C36.5938 31.3224 36.1558 31.2585 35.6918 31.2585C34.8537 31.2585 34.1032 31.4692 33.4403 31.8906C32.7822 32.312 32.2614 32.9299 31.8778 33.7443C31.4991 34.5587 31.3097 35.553 31.3097 36.7273C31.3097 37.911 31.4991 38.91 31.8778 39.7244C32.2614 40.5388 32.7846 41.1544 33.4474 41.571C34.1103 41.9877 34.8561 42.196 35.6847 42.196C36.1439 42.196 36.5795 42.1345 36.9915 42.0114C37.4081 41.8835 37.7846 41.6965 38.1207 41.4503C38.4569 41.2041 38.741 40.9034 38.973 40.5483C39.2098 40.1884 39.3731 39.7765 39.4631 39.3125L41.679 39.3196C41.5606 40.0346 41.331 40.6927 40.9901 41.294C40.6539 41.8906 40.2206 42.4067 39.6903 42.8423C39.1648 43.2732 38.5634 43.607 37.8864 43.8438C37.2093 44.0805 36.4706 44.1989 35.6705 44.1989C34.411 44.1989 33.2888 43.9006 32.304 43.304C31.3191 42.7027 30.5426 41.8433 29.9744 40.7259C29.411 39.6084 29.1293 38.2756 29.1293 36.7273C29.1293 35.1742 29.4134 33.8414 29.9815 32.7287C30.5497 31.6113 31.3262 30.7543 32.3111 30.1577C33.2959 29.5563 34.4157 29.2557 35.6705 29.2557C36.4422 29.2557 37.1619 29.367 37.8295 29.5895C38.5019 29.8073 39.1056 30.1293 39.6406 30.5554C40.1757 30.9768 40.6184 31.4929 40.9688 32.1037C41.3191 32.7098 41.5559 33.4034 41.679 34.1847ZM47.3093 44.2415C46.618 44.2415 45.993 44.1136 45.4343 43.858C44.8756 43.5975 44.4329 43.2211 44.1062 42.7287C43.7842 42.2363 43.6232 41.6326 43.6232 40.9176C43.6232 40.3021 43.7416 39.7955 43.9783 39.3977C44.2151 39 44.5347 38.6851 44.9371 38.4531C45.3396 38.2211 45.7894 38.0459 46.2866 37.9276C46.7837 37.8092 47.2904 37.7192 47.8065 37.6577C48.4599 37.5819 48.9902 37.5204 49.3974 37.473C49.8046 37.4209 50.1005 37.3381 50.2852 37.2244C50.4698 37.1108 50.5621 36.9261 50.5621 36.6705V36.6207C50.5621 36.0005 50.387 35.5199 50.0366 35.179C49.6909 34.8381 49.1748 34.6676 48.4883 34.6676C47.7733 34.6676 47.2099 34.8262 46.7979 35.1435C46.3907 35.456 46.109 35.804 45.9528 36.1875L43.957 35.733C44.1938 35.0701 44.5394 34.535 44.994 34.1278C45.4532 33.7159 45.9812 33.4176 46.5778 33.233C47.1744 33.0436 47.8017 32.9489 48.4599 32.9489C48.8955 32.9489 49.3571 33.0009 49.8448 33.1051C50.3372 33.2045 50.7965 33.3892 51.2227 33.6591C51.6535 33.929 52.0063 34.3149 52.2809 34.8168C52.5555 35.3139 52.6928 35.9602 52.6928 36.7557V44H50.619V42.5085H50.5337C50.3964 42.7831 50.1905 43.053 49.9158 43.3182C49.6412 43.5833 49.2885 43.8035 48.8576 43.9787C48.4267 44.1539 47.9106 44.2415 47.3093 44.2415ZM47.771 42.5369C48.3581 42.5369 48.86 42.4209 49.2766 42.1889C49.698 41.9569 50.0176 41.6539 50.2354 41.2798C50.458 40.901 50.5692 40.4962 50.5692 40.0653V38.6591C50.4935 38.7348 50.3467 38.8059 50.1289 38.8722C49.9158 38.9337 49.672 38.9882 49.3974 39.0355C49.1228 39.0781 48.8552 39.1184 48.5948 39.1562C48.3344 39.1894 48.1166 39.2178 47.9414 39.2415C47.5295 39.2936 47.1531 39.3812 46.8121 39.5043C46.476 39.6274 46.2061 39.8049 46.0025 40.0369C45.8036 40.2642 45.7042 40.5672 45.7042 40.946C45.7042 41.4716 45.8983 41.8693 46.2866 42.1392C46.6748 42.4044 47.1696 42.5369 47.771 42.5369ZM57.6449 37.5227V44H55.5213V33.0909H57.5597V34.8665H57.6946C57.9455 34.2888 58.3385 33.8248 58.8736 33.4744C59.4134 33.1241 60.0928 32.9489 60.9119 32.9489C61.6553 32.9489 62.3063 33.1051 62.8651 33.4176C63.4238 33.7254 63.857 34.1847 64.1648 34.7955C64.4725 35.4062 64.6264 36.1615 64.6264 37.0611V44H62.5028V37.3168C62.5028 36.526 62.2969 35.9081 61.8849 35.4631C61.473 35.0133 60.9072 34.7884 60.1875 34.7884C59.6951 34.7884 59.2571 34.8949 58.8736 35.108C58.4948 35.321 58.1941 35.6335 57.9716 36.0455C57.7538 36.4527 57.6449 36.9451 57.6449 37.5227ZM70.6491 44.2415C69.9579 44.2415 69.3329 44.1136 68.7741 43.858C68.2154 43.5975 67.7727 43.2211 67.446 42.7287C67.1241 42.2363 66.9631 41.6326 66.9631 40.9176C66.9631 40.3021 67.0814 39.7955 67.3182 39.3977C67.5549 39 67.8745 38.6851 68.277 38.4531C68.6795 38.2211 69.1293 38.0459 69.6264 37.9276C70.1236 37.8092 70.6302 37.7192 71.1463 37.6577C71.7997 37.5819 72.33 37.5204 72.7372 37.473C73.1444 37.4209 73.4403 37.3381 73.625 37.2244C73.8097 37.1108 73.902 36.9261 73.902 36.6705V36.6207C73.902 36.0005 73.7268 35.5199 73.3764 35.179C73.0308 34.8381 72.5147 34.6676 71.8281 34.6676C71.1132 34.6676 70.5497 34.8262 70.1378 35.1435C69.7306 35.456 69.4489 35.804 69.2926 36.1875L67.2969 35.733C67.5336 35.0701 67.8793 34.535 68.3338 34.1278C68.7931 33.7159 69.321 33.4176 69.9176 33.233C70.5142 33.0436 71.1416 32.9489 71.7997 32.9489C72.2353 32.9489 72.697 33.0009 73.1847 33.1051C73.6771 33.2045 74.1364 33.3892 74.5625 33.6591C74.9934 33.929 75.3461 34.3149 75.6207 34.8168C75.8954 35.3139 76.0327 35.9602 76.0327 36.7557V44H73.9588V42.5085H73.8736C73.7363 42.7831 73.5303 43.053 73.2557 43.3182C72.9811 43.5833 72.6283 43.8035 72.1974 43.9787C71.7666 44.1539 71.2505 44.2415 70.6491 44.2415ZM71.1108 42.5369C71.6979 42.5369 72.1998 42.4209 72.6165 42.1889C73.0379 41.9569 73.3575 41.6539 73.5753 41.2798C73.7978 40.901 73.9091 40.4962 73.9091 40.0653V38.6591C73.8333 38.7348 73.6866 38.8059 73.4688 38.8722C73.2557 38.9337 73.0118 38.9882 72.7372 39.0355C72.4626 39.0781 72.1951 39.1184 71.9347 39.1562C71.6742 39.1894 71.4564 39.2178 71.2812 39.2415C70.8693 39.2936 70.4929 39.3812 70.152 39.5043C69.8158 39.6274 69.5459 39.8049 69.3423 40.0369C69.1435 40.2642 69.044 40.5672 69.044 40.946C69.044 41.4716 69.2382 41.8693 69.6264 42.1392C70.0147 42.4044 70.5095 42.5369 71.1108 42.5369ZM82.945 44.2131C82.0643 44.2131 81.2783 43.9882 80.587 43.5384C79.9004 43.0838 79.3607 42.4375 78.9677 41.5994C78.5794 40.7566 78.3853 39.7457 78.3853 38.5668C78.3853 37.3878 78.5818 36.3793 78.9748 35.5412C79.3725 34.7031 79.917 34.0616 80.6083 33.6165C81.2996 33.1714 82.0832 32.9489 82.9592 32.9489C83.6362 32.9489 84.1808 33.0625 84.5927 33.2898C85.0094 33.5123 85.3313 33.7727 85.5586 34.071C85.7906 34.3693 85.9705 34.6321 86.0984 34.8594H86.2262V29.4545H88.3498V44H86.2759V42.3026H86.0984C85.9705 42.5346 85.7859 42.7997 85.5444 43.098C85.3076 43.3963 84.9809 43.6567 84.5643 43.8793C84.1476 44.1018 83.6078 44.2131 82.945 44.2131ZM83.4137 42.402C84.0245 42.402 84.5406 42.241 84.962 41.919C85.3881 41.5923 85.7101 41.1402 85.9279 40.5625C86.1504 39.9848 86.2617 39.3125 86.2617 38.5455C86.2617 37.7879 86.1528 37.125 85.935 36.5568C85.7172 35.9886 85.3976 35.5459 84.9762 35.2287C84.5548 34.9115 84.034 34.7528 83.4137 34.7528C82.7745 34.7528 82.2418 34.9186 81.8157 35.25C81.3896 35.5814 81.0676 36.0336 80.8498 36.6065C80.6367 37.1795 80.5302 37.8258 80.5302 38.5455C80.5302 39.2746 80.6391 39.9304 80.8569 40.5128C81.0747 41.0952 81.3967 41.5568 81.8228 41.8977C82.2537 42.2339 82.784 42.402 83.4137 42.402ZM94.5554 44.2415C93.8641 44.2415 93.2391 44.1136 92.6804 43.858C92.1217 43.5975 91.679 43.2211 91.3523 42.7287C91.0303 42.2363 90.8693 41.6326 90.8693 40.9176C90.8693 40.3021 90.9877 39.7955 91.2244 39.3977C91.4612 39 91.7808 38.6851 92.1832 38.4531C92.5857 38.2211 93.0355 38.0459 93.5327 37.9276C94.0298 37.8092 94.5365 37.7192 95.0526 37.6577C95.706 37.5819 96.2363 37.5204 96.6435 37.473C97.0507 37.4209 97.3466 37.3381 97.5312 37.2244C97.7159 37.1108 97.8082 36.9261 97.8082 36.6705V36.6207C97.8082 36.0005 97.633 35.5199 97.2827 35.179C96.937 34.8381 96.4209 34.6676 95.7344 34.6676C95.0194 34.6676 94.456 34.8262 94.044 35.1435C93.6368 35.456 93.3551 35.804 93.1989 36.1875L91.2031 35.733C91.4399 35.0701 91.7855 34.535 92.2401 34.1278C92.6993 33.7159 93.2273 33.4176 93.8239 33.233C94.4205 33.0436 95.0478 32.9489 95.706 32.9489C96.1416 32.9489 96.6032 33.0009 97.0909 33.1051C97.5833 33.2045 98.0426 33.3892 98.4688 33.6591C98.8996 33.929 99.2524 34.3149 99.527 34.8168C99.8016 35.3139 99.9389 35.9602 99.9389 36.7557V44H97.8651V42.5085H97.7798C97.6425 42.7831 97.4366 43.053 97.1619 43.3182C96.8873 43.5833 96.5346 43.8035 96.1037 43.9787C95.6728 44.1539 95.1567 44.2415 94.5554 44.2415ZM95.017 42.5369C95.6042 42.5369 96.1061 42.4209 96.5227 42.1889C96.9441 41.9569 97.2637 41.6539 97.4815 41.2798C97.7041 40.901 97.8153 40.4962 97.8153 40.0653V38.6591C97.7396 38.7348 97.5928 38.8059 97.375 38.8722C97.1619 38.9337 96.9181 38.9882 96.6435 39.0355C96.3688 39.0781 96.1013 39.1184 95.8409 39.1562C95.5805 39.1894 95.3627 39.2178 95.1875 39.2415C94.7756 39.2936 94.3991 39.3812 94.0582 39.5043C93.7221 39.6274 93.4522 39.8049 93.2486 40.0369C93.0497 40.2642 92.9503 40.5672 92.9503 40.946C92.9503 41.4716 93.1444 41.8693 93.5327 42.1392C93.9209 42.4044 94.4157 42.5369 95.017 42.5369Z" fill="white"/>
<defs>
<filter id="filter0_d_1_7787" x="0" y="0" width="180.219" height="84.0503" filterUnits="userSpaceOnUse" color-interpolation-filters="sRGB">
<feFlood flood-opacity="0" result="BackgroundImageFix"/>
<feColorMatrix in="SourceAlpha" type="matrix" values="0 0 0 0 0 0 0 0 0 0 0 0 0 0 0 0 0 0 127 0" result="hardAlpha"/>
<feOffset dx="7" dy="5"/>
<feComposite in2="hardAlpha" operator="out"/>
<feColorMatrix type="matrix" values="0 0 0 0 0.294766 0 0 0 0 0.302647 0 0 0 0 0.491797 0 0 0 0.7 0"/>
<feBlend mode="normal" in2="BackgroundImageFix" result="effect1_dropShadow_1_7787"/>
<feBlend mode="normal" in="SourceGraphic" in2="effect1_dropShadow_1_7787" result="shape"/>
</filter>
</defs>
</svg>
