<svg width="181" height="85" viewBox="0 0 181 85" fill="none" xmlns="http://www.w3.org/2000/svg">
<g filter="url(#filter0_d_1_7807)">
<path d="M0.5 7.29345C0.5 3.26539 3.76539 0 7.79345 0H166.426C170.454 0 173.719 3.26539 173.719 7.29345V60.1709C173.719 64.199 170.454 67.4644 166.426 67.4644H79.4847C77.3783 67.4644 75.3747 68.3751 73.9897 69.9621L66.6031 78.4259C65.8765 79.2585 64.5822 79.2585 63.8556 78.4259L56.469 69.9621C55.084 68.3751 53.0804 67.4644 50.974 67.4644H7.79345C3.76539 67.4644 0.5 64.199 0.5 60.1709V7.29345Z" fill="white"/>
</g>
<path d="M34.098 41V26.4545H43.1179V28.3438H36.2926V32.7756H42.4716V34.6577H36.2926V41H34.098ZM45.5096 41V30.0909H47.5621V31.8239H47.6758C47.8746 31.2367 48.225 30.7751 48.7269 30.4389C49.2335 30.098 49.8065 29.9276 50.4457 29.9276C50.5782 29.9276 50.7345 29.9323 50.9144 29.9418C51.0991 29.9512 51.2435 29.9631 51.3477 29.9773V32.0085C51.2624 31.9848 51.1109 31.9588 50.8931 31.9304C50.6753 31.8973 50.4575 31.8807 50.2397 31.8807C49.7378 31.8807 49.2904 31.9872 48.8974 32.2003C48.5091 32.4086 48.2013 32.6998 47.9741 33.0739C47.7468 33.4432 47.6332 33.8646 47.6332 34.3381V41H45.5096ZM56.2624 41.2415C55.5711 41.2415 54.9461 41.1136 54.3874 40.858C53.8287 40.5975 53.386 40.2211 53.0593 39.7287C52.7373 39.2363 52.5763 38.6326 52.5763 37.9176C52.5763 37.3021 52.6947 36.7955 52.9315 36.3977C53.1682 36 53.4878 35.6851 53.8903 35.4531C54.2927 35.2211 54.7425 35.0459 55.2397 34.9276C55.7369 34.8092 56.2435 34.7192 56.7596 34.6577C57.413 34.5819 57.9433 34.5204 58.3505 34.473C58.7577 34.4209 59.0536 34.3381 59.2383 34.2244C59.4229 34.1108 59.5153 33.9261 59.5153 33.6705V33.6207C59.5153 33.0005 59.3401 32.5199 58.9897 32.179C58.6441 31.8381 58.128 31.6676 57.4414 31.6676C56.7264 31.6676 56.163 31.8262 55.7511 32.1435C55.3439 32.456 55.0621 32.804 54.9059 33.1875L52.9102 32.733C53.1469 32.0701 53.4925 31.535 53.9471 31.1278C54.4064 30.7159 54.9343 30.4176 55.5309 30.233C56.1275 30.0436 56.7549 29.9489 57.413 29.9489C57.8486 29.9489 58.3103 30.0009 58.7979 30.1051C59.2904 30.2045 59.7496 30.3892 60.1758 30.6591C60.6067 30.929 60.9594 31.3149 61.234 31.8168C61.5086 32.3139 61.646 32.9602 61.646 33.7557V41H59.5721V39.5085H59.4869C59.3496 39.7831 59.1436 40.053 58.869 40.3182C58.5943 40.5833 58.2416 40.8035 57.8107 40.9787C57.3799 41.1539 56.8638 41.2415 56.2624 41.2415ZM56.7241 39.5369C57.3112 39.5369 57.8131 39.4209 58.2298 39.1889C58.6512 38.9569 58.9708 38.6539 59.1886 38.2798C59.4111 37.901 59.5224 37.4962 59.5224 37.0653V35.6591C59.4466 35.7348 59.2998 35.8059 59.082 35.8722C58.869 35.9337 58.6251 35.9882 58.3505 36.0355C58.0759 36.0781 57.8084 36.1184 57.5479 36.1562C57.2875 36.1894 57.0697 36.2178 56.8945 36.2415C56.4826 36.2936 56.1062 36.3812 55.7653 36.5043C55.4291 36.6274 55.1592 36.8049 54.9556 37.0369C54.7567 37.2642 54.6573 37.5672 54.6573 37.946C54.6573 38.4716 54.8514 38.8693 55.2397 39.1392C55.628 39.4044 56.1228 39.5369 56.7241 39.5369ZM66.598 34.5227V41H64.4744V30.0909H66.5128V31.8665H66.6477C66.8987 31.2888 67.2917 30.8248 67.8267 30.4744C68.3665 30.1241 69.0459 29.9489 69.8651 29.9489C70.6084 29.9489 71.2595 30.1051 71.8182 30.4176C72.3769 30.7254 72.8101 31.1847 73.1179 31.7955C73.4257 32.4062 73.5795 33.1615 73.5795 34.0611V41H71.456V34.3168C71.456 33.526 71.25 32.9081 70.8381 32.4631C70.4261 32.0133 69.8603 31.7884 69.1406 31.7884C68.6482 31.7884 68.2102 31.8949 67.8267 32.108C67.4479 32.321 67.1473 32.6335 66.9247 33.0455C66.7069 33.4527 66.598 33.9451 66.598 34.5227ZM81.0227 41.2202C79.9669 41.2202 79.0578 40.9811 78.2955 40.5028C77.5379 40.0199 76.9555 39.3546 76.5483 38.5071C76.1411 37.6596 75.9375 36.6889 75.9375 35.5952C75.9375 34.4872 76.1458 33.5095 76.5625 32.6619C76.9792 31.8097 77.5663 31.1444 78.3239 30.6662C79.0814 30.188 79.974 29.9489 81.0014 29.9489C81.83 29.9489 82.5687 30.1027 83.2173 30.4105C83.866 30.7135 84.3892 31.1397 84.7869 31.6889C85.1894 32.2382 85.4285 32.8797 85.5043 33.6136H83.4375C83.3239 33.1023 83.0634 32.6619 82.6562 32.2926C82.2538 31.9233 81.714 31.7386 81.0369 31.7386C80.4451 31.7386 79.9266 31.8949 79.4815 32.2074C79.0412 32.5152 78.6979 32.9555 78.4517 33.5284C78.2055 34.0966 78.0824 34.7689 78.0824 35.5455C78.0824 36.3409 78.2031 37.0275 78.4446 37.6051C78.6861 38.1828 79.027 38.6302 79.4673 38.9474C79.9124 39.2647 80.4356 39.4233 81.0369 39.4233C81.4394 39.4233 81.804 39.3499 82.1307 39.2031C82.4621 39.0516 82.7391 38.8362 82.9616 38.5568C83.1889 38.2775 83.3475 37.9413 83.4375 37.5483H85.5043C85.4285 38.2538 85.1989 38.8835 84.8153 39.4375C84.4318 39.9915 83.9181 40.4271 83.2741 40.7443C82.6349 41.0616 81.8845 41.2202 81.0227 41.2202ZM92.4769 41.2202C91.4021 41.2202 90.4764 40.9905 89.6999 40.5312C88.9281 40.0672 88.3316 39.4162 87.9102 38.5781C87.4935 37.7353 87.2852 36.7481 87.2852 35.6165C87.2852 34.4991 87.4935 33.5142 87.9102 32.6619C88.3316 31.8097 88.9187 31.1444 89.6715 30.6662C90.4291 30.188 91.3145 29.9489 92.3278 29.9489C92.9433 29.9489 93.5399 30.0507 94.1175 30.2543C94.6952 30.4579 95.2137 30.7775 95.6729 31.2131C96.1322 31.6487 96.4944 32.2145 96.7596 32.9105C97.0247 33.6018 97.1573 34.4422 97.1573 35.4318V36.1847H88.4854V34.5938H95.0763C95.0763 34.035 94.9627 33.5402 94.7354 33.1094C94.5082 32.6738 94.1886 32.3305 93.7766 32.0795C93.3694 31.8286 92.8912 31.7031 92.342 31.7031C91.7454 31.7031 91.2246 31.8499 90.7795 32.1435C90.3391 32.4323 89.9982 32.8111 89.7567 33.2798C89.52 33.7438 89.4016 34.2481 89.4016 34.7926V36.0355C89.4016 36.7647 89.5295 37.3849 89.7852 37.8963C90.0456 38.4077 90.4078 38.7983 90.8718 39.0682C91.3358 39.3333 91.878 39.4659 92.4982 39.4659C92.9007 39.4659 93.2676 39.4091 93.5991 39.2955C93.9305 39.1771 94.217 39.0019 94.4585 38.7699C94.6999 38.5379 94.8846 38.2514 95.0124 37.9105L97.0224 38.2727C96.8614 38.8646 96.5726 39.383 96.1559 39.8281C95.744 40.2685 95.2255 40.6117 94.6005 40.858C93.9802 41.0994 93.2724 41.2202 92.4769 41.2202Z" fill="black"/>
<defs>
<filter id="filter0_d_1_7807" x="0.5" y="0" width="180.219" height="84.0503" filterUnits="userSpaceOnUse" color-interpolation-filters="sRGB">
<feFlood flood-opacity="0" result="BackgroundImageFix"/>
<feColorMatrix in="SourceAlpha" type="matrix" values="0 0 0 0 0 0 0 0 0 0 0 0 0 0 0 0 0 0 127 0" result="hardAlpha"/>
<feOffset dx="7" dy="5"/>
<feComposite in2="hardAlpha" operator="out"/>
<feColorMatrix type="matrix" values="0 0 0 0 0.294766 0 0 0 0 0.302647 0 0 0 0 0.491797 0 0 0 0.7 0"/>
<feBlend mode="normal" in2="BackgroundImageFix" result="effect1_dropShadow_1_7807"/>
<feBlend mode="normal" in="SourceGraphic" in2="effect1_dropShadow_1_7807" result="shape"/>
</filter>
</defs>
</svg>
