<svg width="181" height="85" viewBox="0 0 181 85" fill="none" xmlns="http://www.w3.org/2000/svg">
<g filter="url(#filter0_d_1_7799)">
<path d="M0.5 7.29345C0.5 3.26539 3.76539 0 7.79345 0H166.426C170.454 0 173.719 3.26539 173.719 7.29345V60.1709C173.719 64.199 170.454 67.4644 166.426 67.4644H79.4847C77.3783 67.4644 75.3747 68.3751 73.9897 69.9621L66.6031 78.4259C65.8765 79.2585 64.5822 79.2585 63.8556 78.4259L56.469 69.9621C55.084 68.3751 53.0804 67.4644 50.974 67.4644H7.79345C3.76539 67.4644 0.5 64.199 0.5 60.1709V7.29345Z" fill="white"/>
</g>
<path d="M42.4418 31.0497C42.3045 30.6188 42.1198 30.233 41.8878 29.892C41.6605 29.5464 41.3883 29.2528 41.071 29.0114C40.7538 28.7652 40.3916 28.5781 39.9844 28.4503C39.5819 28.3224 39.1392 28.2585 38.6562 28.2585C37.8371 28.2585 37.0985 28.4692 36.4403 28.8906C35.7822 29.312 35.2614 29.9299 34.8778 30.7443C34.4991 31.554 34.3097 32.5459 34.3097 33.7202C34.3097 34.8991 34.5014 35.8958 34.8849 36.7102C35.2685 37.5246 35.794 38.1425 36.4616 38.5639C37.1293 38.9853 37.8892 39.196 38.7415 39.196C39.5322 39.196 40.2211 39.035 40.8082 38.7131C41.4001 38.3911 41.857 37.9366 42.179 37.3494C42.5057 36.7576 42.669 36.0616 42.669 35.2614L43.2372 35.3679H39.0753V33.5568H44.7926V35.2116C44.7926 36.4332 44.5322 37.4938 44.0114 38.3935C43.4953 39.2884 42.7803 39.9796 41.8665 40.4673C40.9574 40.955 39.9157 41.1989 38.7415 41.1989C37.4252 41.1989 36.2699 40.8958 35.2756 40.2898C34.286 39.6837 33.5142 38.8243 32.9602 37.7116C32.4063 36.5942 32.1293 35.2685 32.1293 33.7344C32.1293 32.5743 32.2902 31.5327 32.6122 30.6094C32.9342 29.6861 33.3864 28.9025 33.9688 28.2585C34.5559 27.6098 35.2448 27.1151 36.0355 26.7741C36.831 26.4285 37.6998 26.2557 38.642 26.2557C39.428 26.2557 40.1596 26.3717 40.8366 26.6037C41.5185 26.8357 42.1245 27.1648 42.6548 27.5909C43.1899 28.017 43.6326 28.5237 43.983 29.1108C44.3333 29.6932 44.5701 30.3395 44.6932 31.0497H42.4418ZM47.408 41V30.0909H49.4606V31.8239H49.5742C49.7731 31.2367 50.1235 30.7751 50.6254 30.4389C51.132 30.098 51.7049 29.9276 52.3441 29.9276C52.4767 29.9276 52.6329 29.9323 52.8129 29.9418C52.9975 29.9512 53.1419 29.9631 53.2461 29.9773V32.0085C53.1609 31.9848 53.0094 31.9588 52.7915 31.9304C52.5737 31.8973 52.3559 31.8807 52.1381 31.8807C51.6362 31.8807 51.1888 31.9872 50.7958 32.2003C50.4076 32.4086 50.0998 32.6998 49.8725 33.0739C49.6452 33.4432 49.5316 33.8646 49.5316 34.3381V41H47.408ZM59.3949 41.2202C58.3201 41.2202 57.3944 40.9905 56.6179 40.5312C55.8461 40.0672 55.2495 39.4162 54.8281 38.5781C54.4115 37.7353 54.2031 36.7481 54.2031 35.6165C54.2031 34.4991 54.4115 33.5142 54.8281 32.6619C55.2495 31.8097 55.8366 31.1444 56.5895 30.6662C57.3471 30.188 58.2325 29.9489 59.2457 29.9489C59.8613 29.9489 60.4579 30.0507 61.0355 30.2543C61.6132 30.4579 62.1316 30.7775 62.5909 31.2131C63.0502 31.6487 63.4124 32.2145 63.6776 32.9105C63.9427 33.6018 64.0753 34.4422 64.0753 35.4318V36.1847H55.4034V34.5938H61.9943C61.9943 34.035 61.8807 33.5402 61.6534 33.1094C61.4261 32.6738 61.1065 32.3305 60.6946 32.0795C60.2874 31.8286 59.8092 31.7031 59.2599 31.7031C58.6634 31.7031 58.1425 31.8499 57.6974 32.1435C57.2571 32.4323 56.9162 32.8111 56.6747 33.2798C56.438 33.7438 56.3196 34.2481 56.3196 34.7926V36.0355C56.3196 36.7647 56.4474 37.3849 56.7031 37.8963C56.9635 38.4077 57.3258 38.7983 57.7898 39.0682C58.2538 39.3333 58.7959 39.4659 59.4162 39.4659C59.8187 39.4659 60.1856 39.4091 60.517 39.2955C60.8485 39.1771 61.1349 39.0019 61.3764 38.7699C61.6179 38.5379 61.8026 38.2514 61.9304 37.9105L63.9403 38.2727C63.7794 38.8646 63.4905 39.383 63.0739 39.8281C62.6619 40.2685 62.1435 40.6117 61.5185 40.858C60.8982 41.0994 60.1903 41.2202 59.3949 41.2202ZM71.1332 41.2202C70.0584 41.2202 69.1327 40.9905 68.3562 40.5312C67.5844 40.0672 66.9878 39.4162 66.5664 38.5781C66.1497 37.7353 65.9414 36.7481 65.9414 35.6165C65.9414 34.4991 66.1497 33.5142 66.5664 32.6619C66.9878 31.8097 67.5749 31.1444 68.3278 30.6662C69.0853 30.188 69.9708 29.9489 70.984 29.9489C71.5996 29.9489 72.1961 30.0507 72.7738 30.2543C73.3514 30.4579 73.8699 30.7775 74.3292 31.2131C74.7885 31.6487 75.1507 32.2145 75.4158 32.9105C75.681 33.6018 75.8136 34.4422 75.8136 35.4318V36.1847H67.1417V34.5938H73.7326C73.7326 34.035 73.619 33.5402 73.3917 33.1094C73.1644 32.6738 72.8448 32.3305 72.4329 32.0795C72.0257 31.8286 71.5475 31.7031 70.9982 31.7031C70.4016 31.7031 69.8808 31.8499 69.4357 32.1435C68.9954 32.4323 68.6545 32.8111 68.413 33.2798C68.1763 33.7438 68.0579 34.2481 68.0579 34.7926V36.0355C68.0579 36.7647 68.1857 37.3849 68.4414 37.8963C68.7018 38.4077 69.064 38.7983 69.5281 39.0682C69.9921 39.3333 70.5342 39.4659 71.1545 39.4659C71.5569 39.4659 71.9239 39.4091 72.2553 39.2955C72.5868 39.1771 72.8732 39.0019 73.1147 38.7699C73.3562 38.5379 73.5408 38.2514 73.6687 37.9105L75.6786 38.2727C75.5176 38.8646 75.2288 39.383 74.8121 39.8281C74.4002 40.2685 73.8817 40.6117 73.2567 40.858C72.6365 41.0994 71.9286 41.2202 71.1332 41.2202ZM82.7649 41.2202C81.709 41.2202 80.8 40.9811 80.0376 40.5028C79.2801 40.0199 78.6977 39.3546 78.2905 38.5071C77.8833 37.6596 77.6797 36.6889 77.6797 35.5952C77.6797 34.4872 77.888 33.5095 78.3047 32.6619C78.7214 31.8097 79.3085 31.1444 80.0661 30.6662C80.8236 30.188 81.7161 29.9489 82.7436 29.9489C83.5722 29.9489 84.3108 30.1027 84.9595 30.4105C85.6082 30.7135 86.1314 31.1397 86.5291 31.6889C86.9316 32.2382 87.1707 32.8797 87.2464 33.6136H85.1797C85.0661 33.1023 84.8056 32.6619 84.3984 32.2926C83.996 31.9233 83.4562 31.7386 82.7791 31.7386C82.1873 31.7386 81.6688 31.8949 81.2237 32.2074C80.7834 32.5152 80.4401 32.9555 80.1939 33.5284C79.9477 34.0966 79.8246 34.7689 79.8246 35.5455C79.8246 36.3409 79.9453 37.0275 80.1868 37.6051C80.4283 38.1828 80.7692 38.6302 81.2095 38.9474C81.6546 39.2647 82.1778 39.4233 82.7791 39.4233C83.1816 39.4233 83.5462 39.3499 83.8729 39.2031C84.2043 39.0516 84.4813 38.8362 84.7038 38.5568C84.9311 38.2775 85.0897 37.9413 85.1797 37.5483H87.2464C87.1707 38.2538 86.9411 38.8835 86.5575 39.4375C86.174 39.9915 85.6603 40.4271 85.0163 40.7443C84.3771 41.0616 83.6267 41.2202 82.7649 41.2202ZM94.2191 41.2202C93.1443 41.2202 92.2186 40.9905 91.4421 40.5312C90.6703 40.0672 90.0737 39.4162 89.6523 38.5781C89.2357 37.7353 89.0273 36.7481 89.0273 35.6165C89.0273 34.4991 89.2357 33.5142 89.6523 32.6619C90.0737 31.8097 90.6609 31.1444 91.4137 30.6662C92.1713 30.188 93.0567 29.9489 94.07 29.9489C94.6855 29.9489 95.2821 30.0507 95.8597 30.2543C96.4374 30.4579 96.9558 30.7775 97.4151 31.2131C97.8744 31.6487 98.2366 32.2145 98.5018 32.9105C98.7669 33.6018 98.8995 34.4422 98.8995 35.4318V36.1847H90.2276V34.5938H96.8185C96.8185 34.035 96.7049 33.5402 96.4776 33.1094C96.2504 32.6738 95.9308 32.3305 95.5188 32.0795C95.1116 31.8286 94.6334 31.7031 94.0842 31.7031C93.4876 31.7031 92.9667 31.8499 92.5217 32.1435C92.0813 32.4323 91.7404 32.8111 91.4989 33.2798C91.2622 33.7438 91.1438 34.2481 91.1438 34.7926V36.0355C91.1438 36.7647 91.2717 37.3849 91.5273 37.8963C91.7878 38.4077 92.15 38.7983 92.614 39.0682C93.078 39.3333 93.6201 39.4659 94.2404 39.4659C94.6429 39.4659 95.0098 39.4091 95.3413 39.2955C95.6727 39.1771 95.9592 39.0019 96.2006 38.7699C96.4421 38.5379 96.6268 38.2514 96.7546 37.9105L98.7646 38.2727C98.6036 38.8646 98.3147 39.383 97.8981 39.8281C97.4862 40.2685 96.9677 40.6117 96.3427 40.858C95.7224 41.0994 95.0146 41.2202 94.2191 41.2202Z" fill="black"/>
<defs>
<filter id="filter0_d_1_7799" x="0.5" y="0" width="180.219" height="84.0503" filterUnits="userSpaceOnUse" color-interpolation-filters="sRGB">
<feFlood flood-opacity="0" result="BackgroundImageFix"/>
<feColorMatrix in="SourceAlpha" type="matrix" values="0 0 0 0 0 0 0 0 0 0 0 0 0 0 0 0 0 0 127 0" result="hardAlpha"/>
<feOffset dx="7" dy="5"/>
<feComposite in2="hardAlpha" operator="out"/>
<feColorMatrix type="matrix" values="0 0 0 0 0.294766 0 0 0 0 0.302647 0 0 0 0 0.491797 0 0 0 0.7 0"/>
<feBlend mode="normal" in2="BackgroundImageFix" result="effect1_dropShadow_1_7799"/>
<feBlend mode="normal" in="SourceGraphic" in2="effect1_dropShadow_1_7799" result="shape"/>
</filter>
</defs>
</svg>
