<svg width="181" height="85" viewBox="0 0 181 85" fill="none" xmlns="http://www.w3.org/2000/svg">
<g filter="url(#filter0_d_1_7795)">
<path d="M0.5 7.29345C0.5 3.26539 3.76539 0 7.79345 0H166.426C170.454 0 173.719 3.26539 173.719 7.29345V60.1709C173.719 64.199 170.454 67.4644 166.426 67.4644H79.4847C77.3783 67.4644 75.3747 68.3751 73.9897 69.9621L66.6031 78.4259C65.8765 79.2585 64.5822 79.2585 63.8556 78.4259L56.469 69.9621C55.084 68.3751 53.0804 67.4644 50.974 67.4644H7.79345C3.76539 67.4644 0.5 64.199 0.5 60.1709V7.29345Z" fill="white"/>
</g>
<path d="M33.4418 31.0497C33.3045 30.6188 33.1198 30.233 32.8878 29.892C32.6605 29.5464 32.3883 29.2528 32.071 29.0114C31.7538 28.7652 31.3916 28.5781 30.9844 28.4503C30.5819 28.3224 30.1392 28.2585 29.6562 28.2585C28.8371 28.2585 28.0985 28.4692 27.4403 28.8906C26.7822 29.312 26.2614 29.9299 25.8778 30.7443C25.4991 31.554 25.3097 32.5459 25.3097 33.7202C25.3097 34.8991 25.5014 35.8958 25.8849 36.7102C26.2685 37.5246 26.794 38.1425 27.4616 38.5639C28.1293 38.9853 28.8892 39.196 29.7415 39.196C30.5322 39.196 31.2211 39.035 31.8082 38.7131C32.4001 38.3911 32.857 37.9366 33.179 37.3494C33.5057 36.7576 33.669 36.0616 33.669 35.2614L34.2372 35.3679H30.0753V33.5568H35.7926V35.2116C35.7926 36.4332 35.5322 37.4938 35.0114 38.3935C34.4953 39.2884 33.7803 39.9796 32.8665 40.4673C31.9574 40.955 30.9157 41.1989 29.7415 41.1989C28.4252 41.1989 27.2699 40.8958 26.2756 40.2898C25.286 39.6837 24.5142 38.8243 23.9602 37.7116C23.4063 36.5942 23.1293 35.2685 23.1293 33.7344C23.1293 32.5743 23.2902 31.5327 23.6122 30.6094C23.9342 29.6861 24.3864 28.9025 24.9688 28.2585C25.5559 27.6098 26.2448 27.1151 27.0355 26.7741C27.831 26.4285 28.6998 26.2557 29.642 26.2557C30.428 26.2557 31.1596 26.3717 31.8366 26.6037C32.5185 26.8357 33.1245 27.1648 33.6548 27.5909C34.1899 28.017 34.6326 28.5237 34.983 29.1108C35.3333 29.6932 35.5701 30.3395 35.6932 31.0497H33.4418ZM43.1097 41.2202C42.0349 41.2202 41.1093 40.9905 40.3327 40.5312C39.561 40.0672 38.9644 39.4162 38.543 38.5781C38.1263 37.7353 37.918 36.7481 37.918 35.6165C37.918 34.4991 38.1263 33.5142 38.543 32.6619C38.9644 31.8097 39.5515 31.1444 40.3043 30.6662C41.0619 30.188 41.9473 29.9489 42.9606 29.9489C43.5761 29.9489 44.1727 30.0507 44.7504 30.2543C45.328 30.4579 45.8465 30.7775 46.3058 31.2131C46.765 31.6487 47.1272 32.2145 47.3924 32.9105C47.6576 33.6018 47.7901 34.4422 47.7901 35.4318V36.1847H39.1183V34.5938H45.7092C45.7092 34.035 45.5955 33.5402 45.3683 33.1094C45.141 32.6738 44.8214 32.3305 44.4094 32.0795C44.0022 31.8286 43.524 31.7031 42.9748 31.7031C42.3782 31.7031 41.8574 31.8499 41.4123 32.1435C40.9719 32.4323 40.631 32.8111 40.3896 33.2798C40.1528 33.7438 40.0344 34.2481 40.0344 34.7926V36.0355C40.0344 36.7647 40.1623 37.3849 40.418 37.8963C40.6784 38.4077 41.0406 38.7983 41.5046 39.0682C41.9686 39.3333 42.5108 39.4659 43.131 39.4659C43.5335 39.4659 43.9005 39.4091 44.2319 39.2955C44.5633 39.1771 44.8498 39.0019 45.0913 38.7699C45.3327 38.5379 45.5174 38.2514 45.6452 37.9105L47.6552 38.2727C47.4942 38.8646 47.2054 39.383 46.7887 39.8281C46.3768 40.2685 45.8583 40.6117 45.2333 40.858C44.613 41.0994 43.9052 41.2202 43.1097 41.2202ZM50.1463 41V30.0909H52.1989V31.8239H52.3125C52.5114 31.2367 52.8617 30.7751 53.3636 30.4389C53.8703 30.098 54.4432 29.9276 55.0824 29.9276C55.215 29.9276 55.3712 29.9323 55.5511 29.9418C55.7358 29.9512 55.8802 29.9631 55.9844 29.9773V32.0085C55.8991 31.9848 55.7476 31.9588 55.5298 31.9304C55.312 31.8973 55.0942 31.8807 54.8764 31.8807C54.3745 31.8807 53.9271 31.9872 53.5341 32.2003C53.1458 32.4086 52.8381 32.6998 52.6108 33.0739C52.3835 33.4432 52.2699 33.8646 52.2699 34.3381V41H50.1463ZM57.8221 41V30.0909H59.8604V31.8665H59.9954C60.2227 31.2652 60.5943 30.7964 61.1104 30.4602C61.6265 30.1193 62.2444 29.9489 62.9641 29.9489C63.6933 29.9489 64.3041 30.1193 64.7965 30.4602C65.2937 30.8011 65.6606 31.2699 65.8974 31.8665H66.011C66.2714 31.2841 66.6857 30.8201 67.2539 30.4744C67.8221 30.1241 68.4992 29.9489 69.2852 29.9489C70.2747 29.9489 71.082 30.259 71.707 30.8793C72.3368 31.4995 72.6516 32.4347 72.6516 33.6847V41H70.5281V33.8835C70.5281 33.1449 70.3268 32.6098 69.9244 32.2784C69.5219 31.947 69.0413 31.7812 68.4826 31.7812C67.7913 31.7812 67.2539 31.9943 66.8704 32.4205C66.4869 32.8419 66.2951 33.384 66.2951 34.0469V41H64.1786V33.7486C64.1786 33.1567 63.994 32.6809 63.6246 32.321C63.2553 31.9612 62.7747 31.7812 62.1829 31.7812C61.7804 31.7812 61.4087 31.8878 61.0678 32.1009C60.7317 32.3092 60.4594 32.6004 60.2511 32.9744C60.0475 33.3485 59.9457 33.7817 59.9457 34.2741V41H57.8221ZM78.6726 41.2415C77.9813 41.2415 77.3563 41.1136 76.7976 40.858C76.2389 40.5975 75.7962 40.2211 75.4695 39.7287C75.1475 39.2363 74.9865 38.6326 74.9865 37.9176C74.9865 37.3021 75.1049 36.7955 75.3416 36.3977C75.5784 36 75.898 35.6851 76.3004 35.4531C76.7029 35.2211 77.1527 35.0459 77.6499 34.9276C78.147 34.8092 78.6536 34.7192 79.1697 34.6577C79.8232 34.5819 80.3535 34.5204 80.7607 34.473C81.1679 34.4209 81.4638 34.3381 81.6484 34.2244C81.8331 34.1108 81.9254 33.9261 81.9254 33.6705V33.6207C81.9254 33.0005 81.7502 32.5199 81.3999 32.179C81.0542 31.8381 80.5381 31.6676 79.8516 31.6676C79.1366 31.6676 78.5732 31.8262 78.1612 32.1435C77.754 32.456 77.4723 32.804 77.3161 33.1875L75.3203 32.733C75.5571 32.0701 75.9027 31.535 76.3572 31.1278C76.8165 30.7159 77.3445 30.4176 77.9411 30.233C78.5376 30.0436 79.165 29.9489 79.8232 29.9489C80.2588 29.9489 80.7204 30.0009 81.2081 30.1051C81.7005 30.2045 82.1598 30.3892 82.5859 30.6591C83.0168 30.929 83.3696 31.3149 83.6442 31.8168C83.9188 32.3139 84.0561 32.9602 84.0561 33.7557V41H81.9822V39.5085H81.897C81.7597 39.7831 81.5537 40.053 81.2791 40.3182C81.0045 40.5833 80.6518 40.8035 80.2209 40.9787C79.79 41.1539 79.2739 41.2415 78.6726 41.2415ZM79.1342 39.5369C79.7214 39.5369 80.2232 39.4209 80.6399 39.1889C81.0613 38.9569 81.3809 38.6539 81.5987 38.2798C81.8213 37.901 81.9325 37.4962 81.9325 37.0653V35.6591C81.8568 35.7348 81.71 35.8059 81.4922 35.8722C81.2791 35.9337 81.0353 35.9882 80.7607 36.0355C80.486 36.0781 80.2185 36.1184 79.9581 36.1562C79.6977 36.1894 79.4799 36.2178 79.3047 36.2415C78.8928 36.2936 78.5163 36.3812 78.1754 36.5043C77.8393 36.6274 77.5694 36.8049 77.3658 37.0369C77.1669 37.2642 77.0675 37.5672 77.0675 37.946C77.0675 38.4716 77.2616 38.8693 77.6499 39.1392C78.0381 39.4044 78.5329 39.5369 79.1342 39.5369ZM89.0082 34.5227V41H86.8846V30.0909H88.9229V31.8665H89.0579C89.3088 31.2888 89.7018 30.8248 90.2369 30.4744C90.7766 30.1241 91.4561 29.9489 92.2752 29.9489C93.0186 29.9489 93.6696 30.1051 94.2283 30.4176C94.7871 30.7254 95.2203 31.1847 95.5281 31.7955C95.8358 32.4062 95.9897 33.1615 95.9897 34.0611V41H93.8661V34.3168C93.8661 33.526 93.6602 32.9081 93.2482 32.4631C92.8363 32.0133 92.2705 31.7884 91.5508 31.7884C91.0584 31.7884 90.6204 31.8949 90.2369 32.108C89.8581 32.321 89.5574 32.6335 89.3349 33.0455C89.1171 33.4527 89.0082 33.9451 89.0082 34.5227ZM99.7894 45.0909C99.4722 45.0909 99.1834 45.0649 98.9229 45.0128C98.6625 44.9654 98.4684 44.9134 98.3406 44.8565L98.8519 43.1165C99.2402 43.2206 99.5858 43.2656 99.8888 43.2514C100.192 43.2372 100.459 43.1236 100.691 42.9105C100.928 42.6974 101.136 42.3494 101.316 41.8665L101.579 41.142L97.5877 30.0909H99.8604L102.623 38.5568H102.737L105.5 30.0909H107.779L103.284 42.456C103.075 43.0241 102.81 43.5047 102.488 43.8977C102.166 44.2955 101.783 44.5938 101.338 44.7926C100.893 44.9915 100.377 45.0909 99.7894 45.0909Z" fill="black"/>
<defs>
<filter id="filter0_d_1_7795" x="0.5" y="0" width="180.219" height="84.0503" filterUnits="userSpaceOnUse" color-interpolation-filters="sRGB">
<feFlood flood-opacity="0" result="BackgroundImageFix"/>
<feColorMatrix in="SourceAlpha" type="matrix" values="0 0 0 0 0 0 0 0 0 0 0 0 0 0 0 0 0 0 127 0" result="hardAlpha"/>
<feOffset dx="7" dy="5"/>
<feComposite in2="hardAlpha" operator="out"/>
<feColorMatrix type="matrix" values="0 0 0 0 0.294766 0 0 0 0 0.302647 0 0 0 0 0.491797 0 0 0 0.7 0"/>
<feBlend mode="normal" in2="BackgroundImageFix" result="effect1_dropShadow_1_7795"/>
<feBlend mode="normal" in="SourceGraphic" in2="effect1_dropShadow_1_7795" result="shape"/>
</filter>
</defs>
</svg>
