<svg width="181" height="85" viewBox="0 0 181 85" fill="none" xmlns="http://www.w3.org/2000/svg">
<g filter="url(#filter0_d_1_7803)">
<path d="M0.5 7.29345C0.5 3.26539 3.76539 0 7.79345 0H166.426C170.454 0 173.719 3.26539 173.719 7.29345V60.1709C173.719 64.199 170.454 67.4644 166.426 67.4644H79.4847C77.3783 67.4644 75.3747 68.3751 73.9897 69.9621L66.6031 78.4259C65.8765 79.2585 64.5822 79.2585 63.8556 78.4259L56.469 69.9621C55.084 68.3751 53.0804 67.4644 50.974 67.4644H7.79345C3.76539 67.4644 0.5 64.199 0.5 60.1709V7.29345Z" fill="white"/>
</g>
<path d="M25.8267 41H23.4972L28.7315 26.4545H31.267L36.5014 41H34.1719L30.0597 29.0966H29.946L25.8267 41ZM26.2173 35.304H33.7741V37.1506H26.2173V35.304ZM45.342 36.4759V30.0909H47.4727V41H45.3846V39.1108H45.271C45.02 39.6932 44.6175 40.1785 44.0636 40.5668C43.5143 40.9503 42.8301 41.142 42.011 41.142C41.3103 41.142 40.69 40.9882 40.1502 40.6804C39.6152 40.3679 39.1938 39.9062 38.886 39.2955C38.583 38.6847 38.4315 37.9295 38.4315 37.0298V30.0909H40.555V36.7741C40.555 37.5175 40.761 38.1094 41.1729 38.5497C41.5849 38.9901 42.1199 39.2102 42.7781 39.2102C43.1758 39.2102 43.5711 39.1108 43.9641 38.9119C44.3619 38.7131 44.6909 38.4124 44.9513 38.0099C45.2165 37.6075 45.3467 37.0961 45.342 36.4759ZM58.5007 32.7543L56.576 33.0952C56.4955 32.849 56.3677 32.6146 56.1925 32.392C56.022 32.1695 55.79 31.9872 55.4964 31.8452C55.2029 31.7031 54.8359 31.6321 54.3956 31.6321C53.7943 31.6321 53.2924 31.767 52.8899 32.0369C52.4875 32.3021 52.2862 32.6454 52.2862 33.0668C52.2862 33.4313 52.4212 33.7249 52.6911 33.9474C52.9609 34.17 53.3965 34.3523 53.9979 34.4943L55.7308 34.892C56.7346 35.1241 57.4827 35.4815 57.9751 35.9645C58.4676 36.4474 58.7138 37.0748 58.7138 37.8466C58.7138 38.5 58.5244 39.0824 58.1456 39.5938C57.7715 40.1004 57.2483 40.4981 56.576 40.7869C55.9084 41.0758 55.1342 41.2202 54.2536 41.2202C53.032 41.2202 52.0353 40.9598 51.2635 40.4389C50.4917 39.9134 50.0182 39.1676 49.843 38.2017L51.8956 37.8892C52.0234 38.4242 52.2862 38.8291 52.6839 39.1037C53.0817 39.3736 53.6001 39.5085 54.2393 39.5085C54.9354 39.5085 55.4917 39.3641 55.9084 39.0753C56.325 38.7817 56.5334 38.4242 56.5334 38.0028C56.5334 37.6619 56.4055 37.3755 56.1499 37.1435C55.8989 36.9115 55.513 36.7363 54.9922 36.6179L53.1456 36.2131C52.1276 35.9811 51.3748 35.6117 50.8871 35.1051C50.4041 34.5985 50.1626 33.9569 50.1626 33.1804C50.1626 32.5365 50.3426 31.973 50.7024 31.4901C51.0623 31.0071 51.5594 30.6307 52.1939 30.3608C52.8284 30.0862 53.5552 29.9489 54.3743 29.9489C55.5533 29.9489 56.4813 30.2045 57.1584 30.7159C57.8355 31.2225 58.2829 31.902 58.5007 32.7543ZM66.141 30.0909V31.7955H60.1822V30.0909H66.141ZM61.7802 27.4773H63.9038V37.7969C63.9038 38.2088 63.9653 38.5189 64.0884 38.7273C64.2115 38.9309 64.3701 39.0705 64.5643 39.1463C64.7631 39.2173 64.9786 39.2528 65.2106 39.2528C65.381 39.2528 65.5302 39.241 65.658 39.2173C65.7859 39.1937 65.8853 39.1747 65.9563 39.1605L66.3398 40.9148C66.2167 40.9621 66.0415 41.0095 65.8143 41.0568C65.587 41.1089 65.3029 41.1373 64.962 41.142C64.4033 41.1515 63.8825 41.0521 63.3995 40.8438C62.9165 40.6354 62.5259 40.3134 62.2276 39.8778C61.9293 39.4422 61.7802 38.8954 61.7802 38.2372V27.4773ZM68.4901 41V30.0909H70.5426V31.8239H70.6562C70.8551 31.2367 71.2055 30.7751 71.7074 30.4389C72.214 30.098 72.7869 29.9276 73.4261 29.9276C73.5587 29.9276 73.715 29.9323 73.8949 29.9418C74.0795 29.9512 74.224 29.9631 74.3281 29.9773V32.0085C74.2429 31.9848 74.0914 31.9588 73.8736 31.9304C73.6558 31.8973 73.438 31.8807 73.2202 31.8807C72.7183 31.8807 72.2708 31.9872 71.8778 32.2003C71.4896 32.4086 71.1818 32.6998 70.9545 33.0739C70.7273 33.4432 70.6136 33.8646 70.6136 34.3381V41H68.4901ZM79.2429 41.2415C78.5516 41.2415 77.9266 41.1136 77.3679 40.858C76.8092 40.5975 76.3665 40.2211 76.0398 39.7287C75.7178 39.2363 75.5568 38.6326 75.5568 37.9176C75.5568 37.3021 75.6752 36.7955 75.9119 36.3977C76.1487 36 76.4683 35.6851 76.8707 35.4531C77.2732 35.2211 77.723 35.0459 78.2202 34.9276C78.7173 34.8092 79.224 34.7192 79.7401 34.6577C80.3935 34.5819 80.9238 34.5204 81.331 34.473C81.7382 34.4209 82.0341 34.3381 82.2188 34.2244C82.4034 34.1108 82.4957 33.9261 82.4957 33.6705V33.6207C82.4957 33.0005 82.3205 32.5199 81.9702 32.179C81.6245 31.8381 81.1084 31.6676 80.4219 31.6676C79.7069 31.6676 79.1435 31.8262 78.7315 32.1435C78.3243 32.456 78.0426 32.804 77.8864 33.1875L75.8906 32.733C76.1274 32.0701 76.473 31.535 76.9276 31.1278C77.3868 30.7159 77.9148 30.4176 78.5114 30.233C79.108 30.0436 79.7353 29.9489 80.3935 29.9489C80.8291 29.9489 81.2907 30.0009 81.7784 30.1051C82.2708 30.2045 82.7301 30.3892 83.1562 30.6591C83.5871 30.929 83.9399 31.3149 84.2145 31.8168C84.4891 32.3139 84.6264 32.9602 84.6264 33.7557V41H82.5526V39.5085H82.4673C82.33 39.7831 82.1241 40.053 81.8494 40.3182C81.5748 40.5833 81.2221 40.8035 80.7912 40.9787C80.3603 41.1539 79.8442 41.2415 79.2429 41.2415ZM79.7045 39.5369C80.2917 39.5369 80.7936 39.4209 81.2102 39.1889C81.6316 38.9569 81.9512 38.6539 82.169 38.2798C82.3916 37.901 82.5028 37.4962 82.5028 37.0653V35.6591C82.4271 35.7348 82.2803 35.8059 82.0625 35.8722C81.8494 35.9337 81.6056 35.9882 81.331 36.0355C81.0563 36.0781 80.7888 36.1184 80.5284 36.1562C80.268 36.1894 80.0502 36.2178 79.875 36.2415C79.4631 36.2936 79.0866 36.3812 78.7457 36.5043C78.4096 36.6274 78.1397 36.8049 77.9361 37.0369C77.7372 37.2642 77.6378 37.5672 77.6378 37.946C77.6378 38.4716 77.8319 38.8693 78.2202 39.1392C78.6084 39.4044 79.1032 39.5369 79.7045 39.5369ZM89.5785 26.4545V41H87.4549V26.4545H89.5785ZM92.4354 41V30.0909H94.5589V41H92.4354ZM93.5078 28.4077C93.1385 28.4077 92.8213 28.2846 92.5561 28.0384C92.2957 27.7874 92.1655 27.4891 92.1655 27.1435C92.1655 26.7931 92.2957 26.4948 92.5561 26.2486C92.8213 25.9976 93.1385 25.8722 93.5078 25.8722C93.8771 25.8722 94.192 25.9976 94.4524 26.2486C94.7176 26.4948 94.8501 26.7931 94.8501 27.1435C94.8501 27.4891 94.7176 27.7874 94.4524 28.0384C94.192 28.2846 93.8771 28.4077 93.5078 28.4077ZM100.591 41.2415C99.8993 41.2415 99.2743 41.1136 98.7156 40.858C98.1568 40.5975 97.7141 40.2211 97.3874 39.7287C97.0655 39.2363 96.9045 38.6326 96.9045 37.9176C96.9045 37.3021 97.0228 36.7955 97.2596 36.3977C97.4963 36 97.8159 35.6851 98.2184 35.4531C98.6209 35.2211 99.0707 35.0459 99.5678 34.9276C100.065 34.8092 100.572 34.7192 101.088 34.6577C101.741 34.5819 102.271 34.5204 102.679 34.473C103.086 34.4209 103.382 34.3381 103.566 34.2244C103.751 34.1108 103.843 33.9261 103.843 33.6705V33.6207C103.843 33.0005 103.668 32.5199 103.318 32.179C102.972 31.8381 102.456 31.6676 101.77 31.6676C101.055 31.6676 100.491 31.8262 100.079 32.1435C99.672 32.456 99.3903 32.804 99.234 33.1875L97.2383 32.733C97.475 32.0701 97.8207 31.535 98.2752 31.1278C98.7345 30.7159 99.2624 30.4176 99.859 30.233C100.456 30.0436 101.083 29.9489 101.741 29.9489C102.177 29.9489 102.638 30.0009 103.126 30.1051C103.618 30.2045 104.078 30.3892 104.504 30.6591C104.935 30.929 105.288 31.3149 105.562 31.8168C105.837 32.3139 105.974 32.9602 105.974 33.7557V41H103.9V39.5085H103.815C103.678 39.7831 103.472 40.053 103.197 40.3182C102.922 40.5833 102.57 40.8035 102.139 40.9787C101.708 41.1539 101.192 41.2415 100.591 41.2415ZM101.052 39.5369C101.639 39.5369 102.141 39.4209 102.558 39.1889C102.979 38.9569 103.299 38.6539 103.517 38.2798C103.739 37.901 103.85 37.4962 103.85 37.0653V35.6591C103.775 35.7348 103.628 35.8059 103.41 35.8722C103.197 35.9337 102.953 35.9882 102.679 36.0355C102.404 36.0781 102.136 36.1184 101.876 36.1562C101.616 36.1894 101.398 36.2178 101.223 36.2415C100.811 36.2936 100.434 36.3812 100.093 36.5043C99.7572 36.6274 99.4873 36.8049 99.2837 37.0369C99.0849 37.2642 98.9854 37.5672 98.9854 37.946C98.9854 38.4716 99.1796 38.8693 99.5678 39.1392C99.9561 39.4044 100.451 39.5369 101.052 39.5369Z" fill="black"/>
<defs>
<filter id="filter0_d_1_7803" x="0.5" y="0" width="180.219" height="84.0503" filterUnits="userSpaceOnUse" color-interpolation-filters="sRGB">
<feFlood flood-opacity="0" result="BackgroundImageFix"/>
<feColorMatrix in="SourceAlpha" type="matrix" values="0 0 0 0 0 0 0 0 0 0 0 0 0 0 0 0 0 0 127 0" result="hardAlpha"/>
<feOffset dx="7" dy="5"/>
<feComposite in2="hardAlpha" operator="out"/>
<feColorMatrix type="matrix" values="0 0 0 0 0.294766 0 0 0 0 0.302647 0 0 0 0 0.491797 0 0 0 0.7 0"/>
<feBlend mode="normal" in2="BackgroundImageFix" result="effect1_dropShadow_1_7803"/>
<feBlend mode="normal" in="SourceGraphic" in2="effect1_dropShadow_1_7803" result="shape"/>
</filter>
</defs>
</svg>
