<svg width="90" height="120" viewBox="0 0 90 120" fill="none" xmlns="http://www.w3.org/2000/svg">
<g clip-path="url(#clip0_1_8165)">
<path d="M55.8079 58.6801C55.0723 59.4565 54.404 60.358 53.8411 61.3331L43.9684 78.3331V81.6665V88.3331L52.6286 83.3331L62.4147 66.2831C62.9777 65.308 63.4242 64.2785 63.7289 63.2533C64.0336 62.2281 64.1904 61.2272 64.1904 60.3079C64.1904 59.3886 64.0336 58.5689 63.7289 57.8954C63.4242 57.222 62.9777 56.7081 62.4147 56.3831C61.8518 56.0581 61.1834 55.9283 60.4479 56.0012C59.844 56.061 59.2044 56.2565 58.5542 56.5789C58.5487 56.5817 58.5431 56.5845 58.5375 56.5873C58.4013 56.6552 58.2647 56.7287 58.1279 56.8077C57.3318 57.2674 56.5434 57.9036 55.8079 58.6801Z" fill="#D2D8F6"/>
<path d="M20.8744 94.9998L43.9684 81.6665V78.3331L53.8411 61.3331C54.404 60.358 55.0723 59.4565 55.8079 58.6801C56.5434 57.9036 57.3318 57.2674 58.1279 56.8077C58.2647 56.7287 58.4013 56.6552 58.5375 56.5873C58.5431 56.5845 58.5487 56.5817 58.5542 56.5789L58.4021 29.9998C58.4021 27.3477 57.4897 25.3309 55.8656 24.3932C54.2415 23.4556 52.0387 23.6738 49.7419 24.9998L20.8744 41.6665C18.5775 42.9926 16.3748 45.3179 14.7506 48.131C13.1265 50.944 12.2141 54.0143 12.2141 56.6665V83.3334V89.9998C12.2141 92.652 13.1265 94.6688 14.7506 95.6064C16.3748 96.5441 18.5775 96.3259 20.8744 94.9998Z" fill="#D2D8F6"/>
</g>
<g clip-path="url(#clip1_1_8165)">
<path d="M75.8079 58.6801C75.0723 59.4565 74.404 60.358 73.8411 61.3331L63.9684 78.3331V81.6665V88.3331L72.6286 83.3331L82.4147 66.2831C82.9777 65.308 83.4242 64.2785 83.7289 63.2533C84.0336 62.2281 84.1904 61.2272 84.1904 60.3079C84.1904 59.3886 84.0336 58.5689 83.7289 57.8954C83.4242 57.222 82.9777 56.7081 82.4147 56.3831C81.8518 56.0581 81.1834 55.9283 80.4479 56.0012C79.844 56.061 79.2044 56.2565 78.5542 56.5789C78.5487 56.5817 78.5431 56.5845 78.5375 56.5873C78.4013 56.6552 78.2647 56.7287 78.1279 56.8077C77.3318 57.2674 76.5434 57.9036 75.8079 58.6801Z" fill="white"/>
<path d="M40.8744 94.9998L63.9684 81.6665V78.3331L73.8411 61.3331C74.404 60.358 75.0723 59.4565 75.8079 58.6801C76.5434 57.9036 77.3318 57.2674 78.1279 56.8077C78.2647 56.7287 78.4013 56.6552 78.5375 56.5873C78.5431 56.5845 78.5487 56.5817 78.5542 56.5789L78.4021 29.9998C78.4021 27.3477 77.4897 25.3309 75.8656 24.3932C74.2415 23.4556 72.0387 23.6738 69.7419 24.9998L40.8744 41.6665C38.5775 42.9926 36.3748 45.3179 34.7506 48.131C33.1265 50.944 32.2141 54.0143 32.2141 56.6665V83.3334V89.9998C32.2141 92.652 33.1265 94.6688 34.7506 95.6064C36.3748 96.5441 38.5775 96.3259 40.8744 94.9998Z" fill="white"/>
</g>
<g clip-path="url(#clip2_1_8165)">
<path fill-rule="evenodd" clip-rule="evenodd" d="M40.8741 43.3335C38.9601 44.4386 37.1245 46.3763 35.771 48.7206C34.4176 51.0648 33.6573 53.6234 33.6573 55.8335V78.4767L42.7403 62.7445C42.7468 62.7332 42.7534 62.7219 42.7601 62.7106C44.3162 60.083 46.1558 58.0519 48.091 56.9346C50.0262 55.8173 51.8658 55.7243 53.422 56.555C53.4286 56.5585 53.4352 56.5622 53.4418 56.566L61.0814 60.9767L62.9475 57.7444C62.9542 57.7328 62.961 57.7212 62.9679 57.7096C64.0044 55.9607 65.168 54.4692 66.4171 53.3318C67.183 52.6343 67.9831 52.6824 68.2041 53.4392C68.4252 54.1959 67.9835 55.3748 67.2176 56.0722C66.4896 56.7352 65.7283 57.6785 64.9782 58.9412L62.102 63.923C61.8313 64.3918 61.4642 64.7794 61.0814 65.0004C60.6986 65.2214 60.3315 65.2578 60.0608 65.1015L51.4108 60.1074C50.2911 59.514 49.1435 59.6603 48.091 60.2679C47.0385 60.8756 45.891 62.0544 44.7713 63.9407L33.6573 83.1908V89.1668C33.6573 91.377 34.4176 93.0576 35.771 93.839C37.1245 94.6204 38.9601 94.4386 40.8741 93.3335L52.4211 86.6668C53.2183 86.2066 53.8645 86.5797 53.8645 87.5002C53.8645 88.4206 53.2183 89.5399 52.4211 90.0002L40.8741 96.6668C38.1945 98.2139 35.6246 98.4685 33.7298 97.3745C31.835 96.2806 30.7705 93.9277 30.7705 90.8335V84.1671V57.5002C30.7705 54.406 31.835 50.8239 33.7298 47.542C35.6246 44.2602 38.1945 41.5473 40.8741 40.0002L69.7417 23.3335C72.4213 21.7864 74.9912 21.5318 76.886 22.6258C78.7808 23.7198 79.8453 26.0726 79.8453 29.1668V42.5002C79.8453 43.4206 79.1991 44.5399 78.4019 45.0002C77.6047 45.4604 76.9585 45.0873 76.9585 44.1668V30.8335C76.9585 28.6234 76.1982 26.9427 74.8448 26.1613C73.4913 25.3799 71.6557 25.5618 69.7417 26.6668L40.8741 43.3335ZM62.5248 42.5002C62.5248 41.5797 63.171 40.4604 63.9681 40.0002L63.997 39.9835C64.7942 39.5233 65.4404 39.8964 65.4404 40.8168C65.4404 41.7373 64.7942 42.8566 63.997 43.3168L63.9681 43.3335C63.171 43.7937 62.5248 43.4206 62.5248 42.5002ZM78.1277 58.4747C77.5211 58.825 76.9204 59.3097 76.36 59.9013C75.7996 60.4929 75.2904 61.1798 74.8615 61.9227L74.857 61.9305L65.4115 78.1948V85.8334L72.0268 82.0141L81.3894 65.702L81.3939 65.6942C81.8228 64.9513 82.163 64.1668 82.3952 63.3857C82.6273 62.6046 82.7468 61.842 82.7468 61.1416C82.7468 60.4412 82.6273 59.8166 82.3952 59.3035C82.163 58.7904 81.8228 58.3988 81.3939 58.1512C80.9649 57.9036 80.4557 57.8047 79.8953 57.8602C79.3349 57.9157 78.7343 58.1245 78.1277 58.4747ZM75.2553 57.4595C76.1659 56.4982 77.142 55.7105 78.1277 55.1414C79.1133 54.5723 80.0894 54.233 81 54.1428C81.9107 54.0526 82.7381 54.2133 83.4351 54.6157C84.1321 55.0181 84.685 55.6543 85.0622 56.4881C85.4394 57.3218 85.6335 58.3367 85.6335 59.4749C85.6335 60.6131 85.4394 61.8522 85.0622 63.1215C84.6854 64.3894 84.1333 65.6626 83.4375 66.8686C83.4367 66.87 83.4359 66.8713 83.4351 66.8727L73.6535 83.9149C73.3825 84.3871 73.0134 84.7778 72.6284 85.0001L63.9681 90.0001C63.171 90.4603 62.5248 90.0872 62.5248 89.1668V79.1668C62.5248 78.7222 62.6786 78.2072 62.952 77.7364L72.8202 60.7442C72.821 60.7428 72.8218 60.7414 72.8226 60.7401C73.5191 59.5344 74.3457 58.4197 75.2553 57.4595Z" fill="black"/>
</g>
<defs>
<clipPath id="clip0_1_8165">
<rect width="80" height="80" fill="white" transform="matrix(0.866025 -0.5 0 1 0.666992 40)"/>
</clipPath>
<clipPath id="clip1_1_8165">
<rect width="80" height="80" fill="white" transform="matrix(0.866025 -0.5 0 1 20.667 40)"/>
</clipPath>
<clipPath id="clip2_1_8165">
<rect width="80" height="80" fill="white" transform="matrix(0.866025 -0.5 0 1 20.667 40)"/>
</clipPath>
</defs>
</svg>
