<svg width="90" height="120" viewBox="0 0 90 120" fill="none" xmlns="http://www.w3.org/2000/svg">
<g clip-path="url(#clip0_1_8131)">
<path d="M68.3465 69.6917V21.7224L2.271 59.8711V107.84C2.271 109.349 3.3356 109.964 4.64101 109.211L65.9764 73.7987C67.2819 73.045 68.3465 71.2002 68.3465 69.6917Z" fill="#D2D8F6"/>
<path fill-rule="evenodd" clip-rule="evenodd" d="M65.9764 7.47843L4.64101 42.8905C3.3356 43.6441 2.271 45.489 2.271 46.9974V59.8711L68.3465 21.7224V8.84873C68.3465 7.34028 67.2819 6.72475 65.9764 7.47843ZM60.66 20.7319C61.536 20.2261 62.2547 18.9816 62.2547 17.9498C62.2547 16.9381 61.5536 16.5134 60.66 17.0293C59.7664 17.5452 59.0481 18.7692 59.0481 19.8011C59.0481 20.833 59.7839 21.2377 60.66 20.7319ZM51.0319 26.2907C51.9207 25.7775 52.635 24.5356 52.635 23.5037C52.635 22.4921 51.9207 22.0749 51.0319 22.588C50.1432 23.1011 49.4284 24.3231 49.4284 25.355C49.4284 26.3869 50.1432 26.8038 51.0319 26.2907ZM41.412 31.8447C42.3009 31.3315 43.0153 30.0895 43.0153 29.0576C43.0153 28.046 42.3009 27.6289 41.412 28.1421C40.5232 28.6553 39.8088 29.8771 39.8088 30.9089C39.8088 31.9408 40.5232 32.3579 41.412 31.8447Z" fill="#D2D8F6"/>
<path d="M52.635 23.5037C52.635 24.5356 51.9207 25.7775 51.0319 26.2907C50.1432 26.8038 49.4284 26.3869 49.4284 25.355C49.4284 24.3231 50.1432 23.1011 51.0319 22.588C51.9207 22.0749 52.635 22.4921 52.635 23.5037Z" fill="#D2D8F6"/>
<path d="M43.0153 29.0576C43.0153 30.0895 42.3009 31.3315 41.412 31.8447C40.5232 32.3579 39.8088 31.9408 39.8088 30.9089C39.8088 29.8771 40.5232 28.6553 41.412 28.1421C42.3009 27.6289 43.0153 28.046 43.0153 29.0576Z" fill="#D2D8F6"/>
<path d="M62.2547 17.9498C62.2547 18.9816 61.536 20.2261 60.66 20.7319C59.7839 21.2377 59.0481 20.833 59.0481 19.8011C59.0481 18.7692 59.7664 17.5452 60.66 17.0293C61.5536 16.5134 62.2547 16.9381 62.2547 17.9498Z" fill="#D2D8F6"/>
</g>
<g clip-path="url(#clip1_1_8131)">
<path d="M88.3465 69.6917V21.7224L22.271 59.8711V107.84C22.271 109.349 23.3356 109.964 24.641 109.211L85.9764 73.7987C87.2819 73.045 88.3465 71.2002 88.3465 69.6917Z" fill="white"/>
<path fill-rule="evenodd" clip-rule="evenodd" d="M85.9764 7.47843L24.641 42.8905C23.3356 43.6441 22.271 45.489 22.271 46.9974V59.8711L88.3465 21.7224V8.84873C88.3465 7.34028 87.2819 6.72475 85.9764 7.47843ZM80.66 20.7319C81.536 20.2261 82.2547 18.9816 82.2547 17.9498C82.2547 16.9381 81.5536 16.5134 80.66 17.0293C79.7664 17.5452 79.0481 18.7692 79.0481 19.8011C79.0481 20.833 79.7839 21.2377 80.66 20.7319ZM71.0319 26.2907C71.9207 25.7775 72.635 24.5356 72.635 23.5037C72.635 22.4921 71.9207 22.0749 71.0319 22.588C70.1432 23.1011 69.4284 24.3231 69.4284 25.355C69.4284 26.3869 70.1432 26.8038 71.0319 26.2907ZM61.412 31.8447C62.3009 31.3315 63.0153 30.0895 63.0153 29.0576C63.0153 28.046 62.3009 27.6289 61.412 28.1421C60.5232 28.6553 59.8088 29.8771 59.8088 30.9089C59.8088 31.9408 60.5232 32.3579 61.412 31.8447Z" fill="white"/>
<path d="M72.635 23.5037C72.635 24.5356 71.9207 25.7775 71.0319 26.2907C70.1432 26.8038 69.4284 26.3869 69.4284 25.355C69.4284 24.3231 70.1432 23.1011 71.0319 22.588C71.9207 22.0749 72.635 22.4921 72.635 23.5037Z" fill="white"/>
<path d="M63.0153 29.0576C63.0153 30.0895 62.3009 31.3315 61.412 31.8447C60.5232 32.3579 59.8088 31.9408 59.8088 30.9089C59.8088 29.8771 60.5232 28.6553 61.412 28.1421C62.3009 27.6289 63.0153 28.046 63.0153 29.0576Z" fill="white"/>
<path d="M82.2547 17.9498C82.2547 18.9816 81.536 20.2261 80.66 20.7319C79.7839 21.2377 79.0481 20.833 79.0481 19.8011C79.0481 18.7692 79.7664 17.5452 80.66 17.0293C81.5536 16.5134 82.2547 16.9381 82.2547 17.9498Z" fill="white"/>
</g>
<g clip-path="url(#clip2_1_8131)">
<path fill-rule="evenodd" clip-rule="evenodd" d="M24.6403 44.7421C24.2214 44.984 23.8736 45.5849 23.8736 46.0721V57.0945L86.7425 20.7971V9.77475C86.7425 9.2875 86.3946 9.08827 85.9757 9.3301L24.6403 44.7421ZM86.7425 24.4997L23.8736 60.7971V106.915C23.8736 107.402 24.2214 107.602 24.6403 107.36L85.9757 71.9477C86.3946 71.7059 86.7425 71.105 86.7425 70.6177V24.4997ZM20.667 47.9234C20.667 45.3938 22.4483 42.305 24.6403 41.0395L85.9757 5.62748C88.1677 4.36195 89.949 5.3938 89.949 7.92344V68.7664C89.949 71.2961 88.1677 74.3848 85.9757 75.6504L24.6403 111.062C22.4483 112.328 20.667 111.296 20.667 108.766V47.9234ZM58.2048 31.835C58.2048 29.7638 59.6517 27.3071 61.4113 26.2911C63.1825 25.2685 64.6179 26.0946 64.6179 28.1323C64.6179 30.1771 63.1939 32.6672 61.4113 33.6964C59.6287 34.7256 58.2048 33.8797 58.2048 31.835ZM67.8244 26.281C67.8244 24.2094 69.272 21.7528 71.0312 20.7371C72.8025 19.7144 74.2376 20.5409 74.2376 22.5784C74.2376 24.6229 72.8139 27.1131 71.0312 28.1423C69.2491 29.1712 67.8244 28.3262 67.8244 26.281ZM80.6509 18.8708C80.651 18.8698 80.6508 18.8706 80.6507 18.8736C80.6508 18.8737 80.6508 18.8739 80.6509 18.8741C80.651 18.8744 80.6511 18.8748 80.6513 18.8752C80.6513 18.8753 80.6514 18.8753 80.6514 18.8753M80.6509 18.8708C80.6508 18.8715 80.6505 18.8726 80.6502 18.874L80.6509 18.8708ZM77.4441 20.7271C77.4441 18.6467 78.9029 16.1923 80.6593 15.1783C82.4495 14.1447 83.8573 15.0033 83.8573 17.0245C83.8573 19.0659 82.4319 21.5601 80.6593 22.5836C78.9088 23.5942 77.4441 22.7942 77.4441 20.7271ZM42.1719 68.8713L37.3621 71.6482V67.9456L42.1719 65.1686V68.8713ZM72.6343 51.2838L48.5851 65.1686V61.466L72.6343 47.5812V51.2838ZM61.4113 70.7226L37.3621 84.6074V80.9048L61.4113 67.02V70.7226ZM72.6343 64.243L67.8244 67.02V63.3173L72.6343 60.5404V64.243Z" fill="black"/>
</g>
<defs>
<clipPath id="clip0_1_8131">
<rect width="80" height="80" fill="white" transform="matrix(0.866025 -0.5 0 1 0.666992 40)"/>
</clipPath>
<clipPath id="clip1_1_8131">
<rect width="80" height="80" fill="white" transform="matrix(0.866025 -0.5 0 1 20.667 40)"/>
</clipPath>
<clipPath id="clip2_1_8131">
<rect width="80" height="80" fill="white" transform="matrix(0.866025 -0.5 0 1 20.667 40)"/>
</clipPath>
</defs>
</svg>
