<svg width="90" height="121" viewBox="0 0 90 121" fill="none" xmlns="http://www.w3.org/2000/svg">
<g clip-path="url(#clip0_1_8206)">
<path d="M63.0974 46.3611L36.0534 92.903L9.00938 77.5889C7.22557 76.6144 5.8205 75.0165 4.88263 72.8958C3.94477 70.7751 3.49442 68.1776 3.55996 65.2667C3.6255 62.3558 4.20551 59.1947 5.26345 55.9824C6.32139 52.7702 7.83435 49.5763 9.70706 46.602C11.5798 43.6276 13.7717 40.9373 16.1447 38.7003C18.5178 36.4633 21.0205 34.7281 23.4955 33.6041C25.9704 32.48 28.3639 31.9914 30.5251 32.1691C32.6864 32.3467 34.5687 33.1867 36.0534 34.6362C37.5445 31.4853 39.429 28.4874 41.5888 25.8302C43.7485 23.1729 46.1372 20.9135 48.6052 19.1932C51.0732 17.473 53.5674 16.3291 55.9317 15.8329C58.2961 15.3368 60.4796 15.4992 62.3458 16.31C64.2119 17.1208 65.7204 18.5625 66.7769 20.5449C67.8334 22.5273 68.4151 25.0077 68.4857 27.8308C68.5562 30.654 68.1141 33.7591 67.1869 36.952C66.2598 40.1448 64.8676 43.3565 63.0974 46.3861" fill="#D2D8F6"/>
<path d="M64.1131 46.9589C64.6795 45.9842 64.6839 44.9264 64.1229 44.5962C63.562 44.2661 62.6481 44.7886 62.0817 45.7634L64.1131 46.9589ZM36.0534 92.903L35.0377 94.6736C35.6002 94.9921 36.5065 94.4688 37.0691 93.5007L36.0534 92.903ZM9.00938 77.5889L10.0251 75.8183C10.022 75.8166 10.019 75.8149 10.016 75.8132L9.00938 77.5889ZM36.0534 34.6362L34.8949 36.2992C35.1664 36.5642 35.5943 36.5664 36.0494 36.3052C36.5045 36.0439 36.9335 35.5497 37.207 34.9718L36.0534 34.6362ZM62.086 45.781C61.5173 46.7544 61.5091 47.8144 62.0677 48.1485C62.6263 48.4827 63.5401 47.9646 64.1088 46.9912L62.086 45.781ZM37.0724 35.2017C37.6361 34.2254 37.6361 33.1701 37.0724 32.8446C36.5087 32.5192 35.5948 33.0468 35.0311 34.0232L37.0724 35.2017ZM24.1776 55.179L23.157 54.5897L23.1569 54.59L24.1776 55.179ZM24.1776 61.0665L23.1569 62.8341L23.157 62.8342L24.1776 61.0665ZM38.7562 50.7467L37.7355 50.1575L37.7355 50.1575L38.7562 50.7467ZM46.8694 42.1821V40.5155V42.1821ZM54.9826 41.3784L56.0032 39.6107L56.0032 39.6107L54.9826 41.3784ZM62.0751 47.8304C62.6388 48.1558 63.5527 47.6282 64.1164 46.6518C64.6801 45.6755 64.6801 44.6203 64.1164 44.2948L62.0751 47.8304ZM38.8759 71.3585C38.3122 71.0331 37.3983 71.5607 36.8346 72.5371C36.2709 73.5134 36.2709 74.5686 36.8346 74.8941L38.8759 71.3585ZM44.0464 79.0578C44.61 79.3832 45.5239 78.8556 46.0876 77.8793C46.6513 76.903 46.6513 75.8477 46.0876 75.5222L44.0464 79.0578ZM47.8905 55.7447C47.3269 55.4192 46.413 55.9469 45.8493 56.9232C45.2856 57.8995 45.2856 58.9548 45.8493 59.2802L47.8905 55.7447ZM53.061 63.4439C53.6247 63.7693 54.5386 63.2417 55.1023 62.2654C55.6659 61.2891 55.6659 60.2338 55.1023 59.9084L53.061 63.4439ZM62.0817 45.7634L35.0377 92.3052L37.0691 93.5007L64.1131 46.9589L62.0817 45.7634ZM37.0691 91.1324L10.0251 75.8183L7.99369 79.3595L35.0377 94.6736L37.0691 91.1324ZM10.016 75.8132C8.37499 74.9168 7.0824 73.4468 6.21962 71.4959L3.54565 74.2957C4.5586 76.5862 6.07616 78.312 8.00276 79.3645L10.016 75.8132ZM6.21962 71.4959C5.35683 69.545 4.94255 67.1554 5.00284 64.4775L2.11709 66.0558C2.0463 69.1997 2.5327 72.0053 3.54565 74.2957L6.21962 71.4959ZM5.00284 64.4775C5.06313 61.7997 5.5967 58.8917 6.56995 55.9366L3.95695 56.0283C2.81431 59.4978 2.18787 62.912 2.11709 66.0558L5.00284 64.4775ZM6.56995 55.9366C7.54319 52.9814 8.93503 50.0433 10.6578 47.307L8.75631 45.8969C6.73367 49.1093 5.09959 52.5589 3.95695 56.0283L6.56995 55.9366ZM10.6578 47.307C12.3806 44.5708 14.397 42.0958 16.5801 40.0379L15.7093 37.3626C13.1463 39.7787 10.7789 42.6844 8.75631 45.8969L10.6578 47.307ZM16.5801 40.0379C18.7632 37.98 21.0656 36.3838 23.3424 35.3497L23.6486 31.8584C20.9755 33.0724 18.2724 34.9465 15.7093 37.3626L16.5801 40.0379ZM23.3424 35.3497C25.6192 34.3157 27.821 33.8662 29.8093 34.0296L31.241 30.3085C28.9067 30.1167 26.3216 30.6444 23.6486 31.8584L23.3424 35.3497ZM29.8093 34.0296C31.7975 34.193 33.5291 34.9658 34.8949 36.2992L37.2118 32.9731C35.6083 31.4076 33.5753 30.5004 31.241 30.3085L29.8093 34.0296ZM37.207 34.9718C38.5788 32.0731 40.3124 29.3153 42.2993 26.8707L40.8783 24.7896C38.5456 27.6596 36.5103 30.8975 34.8997 34.3006L37.207 34.9718ZM42.2993 26.8707C44.2861 24.4262 46.4835 22.3476 48.754 20.7651L48.4564 17.6214C45.7908 19.4793 43.211 21.9196 40.8783 24.7896L42.2993 26.8707ZM48.754 20.7651C51.0244 19.1826 53.3189 18.1302 55.494 17.6738L56.3695 13.992C53.8159 14.5279 51.122 15.7634 48.4564 17.6214L48.754 20.7651ZM55.494 17.6738C57.669 17.2174 59.6778 17.3669 61.3945 18.1127L63.297 14.5073C61.2815 13.6316 58.9231 13.4562 56.3695 13.992L55.494 17.6738ZM61.3945 18.1127C63.1112 18.8586 64.499 20.1849 65.4709 22.0086L68.0829 19.0812C66.9418 16.9401 65.3125 15.383 63.297 14.5073L61.3945 18.1127ZM65.4709 22.0086C66.4428 23.8323 66.978 26.1141 67.0429 28.7112L69.9285 26.9504C69.8523 23.9013 69.224 21.2223 68.0829 19.0812L65.4709 22.0086ZM67.0429 28.7112C67.1078 31.3084 66.7011 34.1649 65.8481 37.1021L68.5258 36.8018C69.5271 33.3534 70.0047 29.9996 69.9285 26.9504L67.0429 28.7112ZM65.8481 37.1021C64.9952 40.0393 63.7144 42.9939 62.086 45.781L64.1088 46.9912C66.0207 43.719 67.5244 40.2502 68.5258 36.8018L65.8481 37.1021ZM35.0311 34.0232L23.157 54.5897L25.1983 55.7683L37.0724 35.2017L35.0311 34.0232ZM23.1569 54.59C22.2103 56.2299 21.6785 58.0196 21.6785 59.5656L24.5653 57.8989C24.5653 57.2368 24.793 56.4703 25.1984 55.768L23.1569 54.59ZM21.6785 59.5656C21.6785 61.1116 22.2103 62.2873 23.1569 62.8341L25.1984 59.2988C24.793 59.0646 24.5653 58.5611 24.5653 57.8989L21.6785 59.5656ZM23.157 62.8342L25.115 63.9647L27.1562 60.4291L25.1983 59.2987L23.157 62.8342ZM25.115 63.9647C28.1667 65.7266 33.1192 62.8673 36.1709 57.5815L34.1297 56.403C32.2053 59.7362 29.0806 61.5402 27.1562 60.4291L25.115 63.9647ZM36.1709 57.5815L39.7768 51.336L37.7355 50.1575L34.1297 56.403L36.1709 57.5815ZM39.7768 51.336C41.6579 48.0779 44.2091 45.3847 46.8694 43.8488V40.5155C43.4435 42.4934 40.158 45.9617 37.7355 50.1575L39.7768 51.336ZM46.8694 43.8488C49.5296 42.3129 52.0809 42.0602 53.962 43.1462L56.0032 39.6107C53.5807 38.2121 50.2952 38.5376 46.8694 40.5155V43.8488ZM53.9619 43.1462L62.0751 47.8304L64.1164 44.2948L56.0032 39.6107L53.9619 43.1462ZM36.8346 74.8941L44.0464 79.0578L46.0876 75.5222L38.8759 71.3585L36.8346 74.8941ZM45.8493 59.2802L53.061 63.4439L55.1023 59.9084L47.8905 55.7447L45.8493 59.2802Z" fill="#D2D8F6"/>
</g>
<g clip-path="url(#clip1_1_8206)">
<path d="M80.7383 49.3721L54.7152 93.9996L28.6921 79.421C26.9756 78.4935 25.6236 76.9682 24.7211 74.9411C23.8187 72.914 23.3853 70.429 23.4484 67.6426C23.5115 64.8563 24.0696 61.8289 25.0876 58.7511C26.1056 55.6733 27.5614 52.6118 29.3634 49.7594C31.1655 46.907 33.2746 44.3254 35.5581 42.1773C37.8415 40.0291 40.2499 38.361 42.6314 37.2778C45.0129 36.1946 47.316 35.7199 49.3957 35.8836C51.4753 36.0473 53.2865 36.8458 54.7152 38.2288C56.1501 35.2085 57.9634 32.3336 60.0416 29.7838C62.1199 27.234 64.4183 25.0643 66.7932 23.4105C69.168 21.7568 71.5681 20.6545 73.8432 20.1727C76.1182 19.6909 78.2194 19.8399 80.0151 20.6105C81.8108 21.381 83.2623 22.7565 84.2789 24.6509C85.2955 26.5453 85.8553 28.9177 85.9232 31.6197C85.9911 34.3217 85.5657 37.2952 84.6735 40.3539C83.7813 43.4127 82.4417 46.4909 80.7383 49.396" fill="white"/>
<path d="M81.7513 49.9745C82.3192 49.0007 82.326 47.9415 81.7665 47.6087C81.2071 47.276 80.2932 47.7957 79.7254 48.7696L81.7513 49.9745ZM54.7152 93.9996L53.7023 95.7717C54.2641 96.0865 55.1663 95.5656 55.7282 94.602L54.7152 93.9996ZM28.6921 79.421L29.7051 77.6488C29.702 77.6471 29.699 77.6455 29.696 77.6438L28.6921 79.421ZM54.7152 38.2288L53.559 39.894C53.8306 40.1569 54.2574 40.1583 54.7112 39.8978C55.165 39.6372 55.593 39.1451 55.8666 38.569L54.7152 38.2288ZM79.7296 48.7862C79.1595 49.7587 79.1488 50.82 79.7059 51.1568C80.263 51.4935 81.1768 50.9782 81.747 50.0057L79.7296 48.7862ZM55.7316 38.8C56.2967 37.8246 56.2991 36.7679 55.737 36.4399C55.1748 36.1118 54.2609 36.6367 53.6957 37.6121L55.7316 38.8ZM43.2878 57.9265L42.2699 57.3326L42.2697 57.3328L43.2878 57.9265ZM43.2878 63.5618L42.2697 65.331L42.2699 65.3311L43.2878 63.5618ZM45.1718 64.638L46.1897 62.8687L45.1718 64.638ZM57.316 53.6413L56.2981 53.0473L56.298 53.0474L57.316 53.6413ZM65.1229 45.4197V43.7531V45.4197ZM72.9298 44.6266L73.9477 42.8573L73.9477 42.8573L72.9298 44.6266ZM79.7188 50.8556C80.284 51.1785 81.1979 50.648 81.7601 49.6709C82.3223 48.6937 82.3198 47.6398 81.7547 47.317L79.7188 50.8556ZM57.467 73.2955C56.9018 72.9726 55.9879 73.5031 55.4257 74.4802C54.8635 75.4574 54.866 76.5113 55.4311 76.8341L57.467 73.2955ZM62.3706 80.7983C62.9358 81.1211 63.8497 80.5907 64.4119 79.6135C64.974 78.6364 64.9716 77.5825 64.4065 77.2596L62.3706 80.7983ZM66.1413 58.324C65.5762 58.0012 64.6623 58.5316 64.1001 59.5088C63.5379 60.4859 63.5403 61.5398 64.1055 61.8626L66.1413 58.324ZM71.045 65.8268C71.6102 66.1496 72.5241 65.6192 73.0862 64.642C73.6484 63.6649 73.646 62.611 73.0808 62.2881L71.045 65.8268ZM79.7254 48.7696L53.7023 93.3971L55.7282 94.602L81.7513 49.9745L79.7254 48.7696ZM55.7282 92.2274L29.7051 77.6488L27.6791 81.1931L53.7023 95.7717L55.7282 92.2274ZM29.696 77.6438C28.1227 76.7937 26.8839 75.3959 26.0571 73.5389L23.3852 76.3433C24.3634 78.5405 25.8286 80.1932 27.6882 81.1981L29.696 77.6438ZM26.0571 73.5389C25.2304 71.6819 24.8335 69.4057 24.8913 66.8537L22.0055 68.4316C21.9372 71.4523 22.407 74.1461 23.3852 76.3433L26.0571 73.5389ZM24.8913 66.8537C24.949 64.3017 25.4602 61.5287 26.3928 58.709L23.7823 58.7932C22.679 62.1291 22.0739 65.4108 22.0055 68.4316L24.8913 66.8537ZM26.3928 58.709C27.3255 55.8893 28.6595 53.0837 30.3113 50.469L28.4155 49.0498C26.4634 52.1399 24.8857 55.4573 23.7823 58.7932L26.3928 58.709ZM30.3113 50.469C31.9632 47.8543 33.8971 45.4871 35.9914 43.5169L35.1248 40.8376C32.6521 43.1638 30.3677 45.9597 28.4155 49.0498L30.3113 50.469ZM35.9914 43.5169C38.0856 41.5468 40.2946 40.0166 42.4791 39.0231L42.7837 35.5325C40.2051 36.7053 37.5974 38.5115 35.1248 40.8376L35.9914 43.5169ZM42.4791 39.0231C44.6635 38.0296 46.7757 37.5943 48.6826 37.7444L50.1087 34.0228C47.8562 33.8456 45.3622 34.3597 42.7837 35.5325L42.4791 39.0231ZM48.6826 37.7444C50.5896 37.8945 52.2497 38.6266 53.559 39.894L55.8715 36.5636C54.3234 35.065 52.3611 34.2001 50.1087 34.0228L48.6826 37.7444ZM55.8666 38.569C57.1815 35.8013 58.8437 33.1658 60.7493 30.8278L59.334 28.7397C57.0831 31.5013 55.1186 34.6158 53.5638 37.8886L55.8666 38.569ZM60.7493 30.8278C62.6549 28.4898 64.7629 26.4999 66.9412 24.983L66.6452 21.8381C64.0738 23.6287 61.5849 25.9782 59.334 28.7397L60.7493 30.8278ZM66.9412 24.983C69.1195 23.466 71.3209 22.455 73.4075 22.0131L74.2788 18.3322C71.8152 18.8539 69.2165 20.0475 66.6452 21.8381L66.9412 24.983ZM73.4075 22.0131C75.4941 21.5712 77.4206 21.708 79.0667 22.4144L80.9635 18.8065C79.0182 17.9717 76.7424 17.8105 74.2788 18.3322L73.4075 22.0131ZM79.0667 22.4144C80.7127 23.1208 82.0428 24.3814 82.9742 26.1169L85.5837 23.1849C84.4818 21.1317 82.9088 19.6413 80.9635 18.8065L79.0667 22.4144ZM82.9742 26.1169C83.9056 27.8524 84.4182 30.0256 84.4804 32.5003L87.366 30.7391C87.2924 27.8098 86.6855 25.2381 85.5837 23.1849L82.9742 26.1169ZM84.4804 32.5003C84.5426 34.9751 84.153 37.6986 83.3357 40.5007L86.0113 40.2072C86.9783 36.8917 87.4396 33.6684 87.366 30.7391L84.4804 32.5003ZM83.3357 40.5007C82.5184 43.3028 81.2909 46.1235 79.7296 48.7862L81.747 50.0057C83.5924 46.8584 85.0443 43.5226 86.0113 40.2072L83.3357 40.5007ZM53.6957 37.6121L42.2699 57.3326L44.3057 58.5204L55.7316 38.8L53.6957 37.6121ZM42.2697 57.3328C41.3478 58.9243 40.8285 60.6624 40.8285 62.164L43.7152 60.4973C43.7152 59.8854 43.9268 59.1745 44.3058 58.5202L42.2697 57.3328ZM40.8285 62.164C40.8285 63.6656 41.3478 64.8041 42.2697 65.331L44.3058 61.7925C43.9268 61.5759 43.7152 61.1093 43.7152 60.4973L40.8285 62.164ZM42.2699 65.3311L44.1539 66.4074L46.1897 62.8687L44.3057 61.7924L42.2699 65.3311ZM44.1539 66.4074C47.1111 68.0966 51.9069 65.3277 54.8641 60.2238L52.8283 59.0359C50.9972 62.1963 48.0208 63.9147 46.1897 62.8687L44.1539 66.4074ZM54.8641 60.2238L58.3339 54.2352L56.298 53.0474L52.8283 59.0359L54.8641 60.2238ZM58.3339 54.2352C60.1331 51.1298 62.5751 48.5574 65.1229 47.0864V43.7531C61.8144 45.6632 58.6399 49.0056 56.2981 53.0473L58.3339 54.2352ZM65.1229 47.0864C67.6707 45.6154 70.1127 45.3681 71.9119 46.3959L73.9477 42.8573C71.6059 41.5196 68.4314 41.8429 65.1229 43.7531V47.0864ZM71.9119 46.3959L79.7188 50.8556L81.7547 47.317L73.9477 42.8573L71.9119 46.3959ZM55.4311 76.8341L62.3706 80.7983L64.4065 77.2596L57.467 73.2955L55.4311 76.8341ZM64.1055 61.8626L71.045 65.8268L73.0808 62.2881L66.1413 58.324L64.1055 61.8626Z" fill="#D2D8F6"/>
</g>
<g clip-path="url(#clip2_1_8206)">
<path fill-rule="evenodd" clip-rule="evenodd" d="M42.3724 39.2354C40.216 40.2148 38.0353 41.7266 35.9677 43.6757C33.9 45.6248 31.9902 47.969 30.3585 50.5605C28.7268 53.1521 27.4086 55.9349 26.4868 58.7338C25.565 61.5326 25.0597 64.2869 25.0026 66.8231C24.9454 69.3594 25.3378 71.6227 26.155 73.4704C26.9722 75.3182 28.1964 76.7105 29.7506 77.5595L29.7597 77.5646L54.4726 91.5586L61.0434 80.2506L55.1662 76.8574C54.6025 76.532 54.6025 75.4767 55.1662 74.5004C55.7299 73.5241 56.6438 72.9964 57.2075 73.3219L63.0945 76.7207L69.6609 65.4201L63.7424 62.003C63.1787 61.6776 63.1787 60.6223 63.7424 59.646C64.3061 58.6697 65.22 58.142 65.7837 58.4675L71.712 61.8902L78.2783 50.59L71.4605 46.6537C69.6841 45.6281 67.2747 45.8668 64.7625 47.3172C62.2503 48.7677 59.841 51.3111 58.0646 54.3879L54.6341 60.3296C51.7034 65.4058 46.9473 68.1517 44.0166 66.4596L42.1539 65.3842L42.1537 65.3841C41.24 64.8562 40.7267 63.7214 40.7267 62.2291C40.7267 60.7368 41.24 59.0092 42.1537 57.4263L42.1539 57.426L52.5255 39.4619C51.3771 38.6102 50.0163 38.1099 48.4974 37.9851C46.6143 37.8303 44.5288 38.256 42.3724 39.2354ZM55.3331 39.3129L44.1953 58.6043C44.1952 58.6044 44.1952 58.6044 44.1951 58.6045C43.8227 59.2498 43.6135 59.9541 43.6135 60.5624C43.6135 61.1707 43.8227 61.6334 44.1951 61.8486C44.1952 61.8486 44.1952 61.8487 44.1953 61.8487L46.0579 62.9241C47.8612 63.9652 50.7895 62.2746 52.5928 59.1511L56.0233 53.2094L57.0439 53.7986L56.0233 53.2093C58.3411 49.1948 61.4847 45.8764 64.7625 43.9839C68.0403 42.0915 71.1839 41.78 73.5017 43.1182L72.5945 44.6895L73.5017 43.1182L80.2854 47.0347C81.3143 45.0047 82.1475 42.9102 82.753 40.825C83.5609 38.0431 83.9461 35.3375 83.8846 32.8777C83.8232 30.4179 83.3163 28.2567 82.3958 26.5295C81.4752 24.8022 80.1609 23.546 78.5349 22.8396C76.9089 22.1331 75.0064 21.9916 72.9463 22.4239C70.8863 22.8562 68.713 23.8529 66.5627 25.3517C64.4123 26.8506 62.3311 28.8193 60.4493 31.1345C58.5674 33.4498 56.9255 36.0619 55.6263 38.8072C55.542 38.9852 55.4431 39.1552 55.3331 39.3129ZM81.0601 50.494C81.1132 50.4178 81.1642 50.3382 81.2127 50.2552C83.0384 47.1304 84.4744 43.8177 85.4307 40.5246C86.387 37.2315 86.843 34.0288 86.7702 31.1169C86.6974 28.2051 86.0974 25.6468 85.0078 23.6021C83.9181 21.5574 82.3622 20.0704 80.4374 19.2342C78.5126 18.3979 76.2605 18.2304 73.8218 18.7421C71.3832 19.2538 68.8106 20.4337 66.2651 22.208C63.7196 23.9822 61.2559 26.3127 59.0283 29.0534C57.3284 31.1448 55.794 33.4407 54.4789 35.8552C53.1665 34.9424 51.6318 34.4039 49.9292 34.264C47.7 34.0808 45.2313 34.5847 42.6786 35.7441C40.1259 36.9034 37.5445 38.6931 35.0969 41.0004C32.6493 43.3077 30.3886 46.0826 28.457 49.1503C26.5255 52.2181 24.965 55.5123 23.8738 58.8255C22.7826 62.1387 22.1844 65.3991 22.1168 68.4015C22.0492 71.4038 22.5137 74.083 23.481 76.2703C24.4476 78.4558 25.8952 80.103 27.7328 81.1083C27.7344 81.1091 27.7359 81.11 27.7374 81.1108L53.4569 95.675C54.0195 95.9935 54.9258 95.4702 55.4883 94.5021L81.0601 50.494Z" fill="black"/>
</g>
<defs>
<clipPath id="clip0_1_8206">
<rect width="80" height="80" fill="white" transform="matrix(0.866025 -0.5 0 1 0.666016 40)"/>
</clipPath>
<clipPath id="clip1_1_8206">
<rect width="76.98" height="76.573" fill="white" transform="matrix(0.866025 -0.5 0 1 20.666 43.4668)"/>
</clipPath>
<clipPath id="clip2_1_8206">
<rect width="80" height="80" fill="white" transform="matrix(0.866025 -0.5 0 1 20.666 40)"/>
</clipPath>
</defs>
</svg>
