<svg width="904" height="808" viewBox="0 0 904 808" fill="none" xmlns="http://www.w3.org/2000/svg">
<path fill-rule="evenodd" clip-rule="evenodd" d="M904 334.639C904 328.011 898.627 322.639 892 322.639H852.05C845.423 322.639 840.05 317.266 840.05 310.639V207.187C840.05 200.559 834.678 195.187 828.05 195.187H670.002C663.375 195.187 658.002 189.814 658.002 183.187V12C658.002 5.3726 652.63 0 646.002 0H4C-2.62742 0 -8 5.3726 -8 12V796C-8 802.627 -2.62741 808 4 808H892C898.627 808 904 802.627 904 796V334.639ZM868.602 0C861.974 0 856.602 5.3726 856.602 12V167.255C856.602 173.883 861.974 179.255 868.602 179.255H892C898.627 179.255 904 173.883 904 167.255V12C904 5.3726 898.627 0 892 0H868.602Z" fill="white"/>
</svg>
