<svg width="904" height="924" viewBox="0 0 904 924" fill="none" xmlns="http://www.w3.org/2000/svg">
<path fill-rule="evenodd" clip-rule="evenodd" d="M904 382.681C904 375.102 898.627 368.958 892 368.958H852.05C845.423 368.958 840.05 362.814 840.05 355.236V236.932C840.05 229.352 834.678 223.209 828.05 223.209H670.002C663.375 223.209 658.002 217.065 658.002 209.486V13.7228C658.002 6.14391 652.63 0 646.002 0H4C-2.62742 0 -8 6.14391 -8 13.7228V910.277C-8 917.856 -2.62741 924 4 924H892C898.627 924 904 917.856 904 910.277V382.681ZM868.602 0C861.974 0 856.602 6.14391 856.602 13.7228V191.267C856.602 198.846 861.974 204.99 868.602 204.99H892C898.627 204.99 904 198.846 904 191.267V13.7228C904 6.14391 898.627 0 892 0H868.602Z" fill="white"/>
</svg>
