<svg width="676" height="610" viewBox="0 0 676 610" fill="none" xmlns="http://www.w3.org/2000/svg">
<path fill-rule="evenodd" clip-rule="evenodd" d="M285.311 235.085C285.239 235.801 284.808 236.446 284.161 236.732C283.443 237.091 217.041 275.922 216.322 276.28C214.526 277.212 212.442 277.212 210.645 276.28C209.926 275.922 143.525 237.091 142.806 236.732C142.159 236.446 141.656 235.801 141.656 235.085C141.656 234.941 141.728 234.798 141.728 234.726H141.656V208.218L285.383 208.361V234.726H285.311C285.239 234.87 285.239 234.941 285.311 235.085Z" fill="url(#paint0_linear_1_8844)"/>
<path fill-rule="evenodd" clip-rule="evenodd" d="M213.734 167.309C212.728 167.309 211.794 167.524 210.931 167.953C210.213 168.383 143.811 206.498 143.092 206.928C142.446 207.215 142.014 207.859 141.943 208.576C142.014 209.292 142.446 209.937 143.092 210.224C143.811 210.582 210.213 248.697 210.931 249.127C212.728 250.058 214.812 250.058 216.609 249.127C217.327 248.769 283.729 210.654 284.448 210.224C285.094 209.937 285.526 209.292 285.598 208.576C285.526 207.859 285.094 207.215 284.448 206.928C283.729 206.57 217.327 168.455 216.609 168.025C215.674 167.524 214.74 167.309 213.734 167.309Z" fill="url(#paint1_linear_1_8844)"/>
<path fill-rule="evenodd" clip-rule="evenodd" d="M372.737 180.69C372.665 181.406 372.234 182.051 371.587 182.338C370.868 182.696 304.467 221.527 303.748 221.886C301.951 222.817 299.867 222.817 298.071 221.886C297.352 221.527 230.95 182.696 230.232 182.338C229.585 182.051 229.082 181.406 229.082 180.69C229.082 180.547 229.154 180.403 229.154 180.332H229.082V153.823L372.809 153.967V180.332H372.737C372.665 180.475 372.665 180.547 372.737 180.69Z" fill="url(#paint2_linear_1_8844)"/>
<path fill-rule="evenodd" clip-rule="evenodd" d="M301.16 112.914C300.154 112.914 299.22 113.129 298.357 113.559C297.639 113.989 231.237 152.104 230.518 152.534C229.871 152.82 229.44 153.465 229.368 154.181C229.44 154.898 229.871 155.543 230.518 155.829C231.237 156.187 297.639 194.302 298.357 194.732C300.154 195.664 302.238 195.664 304.034 194.732C304.753 194.374 371.155 156.259 371.874 155.829C372.52 155.543 372.951 154.898 373.023 154.181C372.951 153.465 372.52 152.82 371.874 152.534C371.155 152.175 304.753 114.06 304.034 113.631C303.1 113.129 302.166 112.914 301.16 112.914Z" fill="url(#paint3_linear_1_8844)"/>
<path fill-rule="evenodd" clip-rule="evenodd" d="M372.952 149.604C372.904 149.72 372.448 150.966 371.8 151.252C371.08 151.61 304.579 190.442 303.86 190.8C302.06 191.732 299.973 191.732 298.174 190.8C297.454 190.442 230.953 151.61 230.234 151.252C229.586 150.966 229.082 150.321 229.082 149.604C229.082 149.461 229.154 149.318 229.154 149.246H229.082V122.737L373.024 122.881V149.246V149.291C373.024 149.291 372.999 149.489 372.952 149.604Z" fill="url(#paint4_linear_1_8844)"/>
<path fill-rule="evenodd" clip-rule="evenodd" d="M301.022 81.8281C300.014 81.8281 299.078 82.0431 298.214 82.4729C297.494 82.9028 230.979 121.019 230.259 121.449C229.611 121.735 229.179 122.38 229.107 123.097C229.179 123.813 229.611 124.458 230.259 124.745C230.979 125.103 297.494 163.219 298.214 163.649C300.014 164.58 302.102 164.58 303.901 163.649C304.621 163.291 371.136 125.174 371.856 124.745C372.504 124.458 372.936 123.813 373.008 123.097C372.936 122.38 372.504 121.735 371.856 121.449C371.136 121.091 304.621 82.9745 303.901 82.5446C302.965 82.0431 302.03 81.8281 301.022 81.8281Z" fill="url(#paint5_linear_1_8844)"/>
<path fill-rule="evenodd" clip-rule="evenodd" d="M285.526 203.03C285.478 203.146 285.022 204.391 284.374 204.678C283.655 205.036 217.154 243.868 216.434 244.226C214.635 245.158 212.548 245.158 210.748 244.226C210.029 243.868 143.527 205.036 142.808 204.678C142.16 204.391 141.656 203.747 141.656 203.03C141.656 202.887 141.728 202.744 141.728 202.672H141.656V176.163L285.598 176.306V202.672V202.717C285.598 202.717 285.574 202.914 285.526 203.03Z" fill="url(#paint6_linear_1_8844)"/>
<path fill-rule="evenodd" clip-rule="evenodd" d="M213.596 135.254C212.588 135.254 211.652 135.469 210.788 135.899C210.069 136.329 143.553 174.445 142.833 174.875C142.186 175.161 141.754 175.806 141.682 176.522C141.754 177.239 142.186 177.884 142.833 178.17C143.553 178.529 210.069 216.645 210.788 217.075C212.588 218.006 214.676 218.006 216.475 217.075C217.195 216.716 283.711 178.6 284.43 178.17C285.078 177.884 285.51 177.239 285.582 176.522C285.51 175.806 285.078 175.161 284.43 174.875C283.711 174.516 217.195 136.4 216.475 135.97C215.54 135.469 214.604 135.254 213.596 135.254Z" fill="url(#paint7_linear_1_8844)"/>
<path fill-rule="evenodd" clip-rule="evenodd" d="M674.842 450.206C674.771 450.922 674.339 451.567 673.693 451.853C672.974 452.212 606.572 491.043 605.854 491.401C604.057 492.333 601.973 492.333 600.176 491.401C599.458 491.043 533.056 452.212 532.337 451.853C531.691 451.567 531.188 450.922 531.188 450.206C531.188 450.062 531.259 449.919 531.259 449.847H531.188V423.339L674.914 423.482V449.847H674.842C674.771 449.991 674.771 450.062 674.842 450.206Z" fill="url(#paint8_linear_1_8844)"/>
<path fill-rule="evenodd" clip-rule="evenodd" d="M603.265 382.43C602.259 382.43 601.325 382.645 600.463 383.074C599.744 383.504 533.342 421.619 532.624 422.049C531.977 422.336 531.546 422.981 531.474 423.697C531.546 424.413 531.977 425.058 532.624 425.345C533.342 425.703 599.744 463.818 600.463 464.248C602.259 465.179 604.343 465.179 606.14 464.248C606.859 463.89 673.26 425.775 673.979 425.345C674.626 425.058 675.057 424.413 675.129 423.697C675.057 422.981 674.626 422.336 673.979 422.049C673.26 421.691 606.859 383.576 606.14 383.146C605.206 382.645 604.271 382.43 603.265 382.43Z" fill="url(#paint9_linear_1_8844)"/>
<path fill-rule="evenodd" clip-rule="evenodd" d="M597.128 496.784C597.056 497.5 596.625 498.145 595.978 498.432C595.259 498.79 528.857 537.621 528.139 537.979C526.342 538.911 524.258 538.911 522.462 537.979C521.743 537.621 455.341 498.79 454.622 498.432C453.976 498.145 453.473 497.5 453.473 496.784C453.473 496.64 453.545 496.497 453.545 496.426H453.473V469.917L597.199 470.06V496.426H597.128C597.056 496.569 597.056 496.64 597.128 496.784Z" fill="url(#paint10_linear_1_8844)"/>
<path fill-rule="evenodd" clip-rule="evenodd" d="M525.551 429.008C524.544 429.008 523.61 429.223 522.748 429.653C522.029 430.082 455.627 468.197 454.909 468.627C454.262 468.914 453.831 469.559 453.759 470.275C453.831 470.992 454.262 471.636 454.909 471.923C455.627 472.281 522.029 510.396 522.748 510.826C524.544 511.757 526.629 511.757 528.425 510.826C529.144 510.468 595.545 472.353 596.264 471.923C596.911 471.636 597.342 470.992 597.414 470.275C597.342 469.559 596.911 468.914 596.264 468.627C595.545 468.269 529.144 430.154 528.425 429.724C527.491 429.223 526.557 429.008 525.551 429.008Z" fill="url(#paint11_linear_1_8844)"/>
<path fill-rule="evenodd" clip-rule="evenodd" d="M517.475 540.124C517.403 540.84 516.972 541.485 516.325 541.771C515.607 542.13 449.205 580.961 448.486 581.319C446.69 582.251 444.606 582.251 442.809 581.319C442.091 580.961 375.689 542.13 374.97 541.771C374.323 541.485 373.82 540.84 373.82 540.124C373.82 539.98 373.892 539.837 373.892 539.765H373.82V513.257L517.547 513.4V539.765H517.475C517.403 539.909 517.403 539.98 517.475 540.124Z" fill="url(#paint12_linear_1_8844)"/>
<path fill-rule="evenodd" clip-rule="evenodd" d="M445.898 472.348C444.892 472.348 443.958 472.563 443.096 472.992C442.377 473.422 375.975 511.537 375.257 511.967C374.61 512.254 374.179 512.899 374.107 513.615C374.179 514.331 374.61 514.976 375.257 515.263C375.975 515.621 442.377 553.736 443.096 554.166C444.892 555.097 446.976 555.097 448.773 554.166C449.491 553.808 515.893 515.693 516.612 515.263C517.259 514.976 517.69 514.331 517.762 513.615C517.69 512.899 517.259 512.254 516.612 511.967C515.893 511.609 449.491 473.494 448.773 473.064C447.839 472.563 446.904 472.348 445.898 472.348Z" fill="url(#paint13_linear_1_8844)"/>
<path fill-rule="evenodd" clip-rule="evenodd" d="M195.944 294.342C195.872 295.059 195.441 295.704 194.794 295.99C194.076 296.348 127.674 335.18 126.955 335.538C125.159 336.469 123.074 336.469 121.278 335.538C120.559 335.18 54.1575 296.348 53.4389 295.99C52.7921 295.704 52.2891 295.059 52.2891 294.342C52.2891 294.199 52.3609 294.056 52.3609 293.984H52.2891V267.476L196.016 267.619V293.984H195.944C195.872 294.127 195.872 294.199 195.944 294.342Z" fill="url(#paint14_linear_1_8844)"/>
<path fill-rule="evenodd" clip-rule="evenodd" d="M124.367 226.566C123.361 226.566 122.427 226.781 121.564 227.211C120.846 227.641 54.4439 265.756 53.7253 266.186C53.0785 266.472 52.6473 267.117 52.5754 267.834C52.6473 268.55 53.0785 269.195 53.7253 269.482C54.4439 269.84 120.846 307.955 121.564 308.385C123.361 309.316 125.445 309.316 127.241 308.385C127.96 308.026 194.362 269.911 195.081 269.482C195.727 269.195 196.158 268.55 196.23 267.834C196.158 267.117 195.727 266.472 195.081 266.186C194.362 265.828 127.96 227.713 127.241 227.283C126.307 226.781 125.373 226.566 124.367 226.566Z" fill="url(#paint15_linear_1_8844)"/>
<path fill-rule="evenodd" clip-rule="evenodd" d="M194.213 263.257C194.166 263.372 193.71 264.618 193.062 264.905C192.342 265.263 125.841 304.095 125.121 304.453C123.322 305.384 121.235 305.384 119.436 304.453C118.716 304.095 52.215 265.263 51.4953 264.905C50.8475 264.618 50.3438 263.973 50.3438 263.257C50.3438 263.113 50.4157 262.97 50.4157 262.898H50.3438V236.39L194.285 236.533V262.898V262.943C194.285 262.943 194.261 263.141 194.213 263.257Z" fill="url(#paint16_linear_1_8844)"/>
<path fill-rule="evenodd" clip-rule="evenodd" d="M122.283 195.48C121.276 195.48 120.34 195.695 119.476 196.125C118.756 196.555 52.2408 234.671 51.5209 235.101C50.873 235.388 50.4411 236.033 50.3691 236.749C50.4411 237.466 50.873 238.11 51.5209 238.397C52.2408 238.755 118.756 276.871 119.476 277.301C121.276 278.233 123.363 278.233 125.163 277.301C125.883 276.943 192.398 238.827 193.118 238.397C193.766 238.11 194.198 237.466 194.27 236.749C194.198 236.033 193.766 235.388 193.118 235.101C192.398 234.743 125.883 196.627 125.163 196.197C124.227 195.695 123.291 195.48 122.283 195.48Z" fill="url(#paint17_linear_1_8844)"/>
<path fill-rule="evenodd" clip-rule="evenodd" d="M417.635 331.253C417.588 331.368 417.132 332.614 416.484 332.901C415.764 333.259 349.263 372.091 348.543 372.449C346.744 373.38 344.657 373.38 342.858 372.449C342.138 372.091 275.637 333.259 274.917 332.901C274.269 332.614 273.766 331.969 273.766 331.253C273.766 331.109 273.838 330.966 273.838 330.895H273.766V304.386L417.707 304.529V330.895V330.939C417.707 330.939 417.683 331.137 417.635 331.253Z" fill="url(#paint18_linear_1_8844)"/>
<path fill-rule="evenodd" clip-rule="evenodd" d="M345.705 263.477C344.698 263.477 343.762 263.692 342.898 264.121C342.178 264.551 275.663 302.667 274.943 303.097C274.295 303.384 273.863 304.029 273.791 304.745C273.863 305.462 274.295 306.106 274.943 306.393C275.663 306.751 342.178 344.867 342.898 345.297C344.698 346.229 346.785 346.229 348.585 345.297C349.305 344.939 415.82 306.823 416.54 306.393C417.188 306.106 417.62 305.462 417.692 304.745C417.62 304.029 417.188 303.384 416.54 303.097C415.82 302.739 349.305 264.623 348.585 264.193C347.649 263.692 346.713 263.477 345.705 263.477Z" fill="url(#paint19_linear_1_8844)"/>
<circle cx="6.35506" cy="6.35506" r="6.35506" transform="matrix(0.859406 -0.511293 0 1 246.538 239.536)" fill="#A4B6E2"/>
<circle cx="3.74999" cy="3.74999" r="3.74999" transform="matrix(0.859406 -0.511293 0 1 249.199 240.958)" fill="#7686AD"/>
<circle cx="6.35506" cy="6.35506" r="6.35506" transform="matrix(0.859406 -0.511293 0 1 377.675 334.731)" fill="#A4B6E2"/>
<circle cx="3.74999" cy="3.74999" r="3.74999" transform="matrix(0.859406 -0.511293 0 1 380.336 336.153)" fill="#7686AD"/>
<circle cx="6.35506" cy="6.35506" r="6.35506" transform="matrix(0.859406 -0.511293 0 1 334.937 183.196)" fill="#A4B6E2"/>
<circle cx="3.74999" cy="3.74999" r="3.74999" transform="matrix(0.859406 -0.511293 0 1 337.598 184.618)" fill="#7686AD"/>
<circle cx="6.35506" cy="6.35506" r="6.35506" transform="matrix(-0.859406 -0.511293 0 1 86.5322 301.93)" fill="#A4B6E2"/>
<circle cx="3.74999" cy="3.74999" r="3.74999" transform="matrix(-0.859406 -0.511293 0 1 83.8708 303.353)" fill="#7686AD"/>
<circle cx="6.35506" cy="6.35506" r="6.35506" transform="matrix(-0.859406 -0.511293 0 1 311.888 336.676)" fill="#A4B6E2"/>
<circle cx="3.74999" cy="3.74999" r="3.74999" transform="matrix(-0.859406 -0.511293 0 1 309.226 338.099)" fill="#7686AD"/>
<path d="M252.396 243.565L263.853 250.587C266.089 251.958 267.453 254.393 267.453 257.016V263.192C267.453 265.788 268.789 268.202 270.989 269.581L303.88 290.192" stroke="#C2C2DF" stroke-width="1.71359" stroke-linecap="round"/>
<path d="M381.107 285.82L419.632 262.933C424.461 260.065 424.571 253.113 419.835 250.093L417.973 248.907M341.28 188.194L349.217 193.716C351.243 195.125 352.451 197.437 352.451 199.905V203.002C352.451 205.577 353.766 207.975 355.938 209.359L417.973 248.907M417.973 248.907L432.008 241.519C434.199 240.366 436.815 240.362 439.009 241.507L511.69 279.445C516.972 282.202 517.12 289.707 511.95 292.67L494.657 302.582C489.795 305.369 489.564 312.298 494.231 315.402L588.5 378.102" stroke="#C2C2DF" stroke-width="1.71359" stroke-linecap="round"/>
<circle cx="6.35506" cy="6.35506" r="6.35506" transform="matrix(-0.859406 -0.511293 0 1 411.942 544.555)" fill="#A4B6E2"/>
<circle cx="3.74999" cy="3.74999" r="3.74999" transform="matrix(-0.859406 -0.511293 0 1 409.281 545.978)" fill="#7686AD"/>
<path fill-rule="evenodd" clip-rule="evenodd" d="M81.171 305.254C81.4336 305.647 81.3275 306.179 80.9339 306.442L72.8298 311.85C70.8766 313.154 69.7508 315.387 69.8643 317.732L71.2322 346.011C71.3852 349.172 69.7472 352.151 66.9956 353.716L5.89791 388.454C1.50945 390.949 1.36571 397.222 5.63527 399.916L37.9366 420.294C40.0539 421.63 42.7401 421.67 44.8966 420.399L133.758 368.008C136.294 366.513 139.428 366.455 142.017 367.856L183.887 390.504C189.601 393.594 189.791 401.725 184.228 405.08L172.992 411.855C168.727 414.426 168.671 420.59 172.888 423.237L179.488 427.381C181.614 428.716 184.31 428.747 186.466 427.461L294.422 363.05C296.443 361.844 297.68 359.664 297.68 357.311V348.709C297.68 345.852 299.133 343.191 301.536 341.646L304.874 339.501C305.272 339.245 305.802 339.36 306.058 339.758C306.314 340.156 306.198 340.686 305.8 340.942L302.463 343.088C300.55 344.317 299.394 346.435 299.394 348.709V357.311C299.394 360.268 297.839 363.007 295.3 364.522L187.344 428.932C184.635 430.549 181.248 430.51 178.577 428.833L171.977 424.689C166.679 421.362 166.749 413.617 172.107 410.387L183.343 403.612C187.771 400.942 187.62 394.471 183.072 392.011L141.202 369.363C139.141 368.248 136.647 368.294 134.628 369.484L45.7669 421.875C43.0574 423.472 39.6824 423.421 37.0223 421.743L4.72096 401.365C-0.643365 397.981 -0.462762 390.099 5.05094 386.965L66.1486 352.226C68.3387 350.981 69.6424 348.61 69.5206 346.094L68.1527 317.815C68.0101 314.868 69.4246 312.063 71.8786 310.425L79.9827 305.017C80.3763 304.754 80.9083 304.86 81.171 305.254Z" fill="#C2C2DF"/>
<path d="M385.479 338.762L393.03 343.358C395.278 344.726 396.65 347.167 396.65 349.799V353.943C396.65 356.579 398.027 359.024 400.282 360.391L492.818 416.473" stroke="#C2C2DF" stroke-width="1.71359" stroke-linecap="round"/>
<path d="M405.392 548.098L400.818 550.385C398.263 551.662 396.65 554.273 396.65 557.129V562.73C396.65 565.4 395.237 567.872 392.935 569.227L348.462 595.412C346.124 596.788 343.227 596.803 340.876 595.45L252.011 544.31C247.22 541.554 246.926 534.75 251.46 531.59L327.698 478.454C332.338 475.22 331.898 468.219 326.889 465.592L231.102 415.343C225.926 412.627 225.675 405.308 230.653 402.245L231.998 401.417" stroke="#C2C2DF" stroke-width="1.71359" stroke-linecap="round"/>
<rect x="24.8655" y="409.782" width="5.02895" height="12.5724" rx="2.51447" transform="rotate(120.716 24.8655 409.782)" fill="#117AF2"/>
<rect x="168.631" y="380.637" width="5.02895" height="12.5724" rx="2.51447" transform="rotate(120.716 168.631 380.637)" fill="#117AF2"/>
<rect x="270.973" y="375.859" width="5.02895" height="12.5724" rx="2.51447" transform="rotate(58.7 270.973 375.859)" fill="#117AF2"/>
<rect x="409.817" y="264.445" width="5.02895" height="12.5724" rx="2.51447" transform="rotate(58.7 409.817 264.445)" fill="#117AF2"/>
<rect x="435.764" y="379.668" width="5.02895" height="12.5724" rx="2.51447" transform="rotate(120.716 435.764 379.668)" fill="#117AF2"/>
<rect x="305.6" y="572.004" width="5.02895" height="12.5724" rx="2.51447" transform="rotate(120.716 305.6 572.004)" fill="#117AF2"/>
<path fill-rule="evenodd" clip-rule="evenodd" d="M276.68 227.55V301.39L344.677 339.572L412.675 301.39V227.55L344.646 190.625L276.68 227.55Z" fill="url(#paint20_linear_1_8844)"/>
<path fill-rule="evenodd" clip-rule="evenodd" d="M344.617 190.625C343.674 190.625 342.798 190.816 341.989 191.197C341.315 191.578 279.041 225.365 278.367 225.746C277.761 226 277.356 226.572 277.289 227.207C277.356 227.842 277.761 228.414 278.367 228.668C279.041 228.985 341.315 262.773 341.989 263.154C343.674 263.98 345.628 263.98 347.313 263.154C347.987 262.836 410.26 229.049 410.934 228.668C411.541 228.414 411.945 227.842 412.013 227.207C411.945 226.572 411.541 226 410.934 225.746C410.26 225.429 347.987 191.641 347.313 191.26C346.437 190.816 345.561 190.625 344.617 190.625Z" fill="url(#paint21_linear_1_8844)"/>
<rect width="53.3411" height="61.4997" rx="5.71289" transform="matrix(0.872963 -0.487787 0 1 359.634 264.687)" fill="white"/>
<ellipse cx="397.612" cy="258.208" rx="0.860643" ry="1.05624" transform="rotate(-11.6936 397.612 258.208)" fill="#1482FF"/>
<ellipse cx="398.105" cy="263.148" rx="0.860643" ry="1.05624" transform="rotate(-11.6936 398.105 263.148)" fill="#1482FF"/>
<ellipse cx="398.105" cy="268.585" rx="0.860643" ry="1.05624" transform="rotate(-11.6936 398.105 268.585)" fill="#1482FF"/>
<ellipse cx="395.14" cy="259.69" rx="0.860643" ry="1.05624" transform="rotate(-11.6936 395.14 259.69)" fill="#1482FF"/>
<ellipse cx="395.635" cy="264.63" rx="0.860643" ry="1.05624" transform="rotate(-11.6936 395.635 264.63)" fill="#1482FF"/>
<ellipse cx="395.635" cy="270.067" rx="0.860643" ry="1.05624" transform="rotate(-11.6936 395.635 270.067)" fill="#1482FF"/>
<ellipse cx="392.67" cy="261.172" rx="0.860643" ry="1.05624" transform="rotate(-11.6936 392.67 261.172)" fill="#1482FF"/>
<ellipse cx="393.163" cy="266.113" rx="0.860643" ry="1.05624" transform="rotate(-11.6936 393.163 266.113)" fill="#1482FF"/>
<ellipse cx="393.163" cy="271.549" rx="0.860643" ry="1.05624" transform="rotate(-11.6936 393.163 271.549)" fill="#1482FF"/>
<path d="M384.377 265.81L385.363 266.034C386.349 266.257 385.823 267.017 384.758 267.567L373.399 273.428C372.334 273.977 370.73 274.317 370.1 273.91L369.114 273.686C368.128 273.462 368.654 272.703 369.719 272.153L381.078 266.292C382.143 265.743 383.747 265.403 384.377 265.81Z" fill="#1482FF"/>
<path d="M385.086 270.728L386.071 270.951C387.057 271.175 386.531 271.935 385.466 272.484L374.107 278.345C373.042 278.895 371.438 279.234 370.808 278.827L369.822 278.604C368.836 278.38 369.363 277.62 370.427 277.071L381.786 271.209C382.851 270.66 384.455 270.321 385.086 270.728Z" fill="#1482FF"/>
<path d="M386.267 275.617L387.253 275.841C388.238 276.065 387.712 276.824 386.647 277.374L375.288 283.235C374.224 283.784 372.62 284.124 371.989 283.717L371.004 283.493C370.018 283.27 370.544 282.51 371.609 281.96L382.968 276.099C384.033 275.55 385.636 275.21 386.267 275.617Z" fill="#1482FF"/>
<ellipse cx="397.612" cy="280.709" rx="0.860643" ry="1.05624" transform="rotate(-11.6936 397.612 280.709)" fill="#1482FF"/>
<ellipse cx="398.105" cy="285.649" rx="0.860643" ry="1.05624" transform="rotate(-11.6936 398.105 285.649)" fill="#1482FF"/>
<ellipse cx="398.105" cy="291.086" rx="0.860643" ry="1.05624" transform="rotate(-11.6936 398.105 291.086)" fill="#1482FF"/>
<ellipse cx="395.14" cy="282.191" rx="0.860643" ry="1.05624" transform="rotate(-11.6936 395.14 282.191)" fill="#1482FF"/>
<ellipse cx="395.635" cy="287.132" rx="0.860643" ry="1.05624" transform="rotate(-11.6936 395.635 287.132)" fill="#1482FF"/>
<ellipse cx="395.635" cy="292.568" rx="0.860643" ry="1.05624" transform="rotate(-11.6936 395.635 292.568)" fill="#1482FF"/>
<ellipse cx="392.67" cy="283.674" rx="0.860643" ry="1.05624" transform="rotate(-11.6936 392.67 283.674)" fill="#1482FF"/>
<ellipse cx="393.163" cy="288.614" rx="0.860643" ry="1.05624" transform="rotate(-11.6936 393.163 288.614)" fill="#1482FF"/>
<ellipse cx="393.163" cy="294.051" rx="0.860643" ry="1.05624" transform="rotate(-11.6936 393.163 294.051)" fill="#1482FF"/>
<path d="M385.112 288.253L386.098 288.477C387.084 288.7 386.557 289.46 385.493 290.009L374.134 295.871C373.069 296.42 371.465 296.759 370.834 296.353L369.849 296.129C368.863 295.905 369.389 295.146 370.454 294.596L381.813 288.735C382.878 288.185 384.482 287.846 385.112 288.253Z" fill="#1482FF"/>
<path d="M385.821 293.168L386.806 293.392C387.792 293.616 387.266 294.375 386.201 294.925L374.842 300.786C373.777 301.336 372.173 301.675 371.543 301.268L370.557 301.044C369.571 300.821 370.097 300.061 371.162 299.512L382.521 293.65C383.586 293.101 385.19 292.762 385.821 293.168Z" fill="#1482FF"/>
<path d="M387.001 298.061L387.986 298.284C388.972 298.508 388.446 299.268 387.381 299.817L376.022 305.678C374.957 306.228 373.354 306.567 372.723 306.16L371.737 305.937C370.752 305.713 371.278 304.953 372.343 304.404L383.701 298.542C384.766 297.993 386.37 297.654 387.001 298.061Z" fill="#1482FF"/>
<rect width="53.3411" height="61.4997" rx="5.71289" transform="matrix(-0.872963 -0.487787 0 1 331.245 264.942)" fill="white"/>
<ellipse cx="0.860643" cy="1.05624" rx="0.860643" ry="1.05624" transform="matrix(-0.979245 -0.202678 -0.202678 0.979245 294.324 257.603)" fill="#1482FF"/>
<ellipse cx="0.860643" cy="1.05624" rx="0.860643" ry="1.05624" transform="matrix(-0.979245 -0.202678 -0.202678 0.979245 293.831 262.543)" fill="#1482FF"/>
<ellipse cx="0.860643" cy="1.05624" rx="0.860643" ry="1.05624" transform="matrix(-0.979245 -0.202678 -0.202678 0.979245 293.831 267.978)" fill="#1482FF"/>
<ellipse cx="0.860643" cy="1.05624" rx="0.860643" ry="1.05624" transform="matrix(-0.979245 -0.202678 -0.202678 0.979245 296.796 259.085)" fill="#1482FF"/>
<ellipse cx="0.860643" cy="1.05624" rx="0.860643" ry="1.05624" transform="matrix(-0.979245 -0.202678 -0.202678 0.979245 296.301 264.026)" fill="#1482FF"/>
<ellipse cx="0.860643" cy="1.05624" rx="0.860643" ry="1.05624" transform="matrix(-0.979245 -0.202678 -0.202678 0.979245 296.301 269.462)" fill="#1482FF"/>
<ellipse cx="0.860643" cy="1.05624" rx="0.860643" ry="1.05624" transform="matrix(-0.979245 -0.202678 -0.202678 0.979245 299.266 260.568)" fill="#1482FF"/>
<ellipse cx="0.860643" cy="1.05624" rx="0.860643" ry="1.05624" transform="matrix(-0.979245 -0.202678 -0.202678 0.979245 298.773 265.508)" fill="#1482FF"/>
<ellipse cx="0.860643" cy="1.05624" rx="0.860643" ry="1.05624" transform="matrix(-0.979245 -0.202678 -0.202678 0.979245 298.773 270.945)" fill="#1482FF"/>
<path d="M306.501 266.065L305.516 266.289C304.53 266.513 305.056 267.272 306.121 267.822L317.48 273.683C318.545 274.233 320.149 274.572 320.779 274.165L321.765 273.941C322.751 273.718 322.225 272.958 321.16 272.409L309.801 266.547C308.736 265.998 307.132 265.659 306.501 266.065Z" fill="#1482FF"/>
<path d="M305.793 270.983L304.808 271.207C303.822 271.43 304.348 272.19 305.413 272.739L316.772 278.601C317.837 279.15 319.44 279.489 320.071 279.083L321.057 278.859C322.042 278.635 321.516 277.876 320.451 277.326L309.093 271.465C308.028 270.915 306.424 270.576 305.793 270.983Z" fill="#1482FF"/>
<path d="M304.612 275.873L303.626 276.097C302.641 276.32 303.167 277.08 304.232 277.63L315.59 283.491C316.655 284.04 318.259 284.38 318.89 283.973L319.875 283.749C320.861 283.525 320.335 282.766 319.27 282.216L307.911 276.355C306.846 275.805 305.243 275.466 304.612 275.873Z" fill="#1482FF"/>
<ellipse cx="0.860643" cy="1.05624" rx="0.860643" ry="1.05624" transform="matrix(-0.979245 -0.202678 -0.202678 0.979245 294.324 280.104)" fill="#1482FF"/>
<ellipse cx="0.860643" cy="1.05624" rx="0.860643" ry="1.05624" transform="matrix(-0.979245 -0.202678 -0.202678 0.979245 293.831 285.045)" fill="#1482FF"/>
<ellipse cx="0.860643" cy="1.05624" rx="0.860643" ry="1.05624" transform="matrix(-0.979245 -0.202678 -0.202678 0.979245 293.831 290.481)" fill="#1482FF"/>
<ellipse cx="0.860643" cy="1.05624" rx="0.860643" ry="1.05624" transform="matrix(-0.979245 -0.202678 -0.202678 0.979245 296.796 281.587)" fill="#1482FF"/>
<ellipse cx="0.860643" cy="1.05624" rx="0.860643" ry="1.05624" transform="matrix(-0.979245 -0.202678 -0.202678 0.979245 296.301 286.527)" fill="#1482FF"/>
<ellipse cx="0.860643" cy="1.05624" rx="0.860643" ry="1.05624" transform="matrix(-0.979245 -0.202678 -0.202678 0.979245 296.301 291.964)" fill="#1482FF"/>
<ellipse cx="0.860643" cy="1.05624" rx="0.860643" ry="1.05624" transform="matrix(-0.979245 -0.202678 -0.202678 0.979245 299.266 283.069)" fill="#1482FF"/>
<ellipse cx="0.860643" cy="1.05624" rx="0.860643" ry="1.05624" transform="matrix(-0.979245 -0.202678 -0.202678 0.979245 298.773 288.01)" fill="#1482FF"/>
<ellipse cx="0.860643" cy="1.05624" rx="0.860643" ry="1.05624" transform="matrix(-0.979245 -0.202678 -0.202678 0.979245 298.773 293.446)" fill="#1482FF"/>
<path d="M305.767 288.509L304.781 288.732C303.795 288.956 304.321 289.716 305.386 290.265L316.745 296.127C317.81 296.676 319.414 297.015 320.045 296.608L321.03 296.385C322.016 296.161 321.49 295.401 320.425 294.852L309.066 288.991C308.001 288.441 306.397 288.102 305.767 288.509Z" fill="#1482FF"/>
<path d="M305.058 293.424L304.073 293.647C303.087 293.871 303.613 294.631 304.678 295.18L316.037 301.042C317.102 301.591 318.706 301.93 319.336 301.524L320.322 301.3C321.308 301.076 320.781 300.316 319.717 299.767L308.358 293.906C307.293 293.356 305.689 293.017 305.058 293.424Z" fill="#1482FF"/>
<path d="M303.878 298.316L302.893 298.54C301.907 298.764 302.433 299.523 303.498 300.073L314.857 305.934C315.922 306.484 317.525 306.823 318.156 306.416L319.142 306.192C320.127 305.969 319.601 305.209 318.536 304.66L307.177 298.798C306.113 298.249 304.509 297.91 303.878 298.316Z" fill="#1482FF"/>
<rect width="64.4089" height="64.4089" rx="12.02" transform="matrix(0.866025 0.5 -0.866025 0.5 344.547 192.478)" fill="black" stroke="white" stroke-opacity="0.75" stroke-width="4.50751"/>
<path d="M301.042 222.393C294.025 218.341 294.025 211.772 301.042 207.721L331.409 190.188C338.427 186.137 349.805 186.137 356.822 190.188L387.189 207.721C394.207 211.772 394.207 218.341 387.189 222.393L356.822 239.925C349.805 243.977 338.427 243.977 331.409 239.925L301.042 222.393Z" fill="white"/>
<g clip-path="url(#clip0_1_8844)">
<path d="M358.282 208.15L358.157 223.077L332.303 223.149C330.612 223.162 328.935 222.973 327.377 222.594C325.82 222.215 324.415 221.654 323.251 220.945C322.087 220.237 321.19 219.398 320.616 218.48C320.042 217.561 319.804 216.585 319.916 215.611C320.028 214.637 320.488 213.687 321.267 212.82C322.047 211.954 323.128 211.19 324.443 210.577C325.759 209.964 327.28 209.515 328.911 209.258C330.542 209.001 332.248 208.942 333.92 209.084C333.684 208.121 333.795 207.139 334.245 206.202C334.696 205.264 335.477 204.39 336.54 203.635C337.602 202.88 338.923 202.259 340.42 201.812C341.918 201.365 343.558 201.101 345.24 201.037C346.922 200.973 348.608 201.11 350.194 201.44C351.78 201.77 353.231 202.285 354.456 202.953C355.681 203.621 356.654 204.428 357.314 205.323C357.974 206.219 358.307 207.183 358.292 208.156M333.909 209.079L333.909 215.664C333.909 216.039 334.167 216.399 334.627 216.664C335.086 216.929 335.709 217.078 336.358 217.078L338.239 217.078C340.629 217.078 342.569 215.958 342.569 214.578L342.569 212.578C342.569 211.385 343.39 210.24 344.852 209.397C346.313 208.553 348.296 208.079 350.363 208.079L358.156 208.079M351.229 218.078L358.156 218.078M351.229 213.078L358.156 213.078" stroke="black" stroke-width="2.91419" stroke-linecap="round" stroke-linejoin="round"/>
</g>
<path fill-rule="evenodd" clip-rule="evenodd" d="M675.232 419.044C675.185 419.16 674.728 420.403 674.079 420.689C673.359 421.047 606.777 459.816 606.056 460.174C604.255 461.103 602.165 461.103 600.364 460.174C599.643 459.816 533.061 421.047 532.34 420.689C531.692 420.403 531.188 419.76 531.188 419.044C531.188 418.901 531.26 418.758 531.26 418.687H531.188V411.617L675.304 411.76V418.687V418.731C675.304 418.731 675.28 418.929 675.232 419.044Z" fill="url(#paint22_linear_1_8844)"/>
<path fill-rule="evenodd" clip-rule="evenodd" d="M603.215 369.805C602.206 369.805 601.269 370.019 600.404 370.448C599.683 370.878 533.087 408.932 532.366 409.361C531.717 409.647 531.285 410.291 531.213 411.006C531.285 411.722 531.717 412.365 532.366 412.652C533.087 413.009 599.683 451.063 600.404 451.493C602.206 452.423 604.296 452.423 606.098 451.493C606.818 451.135 673.415 413.081 674.136 412.652C674.784 412.365 675.217 411.722 675.289 411.006C675.217 410.291 674.784 409.647 674.136 409.361C673.415 409.003 606.818 370.949 606.098 370.52C605.161 370.019 604.224 369.805 603.215 369.805Z" fill="url(#paint23_linear_1_8844)"/>
<path fill-rule="evenodd" clip-rule="evenodd" d="M598.256 463.728C598.208 463.843 597.751 465.087 597.103 465.373C596.382 465.731 529.8 504.499 529.08 504.857C527.278 505.787 525.189 505.787 523.387 504.857C522.667 504.499 456.084 465.731 455.364 465.373C454.715 465.087 454.211 464.443 454.211 463.728C454.211 463.585 454.283 463.442 454.283 463.37H454.211V456.301L598.328 456.444V463.37V463.415C598.328 463.415 598.304 463.612 598.256 463.728Z" fill="url(#paint24_linear_1_8844)"/>
<path fill-rule="evenodd" clip-rule="evenodd" d="M526.238 414.488C525.229 414.488 524.292 414.703 523.427 415.132C522.707 415.561 456.11 453.616 455.39 454.045C454.741 454.331 454.308 454.975 454.236 455.69C454.308 456.405 454.741 457.049 455.39 457.335C456.11 457.693 522.707 495.747 523.427 496.176C525.229 497.106 527.319 497.106 529.121 496.176C529.842 495.819 596.438 457.764 597.159 457.335C597.808 457.049 598.24 456.405 598.312 455.69C598.24 454.975 597.808 454.331 597.159 454.045C596.438 453.687 529.842 415.633 529.121 415.204C528.184 414.703 527.247 414.488 526.238 414.488Z" fill="url(#paint25_linear_1_8844)"/>
<path fill-rule="evenodd" clip-rule="evenodd" d="M517.865 506.47C517.817 506.586 517.361 507.829 516.712 508.115C515.992 508.473 449.41 547.242 448.689 547.599C446.888 548.529 444.798 548.529 442.996 547.599C442.276 547.242 375.694 508.473 374.973 508.115C374.325 507.829 373.82 507.185 373.82 506.47C373.82 506.327 373.892 506.184 373.892 506.112H373.82V499.043L517.937 499.186V506.112V506.157C517.937 506.157 517.913 506.355 517.865 506.47Z" fill="url(#paint26_linear_1_8844)"/>
<path fill-rule="evenodd" clip-rule="evenodd" d="M445.848 457.23C444.839 457.23 443.902 457.445 443.037 457.874C442.316 458.303 375.72 496.358 374.999 496.787C374.35 497.073 373.918 497.717 373.846 498.432C373.918 499.147 374.35 499.791 374.999 500.077C375.72 500.435 442.316 538.489 443.037 538.918C444.839 539.848 446.929 539.848 448.731 538.918C449.451 538.561 516.048 500.506 516.768 500.077C517.417 499.791 517.849 499.147 517.922 498.432C517.849 497.717 517.417 497.073 516.768 496.787C516.048 496.429 449.451 458.375 448.731 457.946C447.794 457.445 446.857 457.23 445.848 457.23Z" fill="url(#paint27_linear_1_8844)"/>
<g clip-path="url(#clip1_1_8844)">
<path d="M364.992 113.521V121.448C364.992 129.731 359.539 137.99 348.589 144.315C326.733 156.94 291.262 156.94 269.405 144.315C258.459 137.993 253.003 129.71 253.003 121.448V113.521H364.992Z" fill="#343F64"/>
<path d="M348.6 136.394C326.731 149.019 291.275 149.019 269.403 136.394C247.533 123.766 247.533 103.295 269.403 90.6697C291.272 78.0443 326.731 78.0443 348.6 90.6697C370.469 103.298 370.469 123.768 348.6 136.394Z" fill="url(#paint28_linear_1_8844)"/>
<path d="M358.808 97.8262V111.653C358.808 119.02 353.956 126.369 344.216 131.994C324.772 143.225 293.22 143.225 273.777 131.994C264.036 126.369 259.185 119.001 259.185 111.653V97.8262H358.805H358.808Z" fill="url(#paint29_linear_1_8844)"/>
<path d="M364.992 73.2144V100.466C364.992 108.749 359.539 117.011 348.59 123.333C326.733 135.959 291.262 135.959 269.406 123.333C258.459 117.011 253.003 108.731 253.003 100.466V73.2144H364.992Z" fill="#7987B7"/>
<path d="M364.992 92.2642V96.9706C364.992 105.254 359.539 113.513 348.59 119.838C326.733 132.463 291.262 132.463 269.406 119.838C258.459 113.513 253.003 105.233 253.003 96.9706V92.2642C253.003 100.526 258.456 108.807 269.406 115.131C291.262 127.757 326.733 127.757 348.59 115.131C359.539 108.809 364.992 100.547 364.992 92.2642Z" fill="#A0C6FF"/>
<path d="M364.992 84.4883V89.1948C364.992 97.478 359.539 105.737 348.59 112.062C326.733 124.687 291.262 124.687 269.406 112.062C258.459 105.737 253.003 97.4568 253.003 89.1948V84.4883C253.003 92.7504 258.456 101.031 269.406 107.356C291.262 119.981 326.733 119.981 348.59 107.356C359.539 101.034 364.992 92.7715 364.992 84.4883Z" fill="#A0C6FF"/>
<path d="M364.992 76.7119V81.4184C364.992 89.7016 359.539 97.961 348.59 104.286C326.733 116.911 291.262 116.911 269.406 104.286C258.459 97.961 253.003 89.6805 253.003 81.4184V76.7119C253.003 84.974 258.456 93.2546 269.406 99.5791C291.262 112.205 326.733 112.205 348.59 99.5791C359.539 93.2572 364.992 84.9951 364.992 76.7119Z" fill="#A0C6FF"/>
<path d="M348.6 96.0865C326.731 108.712 291.275 108.712 269.403 96.0865C247.533 83.4611 247.533 62.988 269.403 50.3626C291.272 37.7372 326.731 37.7372 348.6 50.3626C370.469 62.988 370.469 83.4611 348.6 96.0865Z" fill="url(#paint30_linear_1_8844)"/>
<path d="M351.839 59.728V71.6196C351.839 77.9574 347.666 84.2767 339.29 89.1152C322.568 98.7736 295.43 98.7736 278.71 89.1152C270.335 84.2767 266.162 77.9416 266.162 71.6196V59.728H351.839Z" fill="#7987B7"/>
<path d="M351.842 63.6006V68.5895C351.842 74.9326 347.66 81.2545 339.298 86.0824C322.573 95.7567 295.425 95.7567 278.718 86.0824C270.335 81.2545 266.154 74.9115 266.154 68.5895V63.6006C266.154 69.9041 270.335 76.2445 278.718 81.0935C295.425 90.7493 322.573 90.7493 339.298 81.0935C347.66 76.2445 351.842 69.9225 351.842 63.6006Z" fill="#A0C6FF"/>
<path d="M339.296 77.2263C322.566 86.8848 295.438 86.8848 278.705 77.2263C261.975 67.5653 261.973 51.9042 278.705 42.2458C295.435 32.5873 322.563 32.5873 339.296 42.2458C356.028 51.9069 356.028 67.5679 339.296 77.2263Z" fill="#343F64"/>
<path d="M343.115 61.6396C342.368 57.2367 339.076 52.9737 333.237 49.6002C319.844 41.8634 298.148 41.8634 284.758 49.6002C278.919 52.9737 275.627 57.2367 274.88 61.6396C273.93 55.9433 277.224 50.0859 284.758 45.7411C298.151 38.0043 319.846 38.0043 333.237 45.7411C340.771 50.0833 344.065 55.9433 343.115 61.6396Z" fill="#A0C6FF"/>
</g>
<g clip-path="url(#clip2_1_8844)">
<path d="M650.727 388.268V410.047C650.727 413.279 649.658 416.512 647.519 419.553C645.389 422.59 642.19 425.439 637.922 427.903C620.84 437.762 593.152 437.762 576.079 427.903C567.542 422.969 563.282 416.512 563.273 410.047V388.268H584.849C598.47 383.637 615.51 383.637 629.14 388.268H650.724H650.727Z" fill="url(#paint31_linear_1_8844)"/>
<path d="M662.994 342.164V370.052C662.994 374.193 661.624 378.333 658.887 382.223C656.159 386.115 652.063 389.757 646.597 392.917C624.724 405.542 589.268 405.542 567.405 392.917C556.474 386.602 551.019 378.333 551.008 370.055V342.167H578.64C596.084 336.237 617.902 336.237 635.357 342.167H662.997L662.994 342.164Z" fill="#AEB2F4"/>
<path d="M662.994 346.778V374.666C662.994 378.807 661.624 382.947 658.887 386.837C656.159 390.729 652.063 394.371 646.597 397.531C624.724 410.156 589.268 410.156 567.405 397.531C556.474 391.216 551.019 382.947 551.008 374.666V346.778H578.64C596.084 340.851 617.902 340.851 635.357 346.778H662.997H662.994Z" fill="url(#paint32_linear_1_8844)"/>
<path d="M662.994 362V366.505C662.994 370.645 661.624 374.786 658.887 378.675C656.159 382.568 652.063 386.21 646.597 389.37C624.724 401.994 589.268 401.994 567.405 389.37C556.474 383.055 551.019 374.786 551.008 366.508V362.003C551.019 370.283 556.474 378.55 567.405 384.868C589.268 397.492 624.726 397.492 646.597 384.868C652.063 381.71 656.159 378.066 658.887 374.173C661.624 370.281 662.994 366.14 662.994 362.003V362Z" fill="#1482FF"/>
<path d="M646.597 365.194C624.729 377.821 589.271 377.821 567.403 365.194C545.532 352.567 545.532 332.097 567.403 319.47C589.271 306.843 624.729 306.843 646.597 319.47C668.468 332.097 668.468 352.567 646.597 365.194Z" fill="#EFF3FF"/>
<path d="M651.946 346.035C650.61 340.611 646.33 335.385 639.096 331.211C621.374 320.982 592.631 320.982 574.898 331.211C567.664 335.382 563.385 340.611 562.059 346.035C560.119 338.155 564.398 329.864 574.898 323.794C592.631 313.564 621.371 313.564 639.096 323.794C649.607 329.864 653.887 338.153 651.946 346.035Z" fill="#1482FF"/>
<path d="M583.101 410.459V420.572C580.623 419.645 578.262 418.545 576.081 417.284C571.975 414.911 568.859 412.185 566.734 409.284V399.171C568.859 402.073 571.975 404.799 576.081 407.171C578.259 408.432 580.62 409.532 583.101 410.459Z" fill="#1482FF"/>
<path d="M604.49 414.502V424.615C598.874 424.442 593.3 423.635 588.126 422.201V412.088C593.303 413.522 598.874 414.329 604.49 414.502Z" fill="#1482FF"/>
<path d="M625.879 412.088V422.201C620.703 423.635 615.132 424.442 609.516 424.615V414.502C615.132 414.329 620.706 413.522 625.879 412.088Z" fill="#1482FF"/>
<path d="M647.266 399.171V409.284C645.141 412.185 642.026 414.911 637.919 417.284C635.741 418.545 633.38 419.645 630.899 420.572V410.459C633.377 409.532 635.739 408.432 637.919 407.171C642.026 404.799 645.141 402.073 647.266 399.171Z" fill="#1482FF"/>
<path d="M586.993 381.828V386.333C579.846 384.771 573.161 382.323 567.405 379.002C565.799 378.074 564.323 377.105 562.953 376.1V371.595C564.323 372.598 565.799 373.569 567.405 374.496C573.163 377.818 579.846 380.263 586.993 381.828Z" fill="#1482FF"/>
<path d="M651.049 371.595V376.1C649.68 377.103 648.193 378.074 646.597 379.002C640.839 382.323 634.146 384.768 627.01 386.333V381.828C634.146 380.266 640.842 377.818 646.597 374.496C648.193 373.569 649.68 372.6 651.049 371.595Z" fill="#1482FF"/>
</g>
<g clip-path="url(#clip3_1_8844)">
<path d="M272.992 164.521V172.448C272.992 180.731 267.539 188.99 256.589 195.315C234.733 207.94 199.262 207.94 177.405 195.315C166.459 188.993 161.003 180.71 161.003 172.448V164.521H272.992Z" fill="#343F64"/>
<path d="M256.6 187.394C234.731 200.019 199.275 200.019 177.403 187.394C155.533 174.766 155.533 154.295 177.403 141.67C199.272 129.044 234.731 129.044 256.6 141.67C278.469 154.298 278.469 174.768 256.6 187.394Z" fill="url(#paint33_linear_1_8844)"/>
<path d="M266.808 148.826V162.653C266.808 170.02 261.956 177.369 252.216 182.994C232.772 194.225 201.22 194.225 181.777 182.994C172.036 177.369 167.185 170.001 167.185 162.653V148.826H266.805H266.808Z" fill="url(#paint34_linear_1_8844)"/>
<path d="M272.992 124.214V151.466C272.992 159.749 267.539 168.011 256.59 174.333C234.733 186.959 199.262 186.959 177.406 174.333C166.459 168.011 161.003 159.731 161.003 151.466V124.214H272.992Z" fill="#7987B7"/>
<path d="M272.992 143.264V147.971C272.992 156.254 267.539 164.513 256.59 170.838C234.733 183.463 199.262 183.463 177.406 170.838C166.459 164.513 161.003 156.233 161.003 147.971V143.264C161.003 151.526 166.456 159.807 177.406 166.131C199.262 178.757 234.733 178.757 256.59 166.131C267.539 159.809 272.992 151.547 272.992 143.264Z" fill="#A0C6FF"/>
<path d="M272.992 135.488V140.195C272.992 148.478 267.539 156.737 256.59 163.062C234.733 175.687 199.262 175.687 177.406 163.062C166.459 156.737 161.003 148.457 161.003 140.195V135.488C161.003 143.75 166.456 152.031 177.406 158.356C199.262 170.981 234.733 170.981 256.59 158.356C267.539 152.034 272.992 143.771 272.992 135.488Z" fill="#A0C6FF"/>
<path d="M272.992 127.712V132.418C272.992 140.702 267.539 148.961 256.59 155.286C234.733 167.911 199.262 167.911 177.406 155.286C166.459 148.961 161.003 140.68 161.003 132.418V127.712C161.003 135.974 166.456 144.255 177.406 150.579C199.262 163.205 234.733 163.205 256.59 150.579C267.539 144.257 272.992 135.995 272.992 127.712Z" fill="#A0C6FF"/>
<path d="M256.6 147.086C234.731 159.712 199.275 159.712 177.403 147.086C155.533 134.461 155.533 113.988 177.403 101.363C199.272 88.7372 234.731 88.7372 256.6 101.363C278.469 113.988 278.469 134.461 256.6 147.086Z" fill="url(#paint35_linear_1_8844)"/>
<path d="M259.839 110.728V122.62C259.839 128.957 255.666 135.277 247.29 140.115C230.568 149.774 203.43 149.774 186.71 140.115C178.335 135.277 174.162 128.942 174.162 122.62V110.728H259.839Z" fill="#7987B7"/>
<path d="M259.842 114.601V119.59C259.842 125.933 255.66 132.255 247.298 137.082C230.573 146.757 203.425 146.757 186.718 137.082C178.335 132.255 174.154 125.911 174.154 119.59V114.601C174.154 120.904 178.335 127.244 186.718 132.093C203.425 141.749 230.573 141.749 247.298 132.093C255.66 127.244 259.842 120.923 259.842 114.601Z" fill="#A0C6FF"/>
<path d="M247.296 128.226C230.566 137.885 203.438 137.885 186.705 128.226C169.975 118.565 169.973 102.904 186.705 93.2458C203.435 83.5873 230.563 83.5873 247.296 93.2458C264.028 102.907 264.028 118.568 247.296 128.226Z" fill="#343F64"/>
<path d="M251.115 112.64C250.368 108.237 247.076 103.974 241.237 100.6C227.844 92.8634 206.148 92.8634 192.758 100.6C186.919 103.974 183.627 108.237 182.88 112.64C181.93 106.943 185.224 101.086 192.758 96.7411C206.151 89.0043 227.846 89.0043 241.237 96.7411C248.771 101.083 252.065 106.943 251.115 112.64Z" fill="#A0C6FF"/>
</g>
<g clip-path="url(#clip4_1_8844)">
<path d="M570.727 431.268V453.047C570.727 456.279 569.658 459.512 567.519 462.553C565.389 465.59 562.19 468.439 557.922 470.903C540.84 480.762 513.152 480.762 496.079 470.903C487.542 465.969 483.282 459.512 483.273 453.047V431.268H504.849C518.47 426.637 535.51 426.637 549.14 431.268H570.724H570.727Z" fill="url(#paint36_linear_1_8844)"/>
<path d="M582.994 385.164V413.052C582.994 417.193 581.624 421.333 578.887 425.223C576.159 429.115 572.063 432.757 566.597 435.917C544.724 448.542 509.268 448.542 487.405 435.917C476.474 429.602 471.019 421.333 471.008 413.055V385.167H498.64C516.084 379.237 537.902 379.237 555.357 385.167H582.997L582.994 385.164Z" fill="#AEB2F4"/>
<path d="M582.994 389.778V417.666C582.994 421.807 581.624 425.947 578.887 429.837C576.159 433.729 572.063 437.371 566.597 440.531C544.724 453.156 509.268 453.156 487.405 440.531C476.474 434.216 471.019 425.947 471.008 417.666V389.778H498.64C516.084 383.851 537.902 383.851 555.357 389.778H582.997H582.994Z" fill="url(#paint37_linear_1_8844)"/>
<path d="M582.994 405V409.505C582.994 413.645 581.624 417.786 578.887 421.675C576.159 425.568 572.063 429.21 566.597 432.37C544.724 444.994 509.268 444.994 487.405 432.37C476.474 426.055 471.019 417.786 471.008 409.508V405.003C471.019 413.283 476.474 421.55 487.405 427.868C509.268 440.492 544.726 440.492 566.597 427.868C572.063 424.71 576.159 421.066 578.887 417.173C581.624 413.281 582.994 409.14 582.994 405.003V405Z" fill="#1482FF"/>
<path d="M566.597 408.194C544.729 420.821 509.271 420.821 487.403 408.194C465.532 395.567 465.532 375.097 487.403 362.47C509.271 349.843 544.729 349.843 566.597 362.47C588.468 375.097 588.468 395.567 566.597 408.194Z" fill="#EFF3FF"/>
<path d="M571.946 389.035C570.61 383.611 566.33 378.385 559.096 374.211C541.374 363.982 512.631 363.982 494.898 374.211C487.664 378.382 483.385 383.611 482.059 389.035C480.119 381.155 484.398 372.864 494.898 366.794C512.631 356.564 541.371 356.564 559.096 366.794C569.607 372.864 573.887 381.153 571.946 389.035Z" fill="#1482FF"/>
<path d="M503.101 453.459V463.572C500.623 462.645 498.262 461.545 496.081 460.284C491.975 457.911 488.859 455.185 486.734 452.284V442.171C488.859 445.073 491.975 447.799 496.081 450.171C498.259 451.432 500.62 452.532 503.101 453.459Z" fill="#1482FF"/>
<path d="M524.49 457.502V467.615C518.874 467.442 513.3 466.635 508.126 465.201V455.088C513.303 456.522 518.874 457.329 524.49 457.502Z" fill="#1482FF"/>
<path d="M545.879 455.088V465.201C540.703 466.635 535.132 467.442 529.516 467.615V457.502C535.132 457.329 540.706 456.522 545.879 455.088Z" fill="#1482FF"/>
<path d="M567.266 442.171V452.284C565.141 455.185 562.026 457.911 557.919 460.284C555.741 461.545 553.38 462.645 550.899 463.572V453.459C553.377 452.532 555.739 451.432 557.919 450.171C562.026 447.799 565.141 445.073 567.266 442.171Z" fill="#1482FF"/>
<path d="M506.993 424.828V429.333C499.846 427.771 493.161 425.323 487.405 422.002C485.799 421.074 484.323 420.105 482.953 419.1V414.595C484.323 415.598 485.799 416.569 487.405 417.496C493.163 420.818 499.846 423.263 506.993 424.828Z" fill="#1482FF"/>
<path d="M571.049 414.595V419.1C569.68 420.103 568.193 421.074 566.597 422.002C560.839 425.323 554.146 427.768 547.01 429.333V424.828C554.146 423.266 560.842 420.818 566.597 417.496C568.193 416.569 569.68 415.6 571.049 414.595Z" fill="#1482FF"/>
</g>
<g clip-path="url(#clip5_1_8844)">
<path d="M176.992 222.521V230.448C176.992 238.731 171.539 246.99 160.589 253.315C138.733 265.94 103.262 265.94 81.4054 253.315C70.4588 246.993 65.0027 238.71 65.0027 230.448V222.521H176.992Z" fill="#343F64"/>
<path d="M160.6 245.394C138.731 258.019 103.275 258.019 81.4028 245.394C59.5334 232.766 59.5334 212.295 81.4028 199.67C103.272 187.044 138.731 187.044 160.6 199.67C182.469 212.298 182.469 232.768 160.6 245.394Z" fill="url(#paint38_linear_1_8844)"/>
<path d="M170.808 206.826V220.653C170.808 228.02 165.956 235.369 156.216 240.994C136.772 252.225 105.22 252.225 85.7768 240.994C76.0365 235.369 71.1848 228.001 71.1848 220.653V206.826H170.805H170.808Z" fill="url(#paint39_linear_1_8844)"/>
<path d="M176.992 182.214V209.466C176.992 217.749 171.539 226.011 160.59 232.333C138.733 244.959 103.262 244.959 81.4057 232.333C70.4591 226.011 65.0029 217.731 65.0029 209.466V182.214H176.992Z" fill="#7987B7"/>
<path d="M176.992 201.264V205.971C176.992 214.254 171.539 222.513 160.59 228.838C138.733 241.463 103.262 241.463 81.4057 228.838C70.4591 222.513 65.0029 214.233 65.0029 205.971V201.264C65.0029 209.526 70.4564 217.807 81.4057 224.131C103.262 236.757 138.733 236.757 160.59 224.131C171.539 217.809 176.992 209.547 176.992 201.264Z" fill="#A0C6FF"/>
<path d="M176.992 193.488V198.195C176.992 206.478 171.539 214.737 160.59 221.062C138.733 233.687 103.262 233.687 81.4057 221.062C70.4591 214.737 65.0029 206.457 65.0029 198.195V193.488C65.0029 201.75 70.4564 210.031 81.4057 216.356C103.262 228.981 138.733 228.981 160.59 216.356C171.539 210.034 176.992 201.771 176.992 193.488Z" fill="#A0C6FF"/>
<path d="M176.992 185.712V190.418C176.992 198.702 171.539 206.961 160.59 213.286C138.733 225.911 103.262 225.911 81.4057 213.286C70.4591 206.961 65.0029 198.68 65.0029 190.418V185.712C65.0029 193.974 70.4564 202.255 81.4057 208.579C103.262 221.205 138.733 221.205 160.59 208.579C171.539 202.257 176.992 193.995 176.992 185.712Z" fill="#A0C6FF"/>
<path d="M160.6 205.086C138.731 217.712 103.275 217.712 81.4028 205.086C59.5334 192.461 59.5334 171.988 81.4028 159.363C103.272 146.737 138.731 146.737 160.6 159.363C182.469 171.988 182.469 192.461 160.6 205.086Z" fill="url(#paint40_linear_1_8844)"/>
<path d="M163.839 168.728V180.62C163.839 186.957 159.666 193.277 151.29 198.115C134.568 207.774 107.43 207.774 90.7105 198.115C82.3349 193.277 78.1616 186.942 78.1616 180.62V168.728H163.839Z" fill="#7987B7"/>
<path d="M163.842 172.601V177.59C163.842 183.933 159.66 190.255 151.298 195.082C134.573 204.757 107.425 204.757 90.7183 195.082C82.3348 190.255 78.1536 183.911 78.1536 177.59V172.601C78.1536 178.904 82.3348 185.244 90.7183 190.093C107.425 199.749 134.573 199.749 151.298 190.093C159.66 185.244 163.842 178.923 163.842 172.601Z" fill="#A0C6FF"/>
<path d="M151.296 186.226C134.566 195.885 107.438 195.885 90.7053 186.226C73.9752 176.565 73.9726 160.904 90.7053 151.246C107.435 141.587 134.563 141.587 151.296 151.246C168.028 160.907 168.028 176.568 151.296 186.226Z" fill="#343F64"/>
<path d="M155.115 170.64C154.368 166.237 151.076 161.974 145.237 158.6C131.844 150.863 110.148 150.863 96.7576 158.6C90.9187 161.974 87.627 166.237 86.88 170.64C85.9298 164.943 89.224 159.086 96.7576 154.741C110.151 147.004 131.846 147.004 145.237 154.741C152.771 159.083 156.065 164.943 155.115 170.64Z" fill="#A0C6FF"/>
</g>
<g clip-path="url(#clip6_1_8844)">
<path d="M485.727 480.268V502.047C485.727 505.279 484.658 508.512 482.519 511.553C480.389 514.59 477.19 517.439 472.922 519.903C455.84 529.762 428.152 529.762 411.079 519.903C402.542 514.969 398.282 508.512 398.273 502.047V480.268H419.849C433.47 475.637 450.51 475.637 464.14 480.268H485.724H485.727Z" fill="url(#paint41_linear_1_8844)"/>
<path d="M497.994 434.164V462.052C497.994 466.193 496.624 470.333 493.887 474.223C491.159 478.115 487.063 481.757 481.597 484.917C459.724 497.542 424.268 497.542 402.405 484.917C391.474 478.602 386.019 470.333 386.008 462.055V434.167H413.64C431.084 428.237 452.902 428.237 470.357 434.167H497.997L497.994 434.164Z" fill="#AEB2F4"/>
<path d="M497.994 438.778V466.666C497.994 470.807 496.624 474.947 493.887 478.837C491.159 482.729 487.063 486.371 481.597 489.531C459.724 502.156 424.268 502.156 402.405 489.531C391.474 483.216 386.019 474.947 386.008 466.666V438.778H413.64C431.084 432.851 452.902 432.851 470.357 438.778H497.997H497.994Z" fill="url(#paint42_linear_1_8844)"/>
<path d="M497.994 454V458.505C497.994 462.645 496.624 466.786 493.887 470.675C491.159 474.568 487.063 478.21 481.597 481.37C459.724 493.994 424.268 493.994 402.405 481.37C391.474 475.055 386.019 466.786 386.008 458.508V454.003C386.019 462.283 391.474 470.55 402.405 476.868C424.268 489.492 459.726 489.492 481.597 476.868C487.063 473.71 491.159 470.066 493.887 466.173C496.624 462.281 497.994 458.14 497.994 454.003V454Z" fill="#1482FF"/>
<path d="M481.597 457.194C459.729 469.821 424.271 469.821 402.403 457.194C380.532 444.567 380.532 424.097 402.403 411.47C424.271 398.843 459.729 398.843 481.597 411.47C503.468 424.097 503.468 444.567 481.597 457.194Z" fill="#EFF3FF"/>
<path d="M486.946 438.035C485.61 432.611 481.33 427.385 474.096 423.211C456.374 412.982 427.631 412.982 409.898 423.211C402.664 427.382 398.385 432.611 397.059 438.035C395.119 430.155 399.398 421.864 409.898 415.794C427.631 405.564 456.371 405.564 474.096 415.794C484.607 421.864 488.887 430.153 486.946 438.035Z" fill="#1482FF"/>
<path d="M418.101 502.459V512.572C415.623 511.645 413.262 510.545 411.081 509.284C406.975 506.911 403.859 504.185 401.734 501.284V491.171C403.859 494.073 406.975 496.799 411.081 499.171C413.259 500.432 415.62 501.532 418.101 502.459Z" fill="#1482FF"/>
<path d="M439.49 506.502V516.615C433.874 516.442 428.3 515.635 423.126 514.201V504.088C428.303 505.522 433.874 506.329 439.49 506.502Z" fill="#1482FF"/>
<path d="M460.879 504.088V514.201C455.703 515.635 450.132 516.442 444.516 516.615V506.502C450.132 506.329 455.706 505.522 460.879 504.088Z" fill="#1482FF"/>
<path d="M482.266 491.171V501.284C480.141 504.185 477.026 506.911 472.919 509.284C470.741 510.545 468.38 511.645 465.899 512.572V502.459C468.377 501.532 470.739 500.432 472.919 499.171C477.026 496.799 480.141 494.073 482.266 491.171Z" fill="#1482FF"/>
<path d="M421.993 473.828V478.333C414.846 476.771 408.161 474.323 402.405 471.002C400.799 470.074 399.323 469.105 397.953 468.1V463.595C399.323 464.598 400.799 465.569 402.405 466.496C408.163 469.818 414.846 472.263 421.993 473.828Z" fill="#1482FF"/>
<path d="M486.049 463.595V468.1C484.68 469.103 483.193 470.074 481.597 471.002C475.839 474.323 469.146 476.768 462.01 478.333V473.828C469.146 472.266 475.842 469.818 481.597 466.496C483.193 465.569 484.68 464.6 486.049 463.595Z" fill="#1482FF"/>
</g>
<path d="M329.187 563.548V395.317C329.187 392.035 326.875 388.045 324.033 386.423L97.4205 257.071C96.2568 256.407 95.1301 256.221 94.2255 256.544L85.7485 259.571C84.4389 260.039 83.7339 261.521 83.8626 263.535L94.4299 428.882C94.6299 432.01 96.7634 435.597 99.379 437.202L316.051 570.154C317.385 570.973 318.682 571.168 319.667 570.698L327.517 566.955C328.581 566.447 329.187 565.211 329.187 563.548Z" fill="#07101D"/>
<path d="M320.081 568.096V399.808C320.081 397.291 318.313 394.23 316.133 392.971L86.664 260.487C84.4838 259.228 82.7163 260.249 82.7163 262.766V431.053C82.7163 433.571 84.4838 436.632 86.664 437.891L316.133 570.375C318.313 571.634 320.081 570.613 320.081 568.096Z" fill="url(#paint43_linear_1_8844)"/>
<path d="M96.5343 290.591L306.26 411.676C310.75 414.268 314.389 412.167 314.389 406.983C314.389 401.799 310.75 395.495 306.26 392.903L96.5343 271.818C92.0448 269.226 88.4054 271.327 88.4054 276.511C88.4054 281.695 92.0448 287.999 96.5343 290.591Z" fill="white"/>
<path d="M116.96 294.021C116.96 296.095 118.415 298.617 120.211 299.653C122.007 300.69 123.463 299.85 123.463 297.776C123.463 295.702 122.007 293.181 120.211 292.144C118.415 291.107 116.96 291.948 116.96 294.021Z" fill="#3A5DF3"/>
<path d="M105.579 287.451C105.579 289.525 107.035 292.046 108.831 293.083C110.626 294.12 112.082 293.279 112.082 291.206C112.082 289.132 110.626 286.61 108.831 285.574C107.035 284.537 105.579 285.377 105.579 287.451Z" fill="#3A5DF3"/>
<path d="M94.1986 280.88C94.1986 282.954 95.6543 285.476 97.4501 286.512C99.2459 287.549 100.702 286.709 100.702 284.635C100.702 282.561 99.2459 280.04 97.4501 279.003C95.6543 277.966 94.1986 278.807 94.1986 280.88Z" fill="#3A5DF3"/>
<path d="M190.893 379.377L185.477 376.25C184.98 375.963 184.572 375.327 184.572 374.838V369.515C184.572 369.027 184.177 368.398 183.667 368.103L161.096 355.072C160.599 354.785 160.191 354.951 160.191 355.439V360.762C160.191 361.251 159.784 361.416 159.287 361.129L153.87 358.002C153.373 357.715 152.965 357.88 152.965 358.369V377.895C152.965 378.384 153.373 379.02 153.87 379.307L159.287 382.434C159.784 382.721 160.191 383.357 160.191 383.846V389.169C160.191 389.657 160.599 390.293 161.096 390.58L183.68 403.619C184.177 403.906 184.584 403.74 184.584 403.252V397.929C184.584 397.44 184.177 396.804 183.68 396.517L161.096 383.479C160.599 383.192 160.191 382.556 160.191 382.067V376.744C160.191 376.256 160.599 376.09 161.096 376.377L190.906 393.588C191.403 393.875 191.811 393.709 191.811 393.221V380.796C191.811 380.308 191.403 379.671 190.906 379.384L190.893 379.377ZM161.096 369.276C160.599 368.989 160.191 368.352 160.191 367.864V362.541C160.191 362.052 160.599 361.887 161.096 362.174L183.68 375.212C184.177 375.499 184.584 376.136 184.584 376.624V381.947C184.584 382.436 184.177 382.601 183.68 382.314L161.096 369.276Z" fill="white"/>
<path d="M227.941 435.729L222.525 432.602C222.028 432.315 221.62 432.48 221.62 432.968V459.596C221.62 460.085 221.212 460.25 220.715 459.963L199.942 447.97C199.444 447.683 199.037 447.046 199.037 446.558V427.032C199.037 426.543 198.629 425.907 198.132 425.62L192.715 422.493C192.218 422.206 191.811 421.57 191.811 421.081V415.758C191.811 415.269 191.403 414.633 190.906 414.346L161.096 397.136C160.599 396.849 160.191 397.014 160.191 397.503V402.826C160.191 403.314 159.784 403.48 159.287 403.193L153.87 400.065C153.373 399.778 152.965 399.944 152.965 400.432V412.857C152.965 413.345 153.373 413.982 153.87 414.269L180.06 429.389C180.557 429.676 180.965 430.313 180.965 430.801V436.124C180.965 436.613 180.557 436.778 180.06 436.491L153.87 421.37C153.373 421.083 152.965 421.249 152.965 421.737V427.06C152.965 427.549 153.373 428.185 153.87 428.472L180.06 443.593C180.557 443.88 180.965 443.714 180.965 443.226V437.903C180.965 437.414 181.373 437.249 181.87 437.536L187.286 440.663C187.783 440.95 188.191 440.785 188.191 440.296V427.872C188.191 427.383 187.783 426.747 187.286 426.46L161.096 411.339C160.599 411.052 160.191 410.416 160.191 409.927V404.604C160.191 404.116 160.599 403.95 161.096 404.237L190.906 421.448C191.403 421.735 191.811 422.371 191.811 422.86V442.386C191.811 442.874 192.218 443.511 192.715 443.798L198.132 446.925C198.629 447.212 199.037 447.848 199.037 448.336V453.66C199.037 454.148 199.444 454.784 199.942 455.071L220.715 467.065C221.212 467.352 221.62 467.988 221.62 468.476V473.8C221.62 474.288 221.212 474.453 220.715 474.166L199.942 462.173C199.444 461.886 199.037 462.051 199.037 462.54V467.863C199.037 468.351 199.444 468.987 199.942 469.274L220.715 481.268C221.212 481.555 221.62 481.39 221.62 480.901V475.578C221.62 475.09 222.028 474.924 222.525 475.211L227.941 478.338C228.438 478.625 228.846 478.46 228.846 477.972V437.14C228.846 436.652 228.438 436.016 227.941 435.729Z" fill="white"/>
<path d="M231.54 402.844L226.123 399.717C225.626 399.43 225.219 398.794 225.219 398.306V392.983C225.219 392.494 224.823 391.865 224.314 391.571L199.933 377.495C199.436 377.208 199.029 377.373 199.029 377.862V383.185C199.029 383.673 199.436 384.31 199.933 384.597L224.314 398.672C224.811 398.959 225.219 399.596 225.219 400.084V405.407C225.219 405.896 224.811 406.061 224.314 405.774L196.314 389.608C195.817 389.321 195.409 389.487 195.409 389.975V402.4C195.409 402.888 195.817 403.525 196.314 403.812L201.73 406.939C202.227 407.226 202.635 407.862 202.635 408.351V413.674C202.635 414.162 203.043 414.798 203.54 415.085L224.314 427.079C224.811 427.366 225.219 427.201 225.219 426.712V421.389C225.219 420.901 225.626 420.735 226.123 421.022L231.54 424.149C232.037 424.436 232.445 424.271 232.445 423.782V404.256C232.445 403.768 232.037 403.131 231.54 402.844ZM203.54 407.984C203.043 407.697 202.635 407.06 202.635 406.572V401.249C202.635 400.76 203.043 400.595 203.54 400.882L224.314 412.876C224.811 413.163 225.219 413.799 225.219 414.287V419.61C225.219 420.099 224.811 420.264 224.314 419.977L203.54 407.984Z" fill="white"/>
<path d="M296.966 603.951V503.479C296.966 502.537 296.298 501.391 295.482 500.932L238.275 468.761C237.836 468.514 237.427 468.532 237.181 468.81L236.632 469.427C236.149 469.971 235.938 470.845 236.037 471.889L236.235 473.962L238.88 567.504C238.941 569.656 240.374 572.206 242.203 573.417L293.637 607.458C294.303 607.898 294.939 607.881 295.278 607.412L296.469 605.767C296.794 605.317 296.966 604.69 296.966 603.951Z" fill="#07101D"/>
<path d="M294.713 606.954V504.349C294.713 503.726 294.276 502.969 293.737 502.658L236.979 469.889C236.44 469.577 236.003 469.83 236.003 470.452V573.057C236.003 573.68 236.44 574.437 236.979 574.748L293.737 607.517C294.276 607.829 294.713 607.576 294.713 606.954Z" fill="url(#paint44_linear_1_8844)"/>
<path d="M241.139 482.296L289.576 510.262C291.636 511.451 293.306 510.487 293.306 508.108C293.306 505.73 291.636 502.838 289.576 501.649L241.139 473.684C239.079 472.495 237.41 473.459 237.41 475.837C237.41 478.215 239.079 481.107 241.139 482.296Z" fill="white"/>
<path d="M250.806 483.313C250.806 484.352 251.536 485.615 252.435 486.134C253.335 486.653 254.064 486.232 254.064 485.194C254.064 484.155 253.335 482.892 252.435 482.373C251.536 481.853 250.806 482.274 250.806 483.313Z" fill="#3A5DF3"/>
<path d="M245.106 480.022C245.106 481.061 245.836 482.324 246.735 482.843C247.634 483.362 248.364 482.941 248.364 481.903C248.364 480.864 247.634 479.601 246.735 479.082C245.836 478.562 245.106 478.983 245.106 480.022Z" fill="#3A5DF3"/>
<path d="M239.406 476.731C239.406 477.77 240.135 479.033 241.035 479.552C241.934 480.071 242.663 479.65 242.663 478.612C242.663 477.573 241.934 476.31 241.035 475.791C240.135 475.271 239.406 475.692 239.406 476.731Z" fill="#3A5DF3"/>
<path d="M261.921 522.469L260.027 521.376C259.853 521.276 259.711 521.053 259.711 520.883V519.022C259.711 518.851 259.573 518.631 259.394 518.528L251.504 513.972C251.33 513.872 251.187 513.93 251.187 514.101V515.962C251.187 516.132 251.045 516.19 250.871 516.09L248.977 514.997C248.803 514.896 248.661 514.954 248.661 515.125V521.951C248.661 522.122 248.803 522.345 248.977 522.445L250.871 523.538C251.045 523.639 251.187 523.861 251.187 524.032V525.893C251.187 526.064 251.33 526.286 251.504 526.386L259.399 530.945C259.573 531.045 259.715 530.987 259.715 530.816V528.955C259.715 528.785 259.573 528.562 259.399 528.462L251.504 523.903C251.33 523.803 251.187 523.581 251.187 523.41V521.549C251.187 521.378 251.33 521.32 251.504 521.421L261.925 527.438C262.099 527.538 262.242 527.48 262.242 527.309V522.966C262.242 522.795 262.099 522.572 261.925 522.472L261.921 522.469ZM251.504 518.938C251.33 518.838 251.187 518.615 251.187 518.444V516.583C251.187 516.413 251.33 516.355 251.504 516.455L259.399 521.013C259.573 521.114 259.715 521.336 259.715 521.507V523.368C259.715 523.539 259.573 523.597 259.399 523.496L251.504 518.938Z" fill="white"/>
<path d="M274.873 542.171L272.98 541.078C272.806 540.977 272.663 541.035 272.663 541.206V550.515C272.663 550.686 272.521 550.744 272.347 550.643L265.084 546.45C264.911 546.35 264.768 546.128 264.768 545.957V539.13C264.768 538.959 264.625 538.737 264.452 538.637L262.558 537.543C262.384 537.443 262.242 537.221 262.242 537.05V535.189C262.242 535.018 262.099 534.796 261.925 534.695L251.504 528.678C251.33 528.578 251.187 528.636 251.187 528.807V530.668C251.187 530.838 251.045 530.896 250.871 530.796L248.977 529.703C248.803 529.602 248.661 529.66 248.661 529.831V534.175C248.661 534.345 248.803 534.568 248.977 534.668L258.134 539.955C258.307 540.055 258.45 540.277 258.45 540.448V542.309C258.45 542.48 258.307 542.538 258.134 542.437L248.977 537.151C248.803 537.051 248.661 537.108 248.661 537.279V539.14C248.661 539.311 248.803 539.533 248.977 539.634L258.134 544.92C258.307 545.02 258.45 544.963 258.45 544.792V542.931C258.45 542.76 258.592 542.702 258.766 542.803L260.66 543.896C260.834 543.996 260.976 543.938 260.976 543.768V539.424C260.976 539.253 260.834 539.031 260.66 538.93L251.504 533.644C251.33 533.544 251.187 533.321 251.187 533.15V531.289C251.187 531.119 251.33 531.061 251.504 531.161L261.925 537.178C262.099 537.278 262.242 537.501 262.242 537.672V544.498C262.242 544.669 262.384 544.891 262.558 544.992L264.452 546.085C264.625 546.185 264.768 546.408 264.768 546.579V548.44C264.768 548.61 264.911 548.833 265.084 548.933L272.347 553.126C272.521 553.227 272.663 553.449 272.663 553.62V555.481C272.663 555.652 272.521 555.709 272.347 555.609L265.084 551.416C264.911 551.316 264.768 551.373 264.768 551.544V553.405C264.768 553.576 264.911 553.798 265.084 553.899L272.347 558.092C272.521 558.192 272.663 558.134 272.663 557.964V556.103C272.663 555.932 272.806 555.874 272.98 555.974L274.873 557.068C275.047 557.168 275.19 557.11 275.19 556.939V542.664C275.19 542.494 275.047 542.271 274.873 542.171Z" fill="white"/>
<path d="M276.131 530.674L274.238 529.581C274.064 529.481 273.921 529.258 273.921 529.087V527.226C273.921 527.056 273.783 526.836 273.605 526.733L265.082 521.812C264.908 521.711 264.765 521.769 264.765 521.94V523.801C264.765 523.972 264.908 524.194 265.082 524.294L273.605 529.216C273.779 529.316 273.921 529.538 273.921 529.709V531.57C273.921 531.741 273.779 531.799 273.605 531.698L263.816 526.047C263.642 525.946 263.5 526.004 263.5 526.175V530.519C263.5 530.69 263.642 530.912 263.816 531.012L265.71 532.106C265.884 532.206 266.026 532.428 266.026 532.599V534.46C266.026 534.631 266.169 534.853 266.342 534.954L273.605 539.147C273.779 539.247 273.921 539.189 273.921 539.019V537.158C273.921 536.987 274.064 536.929 274.238 537.029L276.131 538.123C276.305 538.223 276.448 538.165 276.448 537.994V531.168C276.448 530.997 276.305 530.774 276.131 530.674ZM266.342 532.471C266.169 532.371 266.026 532.148 266.026 531.977V530.116C266.026 529.946 266.169 529.888 266.342 529.988L273.605 534.181C273.779 534.281 273.921 534.504 273.921 534.675V536.536C273.921 536.707 273.779 536.764 273.605 536.664L266.342 532.471Z" fill="white"/>
<defs>
<linearGradient id="paint0_linear_1_8844" x1="172.998" y1="212.857" x2="126.862" y2="331.418" gradientUnits="userSpaceOnUse">
<stop stop-color="#354065"/>
<stop offset="0.652971" stop-color="#636F99"/>
</linearGradient>
<linearGradient id="paint1_linear_1_8844" x1="141.943" y1="208.567" x2="285.598" y2="208.567" gradientUnits="userSpaceOnUse">
<stop offset="0.51" stop-color="#636F99"/>
<stop offset="0.875" stop-color="#3F4B75"/>
</linearGradient>
<linearGradient id="paint2_linear_1_8844" x1="260.424" y1="158.463" x2="214.288" y2="277.024" gradientUnits="userSpaceOnUse">
<stop stop-color="#354065"/>
<stop offset="0.652971" stop-color="#636F99"/>
</linearGradient>
<linearGradient id="paint3_linear_1_8844" x1="229.368" y1="154.172" x2="373.023" y2="154.172" gradientUnits="userSpaceOnUse">
<stop offset="0.51" stop-color="#636F99"/>
<stop offset="0.875" stop-color="#3F4B75"/>
</linearGradient>
<linearGradient id="paint4_linear_1_8844" x1="301.053" y1="122.737" x2="301.053" y2="191.499" gradientUnits="userSpaceOnUse">
<stop stop-color="#9CCAFF"/>
<stop offset="1" stop-color="#1482FF"/>
</linearGradient>
<linearGradient id="paint5_linear_1_8844" x1="229.107" y1="123.088" x2="373.008" y2="123.088" gradientUnits="userSpaceOnUse">
<stop stop-color="#1482FF"/>
<stop offset="1" stop-color="#51A3FF"/>
</linearGradient>
<linearGradient id="paint6_linear_1_8844" x1="213.627" y1="176.163" x2="213.627" y2="244.925" gradientUnits="userSpaceOnUse">
<stop stop-color="#9CCAFF"/>
<stop offset="1" stop-color="#1482FF"/>
</linearGradient>
<linearGradient id="paint7_linear_1_8844" x1="141.682" y1="176.514" x2="285.582" y2="176.514" gradientUnits="userSpaceOnUse">
<stop stop-color="#1482FF"/>
<stop offset="1" stop-color="#51A3FF"/>
</linearGradient>
<linearGradient id="paint8_linear_1_8844" x1="562.53" y1="427.978" x2="516.393" y2="546.539" gradientUnits="userSpaceOnUse">
<stop stop-color="#354065"/>
<stop offset="0.652971" stop-color="#636F99"/>
</linearGradient>
<linearGradient id="paint9_linear_1_8844" x1="531.474" y1="423.688" x2="675.129" y2="423.688" gradientUnits="userSpaceOnUse">
<stop offset="0.51" stop-color="#636F99"/>
<stop offset="0.875" stop-color="#3F4B75"/>
</linearGradient>
<linearGradient id="paint10_linear_1_8844" x1="484.815" y1="474.557" x2="438.678" y2="593.117" gradientUnits="userSpaceOnUse">
<stop stop-color="#354065"/>
<stop offset="0.652971" stop-color="#636F99"/>
</linearGradient>
<linearGradient id="paint11_linear_1_8844" x1="453.759" y1="470.266" x2="597.414" y2="470.266" gradientUnits="userSpaceOnUse">
<stop offset="0.51" stop-color="#636F99"/>
<stop offset="0.875" stop-color="#3F4B75"/>
</linearGradient>
<linearGradient id="paint12_linear_1_8844" x1="405.162" y1="517.896" x2="359.026" y2="636.457" gradientUnits="userSpaceOnUse">
<stop stop-color="#354065"/>
<stop offset="0.652971" stop-color="#636F99"/>
</linearGradient>
<linearGradient id="paint13_linear_1_8844" x1="374.107" y1="513.606" x2="517.762" y2="513.606" gradientUnits="userSpaceOnUse">
<stop offset="0.51" stop-color="#636F99"/>
<stop offset="0.875" stop-color="#3F4B75"/>
</linearGradient>
<linearGradient id="paint14_linear_1_8844" x1="83.6311" y1="272.115" x2="37.4946" y2="390.676" gradientUnits="userSpaceOnUse">
<stop stop-color="#354065"/>
<stop offset="0.652971" stop-color="#636F99"/>
</linearGradient>
<linearGradient id="paint15_linear_1_8844" x1="52.5754" y1="267.825" x2="196.23" y2="267.825" gradientUnits="userSpaceOnUse">
<stop offset="0.51" stop-color="#636F99"/>
<stop offset="0.875" stop-color="#3F4B75"/>
</linearGradient>
<linearGradient id="paint16_linear_1_8844" x1="122.315" y1="236.39" x2="122.315" y2="305.151" gradientUnits="userSpaceOnUse">
<stop stop-color="#9CCAFF"/>
<stop offset="1" stop-color="#1482FF"/>
</linearGradient>
<linearGradient id="paint17_linear_1_8844" x1="50.3691" y1="236.74" x2="194.27" y2="236.74" gradientUnits="userSpaceOnUse">
<stop stop-color="#1482FF"/>
<stop offset="1" stop-color="#51A3FF"/>
</linearGradient>
<linearGradient id="paint18_linear_1_8844" x1="345.736" y1="304.386" x2="345.736" y2="373.147" gradientUnits="userSpaceOnUse">
<stop stop-color="#9CCAFF"/>
<stop offset="1" stop-color="#1482FF"/>
</linearGradient>
<linearGradient id="paint19_linear_1_8844" x1="273.791" y1="304.736" x2="417.692" y2="304.736" gradientUnits="userSpaceOnUse">
<stop stop-color="#1482FF"/>
<stop offset="1" stop-color="#51A3FF"/>
</linearGradient>
<linearGradient id="paint20_linear_1_8844" x1="344.677" y1="190.625" x2="344.677" y2="339.572" gradientUnits="userSpaceOnUse">
<stop offset="0.31" stop-color="#63ABFD"/>
<stop offset="0.81" stop-color="#1482FF"/>
<stop offset="1" stop-color="#1482FF"/>
</linearGradient>
<linearGradient id="paint21_linear_1_8844" x1="344.651" y1="190.625" x2="344.651" y2="263.773" gradientUnits="userSpaceOnUse">
<stop offset="0.31" stop-color="#4A9EFF"/>
<stop offset="0.81" stop-color="#2F90FF"/>
<stop offset="1" stop-color="#1482FF"/>
</linearGradient>
<linearGradient id="paint22_linear_1_8844" x1="562.615" y1="414.941" x2="537.382" y2="505.712" gradientUnits="userSpaceOnUse">
<stop stop-color="#354065"/>
<stop offset="0.652971" stop-color="#636F99"/>
</linearGradient>
<linearGradient id="paint23_linear_1_8844" x1="531.213" y1="410.997" x2="675.289" y2="410.997" gradientUnits="userSpaceOnUse">
<stop offset="0.51" stop-color="#636F99"/>
<stop offset="0.875" stop-color="#3F4B75"/>
</linearGradient>
<linearGradient id="paint24_linear_1_8844" x1="485.638" y1="459.624" x2="460.405" y2="550.395" gradientUnits="userSpaceOnUse">
<stop stop-color="#354065"/>
<stop offset="0.652971" stop-color="#636F99"/>
</linearGradient>
<linearGradient id="paint25_linear_1_8844" x1="454.236" y1="455.681" x2="598.312" y2="455.681" gradientUnits="userSpaceOnUse">
<stop offset="0.51" stop-color="#636F99"/>
<stop offset="0.875" stop-color="#3F4B75"/>
</linearGradient>
<linearGradient id="paint26_linear_1_8844" x1="405.247" y1="502.366" x2="380.014" y2="593.138" gradientUnits="userSpaceOnUse">
<stop stop-color="#354065"/>
<stop offset="0.652971" stop-color="#636F99"/>
</linearGradient>
<linearGradient id="paint27_linear_1_8844" x1="373.846" y1="498.423" x2="517.922" y2="498.423" gradientUnits="userSpaceOnUse">
<stop offset="0.51" stop-color="#636F99"/>
<stop offset="0.875" stop-color="#3F4B75"/>
</linearGradient>
<linearGradient id="paint28_linear_1_8844" x1="309.001" y1="81.2007" x2="309.001" y2="145.863" gradientUnits="userSpaceOnUse">
<stop stop-color="#636F99"/>
<stop offset="1" stop-color="#465074"/>
</linearGradient>
<linearGradient id="paint29_linear_1_8844" x1="308.996" y1="140.417" x2="308.996" y2="97.8262" gradientUnits="userSpaceOnUse">
<stop stop-color="#636F99"/>
<stop offset="1" stop-color="#465074"/>
</linearGradient>
<linearGradient id="paint30_linear_1_8844" x1="309.001" y1="105.556" x2="309.001" y2="40.8936" gradientUnits="userSpaceOnUse">
<stop stop-color="#636F99"/>
<stop offset="1" stop-color="#465074"/>
</linearGradient>
<linearGradient id="paint31_linear_1_8844" x1="607" y1="384.795" x2="607" y2="435.297" gradientUnits="userSpaceOnUse">
<stop stop-color="white"/>
<stop offset="1" stop-color="#B1B9D5"/>
</linearGradient>
<linearGradient id="paint32_linear_1_8844" x1="607.003" y1="342.333" x2="607.003" y2="406.999" gradientUnits="userSpaceOnUse">
<stop stop-color="white"/>
<stop offset="1" stop-color="#B0BBE2"/>
</linearGradient>
<linearGradient id="paint33_linear_1_8844" x1="217.001" y1="132.201" x2="217.001" y2="196.863" gradientUnits="userSpaceOnUse">
<stop stop-color="#636F99"/>
<stop offset="1" stop-color="#465074"/>
</linearGradient>
<linearGradient id="paint34_linear_1_8844" x1="216.996" y1="191.417" x2="216.996" y2="148.826" gradientUnits="userSpaceOnUse">
<stop stop-color="#636F99"/>
<stop offset="1" stop-color="#465074"/>
</linearGradient>
<linearGradient id="paint35_linear_1_8844" x1="217.001" y1="156.556" x2="217.001" y2="91.8936" gradientUnits="userSpaceOnUse">
<stop stop-color="#636F99"/>
<stop offset="1" stop-color="#465074"/>
</linearGradient>
<linearGradient id="paint36_linear_1_8844" x1="527" y1="427.795" x2="527" y2="478.297" gradientUnits="userSpaceOnUse">
<stop stop-color="white"/>
<stop offset="1" stop-color="#B1B9D5"/>
</linearGradient>
<linearGradient id="paint37_linear_1_8844" x1="527.003" y1="385.333" x2="527.003" y2="449.999" gradientUnits="userSpaceOnUse">
<stop stop-color="white"/>
<stop offset="1" stop-color="#B0BBE2"/>
</linearGradient>
<linearGradient id="paint38_linear_1_8844" x1="121.001" y1="190.201" x2="121.001" y2="254.863" gradientUnits="userSpaceOnUse">
<stop stop-color="#636F99"/>
<stop offset="1" stop-color="#465074"/>
</linearGradient>
<linearGradient id="paint39_linear_1_8844" x1="120.996" y1="249.417" x2="120.996" y2="206.826" gradientUnits="userSpaceOnUse">
<stop stop-color="#636F99"/>
<stop offset="1" stop-color="#465074"/>
</linearGradient>
<linearGradient id="paint40_linear_1_8844" x1="121.001" y1="214.556" x2="121.001" y2="149.894" gradientUnits="userSpaceOnUse">
<stop stop-color="#636F99"/>
<stop offset="1" stop-color="#465074"/>
</linearGradient>
<linearGradient id="paint41_linear_1_8844" x1="442" y1="476.795" x2="442" y2="527.297" gradientUnits="userSpaceOnUse">
<stop stop-color="white"/>
<stop offset="1" stop-color="#B1B9D5"/>
</linearGradient>
<linearGradient id="paint42_linear_1_8844" x1="442.003" y1="434.333" x2="442.003" y2="498.999" gradientUnits="userSpaceOnUse">
<stop stop-color="white"/>
<stop offset="1" stop-color="#B0BBE2"/>
</linearGradient>
<linearGradient id="paint43_linear_1_8844" x1="201.398" y1="326.729" x2="124.58" y2="459.782" gradientUnits="userSpaceOnUse">
<stop stop-color="#346AF6"/>
<stop offset="1" stop-color="#1482FF"/>
</linearGradient>
<linearGradient id="paint44_linear_1_8844" x1="265.358" y1="486.273" x2="219.952" y2="564.918" gradientUnits="userSpaceOnUse">
<stop stop-color="#346AF6"/>
<stop offset="1" stop-color="#1482FF"/>
</linearGradient>
<clipPath id="clip0_1_8844">
<rect width="47.9966" height="47.9966" fill="white" transform="matrix(0.866025 -0.5 0.866025 0.5 302.735 215.078)"/>
</clipPath>
<clipPath id="clip1_1_8844">
<rect width="112" height="118.784" fill="white" transform="translate(253 35)"/>
</clipPath>
<clipPath id="clip2_1_8844">
<rect width="112" height="125.295" fill="white" transform="translate(551 310)"/>
</clipPath>
<clipPath id="clip3_1_8844">
<rect width="112" height="118.784" fill="white" transform="translate(161 86)"/>
</clipPath>
<clipPath id="clip4_1_8844">
<rect width="112" height="125.295" fill="white" transform="translate(471 353)"/>
</clipPath>
<clipPath id="clip5_1_8844">
<rect width="112" height="118.784" fill="white" transform="translate(65 144)"/>
</clipPath>
<clipPath id="clip6_1_8844">
<rect width="112" height="125.295" fill="white" transform="translate(386 402)"/>
</clipPath>
</defs>
</svg>
