<svg width="49" height="58" viewBox="0 0 49 58" fill="none" xmlns="http://www.w3.org/2000/svg">
<g clip-path="url(#clip0_1_7490)">
<mask id="mask0_1_7490" style="mask-type:luminance" maskUnits="userSpaceOnUse" x="2" y="-2" width="42" height="62">
<path d="M2.84839 59.4778L2.95025 4.21157L43.4162 -1.47388L43.3105 53.7886L2.84839 59.4778Z" fill="white"/>
</mask>
<g mask="url(#mask0_1_7490)">
<mask id="mask1_1_7490" style="mask-type:luminance" maskUnits="userSpaceOnUse" x="2" y="-2" width="39" height="60">
<path d="M2.85205 57.7536L3.02182 9.8441L40.2319 -1.02881L40.0621 46.8844L2.85205 57.7536Z" fill="white"/>
</mask>
<g mask="url(#mask1_1_7490)">
<path d="M21.8062 47.1259C21.8062 47.6654 21.9798 48.0691 22.3193 48.3294C22.5532 48.5633 22.8248 48.6765 23.138 48.6652C22.8248 48.6765 22.5494 48.5633 22.3193 48.3294C21.9798 48.0691 21.8024 47.6654 21.8062 47.1259ZM20.4933 44.2172L18.988 44.6586C18.9163 44.6812 18.8446 44.6963 18.7767 44.7038C18.8446 44.6925 18.9163 44.6774 18.988 44.6586L20.4933 44.2172ZM23.387 42.9269C23.387 42.9269 23.3606 42.9307 23.3455 42.9345C23.3455 42.9345 23.3719 42.9307 23.387 42.9269ZM16.2604 40.1879C16.532 40.1615 16.7583 40.2294 16.9432 40.3954C17.1771 40.5992 17.2978 40.9047 17.3054 41.2933C17.2978 40.9047 17.1733 40.5992 16.9432 40.3954C16.7583 40.2294 16.5282 40.1615 16.2604 40.1879ZM13.4082 40.4973C13.4723 40.5501 13.544 40.5954 13.6119 40.6331C13.5402 40.5954 13.4723 40.5539 13.4082 40.4973ZM18.8861 38.9543C18.8861 38.9543 18.8597 38.958 18.8446 38.9618C18.8597 38.9618 18.8711 38.958 18.8861 38.9543ZM19.0106 38.9241C18.9691 38.9354 18.9239 38.9467 18.8824 38.9543C18.9239 38.9467 18.9654 38.9354 19.0106 38.9241ZM9.78641 36.7585C9.78641 36.7585 9.76754 36.7585 9.76 36.7623C9.76754 36.7623 9.77886 36.7623 9.78641 36.7585ZM11.7029 36.2266C11.635 36.2379 11.5633 36.253 11.4879 36.2719L9.97881 36.7133C9.94109 36.7246 9.90336 36.7321 9.86563 36.7435C9.90336 36.7359 9.94109 36.7246 9.97881 36.7133L11.4879 36.2719C11.5633 36.2492 11.635 36.2341 11.7029 36.2266ZM14.3815 34.9854C14.3815 34.9854 14.3551 34.9892 14.34 34.9929C14.34 34.9929 14.3665 34.9892 14.3815 34.9854ZM13.6006 34.7326C13.744 34.876 13.9024 34.959 14.0722 34.9892C13.8986 34.959 13.744 34.876 13.6006 34.7326ZM8.29242 35.2344C8.28865 35.7739 8.46974 36.1813 8.80551 36.4341C9.05828 36.6944 9.36764 36.8076 9.72227 36.7661C9.36764 36.8076 9.06205 36.6944 8.80551 36.4341C8.46596 36.1813 8.28865 35.7739 8.29242 35.2344ZM11.9067 30.4921C12.1293 30.4808 12.333 30.5261 12.5141 30.6204C12.333 30.5223 12.1293 30.4808 11.9067 30.4921ZM11.7708 30.5072C11.7482 30.5072 11.7256 30.5147 11.7029 30.5185C11.7256 30.5147 11.7482 30.511 11.7708 30.5072ZM16.9885 29.8319C17.2375 30.0507 17.3544 30.3751 17.3544 30.8316C17.3544 30.3789 17.2337 30.0545 16.9885 29.8319ZM16.034 29.681L14.5249 30.1224C14.4532 30.145 14.3815 30.1601 14.3099 30.1677C14.3778 30.1563 14.4495 30.1412 14.5249 30.1224L16.034 29.681ZM13.4006 29.8885C13.6383 30.1073 13.9213 30.2054 14.242 30.1752C13.9213 30.2016 13.6421 30.1073 13.4006 29.8885ZM18.9201 28.3907C18.9201 28.3907 18.8975 28.3907 18.8861 28.3945C18.8861 28.3945 18.9088 28.3945 18.9201 28.3907ZM19.0257 28.3681C19.0031 28.3756 18.9805 28.3794 18.9541 28.3832C18.9767 28.3794 18.9993 28.3718 19.0257 28.3681ZM16.5923 23.8974C16.8074 23.9088 17.0036 23.9767 17.1733 24.0974C17.0036 23.9767 16.8112 23.9088 16.5923 23.8974ZM16.3207 23.9125C16.2339 23.9238 16.1472 23.9427 16.0566 23.9691C16.1472 23.9427 16.2377 23.9238 16.3207 23.9125ZM24.8131 21.7583L23.5982 22.1129C23.221 22.2261 22.9003 22.4714 22.64 22.8524C22.3457 23.241 22.1986 23.6748 22.1986 24.1502L22.191 25.9045C22.1873 26.41 22.0326 26.8967 21.7308 27.3419C21.4403 27.7984 21.0592 28.1078 20.6065 28.2511L19.0182 28.7152C18.9578 28.7303 18.9012 28.7416 18.8446 28.7491C18.4862 28.7982 18.1844 28.6963 17.9317 28.4398C17.6034 28.1983 17.4337 27.8059 17.4374 27.2891L17.445 25.531C17.445 25.0557 17.3167 24.701 17.0526 24.4784C16.8451 24.2936 16.5848 24.2219 16.2754 24.2672C16.2038 24.2785 16.1283 24.2936 16.0491 24.3162L14.54 24.7576C14.1627 24.8708 13.8383 25.116 13.5855 25.4971C13.2875 25.8894 13.1441 26.3195 13.1403 26.7911L13.1328 28.5492C13.129 28.9906 13.2724 29.3188 13.5553 29.5338C13.7817 29.7602 14.042 29.8507 14.34 29.8092C14.4004 29.8017 14.457 29.7866 14.5211 29.7677L16.0264 29.3263C16.117 29.2999 16.2038 29.2811 16.2868 29.2697C16.6452 29.2207 16.947 29.3037 17.1884 29.5225C17.494 29.7904 17.6449 30.1941 17.6412 30.7411L17.6336 32.4992C17.6298 33.0047 17.4752 33.4914 17.1696 33.9366C16.8715 34.4082 16.4792 34.7175 16.0076 34.8571L14.4947 35.3023C14.423 35.3212 14.3551 35.3362 14.291 35.3476C13.9364 35.3966 13.6308 35.2947 13.378 35.0382C13.0498 34.7892 12.8762 34.3968 12.88 33.8913L12.8876 32.1332C12.8876 31.6616 12.7593 31.3032 12.499 31.0769C12.2839 30.892 12.0236 30.8203 11.7143 30.8618C11.6426 30.8731 11.5709 30.8882 11.4954 30.9109L9.98636 31.3523C9.61286 31.4617 9.29218 31.7107 9.03187 32.0917C8.7376 32.4841 8.59046 32.9217 8.58669 33.3933L8.57914 35.1514C8.57537 35.5852 8.71873 35.9172 9.00546 36.1323C9.23182 36.3586 9.49214 36.4492 9.79018 36.4077C9.84677 36.4001 9.90713 36.3851 9.9675 36.37L11.4728 35.9286C11.5633 35.9021 11.6501 35.8833 11.7331 35.872C12.0915 35.8229 12.3858 35.9059 12.6348 36.1247C12.9215 36.37 13.0762 36.7472 13.0875 37.2528C13.08 37.3056 13.08 37.3358 13.08 37.366L13.0724 39.124C13.0724 39.5617 13.212 39.8899 13.5025 40.1049C13.7251 40.3313 13.993 40.4256 14.2948 40.3803C14.3514 40.3728 14.4042 40.3615 14.4645 40.3426L15.9736 39.9012C16.0642 39.8748 16.1509 39.8559 16.2339 39.8446C16.5923 39.7956 16.8942 39.8786 17.1394 40.0974C17.4299 40.3426 17.5808 40.7274 17.5921 41.2254C17.5846 41.2745 17.5921 41.3046 17.5921 41.3348L17.5846 43.0929C17.5846 43.5305 17.7279 43.855 18.0109 44.0738C18.2335 44.3002 18.4938 44.3907 18.7918 44.3492C18.8484 44.3417 18.9088 44.3266 18.9691 44.3115L20.4745 43.8701C20.5612 43.8437 20.648 43.8248 20.731 43.8135C21.0894 43.7644 21.395 43.8474 21.6402 44.0663C21.942 44.3341 22.0967 44.7416 22.0929 45.2886L22.0854 47.0467C22.0854 47.4805 22.2288 47.8125 22.5117 48.0276C22.7381 48.254 22.9984 48.3445 23.2964 48.303C23.353 48.2955 23.4134 48.2804 23.4737 48.2653L24.6961 47.9069L24.715 42.893L23.4926 43.2514C23.4209 43.274 23.3492 43.2891 23.2813 43.2966C22.9305 43.3457 22.6324 43.2438 22.3721 42.991C22.0628 42.7534 21.8968 42.3912 21.8817 41.9271C21.8817 41.8743 21.8817 41.8441 21.8817 41.814L21.8892 40.0597C21.8892 39.5126 22.0628 39.0033 22.4023 38.5544C22.7003 38.1129 23.0776 37.8262 23.5152 37.7017L24.7338 37.3471L24.7527 32.3369L23.5379 32.6916C23.1568 32.801 22.8362 33.0462 22.5796 33.4273C22.2816 33.8196 22.1382 34.2535 22.1344 34.7251L22.1269 36.4831C22.1231 37.0038 21.9722 37.4716 21.6629 37.9205C21.3535 38.4034 20.9724 38.7053 20.4971 38.8448L18.988 39.2863C18.9163 39.3089 18.8484 39.324 18.7767 39.3315C18.4259 39.3806 18.1203 39.2749 17.8675 39.0222C17.5506 38.7807 17.3808 38.4072 17.3733 37.9168L17.3846 36.0908C17.3846 35.5437 17.5544 35.0344 17.8977 34.5855C18.1957 34.1478 18.573 33.8573 19.0106 33.7291L20.5197 33.2877C20.6782 33.2424 20.8253 33.1745 20.946 33.0953C21.1686 32.9481 21.3648 32.7482 21.5195 32.4954C21.7873 32.1068 21.9194 31.6918 21.9232 31.2542L21.9307 29.4961C21.9307 28.9415 22.1005 28.4473 22.44 27.9908C22.7381 27.5532 23.1153 27.2664 23.553 27.1382L24.7678 26.7835L24.7866 21.7734M25.6732 5.85263C26.2052 5.79227 26.7258 5.82622 27.22 5.95449C26.7258 5.82245 26.2052 5.79227 25.6732 5.85263ZM25.5374 5.87149C25.296 5.90545 25.0507 5.95827 24.8093 6.02995C23.8359 6.31667 22.8663 6.89012 21.9948 7.72766L9.28087 19.9625L21.9911 7.72389C22.8626 6.88635 23.8322 6.3129 24.8055 6.02618C25.0507 5.95449 25.2922 5.90168 25.5336 5.86772M22.357 4.59632C22.1156 4.63028 21.8703 4.6831 21.6251 4.75478C20.6555 5.03773 19.6822 5.61495 18.8107 6.45249L6.09671 18.6873C4.3575 20.3586 3.27474 22.8486 3.26719 25.1839L3.20683 42.2403C3.19928 44.5756 4.27073 46.4355 5.99862 47.0957L7.48884 47.6654C6.62489 46.7298 6.11557 45.3641 6.08917 43.7758L6.14953 26.4289C6.1948 24.0068 7.33038 21.4376 9.13373 19.706L21.8439 7.46357C22.7569 6.58076 23.7831 5.97713 24.8093 5.67909C25.0658 5.60363 25.3261 5.54704 25.5789 5.51309C25.7713 5.48668 25.9637 5.47159 26.1524 5.46782L24.4396 4.81514C24.3113 4.7661 24.1792 4.7246 24.0434 4.68687C23.8887 4.64537 23.7303 4.61519 23.5718 4.59255C23.5228 4.58501 23.4737 4.58123 23.4247 4.57369C23.1191 4.54351 22.806 4.54728 22.4928 4.58123C22.4476 4.58501 22.4023 4.59255 22.357 4.6001" fill="#0092FF"/>
<path d="M22.3984 4.23792C22.1419 4.27565 21.8853 4.32846 21.6288 4.40392C20.6026 4.70196 19.5802 5.30936 18.6635 6.19218L5.95326 18.427C4.14614 20.1625 3.01433 22.7317 2.96905 25.1537L2.90869 42.4968C2.95396 44.8736 4.06691 46.76 5.85139 47.439L8.42814 48.4237C8.08106 48.22 7.76792 47.9635 7.48874 47.6654L5.99853 47.0957C4.27063 46.4355 3.19919 44.5756 3.20673 42.2403L3.2671 25.1839C3.27464 22.8486 4.36118 20.3586 6.09662 18.6873L18.8106 6.45249C19.6783 5.61495 20.6517 5.03773 21.625 4.75478C21.8703 4.6831 22.1155 4.63028 22.3569 4.59633C22.4022 4.58878 22.4475 4.58501 22.4928 4.57746C22.8097 4.54351 23.1228 4.53973 23.4246 4.56992C23.4737 4.57369 23.5227 4.58123 23.5717 4.58878C23.7302 4.61142 23.8886 4.6416 24.0433 4.6831C24.1754 4.71705 24.3074 4.75855 24.4395 4.81137L26.1523 5.46405C26.7106 5.45273 27.2577 5.5395 27.767 5.73191L37.8514 9.58383C37.659 9.47065 37.4553 9.37256 37.2402 9.28956L24.5866 4.46051C23.9037 4.20397 23.1605 4.13228 22.3984 4.23792Z" fill="#231F20"/>
</g>
<mask id="mask2_1_7490" style="mask-type:luminance" maskUnits="userSpaceOnUse" x="6" y="0" width="38" height="60">
<path d="M6.03247 59.0288L6.20224 11.1156L43.4123 0.242676L43.2388 48.1597L6.03247 59.0288Z" fill="white"/>
</mask>
<g mask="url(#mask2_1_7490)">
<path d="M24.7563 37.679L23.5377 38.0336C23.1793 38.1393 22.8737 38.3694 22.6285 38.7316C22.3493 39.1051 22.2097 39.5163 22.2097 39.9615L22.2021 41.7158C22.2021 41.7573 22.2021 41.7988 22.1946 41.8365C22.2097 42.1836 22.3455 42.4703 22.602 42.6665C22.6171 42.6816 22.6285 42.6929 22.6435 42.7042C22.7341 42.7872 22.8284 42.8476 22.9265 42.8853C23.0548 42.9343 23.1906 42.9494 23.3415 42.9268C23.3566 42.9268 23.3679 42.923 23.383 42.9193C23.3981 42.9193 23.4094 42.9155 23.4245 42.9117C23.4547 42.9042 23.4811 42.8966 23.5113 42.8891L24.7336 42.5307L24.7412 40.9122V40.4331L24.7525 37.6714M24.794 27.1192L23.5792 27.4738C23.2283 27.5757 22.919 27.8134 22.6737 28.168C22.3908 28.5453 22.2587 28.9452 22.255 29.3979L22.2474 31.156C22.2474 31.6879 22.0852 32.1935 21.7645 32.6613C21.5721 32.9631 21.3344 33.2121 21.0628 33.3894C20.9119 33.4875 20.7346 33.5705 20.5459 33.6233L19.0331 34.0647C18.6784 34.1704 18.3729 34.4043 18.1276 34.7627C17.8447 35.14 17.7089 35.5399 17.7089 35.9888L17.7013 37.7469L17.6938 37.8374C17.7013 38.1996 17.8334 38.4901 18.0974 38.6938C18.1125 38.7089 18.1239 38.7202 18.1389 38.7316C18.32 38.8938 18.5162 38.9692 18.7388 38.9617C18.7728 38.9617 18.8067 38.9579 18.8444 38.9542C18.8595 38.9542 18.8709 38.9504 18.8859 38.9466C18.9274 38.9391 18.9689 38.9277 19.0142 38.9164L20.5233 38.475C20.9119 38.3618 21.2175 38.1242 21.474 37.7205C21.7268 37.347 21.8513 36.9697 21.8551 36.5472L21.8626 34.7891C21.8626 34.2119 22.0475 33.6799 22.4021 33.2083C22.7077 32.7556 23.1 32.4538 23.5641 32.318L24.7827 31.9634L24.8015 27.1079M24.8543 9.57995C24.8996 9.56863 24.9449 9.55354 24.9864 9.54222C25.1977 9.48186 25.4052 9.43659 25.6127 9.40641C26.2314 9.31964 26.8388 9.37623 27.3971 9.5875L38.0135 13.6356C39.5037 14.2015 40.4205 15.786 40.4205 17.7931L40.3941 24.9725L40.3677 32.1256C40.3601 34.144 39.4283 36.2755 37.9267 37.7243L27.2613 47.9898C26.5106 48.7103 25.673 49.2046 24.8355 49.4498C24.794 49.4611 24.7525 49.4724 24.7148 49.4837V48.2463L23.4962 48.6047C23.4207 48.6273 23.349 48.6424 23.2774 48.6538C23.2321 48.6613 23.1868 48.6651 23.1415 48.6651C22.8284 48.6764 22.553 48.5632 22.3229 48.3293C21.9833 48.069 21.806 47.6653 21.8098 47.1258L21.8173 45.3677C21.8173 44.9188 21.6966 44.583 21.4476 44.368C21.2627 44.202 21.0364 44.1341 20.7647 44.1605C20.7459 44.1605 20.727 44.1642 20.7119 44.168C20.644 44.1793 20.5723 44.1944 20.4969 44.2171L18.9916 44.6585C18.9199 44.6811 18.8482 44.6962 18.7803 44.7037C18.7803 44.7037 18.7577 44.7037 18.7464 44.7075C18.3879 44.749 18.0786 44.6396 17.822 44.3793C17.4825 44.1227 17.3052 43.7228 17.3052 43.1796L17.3127 41.4215C17.3127 41.3762 17.3127 41.3347 17.3203 41.297C17.3127 40.9084 17.1882 40.6028 16.9581 40.3991C16.7732 40.2331 16.5431 40.1652 16.2752 40.1916C16.2564 40.1916 16.2375 40.1954 16.2224 40.1991C16.1545 40.2105 16.0828 40.2256 16.0074 40.2482L14.4983 40.6896C14.4228 40.7122 14.3512 40.7273 14.2795 40.7386C14.2229 40.7462 14.1663 40.75 14.1097 40.75C13.9663 40.75 13.8305 40.7235 13.706 40.6745C13.6796 40.6632 13.657 40.6519 13.6306 40.6405C13.5589 40.6028 13.491 40.5613 13.4269 40.5047C13.4118 40.4896 13.3929 40.4783 13.3778 40.4632C13.3589 40.4481 13.3439 40.4331 13.3288 40.4142C12.9892 40.1539 12.8119 39.7502 12.8157 39.2107L12.8232 37.4526C12.8232 37.4074 12.8232 37.3658 12.8308 37.3243C12.8194 36.9395 12.6949 36.6339 12.4686 36.4378C12.2762 36.2718 12.0536 36.2039 11.7857 36.2265C11.7669 36.2265 11.748 36.2303 11.7329 36.234C11.665 36.2454 11.5933 36.2605 11.5179 36.2793L10.0088 36.7207C9.97106 36.732 9.93334 36.7396 9.89561 36.7509C9.8692 36.7584 9.83902 36.7622 9.81261 36.766C9.80506 36.766 9.79375 36.766 9.7862 36.7698C9.7862 36.7698 9.76356 36.7698 9.75225 36.7735C9.39761 36.815 9.09203 36.7019 8.83548 36.4415C8.49594 36.1888 8.31862 35.7813 8.3224 35.2418L8.32994 33.4837C8.32994 32.9103 8.5148 32.3783 8.86944 31.903C9.1788 31.4503 9.57116 31.1447 10.0314 31.0126L11.5367 30.5712C11.6046 30.5524 11.6688 30.5373 11.7329 30.526C11.7555 30.5222 11.7782 30.5184 11.8008 30.5146C11.8461 30.5071 11.8914 30.5033 11.9366 30.5033C12.1592 30.492 12.363 30.5373 12.544 30.6316C12.6157 30.6693 12.6874 30.7184 12.7515 30.775C13.0684 31.0579 13.2269 31.4842 13.2269 32.0539L13.2194 33.812C13.2156 34.2232 13.3514 34.5288 13.6268 34.7438C13.7702 34.8872 13.9286 34.9702 14.0984 35.0004C14.1852 35.0155 14.2719 35.0155 14.3663 35.0004C14.3813 35.0004 14.3927 34.9966 14.4078 34.9928C14.4228 34.9928 14.4342 34.9891 14.4493 34.9853C14.4794 34.9777 14.5058 34.9702 14.536 34.9626L16.0451 34.5212C16.4299 34.4081 16.7468 34.1553 16.9883 33.7705C17.2448 33.397 17.3693 33.0084 17.3693 32.5934L17.3769 30.8353C17.3769 30.3826 17.2561 30.0581 17.0109 29.8356C16.826 29.6696 16.5997 29.6016 16.3281 29.6281C16.3092 29.6281 16.2903 29.6318 16.2752 29.6356C16.2073 29.6469 16.1356 29.662 16.0602 29.6846L14.5511 30.126C14.4794 30.1487 14.4078 30.1638 14.3361 30.1713C14.3134 30.1713 14.2908 30.1789 14.2682 30.1789C13.9475 30.2053 13.6683 30.111 13.4269 29.8921C13.408 29.8771 13.3929 29.862 13.3778 29.8431C13.0383 29.5941 12.8609 29.1866 12.8647 28.6434L12.8723 26.8853C12.8723 26.3119 13.0534 25.7761 13.4118 25.3045C13.7174 24.8556 14.1135 24.55 14.5775 24.4142L16.0828 23.9728C16.1734 23.9464 16.2639 23.9275 16.3469 23.9162C16.4412 23.9049 16.5318 23.8973 16.6186 23.9049C16.8336 23.9162 17.0298 23.9841 17.1995 24.1048C17.2335 24.1275 17.2675 24.1539 17.2976 24.1841C17.6183 24.4557 17.7768 24.8858 17.7768 25.4555L17.7692 27.2135C17.7655 27.6285 17.9013 27.9303 18.1729 28.1378C18.3917 28.3567 18.6332 28.4397 18.9161 28.4019C18.9274 28.4019 18.9388 28.4019 18.9501 28.3982C18.9614 28.3982 18.9727 28.3944 18.984 28.3906C19.0067 28.3868 19.0293 28.3793 19.0557 28.3755L20.6327 27.9153C20.9987 27.7983 21.3042 27.5493 21.5419 27.1758C21.7947 26.8023 21.9192 26.4099 21.923 25.9987L21.9305 24.2406C21.9305 23.6634 22.1154 23.1315 22.47 22.6637C22.7756 22.2109 23.1717 21.9053 23.632 21.7733L24.8468 21.4149L24.8883 9.58372M25.5372 5.87139C25.2957 5.90535 25.0505 5.95816 24.8091 6.02985C23.8357 6.31657 22.8661 6.89002 21.9946 7.72756L9.28066 19.9624C7.54145 21.6337 6.45491 24.1199 6.44737 26.4552L6.387 43.5153C6.37946 45.8469 7.4509 47.7068 9.18257 48.367L21.8324 53.1923C21.8513 53.1998 21.8739 53.2074 21.8928 53.2149C22.4247 53.4073 22.9906 53.479 23.5754 53.4413C23.6886 53.4338 23.8018 53.4224 23.9149 53.4073C23.9451 53.4036 23.9753 53.3998 24.0055 53.3923C24.2168 53.3583 24.4318 53.3093 24.6431 53.2489C25.6164 52.9622 26.586 52.3887 27.4575 51.5512L40.1753 39.3126C41.9107 37.6375 42.9972 35.1513 43.0048 32.8198L43.0651 15.7596C43.0727 13.4281 42.005 11.5682 40.2771 10.9079L27.6197 6.08266C27.6009 6.07512 27.5782 6.06757 27.5594 6.06003C27.45 6.01853 27.3406 5.98457 27.2274 5.95439C26.7331 5.82235 26.2125 5.79217 25.6806 5.85253C25.6353 5.8563 25.59 5.86385 25.5447 5.87139" fill="white"/>
<path d="M24.7563 37.3358L23.5377 37.6905C23.1001 37.8187 22.7228 38.1055 22.4247 38.5431C22.0852 38.9958 21.9117 39.5014 21.9117 40.0484L21.9041 41.8027C21.9041 41.8329 21.9041 41.8631 21.9041 41.9159C21.9192 42.3799 22.0852 42.7421 22.3946 42.9798C22.6549 43.2326 22.9529 43.3344 23.3038 43.2854C23.3717 43.2741 23.4434 43.259 23.5151 43.2401L24.7374 42.8817V42.5346L23.5151 42.893C23.4849 42.9006 23.4585 42.9081 23.4283 42.9157C23.4132 42.9157 23.4019 42.9232 23.3868 42.9232C23.3717 42.9232 23.3604 42.927 23.3453 42.9307C23.1944 42.9534 23.0586 42.9383 22.9303 42.8892C22.8322 42.8515 22.7379 42.7912 22.6473 42.7082C22.6322 42.6968 22.6209 42.6818 22.6058 42.6704C22.3493 42.4743 22.2135 42.1875 22.1984 41.8404C22.2059 41.8027 22.2059 41.7612 22.2059 41.7197L22.2135 39.9654C22.2135 39.5202 22.3531 39.109 22.6322 38.7355C22.8775 38.3733 23.1793 38.1432 23.5415 38.0376L24.76 37.6829V37.3358M24.794 26.7723L23.5792 27.1269C23.1416 27.2552 22.7643 27.5457 22.4662 27.9796C22.1229 28.4398 21.9569 28.9303 21.9569 29.4849L21.9494 31.2429C21.9456 31.6806 21.8136 32.0956 21.5457 32.4842C21.3873 32.7369 21.1948 32.9369 20.9723 33.084C20.8515 33.167 20.7044 33.2311 20.5459 33.2764L19.0369 33.7178C18.5992 33.8461 18.222 34.1404 17.9239 34.5742C17.5806 35.0232 17.4108 35.5287 17.4108 36.0795L17.3995 37.9055C17.4071 38.3922 17.5768 38.7695 17.8937 39.0109C18.1465 39.2637 18.4521 39.3693 18.803 39.3203C18.8709 39.309 18.9425 39.2939 19.0142 39.275L20.5233 38.8336C20.9987 38.694 21.3797 38.3922 21.6891 37.9093C21.9984 37.4566 22.1493 36.9888 22.1531 36.4719L22.1607 34.7138C22.1607 34.2422 22.3078 33.8046 22.6058 33.416C22.8624 33.0387 23.1831 32.7897 23.5641 32.6803L24.7789 32.3257V31.9748L23.5641 32.3295C23.1001 32.4653 22.7077 32.7671 22.4021 33.2198C22.0437 33.6914 21.8626 34.2234 21.8626 34.8006L21.8551 36.5587C21.8551 36.9812 21.7306 37.3585 21.474 37.732C21.2175 38.1319 20.9157 38.3733 20.5233 38.4865L19.0142 38.9279C18.9727 38.9392 18.9275 38.9506 18.886 38.9581C18.8709 38.9581 18.8596 38.9619 18.8445 38.9656C18.8105 38.9694 18.7728 38.9732 18.7388 38.9732C18.5162 38.9807 18.3201 38.9053 18.139 38.7431C18.1239 38.7317 18.1126 38.7166 18.0975 38.7053C17.8334 38.5016 17.7013 38.2111 17.6938 37.8489L17.7013 37.7584L17.7089 36.0003C17.7089 35.5514 17.8447 35.1515 18.1276 34.7742C18.3729 34.4158 18.6785 34.1819 19.0331 34.0762L20.5459 33.6348C20.7346 33.5782 20.9119 33.499 21.0628 33.4009C21.3344 33.2236 21.5759 32.9746 21.7645 32.6728C22.0852 32.205 22.2474 31.6994 22.2474 31.1675L22.255 29.4094C22.2587 28.9605 22.3908 28.5568 22.6737 28.1795C22.919 27.8249 23.2283 27.5872 23.5792 27.4853L24.794 27.1307V26.7798M24.8129 21.4113L23.5981 21.7697C23.1378 21.9017 22.7417 22.2073 22.4361 22.6601C22.0814 23.1279 21.9003 23.6598 21.8966 24.237L21.889 25.9951C21.889 26.4063 21.7608 26.7987 21.508 27.1722C21.2703 27.5457 20.9647 27.7947 20.5988 27.9116L19.0218 28.3719C18.9991 28.3795 18.9765 28.3832 18.9501 28.387C18.9388 28.387 18.9275 28.3908 18.9161 28.3946C18.9048 28.3946 18.8935 28.3946 18.8822 28.3983C18.5992 28.4398 18.3578 28.3568 18.139 28.1342C17.8673 27.9267 17.7315 27.6249 17.7353 27.2099L17.7428 25.4519C17.7428 24.8822 17.5844 24.4483 17.2637 24.1805C17.2335 24.1503 17.1996 24.1239 17.1656 24.1012C16.9958 23.9805 16.8034 23.9126 16.5846 23.9013C16.4978 23.8975 16.4073 23.9013 16.313 23.9126C16.2262 23.9239 16.1394 23.9428 16.0489 23.9692L14.5436 24.4106C14.0795 24.5464 13.6834 24.852 13.3778 25.3009C13.0194 25.7725 12.8421 26.3045 12.8383 26.8817L12.8308 28.6398C12.827 29.183 13.0043 29.5905 13.3439 29.8395C13.359 29.8546 13.3778 29.8734 13.3929 29.8885C13.6306 30.1074 13.9135 30.2054 14.2342 30.1753C14.2569 30.1753 14.2795 30.1715 14.3021 30.1677C14.37 30.1564 14.4417 30.1413 14.5172 30.1224L16.0263 29.681C16.1017 29.6584 16.1734 29.6433 16.2413 29.632C16.2413 29.632 16.279 29.6282 16.2941 29.6245C16.5658 29.598 16.7921 29.666 16.977 29.8319C17.226 30.0508 17.3429 30.3752 17.3429 30.8317L17.3354 32.5898C17.3354 33.0048 17.2109 33.3896 16.9543 33.7669C16.7129 34.1517 16.396 34.4045 16.0112 34.5176L14.5021 34.959C14.4719 34.9666 14.4455 34.9741 14.4153 34.9817C14.4002 34.9817 14.3889 34.9892 14.3738 34.9892C14.3587 34.9892 14.3474 34.993 14.3323 34.9968C14.238 35.0081 14.1475 35.0081 14.0645 34.9968C13.8909 34.9666 13.7362 34.8836 13.5929 34.7402C13.3175 34.5252 13.1816 34.2196 13.1854 33.8084L13.193 32.0503C13.193 31.4806 13.0345 31.0505 12.7176 30.7714C12.6535 30.7148 12.5818 30.6695 12.5101 30.628C12.329 30.5299 12.1253 30.4884 11.9027 30.4997C11.8574 30.4997 11.8122 30.5073 11.7669 30.511C11.7442 30.511 11.7216 30.5186 11.699 30.5224C11.6348 30.5337 11.5707 30.5488 11.5028 30.5676L9.99749 31.009C9.53722 31.1411 9.14486 31.4467 8.8355 31.8994C8.47709 32.3785 8.296 32.9067 8.296 33.4801L8.28846 35.2382C8.28469 35.7777 8.46578 36.1852 8.80155 36.4379C9.05432 36.6983 9.36368 36.8114 9.71831 36.7699C9.72963 36.7699 9.74095 36.7699 9.75227 36.7662C9.75227 36.7662 9.77113 36.7662 9.77867 36.7624C9.80508 36.7586 9.83149 36.7548 9.86167 36.7473C9.8994 36.7398 9.93713 36.7284 9.97485 36.7171L11.4839 36.2757C11.5594 36.2531 11.6311 36.238 11.699 36.2304C11.699 36.2304 11.7367 36.2267 11.7518 36.2229C12.0197 36.1965 12.2422 36.2682 12.4347 36.4342C12.6648 36.6303 12.7855 36.9397 12.7968 37.3208C12.7893 37.3623 12.7893 37.4037 12.7893 37.449L12.7817 39.2071C12.7817 39.7466 12.9591 40.1503 13.2948 40.4106C13.3099 40.4257 13.3288 40.4445 13.3439 40.4596C13.359 40.4747 13.3778 40.4898 13.3929 40.5011C13.4571 40.554 13.5287 40.5992 13.5966 40.6369C13.623 40.6483 13.6457 40.6596 13.6721 40.6709C13.8004 40.7237 13.9324 40.7501 14.0758 40.7464C14.1324 40.7464 14.189 40.7426 14.2455 40.735C14.3172 40.7237 14.3889 40.7086 14.4644 40.686L15.9734 40.2446C16.0489 40.222 16.1206 40.2069 16.1885 40.1955C16.2073 40.1955 16.2262 40.1918 16.2413 40.188C16.5129 40.1616 16.7393 40.2295 16.9242 40.3955C17.1581 40.5992 17.2788 40.9048 17.2863 41.2934C17.2863 41.3311 17.2788 41.3726 17.2788 41.4179L17.2712 43.176C17.2712 43.7192 17.4486 44.1191 17.7881 44.3757C18.0446 44.636 18.354 44.7454 18.7124 44.7039C18.7237 44.7039 18.7351 44.7039 18.7464 44.7001C18.8143 44.6888 18.886 44.6737 18.9576 44.6549L20.4629 44.2135C20.5384 44.1908 20.6101 44.1757 20.678 44.1644C20.6969 44.1644 20.7157 44.1606 20.7308 44.1569C21.0024 44.1305 21.2288 44.1984 21.4137 44.3644C21.6627 44.5794 21.7834 44.9152 21.7834 45.3641L21.7758 47.1222C21.7758 47.6617 21.9494 48.0654 22.2889 48.3257C22.5228 48.5596 22.7945 48.6728 23.1076 48.6615C23.1529 48.6615 23.1982 48.6577 23.2434 48.6502C23.3151 48.6388 23.3868 48.6237 23.4622 48.6011L24.6846 48.2427V47.8918L23.4622 48.2502C23.4019 48.2691 23.3415 48.2804 23.2849 48.288C22.9869 48.3295 22.7266 48.2389 22.5002 48.0126C22.2173 47.7975 22.0739 47.4655 22.0739 47.0317L22.0814 45.2736C22.0814 44.7303 21.9305 44.3191 21.6287 44.0512C21.3835 43.8324 21.0779 43.7494 20.7195 43.7985C20.6365 43.8098 20.5535 43.8287 20.4629 43.8551L18.9576 44.2965C18.8973 44.3153 18.8369 44.3266 18.7803 44.3342C18.4823 44.3757 18.222 44.2851 17.9994 44.0588C17.7164 43.84 17.5731 43.5155 17.5731 43.0779L17.5806 41.3198C17.5806 41.2896 17.5806 41.2632 17.5806 41.2104C17.5693 40.7086 17.4146 40.3276 17.1279 40.0824C16.8864 39.8635 16.5808 39.7805 16.2224 39.8296C16.1394 39.8409 16.0527 39.8598 15.9621 39.8862L14.453 40.3276C14.3965 40.3427 14.3399 40.3578 14.2833 40.3653C13.9815 40.4068 13.7174 40.3163 13.491 40.0899C13.2005 39.8749 13.0609 39.5466 13.0609 39.109L13.0685 37.3509C13.0685 37.3207 13.0685 37.2906 13.076 37.2378C13.0647 36.7322 12.91 36.3587 12.6233 36.1097C12.3743 35.8909 12.08 35.8079 11.7216 35.8569C11.6386 35.8683 11.5518 35.8871 11.4613 35.9135L9.95599 36.3549C9.89563 36.3738 9.83526 36.3851 9.77867 36.3927C9.48063 36.4342 9.22031 36.3436 8.99395 36.1173C8.70723 35.9022 8.56387 35.5702 8.56764 35.1364L8.57518 33.3783C8.57518 32.9067 8.72609 32.4691 9.02036 32.0767C9.28068 31.6994 9.60513 31.4504 9.97485 31.3373L11.4839 30.8958C11.5594 30.8732 11.6348 30.8581 11.7027 30.8468C12.0121 30.8015 12.2762 30.877 12.4875 31.0618C12.7478 31.2882 12.8761 31.6466 12.8761 32.1182L12.8685 33.8763C12.8647 34.3818 13.0345 34.7742 13.3665 35.0232C13.6193 35.2797 13.9249 35.3854 14.2795 35.3325C14.3474 35.325 14.4153 35.3099 14.4832 35.2873L15.9961 34.8421C16.4677 34.7025 16.86 34.3931 17.1581 33.9216C17.4637 33.4726 17.6183 32.9897 17.6221 32.4842L17.6297 30.7261C17.6297 30.179 17.4787 29.7754 17.1769 29.5075C16.9355 29.2887 16.6337 29.2057 16.2753 29.2547C16.1923 29.266 16.1055 29.2849 16.0149 29.3113L14.5096 29.7527C14.4493 29.7716 14.3889 29.7829 14.3285 29.7942C14.0267 29.8357 13.7664 29.7452 13.5438 29.5188C13.2609 29.3038 13.1175 28.9755 13.1213 28.5341L13.1288 26.7761C13.1288 26.3045 13.276 25.8706 13.574 25.482C13.8268 25.1048 14.1512 24.8558 14.5285 24.7426L16.0376 24.3012C16.1168 24.2785 16.1885 24.2635 16.2639 24.2521C16.5733 24.2069 16.8336 24.2785 17.0411 24.4634C17.3052 24.686 17.4335 25.0406 17.4335 25.516L17.4259 27.2741C17.4222 27.7909 17.5919 28.1833 17.9201 28.4247C18.1767 28.6813 18.4785 28.7831 18.8331 28.7341C18.8897 28.7266 18.9463 28.7152 19.0067 28.7001L20.595 28.2361C21.0439 28.0927 21.425 27.7834 21.7193 27.3269C22.0211 26.8817 22.1757 26.395 22.1795 25.8895L22.1871 24.1352C22.1871 23.6598 22.3342 23.226 22.6285 22.8374C22.8888 22.4601 23.2095 22.2111 23.5867 22.0979L24.8015 21.7433V21.3962M6.38325 43.5155L6.44361 26.4554C6.45116 24.1201 7.53769 21.6339 9.27691 19.9626L21.9909 7.72396C22.8624 6.88642 23.832 6.31297 24.8053 6.02624C25.0505 5.95456 25.292 5.90175 25.5334 5.86779C25.5787 5.86025 25.624 5.85647 25.6693 5.84893C26.2012 5.78856 26.7218 5.82252 27.2161 5.95079C27.3293 5.98097 27.4387 6.01493 27.5481 6.05643C27.5669 6.06397 27.5896 6.07152 27.6084 6.07906L40.2658 10.9043C41.9937 11.5646 43.0614 13.4245 43.0538 15.756L42.9935 32.8162C42.9859 35.1477 41.8994 37.6339 40.164 39.309L27.4462 51.5476C26.5785 52.3851 25.6051 52.9586 24.6318 53.2453C24.4205 53.3057 24.2055 53.3547 23.9942 53.3887C23.964 53.3924 23.9338 53.3962 23.9036 53.4037C23.7905 53.4188 23.6773 53.4302 23.5641 53.4377C22.9793 53.4792 22.4134 53.4037 21.8815 53.2113C21.8626 53.2038 21.84 53.1963 21.8211 53.1887L9.17127 48.3634C7.4396 47.7032 6.36816 45.847 6.3757 43.5117M25.5787 5.50939C25.3222 5.54711 25.0656 5.59993 24.8091 5.67538C23.7829 5.9772 22.7605 6.58083 21.8438 7.45987L9.12977 19.7023C7.32265 21.4339 6.19084 24.0031 6.14557 26.4252L6.08521 43.7721C6.11539 45.3604 6.62093 46.7261 7.48488 47.6617C7.76405 47.9635 8.07719 48.2163 8.42428 48.42C8.61668 48.5332 8.81664 48.6275 9.02413 48.7067L21.6778 53.532C22.3568 53.7923 23.1038 53.864 23.8659 53.7584C24.1111 53.7244 24.3601 53.6716 24.6091 53.5999L24.6657 53.5848C25.6768 53.2868 26.6954 52.6794 27.6009 51.8079L40.3149 39.573C42.1182 37.8376 43.25 35.2684 43.2953 32.8501L43.3557 15.5033C43.3142 13.1265 42.2012 11.2401 40.4167 10.5648L37.8475 9.5839L27.7631 5.73197C27.2538 5.53957 26.7105 5.45279 26.1484 5.46411C25.9598 5.46789 25.7674 5.48298 25.5749 5.50939" fill="#231F20"/>
</g>
<mask id="mask3_1_7490" style="mask-type:luminance" maskUnits="userSpaceOnUse" x="24" y="5" width="17" height="45">
<path d="M24.7148 49.4913L24.8544 9.57999L40.4658 5.0188L40.3263 44.9301L24.7148 49.4913Z" fill="white"/>
</mask>
<g mask="url(#mask3_1_7490)">
<path d="M29.7929 36.1587C29.7212 36.17 29.6458 36.1851 29.5665 36.2077L28.0575 36.6491C27.6802 36.7623 27.3595 37.0075 27.103 37.3885C26.8049 37.7809 26.6578 38.2185 26.6578 38.6901L26.6502 40.4482C26.6502 40.9537 26.4956 41.4404 26.19 41.8818C25.8882 42.3534 25.492 42.6628 25.0204 42.8024L24.7337 42.8854L24.7148 47.8993L24.9978 47.8163C25.4015 47.6956 25.7372 47.4315 26.0013 47.0202C26.2654 46.6354 26.3975 46.2167 26.4012 45.7828L26.4088 44.0247C26.4088 43.4777 26.5823 42.9684 26.9219 42.5119C27.2275 42.078 27.6047 41.7875 28.0348 41.6592L29.5439 41.2178C29.9513 41.0971 30.2871 40.833 30.5474 40.4256C30.8153 40.0332 30.9473 39.622 30.9473 39.1844L30.9549 37.4263C30.9549 36.9547 30.8266 36.6001 30.5663 36.3699C30.355 36.1851 30.0947 36.1172 29.7853 36.1587M29.8268 35.8002C29.8042 35.8002 29.7816 35.8078 29.7589 35.8116C29.7816 35.8078 29.8042 35.804 29.8268 35.8002ZM25.2883 32.1898C25.2166 32.2011 25.1412 32.2162 25.0619 32.2388L24.7714 32.3218L24.7526 37.332L25.0393 37.249C25.4467 37.1282 25.7825 36.8604 26.0428 36.4529C26.3107 36.0643 26.4427 35.6531 26.4427 35.2117L26.4503 33.4536C26.4503 32.9783 26.322 32.6236 26.0617 32.401C25.8504 32.2162 25.5901 32.1483 25.2807 32.1898M25.7297 31.8314C25.9146 31.8616 26.0843 31.9332 26.2352 32.054C26.0843 31.937 25.9183 31.8616 25.7297 31.8314ZM25.3298 31.8314C25.243 31.8427 25.1563 31.8616 25.0619 31.888C25.1525 31.8616 25.243 31.8427 25.3298 31.8314ZM25.3298 21.6262C25.2581 21.6375 25.1827 21.6526 25.1072 21.6753L24.8129 21.762L24.7941 26.7722L25.0883 26.6854C25.492 26.5647 25.8316 26.3006 26.0881 25.8894C26.356 25.5008 26.488 25.0896 26.4918 24.6482L26.4993 22.8939C26.4993 22.4185 26.3711 22.0676 26.107 21.8375C25.8957 21.6526 25.6354 21.5847 25.326 21.6262M25.3675 21.2678C25.3675 21.2678 25.3449 21.2678 25.3373 21.2716C25.3487 21.2716 25.36 21.2716 25.3675 21.2678Z" fill="#0088ED"/>
<path d="M25.6165 9.40649C25.409 9.43667 25.1978 9.48194 24.9903 9.54231C24.9488 9.55363 24.9035 9.56872 24.8582 9.58003L24.8167 21.4112L25.111 21.3244C25.1902 21.3018 25.2657 21.2867 25.3411 21.2716C25.3524 21.2716 25.3637 21.2716 25.3713 21.2678C25.7448 21.215 26.0655 21.3018 26.3296 21.5282C26.6465 21.8073 26.8049 22.2374 26.8049 22.8033L26.7974 24.5614C26.7936 25.0934 26.6314 25.5989 26.3107 26.0629C25.9938 26.5572 25.5826 26.8854 25.0921 27.0287L24.7978 27.1155L24.779 31.971L25.0657 31.888C25.1562 31.8616 25.2468 31.8427 25.3336 31.8314C25.4732 31.8125 25.6052 31.8125 25.7297 31.8314C25.9146 31.8616 26.0843 31.9333 26.2352 32.054C26.2503 32.0653 26.2692 32.0804 26.2843 32.0955C26.6012 32.3709 26.7596 32.7972 26.7596 33.3706L26.7521 35.1287C26.7483 35.6644 26.5861 36.1662 26.2692 36.6303C25.9523 37.1283 25.5411 37.4527 25.0468 37.5961L24.7563 37.6791L24.745 40.4407V40.9198L24.7375 42.5383L25.0204 42.4553C25.4052 42.3421 25.7259 42.0893 25.9712 41.7008C26.2239 41.3348 26.3484 40.9424 26.3484 40.5275L26.356 38.7694C26.3597 38.1959 26.5408 37.6602 26.8955 37.1886C27.2086 36.7321 27.601 36.4303 28.0612 36.2983L29.5703 35.8531C29.6382 35.8342 29.7023 35.8191 29.7627 35.8078C29.7853 35.804 29.808 35.8003 29.8306 35.7965C30.2079 35.7437 30.5286 35.8304 30.7851 36.0568C31.102 36.3398 31.2605 36.7698 31.2605 37.3358L31.2529 39.0938C31.2529 39.622 31.0869 40.1275 30.77 40.5954C30.4531 41.0858 30.0419 41.414 29.5477 41.5612L28.0386 42.0026C27.684 42.1044 27.3821 42.3383 27.1294 42.7005C26.8502 43.074 26.7106 43.4852 26.7106 43.9304L26.7031 45.6885C26.7031 46.2205 26.5371 46.726 26.2239 47.19C25.907 47.6843 25.4958 48.0125 25.0016 48.1558L24.7148 48.2388V49.4763C24.7488 49.4687 24.7903 49.4536 24.8318 49.4423C25.6693 49.1971 26.5069 48.7029 27.2576 47.9823L37.923 37.7168C39.4284 36.2681 40.3602 34.1365 40.364 32.1181L40.3904 24.9651L40.4168 17.7856C40.4168 15.7786 39.5038 14.194 38.0098 13.6281L27.3935 9.58003C26.8351 9.36876 26.2277 9.31217 25.609 9.39895" fill="#EDEDED"/>
<path d="M29.827 35.8002C29.8043 35.8002 29.7817 35.8078 29.7591 35.8115C29.6949 35.8229 29.6308 35.838 29.5667 35.8568L28.0576 36.302C27.5973 36.434 27.205 36.7396 26.8918 37.1924C26.5372 37.6639 26.3599 38.1959 26.3523 38.7731L26.3448 40.5312C26.3448 40.9462 26.2203 41.3385 25.9675 41.7045C25.7223 42.0893 25.4016 42.3459 25.0168 42.459L24.7338 42.542V42.8891L25.0168 42.8061C25.4884 42.6665 25.8807 42.3572 26.1863 41.8856C26.4881 41.4404 26.6428 40.9575 26.6466 40.452L26.6541 38.6939C26.6541 38.2223 26.805 37.7847 27.0993 37.3923C27.3559 37.015 27.6765 36.766 28.0538 36.6529L29.5629 36.2115C29.6421 36.1888 29.7138 36.1737 29.7893 36.1624C30.0986 36.1171 30.3589 36.1888 30.5702 36.3737C30.8305 36.6038 30.9588 36.9584 30.9588 37.43L30.9512 39.1881C30.9512 39.6257 30.8154 40.037 30.5513 40.4293C30.291 40.8368 29.9553 41.1046 29.5478 41.2216L28.0387 41.663C27.6049 41.7875 27.2314 42.078 26.9258 42.5156C26.5862 42.9759 26.4127 43.4814 26.4127 44.0285L26.4051 45.7866C26.4051 46.2204 26.2693 46.6354 26.0052 47.024C25.7412 47.4352 25.4054 47.7031 25.0017 47.82L24.7188 47.903V48.2539L25.0017 48.1709C25.4959 48.0275 25.9071 47.6993 26.2241 47.2051C26.541 46.741 26.7032 46.2355 26.7032 45.7036L26.7107 43.9455C26.7107 43.5003 26.8503 43.0891 27.1295 42.7156C27.3823 42.3534 27.6841 42.1195 28.0387 42.0176L29.5478 41.5762C30.042 41.4329 30.4532 41.1046 30.7702 40.6104C31.0871 40.1426 31.2531 39.6371 31.2531 39.1089L31.2606 37.3508C31.2606 36.7849 31.1022 36.351 30.7852 36.0719C30.5249 35.8455 30.2042 35.7587 29.8308 35.8115M25.3299 31.8314C25.2432 31.8427 25.1564 31.8615 25.0621 31.8879L24.7753 31.9709V32.3218L25.0621 32.2388C25.1413 32.2162 25.213 32.2011 25.2884 32.1898C25.5978 32.1445 25.8581 32.2162 26.0694 32.401C26.3297 32.6236 26.458 32.9783 26.458 33.4536L26.4504 35.2117C26.4504 35.6531 26.3146 36.0605 26.0505 36.4529C25.7902 36.8604 25.4544 37.132 25.047 37.2489L24.7602 37.3319V37.679L25.047 37.596C25.5412 37.4527 25.9524 37.1244 26.2693 36.6302C26.5862 36.1662 26.7485 35.6644 26.7522 35.1287L26.7598 33.3706C26.7598 32.8009 26.6013 32.3708 26.2844 32.0954C26.2693 32.0804 26.2505 32.069 26.2354 32.0539C26.0845 31.937 25.9185 31.8615 25.7298 31.8314C25.6053 31.8125 25.4733 31.8125 25.3337 31.8314M25.3677 21.2678C25.3677 21.2678 25.345 21.2678 25.3375 21.2716C25.262 21.2829 25.1866 21.3018 25.1073 21.3244L24.8131 21.4112V21.7583L25.1073 21.6715C25.1828 21.6489 25.2582 21.6338 25.3299 21.6224C25.6355 21.5809 25.8996 21.6489 26.1109 21.8337C26.375 22.0638 26.5032 22.4147 26.5032 22.8901L26.4957 24.6444C26.4919 25.0858 26.3599 25.4932 26.092 25.8856C25.8355 26.2968 25.4959 26.5647 25.0922 26.6816L24.798 26.7684V27.1193L25.0922 27.0325C25.5865 26.8891 25.9977 26.5609 26.3108 26.0667C26.6315 25.6026 26.7937 25.0971 26.7975 24.5651L26.805 22.8071C26.805 22.2412 26.6466 21.8073 26.3297 21.5319C26.0694 21.3055 25.7487 21.2188 25.3714 21.2716" fill="#211D1E"/>
</g>
</g>
</g>
<defs>
<clipPath id="clip0_1_7490">
<rect width="48" height="57.5298" fill="white" transform="translate(0.399902 0.235107)"/>
</clipPath>
</defs>
</svg>
