<svg width="49" height="58" viewBox="0 0 49 58" fill="none" xmlns="http://www.w3.org/2000/svg">
<g clip-path="url(#clip0_1_7502)">
<mask id="mask0_1_7502" style="mask-type:luminance" maskUnits="userSpaceOnUse" x="3" y="-1" width="41" height="62">
<path d="M3.24805 60.3231L3.35052 4.94107L43.8015 -0.744385L43.6991 54.6376L3.24805 60.3231Z" fill="white"/>
</mask>
<g mask="url(#mask0_1_7502)">
<mask id="mask1_1_7502" style="mask-type:luminance" maskUnits="userSpaceOnUse" x="3" y="-1" width="38" height="60">
<path d="M3.25183 58.805L3.42262 10.6077L40.8563 -0.330566L40.6855 47.8706L3.25183 58.805Z" fill="white"/>
</mask>
<g mask="url(#mask1_1_7502)">
<path d="M23.9101 49.8592C23.838 49.882 23.7659 49.8972 23.6938 49.9048C23.7621 49.8934 23.8342 49.8782 23.9101 49.8592ZM21.1774 45.3883C21.4507 45.3617 21.6822 45.4338 21.8758 45.6008C22.1301 45.8285 22.2553 46.1625 22.2515 46.6407C22.2553 46.1663 22.1301 45.8285 21.8758 45.6008C21.6822 45.43 21.4507 45.3617 21.1774 45.3883ZM21.1205 45.3921C21.0484 45.4035 20.9725 45.4186 20.8928 45.4414L19.3708 45.8855C19.2987 45.9082 19.2304 45.9234 19.1621 45.931C19.2304 45.9196 19.3025 45.9044 19.3708 45.8855L20.8928 45.4414C20.9725 45.4186 21.0484 45.3997 21.1205 45.3921ZM23.8 44.2383C23.8 44.2383 23.7735 44.2421 23.7583 44.2459C23.7735 44.2459 23.7849 44.2421 23.8 44.2383ZM17.7047 44.3218C17.7047 44.4205 17.7047 44.5115 17.7237 44.5799C17.7502 45.0353 17.921 45.3845 18.2246 45.6122C18.4106 45.7982 18.6269 45.9082 18.8623 45.9386C18.6232 45.9082 18.4106 45.802 18.2246 45.6122C17.9248 45.3845 17.7502 45.0353 17.7237 44.5799C17.7085 44.5115 17.7047 44.4167 17.7047 44.3218ZM16.5737 41.3083C16.8773 41.2665 17.124 41.3348 17.3289 41.517C17.5832 41.7447 17.7123 42.0787 17.7085 42.5531C17.7085 42.0787 17.5832 41.7447 17.3289 41.517C17.1278 41.3348 16.8773 41.2627 16.5737 41.3083ZM16.5737 41.3083C16.5015 41.3196 16.4256 41.3348 16.3459 41.3576L14.8316 41.8017C14.7595 41.8244 14.6874 41.8396 14.6152 41.8472C14.6836 41.8358 14.7557 41.8206 14.8316 41.8017L16.3459 41.3576C16.4256 41.3348 16.5015 41.3158 16.5737 41.3083ZM19.2532 40.1545C19.2532 40.1545 19.2266 40.1583 19.2114 40.1621C19.2266 40.1621 19.238 40.1583 19.2532 40.1545ZM19.3822 40.1241C19.3519 40.1317 19.3215 40.1393 19.2949 40.1469C19.3253 40.1393 19.3519 40.1317 19.3822 40.1241ZM18.4448 39.8888C18.6156 40.0558 18.7977 40.1469 18.9989 40.1658C18.7939 40.1469 18.6156 40.0558 18.4448 39.8888ZM13.674 41.5284C13.9245 41.7865 14.2281 41.8927 14.5773 41.8548C14.2281 41.8965 13.9245 41.7865 13.674 41.5284ZM12.1521 37.1789C12.4063 37.1675 12.6227 37.2396 12.8049 37.399C13.0553 37.6154 13.1768 37.9456 13.1844 38.3896C13.1768 37.9456 13.0516 37.6192 12.8049 37.399C12.6227 37.2396 12.4101 37.1675 12.1521 37.1789ZM12.0382 37.1865C11.9661 37.1979 11.894 37.2131 11.8181 37.2358L10.3037 37.6799C10.2316 37.7027 10.1595 37.7178 10.0874 37.7254C10.1557 37.714 10.2278 37.6989 10.3037 37.6799L11.8181 37.2358C11.894 37.2131 11.9699 37.1979 12.0382 37.1865ZM9.2448 37.4977C9.44975 37.6685 9.68506 37.7482 9.95074 37.7368C9.68506 37.7444 9.44975 37.6647 9.2448 37.4977ZM14.7253 36.0289C14.7253 36.0289 14.6987 36.0327 14.6836 36.0365C14.6987 36.0365 14.7101 36.0327 14.7253 36.0289ZM14.8544 35.9985C14.824 36.0061 14.7936 36.0137 14.7671 36.0213C14.7974 36.0137 14.824 36.0061 14.8544 35.9985ZM13.9586 35.805C14.1143 35.9492 14.285 36.0251 14.471 36.0403C14.285 36.0251 14.1143 35.9454 13.9586 35.805ZM12.5695 31.5428C12.7403 31.5845 12.8959 31.6642 13.0326 31.7819C12.8959 31.6604 12.7403 31.5807 12.5695 31.5428ZM12.0951 31.5276C12.0724 31.5276 12.0534 31.5352 12.0306 31.539C12.0534 31.5352 12.0724 31.5314 12.0951 31.5276ZM14.8733 30.9279C14.8012 30.9507 14.7291 30.9659 14.6608 30.9735C14.7291 30.9621 14.8012 30.9469 14.8733 30.9279ZM16.6496 30.4307C16.938 30.3966 17.1771 30.4687 17.3783 30.6395C17.6326 30.8634 17.7578 31.2012 17.7578 31.6756C17.7578 31.2012 17.6364 30.8634 17.3783 30.6395C17.1771 30.4649 16.938 30.3928 16.6496 30.4307ZM13.7917 30.723C14.0042 30.9052 14.2509 30.9962 14.5242 30.9849C14.2471 30.9924 14.0042 30.9052 13.7917 30.723ZM19.2987 29.2769C19.2987 29.2769 19.2684 29.2807 19.257 29.2845C19.2722 29.2845 19.2835 29.2807 19.2987 29.2769ZM19.4316 29.2466C19.4012 29.2542 19.3708 29.2618 19.3443 29.2694C19.3746 29.2618 19.4012 29.2542 19.4316 29.2466ZM18.5321 29.0568C18.6877 29.201 18.8585 29.2769 19.0444 29.2921C18.8585 29.2769 18.6877 29.1972 18.5321 29.0568ZM23.8873 22.5212C23.8494 22.5288 23.8114 22.5364 23.7773 22.5402C23.8152 22.5364 23.8494 22.5288 23.8873 22.5212ZM19.2152 29.6413C18.8547 29.6906 18.5359 29.5844 18.274 29.3187C17.9362 29.0644 17.7616 28.6621 17.7654 28.1421L17.773 26.252C17.773 25.7283 17.9324 25.2273 18.2474 24.7756C18.5586 24.286 18.9647 23.9634 19.4505 23.8192L20.9687 23.3751C21.0408 23.3524 21.1091 23.3372 21.1774 23.3296C21.538 23.2803 21.8568 23.3865 22.1187 23.6484C22.4565 23.8989 22.6311 24.3012 22.6311 24.8326L22.6197 26.7189C22.6197 27.2388 22.4603 27.736 22.149 28.1915C21.834 28.6849 21.4317 29.0075 20.9459 29.1479L19.4278 29.592C19.3557 29.6147 19.2835 29.6299 19.2152 29.6375M24.969 11.7537L24.0391 12.027C23.6368 12.1409 23.3142 12.3989 23.0637 12.8051C22.7981 13.1884 22.669 13.5831 22.669 14.0196L22.6614 15.7882C22.6576 16.3499 22.4792 16.8737 22.1301 17.3443C21.8226 17.7922 21.4317 18.0882 20.9839 18.221L19.4619 18.6651C19.0634 18.779 18.7408 19.037 18.4827 19.4507C18.2208 19.8303 18.0918 20.2326 18.0918 20.6615L18.0842 22.4263V22.5022V22.635C18.0804 23.2006 17.902 23.7243 17.5567 24.1874C17.2492 24.639 16.8621 24.9312 16.4105 25.0641L14.8923 25.5081C14.49 25.6258 14.1712 25.8839 13.9093 26.2938C13.6474 26.6733 13.5222 27.068 13.5222 27.5045L13.5108 29.3908C13.5108 29.8197 13.6474 30.1347 13.9359 30.351C14.1598 30.575 14.4065 30.6623 14.6987 30.6205C14.7557 30.6129 14.8126 30.6015 14.8733 30.5825L16.3915 30.1385C16.4826 30.1119 16.5661 30.0929 16.6496 30.0816C17.0215 30.0284 17.3327 30.1157 17.5832 30.3358C17.8944 30.6053 18.0538 31.0266 18.0538 31.5959L18.0425 33.4784C18.0425 34.006 17.8831 34.5032 17.5718 34.951C17.2606 35.4406 16.8545 35.767 16.3687 35.9074L14.8506 36.3515C14.7784 36.3743 14.7101 36.3895 14.6418 36.397C14.2813 36.4464 13.9624 36.3401 13.7006 36.0782C13.3628 35.8277 13.1882 35.4292 13.192 34.8979L13.1996 33.133C13.1996 32.6586 13.0743 32.3208 12.82 32.0969C12.6151 31.9147 12.3684 31.8464 12.0686 31.8882C11.9964 31.8995 11.9167 31.9147 11.837 31.9375L10.3227 32.3816C9.94694 32.4916 9.63952 32.7231 9.38523 33.0989C9.08919 33.4898 8.95256 33.9073 8.94876 34.3779L8.94117 36.1428C8.94117 36.5716 9.07781 36.8867 9.36246 37.103C9.58638 37.3269 9.83688 37.4142 10.1291 37.3725C10.1861 37.3649 10.243 37.3535 10.3037 37.3345L11.8181 36.8904C11.9091 36.8639 12.0002 36.8449 12.0875 36.8297C12.4557 36.7766 12.7669 36.8639 13.0174 37.0878C13.321 37.3497 13.4766 37.7596 13.4842 38.2947V38.3441C13.4766 38.4124 13.4842 38.4503 13.4842 38.4883L13.4766 40.2569C13.4728 40.6896 13.6095 41.0046 13.8979 41.221C14.1218 41.4449 14.3685 41.5322 14.6608 41.4904C14.7177 41.4828 14.7747 41.4715 14.8354 41.4525L16.3535 41.0084C16.4446 40.9819 16.5357 40.9629 16.6192 40.9477C16.9873 40.8946 17.2986 40.9818 17.5491 41.202C17.8603 41.4753 18.0159 41.9003 18.0159 42.462L18.0083 44.2269C18.0083 44.3028 18.0083 44.3787 18.0235 44.4432C18.0463 44.8266 18.1829 45.0998 18.4334 45.2972C18.6611 45.5173 18.9116 45.6084 19.2076 45.5667C19.2646 45.5591 19.3215 45.5477 19.3784 45.5287L20.8966 45.0846C20.9877 45.0581 21.0712 45.0391 21.1585 45.0277C21.5266 44.9746 21.8416 45.0619 22.0921 45.2858C22.4033 45.5553 22.5589 45.9804 22.5589 46.5459L22.5514 48.3145C22.5514 48.7396 22.688 49.0546 22.9764 49.2709C23.1966 49.4949 23.4433 49.5822 23.7355 49.5404C23.7962 49.5328 23.857 49.5176 23.9177 49.4987L24.84 49.2292L24.8589 44.2762L23.9329 44.5457C23.8608 44.5685 23.7886 44.5837 23.7203 44.5912C23.3598 44.6406 23.041 44.5343 22.7829 44.2686C22.4489 44.0181 22.2705 43.6158 22.2705 43.0883L22.2781 41.3234C22.2781 41.2589 22.2781 41.1906 22.2705 41.1299C22.2895 40.5871 22.4679 40.1013 22.7943 39.6573C23.1017 39.2094 23.4888 38.9134 23.9405 38.7805L24.8741 38.5073L24.8931 33.4025L23.9784 33.6682C23.5761 33.7858 23.2573 34.0439 23.003 34.45C22.8019 34.7461 22.6804 35.0421 22.6349 35.3609C22.5969 35.5127 22.5855 35.657 22.5855 35.8126L22.5779 37.5812C22.5741 38.1088 22.4147 38.6097 22.0997 39.0614C21.7923 39.5472 21.3862 39.8698 20.9004 40.014L19.3822 40.4581C19.3101 40.4809 19.2418 40.496 19.1735 40.5036C18.8129 40.553 18.4941 40.4467 18.2322 40.1848C17.902 39.9381 17.7274 39.551 17.7237 39.0348V39.0234V38.9779C17.7312 38.9361 17.7312 38.8982 17.7312 38.8602L17.7388 37.0916C17.7388 36.5261 17.9172 36.0061 18.2664 35.5355C18.5738 35.0876 18.9609 34.7916 19.4126 34.6588L20.9307 34.2147C21.333 34.0971 21.6519 33.8428 21.9137 33.4329C22.1718 33.0533 22.3009 32.651 22.3047 32.2183L22.3123 30.3358C22.3123 29.7665 22.4906 29.2428 22.8398 28.7797C23.1472 28.3357 23.5344 28.0359 23.986 27.903L24.9159 27.6335L24.9348 22.5591L24.005 22.8324C23.9139 22.859 23.8266 22.878 23.7431 22.8893C23.375 22.9425 23.0599 22.8552 22.8094 22.6313C22.4982 22.358 22.3388 21.9367 22.3426 21.375L22.3502 19.6026V19.5418V19.4052C22.3502 18.8738 22.5134 18.3766 22.8284 17.9288C23.132 17.4392 23.5419 17.1128 24.024 16.9724L24.9576 16.6991L24.9766 11.7423M25.0791 6.58824C24.0999 6.87669 23.1245 7.45358 22.2477 8.29995L9.45734 20.6083C7.70768 22.2897 6.61461 24.7984 6.60702 27.1402C6.61461 24.7984 7.71147 22.2897 9.45734 20.6083L22.2477 8.29995C23.1245 7.45358 24.0999 6.87669 25.0791 6.58824ZM25.8078 6.42883C25.8078 6.42883 25.7774 6.43263 25.7622 6.43643C25.7774 6.43643 25.7926 6.43263 25.8078 6.42883ZM22.8702 5.33197C22.8702 5.33197 22.8398 5.33577 22.8246 5.33956C22.7487 5.35095 22.6728 5.36234 22.5969 5.37752C22.4451 5.40788 22.2895 5.44584 22.1377 5.49138C21.1623 5.77603 20.183 6.35672 19.3063 7.19929L6.51593 19.5039C4.76627 21.1852 3.677 23.6902 3.66941 26.0395L3.60868 43.1983C3.60109 45.5477 4.67518 47.4188 6.41725 48.083L7.77979 48.6029C6.80438 47.6275 6.24267 46.1322 6.25026 44.3901L6.28062 35.8088L6.31098 27.1098C6.35653 24.6732 7.49893 22.0885 9.31312 20.3426L22.0959 8.03807C23.0182 7.14995 24.0505 6.5389 25.0791 6.23907C25.3372 6.16316 25.599 6.10623 25.8571 6.07207C25.9862 6.05309 26.1152 6.04171 26.2442 6.03412L24.9652 5.54831C24.8855 5.51795 24.802 5.48758 24.7185 5.46481C24.6692 5.44963 24.6198 5.43445 24.5705 5.42306C24.0505 5.28643 23.504 5.25607 22.9423 5.32818C22.9195 5.32818 22.8967 5.33577 22.874 5.33577" fill="#BF25E5"/>
<path d="M27.5423 6.52761C27.6675 6.56177 27.789 6.59972 27.9066 6.64906C27.7852 6.60352 27.6637 6.56177 27.5423 6.52761ZM22.9157 4.96772C22.6576 5.00567 22.3995 5.05881 22.1414 5.13471C21.1091 5.43455 20.0806 6.0456 19.1583 6.93372L6.3717 19.2421C4.55372 20.988 3.41511 23.5726 3.36956 26.0092L3.30884 43.4565C3.35438 45.8476 4.47402 47.7453 6.26922 48.4285L18.9951 53.2827C19.1127 53.3283 19.2342 53.3662 19.3556 53.4004L9.21063 49.5291C8.67169 49.3242 8.18968 49.0092 7.78357 48.5993L6.42104 48.0793C4.67897 47.4151 3.60488 45.544 3.61247 43.1946L3.67319 26.0358C3.68078 23.6865 4.77385 21.1815 6.51972 19.5002L19.3063 7.1956C20.1792 6.35303 21.1584 5.77233 22.1377 5.48768C22.2895 5.44214 22.4451 5.40418 22.5969 5.37382C22.6728 5.35864 22.7487 5.34725 22.8246 5.33587C22.8398 5.33587 22.855 5.33207 22.8702 5.32828C22.8929 5.32828 22.9157 5.32069 22.9385 5.32069C23.4964 5.24857 24.0467 5.27894 24.5667 5.41557C24.616 5.42696 24.6654 5.44214 24.7147 5.45732C24.7982 5.48389 24.8817 5.51045 24.9614 5.54082L26.2404 6.02662C26.7376 5.99626 27.2234 6.04181 27.6865 6.16705L25.1132 5.18405C24.4263 4.92597 23.6786 4.85386 22.9119 4.96013" fill="#231F20"/>
</g>
<mask id="mask2_1_7502" style="mask-type:luminance" maskUnits="userSpaceOnUse" x="6" y="0" width="38" height="60">
<path d="M6.18945 59.9095L6.36404 11.7084L43.7977 0.773926L43.6269 48.9713L6.18945 59.9095Z" fill="white"/>
</mask>
<g mask="url(#mask2_1_7502)">
<path d="M21.1394 23.6902C21.0824 23.6978 21.0255 23.7092 20.9686 23.7282L19.4504 24.1723C19.0481 24.2861 18.7255 24.548 18.4636 24.9541C18.2094 25.3298 18.0765 25.7397 18.0765 26.1648L18.0689 28.0549C18.0651 28.4838 18.2018 28.7988 18.4902 29.0151C18.5054 29.0303 18.5168 29.0417 18.532 29.0569C18.6876 29.2011 18.8584 29.277 19.0443 29.2922C19.1127 29.2998 19.1848 29.2922 19.2569 29.2846C19.2721 29.2846 19.2834 29.2808 19.2986 29.277C19.3138 29.277 19.329 29.2732 19.3404 29.2694C19.3707 29.2618 19.3973 29.2542 19.4277 29.2467L20.9458 28.7988C21.3481 28.6849 21.6669 28.4269 21.9288 28.017C22.1907 27.6336 22.3159 27.2389 22.3197 26.8062L22.3273 24.9199C22.3273 24.4873 22.1907 24.1723 21.906 23.9597C21.8643 23.918 21.8225 23.8838 21.7808 23.8534C21.6176 23.732 21.4392 23.6713 21.2419 23.6789C21.2077 23.6789 21.1697 23.6827 21.1356 23.6864" fill="white"/>
<path d="M18.0689 28.055L18.0765 26.1649C18.0765 25.7398 18.2094 25.3299 18.4637 24.9542C18.7255 24.5481 19.0482 24.2862 19.4505 24.1724L20.9686 23.7283C21.0255 23.7093 21.0825 23.6979 21.1394 23.6903C21.1774 23.6866 21.2115 23.6828 21.2457 23.6828C21.443 23.6752 21.6214 23.7359 21.7846 23.8573C21.8264 23.8877 21.8681 23.9257 21.9099 23.9636C22.1945 24.1762 22.3311 24.4912 22.3311 24.9238L22.3236 26.8101C22.3198 27.239 22.1945 27.6337 21.9326 28.0209C21.6708 28.4308 21.3519 28.685 20.9496 28.8027L19.4315 29.2506C19.4011 29.2581 19.3708 29.2657 19.3442 29.2733C19.329 29.2733 19.3138 29.2809 19.3024 29.2809C19.2873 29.2809 19.2721 29.2847 19.2607 29.2885C19.1886 29.2999 19.1165 29.2999 19.0482 29.2961C18.8622 29.2809 18.6914 29.2012 18.5358 29.0608C18.5206 29.0494 18.5092 29.0342 18.494 29.019C18.2056 28.7989 18.0689 28.4839 18.0727 28.0588M21.1774 23.3298C21.109 23.3412 21.0369 23.3564 20.9686 23.3753L19.4505 23.8194C18.9685 23.9636 18.5586 24.2862 18.2473 24.7758C17.9323 25.2313 17.7729 25.7285 17.7729 26.2522L17.7653 28.1423C17.7615 28.6661 17.9361 29.0646 18.2739 29.3189C18.5358 29.5845 18.8508 29.6908 19.2151 29.6415C19.2835 29.6301 19.3556 29.6149 19.4277 29.5959L20.9458 29.1519C21.4278 29.0114 21.834 28.6888 22.149 28.1954C22.4602 27.74 22.6196 27.2428 22.6196 26.7228L22.631 24.8365C22.631 24.3052 22.4564 23.9029 22.1186 23.6524C21.8567 23.3905 21.5379 23.2804 21.1774 23.3336" fill="#231F20"/>
<path d="M24.8702 38.8681L23.9365 39.1413C23.5608 39.2514 23.2534 39.4867 22.9953 39.8624C22.722 40.2306 22.5816 40.6139 22.5664 41.0428C22.5664 41.0921 22.574 41.168 22.5702 41.244L22.5626 43.0088C22.5626 43.4377 22.6993 43.7565 22.9877 43.969C23.2078 44.193 23.4621 44.284 23.7582 44.2423C23.7733 44.2423 23.7847 44.2385 23.7999 44.2347C23.8151 44.2347 23.8303 44.2309 23.8417 44.2271C23.872 44.2195 23.8986 44.2119 23.929 44.2043L24.8512 43.9349L24.8588 41.6956V41.2136L24.8702 38.8643" fill="white"/>
<path d="M24.874 38.5188L23.9403 38.7921C23.4887 38.9249 23.1016 39.2209 22.7941 39.6688C22.4639 40.1129 22.2894 40.5949 22.2704 41.1414C22.278 41.2021 22.278 41.2666 22.278 41.335L22.2704 43.0998C22.2704 43.6274 22.4488 44.0297 22.7828 44.2802C23.0408 44.5458 23.3559 44.6521 23.7202 44.6028C23.7885 44.5914 23.8606 44.5762 23.9328 44.5572L24.8588 44.2878V43.9386L23.9366 44.2081C23.9062 44.2156 23.8796 44.2232 23.8493 44.2308C23.8341 44.2308 23.8189 44.2384 23.8075 44.2384C23.7923 44.2384 23.7809 44.2422 23.7658 44.246C23.4697 44.2878 23.2192 44.2005 22.9953 43.9727C22.7106 43.7602 22.5702 43.4414 22.5702 43.0125L22.5778 41.2477C22.5778 41.168 22.5778 41.0921 22.574 41.0465C22.5892 40.6176 22.7296 40.2381 23.0029 39.8662C23.261 39.4904 23.5684 39.2551 23.9441 39.145L24.8778 38.8718V38.5226" fill="#231F20"/>
<path d="M24.9499 17.0562L24.02 17.3294C23.6177 17.4471 23.2951 17.7052 23.0446 18.1113C22.7751 18.4984 22.6499 18.8893 22.6499 19.3296V19.4434C22.6499 19.4434 22.6499 19.4928 22.6499 19.5269L22.6423 21.2994C22.6385 21.77 22.7637 22.1078 23.0218 22.3355C23.2268 22.5139 23.4773 22.586 23.7771 22.5443C23.8151 22.5405 23.8492 22.5329 23.8872 22.5253C23.9251 22.5177 23.9631 22.5063 24.001 22.4949L24.9309 22.2254L24.9499 17.0637" fill="white"/>
<path d="M24.9499 16.7068L24.0163 16.9801C23.5342 17.1205 23.1243 17.4469 22.8207 17.9365C22.5057 18.3844 22.3463 18.8816 22.3425 19.4129V19.5495V19.6103L22.3349 21.3827C22.3311 21.9444 22.4905 22.3695 22.8017 22.639C23.0522 22.8629 23.3634 22.9464 23.7354 22.8971C23.8189 22.8857 23.9062 22.8667 23.9973 22.8401L24.9271 22.5669V22.2177L24.0011 22.4872C23.9631 22.4985 23.9252 22.5099 23.8872 22.5175C23.8493 22.5251 23.8113 22.5327 23.7771 22.5365C23.4773 22.5782 23.2268 22.5099 23.0219 22.3277C22.7676 22.1 22.6385 21.7622 22.6423 21.2916L22.6499 19.5192C22.6499 19.4812 22.6499 19.4471 22.6499 19.4357V19.3218C22.6499 18.8816 22.7752 18.4906 23.0446 18.1035C23.2989 17.7012 23.6215 17.4431 24.02 17.3217L24.9499 17.0484V16.6992" fill="#231F20"/>
<path d="M24.912 27.9942L23.9821 28.2637C23.6064 28.3737 23.2989 28.609 23.0446 28.9848C22.7486 29.3719 22.612 29.7856 22.6082 30.2562L22.6006 32.1425C22.6006 32.6625 22.4412 33.1635 22.1262 33.6151C21.8149 34.1047 21.4088 34.4273 20.9268 34.5678L19.4087 35.0156C19.0329 35.1257 18.7255 35.361 18.4674 35.7367C18.1714 36.1277 18.0348 36.5451 18.031 37.012L18.0234 38.7806C18.0234 38.8375 18.0234 38.8945 18.0158 38.9514C18.0196 39.3689 18.1562 39.6763 18.4409 39.8851C18.6117 40.0521 18.7938 40.1431 18.995 40.1621C19.0633 40.1697 19.1316 40.1621 19.2037 40.1545C19.2189 40.1545 19.2303 40.1507 19.2455 40.1469C19.2607 40.1469 19.2758 40.1431 19.2872 40.1394C19.3176 40.1318 19.3442 40.1242 19.3745 40.1166L20.8927 39.6725C21.2988 39.5549 21.6176 39.3006 21.8719 38.8907C22.1375 38.5111 22.2666 38.1126 22.2666 37.6762L22.2742 35.9075C22.2742 35.7178 22.2932 35.5432 22.3311 35.3762C22.3842 35.0042 22.5361 34.6285 22.7752 34.2793C23.0826 33.7935 23.4887 33.4671 23.9707 33.3267L24.8854 33.0572L24.9044 27.9866M24.9727 10.1711C25.0182 10.1598 25.0638 10.1446 25.1055 10.1332C25.3181 10.0725 25.5268 10.0269 25.7356 9.99655C26.358 9.90926 26.969 9.96619 27.5308 10.1787L38.2109 14.2512C39.7101 14.8205 40.6324 16.4145 40.6324 18.4337L40.6134 24.0166C40.7804 24.2747 40.8639 24.6125 40.8639 25.0224L40.8563 26.791C40.8563 27.1744 40.769 27.5463 40.5982 27.8955L40.5792 32.856C40.5716 34.8828 39.6342 37.0309 38.1236 38.4884L27.3941 48.8156C26.6389 49.5405 25.7963 50.0377 24.9537 50.2844C24.912 50.2958 24.8702 50.3071 24.8323 50.3185V49.5898L23.91 49.8593C23.8379 49.8821 23.7658 49.8972 23.6936 49.9048C23.6595 49.9086 23.6253 49.9124 23.5912 49.9162C23.2724 49.9352 22.9915 49.8251 22.7562 49.586C22.4222 49.3317 22.2438 48.9294 22.2438 48.4057L22.2514 46.6408C22.2552 46.1664 22.13 45.8286 21.8757 45.6009C21.6821 45.4301 21.4506 45.3618 21.1773 45.3883C21.1583 45.3883 21.1394 45.3921 21.1204 45.3959C21.0483 45.4073 20.9724 45.4225 20.8927 45.4453L19.3707 45.8893C19.2986 45.9121 19.2303 45.9273 19.162 45.9349C19.0557 45.9501 18.957 45.9501 18.8584 45.9387C18.6192 45.9083 18.4067 45.802 18.2207 45.6123C17.9209 45.3845 17.7463 45.0354 17.7197 44.5799C17.7046 44.5116 17.7008 44.4167 17.7008 44.3218L17.7084 42.557C17.7084 42.0826 17.5831 41.7486 17.3288 41.5209C17.1277 41.3387 16.8772 41.2666 16.5735 41.3121C16.5014 41.3235 16.4255 41.3387 16.3458 41.3615L14.8315 41.8055C14.7594 41.8283 14.6872 41.8435 14.6151 41.8511C14.6037 41.8511 14.5924 41.8511 14.581 41.8549C14.2318 41.8966 13.9282 41.7865 13.6777 41.5285C13.3437 41.278 13.1691 40.8794 13.1691 40.3481L13.1767 38.5795C13.1767 38.5225 13.1767 38.4618 13.1843 38.4087V38.3897C13.1767 37.9456 13.0514 37.6192 12.8047 37.3991C12.6226 37.2397 12.41 37.1676 12.1519 37.179C12.114 37.179 12.0798 37.1828 12.0381 37.1904C11.966 37.2017 11.8939 37.2169 11.8179 37.2397L10.3036 37.6838C10.2315 37.7065 10.1594 37.7217 10.0873 37.7293C10.0417 37.7369 9.99617 37.7407 9.95442 37.7407C9.68875 37.7483 9.45343 37.6686 9.24848 37.5016C9.2333 37.4864 9.21432 37.475 9.19914 37.4598C9.18396 37.4446 9.16499 37.4295 9.1498 37.4105C8.81581 37.1562 8.63743 36.7577 8.64122 36.2301L8.64882 34.4653C8.64882 33.896 8.83099 33.3722 9.18017 32.9092C9.4838 32.4613 9.87092 32.1653 10.3264 32.0324L11.8407 31.5884C11.909 31.5694 11.9736 31.5542 12.0381 31.5428C12.0609 31.5391 12.0798 31.5353 12.1026 31.5315C12.2734 31.5087 12.4328 31.5125 12.577 31.5466C12.7478 31.5884 12.9034 31.6681 13.0401 31.7857C13.3513 32.0552 13.5107 32.4765 13.5069 33.0458L13.4993 34.8069C13.4993 35.2395 13.6359 35.5508 13.9244 35.7671C13.9396 35.7823 13.9509 35.7937 13.9661 35.8088C14.1217 35.9531 14.2925 36.029 14.4785 36.0442C14.5468 36.0517 14.6151 36.0442 14.691 36.0366C14.7062 36.0366 14.7176 36.0328 14.7328 36.029C14.748 36.029 14.7632 36.0252 14.7745 36.0214C14.8049 36.0138 14.8315 36.0062 14.8618 35.9986L16.38 35.5545C16.7823 35.4407 17.1049 35.1826 17.3668 34.7727C17.6249 34.3932 17.7501 33.9984 17.7539 33.562L17.7615 31.6757C17.7615 31.2013 17.64 30.8635 17.382 30.6396C17.1808 30.465 16.9417 30.3966 16.6532 30.4308C16.6457 30.4308 16.6343 30.4308 16.6267 30.4308C16.5546 30.4422 16.4787 30.4574 16.399 30.4801L14.8808 30.9242C14.8087 30.947 14.7366 30.9622 14.6683 30.9697C14.6227 30.9773 14.5772 30.9811 14.5354 30.9811C14.2584 30.9887 14.0155 30.9014 13.8029 30.7193C13.7877 30.7041 13.7688 30.6889 13.7536 30.6737C13.746 30.6661 13.7384 30.6585 13.727 30.6509C13.393 30.3966 13.2184 29.9943 13.2222 29.4706L13.2298 27.5843C13.2298 27.0529 13.3892 26.5595 13.7042 26.1079C14.0155 25.6145 14.4216 25.2919 14.9036 25.1515L16.4217 24.7074C16.7975 24.5973 17.1049 24.362 17.3668 23.9863C17.6552 23.5954 17.7956 23.1817 17.7994 22.711V22.601C17.7994 22.582 17.7994 22.544 17.7994 22.5061L17.807 20.7412C17.807 20.2213 17.9664 19.7203 18.2853 19.2648C18.5927 18.7752 19.0026 18.4526 19.4808 18.3084L21.0027 17.8643C21.3633 17.7581 21.6821 17.5152 21.9402 17.147C22.2324 16.7561 22.3729 16.3424 22.3729 15.8756L22.3805 14.1069C22.3805 13.5794 22.5437 13.0822 22.8587 12.6305C23.1623 12.1447 23.5684 11.8221 24.0542 11.6779L24.9841 11.4046V10.1749M25.8077 6.42891C25.8077 6.42891 25.7773 6.4327 25.7621 6.4365C25.6559 6.45168 25.5496 6.47066 25.4433 6.49343C25.3219 6.52 25.2004 6.55036 25.079 6.58452C24.0998 6.87296 23.1243 7.44986 22.2476 8.29623L9.45723 20.6084C7.70756 22.2897 6.6145 24.7985 6.60691 27.1402L6.54618 44.3029C6.53859 46.6522 7.61648 48.5195 9.35855 49.1837L22.0844 54.038C22.1148 54.0494 22.1451 54.0608 22.1755 54.0721C22.722 54.2657 23.3065 54.334 23.9062 54.2847C23.9973 54.2771 24.0884 54.2657 24.1795 54.2543C24.2098 54.2505 24.2402 54.2467 24.2705 54.2391C24.4831 54.205 24.6994 54.1556 24.912 54.0949C25.8912 53.8065 26.8704 53.2296 27.7433 52.387L40.5337 40.0748C42.2834 38.3935 43.3764 35.8885 43.384 33.543L43.4447 16.3804C43.4523 14.0348 42.3744 12.1637 40.6324 11.4995L39.2698 10.9796L27.9027 6.64524C27.7813 6.5997 27.6598 6.55795 27.5384 6.52379C27.0525 6.39095 26.5402 6.353 26.0164 6.40234C25.9481 6.40993 25.876 6.41752 25.8077 6.42891Z" fill="white"/>
<path d="M24.912 27.645L23.9822 27.9145C23.5305 28.0474 23.1434 28.3472 22.836 28.7912C22.4868 29.2581 22.3122 29.778 22.3084 30.3473L22.3008 32.2298C22.297 32.6587 22.168 33.061 21.9099 33.4444C21.648 33.8505 21.3292 34.1086 20.9269 34.2262L19.4087 34.6703C18.9571 34.8031 18.57 35.0991 18.2625 35.547C17.9134 36.0176 17.735 36.5414 17.735 37.1031L17.7274 38.8717C17.7274 38.9097 17.7274 38.9514 17.7198 38.9894V39.0349V39.0463C17.7198 39.5625 17.8982 39.9496 18.2284 40.1963C18.4903 40.4582 18.8091 40.5683 19.1696 40.5151C19.238 40.5037 19.3101 40.4886 19.3784 40.4696L20.8965 40.0255C21.3823 39.8813 21.7884 39.5587 22.0959 39.0729C22.4109 38.6175 22.5703 38.1203 22.5741 37.5927L22.5817 35.8241C22.5817 35.6647 22.5931 35.5242 22.631 35.3724C22.6766 35.0536 22.798 34.7576 22.9992 34.4615C23.2535 34.0592 23.5761 33.8011 23.9746 33.6797L24.8893 33.414V33.0648L23.9784 33.3343C23.4964 33.4747 23.0903 33.8011 22.7828 34.2869C22.5437 34.6361 22.3919 35.0119 22.3388 35.3838C22.3008 35.5546 22.2818 35.7254 22.2818 35.9151L22.2742 37.6838C22.2742 38.1203 22.1452 38.5188 21.8795 38.8983C21.6252 39.3082 21.3026 39.5587 20.9003 39.6802L19.3822 40.1242C19.3518 40.1318 19.3215 40.1394 19.2949 40.147C19.2797 40.147 19.2645 40.1546 19.2531 40.1546C19.238 40.1546 19.2266 40.1584 19.2114 40.1622C19.1393 40.1735 19.0672 40.1735 19.0026 40.1698C18.7977 40.1508 18.6193 40.0597 18.4485 39.8927C18.1677 39.6839 18.031 39.3765 18.0234 38.959C18.031 38.9021 18.031 38.8452 18.031 38.7882L18.0386 37.0196C18.0424 36.5528 18.179 36.1353 18.4751 35.7444C18.7332 35.3686 19.0406 35.1333 19.4163 35.0232L20.9345 34.5754C21.4165 34.435 21.8226 34.1124 22.1338 33.6227C22.4488 33.1673 22.6082 32.6701 22.6082 32.1501L22.6158 30.2638C22.6196 29.7894 22.7563 29.3795 23.0523 28.9924C23.3066 28.6167 23.614 28.3776 23.9898 28.2713L24.9196 28.0018V27.6488M40.6135 24.0167V25.5386L40.5983 27.8955C40.7691 27.5464 40.8564 27.1782 40.8564 26.7911L40.864 25.0224C40.864 24.6125 40.7805 24.2748 40.6135 24.0167ZM24.969 11.4047L24.0391 11.6779C23.5533 11.8222 23.1472 12.1448 22.8436 12.6306C22.5285 13.086 22.3691 13.5794 22.3653 14.107L22.3577 15.8756C22.3577 16.3424 22.2173 16.7561 21.9251 17.1471C21.667 17.519 21.3482 17.7581 20.9876 17.8644L19.4657 18.3084C18.9837 18.4527 18.5776 18.7753 18.2701 19.2649C17.9513 19.7241 17.7957 20.2213 17.7919 20.7413L17.7843 22.5061C17.7843 22.5441 17.7843 22.582 17.7843 22.601V22.7111C17.7843 23.1817 17.6439 23.5954 17.3517 23.9863C17.0936 24.3621 16.7824 24.5936 16.4066 24.7074L14.8885 25.1515C14.4065 25.2919 14.0003 25.6145 13.6891 26.1079C13.3741 26.5596 13.2147 27.053 13.2147 27.5843L13.2071 29.4706C13.2033 29.9944 13.3779 30.3967 13.7119 30.651C13.7195 30.6586 13.7271 30.6662 13.7385 30.6737C13.7536 30.6889 13.7726 30.7041 13.7878 30.7193C14.0003 30.9015 14.247 30.9926 14.5203 30.9812C14.5659 30.9812 14.6076 30.9774 14.6532 30.9698C14.7215 30.9584 14.7936 30.9432 14.8657 30.9242L16.3838 30.4802C16.4635 30.4574 16.5394 30.4422 16.6116 30.4308C16.6192 30.4308 16.6305 30.4308 16.6381 30.4308C16.9266 30.3967 17.1657 30.4688 17.3668 30.6396C17.6211 30.8635 17.7464 31.2013 17.7464 31.6757L17.7388 33.562C17.735 33.9985 17.6097 34.3894 17.3517 34.7727C17.0898 35.1826 16.7672 35.4407 16.3649 35.5546L14.8467 35.9986C14.8164 36.0062 14.786 36.0138 14.7594 36.0214C14.7442 36.0214 14.7291 36.029 14.7177 36.029C14.7025 36.029 14.6911 36.0328 14.6759 36.0366C14.6038 36.048 14.5317 36.048 14.4634 36.0442C14.2774 36.029 14.1066 35.9493 13.951 35.8089C13.9358 35.7975 13.9244 35.7823 13.9093 35.7671C13.6208 35.5508 13.4842 35.2396 13.4842 34.8069L13.4918 33.0459C13.4956 32.4765 13.3362 32.0553 13.0249 31.7858C12.8883 31.6643 12.7327 31.5846 12.5619 31.5467C12.4177 31.5125 12.2583 31.5087 12.0875 31.5315C12.0647 31.5315 12.0457 31.5391 12.023 31.5429C11.9584 31.5543 11.8939 31.5695 11.8256 31.5884L10.3113 32.0325C9.8596 32.1653 9.47248 32.4614 9.16505 32.9092C8.81588 33.376 8.6337 33.8998 8.6337 34.4653L8.62611 36.2302C8.62231 36.7577 8.8007 37.1562 9.13469 37.4105C9.14987 37.4257 9.16885 37.4447 9.18403 37.4599C9.19921 37.475 9.21439 37.4902 9.23337 37.5016C9.43832 37.6724 9.67743 37.7521 9.93931 37.7407C9.98485 37.7407 10.0266 37.7369 10.0721 37.7293C10.1405 37.7179 10.2126 37.7028 10.2885 37.6838L11.8028 37.2397C11.8787 37.217 11.9546 37.2018 12.023 37.1904C12.0609 37.1866 12.0989 37.1828 12.1368 37.179C12.3911 37.1676 12.6074 37.2397 12.7896 37.3991C13.0401 37.6155 13.1616 37.9457 13.1692 38.3897V38.4087C13.1616 38.4618 13.1616 38.5264 13.1616 38.5795L13.154 40.3481C13.154 40.8795 13.3286 41.278 13.6626 41.5285C13.9131 41.7866 14.2167 41.8928 14.5659 41.8549C14.5772 41.8549 14.5886 41.8549 14.6 41.8511C14.6683 41.8397 14.7404 41.8245 14.8164 41.8056L16.3307 41.3615C16.4104 41.3387 16.4863 41.3197 16.5584 41.3122C16.8621 41.2704 17.1088 41.3387 17.3137 41.5209C17.568 41.7486 17.697 42.0826 17.6932 42.557L17.6856 44.3219C17.6856 44.4206 17.6856 44.5117 17.7046 44.58C17.7312 45.0354 17.902 45.3846 18.2056 45.6123C18.3916 45.7983 18.6079 45.9083 18.8432 45.9387C18.9381 45.9501 19.0406 45.9501 19.1469 45.9349C19.2152 45.9235 19.2873 45.9083 19.3556 45.8894L20.8776 45.4453C20.9573 45.4225 21.0332 45.4036 21.1053 45.396C21.1053 45.396 21.1432 45.3922 21.1622 45.3884C21.4355 45.3618 21.667 45.4339 21.8606 45.6009C22.1148 45.8286 22.2401 46.1626 22.2363 46.6409L22.2287 48.4057C22.2287 48.9295 22.4071 49.3318 22.7411 49.5861C22.9764 49.8252 23.2572 49.9352 23.5761 49.9163C23.6102 49.9163 23.6444 49.9125 23.6785 49.9049C23.7468 49.8935 23.819 49.8783 23.8949 49.8593L24.8209 49.5899V49.2369L23.8987 49.5064C23.8341 49.5253 23.7734 49.5405 23.7165 49.5481C23.4242 49.5899 23.1775 49.5026 22.9574 49.2786C22.6728 49.0585 22.5323 48.7473 22.5323 48.3222L22.5399 46.5536C22.5399 45.9881 22.3881 45.563 22.0731 45.2935C21.8226 45.0696 21.5076 44.9861 21.1394 45.0354C21.0559 45.0468 20.9686 45.0658 20.8776 45.0923L19.3594 45.5364C19.3025 45.5554 19.2417 45.5668 19.1886 45.5744C18.8964 45.6161 18.6421 45.5288 18.4144 45.3049C18.1639 45.1075 18.0272 44.8343 18.0045 44.4509C17.9931 44.3826 17.9893 44.3105 17.9893 44.2346L17.9969 42.4697C17.9969 41.908 17.8413 41.483 17.53 41.2097C17.2795 40.9896 16.9683 40.9023 16.6002 40.9554C16.5129 40.9668 16.4256 40.9858 16.3345 41.0161L14.8164 41.4602C14.7556 41.4792 14.6987 41.4905 14.6418 41.4981C14.3495 41.5399 14.1028 41.4526 13.8789 41.2287C13.5904 41.0123 13.4538 40.6973 13.4576 40.2646L13.4652 38.496C13.4652 38.458 13.4652 38.4163 13.4652 38.3518V38.3024C13.4576 37.7673 13.302 37.3574 12.9984 37.0955C12.7517 36.8716 12.4405 36.7843 12.0685 36.8374C11.9812 36.8488 11.8939 36.8678 11.799 36.8981L10.2847 37.3422C10.224 37.3612 10.167 37.3726 10.1101 37.3802C9.81785 37.4219 9.56736 37.3346 9.34343 37.1107C9.05878 36.8944 8.92215 36.5793 8.92215 36.1505L8.92974 34.3856C8.93353 33.915 9.07017 33.5013 9.3662 33.1066C9.62049 32.7346 9.92792 32.4993 10.3037 32.3893L11.818 31.9452C11.8977 31.9224 11.9774 31.9034 12.0495 31.8959C12.3532 31.8541 12.5961 31.9224 12.801 32.1046C13.0553 32.3285 13.1843 32.6625 13.1805 33.1407L13.173 34.9056C13.1692 35.4369 13.3437 35.8354 13.6815 36.0859C13.9434 36.3478 14.2622 36.4579 14.6228 36.4047C14.6911 36.3934 14.7632 36.3782 14.8315 36.3592L16.3497 35.9151C16.8317 35.7747 17.2416 35.4483 17.5528 34.9587C17.864 34.5071 18.0234 34.0137 18.0234 33.4861L18.0348 31.6036C18.0348 31.0343 17.8792 30.613 17.5642 30.3436C17.3137 30.1234 17.0025 30.0361 16.6305 30.0893C16.547 30.1006 16.4597 30.1196 16.3725 30.1462L14.8543 30.5902C14.7936 30.6092 14.7366 30.6206 14.6797 30.6282C14.3875 30.67 14.1408 30.5827 13.9169 30.3587C13.6284 30.1386 13.4918 29.8274 13.4918 29.3985L13.5032 27.5122C13.5032 27.0719 13.6284 26.681 13.8903 26.3015C14.1522 25.8954 14.471 25.6373 14.8733 25.5158L16.3914 25.0718C16.8431 24.9389 17.2302 24.6467 17.5376 24.1951C17.8868 23.7282 18.0614 23.2045 18.0652 22.6428V22.5099V22.434L18.0728 20.6692C18.0728 20.2441 18.2018 19.838 18.4637 19.4584C18.7218 19.0485 19.0444 18.7905 19.4429 18.6728L20.9648 18.2287C21.4127 18.0959 21.7998 17.7999 22.111 17.352C22.4602 16.8814 22.6386 16.3576 22.6424 15.7959L22.65 14.0273C22.65 13.5908 22.779 13.1999 23.0447 12.8128C23.299 12.4066 23.6216 12.1524 24.0201 12.0347L24.95 11.7614V11.4123M25.7622 6.43654C25.7622 6.43654 25.7926 6.43274 25.8077 6.42895C25.876 6.41756 25.9482 6.40997 26.0165 6.40238C26.5402 6.35304 27.0526 6.39099 27.5384 6.52383C27.6637 6.55799 27.7851 6.59594 27.9028 6.64528L39.2699 10.9796L40.6324 11.4996C42.3745 12.1637 43.4524 14.0311 43.4448 16.3804L43.3841 33.543C43.3765 35.8886 42.2796 38.3935 40.5338 40.0749L27.7434 52.387C26.8704 53.2296 25.8912 53.8065 24.912 54.095C24.6957 54.1557 24.4832 54.205 24.2706 54.2392C24.2402 54.243 24.2099 54.2468 24.1795 54.2544C24.0884 54.2657 23.9973 54.2771 23.9063 54.2847C23.3066 54.3341 22.7221 54.2657 22.1756 54.0722C22.1452 54.0608 22.1148 54.0494 22.0845 54.038L9.35861 49.1838C7.61654 48.5196 6.53866 46.6522 6.54625 44.3029L6.60697 27.1403C6.61456 24.7985 7.71143 22.2898 9.45729 20.6084L22.2477 8.30006C23.1244 7.4537 24.0998 6.8768 25.079 6.58835C25.2005 6.55419 25.3219 6.52383 25.4434 6.49726C25.5496 6.47449 25.6559 6.45551 25.7622 6.44033M25.8571 6.07218C25.599 6.11014 25.3409 6.16327 25.079 6.23918C24.0467 6.53901 23.0181 7.15007 22.0959 8.03818L9.30927 20.3428C7.49509 22.0886 6.35268 24.6733 6.30714 27.1099L6.27678 35.8089L6.24641 44.3902C6.23882 46.1323 6.80054 47.6276 7.77595 48.6031C8.18205 49.0092 8.66406 49.328 9.203 49.5329L19.348 53.4042L21.9289 54.3872C22.6158 54.6453 23.3635 54.7174 24.1302 54.6111C24.3883 54.5732 24.6464 54.52 24.9082 54.4441C25.9406 54.1443 26.9691 53.5332 27.8914 52.6451L40.678 40.3405C42.4922 38.5947 43.6346 36.01 43.6801 33.5734L43.7105 24.8744L43.7408 16.2931C43.7522 13.8223 42.6174 11.8487 40.7842 11.1504L28.0584 6.29611C27.9369 6.25056 27.8155 6.20881 27.6902 6.17466C27.2272 6.04941 26.7414 6.00007 26.2442 6.03423C26.1152 6.04182 25.9861 6.057 25.8571 6.07218Z" fill="#231F20"/>
</g>
<mask id="mask3_1_7502" style="mask-type:luminance" maskUnits="userSpaceOnUse" x="24" y="5" width="17" height="46">
<path d="M24.8323 50.3187L24.9727 10.1714L40.6779 5.58276L40.5375 45.7302L24.8323 50.3187Z" fill="white"/>
</mask>
<g mask="url(#mask3_1_7502)">
<path d="M25.709 38.6137C25.709 38.6137 25.69 38.6137 25.6824 38.6175C25.6141 38.6478 25.5382 38.6782 25.4585 38.6972C25.5382 38.6744 25.6141 38.644 25.6824 38.6175C25.69 38.6175 25.7014 38.6175 25.709 38.6137ZM28.3809 37.4561C28.3809 37.4561 28.3506 37.4599 28.3354 37.4637C28.3506 37.4637 28.3658 37.4599 28.3809 37.4561ZM30.0509 31.9111L28.5366 32.3551C28.1304 32.4728 27.8078 32.7309 27.5536 33.137C27.2917 33.5203 27.1626 33.915 27.1626 34.3515C27.1626 33.9188 27.2917 33.5241 27.5536 33.137C27.8078 32.7309 28.1304 32.4728 28.5366 32.3551L30.0509 31.9111ZM32.9771 30.6738C32.9771 30.6738 32.9468 30.6776 32.9354 30.6814C32.9506 30.6814 32.9657 30.6776 32.9771 30.6738ZM30.2293 26.1915C30.1837 26.2028 30.142 26.2142 30.0964 26.2256C30.142 26.2104 30.1875 26.199 30.2293 26.1915ZM30.3583 26.1687C30.3356 26.1687 30.3166 26.1763 30.2938 26.1801C30.3166 26.1763 30.3356 26.1725 30.3583 26.1687ZM28.3012 37.8205C27.9369 37.8698 27.6219 37.7673 27.3638 37.4978C27.026 37.2474 26.8552 36.845 26.8552 36.3213L26.8628 34.4388C26.8628 33.915 27.026 33.4178 27.341 32.9624C27.6446 32.4728 28.0545 32.1502 28.5403 32.006L30.0585 31.5619C30.1306 31.5391 30.1989 31.5239 30.271 31.5163C30.6316 31.467 30.9466 31.5733 31.2085 31.8314C31.5501 32.097 31.7209 32.4993 31.7209 33.0231L31.7133 34.9056C31.7095 35.4332 31.5539 35.9304 31.2351 36.382C30.9238 36.8716 30.5177 37.1942 30.0357 37.3346L28.5214 37.7787C28.4493 37.8015 28.3771 37.8167 28.305 37.8242M39.4217 23.8649C39.3533 23.8763 39.2774 23.8915 39.2015 23.9104L37.6796 24.3545C37.3038 24.4646 37.0002 24.7037 36.7421 25.0756C36.4499 25.4665 36.3057 25.884 36.3057 26.3509L36.2981 28.1195C36.2981 28.6395 36.1387 29.1404 35.8199 29.5959C35.5162 30.0817 35.1101 30.4005 34.6243 30.5447L33.1062 30.9888C33.0341 31.0116 32.962 31.0267 32.8898 31.0343C32.5255 31.0837 32.2105 30.9812 31.9524 30.7193C31.6146 30.4612 31.4438 30.0589 31.4438 29.5352L31.4514 27.7665C31.4514 27.2959 31.3299 26.9543 31.0719 26.7304C30.8631 26.5482 30.6088 26.4799 30.309 26.5216C30.2407 26.533 30.1686 26.5482 30.0927 26.5672L28.5707 27.015C28.2709 27.0985 28.009 27.2769 27.7813 27.5464C27.7471 27.5768 27.7319 27.6033 27.7054 27.6375L27.6484 27.7134L27.5725 27.8235C27.5346 27.8766 27.5042 27.9259 27.4776 27.9753C27.4549 28.0094 27.4359 28.0474 27.4169 28.0853L27.3714 28.1878C27.2423 28.4611 27.1816 28.7343 27.1816 29.038L27.174 30.8066C27.1702 31.3721 26.9918 31.8921 26.6427 32.3589C26.3352 32.8106 25.9481 33.1028 25.4965 33.2356L24.8892 33.414L24.8702 38.5188L25.4509 38.348C25.523 38.3252 25.5951 38.2987 25.6597 38.2683H25.6748L25.6976 38.2607C25.7204 38.2569 25.7394 38.2531 25.7621 38.2493C26.1189 38.2 26.4263 38.2873 26.6768 38.5074C26.9691 38.7655 27.1247 39.1526 27.1399 39.6688C27.1323 39.7675 27.1285 39.8396 27.1285 39.9117L27.1209 41.6765C27.1209 42.2079 26.9577 42.7051 26.6427 43.1529C26.3352 43.6463 25.9291 43.9689 25.4433 44.1094L24.8513 44.284L24.8323 49.2369L25.4244 49.0623C25.8305 48.9447 26.1531 48.6904 26.4074 48.2843C26.6692 47.9047 26.7983 47.5062 26.7983 47.0736L26.8059 45.3049C26.8097 44.7394 26.988 44.2156 27.3334 43.7488C27.6446 43.301 28.0318 43.0049 28.4796 42.8721L29.9978 42.428C30.4039 42.3104 30.7227 42.0523 30.977 41.6462C31.2123 41.3084 31.3413 40.9478 31.3603 40.5683C31.3755 40.4696 31.3831 40.3861 31.3831 40.2912L31.3907 38.5226C31.3907 37.9571 31.5728 37.4371 31.9182 36.9665C32.2219 36.5224 32.6128 36.2226 33.0644 36.0898L34.5826 35.6457C34.9849 35.5281 35.3037 35.2738 35.5618 34.8639C35.7705 34.564 35.892 34.2604 35.9299 33.9454V33.9378L35.9375 33.8733C35.9603 33.7594 35.9717 33.638 35.9717 33.5051L35.9793 31.7403C35.9793 31.1748 36.1614 30.651 36.5106 30.1842C36.8218 29.7325 37.2128 29.4327 37.6568 29.3036L39.1788 28.8558C39.5811 28.7419 39.8999 28.4839 40.1542 28.0777C40.287 27.888 40.3857 27.6944 40.4502 27.4971L40.4616 24.4873C40.3971 24.3165 40.3022 24.1761 40.1731 24.0622C39.9682 23.8801 39.7177 23.8118 39.4141 23.8535M39.4672 23.5081C39.4444 23.5081 39.4255 23.5157 39.4027 23.5195C39.4255 23.5157 39.4444 23.5119 39.4672 23.5081ZM31.9106 25.3033C32.1308 25.4969 32.4002 25.588 32.7115 25.5728C32.4002 25.588 32.1346 25.4969 31.9106 25.3033ZM36.2981 22.62C36.2981 23.1855 36.1159 23.7131 35.7667 24.1761C35.4669 24.6202 35.076 24.92 34.6205 25.0528C35.0722 24.92 35.4631 24.624 35.7667 24.1761C36.1159 23.7093 36.2981 23.1817 36.2981 22.62ZM30.1382 21.0715C30.1382 21.0715 30.1078 21.0791 30.0889 21.0829L28.5669 21.5269C28.1646 21.6446 27.8458 21.8989 27.5839 22.305C27.3258 22.6845 27.193 23.0906 27.193 23.5195L27.1854 25.2882C27.1854 25.3944 27.1778 25.4969 27.1664 25.5994C27.1664 25.6259 27.1588 25.6677 27.1512 25.7056C27.1057 26.1042 26.9539 26.5027 26.6996 26.867C26.3846 27.3566 25.9823 27.6792 25.4965 27.8235C25.9785 27.6792 26.3846 27.3566 26.6996 26.867C26.9539 26.4989 27.1057 26.1004 27.1512 25.7056C27.1588 25.6639 27.1626 25.6259 27.1664 25.5994C27.1778 25.4969 27.1854 25.3944 27.1854 25.2882L27.193 23.5195C27.193 23.0944 27.3258 22.6883 27.5839 22.305C27.8458 21.8989 28.1646 21.6446 28.5669 21.5269L30.0889 21.0829C30.0889 21.0829 30.1192 21.0753 30.1382 21.0715ZM30.3697 21.0373C30.6164 21.0298 30.8327 21.1208 31.0263 21.3144C31.311 21.5345 31.4476 21.8458 31.4476 22.2746C31.4476 21.8458 31.311 21.5307 31.0263 21.3144C30.829 21.1208 30.6164 21.0298 30.3697 21.0373ZM30.2634 21.0449C30.2634 21.0449 30.2369 21.0487 30.2217 21.0525C30.2369 21.0525 30.2521 21.0487 30.2634 21.0449ZM32.962 19.8835C32.962 19.8835 32.9278 19.8911 32.9088 19.8911C32.9088 19.8911 32.943 19.8873 32.962 19.8835ZM35.3379 19.3864C35.4669 19.4243 35.5883 19.4926 35.7022 19.5837C35.5883 19.4926 35.4707 19.4243 35.3379 19.3864ZM34.8596 19.356C34.7913 19.3674 34.7192 19.3826 34.6433 19.4015C34.7154 19.3788 34.7875 19.3636 34.8596 19.356ZM25.709 16.8473C25.6521 16.8548 25.5951 16.8662 25.5382 16.8852C25.5989 16.8662 25.6559 16.8548 25.709 16.8473ZM28.3999 15.6897C28.3999 15.6897 28.362 15.6973 28.343 15.6973C28.362 15.6973 28.3809 15.6935 28.3999 15.6897ZM27.6636 15.5454C27.7623 15.6138 27.8648 15.6631 27.9824 15.6859C27.8686 15.6593 27.7623 15.6138 27.6636 15.5454ZM30.2483 15.1659C30.1951 15.1735 30.142 15.1887 30.0889 15.2039C30.142 15.1887 30.1951 15.1773 30.2483 15.1659ZM30.3014 15.1583C30.3014 15.1583 30.2672 15.1621 30.2483 15.1659C30.2672 15.1659 30.2824 15.1583 30.3014 15.1583ZM25.728 11.5413C25.6711 11.5489 25.6141 11.5603 25.5534 11.5793L24.9651 11.7501L24.9461 16.7068L25.5344 16.536C25.6065 16.5133 25.6786 16.4981 25.747 16.4905C26.1113 16.4412 26.4225 16.5474 26.6882 16.8093C27.026 17.0598 27.1968 17.4621 27.1968 17.9897L27.1892 19.7545C27.1892 19.819 27.1892 19.8836 27.1968 19.9405L27.2044 19.9481V19.9936L27.2158 20.0657L27.2006 20.0847C27.1778 20.6123 26.9994 21.1019 26.6768 21.5345C26.4074 21.9217 26.0847 22.1987 25.709 22.3467L25.6938 22.3543H25.6824C25.6293 22.3619 25.5724 22.3771 25.5192 22.3923L24.931 22.5669L24.912 27.6413L25.5003 27.4705C25.9026 27.3566 26.2214 27.0985 26.4833 26.6886C26.6958 26.3774 26.8173 26.0624 26.8552 25.7284C26.8628 25.6867 26.8666 25.6601 26.8704 25.6335C26.878 25.5424 26.8856 25.4551 26.8856 25.3679L26.8932 23.5992C26.897 23.0792 27.0526 22.5821 27.3714 22.1266C27.6826 21.6408 28.0849 21.3182 28.5745 21.174L30.0927 20.7299C30.1648 20.7071 30.2369 20.692 30.3052 20.6844C30.6658 20.635 30.9846 20.7413 31.2464 20.9994C31.5842 21.2575 31.755 21.6636 31.755 22.1835L31.7474 23.9522C31.7474 24.4266 31.8689 24.7644 32.127 24.9883C32.3319 25.1705 32.5786 25.2426 32.8822 25.1971C32.9544 25.1857 33.0303 25.1705 33.11 25.1477L34.6281 24.7037C35.0039 24.5898 35.3113 24.3583 35.5656 23.9863C35.8578 23.5916 35.9982 23.1779 35.9982 22.7073L36.0058 20.9425C36.0058 20.5136 35.8692 20.1986 35.5845 19.9822C35.3644 19.7583 35.1215 19.671 34.8293 19.7128C34.7685 19.7204 34.7078 19.7355 34.6471 19.7545L33.1252 20.1986C33.0379 20.2251 32.9506 20.2441 32.8671 20.2555C32.4989 20.3086 32.1839 20.2213 31.9296 20.0012C31.6184 19.7279 31.4628 19.3029 31.4628 18.7411L31.4704 16.9725C31.4704 16.9118 31.4704 16.8473 31.4628 16.7903L31.4552 16.7827V16.7106C31.4552 16.3045 31.3148 16.0009 31.0377 15.7959C30.8138 15.572 30.5595 15.4809 30.2672 15.5227C30.2103 15.5303 30.1534 15.5417 30.0964 15.5606L28.5783 16.0047C28.491 16.0313 28.4037 16.0502 28.3202 16.0616C27.9559 16.1148 27.6408 16.0275 27.3866 15.8073C27.0753 15.5341 26.9159 15.109 26.9159 14.5473L26.9235 12.7786C26.9235 12.3535 26.7869 12.0347 26.5022 11.8184C26.2821 11.5945 26.0316 11.5072 25.7356 11.5489M25.7735 11.1846C25.7052 11.196 25.6331 11.2111 25.5572 11.2301C25.6293 11.2073 25.7014 11.1922 25.7735 11.1846Z" fill="#AC21CE"/>
<path d="M40.4693 24.4988L40.4579 27.5085C40.5224 27.3074 40.5566 27.0986 40.5566 26.8823L40.5642 25.1136C40.5642 24.8783 40.5338 24.6734 40.4693 24.5026" fill="#1F1C1D"/>
<path d="M25.7089 38.6138C25.7089 38.6138 25.69 38.6138 25.6824 38.6176C25.6141 38.648 25.5381 38.6783 25.4584 38.6973L24.874 38.8681L24.8664 41.2174V41.6994L24.855 43.9387L25.4471 43.7641C25.8532 43.6465 26.172 43.3884 26.4301 42.9785C26.6919 42.5989 26.821 42.2042 26.821 41.764L26.8286 39.9991C26.8286 39.9118 26.8286 39.8207 26.8438 39.7372C26.8286 39.3387 26.7071 39.0275 26.4642 38.815C26.3124 38.6821 26.1302 38.61 25.9215 38.5986C25.8532 38.5986 25.7811 38.5986 25.7051 38.61" fill="#E5E5E5"/>
<path d="M25.7621 38.2531C25.7393 38.2531 25.7203 38.2607 25.6976 38.2645H25.6748L25.6596 38.2721C25.5951 38.3025 25.5268 38.3252 25.4509 38.3518L24.8702 38.5226V38.8718L25.4509 38.701C25.5306 38.6782 25.6065 38.6478 25.6748 38.6213C25.6824 38.6213 25.6938 38.6213 25.7014 38.6175C25.7773 38.6061 25.8494 38.6023 25.9177 38.6061C26.1264 38.6175 26.3048 38.6896 26.4604 38.8224C26.6995 39.035 26.8248 39.3462 26.84 39.7447C26.8286 39.8282 26.8248 39.9193 26.8248 40.0066L26.8172 41.7714C26.8172 42.2117 26.6882 42.6026 26.4263 42.9859C26.1682 43.392 25.8494 43.6501 25.4433 43.7716L24.8512 43.9462V44.2953L25.4433 44.1207C25.9291 43.9803 26.3352 43.6577 26.6426 43.1643C26.9576 42.7127 27.117 42.2193 27.1208 41.6879L27.1284 39.9231C27.1284 39.851 27.1284 39.7826 27.1398 39.6802C27.1246 39.164 26.969 38.7769 26.6768 38.5188C26.4263 38.2987 26.1226 38.2114 25.7621 38.2607" fill="#1F1C1D"/>
<path d="M25.7091 16.8472C25.6521 16.8548 25.5952 16.8661 25.5383 16.8851L24.9538 17.0559L24.9348 22.2176L25.5231 22.0468C25.5838 22.0278 25.6445 22.0127 25.6977 22.0013C25.9975 21.876 26.2594 21.6559 26.4757 21.3409C26.7414 20.9803 26.8818 20.6008 26.9046 20.1757L26.8515 20.1226L26.9046 20.0429C26.897 19.9707 26.897 19.9062 26.897 19.8455L26.9046 18.0807C26.9046 17.6518 26.768 17.333 26.4833 17.1204C26.4416 17.0787 26.4036 17.0445 26.3619 17.0142C26.2632 16.9383 26.1569 16.8889 26.0469 16.8623C25.9747 16.8434 25.9026 16.8358 25.8229 16.8396C25.804 16.8396 25.7888 16.8396 25.7698 16.8396C25.7508 16.8396 25.7318 16.8396 25.7167 16.8472" fill="#E5E5E5"/>
<path d="M25.7507 16.4905C25.6824 16.5018 25.6103 16.517 25.5382 16.536L24.9499 16.7068V17.056L25.5344 16.8852C25.5951 16.8662 25.6521 16.8548 25.7052 16.8472C25.7242 16.8472 25.7431 16.8434 25.7583 16.8396C25.7773 16.8396 25.7925 16.8396 25.8115 16.8396C25.8874 16.8396 25.9633 16.8434 26.0354 16.8624C26.1454 16.889 26.2517 16.9383 26.3504 17.0142C26.3921 17.0446 26.4339 17.0825 26.4718 17.1205C26.7565 17.333 26.8931 17.6518 26.8931 18.0807L26.8855 19.8456C26.8855 19.9063 26.8855 19.9708 26.8931 20.0429L26.84 20.1226L26.8931 20.1758C26.8704 20.6008 26.7299 20.9842 26.4643 21.3409C26.2441 21.6559 25.9822 21.8761 25.6862 22.0013C25.6331 22.0127 25.5723 22.0279 25.5116 22.0469L24.9233 22.2177V22.5668L25.5116 22.3922C25.5648 22.3771 25.6217 22.3619 25.6748 22.3543H25.6862L25.7014 22.3429C26.0771 22.1949 26.3997 21.9216 26.6692 21.5307C26.9956 21.098 27.174 20.6084 27.193 20.0809L27.2082 20.0619L27.1968 19.9898V19.9442L27.1892 19.9366C27.1892 19.8797 27.1816 19.8152 27.1816 19.7507L27.1892 17.9858C27.1892 17.4583 27.0184 17.056 26.6806 16.8055C26.4187 16.5436 26.1037 16.4335 25.7393 16.4867" fill="#1F1C1D"/>
<path d="M30.2254 31.8732C30.1685 31.8808 30.1116 31.8922 30.0508 31.9111L28.5365 32.3552C28.1304 32.4729 27.8078 32.7309 27.5535 33.137C27.2916 33.5204 27.1626 33.9151 27.1626 34.3516L27.155 36.2341C27.1512 36.6629 27.2916 36.978 27.5763 37.1905C27.8002 37.4144 28.0469 37.5017 28.3353 37.4638C28.3505 37.4638 28.3657 37.46 28.3809 37.4562C28.4264 37.4486 28.472 37.4372 28.5175 37.422L30.0357 36.978C30.4342 36.8641 30.753 36.6098 31.0149 36.1961C31.2805 35.8128 31.4058 35.4219 31.4058 34.9854L31.4134 33.1029C31.4134 32.674 31.2768 32.359 30.9921 32.1427L30.9807 32.1313C30.8858 32.0364 30.7871 31.9681 30.6809 31.9225C30.5746 31.877 30.4569 31.858 30.3355 31.8618C30.3013 31.8618 30.2634 31.8656 30.2292 31.8694" fill="#E5E5E5"/>
<path d="M27.1551 36.2303L27.1627 34.3478C27.1627 33.9151 27.2917 33.5204 27.5536 33.1332C27.8079 32.7271 28.1305 32.469 28.5366 32.3514L30.0509 31.9073C30.1117 31.8884 30.1686 31.877 30.2255 31.8694C30.2635 31.8656 30.2976 31.8618 30.3318 31.8618C30.457 31.858 30.5709 31.877 30.6772 31.9225C30.7834 31.9681 30.8859 32.0364 30.977 32.1313L30.9884 32.1426C31.273 32.359 31.4097 32.674 31.4097 33.1029L31.4021 34.9854C31.4021 35.4218 31.2768 35.8128 31.0112 36.1961C30.7493 36.606 30.4305 36.8603 30.032 36.9779L28.5138 37.422C28.4683 37.4372 28.4227 37.4486 28.3772 37.4562C28.362 37.4562 28.3468 37.46 28.3316 37.4637C28.0394 37.5055 27.7927 37.4182 27.5726 37.1905C27.2879 36.9741 27.1475 36.6591 27.1513 36.234M30.2673 31.5126C30.199 31.524 30.1268 31.5392 30.0547 31.5582L28.5366 32.0022C28.0508 32.1464 27.6409 32.469 27.3372 32.9586C27.0222 33.4179 26.8628 33.9113 26.859 34.435L26.8514 36.3175C26.8514 36.8413 27.0222 37.2436 27.36 37.4941C27.6181 37.7598 27.9331 37.8661 28.2975 37.8167C28.3658 37.8053 28.4379 37.7902 28.5138 37.7712L30.0282 37.3271C30.5102 37.1867 30.9163 36.8641 31.2275 36.3745C31.5463 35.919 31.7019 35.4256 31.7057 34.8981L31.7133 33.0156C31.7133 32.4918 31.5425 32.0933 31.2009 31.8238C30.939 31.5657 30.624 31.4595 30.2635 31.5088" fill="#1F1C1D"/>
<path d="M40.5982 27.8918C40.5375 28.0208 40.4616 28.1461 40.3781 28.2675C40.0707 28.7533 39.6684 29.0759 39.1826 29.2164L37.6606 29.6604C37.2887 29.7667 36.9851 30.0096 36.7232 30.3816C36.4309 30.7763 36.2867 31.1862 36.2867 31.6568L36.2791 33.4254C36.2791 33.5583 36.2677 33.6911 36.2487 33.8088L36.2563 33.8353L36.2336 33.9074C36.1842 34.3022 36.0324 34.6855 35.7819 35.0461C35.4745 35.5319 35.0722 35.8545 34.5864 35.9987L33.0682 36.4428C32.6925 36.5528 32.3851 36.7843 32.1308 37.1601C31.8347 37.5548 31.6943 37.9723 31.6943 38.4391L31.6867 40.2078C31.6867 40.3254 31.6791 40.4317 31.6601 40.5342C31.6336 40.982 31.478 41.4223 31.1971 41.8284C30.8897 42.318 30.4798 42.6406 29.9978 42.7848L28.4758 43.2289C28.1039 43.3351 27.7965 43.5704 27.5384 43.9462C27.2461 44.3371 27.1057 44.7546 27.1057 45.2214L27.0981 46.9901C27.0981 47.5138 26.9349 48.011 26.6199 48.4627C26.3163 48.9485 25.9102 49.2711 25.4206 49.4153L24.8285 49.5899V50.3186C24.8664 50.311 24.9044 50.2958 24.9461 50.2845C25.7887 50.0378 26.6313 49.5406 27.3866 48.8156L38.1161 38.4885C39.6304 37.031 40.5679 34.8829 40.5717 32.8561L40.5906 27.8956M25.7394 9.99664C25.5306 10.027 25.3181 10.0725 25.1093 10.1333C25.0676 10.1447 25.0221 10.1598 24.9765 10.1712V11.4009L25.561 11.2301C25.6331 11.2074 25.7052 11.1922 25.7773 11.1846C25.9481 11.1618 26.1075 11.1694 26.2555 11.2149C26.3922 11.2567 26.5212 11.3288 26.6389 11.4313C26.6654 11.4541 26.6882 11.4768 26.7148 11.4996C27.0526 11.7539 27.2234 12.1562 27.2234 12.6838L27.2158 14.4486C27.2158 14.923 27.3372 15.2608 27.5953 15.4847C27.6181 15.5037 27.6447 15.5227 27.6674 15.5417C27.7661 15.61 27.8686 15.6593 27.9862 15.6821C28.0659 15.7011 28.1494 15.7049 28.2405 15.7011C28.2747 15.7011 28.3126 15.6973 28.3506 15.6897C28.3696 15.6897 28.3885 15.6859 28.4075 15.6821C28.4645 15.6707 28.5214 15.6593 28.5783 15.6403L30.0965 15.1963C30.1496 15.1811 30.2027 15.1697 30.2559 15.1583C30.2748 15.1583 30.29 15.1507 30.309 15.1507C30.3659 15.1432 30.4229 15.1394 30.476 15.1394C30.5747 15.1394 30.6696 15.1507 30.7606 15.1773C30.9428 15.2267 31.106 15.3253 31.254 15.4734C31.5653 15.7087 31.7399 16.0692 31.7588 16.5398V16.6271C31.7664 16.6841 31.774 16.7752 31.774 16.8738L31.7664 18.6425C31.7664 19.1169 31.8879 19.4547 32.146 19.6786C32.3509 19.8608 32.609 19.9291 32.9126 19.8874C32.9316 19.8874 32.9468 19.8836 32.9658 19.8798C33.0189 19.8684 33.072 19.857 33.129 19.8418L34.6471 19.3978C34.7192 19.375 34.7913 19.3598 34.8634 19.3522C34.9431 19.3408 35.0191 19.337 35.095 19.3408C35.1709 19.3446 35.243 19.356 35.3113 19.375C35.3227 19.375 35.3303 19.3788 35.3417 19.3826C35.4707 19.4205 35.5922 19.4888 35.706 19.5799C35.7402 19.6065 35.7705 19.6369 35.8047 19.671C36.1387 19.9253 36.3133 20.3238 36.3133 20.8514L36.3057 22.6162C36.3057 23.1817 36.1235 23.7093 35.7743 24.1723C35.4745 24.6164 35.0836 24.9162 34.6281 25.0491L33.1062 25.4969C33.0189 25.5235 32.9316 25.5425 32.8481 25.5538C32.8026 25.5614 32.757 25.5652 32.7115 25.5652C32.4002 25.5804 32.1346 25.4893 31.9106 25.2958C31.5994 25.0225 31.4438 24.6012 31.4438 24.0357L31.4514 22.2671C31.4514 21.8382 31.3148 21.5232 31.0301 21.3068C30.8328 21.1133 30.6202 21.0222 30.3735 21.0298C30.3394 21.0298 30.3014 21.0336 30.2673 21.0374C30.2521 21.0374 30.2407 21.0412 30.2255 21.0449C30.1989 21.0487 30.1686 21.0563 30.142 21.0639C30.1268 21.0677 30.1116 21.0715 30.0927 21.0753L28.5707 21.5194C28.1684 21.637 27.8496 21.8913 27.5877 22.2974C27.3296 22.677 27.1968 23.0831 27.1968 23.5119L27.1892 25.2806C27.1892 25.3868 27.1816 25.4893 27.1702 25.5918C27.1702 25.6184 27.1626 25.6601 27.1551 25.6981C27.1095 26.0966 26.9577 26.4951 26.7034 26.8595C26.3884 27.3491 25.9861 27.6717 25.5003 27.8159L24.912 27.9867L24.893 33.0573L25.5041 32.8789C25.8722 32.7726 26.1834 32.5373 26.4415 32.1616C26.7338 31.7707 26.8742 31.357 26.8742 30.8901L26.8818 29.1215C26.8818 28.7571 26.9577 28.4042 27.1133 28.0778C27.1323 28.0322 27.1513 27.9943 27.1702 27.9563C27.193 27.907 27.2234 27.8576 27.2461 27.8159C27.2841 27.759 27.3183 27.6982 27.36 27.6413C27.3904 27.592 27.4283 27.535 27.4625 27.4933L27.508 27.4326C27.5346 27.3908 27.5687 27.3491 27.6105 27.3073C27.88 26.9885 28.2064 26.7684 28.5745 26.6583L30.0965 26.2142C30.142 26.1991 30.1875 26.1877 30.2293 26.1801C30.2521 26.1763 30.2748 26.1725 30.2938 26.1687C30.3166 26.1649 30.3356 26.1611 30.3583 26.1573C30.5405 26.1307 30.7113 26.1421 30.8669 26.1839C31.0225 26.2256 31.163 26.3015 31.2882 26.4116C31.5994 26.6849 31.755 27.1099 31.755 27.6717L31.7474 29.4403C31.7474 29.8692 31.8841 30.1842 32.1725 30.4005C32.1877 30.4157 32.1991 30.4271 32.2143 30.4423C32.2712 30.4916 32.3281 30.5372 32.3889 30.5713C32.5559 30.6662 32.7342 30.6966 32.9354 30.67C32.9506 30.67 32.962 30.6662 32.9771 30.6624C33.0189 30.6548 33.0644 30.6434 33.11 30.632L34.6281 30.188C35.0304 30.0703 35.353 29.8122 35.6073 29.4099C35.873 29.0266 35.9983 28.6319 35.9983 28.1992L36.0058 26.4306C36.0058 25.8651 36.188 25.3413 36.5372 24.8745C36.8446 24.4266 37.2355 24.1306 37.6834 23.9977L39.2053 23.5537C39.2737 23.5347 39.342 23.5157 39.4065 23.5043C39.4293 23.5006 39.4482 23.4968 39.471 23.493C39.8392 23.4398 40.1504 23.5271 40.4009 23.751C40.4844 23.8232 40.5565 23.9067 40.6172 24.0015L40.6362 18.4186C40.6362 16.3994 39.7177 14.8092 38.2147 14.2361L27.5346 10.1636C26.9729 9.95109 26.3618 9.89416 25.7394 9.98146" fill="#E5E5E5"/>
<path d="M39.4672 23.5082C39.4444 23.5082 39.4254 23.5158 39.4027 23.5196C39.3382 23.531 39.2698 23.5462 39.2015 23.5689L37.6796 24.013C37.2317 24.1458 36.8446 24.4419 36.5334 24.8897C36.1842 25.3604 36.002 25.8841 36.002 26.4458L35.9944 28.2145C35.9944 28.6471 35.8692 29.0419 35.6035 29.4252C35.3492 29.8275 35.0266 30.0856 34.6243 30.2032L33.1062 30.6473C33.0606 30.6587 33.0151 30.6701 32.9733 30.6777C32.9581 30.6777 32.943 30.6815 32.9316 30.6853C32.7304 30.7118 32.5482 30.6815 32.385 30.5866C32.3243 30.5524 32.2674 30.5107 32.2105 30.4575C32.1953 30.4461 32.1839 30.431 32.1687 30.4158C31.8841 30.1994 31.7436 29.8844 31.7436 29.4556L31.7512 27.6869C31.7512 27.1252 31.5994 26.7001 31.2844 26.4268C31.1591 26.3168 31.0187 26.2409 30.8631 26.1991C30.7075 26.1574 30.5367 26.146 30.3545 26.1726C30.3318 26.1726 30.3128 26.1802 30.29 26.1839C30.2672 26.1877 30.2483 26.1915 30.2255 26.1953C30.1799 26.2067 30.1382 26.2181 30.0926 26.2295L28.5707 26.6735C28.2025 26.7798 27.8761 27 27.6067 27.3226C27.5649 27.3643 27.5308 27.4099 27.5042 27.4478L27.4587 27.5085C27.4207 27.5541 27.3865 27.6072 27.3562 27.6566C27.3182 27.7097 27.2803 27.7704 27.2423 27.8311C27.2195 27.8729 27.1892 27.9222 27.1664 27.9716C27.1474 28.0057 27.1285 28.0475 27.1095 28.093C26.9577 28.4194 26.8818 28.7724 26.878 29.1367L26.8704 30.9054C26.8704 31.3722 26.7299 31.7859 26.4377 32.1768C26.1796 32.5526 25.8684 32.7841 25.5002 32.8942L24.8892 33.0725V33.4217L25.4965 33.2433C25.9481 33.1105 26.3314 32.8182 26.6427 32.3666C26.9918 31.8998 27.1702 31.3798 27.174 30.8143L27.1816 29.0457C27.1816 28.742 27.2423 28.4688 27.3714 28.1955L27.4169 28.093C27.4359 28.0551 27.4549 28.0171 27.4776 27.983C27.5042 27.9336 27.5346 27.8881 27.5725 27.8311L27.6484 27.7211L27.7054 27.6452C27.7319 27.6072 27.7471 27.5844 27.7813 27.5541C28.0052 27.2846 28.2709 27.1062 28.5707 27.0227L30.0926 26.5749C30.1685 26.5521 30.2407 26.5369 30.309 26.5293C30.6126 26.4876 30.8631 26.5559 31.0718 26.7381C31.3299 26.962 31.4514 27.2998 31.4514 27.7742L31.4438 29.5428C31.4438 30.0666 31.6146 30.4689 31.9524 30.727C32.2105 30.9889 32.5255 31.0914 32.8898 31.042C32.9581 31.0306 33.0303 31.0154 33.1062 30.9965L34.6243 30.5524C35.1101 30.4082 35.5162 30.0894 35.8198 29.6036C36.1387 29.1443 36.2943 28.6471 36.2981 28.1272L36.3057 26.3585C36.3057 25.8917 36.4499 25.4742 36.7421 25.0833C37.0002 24.7076 37.3038 24.4722 37.6796 24.3622L39.2015 23.9181C39.2774 23.8953 39.3495 23.8802 39.4217 23.8726C39.7253 23.8308 39.9758 23.8991 40.1807 24.0813C40.3098 24.1952 40.4047 24.3356 40.4692 24.5064C40.5337 24.6772 40.5641 24.8821 40.5641 25.1174L40.5565 26.8861C40.5565 27.1062 40.5223 27.3112 40.4578 27.5123C40.3933 27.7135 40.2946 27.9032 40.1617 28.093C39.9075 28.4991 39.5849 28.7534 39.1863 28.8711L37.6644 29.3189C37.2203 29.448 36.8294 29.7478 36.5182 30.1994C36.169 30.6663 35.9868 31.19 35.9868 31.7555L35.9793 33.5204C35.9793 33.6532 35.9679 33.7747 35.9451 33.8885L35.9337 33.9531V33.9607C35.8958 34.2757 35.7743 34.5793 35.5656 34.8791C35.3075 35.289 34.9887 35.5395 34.5864 35.661L33.0682 36.105C32.6166 36.2379 32.2256 36.5377 31.922 36.9818C31.5728 37.4524 31.3945 37.9762 31.3945 38.5379L31.3869 40.3065C31.3869 40.4014 31.3793 40.4887 31.3641 40.5836C31.3413 40.9631 31.2123 41.3237 30.9808 41.6615C30.7265 42.0676 30.4039 42.3218 30.0016 42.4433L28.4834 42.8874C28.0318 43.0202 27.6484 43.3162 27.3372 43.7641C26.988 44.2309 26.8134 44.7547 26.8096 45.3202L26.8021 47.0888C26.8021 47.5215 26.673 47.9162 26.4111 48.2995C26.1568 48.7057 25.8342 48.9599 25.4281 49.0776L24.8361 49.2522V49.6052L25.4281 49.4306C25.9177 49.2863 26.3238 48.9637 26.6275 48.4779C26.9425 48.0225 27.1019 47.5291 27.1057 47.0053L27.1133 45.2367C27.1133 44.7699 27.2537 44.3524 27.546 43.9614C27.804 43.5857 28.1115 43.3504 28.4834 43.2441L30.0053 42.8001C30.4874 42.6558 30.8973 42.3332 31.2047 41.8436C31.4855 41.4375 31.6449 40.9935 31.6677 40.5494C31.6867 40.4469 31.6905 40.3407 31.6943 40.223L31.7019 38.4544C31.7019 37.9875 31.8423 37.57 32.1383 37.1753C32.3926 36.7996 32.7001 36.5681 33.0758 36.458L34.5939 36.0139C35.0798 35.8697 35.4821 35.5471 35.7895 35.0613C36.04 34.7007 36.1918 34.3174 36.2411 33.9227L36.2639 33.8506L36.2563 33.824C36.2791 33.7026 36.2867 33.5735 36.2867 33.4407L36.2943 31.672C36.2943 31.2014 36.4385 30.7915 36.7307 30.3968C36.9926 30.0211 37.2962 29.782 37.6682 29.6757L39.1901 29.2316C39.6759 29.0912 40.0783 28.7686 40.3857 28.2828C40.4692 28.1613 40.5413 28.0361 40.6058 27.907L40.6134 25.5501V24.0282C40.5565 23.9333 40.4881 23.8498 40.4047 23.7777C40.158 23.5538 39.8429 23.4665 39.4748 23.5196M25.7735 11.1847C25.7052 11.196 25.6331 11.2112 25.5572 11.2302L24.9689 11.401V11.7502L25.5534 11.5794C25.6141 11.5604 25.671 11.549 25.728 11.5414C26.0202 11.4997 26.2745 11.587 26.4946 11.8109C26.7793 12.031 26.9159 12.346 26.9159 12.7711L26.9083 14.5398C26.9083 15.1015 27.0639 15.5266 27.379 15.7998C27.6332 16.02 27.9483 16.1035 28.3126 16.0541C28.3961 16.0427 28.4834 16.0238 28.5707 15.9972L30.0888 15.5531C30.1458 15.5341 30.2065 15.5228 30.2596 15.5152C30.5519 15.4734 30.8062 15.5645 31.0301 15.7884C31.3072 15.9972 31.4438 16.297 31.4438 16.7031V16.7752L31.4552 16.7828C31.4628 16.8398 31.4628 16.9043 31.4628 16.965L31.4552 18.7336C31.4552 19.2954 31.6108 19.7204 31.922 19.9937C32.1763 20.2138 32.4913 20.3011 32.8595 20.248C32.943 20.2366 33.0265 20.2176 33.1175 20.1911L34.6395 19.747C34.704 19.728 34.7647 19.7128 34.8217 19.7053C35.1139 19.6635 35.3568 19.7508 35.5769 19.9747C35.8616 20.1949 35.9982 20.5061 35.9982 20.935L35.9906 22.6998C35.9906 23.1704 35.8502 23.5841 35.558 23.9788C35.3037 24.3546 34.9963 24.5861 34.6205 24.6962L33.1024 25.1402C33.0227 25.163 32.9468 25.1782 32.8746 25.1896C32.571 25.2313 32.3243 25.163 32.1194 24.9808C31.8613 24.7569 31.736 24.4191 31.7398 23.9447L31.7474 22.176C31.7474 21.6561 31.5766 21.25 31.2388 20.9919C30.9808 20.7338 30.6619 20.6275 30.2976 20.6769C30.2293 20.6883 30.1572 20.7034 30.0851 20.7224L28.5669 21.1665C28.0773 21.3107 27.675 21.6333 27.3638 22.1191C27.045 22.5783 26.8894 23.0755 26.8856 23.5917L26.878 25.3604C26.878 25.4439 26.8704 25.5349 26.8628 25.626C26.8628 25.6526 26.8552 25.6792 26.8476 25.7209C26.8096 26.0587 26.6882 26.3699 26.4757 26.6811C26.2138 27.091 25.895 27.3453 25.4927 27.463L24.9044 27.6338V27.9867L25.4927 27.816C25.9747 27.6717 26.3808 27.3491 26.6958 26.8595C26.9501 26.4914 27.1019 26.0929 27.1474 25.6981C27.155 25.6564 27.1588 25.6184 27.1626 25.5919C27.174 25.4894 27.1816 25.3869 27.1816 25.2807L27.1892 23.512C27.1892 23.0869 27.322 22.6808 27.5801 22.2975C27.842 21.8914 28.1608 21.6371 28.5631 21.5194L30.0851 21.0754C30.0851 21.0754 30.1154 21.0678 30.1344 21.064C30.161 21.0564 30.1913 21.0526 30.2179 21.045C30.2331 21.045 30.2483 21.0412 30.2596 21.0374C30.2976 21.0336 30.3318 21.0298 30.3659 21.0298C30.6126 21.0222 30.8289 21.1133 31.0225 21.3069C31.3072 21.527 31.4438 21.8383 31.4438 22.2671L31.4362 24.0358C31.4362 24.6013 31.5918 25.0226 31.903 25.2958C32.1232 25.4894 32.3926 25.5805 32.7039 25.5653C32.7494 25.5653 32.7949 25.5577 32.8405 25.5539C32.924 25.5425 33.0113 25.5236 33.0986 25.497L34.6205 25.0491C35.0722 24.9163 35.4631 24.6203 35.7667 24.1724C36.1159 23.7056 36.2981 23.178 36.2981 22.6163L36.3057 20.8515C36.3057 20.3239 36.1311 19.9254 35.7971 19.6711C35.7667 19.6407 35.7326 19.6104 35.6984 19.58C35.5845 19.4889 35.4669 19.4206 35.334 19.3826C35.3227 19.3826 35.3151 19.3751 35.3037 19.3751C35.2354 19.3561 35.1632 19.3447 35.0873 19.3409C35.0114 19.3371 34.9355 19.3409 34.8558 19.3523C34.7875 19.3637 34.7154 19.3789 34.6395 19.3978L33.1213 19.8419C33.0644 19.8571 33.0113 19.8723 32.9581 19.8798C32.9392 19.8798 32.924 19.8874 32.905 19.8874C32.6014 19.9292 32.3433 19.8609 32.1383 19.6787C31.8803 19.4548 31.755 19.117 31.7588 18.6426L31.7664 16.8739C31.7664 16.7752 31.7588 16.6841 31.7512 16.6272V16.5361H31.7436C31.7246 16.0617 31.5501 15.7049 31.2388 15.4696C31.0908 15.3216 30.9276 15.2229 30.7454 15.1736C30.6544 15.147 30.5595 15.1356 30.4608 15.1356C30.4077 15.1356 30.3507 15.1394 30.2938 15.147C30.2786 15.147 30.2596 15.1508 30.2407 15.1546C30.1875 15.1622 30.1344 15.1774 30.0813 15.1926L28.5631 15.6366C28.5024 15.6556 28.4455 15.667 28.3923 15.6784C28.3733 15.6784 28.3544 15.686 28.3354 15.686C28.2974 15.6898 28.2633 15.6936 28.2253 15.6973C28.1342 15.7011 28.0507 15.6973 27.971 15.6784C27.8572 15.6518 27.7509 15.6063 27.6522 15.5379C27.6294 15.519 27.6029 15.5 27.5801 15.481C27.322 15.2571 27.1968 14.9193 27.2006 14.4449L27.2082 12.68C27.2082 12.1525 27.0374 11.7502 26.6996 11.4959C26.6768 11.4693 26.6502 11.4465 26.6237 11.4276C26.506 11.3251 26.377 11.253 26.2403 11.2112C26.0923 11.1657 25.9329 11.1543 25.7621 11.1809" fill="#1F1C1D"/>
</g>
</g>
</g>
<defs>
<clipPath id="clip0_1_7502">
<rect width="48" height="56.0727" fill="white" transform="translate(0.800049 0.963623)"/>
</clipPath>
</defs>
</svg>
