<svg width="96" height="72" viewBox="0 0 96 72" fill="none" xmlns="http://www.w3.org/2000/svg">
<path d="M25.25 0H21.2888C20.0034 0 18.9541 1.00955 18.9541 2.24625V33.7333C18.9541 34.97 17.9048 35.9795 16.6194 35.9795H2.58473C1.29932 35.9795 0.25 36.9891 0.25 38.2258V51.7538C0.25 52.9905 1.29932 54 2.58473 54H16.6194C17.9048 54 18.9541 52.9905 18.9541 51.7538V38.2258C18.9541 36.9891 20.0034 35.9795 21.2888 35.9795H25.25V0Z" fill="#1482FF"/>
<rect width="64" height="36" transform="translate(25.25)" fill="#1482FF"/>
<path d="M31.7898 17.5568V18.8068H26.6989V17.5568H31.7898ZM38.2173 12.3636V24H36.8082V13.8409H36.7401L33.8991 15.7273V14.2955L36.8082 12.3636H38.2173ZM45.3594 24.1591C44.5033 24.1591 43.7741 23.9261 43.1719 23.4602C42.5696 22.9905 42.1094 22.3106 41.7912 21.4205C41.473 20.5265 41.3139 19.447 41.3139 18.1818C41.3139 16.9242 41.473 15.8504 41.7912 14.9602C42.1132 14.0663 42.5753 13.3845 43.1776 12.9148C43.7836 12.4413 44.5109 12.2045 45.3594 12.2045C46.2079 12.2045 46.9332 12.4413 47.5355 12.9148C48.1416 13.3845 48.6037 14.0663 48.9219 14.9602C49.2438 15.8504 49.4048 16.9242 49.4048 18.1818C49.4048 19.447 49.2457 20.5265 48.9276 21.4205C48.6094 22.3106 48.1491 22.9905 47.5469 23.4602C46.9446 23.9261 46.2154 24.1591 45.3594 24.1591ZM45.3594 22.9091C46.2079 22.9091 46.867 22.5 47.3366 21.6818C47.8063 20.8636 48.0412 19.697 48.0412 18.1818C48.0412 17.1742 47.9332 16.3163 47.7173 15.608C47.5052 14.8996 47.1984 14.3598 46.7969 13.9886C46.3991 13.6174 45.92 13.4318 45.3594 13.4318C44.5185 13.4318 43.8613 13.8466 43.3878 14.6761C42.9143 15.5019 42.6776 16.6705 42.6776 18.1818C42.6776 19.1894 42.7836 20.0455 42.9957 20.75C43.2079 21.4545 43.5128 21.9905 43.9105 22.358C44.312 22.7254 44.795 22.9091 45.3594 22.9091ZM57.4957 21.8182V21.2045C57.4957 20.7803 57.5829 20.392 57.7571 20.0398C57.9351 19.6837 58.1927 19.3996 58.5298 19.1875C58.8707 18.9716 59.2836 18.8636 59.7685 18.8636C60.2609 18.8636 60.6738 18.9716 61.0071 19.1875C61.3404 19.3996 61.5923 19.6837 61.7628 20.0398C61.9332 20.392 62.0185 20.7803 62.0185 21.2045V21.8182C62.0185 22.2424 61.9313 22.6326 61.7571 22.9886C61.5866 23.3409 61.3329 23.625 60.9957 23.8409C60.6624 24.053 60.2533 24.1591 59.7685 24.1591C59.276 24.1591 58.8613 24.053 58.5241 23.8409C58.187 23.625 57.9313 23.3409 57.7571 22.9886C57.5829 22.6326 57.4957 22.2424 57.4957 21.8182ZM58.6548 21.2045V21.8182C58.6548 22.1705 58.7382 22.4867 58.9048 22.767C59.0715 23.0436 59.3594 23.1818 59.7685 23.1818C60.1662 23.1818 60.4465 23.0436 60.6094 22.767C60.776 22.4867 60.8594 22.1705 60.8594 21.8182V21.2045C60.8594 20.8523 60.7798 20.5379 60.6207 20.2614C60.4616 19.9811 60.1776 19.8409 59.7685 19.8409C59.3707 19.8409 59.0848 19.9811 58.9105 20.2614C58.7401 20.5379 58.6548 20.8523 58.6548 21.2045ZM51.7003 15.1591V14.5455C51.7003 14.1212 51.7874 13.733 51.9616 13.3807C52.1397 13.0246 52.3973 12.7405 52.7344 12.5284C53.0753 12.3125 53.4882 12.2045 53.973 12.2045C54.4654 12.2045 54.8783 12.3125 55.2116 12.5284C55.545 12.7405 55.7969 13.0246 55.9673 13.3807C56.1378 13.733 56.223 14.1212 56.223 14.5455V15.1591C56.223 15.5833 56.1359 15.9735 55.9616 16.3295C55.7912 16.6818 55.5374 16.9659 55.2003 17.1818C54.867 17.3939 54.4579 17.5 53.973 17.5C53.4806 17.5 53.0658 17.3939 52.7287 17.1818C52.3916 16.9659 52.1359 16.6818 51.9616 16.3295C51.7874 15.9735 51.7003 15.5833 51.7003 15.1591ZM52.8594 14.5455V15.1591C52.8594 15.5114 52.9427 15.8277 53.1094 16.108C53.276 16.3845 53.5639 16.5227 53.973 16.5227C54.3707 16.5227 54.651 16.3845 54.8139 16.108C54.9806 15.8277 55.0639 15.5114 55.0639 15.1591V14.5455C55.0639 14.1932 54.9844 13.8788 54.8253 13.6023C54.6662 13.322 54.3821 13.1818 53.973 13.1818C53.5753 13.1818 53.2893 13.322 53.1151 13.6023C52.9446 13.8788 52.8594 14.1932 52.8594 14.5455ZM52.1321 24L60.1321 12.3636H61.4276L53.4276 24H52.1321ZM72.6321 24.1818C71.8442 24.1818 71.1529 23.9943 70.5582 23.6193C69.9673 23.2443 69.5052 22.7197 69.1719 22.0455C68.8423 21.3712 68.6776 20.5833 68.6776 19.6818C68.6776 18.7727 68.8423 17.9792 69.1719 17.3011C69.5052 16.6231 69.9673 16.0966 70.5582 15.7216C71.1529 15.3466 71.8442 15.1591 72.6321 15.1591C73.42 15.1591 74.1094 15.3466 74.7003 15.7216C75.295 16.0966 75.7571 16.6231 76.0866 17.3011C76.42 17.9792 76.5866 18.7727 76.5866 19.6818C76.5866 20.5833 76.42 21.3712 76.0866 22.0455C75.7571 22.7197 75.295 23.2443 74.7003 23.6193C74.1094 23.9943 73.42 24.1818 72.6321 24.1818ZM72.6321 22.9773C73.2306 22.9773 73.723 22.8239 74.1094 22.517C74.4957 22.2102 74.7817 21.8068 74.9673 21.3068C75.1529 20.8068 75.2457 20.2652 75.2457 19.6818C75.2457 19.0985 75.1529 18.5549 74.9673 18.0511C74.7817 17.5473 74.4957 17.1402 74.1094 16.8295C73.723 16.5189 73.2306 16.3636 72.6321 16.3636C72.0336 16.3636 71.5412 16.5189 71.1548 16.8295C70.7685 17.1402 70.4825 17.5473 70.2969 18.0511C70.1113 18.5549 70.0185 19.0985 70.0185 19.6818C70.0185 20.2652 70.1113 20.8068 70.2969 21.3068C70.4825 21.8068 70.7685 22.2102 71.1548 22.517C71.5412 22.8239 72.0336 22.9773 72.6321 22.9773ZM82.5199 15.2727V16.4091H77.8153V15.2727H82.5199ZM79.2244 24V14.0682C79.2244 13.5682 79.3419 13.1515 79.5767 12.8182C79.8116 12.4848 80.1165 12.2348 80.4915 12.0682C80.8665 11.9015 81.2623 11.8182 81.679 11.8182C82.0085 11.8182 82.2775 11.8447 82.4858 11.8977C82.6941 11.9508 82.8494 12 82.9517 12.0455L82.5653 13.2045C82.4972 13.1818 82.4025 13.1534 82.2812 13.1193C82.1638 13.0852 82.0085 13.0682 81.8153 13.0682C81.3722 13.0682 81.0521 13.1799 80.8551 13.4034C80.6619 13.6269 80.5653 13.9545 80.5653 14.3864V24H79.2244ZM88.2855 15.2727V16.4091H83.581V15.2727H88.2855ZM84.9901 24V14.0682C84.9901 13.5682 85.1075 13.1515 85.3423 12.8182C85.5772 12.4848 85.8821 12.2348 86.2571 12.0682C86.6321 11.9015 87.0279 11.8182 87.4446 11.8182C87.7741 11.8182 88.0431 11.8447 88.2514 11.8977C88.4598 11.9508 88.6151 12 88.7173 12.0455L88.331 13.2045C88.2628 13.1818 88.1681 13.1534 88.0469 13.1193C87.9295 13.0852 87.7741 13.0682 87.581 13.0682C87.1378 13.0682 86.8177 13.1799 86.6207 13.4034C86.4276 13.6269 86.331 13.9545 86.331 14.3864V24H84.9901Z" fill="white"/>
<path d="M93.025 0H89.25V36H93.025C94.25 36 95.25 34.9901 95.25 33.7529V2.24707C95.25 1.00992 94.25 0 93.025 0Z" fill="#1482FF"/>
</svg>
