<svg width="48" height="58" viewBox="0 0 48 58" fill="none" xmlns="http://www.w3.org/2000/svg">
<g clip-path="url(#clip0_1_7478)">
<mask id="mask0_1_7478" style="mask-type:luminance" maskUnits="userSpaceOnUse" x="2" y="-2" width="42" height="62">
<path d="M2.448 59.3651L2.55345 4.32229L43.0211 -1.36841L42.9194 53.6781L2.448 59.3651Z" fill="white"/>
</mask>
<g mask="url(#mask0_1_7478)">
<mask id="mask1_1_7478" style="mask-type:luminance" maskUnits="userSpaceOnUse" x="2" y="-1" width="38" height="59">
<path d="M2.4519 57.7717L2.62138 9.94119L39.7672 -0.90918L39.5978 46.9176L2.4519 57.7717Z" fill="white"/>
</mask>
<g mask="url(#mask1_1_7478)">
<path d="M23.6214 47.2604C23.5498 47.283 23.4783 47.298 23.4105 47.3055C23.4783 47.2943 23.5498 47.2792 23.6214 47.2604ZM18.9287 43.3548C18.9287 43.3548 18.9099 43.3548 18.9024 43.3586C18.9024 43.3586 18.9212 43.3586 18.9287 43.3548ZM18.2019 43.2381C18.3902 43.3473 18.6011 43.3925 18.8308 43.3699C18.6011 43.3887 18.3902 43.3473 18.2019 43.2381ZM20.9436 42.8163C21.0943 42.8087 21.2299 42.8313 21.3504 42.884C21.2261 42.8313 21.0905 42.8087 20.9436 42.8163ZM20.8344 42.8276C20.7666 42.8389 20.6951 42.8539 20.6235 42.8728C20.6951 42.8502 20.7666 42.8351 20.8344 42.8276ZM23.5197 41.5885C23.5197 41.5885 23.4933 41.5922 23.482 41.596C23.482 41.596 23.5084 41.5922 23.5197 41.5885ZM23.6402 41.5621C23.5988 41.5734 23.5574 41.5847 23.5197 41.5922C23.5611 41.5847 23.5988 41.5772 23.6402 41.5621ZM20.8646 37.472C20.793 37.4833 20.7177 37.4984 20.6423 37.521L19.1396 37.9616C18.763 38.0746 18.4391 38.3194 18.183 38.6961C17.8855 39.0915 17.7386 39.5284 17.7386 39.9954L17.7311 41.7504C17.7311 42.1835 17.8742 42.5112 18.1604 42.7334C18.3826 42.9594 18.65 43.0498 18.9513 43.0083C19.0078 43.0008 19.0643 42.9895 19.1246 42.9707L20.6273 42.53C20.7139 42.5037 20.7968 42.4886 20.8796 42.4773C21.2374 42.4283 21.5425 42.5074 21.791 42.7259C22.0961 42.9895 22.2467 43.4 22.2467 43.9423L22.2392 45.7012C22.2392 46.138 22.3786 46.4657 22.6648 46.6841C22.887 46.9101 23.1506 47.0005 23.4519 46.9591C23.5084 46.9515 23.5649 46.9402 23.6252 46.9214L24.337 46.7143L24.3558 41.709L23.644 41.9199C23.5762 41.9387 23.5084 41.9538 23.4444 41.9651C23.0941 42.0141 22.7815 41.9086 22.5254 41.6525C22.2015 41.4077 22.0321 41.0198 22.0321 40.5076L22.0396 38.7525C22.0396 38.2818 21.9116 37.924 21.6517 37.698C21.4408 37.5172 21.1771 37.4457 20.8683 37.4871M20.9135 37.118C20.8909 37.118 20.8683 37.1256 20.8495 37.1293C20.8721 37.1256 20.8947 37.1218 20.9135 37.118ZM24.8981 5.8926C24.7475 5.92273 24.5931 5.96039 24.4424 6.00558C23.4708 6.29181 22.5028 6.86427 21.6329 7.70037L8.94082 19.9103C7.20461 21.5788 6.11994 24.0682 6.11241 26.3957C6.11994 24.0682 7.20837 21.5788 8.94082 19.9103L21.6329 7.6966C22.5028 6.86051 23.4708 6.28805 24.4424 6.00182C24.5931 5.95662 24.7475 5.91896 24.8981 5.88883M25.1731 5.8474C25.1731 5.8474 25.1429 5.85117 25.1279 5.85494C25.1429 5.85494 25.158 5.85117 25.1731 5.8474ZM21.9153 4.70625C21.9153 4.70625 21.8852 4.71002 21.8701 4.71378C21.7647 4.72885 21.6592 4.74768 21.5538 4.77027C21.4332 4.79664 21.3127 4.82677 21.1922 4.86066C20.2205 5.14689 19.2526 5.72312 18.3826 6.55921L5.6906 18.7729C3.95439 20.4414 2.8735 22.927 2.86596 25.2583L2.8057 42.2852C2.79817 44.6165 3.864 46.4732 5.59268 47.1323L7.41551 47.8253C6.36098 46.8649 5.75086 45.3245 5.75839 43.513L5.78852 34.9977L5.81865 26.3693C5.86384 23.9477 6.99747 21.3867 8.7977 19.6542L21.4822 7.4405C22.3974 6.55921 23.4218 5.95286 24.4424 5.65533C24.6985 5.58 24.9584 5.52351 25.2145 5.48962C25.2861 5.47832 25.3576 5.47079 25.4292 5.46325L23.998 4.91716C23.4105 4.69119 22.774 4.61586 22.1225 4.67989C22.0547 4.68742 21.9831 4.69495 21.9153 4.70625Z" fill="#F98673"/>
<path d="M26.4198 5.84371C26.5667 5.86631 26.7098 5.89267 26.8529 5.93033C26.7098 5.89267 26.5667 5.86254 26.4198 5.84371ZM21.9682 4.34854C21.7121 4.3862 21.456 4.43893 21.1999 4.51425C20.1755 4.81178 19.1548 5.41813 18.2396 6.29942L5.54384 18.5132C3.74361 20.2456 2.61375 22.8104 2.56856 25.2283L2.5083 42.5414C2.55349 44.9141 3.66452 46.7972 5.44216 47.4751L18.0739 52.292C18.3451 52.3937 18.6238 52.4691 18.91 52.5105L8.68861 48.6125C8.21407 48.4317 7.78472 48.1643 7.41187 47.8254L5.58904 47.1324C3.86036 46.4733 2.79453 44.6166 2.80206 42.2853L2.86232 25.2584C2.86985 22.9271 3.95452 20.4414 5.68696 18.773L18.3865 6.55929C19.2528 5.72319 20.2244 5.14697 21.1961 4.86074C21.3166 4.82684 21.4371 4.79671 21.5577 4.77035C21.6631 4.74775 21.7686 4.72892 21.874 4.71386C21.8891 4.71386 21.9041 4.71009 21.9192 4.70633C21.987 4.69503 22.0586 4.68749 22.1263 4.67996C22.7779 4.61594 23.4144 4.69503 24.0019 4.91723L25.4331 5.46333C25.821 5.42567 26.2051 5.43696 26.578 5.49346L24.1563 4.56698C23.4746 4.31088 22.7327 4.23932 21.9719 4.34477" fill="#231F20"/>
</g>
<mask id="mask2_1_7478" style="mask-type:luminance" maskUnits="userSpaceOnUse" x="5" y="0" width="39" height="59">
<path d="M5.69824 58.9093L5.86772 11.0863L43.0174 0.232178L42.8479 48.0589L5.69824 58.9093Z" fill="white"/>
</mask>
<g mask="url(#mask2_1_7478)">
<path d="M24.6836 9.29738C24.8606 9.24842 25.0376 9.21453 25.2146 9.18816C25.836 9.10154 26.4462 9.15804 27.0073 9.36894L37.6054 13.4101C39.093 13.9788 40.0044 15.5605 40.0044 17.5642L39.9781 24.7312L39.9517 31.8757C39.9442 33.8868 39.0139 36.0185 37.515 37.4609L26.868 47.7087C26.1147 48.4318 25.2787 48.9252 24.4426 49.17C24.4011 49.1813 24.3597 49.1926 24.322 49.2039L24.3296 47.0571L23.6178 47.268C23.5462 47.2906 23.4747 47.3057 23.4069 47.3132C23.4069 47.3132 23.3843 47.3132 23.373 47.317C23.0152 47.3584 22.7063 47.2492 22.4502 46.9893C22.1113 46.7332 21.9343 46.3265 21.9343 45.7879L21.9418 44.0291C21.9418 43.5847 21.8213 43.2458 21.5765 43.0273C21.5087 42.9671 21.4334 42.9219 21.3543 42.888C21.23 42.8352 21.0944 42.8126 20.9475 42.8202C20.9136 42.8202 20.876 42.824 20.8383 42.8315C20.7705 42.8428 20.699 42.8578 20.6274 42.8767L19.1247 43.3173C19.087 43.3286 19.0494 43.3399 19.0117 43.3474C18.9854 43.355 18.9552 43.3587 18.9289 43.3625C18.9213 43.3625 18.91 43.3625 18.9025 43.3663C18.8799 43.3663 18.8573 43.3738 18.8347 43.3738C18.605 43.3926 18.3941 43.3512 18.2058 43.242C18.1267 43.1968 18.0476 43.1365 17.976 43.0688C17.9685 43.0612 17.961 43.0537 17.9497 43.0424C17.6107 42.7825 17.4337 42.3758 17.4375 41.841L17.445 40.0859C17.445 39.5172 17.6295 38.9862 17.9836 38.5079C18.2999 38.0522 18.6916 37.7509 19.1511 37.6191L20.6538 37.1784C20.7216 37.1596 20.7894 37.1408 20.8572 37.1295C20.8798 37.1257 20.9023 37.1219 20.9212 37.1182C21.0153 37.1069 21.1057 37.0993 21.1886 37.1031C21.3957 37.1144 21.5803 37.1747 21.746 37.2839C21.7874 37.3103 21.8288 37.3442 21.8665 37.378C22.1828 37.6567 22.341 38.0823 22.341 38.651L22.3335 40.4061C22.3335 40.8166 22.4691 41.1292 22.7365 41.3363C22.8005 41.4003 22.8683 41.4493 22.9361 41.4907C22.985 41.5208 23.034 41.5434 23.0867 41.5623C23.211 41.6037 23.3428 41.615 23.4859 41.5962C23.4972 41.5962 23.5123 41.5924 23.5236 41.5886C23.565 41.5811 23.6027 41.5736 23.6441 41.5585L24.3559 41.3514V40.6546L24.3597 40.1688L24.4689 9.35764L24.6874 9.29362M25.1732 5.84756C25.1732 5.84756 25.1431 5.85133 25.128 5.85509C25.0527 5.86639 24.9774 5.87769 24.902 5.89276C24.7514 5.92288 24.597 5.96055 24.4463 6.00574C23.4747 6.29197 22.5067 6.86443 21.6368 7.70052L8.94095 19.9105C7.20474 21.5789 6.12008 24.0684 6.11254 26.3959L6.05229 43.4228C6.04475 45.754 7.11435 47.6108 8.84303 48.2698L21.471 53.083C21.5012 53.0943 21.5313 53.1056 21.5614 53.1169C22.1038 53.309 22.6838 53.3768 23.2788 53.3278C23.3692 53.3203 23.4596 53.309 23.55 53.2977C23.5801 53.2939 23.6102 53.2902 23.6404 53.2826C23.8513 53.2487 24.0659 53.1998 24.2768 53.1395C25.2485 52.8533 26.2202 52.2808 27.0864 51.4447L39.7785 39.231C41.5147 37.5626 42.5993 35.0731 42.6069 32.7456L42.6671 15.7187C42.6747 13.3875 41.6051 11.5307 39.8764 10.8716L27.2484 6.05847C27.1693 6.02834 27.0864 5.99821 27.0036 5.97561C26.9546 5.96055 26.9056 5.94548 26.8567 5.93418C26.7136 5.89652 26.5705 5.86639 26.4236 5.84756C26.0394 5.79107 25.644 5.79107 25.241 5.84003C25.2184 5.84003 25.1958 5.84756 25.1732 5.84756Z" fill="white"/>
<path d="M20.9136 37.1182C20.891 37.1182 20.8684 37.1258 20.8496 37.1295C20.7818 37.1408 20.714 37.1559 20.6462 37.1785L19.1435 37.6191C18.684 37.7509 18.2923 38.056 17.976 38.5079C17.622 38.9825 17.4412 39.5135 17.4374 40.086L17.4299 41.841C17.4299 42.3758 17.6031 42.7826 17.9421 43.0424C17.9496 43.05 17.9571 43.0575 17.9684 43.0688C18.04 43.1404 18.1191 43.1968 18.1982 43.242C18.3865 43.3513 18.5974 43.3965 18.8271 43.3739C18.8497 43.3739 18.8723 43.3701 18.8949 43.3663C18.9025 43.3663 18.9138 43.3663 18.9213 43.3626C18.9476 43.3588 18.9778 43.355 19.0041 43.3475C19.0418 43.34 19.0795 43.3287 19.1171 43.3174L20.6198 42.8767C20.6914 42.8541 20.7629 42.8391 20.8307 42.8315C20.8684 42.8278 20.9023 42.824 20.94 42.8202C21.0906 42.8127 21.2262 42.8353 21.3467 42.888C21.4258 42.9219 21.5011 42.9671 21.5689 43.0274C21.8175 43.242 21.9342 43.581 21.9342 44.0292L21.9267 45.788C21.9267 46.3265 22.1037 46.7333 22.4427 46.9894C22.6988 47.2493 23.0076 47.3585 23.3654 47.3171C23.3767 47.3171 23.388 47.3171 23.3993 47.3133C23.4671 47.302 23.5386 47.2869 23.6102 47.2681L24.322 47.0572V46.7107L23.6102 46.9178C23.5499 46.9329 23.4934 46.948 23.4369 46.9555C23.1356 46.9969 22.872 46.9103 22.6498 46.6806C22.3636 46.4621 22.2242 46.1345 22.2242 45.6976L22.2318 43.9388C22.2318 43.3965 22.0811 42.9859 21.7761 42.7223C21.5312 42.5039 21.2262 42.421 20.8646 42.4737C20.7855 42.485 20.6989 42.5039 20.6123 42.5265L19.1096 42.9671C19.0493 42.9822 18.9928 42.9972 18.9363 43.0048C18.6351 43.0462 18.3714 42.9596 18.1455 42.7298C17.8592 42.5114 17.7161 42.18 17.7161 41.7469L17.7236 39.9918C17.7236 39.5248 17.8743 39.0879 18.168 38.6925C18.4241 38.3196 18.748 38.0711 19.1247 37.9581L20.6274 37.5174C20.7027 37.4948 20.778 37.4798 20.8496 37.4685C21.1584 37.4233 21.422 37.4948 21.6329 37.6794C21.8928 37.9054 22.0209 38.2631 22.0209 38.7339L22.0133 40.489C22.0133 41.0012 22.179 41.3891 22.5067 41.6339C22.7628 41.89 23.0754 41.9954 23.4256 41.9465C23.4897 41.9389 23.5575 41.9239 23.6252 41.9013L24.3371 41.6904V41.3439L23.6252 41.551C23.5838 41.5623 23.5424 41.5736 23.5047 41.5812C23.4897 41.5812 23.4784 41.5849 23.4671 41.5887C23.324 41.6075 23.1921 41.5962 23.0679 41.5548C23.0151 41.536 22.9662 41.5134 22.9172 41.4832C22.8494 41.4418 22.7816 41.3928 22.7176 41.3288C22.4502 41.1217 22.3146 40.8091 22.3146 40.3986L22.3221 38.6435C22.3221 38.0748 22.164 37.6455 21.8476 37.3706C21.8099 37.3367 21.7685 37.3065 21.7271 37.2764C21.5614 37.1672 21.3768 37.1069 21.1697 37.0956C21.0831 37.0919 20.9927 37.0956 20.9023 37.1107M25.1242 5.85137C25.1242 5.85137 25.1543 5.84761 25.1694 5.84384C25.192 5.84384 25.2146 5.83631 25.2372 5.83631C25.6402 5.78735 26.0356 5.78735 26.4198 5.84384C26.5666 5.86644 26.7098 5.8928 26.8529 5.93046C26.9018 5.94176 26.9508 5.95683 26.9997 5.97189C27.0826 5.99826 27.1655 6.02462 27.2445 6.05475L39.8726 10.8679C41.6012 11.527 42.6708 13.38 42.6633 15.715L42.603 32.7419C42.5955 35.0694 41.5071 37.5589 39.7746 39.2273L27.0826 51.441C26.2164 52.2771 25.2447 52.8496 24.273 53.1358C24.0584 53.1961 23.8475 53.245 23.6365 53.2789C23.6064 53.2827 23.5763 53.2865 23.5462 53.294C23.4558 53.3053 23.3654 53.3166 23.275 53.3241C22.6799 53.3731 22.0999 53.3053 21.5576 53.1132C21.5275 53.1019 21.4974 53.0906 21.4672 53.0793L8.83921 48.2661C7.11053 47.607 6.04094 45.7541 6.04847 43.4191L6.10873 26.3921C6.11626 24.0646 7.20469 21.5752 8.93713 19.9068L21.6329 7.6968C22.5029 6.86071 23.4708 6.28825 24.4425 6.00202C24.5932 5.95683 24.7476 5.91917 24.8982 5.88904C24.9735 5.87397 25.0489 5.86267 25.1242 5.85137ZM25.2146 5.48982C24.9585 5.52748 24.7024 5.58021 24.4425 5.65553C23.4181 5.95306 22.3975 6.55942 21.4823 7.4407L8.79402 19.6507C6.99378 21.3831 5.86016 23.9441 5.81497 26.3658L5.78484 34.9941L5.75471 43.5094C5.74718 45.321 6.3573 46.8613 7.41183 47.8217C7.78468 48.1607 8.21403 48.4281 8.68856 48.6089L18.91 52.5069L21.3203 53.4258C22.002 53.6819 22.744 53.7535 23.5047 53.648C23.7608 53.6103 24.0169 53.5576 24.2768 53.4823C25.3012 53.1848 26.3218 52.5784 27.237 51.6971L39.9253 39.4872C41.7255 37.7547 42.8591 35.1899 42.9043 32.7721L42.9345 24.1437L42.9646 15.6284C42.9759 13.1728 41.8498 11.2182 40.0307 10.5252L27.4027 5.70826C27.1353 5.60657 26.8604 5.53501 26.5779 5.48982C26.2051 5.43333 25.8247 5.42203 25.433 5.45969C25.3615 5.46722 25.2899 5.47476 25.2183 5.48605" fill="#231F20"/>
</g>
<mask id="mask3_1_7478" style="mask-type:luminance" maskUnits="userSpaceOnUse" x="24" y="4" width="17" height="46">
<path d="M24.3259 49.2037L24.4653 9.36128L40.0497 4.8042L39.9104 44.6466L24.3259 49.2037Z" fill="white"/>
</mask>
<g mask="url(#mask3_1_7478)">
<path d="M29.9034 34.832C29.8319 34.8433 29.7603 34.8584 29.685 34.881L28.1785 35.3217C27.8019 35.4346 27.4818 35.6794 27.2219 36.0561C26.9244 36.4515 26.7813 36.8846 26.7775 37.3554L26.77 39.1104C26.77 39.6189 26.6118 40.1009 26.3067 40.5416C26.0054 41.0161 25.6138 41.3325 25.1467 41.4681L24.3521 41.7016L24.3333 46.7068L25.1279 46.4733C25.5309 46.3528 25.8661 46.0854 26.126 45.6787C26.3971 45.287 26.5252 44.884 26.5252 44.4396L26.5327 42.6808C26.5327 42.1384 26.7097 41.6338 27.0487 41.1743C27.35 40.7374 27.7266 40.4512 28.1597 40.3231L29.6662 39.8787C30.0691 39.762 30.4043 39.4946 30.668 39.0878C30.9316 38.7037 31.0634 38.2856 31.0672 37.8488L31.0747 36.0937C31.0747 35.6229 30.9467 35.2652 30.6906 35.0392C30.4759 34.8584 30.216 34.7869 29.9072 34.8283M30.3441 34.478C30.4872 34.5006 30.6228 34.5496 30.7471 34.6249C30.6228 34.5496 30.491 34.5006 30.3441 34.478ZM29.9486 34.478C29.926 34.478 29.9072 34.4856 29.8846 34.4893C29.9072 34.4856 29.926 34.4818 29.9486 34.478Z" fill="#E77D6B"/>
<path d="M25.2184 9.18811C25.0414 9.21448 24.8644 9.24837 24.6874 9.29733L24.469 9.36136L24.3598 40.1725V40.6583L24.356 41.3551L25.1507 41.1216C25.531 41.0086 25.8474 40.7563 26.096 40.3683C26.3483 39.9993 26.4726 39.6113 26.4764 39.1971L26.4839 37.442C26.4839 36.8696 26.6647 36.3385 27.0224 35.864C27.3388 35.4083 27.7305 35.107 28.1862 34.9752L29.6927 34.5345C29.7605 34.5157 29.8283 34.4969 29.8923 34.4856C29.9149 34.4818 29.9337 34.478 29.9563 34.4743C30.0957 34.4554 30.2275 34.4554 30.3518 34.4743C30.4949 34.4969 30.6305 34.5458 30.7547 34.6211C30.8075 34.6513 30.8564 34.6889 30.9054 34.7304C31.2217 35.0166 31.3799 35.4422 31.3799 36.0071L31.3724 37.7621C31.3686 38.2932 31.2067 38.7978 30.8903 39.2611C30.574 39.7582 30.1634 40.0821 29.6738 40.2252L28.1674 40.6659C27.8096 40.7713 27.5045 41.0048 27.2597 41.3626C26.9848 41.7355 26.8454 42.146 26.8454 42.5866L26.8379 44.3454C26.8341 44.8802 26.6722 45.3811 26.3521 45.8444C26.0395 46.3377 25.629 46.6654 25.1394 46.8085L24.3447 47.042L24.3372 49.1887C24.3748 49.1812 24.4162 49.1661 24.4577 49.1548C25.2938 48.91 26.1299 48.4167 26.8831 47.6936L37.5301 37.4458C39.029 35.9996 39.9593 33.8717 39.9668 31.8605L39.9932 24.7161L40.0195 17.549C40.0195 15.5454 39.1081 13.9674 37.6205 13.3949L27.0224 9.35382C26.4613 9.14292 25.8512 9.08643 25.2297 9.17305" fill="#EDEDED"/>
<path d="M29.9488 34.478C29.9262 34.478 29.9074 34.4856 29.8848 34.4893C29.8208 34.5006 29.753 34.5157 29.6852 34.5383L28.1787 34.9789C27.723 35.1107 27.3313 35.412 27.015 35.8677C26.6572 36.3423 26.4802 36.8696 26.4764 37.4458L26.4689 39.2008C26.4689 39.6151 26.3408 40.003 26.0885 40.3721C25.8399 40.76 25.5236 41.0161 25.1432 41.1253L24.3485 41.3588V41.7053L25.1432 41.4718C25.6102 41.3362 26.0019 41.0237 26.3032 40.5453C26.6082 40.1009 26.7664 39.6226 26.7664 39.1142L26.7739 37.3592C26.7739 36.8921 26.9208 36.4553 27.2184 36.0598C27.4782 35.6832 27.7983 35.4384 28.175 35.3254L29.6814 34.8848C29.7568 34.8622 29.8321 34.8471 29.8999 34.8358C30.2087 34.7944 30.4723 34.8622 30.6832 35.0467C30.9393 35.2727 31.0674 35.6305 31.0674 36.1013L31.0599 37.8563C31.0599 38.2932 30.9243 38.7074 30.6607 39.0954C30.397 39.5021 30.0618 39.7733 29.6588 39.8863L28.1524 40.3307C27.7193 40.4587 27.3426 40.745 27.0413 41.1818C26.7024 41.6413 26.5254 42.146 26.5254 42.6883L26.5178 44.4471C26.5178 44.8915 26.3898 45.2907 26.1186 45.6862C25.8625 46.0929 25.5273 46.3603 25.1206 46.4809L24.3259 46.7144V47.0608L25.1206 46.8273C25.614 46.6842 26.0245 46.3566 26.3333 45.8632C26.6534 45.4 26.8154 44.8953 26.8191 44.3643L26.8267 42.6054C26.8267 42.1648 26.966 41.7543 27.241 41.3814C27.4895 41.0237 27.7946 40.7901 28.1486 40.6847L29.6551 40.2441C30.1484 40.1009 30.559 39.777 30.8716 39.2799C31.1879 38.8167 31.3499 38.312 31.3536 37.781L31.3612 36.0259C31.3612 35.461 31.203 35.0317 30.8866 34.7492C30.8377 34.7078 30.7887 34.6701 30.736 34.64C30.6117 34.5646 30.4799 34.5157 30.333 34.4931C30.2087 34.4743 30.0769 34.4743 29.9375 34.4931" fill="#211D1E"/>
</g>
</g>
</g>
<defs>
<clipPath id="clip0_1_7478">
<rect width="48" height="57.3025" fill="white" transform="translate(0 0.348877)"/>
</clipPath>
</defs>
</svg>
