<svg width="733" height="705" viewBox="0 0 733 705" fill="none" xmlns="http://www.w3.org/2000/svg">
<path fill-rule="evenodd" clip-rule="evenodd" d="M509.527 504.629C509.418 505.714 508.765 506.69 507.786 507.124C506.698 507.666 406.15 566.466 405.062 567.009C402.341 568.419 399.186 568.419 396.465 567.009C395.377 566.466 294.829 507.666 293.741 507.124C292.762 506.69 292 505.714 292 504.629C292 504.412 292.109 504.195 292.109 504.086H292V463.946L509.636 464.163V504.086H509.527C509.418 504.303 509.418 504.412 509.527 504.629Z" fill="url(#paint0_linear_31_3191)"/>
<path fill-rule="evenodd" clip-rule="evenodd" d="M401.143 402C399.619 402 398.205 402.325 396.899 402.976C395.811 403.627 295.263 461.342 294.175 461.993C293.196 462.427 292.543 463.404 292.434 464.488C292.543 465.573 293.196 466.55 294.175 466.984C295.263 467.526 395.811 525.241 396.899 525.892C399.619 527.302 402.775 527.302 405.496 525.892C406.584 525.349 507.132 467.634 508.22 466.984C509.199 466.55 509.852 465.573 509.961 464.488C509.852 463.404 509.199 462.427 508.22 461.993C507.132 461.451 406.584 403.736 405.496 403.085C404.081 402.325 402.666 402 401.143 402Z" fill="url(#paint1_linear_31_3191)"/>
<path fill-rule="evenodd" clip-rule="evenodd" d="M732.527 504.629C732.418 505.714 731.765 506.69 730.786 507.124C729.698 507.666 629.15 566.466 628.062 567.009C625.341 568.419 622.186 568.419 619.465 567.009C618.377 566.466 517.829 507.666 516.741 507.124C515.762 506.69 515 505.714 515 504.629C515 504.412 515.109 504.195 515.109 504.086H515V463.946L732.636 464.163V504.086H732.527C732.418 504.303 732.418 504.412 732.527 504.629Z" fill="url(#paint2_linear_31_3191)"/>
<path fill-rule="evenodd" clip-rule="evenodd" d="M624.143 402C622.619 402 621.205 402.325 619.899 402.976C618.811 403.627 518.263 461.342 517.175 461.993C516.196 462.427 515.543 463.404 515.434 464.488C515.543 465.573 516.196 466.55 517.175 466.984C518.263 467.526 618.811 525.241 619.899 525.892C622.619 527.302 625.775 527.302 628.496 525.892C629.584 525.349 730.132 467.634 731.22 466.984C732.199 466.55 732.852 465.573 732.961 464.488C732.852 463.404 732.199 462.427 731.22 461.993C730.132 461.451 629.584 403.736 628.496 403.085C627.081 402.325 625.666 402 624.143 402Z" fill="url(#paint3_linear_31_3191)"/>
<path fill-rule="evenodd" clip-rule="evenodd" d="M397.527 571.629C397.418 572.714 396.765 573.69 395.786 574.124C394.698 574.666 294.15 633.466 293.062 634.009C290.341 635.419 287.186 635.419 284.465 634.009C283.377 633.466 182.829 574.666 181.741 574.124C180.762 573.69 180 572.714 180 571.629C180 571.412 180.109 571.195 180.109 571.086H180V530.946L397.636 531.163V571.086H397.527C397.418 571.303 397.418 571.412 397.527 571.629Z" fill="url(#paint4_linear_31_3191)"/>
<path fill-rule="evenodd" clip-rule="evenodd" d="M289.143 469C287.619 469 286.205 469.325 284.899 469.976C283.811 470.627 183.263 528.342 182.175 528.993C181.196 529.427 180.543 530.404 180.434 531.488C180.543 532.573 181.196 533.55 182.175 533.984C183.263 534.526 283.811 592.241 284.899 592.892C287.619 594.302 290.775 594.302 293.496 592.892C294.584 592.349 395.132 534.634 396.22 533.984C397.199 533.55 397.852 532.573 397.961 531.488C397.852 530.404 397.199 529.427 396.22 528.993C395.132 528.451 294.584 470.736 293.496 470.085C292.081 469.325 290.666 469 289.143 469Z" fill="url(#paint5_linear_31_3191)"/>
<path fill-rule="evenodd" clip-rule="evenodd" d="M620.527 571.629C620.418 572.714 619.765 573.69 618.786 574.124C617.698 574.666 517.15 633.466 516.062 634.009C513.341 635.419 510.186 635.419 507.465 634.009C506.377 633.466 405.829 574.666 404.741 574.124C403.762 573.69 403 572.714 403 571.629C403 571.412 403.109 571.195 403.109 571.086H403V530.946L620.636 531.163V571.086H620.527C620.418 571.303 620.418 571.412 620.527 571.629Z" fill="url(#paint6_linear_31_3191)"/>
<path fill-rule="evenodd" clip-rule="evenodd" d="M512.143 469C510.619 469 509.205 469.325 507.899 469.976C506.811 470.627 406.263 528.342 405.175 528.993C404.196 529.427 403.543 530.404 403.434 531.488C403.543 532.573 404.196 533.55 405.175 533.984C406.263 534.526 506.811 592.241 507.899 592.892C510.619 594.302 513.775 594.302 516.496 592.892C517.584 592.349 618.132 534.634 619.22 533.984C620.199 533.55 620.852 532.573 620.961 531.488C620.852 530.404 620.199 529.427 619.22 528.993C618.132 528.451 517.584 470.736 516.496 470.085C515.081 469.325 513.666 469 512.143 469Z" fill="url(#paint7_linear_31_3191)"/>
<path fill-rule="evenodd" clip-rule="evenodd" d="M506.527 640.629C506.418 641.714 505.765 642.69 504.786 643.124C503.698 643.666 403.15 702.466 402.062 703.009C399.341 704.419 396.186 704.419 393.465 703.009C392.377 702.466 291.829 643.666 290.741 643.124C289.762 642.69 289 641.714 289 640.629C289 640.412 289.109 640.195 289.109 640.086H289V599.946L506.636 600.163V640.086H506.527C506.418 640.303 506.418 640.412 506.527 640.629Z" fill="url(#paint8_linear_31_3191)"/>
<path fill-rule="evenodd" clip-rule="evenodd" d="M398.143 538C396.619 538 395.205 538.325 393.899 538.976C392.811 539.627 292.263 597.342 291.175 597.993C290.196 598.427 289.543 599.404 289.434 600.488C289.543 601.573 290.196 602.55 291.175 602.984C292.263 603.526 392.811 661.241 393.899 661.892C396.619 663.302 399.775 663.302 402.496 661.892C403.584 661.349 504.132 603.634 505.22 602.984C506.199 602.55 506.852 601.573 506.961 600.488C506.852 599.404 506.199 598.427 505.22 597.993C504.132 597.451 403.584 539.736 402.496 539.085C401.081 538.325 399.666 538 398.143 538Z" fill="url(#paint9_linear_31_3191)"/>
<path fill-rule="evenodd" clip-rule="evenodd" d="M286.527 640.629C286.418 641.714 285.765 642.69 284.786 643.124C283.698 643.666 183.15 702.466 182.062 703.009C179.341 704.419 176.186 704.419 173.465 703.009C172.377 702.466 71.8293 643.666 70.7411 643.124C69.7617 642.69 69 641.714 69 640.629C69 640.412 69.1088 640.195 69.1088 640.086H69V599.946L286.636 600.163V640.086H286.527C286.418 640.303 286.418 640.412 286.527 640.629Z" fill="url(#paint10_linear_31_3191)"/>
<path fill-rule="evenodd" clip-rule="evenodd" d="M178.143 538C176.619 538 175.205 538.325 173.899 538.976C172.811 539.627 72.2631 597.342 71.1749 597.993C70.1956 598.427 69.5427 599.404 69.4338 600.488C69.5427 601.573 70.1956 602.55 71.1749 602.984C72.2631 603.526 172.811 661.241 173.899 661.892C176.619 663.302 179.775 663.302 182.496 661.892C183.584 661.349 284.132 603.634 285.22 602.984C286.199 602.55 286.852 601.573 286.961 600.488C286.852 599.404 286.199 598.427 285.22 597.993C284.132 597.451 183.584 539.736 182.496 539.085C181.081 538.325 179.666 538 178.143 538Z" fill="url(#paint11_linear_31_3191)"/>
<path d="M178.31 544.611L125 513.806L178.304 483L231.5 513.806L178.31 544.611Z" fill="url(#paint12_linear_31_3191)"/>
<path d="M125 513.805V607.805L178.172 638.27V544.305L125 513.805Z" fill="url(#paint13_linear_31_3191)"/>
<path d="M231.5 513.805V607.465L178.172 638.27V544.305L231.5 513.805Z" fill="url(#paint14_linear_31_3191)"/>
<path d="M294.309 414.611L240.999 383.806L294.303 353L347.637 383.806L294.309 414.611Z" fill="url(#paint15_linear_31_3191)"/>
<path d="M240.999 384V537.66L294.309 568.465V415L240.999 384Z" fill="url(#paint16_linear_31_3191)"/>
<path d="M347.637 384V537.66L294.309 568.465V414.938L347.637 384Z" fill="url(#paint17_linear_31_3191)"/>
<path d="M410.309 256.611L356.999 225.806L410.303 195L463.637 225.806L410.309 256.611Z" fill="url(#paint18_linear_31_3191)"/>
<path d="M356.999 225.805V478.854L410.309 509.659V256.61L356.999 225.805Z" fill="url(#paint19_linear_31_3191)"/>
<path d="M463.637 225.805V478.854L410.309 509.659V256.61L463.637 225.805Z" fill="url(#paint20_linear_31_3191)"/>
<path fill-rule="evenodd" clip-rule="evenodd" d="M515 344.18V462.524L623.981 523.719L732.961 462.524V344.18L623.93 285L515 344.18Z" fill="url(#paint21_linear_31_3191)"/>
<path fill-rule="evenodd" clip-rule="evenodd" d="M623.884 285C622.372 285 620.968 285.305 619.672 285.916C618.591 286.527 518.785 340.679 517.705 341.289C516.733 341.696 516.085 342.613 515.977 343.63C516.085 344.648 516.733 345.564 517.705 345.972C518.785 346.48 618.591 400.632 619.672 401.243C622.372 402.566 625.504 402.566 628.205 401.243C629.285 400.734 729.091 346.582 730.171 345.972C731.144 345.564 731.792 344.648 731.9 343.63C731.792 342.613 731.144 341.696 730.171 341.289C729.091 340.78 629.285 286.629 628.205 286.018C626.801 285.305 625.396 285 623.884 285Z" fill="url(#paint22_linear_31_3191)"/>
<rect width="85.4903" height="98.5662" rx="9.1561" transform="matrix(0.872963 -0.487787 0 1 647.952 403.699)" fill="#424C56"/>
<ellipse cx="708.819" cy="393.315" rx="1.37936" ry="1.69285" transform="rotate(-11.6936 708.819 393.315)" fill="#1482FF"/>
<ellipse cx="709.609" cy="401.234" rx="1.37936" ry="1.69285" transform="rotate(-11.6936 709.609 401.234)" fill="#1482FF"/>
<ellipse cx="709.609" cy="409.947" rx="1.37936" ry="1.69285" transform="rotate(-11.6936 709.609 409.947)" fill="#1482FF"/>
<ellipse cx="704.858" cy="395.691" rx="1.37936" ry="1.69285" transform="rotate(-11.6936 704.858 395.691)" fill="#1482FF"/>
<ellipse cx="705.65" cy="403.61" rx="1.37936" ry="1.69285" transform="rotate(-11.6936 705.65 403.61)" fill="#1482FF"/>
<ellipse cx="705.65" cy="412.322" rx="1.37936" ry="1.69285" transform="rotate(-11.6936 705.65 412.322)" fill="#1482FF"/>
<ellipse cx="700.899" cy="398.067" rx="1.37936" ry="1.69285" transform="rotate(-11.6936 700.899 398.067)" fill="#1482FF"/>
<ellipse cx="701.689" cy="405.985" rx="1.37936" ry="1.69285" transform="rotate(-11.6936 701.689 405.985)" fill="#1482FF"/>
<ellipse cx="701.689" cy="414.698" rx="1.37936" ry="1.69285" transform="rotate(-11.6936 701.689 414.698)" fill="#1482FF"/>
<path d="M687.608 405.5L689.188 405.858C690.768 406.217 689.925 407.434 688.218 408.315L670.013 417.709C668.306 418.589 665.736 419.133 664.725 418.481L663.145 418.123C661.566 417.764 662.409 416.547 664.115 415.666L682.321 406.272C684.027 405.391 686.597 404.847 687.608 405.5Z" fill="#1482FF"/>
<path d="M688.744 413.381L690.323 413.74C691.903 414.098 691.06 415.316 689.353 416.197L671.148 425.59C669.441 426.471 666.871 427.015 665.86 426.363L664.281 426.004C662.701 425.646 663.544 424.428 665.251 423.548L683.456 414.154C685.162 413.273 687.733 412.729 688.744 413.381Z" fill="#1482FF"/>
<path d="M690.637 421.218L692.216 421.577C693.796 421.935 692.953 423.153 691.246 424.034L673.041 433.427C671.335 434.308 668.764 434.852 667.753 434.2L666.174 433.841C664.594 433.483 665.437 432.265 667.144 431.385L685.349 421.991C687.056 421.11 689.626 420.566 690.637 421.218Z" fill="#1482FF"/>
<ellipse cx="708.819" cy="429.379" rx="1.37936" ry="1.69285" transform="rotate(-11.6936 708.819 429.379)" fill="#1482FF"/>
<ellipse cx="709.609" cy="437.297" rx="1.37936" ry="1.69285" transform="rotate(-11.6936 709.609 437.297)" fill="#1482FF"/>
<ellipse cx="709.609" cy="446.009" rx="1.37936" ry="1.69285" transform="rotate(-11.6936 709.609 446.009)" fill="#1482FF"/>
<ellipse cx="704.858" cy="431.755" rx="1.37936" ry="1.69285" transform="rotate(-11.6936 704.858 431.755)" fill="#1482FF"/>
<ellipse cx="705.65" cy="439.673" rx="1.37936" ry="1.69285" transform="rotate(-11.6936 705.65 439.673)" fill="#1482FF"/>
<ellipse cx="705.65" cy="448.385" rx="1.37936" ry="1.69285" transform="rotate(-11.6936 705.65 448.385)" fill="#1482FF"/>
<ellipse cx="700.899" cy="434.131" rx="1.37936" ry="1.69285" transform="rotate(-11.6936 700.899 434.131)" fill="#1482FF"/>
<ellipse cx="701.689" cy="442.049" rx="1.37936" ry="1.69285" transform="rotate(-11.6936 701.689 442.049)" fill="#1482FF"/>
<ellipse cx="701.689" cy="450.761" rx="1.37936" ry="1.69285" transform="rotate(-11.6936 701.689 450.761)" fill="#1482FF"/>
<path d="M688.786 441.47L690.366 441.828C691.946 442.187 691.102 443.404 689.396 444.285L671.191 453.679C669.484 454.56 666.914 455.103 665.903 454.451L664.323 454.093C662.743 453.734 663.587 452.517 665.293 451.636L683.498 442.242C685.205 441.362 687.775 440.818 688.786 441.47Z" fill="#1482FF"/>
<path d="M689.921 449.347L691.501 449.706C693.081 450.064 692.238 451.282 690.531 452.162L672.326 461.556C670.619 462.437 668.049 462.981 667.038 462.329L665.458 461.97C663.879 461.612 664.722 460.394 666.428 459.513L684.633 450.12C686.34 449.239 688.91 448.695 689.921 449.347Z" fill="#1482FF"/>
<path d="M691.813 457.189L693.392 457.547C694.972 457.906 694.129 459.123 692.422 460.004L674.217 469.398C672.51 470.278 669.94 470.822 668.929 470.17L667.35 469.812C665.77 469.453 666.613 468.235 668.32 467.355L686.525 457.961C688.232 457.08 690.802 456.536 691.813 457.189Z" fill="#1482FF"/>
<rect width="85.4903" height="98.5662" rx="9.1561" transform="matrix(-0.872963 -0.487787 0 1 602.452 404.108)" fill="#424C56"/>
<ellipse cx="1.37936" cy="1.69285" rx="1.37936" ry="1.69285" transform="matrix(-0.979245 -0.202678 -0.202678 0.979245 543.279 392.347)" fill="#1482FF"/>
<ellipse cx="1.37936" cy="1.69285" rx="1.37936" ry="1.69285" transform="matrix(-0.979245 -0.202678 -0.202678 0.979245 542.488 400.265)" fill="#1482FF"/>
<ellipse cx="1.37936" cy="1.69285" rx="1.37936" ry="1.69285" transform="matrix(-0.979245 -0.202678 -0.202678 0.979245 542.488 408.974)" fill="#1482FF"/>
<ellipse cx="1.37936" cy="1.69285" rx="1.37936" ry="1.69285" transform="matrix(-0.979245 -0.202678 -0.202678 0.979245 547.24 394.723)" fill="#1482FF"/>
<ellipse cx="1.37936" cy="1.69285" rx="1.37936" ry="1.69285" transform="matrix(-0.979245 -0.202678 -0.202678 0.979245 546.448 402.641)" fill="#1482FF"/>
<ellipse cx="1.37936" cy="1.69285" rx="1.37936" ry="1.69285" transform="matrix(-0.979245 -0.202678 -0.202678 0.979245 546.448 411.354)" fill="#1482FF"/>
<ellipse cx="1.37936" cy="1.69285" rx="1.37936" ry="1.69285" transform="matrix(-0.979245 -0.202678 -0.202678 0.979245 551.199 397.099)" fill="#1482FF"/>
<ellipse cx="1.37936" cy="1.69285" rx="1.37936" ry="1.69285" transform="matrix(-0.979245 -0.202678 -0.202678 0.979245 550.409 405.017)" fill="#1482FF"/>
<ellipse cx="1.37936" cy="1.69285" rx="1.37936" ry="1.69285" transform="matrix(-0.979245 -0.202678 -0.202678 0.979245 550.409 413.729)" fill="#1482FF"/>
<path d="M562.796 405.909L561.216 406.268C559.636 406.626 560.479 407.844 562.186 408.724L580.391 418.118C582.098 418.999 584.668 419.543 585.679 418.891L587.259 418.532C588.838 418.174 587.995 416.956 586.288 416.076L568.083 406.682C566.377 405.801 563.806 405.257 562.796 405.909Z" fill="#1482FF"/>
<path d="M561.66 413.791L560.081 414.149C558.501 414.508 559.344 415.725 561.051 416.606L579.256 426C580.963 426.88 583.533 427.424 584.544 426.772L586.124 426.414C587.703 426.055 586.86 424.838 585.153 423.957L566.948 414.563C565.242 413.682 562.671 413.138 561.66 413.791Z" fill="#1482FF"/>
<path d="M559.767 421.628L558.187 421.986C556.608 422.345 557.451 423.563 559.158 424.443L577.363 433.837C579.069 434.718 581.64 435.262 582.65 434.609L584.23 434.251C585.81 433.892 584.967 432.675 583.26 431.794L565.055 422.4C563.348 421.52 560.778 420.976 559.767 421.628Z" fill="#1482FF"/>
<ellipse cx="1.37936" cy="1.69285" rx="1.37936" ry="1.69285" transform="matrix(-0.979245 -0.202678 -0.202678 0.979245 543.279 428.41)" fill="#1482FF"/>
<ellipse cx="1.37936" cy="1.69285" rx="1.37936" ry="1.69285" transform="matrix(-0.979245 -0.202678 -0.202678 0.979245 542.488 436.328)" fill="#1482FF"/>
<ellipse cx="1.37936" cy="1.69285" rx="1.37936" ry="1.69285" transform="matrix(-0.979245 -0.202678 -0.202678 0.979245 542.488 445.041)" fill="#1482FF"/>
<ellipse cx="1.37936" cy="1.69285" rx="1.37936" ry="1.69285" transform="matrix(-0.979245 -0.202678 -0.202678 0.979245 547.24 430.786)" fill="#1482FF"/>
<ellipse cx="1.37936" cy="1.69285" rx="1.37936" ry="1.69285" transform="matrix(-0.979245 -0.202678 -0.202678 0.979245 546.448 438.704)" fill="#1482FF"/>
<ellipse cx="1.37936" cy="1.69285" rx="1.37936" ry="1.69285" transform="matrix(-0.979245 -0.202678 -0.202678 0.979245 546.448 447.417)" fill="#1482FF"/>
<ellipse cx="1.37936" cy="1.69285" rx="1.37936" ry="1.69285" transform="matrix(-0.979245 -0.202678 -0.202678 0.979245 551.199 433.162)" fill="#1482FF"/>
<ellipse cx="1.37936" cy="1.69285" rx="1.37936" ry="1.69285" transform="matrix(-0.979245 -0.202678 -0.202678 0.979245 550.409 441.08)" fill="#1482FF"/>
<ellipse cx="1.37936" cy="1.69285" rx="1.37936" ry="1.69285" transform="matrix(-0.979245 -0.202678 -0.202678 0.979245 550.409 449.792)" fill="#1482FF"/>
<path d="M561.618 441.879L560.038 442.237C558.458 442.596 559.302 443.813 561.008 444.694L579.213 454.088C580.92 454.969 583.49 455.513 584.501 454.86L586.081 454.502C587.661 454.143 586.817 452.926 585.111 452.045L566.906 442.651C565.199 441.771 562.629 441.227 561.618 441.879Z" fill="#1482FF"/>
<path d="M560.483 449.757L558.903 450.115C557.323 450.474 558.166 451.691 559.873 452.572L578.078 461.966C579.785 462.847 582.355 463.39 583.366 462.738L584.946 462.38C586.525 462.021 585.682 460.804 583.975 459.923L565.77 450.529C564.064 449.649 561.493 449.105 560.483 449.757Z" fill="#1482FF"/>
<path d="M558.591 457.598L557.012 457.956C555.432 458.315 556.275 459.532 557.982 460.413L576.187 469.807C577.893 470.687 580.464 471.231 581.475 470.579L583.054 470.221C584.634 469.862 583.791 468.645 582.084 467.764L563.879 458.37C562.172 457.489 559.602 456.946 558.591 457.598Z" fill="#1482FF"/>
<path d="M394.202 0L291.632 78.4073L320.54 98.3096L243.812 255.893L179.828 212.925L0 575.735L69.8967 535.374L191.396 291.155L254.833 334.283L357.499 123.638L383.225 141.075L394.202 0Z" fill="url(#paint23_linear_31_3191)"/>
<path d="M410.914 9.70361L308.344 88.1021L337.252 108.004L260.524 265.588L196.531 222.619L16.7118 585.43L86.6085 545.077L208.099 300.85L271.544 343.977L374.211 133.333L399.937 150.77L410.914 9.70361Z" fill="url(#paint24_linear_31_3191)"/>
<path d="M16.7118 585.43L0 575.735L179.828 212.925L196.531 222.62L16.7118 585.43Z" fill="url(#paint25_linear_31_3191)"/>
<path d="M271.545 343.978L254.833 334.283L207.481 302.096L208.099 300.85L271.545 343.978Z" fill="#636F99"/>
<path d="M410.914 9.70368L394.202 0L291.632 78.4073L308.344 88.1022L410.914 9.70368Z" fill="url(#paint26_linear_31_3191)"/>
<path d="M291.632 78.4072L308.344 88.1021L337.252 108.004L320.54 98.3095L291.632 78.4072Z" fill="#636F99"/>
<rect width="124.802" height="124.802" rx="23.2907" transform="matrix(0.866025 0.5 -0.866025 0.5 394.918 549.652)" fill="black" stroke="white" stroke-opacity="0.75" stroke-width="8.73402"/>
<path d="M310.621 607.617C297.023 599.766 297.023 587.038 310.621 579.187L369.461 545.215C383.059 537.365 405.105 537.365 418.703 545.215L477.543 579.187C491.141 587.038 491.141 599.766 477.543 607.617L418.703 641.588C405.105 649.439 383.059 649.439 369.461 641.588L310.621 607.617Z" fill="white"/>
<g clip-path="url(#clip0_31_3191)">
<path d="M402.832 569.224C395.929 568.431 388.794 568.636 382.061 569.819C375.328 571.002 369.206 573.127 364.239 576.005C359.268 578.872 355.6 582.403 353.56 586.284C351.521 590.166 351.173 594.278 352.547 598.256M362.561 576.974C364.136 580.904 366.588 584.698 369.857 588.262M365.916 575.037C372.724 575.944 379.299 577.359 385.475 579.245M436.39 588.599C437.764 592.584 437.41 596.704 435.361 600.591C433.312 604.478 429.63 608.013 424.645 610.881C419.68 613.751 413.565 615.869 406.841 617.046C400.118 618.224 392.996 618.425 386.106 617.631M422.967 611.85C416.161 610.94 409.589 609.525 403.415 607.637M426.322 609.912C424.75 605.982 422.3 602.186 419.033 598.62M354.171 608.944L370.95 614.756L362.561 604.1L381.018 608.943L370.95 599.256M404.509 579.881L421.289 585.693L412.899 575.037L431.356 579.881L421.289 570.193M379.34 594.412L396.119 600.225L387.73 589.568L406.187 594.412L396.119 584.724" stroke="black" stroke-width="3.98576" stroke-linecap="round" stroke-linejoin="round"/>
</g>
<defs>
<linearGradient id="paint0_linear_31_3191" x1="339.459" y1="470.972" x2="269.598" y2="650.5" gradientUnits="userSpaceOnUse">
<stop stop-color="#354065"/>
<stop offset="0.652971" stop-color="#636F99"/>
</linearGradient>
<linearGradient id="paint1_linear_31_3191" x1="292.434" y1="464.475" x2="509.961" y2="464.475" gradientUnits="userSpaceOnUse">
<stop offset="0.51" stop-color="#636F99"/>
<stop offset="0.875" stop-color="#3F4B75"/>
</linearGradient>
<linearGradient id="paint2_linear_31_3191" x1="515" y1="516.006" x2="732.636" y2="516.006" gradientUnits="userSpaceOnUse">
<stop stop-color="white"/>
<stop offset="1" stop-color="#A9BCEA"/>
</linearGradient>
<linearGradient id="paint3_linear_31_3191" x1="624.197" y1="402" x2="624.197" y2="526.95" gradientUnits="userSpaceOnUse">
<stop offset="0.31" stop-color="white"/>
<stop offset="0.81" stop-color="#C4D1F1"/>
<stop offset="1" stop-color="#C4D1F1"/>
</linearGradient>
<linearGradient id="paint4_linear_31_3191" x1="227.459" y1="537.972" x2="157.598" y2="717.5" gradientUnits="userSpaceOnUse">
<stop stop-color="#354065"/>
<stop offset="0.652971" stop-color="#636F99"/>
</linearGradient>
<linearGradient id="paint5_linear_31_3191" x1="180.434" y1="531.475" x2="397.961" y2="531.475" gradientUnits="userSpaceOnUse">
<stop offset="0.51" stop-color="#636F99"/>
<stop offset="0.875" stop-color="#3F4B75"/>
</linearGradient>
<linearGradient id="paint6_linear_31_3191" x1="403" y1="583.006" x2="620.636" y2="583.006" gradientUnits="userSpaceOnUse">
<stop stop-color="white"/>
<stop offset="1" stop-color="#A9BCEA"/>
</linearGradient>
<linearGradient id="paint7_linear_31_3191" x1="512.197" y1="469" x2="512.197" y2="593.95" gradientUnits="userSpaceOnUse">
<stop offset="0.31" stop-color="white"/>
<stop offset="0.81" stop-color="#C4D1F1"/>
<stop offset="1" stop-color="#C4D1F1"/>
</linearGradient>
<linearGradient id="paint8_linear_31_3191" x1="336.459" y1="606.972" x2="266.598" y2="786.5" gradientUnits="userSpaceOnUse">
<stop stop-color="#354065"/>
<stop offset="0.652971" stop-color="#636F99"/>
</linearGradient>
<linearGradient id="paint9_linear_31_3191" x1="289.434" y1="600.475" x2="506.961" y2="600.475" gradientUnits="userSpaceOnUse">
<stop offset="0.51" stop-color="#636F99"/>
<stop offset="0.875" stop-color="#3F4B75"/>
</linearGradient>
<linearGradient id="paint10_linear_31_3191" x1="116.459" y1="606.972" x2="46.5978" y2="786.5" gradientUnits="userSpaceOnUse">
<stop stop-color="#354065"/>
<stop offset="0.652971" stop-color="#636F99"/>
</linearGradient>
<linearGradient id="paint11_linear_31_3191" x1="69.4338" y1="600.475" x2="286.961" y2="600.475" gradientUnits="userSpaceOnUse">
<stop offset="0.51" stop-color="#636F99"/>
<stop offset="0.875" stop-color="#3F4B75"/>
</linearGradient>
<linearGradient id="paint12_linear_31_3191" x1="124.862" y1="513.611" x2="231.5" y2="513.611" gradientUnits="userSpaceOnUse">
<stop offset="0.065" stop-color="#90ABDF"/>
<stop offset="0.415" stop-color="#97B4ED"/>
<stop offset="1" stop-color="#ABB7E0"/>
</linearGradient>
<linearGradient id="paint13_linear_31_3191" x1="232.968" y1="543.367" x2="70.0723" y2="449.319" gradientUnits="userSpaceOnUse">
<stop stop-color="#567CC7"/>
<stop offset="0.36" stop-color="#5D94FF"/>
<stop offset="0.73" stop-color="#79A2F2"/>
</linearGradient>
<linearGradient id="paint14_linear_31_3191" x1="272.958" y1="378.353" x2="136.714" y2="614.332" gradientUnits="userSpaceOnUse">
<stop stop-color="#3468CD"/>
<stop offset="0.36" stop-color="#3570E2"/>
<stop offset="1" stop-color="#526091"/>
</linearGradient>
<linearGradient id="paint15_linear_31_3191" x1="240.999" y1="383.806" x2="347.637" y2="383.806" gradientUnits="userSpaceOnUse">
<stop offset="0.065" stop-color="#90ABDF"/>
<stop offset="0.415" stop-color="#97B4ED"/>
<stop offset="1" stop-color="#ABB7E0"/>
</linearGradient>
<linearGradient id="paint16_linear_31_3191" x1="349.105" y1="473.563" x2="186.209" y2="379.514" gradientUnits="userSpaceOnUse">
<stop stop-color="#567CC7"/>
<stop offset="0.36" stop-color="#5D94FF"/>
<stop offset="0.73" stop-color="#79A2F2"/>
</linearGradient>
<linearGradient id="paint17_linear_31_3191" x1="389.095" y1="308.549" x2="252.851" y2="544.528" gradientUnits="userSpaceOnUse">
<stop stop-color="#3468CD"/>
<stop offset="0.36" stop-color="#3570E2"/>
<stop offset="1" stop-color="#526091"/>
</linearGradient>
<linearGradient id="paint18_linear_31_3191" x1="356.999" y1="225.806" x2="463.637" y2="225.806" gradientUnits="userSpaceOnUse">
<stop offset="0.065" stop-color="#90ABDF"/>
<stop offset="0.415" stop-color="#97B4ED"/>
<stop offset="1" stop-color="#ABB7E0"/>
</linearGradient>
<linearGradient id="paint19_linear_31_3191" x1="465.105" y1="414.756" x2="302.209" y2="320.707" gradientUnits="userSpaceOnUse">
<stop stop-color="#567CC7"/>
<stop offset="0.36" stop-color="#5D94FF"/>
<stop offset="0.73" stop-color="#79A2F2"/>
</linearGradient>
<linearGradient id="paint20_linear_31_3191" x1="505.095" y1="249.742" x2="368.851" y2="485.721" gradientUnits="userSpaceOnUse">
<stop stop-color="#3468CD"/>
<stop offset="0.36" stop-color="#3570E2"/>
<stop offset="1" stop-color="#526091"/>
</linearGradient>
<linearGradient id="paint21_linear_31_3191" x1="623.981" y1="285" x2="623.981" y2="523.719" gradientUnits="userSpaceOnUse">
<stop offset="0.31" stop-color="white"/>
<stop offset="0.81" stop-color="#C4D1F1"/>
<stop offset="1" stop-color="#C4D1F1"/>
</linearGradient>
<linearGradient id="paint22_linear_31_3191" x1="623.938" y1="285" x2="623.938" y2="402.235" gradientUnits="userSpaceOnUse">
<stop offset="0.31" stop-color="white"/>
<stop offset="0.81" stop-color="#C4D1F1"/>
<stop offset="1" stop-color="#C4D1F1"/>
</linearGradient>
<linearGradient id="paint23_linear_31_3191" x1="0" y1="287.868" x2="394.202" y2="287.868" gradientUnits="userSpaceOnUse">
<stop stop-color="#1482FF"/>
<stop offset="0.09" stop-color="#3D7FFF"/>
<stop offset="0.19" stop-color="#739DEF"/>
<stop offset="0.27" stop-color="#EFEFEF"/>
<stop offset="0.32" stop-color="#6FA0FE"/>
</linearGradient>
<linearGradient id="paint24_linear_31_3191" x1="16.7118" y1="297.562" x2="410.914" y2="297.562" gradientUnits="userSpaceOnUse">
<stop offset="0.08" stop-color="#98B8F6"/>
<stop offset="0.43" stop-color="#5A98E0"/>
<stop offset="0.67" stop-color="#6895EB"/>
<stop offset="1" stop-color="#3D7FFF"/>
</linearGradient>
<linearGradient id="paint25_linear_31_3191" x1="0" y1="399.177" x2="196.531" y2="399.177" gradientUnits="userSpaceOnUse">
<stop stop-color="#497AD9"/>
<stop offset="0.29" stop-color="#4691E5"/>
<stop offset="0.73" stop-color="#7EB7F8"/>
<stop offset="1" stop-color="#439BFF"/>
</linearGradient>
<linearGradient id="paint26_linear_31_3191" x1="291.632" y1="44.0555" x2="410.914" y2="44.0555" gradientUnits="userSpaceOnUse">
<stop stop-color="#4788FB"/>
<stop offset="0.0001" stop-color="#6DA9ED"/>
<stop offset="0.955" stop-color="#79A5FA"/>
<stop offset="0.9551" stop-color="#5EA5F5"/>
</linearGradient>
<clipPath id="clip0_31_3191">
<rect width="93.001" height="93.001" fill="white" transform="matrix(0.866025 -0.5 0.866025 0.5 313.9 593.443)"/>
</clipPath>
</defs>
</svg>
