<svg width="46" height="62" viewBox="0 0 46 62" fill="none" xmlns="http://www.w3.org/2000/svg">
<g clip-path="url(#clip0_1_7517)">
<path d="M4.94678 38.8438C4.94678 40.8382 5.28698 42.6167 5.94797 44.0777C6.60896 45.5387 7.57778 46.6536 8.79913 47.3588C10.0205 48.0639 11.4704 48.3455 13.0662 48.1874C14.4324 48.0521 15.8827 47.5967 17.3556 46.8427C15.6824 44.7058 14.5453 41.9324 13.9914 38.6844C13.733 37.1696 13.6015 35.5517 13.6015 33.847C13.6015 32.1422 13.733 30.3724 13.9914 28.5594C14.5453 24.6716 15.6824 20.5853 17.3556 16.5163C14.1385 18.584 11.0898 21.9128 8.79913 25.8804C6.33251 30.1527 4.94678 34.8158 4.94678 38.8438Z" fill="#D2D8F6"/>
<path d="M22.5975 28.6531C22.5975 26.9484 22.4659 25.3304 22.2076 23.8157L13.9914 28.5594C13.733 30.3724 13.6015 32.1422 13.6015 33.847C13.6015 35.5517 13.733 37.1696 13.9914 38.6844L22.2076 33.9407C22.4659 32.1277 22.5975 30.3579 22.5975 28.6531Z" fill="#D2D8F6"/>
<path d="M18.8434 15.6573C18.5963 15.7838 18.3483 15.9189 18.0995 16.0625C17.8507 16.2061 17.6027 16.3575 17.3556 16.5163C15.6824 20.5853 14.5453 24.6716 13.9914 28.5594L22.2076 23.8157C21.6536 20.5677 20.5166 17.7943 18.8434 15.6573Z" fill="#D2D8F6"/>
<path d="M18.8434 45.9837C20.3163 45.037 21.7666 43.8177 23.1329 42.3754C24.7286 40.6909 26.1786 38.735 27.3999 36.6196C28.6213 34.5042 29.5901 32.2705 30.2511 30.0463C30.9121 27.822 31.2523 25.6507 31.2523 23.6562C31.2523 19.6283 29.8666 16.5653 27.3999 15.1412C25.1092 13.8187 22.0605 14.0102 18.8434 15.6573C20.5166 17.7943 21.6536 20.5677 22.2076 23.8157C22.4659 25.3304 22.5975 26.9484 22.5975 28.6531C22.5975 30.3579 22.4659 32.1277 22.2076 33.9407C21.6536 37.8284 20.5166 41.9148 18.8434 45.9837Z" fill="#D2D8F6"/>
<path d="M13.9914 38.6844C14.5453 41.9324 15.6824 44.7058 17.3556 46.8427C17.603 46.716 17.8511 46.5809 18.0995 46.4375C18.3479 46.2941 18.596 46.1428 18.8434 45.9837C20.5166 41.9148 21.6536 37.8284 22.2076 33.9407L13.9914 38.6844Z" fill="#D2D8F6"/>
</g>
<g clip-path="url(#clip1_1_7517)">
<path d="M15.0718 38.8438C15.0718 40.8382 15.412 42.6167 16.073 44.0777C16.734 45.5387 17.7028 46.6536 18.9241 47.3588C20.1455 48.0639 21.5954 48.3455 23.1912 48.1874C24.5574 48.0521 26.0077 47.5967 27.4806 46.8427C25.8074 44.7058 24.6703 41.9324 24.1164 38.6844C23.858 37.1696 23.7265 35.5517 23.7265 33.847C23.7265 32.1422 23.858 30.3724 24.1164 28.5594C24.6703 24.6716 25.8074 20.5853 27.4806 16.5163C24.2635 18.584 21.2148 21.9128 18.9241 25.8804C16.4575 30.1527 15.0718 34.8158 15.0718 38.8438Z" fill="white"/>
<path d="M32.7225 28.6531C32.7225 26.9484 32.5909 25.3304 32.3326 23.8157L24.1164 28.5594C23.858 30.3724 23.7265 32.1422 23.7265 33.847C23.7265 35.5517 23.858 37.1696 24.1164 38.6844L32.3326 33.9407C32.5909 32.1277 32.7225 30.3579 32.7225 28.6531Z" fill="white"/>
<path d="M28.9684 15.6573C28.7213 15.7838 28.4733 15.9189 28.2245 16.0625C27.9757 16.2061 27.7277 16.3575 27.4806 16.5163C25.8074 20.5853 24.6703 24.6716 24.1164 28.5594L32.3326 23.8157C31.7786 20.5677 30.6416 17.7943 28.9684 15.6573Z" fill="white"/>
<path d="M28.9684 45.9837C30.4413 45.037 31.8916 43.8177 33.2579 42.3754C34.8536 40.6909 36.3036 38.735 37.5249 36.6196C38.7463 34.5042 39.7151 32.2705 40.3761 30.0463C41.0371 27.822 41.3773 25.6507 41.3773 23.6562C41.3773 19.6283 39.9916 16.5653 37.5249 15.1412C35.2342 13.8187 32.1855 14.0102 28.9684 15.6573C30.6416 17.7943 31.7786 20.5677 32.3326 23.8157C32.5909 25.3304 32.7225 26.9484 32.7225 28.6531C32.7225 30.3579 32.5909 32.1277 32.3326 33.9407C31.7786 37.8284 30.6416 41.9148 28.9684 45.9837Z" fill="white"/>
<path d="M24.1164 38.6844C24.6703 41.9324 25.8074 44.7058 27.4806 46.8427C27.728 46.716 27.9761 46.5809 28.2245 46.4375C28.4729 46.2941 28.721 46.1428 28.9684 45.9837C30.6416 41.9148 31.7786 37.8284 32.3326 33.9407L24.1164 38.6844Z" fill="white"/>
</g>
<g clip-path="url(#clip2_1_7517)">
<path fill-rule="evenodd" clip-rule="evenodd" d="M27.2791 15.8019C23.9424 17.9912 20.7874 21.4601 18.4074 25.5822C15.8038 30.0919 14.3411 35.014 14.3411 39.2657C14.3411 41.371 14.7002 43.2483 15.3979 44.7905C16.0956 46.3327 17.1182 47.5095 18.4074 48.2538C19.6966 48.9981 21.2271 49.2954 22.9116 49.1285C24.3041 48.9906 25.7794 48.5376 27.279 47.79C27.3918 47.7649 27.5126 47.7036 27.6305 47.6097C27.8282 47.5053 28.0263 47.3958 28.2245 47.2814C28.4228 47.1669 28.6208 47.0477 28.8185 46.9238C28.9364 46.8816 29.0571 46.8034 29.1699 46.6984C30.6696 45.7143 32.1449 44.4637 33.5375 42.9936C35.2219 41.2155 36.7524 39.151 38.0416 36.918C39.3308 34.6851 40.3535 32.3274 41.0512 29.9795C41.7489 27.6317 42.108 25.3397 42.108 23.2345C42.108 18.9827 40.6453 15.7496 38.0416 14.2464C35.6617 12.8723 32.5066 13.0466 29.1698 14.7103C29.0571 14.7355 28.9364 14.7967 28.8185 14.8906C28.6211 14.9948 28.423 15.1043 28.2245 15.2189C28.026 15.3335 27.8279 15.4527 27.6304 15.5765C27.5126 15.6187 27.3919 15.6969 27.2791 15.8019ZM28.5485 16.7242C28.4407 16.7832 28.3327 16.8439 28.2245 16.9064C28.1164 16.9688 28.0083 17.0328 27.9005 17.0983C26.5374 20.5051 25.5629 23.9178 25.0059 27.2021L31.443 23.4857C30.8861 20.8444 29.9115 18.557 28.5485 16.7242ZM30.333 15.8971C31.5535 17.7776 32.4292 20.0466 32.9365 22.6234L39.5446 18.8082C38.9332 17.5987 38.0785 16.6542 37.0082 16.0363C35.1817 14.9817 32.845 14.9464 30.333 15.8971ZM40.0972 20.1767L33.1909 24.164C33.3649 25.4556 33.4532 26.8143 33.4532 28.2313C33.4532 29.6484 33.3649 31.109 33.1909 32.6015L40.0971 28.6142C40.4608 27.0399 40.6466 25.5108 40.6466 24.0782C40.6466 22.635 40.4582 21.3229 40.0972 20.1767ZM39.5446 30.6207L32.9365 34.4359C32.4292 37.5986 31.5535 40.8786 30.333 44.1684C31.2382 43.4657 32.1256 42.6576 32.9782 41.7575C34.4854 40.1665 35.8548 38.3193 37.0082 36.3214C38.0689 34.4843 38.9279 32.5529 39.5446 30.6207ZM28.5485 45.402C29.9115 41.9952 30.8861 38.5825 31.443 35.2982L25.0059 39.0146C25.5629 41.6559 26.5374 43.9432 27.9005 45.7761C28.0084 45.717 28.1164 45.6563 28.2245 45.5939C28.3326 45.5315 28.4406 45.4675 28.5485 45.402ZM26.1159 46.6031C24.8954 44.7227 24.0198 42.4537 23.5125 39.8769L16.9044 43.692C17.5212 44.912 18.3802 45.8516 19.4408 46.464C20.5943 47.1299 21.9637 47.3959 23.4708 47.2466C24.3235 47.1621 25.2107 46.9457 26.1159 46.6031ZM16.3519 42.3235L23.2581 38.3363C23.084 37.0447 22.9958 35.686 22.9958 34.269C22.9958 32.8519 23.084 31.3913 23.2581 29.8988L16.3519 33.886C15.9909 35.4491 15.8025 36.9787 15.8025 38.422C15.8025 39.8545 15.9883 41.1691 16.3519 42.3235ZM16.9044 31.8795L23.5125 28.0644C24.0198 24.9017 24.8954 21.6217 26.116 18.3318C23.604 20.2817 21.2673 23.0153 19.4408 26.1788C18.3706 28.0325 17.5158 29.964 16.9044 31.8795ZM24.7356 29.0457C24.5509 30.543 24.4572 32.0073 24.4572 33.4252C24.4572 34.8431 24.5509 36.1991 24.7356 37.4832L31.7134 33.4546C31.898 31.9573 31.9918 30.493 31.9918 29.0751C31.9918 27.6572 31.898 26.3012 31.7134 25.0171L24.7356 29.0457Z" fill="black"/>
</g>
<defs>
<clipPath id="clip0_1_7517">
<rect width="40.5" height="40.5" fill="white" transform="matrix(0.866025 -0.5 0 1 0.5625 21.125)"/>
</clipPath>
<clipPath id="clip1_1_7517">
<rect width="40.5" height="40.5" fill="white" transform="matrix(0.866025 -0.5 0 1 10.6875 21.125)"/>
</clipPath>
<clipPath id="clip2_1_7517">
<rect width="40.5" height="40.5" fill="white" transform="matrix(0.866025 -0.5 0 1 10.6875 21.125)"/>
</clipPath>
</defs>
</svg>
