<svg width="90" height="104" viewBox="0 0 90 104" fill="none" xmlns="http://www.w3.org/2000/svg">
<g clip-path="url(#clip0_1_7238)">
<path d="M15.1006 47.6665C15.1006 45.7215 15.7697 43.47 16.9607 41.4071C18.1518 39.3442 19.7671 37.6389 21.4515 36.6665L24.3382 34.9998C26.0151 34.0305 27.6236 32.335 28.8127 30.2831L30.8334 26.7831C31.4236 25.757 32.1253 24.8081 32.8981 23.9907C33.671 23.1734 34.4997 22.5039 35.3368 22.0206C36.1738 21.5374 37.0025 21.25 37.7754 21.1749C38.5482 21.0998 39.2499 21.2385 39.8401 21.5831L41.8608 22.7498C43.0502 23.4298 44.661 23.2665 46.3353 22.2998L49.222 20.6331C50.9064 19.6607 52.5217 19.5007 53.7128 20.1883C54.9038 20.8759 55.5729 22.3549 55.5729 24.2998V27.6331C55.5729 29.5665 56.2368 31.0431 57.4204 31.7331L59.4411 32.8998C60.0346 33.2386 60.5056 33.7769 60.827 34.4838C61.1484 35.1906 61.3139 36.0521 61.3139 37.0186C61.3139 37.9851 61.1484 39.0375 60.827 40.1155C60.5056 41.1935 60.0346 42.2756 59.4411 43.2998L57.4204 46.7998C56.238 48.8555 55.5738 51.0962 55.5729 53.0331V56.3665C55.5729 58.3114 54.9038 60.563 53.7128 62.6259C52.5217 64.6888 50.9064 66.394 49.222 67.3665L46.3353 69.0331C44.6584 70.0024 43.0499 71.6979 41.8608 73.7498L39.8401 77.2498C39.2499 78.2759 38.5482 79.2248 37.7754 80.0422C37.0025 80.8595 36.1738 81.529 35.3368 82.0123C34.4997 82.4955 33.671 82.7829 32.8981 82.858C32.1253 82.9331 31.4236 82.7944 30.8334 82.4498L28.8127 81.2831C27.6236 80.6043 26.0151 80.7661 24.3382 81.7331L21.4515 83.3998C19.7671 84.3723 18.1518 84.5323 16.9607 83.8446C15.7697 83.157 15.1006 81.678 15.1006 79.7331V76.3998C15.0997 74.464 14.4355 72.9902 13.2531 72.2998L11.2324 71.1331C10.6389 70.7943 10.1679 70.256 9.84647 69.5491C9.52507 68.8423 9.35962 67.9809 9.35962 67.0144C9.35962 66.0479 9.52507 64.9954 9.84647 63.9174C10.1679 62.8395 10.6389 61.7573 11.2324 60.7331L13.2531 57.2331C14.4355 55.1774 15.0997 52.9367 15.1006 50.9998V47.6665Z" fill="#D2D8F6"/>
</g>
<g clip-path="url(#clip1_1_7238)">
<path d="M35.1006 47.6665C35.1006 45.7215 35.7697 43.47 36.9607 41.4071C38.1518 39.3442 39.7671 37.6389 41.4515 36.6665L44.3382 34.9998C46.0151 34.0305 47.6236 32.335 48.8127 30.2831L50.8334 26.7831C51.4236 25.757 52.1253 24.8081 52.8981 23.9907C53.671 23.1734 54.4997 22.5039 55.3368 22.0206C56.1738 21.5374 57.0025 21.25 57.7754 21.1749C58.5482 21.0998 59.2499 21.2385 59.8401 21.5831L61.8608 22.7498C63.0502 23.4298 64.661 23.2665 66.3353 22.2998L69.222 20.6331C70.9064 19.6607 72.5217 19.5007 73.7128 20.1883C74.9038 20.8759 75.5729 22.3549 75.5729 24.2998V27.6331C75.5729 29.5665 76.2368 31.0431 77.4204 31.7331L79.4411 32.8998C80.0346 33.2386 80.5056 33.7769 80.827 34.4838C81.1484 35.1906 81.3139 36.0521 81.3139 37.0186C81.3139 37.9851 81.1484 39.0375 80.827 40.1155C80.5056 41.1935 80.0346 42.2756 79.4411 43.2998L77.4204 46.7998C76.238 48.8555 75.5738 51.0962 75.5729 53.0331V56.3665C75.5729 58.3114 74.9038 60.563 73.7128 62.6259C72.5217 64.6888 70.9064 66.394 69.222 67.3665L66.3353 69.0331C64.6584 70.0024 63.0499 71.6979 61.8608 73.7498L59.8401 77.2498C59.2499 78.2759 58.5482 79.2248 57.7754 80.0422C57.0025 80.8595 56.1738 81.529 55.3368 82.0123C54.4997 82.4955 53.671 82.7829 52.8981 82.858C52.1253 82.9331 51.4236 82.7944 50.8334 82.4498L48.8127 81.2831C47.6236 80.6043 46.0151 80.7661 44.3382 81.7331L41.4515 83.3998C39.7671 84.3723 38.1518 84.5323 36.9607 83.8446C35.7697 83.157 35.1006 81.678 35.1006 79.7331V76.3998C35.0997 74.464 34.4355 72.9902 33.2531 72.2998L31.2324 71.1331C30.6389 70.7943 30.1679 70.256 29.8465 69.5491C29.5251 68.8423 29.3596 67.9809 29.3596 67.0144C29.3596 66.0479 29.5251 64.9954 29.8465 63.9174C30.1679 62.8395 30.6389 61.7573 31.2324 60.7331L33.2531 57.2331C34.4355 55.1774 35.0997 52.9367 35.1006 50.9998V47.6665Z" fill="white"/>
</g>
<g clip-path="url(#clip2_1_7238)">
<path fill-rule="evenodd" clip-rule="evenodd" d="M55.3368 23.6876C54.69 24.0611 54.0496 24.5784 53.4524 25.21C52.8552 25.8416 52.313 26.5749 51.8569 27.3677L51.8541 27.3727L49.8333 30.8727L49.8305 30.8777C48.3711 33.3959 46.3971 35.4767 44.3391 36.6663L44.3382 36.6668L41.4515 38.3335C40.1499 39.0849 38.9017 40.4026 37.9814 41.9966C37.0611 43.5907 36.544 45.3306 36.544 46.8335V50.1668V50.1677C36.5428 52.5448 35.7278 55.2948 34.2766 57.8177L34.2737 57.8227L32.253 61.3227L32.2501 61.3277C31.7915 62.1191 31.4276 62.9553 31.1792 63.7883C30.9309 64.6212 30.803 65.4345 30.803 66.1814C30.803 66.9282 30.9309 67.5938 31.1792 68.14C31.4276 68.6862 31.7915 69.1022 32.2501 69.364L32.253 69.3657L34.2737 70.5324L34.2766 70.534C35.7278 71.3813 36.5428 73.1901 36.544 75.5658V75.5668V78.9001C36.544 80.403 37.0611 81.5458 37.9814 82.0772C38.9017 82.6085 40.1499 82.4849 41.4515 81.7335L44.3382 80.0668L44.3391 80.0663C46.3971 78.8795 48.3711 78.6809 49.8305 79.514L49.8333 79.5157L51.8541 80.6824L51.8569 80.684C52.313 80.9503 52.8552 81.0575 53.4524 80.9995C54.0496 80.9414 54.69 80.7193 55.3368 80.3459C55.9835 79.9725 56.6239 79.4551 57.2211 78.8236C57.8183 78.192 58.3606 77.4587 58.8166 76.6658L58.8195 76.6609L60.8402 73.1609L60.8431 73.1559C62.3024 70.6377 64.2764 68.5568 66.3345 67.3673L66.3353 67.3668L69.222 65.7001C70.5236 64.9487 71.7718 63.631 72.6922 62.0369C73.6125 60.4429 74.1295 58.703 74.1295 57.2001V53.8668V53.8658C74.1307 51.4887 74.9458 48.7387 76.3969 46.2158L76.3998 46.2109L78.4205 42.7109L78.4234 42.7059C78.882 41.9145 79.246 41.0783 79.4943 40.2453C79.7427 39.4123 79.8705 38.599 79.8705 37.8522C79.8705 37.1054 79.7427 36.4397 79.4943 35.8935C79.246 35.3473 78.882 34.9313 78.4234 34.6695L78.4205 34.6679L76.3998 33.5012L76.3973 33.4998C74.9445 32.6528 74.1295 30.8406 74.1295 28.4668V25.1334C74.1295 23.6306 73.6125 22.4877 72.6922 21.9564C71.7718 21.425 70.5236 21.5487 69.222 22.3001L66.3353 23.9668C64.2795 25.1537 62.3026 25.354 60.8427 24.5193L60.8402 24.5179L58.8195 23.3512L58.8166 23.3496C58.3606 23.0833 57.8183 22.9761 57.2211 23.0341C56.6239 23.0921 55.9835 23.3142 55.3368 23.6876ZM52.3439 22.7722C53.2924 21.7691 54.3095 20.9474 55.3368 20.3543C56.364 19.7612 57.3811 19.4085 58.3296 19.3163C59.2774 19.2242 60.138 19.3942 60.8621 19.8165C60.8626 19.8168 60.8631 19.817 60.8636 19.8173L62.879 20.9809C62.8793 20.9811 62.8796 20.9813 62.8799 20.9814C63.7985 21.5061 65.0428 21.3796 66.3353 20.6334L69.222 18.9668C71.2892 17.7733 73.2717 17.5769 74.7334 18.4208C76.1951 19.2648 77.0163 21.0798 77.0163 23.4668V26.8001C77.0163 28.2925 77.5288 29.4333 78.4426 29.9666C78.4429 29.9667 78.4432 29.9669 78.4435 29.9671L80.4589 31.1307C80.4594 31.131 80.4599 31.1313 80.4604 31.1316C81.1881 31.5475 81.7656 32.2078 82.1598 33.0747C82.5542 33.9422 82.7573 34.9994 82.7573 36.1855C82.7573 37.3717 82.5542 38.6634 82.1598 39.9863C81.7657 41.3081 81.1883 42.6351 80.4608 43.8911C80.4601 43.8922 80.4595 43.8933 80.4589 43.8943L78.4439 47.3844C78.4434 47.3853 78.4428 47.3863 78.4423 47.3872C77.5296 48.975 77.017 50.7053 77.0163 52.2011V55.5334C77.0163 57.9204 76.1951 60.6837 74.7334 63.2154C73.2717 65.7472 71.2892 67.84 69.222 69.0335L66.3361 70.6996C65.0411 71.4482 63.7989 72.7573 62.8802 74.3415C62.8797 74.3425 62.8791 74.3434 62.8786 74.3443L60.8636 77.8344C60.863 77.8355 60.8623 77.8366 60.8617 77.8377C60.1378 79.0957 59.2773 80.2592 58.3296 81.2614C57.3811 82.2645 56.364 83.0862 55.3368 83.6793C54.3095 84.2723 53.2924 84.6251 52.3439 84.7172C51.3961 84.8093 50.5355 84.6394 49.8115 84.2171C49.811 84.2168 49.8105 84.2165 49.8099 84.2162L47.795 83.0529C47.7945 83.0526 47.794 83.0523 47.7936 83.0521C46.8749 82.5285 45.6326 82.6537 44.3374 83.4006L41.4515 85.0668C39.3843 86.2603 37.4018 86.4566 35.9401 85.6127C34.4784 84.7688 33.6573 82.9537 33.6573 80.5668L33.6573 77.2344C33.6573 77.2342 33.6573 77.2339 33.6573 77.2337C33.6573 77.2336 33.6573 77.2335 33.6573 77.2335C33.6563 75.7388 33.1436 74.6007 32.2309 74.067C32.2305 74.0667 32.2301 74.0665 32.2296 74.0662L30.2146 72.9029C30.2141 72.9026 30.2136 72.9023 30.2131 72.902C29.4854 72.4861 28.9079 71.8258 28.5138 70.9589C28.1193 70.0914 27.9163 69.0342 27.9163 67.848C27.9163 66.6619 28.1193 65.3702 28.5138 64.0472C28.9079 62.7253 29.4853 61.3982 30.2129 60.1422C30.2135 60.1412 30.2141 60.1402 30.2146 60.1392L32.2296 56.6492C32.2301 56.6483 32.2306 56.6475 32.2311 56.6467C33.1437 55.0592 33.6563 53.3291 33.6573 51.8334C33.6573 51.8334 33.6573 51.8333 33.6573 51.8332C33.6573 51.833 33.6573 51.8327 33.6573 51.8325L33.6573 48.5001C33.6573 46.1132 34.4784 43.3499 35.9401 40.8181C37.4018 38.2864 39.3843 36.1936 41.4515 35.0001L44.3374 33.3339C44.3376 33.3338 44.3378 33.3337 44.3381 33.3336C44.3381 33.3335 44.3382 33.3335 44.3382 33.3335C45.6331 32.5848 46.875 31.2758 47.7935 29.6917C47.794 29.6909 47.7945 29.6901 47.795 29.6892L49.8099 26.1992C49.8105 26.1982 49.8111 26.1972 49.8117 26.1962C50.5356 24.938 51.3962 23.7744 52.3439 22.7722ZM64.9889 38.5657C65.5525 38.8912 65.5525 39.9464 64.9889 40.9228L53.4418 60.9228C52.8782 61.8991 51.9643 62.4267 51.4006 62.1013L45.6271 58.7679C45.0634 58.4425 45.0634 57.3872 45.6271 56.4109C46.1908 55.4346 47.1047 54.907 47.6683 55.2324L52.4212 57.9765L62.9476 39.7442C63.5113 38.7679 64.4252 38.2403 64.9889 38.5657Z" fill="black"/>
</g>
<defs>
<clipPath id="clip0_1_7238">
<rect width="80" height="80" fill="white" transform="matrix(0.866025 -0.5 0 1 0.666992 32)"/>
</clipPath>
<clipPath id="clip1_1_7238">
<rect width="80" height="80" fill="white" transform="matrix(0.866025 -0.5 0 1 20.667 32)"/>
</clipPath>
<clipPath id="clip2_1_7238">
<rect width="80" height="80" fill="white" transform="matrix(0.866025 -0.5 0 1 20.667 32)"/>
</clipPath>
</defs>
</svg>
