<svg width="96" height="72" viewBox="0 0 96 72" fill="none" xmlns="http://www.w3.org/2000/svg">
<path d="M25.25 0H21.2888C20.0034 0 18.9541 1.00955 18.9541 2.24625V33.7333C18.9541 34.97 17.9048 35.9795 16.6194 35.9795H2.58473C1.29932 35.9795 0.25 36.9891 0.25 38.2258V51.7538C0.25 52.9905 1.29932 54 2.58473 54H16.6194C17.9048 54 18.9541 52.9905 18.9541 51.7538V38.2258C18.9541 36.9891 20.0034 35.9795 21.2888 35.9795H25.25V0Z" fill="#1482FF"/>
<rect width="64" height="36" transform="translate(25.25)" fill="#1482FF"/>
<path d="M93.025 0H89.25V36H93.025C94.25 36 95.25 34.9901 95.25 33.7529V2.24707C95.25 1.00992 94.25 0 93.025 0Z" fill="#1482FF"/>
</svg>
