<svg width="571" height="657" viewBox="0 0 571 657" fill="none" xmlns="http://www.w3.org/2000/svg">
<path fill-rule="evenodd" clip-rule="evenodd" d="M294.148 168.636V286.377L402.574 347.261L510.999 286.377V168.636L402.524 109.758L294.148 168.636Z" fill="url(#paint0_linear_1_8757)"/>
<path fill-rule="evenodd" clip-rule="evenodd" d="M402.478 109.758C400.973 109.758 399.576 110.062 398.287 110.669C397.212 111.277 297.914 165.153 296.84 165.76C295.872 166.165 295.228 167.077 295.12 168.09C295.228 169.102 295.872 170.014 296.84 170.419C297.914 170.925 397.212 224.801 398.287 225.409C400.973 226.725 404.09 226.725 406.777 225.409C407.851 224.902 507.149 171.026 508.224 170.419C509.191 170.014 509.836 169.102 509.943 168.09C509.836 167.077 509.191 166.165 508.224 165.76C507.149 165.254 407.851 111.378 406.777 110.771C405.38 110.062 403.982 109.758 402.478 109.758Z" fill="url(#paint1_linear_1_8757)"/>
<path fill-rule="evenodd" clip-rule="evenodd" d="M354.148 350.101V467.842L462.574 528.726L570.999 467.842V350.101L462.524 291.223L354.148 350.101Z" fill="url(#paint2_linear_1_8757)"/>
<path fill-rule="evenodd" clip-rule="evenodd" d="M462.478 291.223C460.973 291.223 459.576 291.526 458.287 292.134C457.212 292.742 357.914 346.618 356.84 347.225C355.872 347.63 355.228 348.542 355.12 349.554C355.228 350.567 355.872 351.479 356.84 351.884C357.914 352.39 457.212 406.266 458.287 406.873C460.973 408.19 464.09 408.19 466.777 406.873C467.851 406.367 567.149 352.491 568.224 351.884C569.191 351.479 569.836 350.567 569.943 349.554C569.836 348.542 569.191 347.63 568.224 347.225C567.149 346.719 467.851 292.843 466.777 292.235C465.38 291.526 463.982 291.223 462.478 291.223Z" fill="url(#paint3_linear_1_8757)"/>
<rect width="136.977" height="136.977" rx="18.2636" transform="matrix(0.859406 0.511293 0 1 347.22 5.91357)" fill="#0309BB"/>
<g clip-path="url(#clip0_1_8757)">
<rect width="136.977" height="136.977" rx="18.2636" transform="matrix(0.859406 0.511293 0 1 329.242 10.2734)" fill="white"/>
<g clip-path="url(#clip1_1_8757)">
<path d="M412.139 129.135L387.802 143.35L363.465 101.039C361.859 98.2812 360.595 95.3498 359.751 92.4298C358.907 89.5099 358.502 86.6646 358.561 84.0732C358.62 81.4818 359.142 79.2004 360.094 77.3726C361.046 75.5449 362.407 74.2104 364.093 73.4531C365.778 72.6959 367.75 72.5324 369.886 72.9728C372.021 73.4133 374.274 74.4482 376.501 76.0123C378.728 77.5765 380.882 79.6361 382.827 82.0613C384.772 84.4866 386.466 87.225 387.802 90.1042C389.144 88.7861 390.84 88.0197 392.783 87.8528C394.727 87.6859 396.877 88.1221 399.098 89.1342C401.319 90.1463 403.563 91.7125 405.691 93.7347C407.818 95.7569 409.784 98.1916 411.463 100.886C413.142 103.581 414.5 106.478 415.451 109.396C416.401 112.314 416.925 115.19 416.988 117.843C417.052 120.497 416.654 122.872 415.82 124.819C414.985 126.765 413.732 128.243 412.139 129.158M387.801 90.0808L377.115 96.4424C376.507 96.8048 376.165 97.5751 376.165 98.5841C376.165 99.593 376.507 100.758 377.115 101.823L378.877 104.906C381.116 108.823 384.75 110.921 386.989 109.588L390.234 107.656C392.171 106.504 394.797 106.744 397.535 108.325C400.274 109.905 402.9 112.697 404.837 116.085L412.138 128.86M389.424 127.164L395.913 138.52M397.536 122.335L404.026 133.69" stroke="black" stroke-width="4.56589" stroke-linecap="round" stroke-linejoin="round"/>
</g>
</g>
<rect width="136.977" height="136.977" rx="18.2636" transform="matrix(0.859406 0.511293 0 1 407.221 187.378)" fill="#0309BB"/>
<g clip-path="url(#clip2_1_8757)">
<rect width="136.977" height="136.977" rx="18.2636" transform="matrix(0.859406 0.511293 0 1 389.242 191.738)" fill="white"/>
<g clip-path="url(#clip3_1_8757)">
<path d="M420.544 267.228L475.059 298.695M420.544 290.057L475.059 321.524M446.178 259.195C440.712 266.311 437.814 276.503 437.814 288.611C437.814 300.719 440.712 314.256 446.178 327.683M449.424 261.068C454.89 274.496 457.789 288.033 457.789 300.141C457.789 312.249 454.89 322.44 449.424 329.557M418.596 277.519C418.596 282.016 419.352 286.905 420.82 291.906C422.287 296.908 424.438 301.925 427.15 306.67C429.862 311.416 433.082 315.796 436.625 319.562C440.168 323.329 443.966 326.406 447.801 328.62C451.636 330.834 455.434 332.14 458.977 332.465C462.521 332.789 465.74 332.125 468.452 330.51C471.164 328.896 473.315 326.362 474.783 323.055C476.25 319.747 477.006 315.73 477.006 311.233C477.006 302.151 473.929 291.665 468.452 282.082C462.975 272.498 455.547 264.603 447.801 260.132C440.056 255.661 432.627 254.981 427.15 258.242C421.673 261.502 418.596 268.436 418.596 277.519Z" stroke="black" stroke-width="4.56589" stroke-linecap="round" stroke-linejoin="round"/>
</g>
</g>
<path fill-rule="evenodd" clip-rule="evenodd" d="M149.27 260.832V378.572L257.695 439.456L366.12 378.572V260.832L257.645 201.953L149.27 260.832Z" fill="url(#paint4_linear_1_8757)"/>
<path fill-rule="evenodd" clip-rule="evenodd" d="M257.599 201.953C256.095 201.953 254.697 202.257 253.408 202.865C252.333 203.472 153.035 257.348 151.961 257.956C150.993 258.361 150.349 259.272 150.241 260.285C150.349 261.298 150.993 262.209 151.961 262.614C153.035 263.12 252.333 316.996 253.408 317.604C256.095 318.92 259.211 318.92 261.898 317.604C262.972 317.097 362.27 263.222 363.345 262.614C364.312 262.209 364.957 261.298 365.064 260.285C364.957 259.272 364.312 258.361 363.345 257.956C362.27 257.449 262.972 203.573 261.898 202.966C260.501 202.257 259.104 201.953 257.599 201.953Z" fill="url(#paint5_linear_1_8757)"/>
<path fill-rule="evenodd" clip-rule="evenodd" d="M11.707 338.394V456.135L120.132 517.019L228.558 456.135V338.394L120.082 279.516L11.707 338.394Z" fill="url(#paint6_linear_1_8757)"/>
<path fill-rule="evenodd" clip-rule="evenodd" d="M120.037 279.516C118.532 279.516 117.135 279.819 115.845 280.427C114.771 281.035 15.4728 334.91 14.3982 335.518C13.431 335.923 12.7862 336.835 12.6787 337.847C12.7862 338.86 13.431 339.771 14.3982 340.177C15.4728 340.683 114.771 394.559 115.845 395.166C118.532 396.483 121.649 396.483 124.335 395.166C125.41 394.66 224.708 340.784 225.782 340.177C226.75 339.771 227.394 338.86 227.502 337.847C227.394 336.835 226.75 335.923 225.782 335.518C224.708 335.012 125.41 281.136 124.335 280.528C122.938 279.819 121.541 279.516 120.037 279.516Z" fill="url(#paint7_linear_1_8757)"/>
<rect width="136.977" height="136.977" rx="18.2636" transform="matrix(0.859406 0.511293 0 1 64.7791 165.425)" fill="#0309BB"/>
<g clip-path="url(#clip4_1_8757)">
<rect width="136.977" height="136.977" rx="18.2636" transform="matrix(0.859406 0.511293 0 1 46.8004 169.785)" fill="white"/>
<g clip-path="url(#clip5_1_8757)">
<path d="M105.36 245.788V299.057M79.4 257.438L131.32 287.407M124.181 313.726L85.241 285.542C81.996 283.288 79.4 278.746 79.4 274.941V239.936C79.4 236.131 81.996 234.585 85.241 236.078L124.181 252.847C128.075 254.714 131.32 260.012 131.32 264.197V310.237C131.32 314.802 127.75 316.167 124.181 313.345V313.726Z" stroke="black" stroke-width="4.56589" stroke-linecap="round" stroke-linejoin="round"/>
</g>
</g>
<rect width="136.977" height="136.977" rx="18.2636" transform="matrix(0.859406 0.511293 0 1 202.342 98.1089)" fill="#0309BB"/>
<g clip-path="url(#clip6_1_8757)">
<rect width="136.977" height="136.977" rx="18.2636" transform="matrix(0.859406 0.511293 0 1 184.363 102.469)" fill="white"/>
<g clip-path="url(#clip7_1_8757)">
<path d="M261.493 198.362C258.169 192.446 253.97 187.176 249.357 183.13M236.471 175.692C231.782 174.396 227.523 174.858 224.176 177.027M218.072 185.737C217.335 188.173 216.961 190.932 216.963 193.923C216.963 196.731 217.287 199.639 217.894 202.573M224.254 219.287C227.585 225.256 231.807 230.578 236.452 234.661M249.432 242.153C254.061 243.42 258.269 242.97 261.591 240.854M267.957 231.478C268.577 229.194 268.89 226.648 268.889 223.907C268.889 221 268.541 217.988 267.892 214.95M236.432 174.726C236.432 176.744 237.116 179.075 238.333 181.204C239.55 183.334 241.201 185.088 242.922 186.082C244.643 187.075 246.294 187.227 247.511 186.502C248.728 185.777 249.412 184.236 249.412 182.218C249.412 180.2 248.728 177.87 247.511 175.74C246.294 173.61 244.643 171.856 242.922 170.862C241.201 169.869 239.55 169.718 238.333 170.442C237.116 171.167 236.432 172.708 236.432 174.726ZM213.718 207.274C213.718 209.292 214.401 211.622 215.618 213.752C216.835 215.881 218.486 217.636 220.207 218.629C221.929 219.623 223.579 219.774 224.797 219.05C226.014 218.325 226.697 216.784 226.697 214.766C226.697 212.748 226.014 210.417 224.797 208.288C223.579 206.158 221.929 204.403 220.207 203.41C218.486 202.416 216.835 202.265 215.618 202.99C214.401 203.714 213.718 205.255 213.718 207.274ZM259.147 233.496C259.147 235.514 259.831 237.845 261.048 239.974C262.265 242.104 263.916 243.859 265.637 244.852C267.358 245.846 269.009 245.997 270.226 245.272C271.443 244.548 272.127 243.007 272.127 240.988C272.127 238.97 271.443 236.64 270.226 234.51C269.009 232.381 267.358 230.626 265.637 229.632C263.916 228.639 262.265 228.488 261.048 229.212C259.831 229.937 259.147 231.478 259.147 233.496Z" stroke="black" stroke-width="4.56589" stroke-linecap="round" stroke-linejoin="round"/>
</g>
</g>
<path fill-rule="evenodd" clip-rule="evenodd" d="M191.711 477.418V595.158L300.136 656.042L408.562 595.158V477.418L300.086 418.539L191.711 477.418Z" fill="url(#paint8_linear_1_8757)"/>
<path fill-rule="evenodd" clip-rule="evenodd" d="M300.04 418.539C298.536 418.539 297.139 418.843 295.849 419.45C294.775 420.058 195.477 473.934 194.402 474.542C193.435 474.947 192.79 475.858 192.683 476.871C192.79 477.883 193.435 478.795 194.402 479.2C195.477 479.706 294.775 533.582 295.849 534.19C298.536 535.506 301.652 535.506 304.339 534.19C305.414 533.683 404.712 479.808 405.786 479.2C406.753 478.795 407.398 477.883 407.506 476.871C407.398 475.858 406.753 474.947 405.786 474.542C404.712 474.035 305.414 420.159 304.339 419.552C302.942 418.843 301.545 418.539 300.04 418.539Z" fill="url(#paint9_linear_1_8757)"/>
<rect width="136.977" height="136.977" rx="18.2636" transform="matrix(0.859406 0.511293 0 1 244.779 314.695)" fill="#0309BB"/>
<g clip-path="url(#clip8_1_8757)">
<rect width="136.977" height="136.977" rx="18.2636" transform="matrix(0.859406 0.511293 0 1 226.8 319.055)" fill="white"/>
<g clip-path="url(#clip9_1_8757)">
<path d="M269.135 397.107L256.155 404.835L269.135 427.547M301.585 415.838L314.564 438.55L301.585 446.277M291.85 394.999L278.87 448.385" stroke="black" stroke-width="4.56589" stroke-linecap="round" stroke-linejoin="round"/>
</g>
</g>
<defs>
<linearGradient id="paint0_linear_1_8757" x1="402.574" y1="109.758" x2="402.574" y2="347.261" gradientUnits="userSpaceOnUse">
<stop offset="0.31" stop-color="#63ABFD"/>
<stop offset="0.81" stop-color="#1482FF"/>
<stop offset="1" stop-color="#1482FF"/>
</linearGradient>
<linearGradient id="paint1_linear_1_8757" x1="402.532" y1="109.758" x2="402.532" y2="226.396" gradientUnits="userSpaceOnUse">
<stop offset="0.31" stop-color="#4A9EFF"/>
<stop offset="0.81" stop-color="#2F90FF"/>
<stop offset="1" stop-color="#1482FF"/>
</linearGradient>
<linearGradient id="paint2_linear_1_8757" x1="462.574" y1="291.223" x2="462.574" y2="528.726" gradientUnits="userSpaceOnUse">
<stop offset="0.31" stop-color="#63ABFD"/>
<stop offset="0.81" stop-color="#1482FF"/>
<stop offset="1" stop-color="#1482FF"/>
</linearGradient>
<linearGradient id="paint3_linear_1_8757" x1="462.532" y1="291.223" x2="462.532" y2="407.861" gradientUnits="userSpaceOnUse">
<stop offset="0.31" stop-color="#4A9EFF"/>
<stop offset="0.81" stop-color="#2F90FF"/>
<stop offset="1" stop-color="#1482FF"/>
</linearGradient>
<linearGradient id="paint4_linear_1_8757" x1="257.695" y1="201.953" x2="257.695" y2="439.456" gradientUnits="userSpaceOnUse">
<stop offset="0.31" stop-color="#63ABFD"/>
<stop offset="0.81" stop-color="#1482FF"/>
<stop offset="1" stop-color="#1482FF"/>
</linearGradient>
<linearGradient id="paint5_linear_1_8757" x1="257.653" y1="201.953" x2="257.653" y2="318.591" gradientUnits="userSpaceOnUse">
<stop offset="0.31" stop-color="#4A9EFF"/>
<stop offset="0.81" stop-color="#2F90FF"/>
<stop offset="1" stop-color="#1482FF"/>
</linearGradient>
<linearGradient id="paint6_linear_1_8757" x1="120.132" y1="279.516" x2="120.132" y2="517.019" gradientUnits="userSpaceOnUse">
<stop offset="0.31" stop-color="#63ABFD"/>
<stop offset="0.81" stop-color="#1482FF"/>
<stop offset="1" stop-color="#1482FF"/>
</linearGradient>
<linearGradient id="paint7_linear_1_8757" x1="120.09" y1="279.516" x2="120.09" y2="396.154" gradientUnits="userSpaceOnUse">
<stop offset="0.31" stop-color="#4A9EFF"/>
<stop offset="0.81" stop-color="#2F90FF"/>
<stop offset="1" stop-color="#1482FF"/>
</linearGradient>
<linearGradient id="paint8_linear_1_8757" x1="300.136" y1="418.539" x2="300.136" y2="656.042" gradientUnits="userSpaceOnUse">
<stop offset="0.31" stop-color="#63ABFD"/>
<stop offset="0.81" stop-color="#1482FF"/>
<stop offset="1" stop-color="#1482FF"/>
</linearGradient>
<linearGradient id="paint9_linear_1_8757" x1="300.094" y1="418.539" x2="300.094" y2="535.177" gradientUnits="userSpaceOnUse">
<stop offset="0.31" stop-color="#4A9EFF"/>
<stop offset="0.81" stop-color="#2F90FF"/>
<stop offset="1" stop-color="#1482FF"/>
</linearGradient>
<clipPath id="clip0_1_8757">
<rect width="136.977" height="136.977" rx="18.2636" transform="matrix(0.859406 0.511293 0 1 329.242 10.2734)" fill="white"/>
</clipPath>
<clipPath id="clip1_1_8757">
<rect width="91.3178" height="91.3178" fill="white" transform="matrix(0.852838 0.492271 0 1 348.861 44.7754)"/>
</clipPath>
<clipPath id="clip2_1_8757">
<rect width="136.977" height="136.977" rx="18.2636" transform="matrix(0.859406 0.511293 0 1 389.242 191.738)" fill="white"/>
</clipPath>
<clipPath id="clip3_1_8757">
<rect width="91.3178" height="91.3178" fill="white" transform="matrix(0.852838 0.492271 0 1 408.862 226.24)"/>
</clipPath>
<clipPath id="clip4_1_8757">
<rect width="136.977" height="136.977" rx="18.2636" transform="matrix(0.859406 0.511293 0 1 46.8004 169.785)" fill="white"/>
</clipPath>
<clipPath id="clip5_1_8757">
<rect width="91.3178" height="91.3178" fill="white" transform="matrix(0.852838 0.492271 0 1 66.4201 204.287)"/>
</clipPath>
<clipPath id="clip6_1_8757">
<rect width="136.977" height="136.977" rx="18.2636" transform="matrix(0.859406 0.511293 0 1 184.363 102.469)" fill="white"/>
</clipPath>
<clipPath id="clip7_1_8757">
<rect width="91.3178" height="91.3178" fill="white" transform="matrix(0.852838 0.492271 0 1 203.983 136.971)"/>
</clipPath>
<clipPath id="clip8_1_8757">
<rect width="136.977" height="136.977" rx="18.2636" transform="matrix(0.859406 0.511293 0 1 226.8 319.055)" fill="white"/>
</clipPath>
<clipPath id="clip9_1_8757">
<rect width="91.3178" height="91.3178" fill="white" transform="matrix(0.852838 0.492271 0 1 246.42 353.557)"/>
</clipPath>
</defs>
</svg>
