<svg width="49" height="56" viewBox="0 0 49 56" fill="none" xmlns="http://www.w3.org/2000/svg">
<g clip-path="url(#clip0_1_7496)">
<mask id="mask0_1_7496" style="mask-type:luminance" maskUnits="userSpaceOnUse" x="3" y="-2" width="41" height="62">
<path d="M3.04968 59.2276L3.15191 4.0075L43.6062 -1.6792L43.504 53.5447L3.04968 59.2276Z" fill="white"/>
</mask>
<g mask="url(#mask0_1_7496)">
<mask id="mask1_1_7496" style="mask-type:luminance" maskUnits="userSpaceOnUse" x="3" y="-2" width="38" height="60">
<path d="M3.04968 57.7398L3.22384 9.66028L40.566 -1.25122L40.3956 46.8283L3.04968 57.7398Z" fill="white"/>
</mask>
<g mask="url(#mask1_1_7496)">
<path d="M23.9186 47.6802C23.8466 47.7029 23.7747 47.718 23.7028 47.7256C23.7709 47.7142 23.8429 47.6991 23.9186 47.6802ZM22.2603 46.2377C22.2565 46.7601 22.4306 47.1577 22.7676 47.4114C22.4306 47.1577 22.2565 46.7564 22.2603 46.2377ZM21.1358 43.2277C21.0601 43.2391 20.9844 43.2542 20.9048 43.2769L19.3942 43.7199C19.3223 43.7426 19.2503 43.7578 19.1822 43.7654C19.2503 43.754 19.3223 43.7388 19.3942 43.7199L20.9048 43.2769C20.9844 43.2542 21.0639 43.2353 21.1358 43.2277ZM18.3152 43.5155C18.5272 43.6972 18.7733 43.7881 19.0459 43.7767C18.7695 43.7843 18.5272 43.6972 18.3152 43.5155ZM23.8088 42.0768C23.8088 42.0768 23.7823 42.0805 23.7671 42.0843C23.7823 42.0843 23.7936 42.0805 23.8088 42.0768ZM16.6039 39.0365C16.903 38.9949 17.1528 39.063 17.3573 39.2448C17.1528 39.063 16.903 38.9911 16.6039 39.0365ZM16.6039 39.0365C16.5319 39.0479 16.4562 39.063 16.3805 39.0858L14.8623 39.5287C14.7903 39.5514 14.7222 39.5666 14.6502 39.5742C14.7184 39.5628 14.7903 39.5477 14.8623 39.5287L16.3805 39.0858C16.46 39.063 16.5319 39.0479 16.6039 39.0365ZM18.4628 37.6205C18.6332 37.7871 18.8149 37.878 19.0194 37.8969C18.8149 37.878 18.6294 37.7871 18.4628 37.6205ZM13.1926 38.0029C13.1926 38.0976 13.1926 38.1884 13.2115 38.2604C13.2115 38.3134 13.2191 38.3588 13.2305 38.3853C13.2835 38.7601 13.45 39.0555 13.7151 39.2523C13.9536 39.4871 14.2338 39.5969 14.5518 39.5779C14.2338 39.5969 13.9498 39.4871 13.7151 39.2523C13.45 39.0555 13.2872 38.7601 13.2305 38.3853C13.2229 38.3588 13.2153 38.3134 13.2115 38.2604C13.1964 38.1884 13.1926 38.0976 13.1926 38.0029ZM12.0681 35.0044C11.9962 35.0157 11.9167 35.0309 11.8372 35.0536L10.3227 35.4965C10.2508 35.5193 10.1789 35.5344 10.1107 35.542C10.1789 35.5306 10.2508 35.5155 10.3227 35.4965L11.8372 35.0536C11.9167 35.0309 11.9924 35.0119 12.0681 35.0044ZM14.7373 33.8496C14.7373 33.8496 14.7108 33.8534 14.6957 33.8572C14.6957 33.8572 14.7222 33.8534 14.7373 33.8496ZM9.17177 35.2202C9.39515 35.4435 9.6526 35.5533 9.94791 35.5533C9.65639 35.5533 9.39515 35.4435 9.17177 35.2202ZM12.6247 29.3782C12.7799 29.4199 12.9238 29.4994 13.0487 29.6092C12.92 29.4956 12.7799 29.4199 12.6247 29.3782ZM11.9886 29.3744C11.947 29.382 11.9015 29.3934 11.8561 29.4085C11.9015 29.3972 11.9432 29.3858 11.9886 29.3744ZM12.1136 29.3517C12.0946 29.3517 12.0719 29.3593 12.0492 29.3631C12.0719 29.3593 12.0908 29.3555 12.1136 29.3517ZM16.3994 28.3219L14.8888 28.7649C14.8168 28.7876 14.7449 28.8027 14.6729 28.8103C14.7411 28.799 14.813 28.7838 14.8888 28.7649L16.3994 28.3219ZM19.2995 27.1179C19.2995 27.1179 19.2693 27.1217 19.2579 27.1255C19.273 27.1255 19.2844 27.1217 19.2995 27.1179ZM19.4321 27.0876C19.3866 27.099 19.345 27.1104 19.2995 27.1179C19.3412 27.1104 19.3866 27.099 19.4321 27.0876ZM18.5348 26.8983C18.69 27.0422 18.8604 27.1179 19.0459 27.1331C18.8604 27.1179 18.69 27.0384 18.5348 26.8983ZM13.734 28.4885C13.9612 28.7194 14.23 28.8292 14.5367 28.8217C14.23 28.833 13.9612 28.7232 13.734 28.4885ZM17.0695 22.6238C17.1793 22.639 17.2853 22.6731 17.38 22.7223C17.2816 22.6731 17.1793 22.6428 17.0695 22.6238ZM16.6796 22.6238C16.6569 22.6238 16.6379 22.6314 16.6152 22.6352C16.6379 22.6314 16.6569 22.6276 16.6796 22.6238ZM24.7326 20.5983L23.9943 20.8141C23.6308 20.9201 23.3128 21.1624 23.0553 21.5335C22.7638 21.9272 22.6237 22.3399 22.6237 22.8056L22.6162 24.5699C22.6124 25.0924 22.4571 25.5921 22.1391 26.0427C21.8324 26.5311 21.4311 26.8529 20.9465 26.993L19.4321 27.4398C19.3601 27.4625 19.2882 27.4776 19.22 27.4852C18.8566 27.5382 18.5385 27.4284 18.2811 27.1672C17.9441 26.9135 17.7738 26.5084 17.7738 25.9859L17.7813 24.2216C17.7813 23.7521 17.6602 23.4114 17.4027 23.188C17.1945 23.0062 16.9446 22.9419 16.6417 22.9835C16.5698 22.9949 16.4978 23.01 16.4183 23.0327L14.9077 23.4757C14.5404 23.5817 14.2262 23.824 13.9725 24.1913C13.6772 24.585 13.5409 24.9939 13.5409 25.4634L13.5333 27.2277C13.5296 27.6556 13.6696 27.9698 13.9536 28.1856C14.177 28.409 14.4193 28.4999 14.7108 28.4582C14.7676 28.4506 14.8282 28.4355 14.8925 28.4166L16.407 27.9736C16.4978 27.9471 16.5849 27.9282 16.6682 27.9168C17.0355 27.8638 17.3497 27.9509 17.6034 28.1705C17.9138 28.4393 18.0691 28.8595 18.0691 29.4199L18.0615 31.2978C18.0577 31.824 17.8987 32.3238 17.5845 32.7706C17.2778 33.259 16.8727 33.5808 16.3843 33.7209L14.8736 34.1638C14.8017 34.1866 14.7297 34.2017 14.6616 34.2093C14.2981 34.2585 13.9839 34.1525 13.7226 33.8912C13.3895 33.6376 13.2153 33.2362 13.2191 32.71L13.2267 30.9457C13.2267 30.4724 13.1017 30.1354 12.8481 29.9158C12.6436 29.7379 12.3937 29.666 12.0946 29.7076C12.0227 29.719 11.947 29.7341 11.8675 29.7568L10.353 30.1998C9.9782 30.3096 9.67153 30.5443 9.41786 30.9154C9.12633 31.3016 8.99003 31.7105 8.98625 32.1799L8.97868 33.9442C8.97868 34.3796 9.11497 34.6901 9.39515 34.9021C9.62231 35.1293 9.87219 35.2164 10.1599 35.1747C10.2167 35.1672 10.2735 35.1558 10.3341 35.1369L11.8485 34.6939C11.9394 34.6674 12.0265 34.6485 12.1098 34.6371C12.477 34.5841 12.7913 34.6712 13.0449 34.8908C13.3554 35.1596 13.5144 35.5836 13.5144 36.144L13.5068 37.9045C13.5068 37.9802 13.5068 38.0521 13.522 38.1165C13.522 38.1619 13.5296 38.1884 13.5333 38.2112C13.5826 38.5292 13.7151 38.7639 13.9347 38.9305C14.1618 39.1539 14.4079 39.241 14.7032 39.1993C14.76 39.1918 14.8168 39.1804 14.8774 39.1615L16.3918 38.7185C16.4789 38.692 16.566 38.6731 16.6493 38.6617C17.0165 38.6087 17.3308 38.6958 17.5882 38.9154C17.8987 39.1918 18.0539 39.6158 18.0539 40.1724L18.0464 41.9329C18.0464 41.9897 18.0464 42.0389 18.0539 42.0919V42.1563C18.0501 42.5879 18.1864 42.9021 18.4742 43.1141C18.6976 43.3413 18.9437 43.4284 19.2352 43.3867C19.292 43.3792 19.3488 43.3678 19.4093 43.3489L20.9238 42.9059C21.0146 42.8794 21.1017 42.8605 21.185 42.8491C21.5523 42.7961 21.8665 42.8832 22.1164 43.1066C22.4269 43.3792 22.5821 43.7994 22.5821 44.3598L22.5745 46.1279C22.5707 46.5557 22.7108 46.8699 22.9948 47.0858C23.2181 47.3053 23.468 47.3924 23.7596 47.3508C23.8163 47.3432 23.8731 47.3318 23.9337 47.3129L24.6531 47.1009L24.672 42.16L23.9526 42.3683C23.8807 42.391 23.8088 42.4061 23.7406 42.4137C23.3809 42.4629 23.0629 42.3569 22.8017 42.0919C22.4647 41.842 22.2906 41.4407 22.2943 40.9144L22.3019 39.1539C22.3019 39.0933 22.3019 39.0327 22.2943 38.976V38.9267C22.2943 38.3626 22.4761 37.8439 22.8244 37.3744C23.1273 36.9315 23.5135 36.6324 23.9678 36.4999L24.6947 36.2878L24.7136 31.3432L24.0057 31.5514C23.9526 31.5704 23.9072 31.5855 23.858 31.6044C23.7596 31.6461 23.6838 31.684 23.6157 31.7294C23.4037 31.8581 23.2181 32.0398 23.0553 32.2746C22.7638 32.6645 22.6237 33.0734 22.6237 33.5429L22.6162 35.3072C22.6162 35.8297 22.4534 36.3295 22.1391 36.78C21.8287 37.2684 21.4235 37.5902 20.9427 37.7303L19.4245 38.1733C19.3526 38.196 19.2806 38.2112 19.2125 38.2187C18.8528 38.268 18.5385 38.1619 18.2773 37.9007C17.9403 37.6508 17.77 37.2495 17.77 36.7232L17.7775 34.9589C17.7775 34.887 17.7775 34.8188 17.77 34.7545C17.8003 34.2282 17.9782 33.7625 18.2924 33.3423C18.5991 32.8917 18.9853 32.5964 19.4358 32.4639L20.9503 32.0209C21.3516 31.9073 21.6696 31.6499 21.9309 31.2372C22.1883 30.8624 22.3171 30.4686 22.3171 30.0294L22.3246 28.1515C22.3246 27.5874 22.5026 27.0649 22.8509 26.603C23.1576 26.1525 23.5475 25.8572 23.9943 25.7284L24.7326 25.5126L24.7515 20.568M24.9295 5.61675C23.9526 5.90449 22.9796 6.47998 22.105 7.32049L9.34593 19.5988C7.60054 21.276 6.51015 23.7786 6.50258 26.1184C6.51015 23.7786 7.60433 21.276 9.34593 19.5988L22.105 7.32049C22.9796 6.47998 23.9526 5.90449 24.9295 5.61675ZM25.664 5.45773C25.664 5.45773 25.6337 5.46152 25.6185 5.46531C25.6337 5.46531 25.6488 5.46152 25.664 5.45773ZM22.6237 4.39384C22.3814 4.42792 22.1353 4.48092 21.8892 4.55286C20.9162 4.8406 19.9394 5.41609 19.0648 6.2566L6.30949 18.5349C4.56789 20.2121 3.47371 22.7147 3.46613 25.0507L3.40556 42.1714C3.39799 44.5112 4.47323 46.3778 6.21105 47.0403L7.79742 47.6461C6.74867 46.6806 6.13911 45.1359 6.14668 43.3224L6.17697 34.762L6.20726 26.0881C6.25269 23.6537 7.39231 21.0791 9.20205 19.3375L21.9536 7.06303C22.8736 6.17709 23.9034 5.56753 24.9295 5.26843C25.1869 5.19271 25.4482 5.13592 25.7056 5.10184C25.7851 5.09048 25.8608 5.08291 25.9403 5.07534L24.7136 4.60586C24.5849 4.55665 24.4524 4.515 24.3161 4.47714C24.1609 4.43549 24.0019 4.4052 23.8429 4.38249C23.7936 4.37491 23.7444 4.37113 23.6952 4.36356C23.3885 4.33327 23.0743 4.33705 22.76 4.37113C22.7146 4.37491 22.6692 4.38249 22.6237 4.39006" fill="#00D18B"/>
<path d="M22.6692 4.03401C22.4118 4.07187 22.1543 4.12487 21.8969 4.20059C20.8671 4.4997 19.841 5.10926 18.921 5.99141L6.1619 18.2697C4.35215 20.0113 3.21254 22.5896 3.16711 25.0203L3.13682 33.698L3.10653 42.2583C3.09517 44.7231 4.22721 46.6918 6.05589 47.3885L18.7544 52.2271C19.0157 52.3255 19.2845 52.3975 19.5609 52.4429L9.09233 48.4486C8.60771 48.2631 8.17231 47.9905 7.7937 47.6421L6.20733 47.0364C4.46952 46.3738 3.39427 44.5111 3.40184 42.1675L3.46242 25.0468C3.46999 22.7108 4.56417 20.2082 6.30577 18.5309L19.0687 6.25265C19.9433 5.41214 20.9163 4.83666 21.8931 4.54891C22.1392 4.47698 22.3853 4.42397 22.6276 4.3899C22.673 4.38233 22.7185 4.37854 22.7639 4.37097C23.0819 4.33689 23.3962 4.33311 23.6991 4.3634C23.7483 4.36718 23.7975 4.37475 23.8467 4.38233C24.0057 4.40504 24.1647 4.43533 24.32 4.47698C24.4525 4.51105 24.585 4.5527 24.7175 4.60571L25.9442 5.07518C26.3342 5.03732 26.7166 5.04868 27.0876 5.10926L24.869 4.26496C24.1837 4.00372 23.4378 3.93178 22.673 4.03779" fill="#231F20"/>
</g>
<mask id="mask2_1_7496" style="mask-type:luminance" maskUnits="userSpaceOnUse" x="6" y="-1" width="38" height="60">
<path d="M6.08618 58.8035L6.26034 10.724L43.6025 -0.1875L43.4321 47.892L6.08618 58.8035Z" fill="white"/>
</mask>
<g mask="url(#mask2_1_7496)">
<path d="M24.6758 36.6588L23.9489 36.8708C23.5741 36.9806 23.2674 37.2192 23.0137 37.5902C22.7222 37.9764 22.5821 38.3928 22.5821 38.8585V38.9002C22.5821 38.9532 22.5897 39.0175 22.5859 39.0857L22.5783 40.8462C22.5745 41.2778 22.7146 41.5921 22.9986 41.8041C23.2257 42.0275 23.4756 42.1184 23.7672 42.0767C23.7823 42.0767 23.7937 42.0729 23.8088 42.0691C23.8239 42.0691 23.8353 42.0653 23.8504 42.0616C23.8807 42.054 23.9072 42.0464 23.9375 42.0388L24.6569 41.8306V40.4525L24.6645 39.9641L24.6758 36.655" fill="white"/>
<path d="M24.6758 36.3105L23.9489 36.5226C23.4984 36.6551 23.1122 36.9542 22.8055 37.3972C22.4572 37.8666 22.2755 38.3891 22.2755 38.9494V38.9987C22.2755 39.0555 22.283 39.116 22.2792 39.1766L22.2717 40.9371C22.2679 41.4634 22.442 41.8647 22.779 42.1146C23.0402 42.3796 23.3545 42.4857 23.718 42.4364C23.7861 42.4251 23.858 42.4099 23.93 42.391L24.6493 42.1828V41.8344L23.93 42.0427C23.8997 42.0503 23.8732 42.0578 23.8429 42.0654C23.8277 42.0654 23.8126 42.073 23.8012 42.073C23.7861 42.073 23.7747 42.0768 23.7596 42.0805C23.4681 42.1222 23.2182 42.0313 22.991 41.8079C22.7071 41.5959 22.567 41.2817 22.5708 40.8501L22.5783 39.0895C22.5783 39.0214 22.5783 38.957 22.5708 38.904V38.8624C22.5708 38.3967 22.7109 37.9802 23.0024 37.594C23.256 37.2192 23.5627 36.9807 23.9375 36.8747L24.6645 36.6627V36.3105" fill="#231F20"/>
<path d="M24.7137 25.8949L23.9754 26.1107C23.6006 26.2205 23.2939 26.4553 23.0403 26.8301C22.7449 27.2201 22.6049 27.629 22.6049 28.0946L22.5973 29.9725C22.5935 30.4988 22.4345 30.9948 22.124 31.4453C21.8136 31.9337 21.4085 32.2593 20.9276 32.3994L19.4132 32.8424C19.0384 32.9522 18.7317 33.1869 18.4742 33.5618C18.2092 33.9214 18.0729 34.2811 18.0464 34.69C18.054 34.7392 18.0578 34.8149 18.0578 34.902L18.0502 36.6663C18.0502 37.0942 18.1865 37.4084 18.4629 37.6242C18.6333 37.7908 18.815 37.8817 19.0194 37.9006C19.0876 37.9082 19.1595 37.9006 19.2315 37.893C19.2882 37.8855 19.345 37.8741 19.4056 37.8552L20.92 37.4122C21.3214 37.2948 21.6394 37.0412 21.8969 36.6323C22.1581 36.2537 22.2906 35.8523 22.2906 35.4207L22.2982 33.6564C22.2982 33.0885 22.4799 32.5698 22.8282 32.1041C23.0213 31.8202 23.2523 31.5968 23.5097 31.4378C23.593 31.381 23.6953 31.3317 23.805 31.2901C23.8656 31.2636 23.9224 31.2447 23.9868 31.2257L24.6948 31.0175L24.7137 25.8911M24.9901 8.93326C25.168 8.88405 25.346 8.84997 25.5239 8.82347C26.1486 8.73639 26.762 8.79318 27.3223 9.00899L37.9764 13.0677C39.4719 13.6394 40.3919 15.2295 40.3919 17.2399L40.3654 24.4449L40.3389 31.6271C40.3313 33.6488 39.3961 35.7918 37.8893 37.2456L27.186 47.5438C26.4326 48.2707 25.5921 48.7667 24.7516 49.0128C24.7099 49.0241 24.6683 49.0355 24.6304 49.0468V47.4756L23.9186 47.6839C23.8467 47.7066 23.7748 47.7217 23.7028 47.7293C23.6574 47.7369 23.612 47.7407 23.5703 47.7407C23.2636 47.752 22.9948 47.6422 22.7677 47.4113C22.4307 47.1576 22.2565 46.7563 22.2603 46.2376L22.2679 44.4695C22.2679 44 22.1467 43.663 21.8893 43.4359C21.8779 43.4245 21.8628 43.4132 21.8514 43.4018C21.7984 43.3601 21.7454 43.3261 21.6886 43.2958C21.5448 43.2276 21.382 43.2011 21.1964 43.2201C21.1775 43.2201 21.1586 43.2238 21.1396 43.2276C21.0639 43.239 20.9882 43.2541 20.9087 43.2769L19.398 43.7198C19.3261 43.7425 19.2542 43.7577 19.186 43.7653C19.1406 43.7728 19.0952 43.7766 19.0535 43.7766C18.7771 43.7842 18.5348 43.6971 18.3228 43.5154C18.3077 43.5002 18.2887 43.4851 18.2736 43.4699C18.266 43.4624 18.2584 43.4548 18.2471 43.4472C17.9139 43.1973 17.7397 42.796 17.7435 42.266V42.2092C17.7435 42.1637 17.736 42.1032 17.736 42.0388L17.7435 40.2783C17.7435 39.805 17.6224 39.4718 17.3649 39.2447C17.1605 39.0629 16.9106 38.991 16.6115 39.0364C16.5395 39.0478 16.4638 39.0629 16.3881 39.0857L14.8699 39.5286C14.7979 39.5513 14.7298 39.5665 14.6579 39.5741C14.6238 39.5778 14.5897 39.5816 14.5594 39.5854C14.2414 39.6043 13.9574 39.4946 13.7227 39.2598C13.4577 39.0629 13.2949 38.7676 13.2381 38.3928C13.2305 38.3663 13.2229 38.3209 13.2192 38.2679C13.204 38.1959 13.2002 38.1051 13.2002 38.0104L13.2078 36.2499C13.2078 35.7804 13.0829 35.4434 12.8292 35.2163C12.7913 35.1822 12.7497 35.1519 12.708 35.1254C12.6815 35.1065 12.6512 35.0913 12.6247 35.08C12.496 35.0194 12.3484 34.9891 12.1855 35.0005C12.1515 35.0005 12.1136 35.0043 12.0758 35.0118C12.0038 35.0232 11.9243 35.0383 11.8448 35.061L10.3304 35.504C10.2584 35.5267 10.1865 35.5419 10.1183 35.5494C10.0616 35.557 10.0048 35.5608 9.95176 35.5608C9.66023 35.5608 9.39899 35.451 9.17561 35.2276C8.84243 34.9778 8.66827 34.5802 8.67206 34.0464L8.67963 32.2821C8.67963 31.7179 8.85758 31.1954 9.20211 30.7373C9.51257 30.2906 9.89875 29.9915 10.3455 29.8627L11.8599 29.416C11.9054 29.4046 11.947 29.3933 11.9925 29.3819C12.0152 29.3781 12.0341 29.3743 12.0568 29.3706C12.0795 29.3668 12.0985 29.363 12.1212 29.3592C12.1325 29.3592 12.1439 29.3592 12.1553 29.3554C12.2121 29.3478 12.2688 29.3441 12.3218 29.3441C12.4316 29.3441 12.5339 29.3592 12.6323 29.3857C12.7875 29.4273 12.9314 29.5069 13.0563 29.6167C13.3668 29.8855 13.5258 30.3019 13.5258 30.8661L13.5183 32.6304C13.5145 33.062 13.6508 33.3762 13.9385 33.5883C14.1619 33.8116 14.4118 33.9025 14.7033 33.8609C14.7184 33.8609 14.7298 33.8571 14.7449 33.8533C14.7866 33.8457 14.832 33.8344 14.8737 33.823L16.3881 33.38C16.7894 33.2627 17.1112 33.0052 17.3649 32.6001C17.6299 32.2177 17.7587 31.8239 17.7587 31.3848L17.7662 29.5069C17.7662 29.0336 17.6451 28.7004 17.3876 28.4808C17.3763 28.4695 17.3611 28.4581 17.3498 28.4468C17.3271 28.4278 17.3043 28.4127 17.2778 28.3975C17.0923 28.2802 16.8803 28.2385 16.6304 28.2726C16.5585 28.2839 16.4828 28.2991 16.4032 28.3218L14.8926 28.7648C14.8207 28.7875 14.7487 28.8026 14.6768 28.8102C14.6314 28.8178 14.5859 28.8216 14.5443 28.8216C14.2376 28.8329 13.9688 28.7231 13.7416 28.4884C13.4085 28.2347 13.2343 27.8334 13.2381 27.3071L13.2457 25.5466C13.2457 24.9863 13.4236 24.46 13.7719 23.9981C14.0786 23.5476 14.4648 23.2522 14.9153 23.1235L16.4298 22.6805C16.4979 22.6616 16.5623 22.6465 16.6266 22.6351C16.6493 22.6313 16.6683 22.6275 16.691 22.6238C16.8273 22.6048 16.956 22.6048 17.081 22.6238C17.1908 22.6389 17.2968 22.673 17.3914 22.7222C17.4747 22.7638 17.5542 22.8131 17.6262 22.8736C17.9366 23.1462 18.0918 23.5703 18.0918 24.1306L18.0843 25.8949C18.0805 26.3228 18.2206 26.637 18.5045 26.8566C18.5197 26.8717 18.531 26.8831 18.5462 26.8982C18.7014 27.0421 18.8718 27.1178 19.0573 27.133C19.1254 27.1406 19.1974 27.133 19.2693 27.1254C19.2845 27.1254 19.2958 27.1216 19.311 27.1178C19.3526 27.1103 19.398 27.0989 19.4435 27.0875L20.9579 26.6446C21.3592 26.5272 21.6773 26.2735 21.9309 25.8646C22.1997 25.4785 22.3247 25.0847 22.3247 24.6531L22.3323 22.8888C22.3323 22.3284 22.5102 21.806 22.8585 21.3403C23.1728 20.8897 23.559 20.5944 24.0019 20.4657L24.7402 20.2499L24.7781 8.99384L24.9977 8.92948M25.664 5.45764C25.664 5.45764 25.6337 5.46142 25.6186 5.46521C25.5429 5.47657 25.4671 5.48793 25.3914 5.50307C25.24 5.53336 25.0847 5.57122 24.9333 5.61665C23.9565 5.9044 22.9835 6.47988 22.1089 7.32039L9.34598 19.5987C7.6006 21.2759 6.51021 23.7785 6.50263 26.1183L6.44206 43.2352C6.43448 45.5788 7.50973 47.4453 9.24755 48.1079L21.9423 52.9465C21.9726 52.9579 22.0029 52.9692 22.0332 52.9806C22.5784 53.1737 23.1614 53.2418 23.7596 53.1926C23.8505 53.185 23.9413 53.1737 24.0322 53.1623C24.0625 53.1585 24.0928 53.1547 24.1231 53.1472C24.3351 53.1131 24.5509 53.0639 24.7629 53.0033C25.7397 52.7156 26.7165 52.1401 27.5873 51.2996L40.3465 39.0213C42.0918 37.3441 43.1822 34.8415 43.1898 32.5017L43.2504 15.3848C43.258 13.0412 42.1827 11.1746 40.4449 10.5121L27.7501 5.67344C27.6706 5.64316 27.5873 5.61287 27.5041 5.59015C27.4548 5.57501 27.4056 5.55986 27.3564 5.5485C27.2239 5.51443 27.0914 5.48793 26.9551 5.46521C26.5575 5.40463 26.1486 5.40085 25.7322 5.45385C25.7094 5.45385 25.6867 5.46142 25.664 5.46142" fill="white"/>
<path d="M24.7136 25.5429L23.9754 25.7587C23.5248 25.8874 23.1386 26.1828 22.832 26.6333C22.4836 27.0952 22.3057 27.6177 22.3057 28.1818L22.2981 30.0597C22.2981 30.4989 22.1694 30.8889 21.9119 31.2675C21.6507 31.6764 21.3327 31.9338 20.9313 32.0512L19.4169 32.4942C18.9664 32.6267 18.5802 32.922 18.2735 33.3725C17.9593 33.7928 17.7851 34.2585 17.751 34.7847C17.751 34.8491 17.7586 34.9173 17.7586 34.9892L17.751 36.7535C17.751 37.2798 17.9214 37.6811 18.2584 37.931C18.5234 38.1922 18.8339 38.2982 19.1935 38.249C19.2617 38.2377 19.3336 38.2225 19.4056 38.2036L20.9238 37.7606C21.4046 37.6205 21.8097 37.2987 22.1202 36.8103C22.4344 36.356 22.5934 35.86 22.5972 35.3375L22.6048 33.5732C22.6048 33.1037 22.7449 32.6948 23.0364 32.3049C23.1992 32.0701 23.3847 31.8846 23.5967 31.7597C23.6649 31.7142 23.7406 31.6726 23.8391 31.6347C23.8883 31.6158 23.9375 31.5969 23.9867 31.5817L24.6947 31.3735V31.0252L23.9867 31.2334C23.9224 31.2523 23.8656 31.2713 23.805 31.2978C23.6952 31.3432 23.5967 31.3886 23.5097 31.4454C23.2522 31.6044 23.0213 31.8278 22.8282 32.1118C22.4799 32.5775 22.2981 33.0961 22.2981 33.6641L22.2905 35.4284C22.2905 35.8562 22.158 36.2575 21.8968 36.6399C21.6393 37.045 21.3213 37.2987 20.92 37.4199L19.4056 37.8628C19.345 37.8818 19.2882 37.8931 19.2314 37.9007C19.1595 37.912 19.0875 37.912 19.0194 37.9083C18.8149 37.8893 18.6294 37.7985 18.4628 37.6319C18.1826 37.4161 18.0501 37.1018 18.0501 36.674L18.0577 34.9097C18.0577 34.8264 18.0501 34.7469 18.0463 34.6977C18.0728 34.2925 18.2129 33.9291 18.4742 33.5694C18.7278 33.1946 19.0383 32.9598 19.4131 32.85L20.9276 32.4071C21.4084 32.267 21.8135 31.9414 22.124 31.453C22.4344 30.9987 22.5934 30.5065 22.5972 29.9802L22.6048 28.1023C22.6048 27.6328 22.7449 27.2239 23.0402 26.8377C23.2939 26.4629 23.6005 26.2244 23.9754 26.1184L24.7136 25.9026V25.5543M24.7326 20.25L23.9943 20.4658C23.5475 20.5945 23.1613 20.8898 22.8509 21.3403C22.5026 21.8098 22.3246 22.3323 22.3246 22.8889L22.3171 24.6532C22.3171 25.0848 22.1921 25.4785 21.9233 25.8647C21.6696 26.2736 21.3478 26.5235 20.9503 26.6447L19.4358 27.0876C19.3904 27.099 19.3488 27.1103 19.3033 27.1179C19.2882 27.1179 19.273 27.1217 19.2617 27.1255C19.1897 27.1368 19.1178 27.1368 19.0497 27.1331C18.8641 27.1179 18.6938 27.0384 18.5385 26.8983C18.5234 26.887 18.512 26.8718 18.4969 26.8567C18.2129 26.6371 18.0728 26.3228 18.0766 25.895L18.0842 24.1307C18.0842 23.5704 17.929 23.1463 17.6185 22.8737C17.5466 22.8131 17.4671 22.7601 17.3838 22.7223C17.2853 22.673 17.1831 22.6428 17.0733 22.6238C16.9522 22.6049 16.8197 22.6049 16.6834 22.6238C16.6606 22.6238 16.6417 22.6314 16.619 22.6352C16.5546 22.6465 16.4903 22.6617 16.4221 22.6806L14.9077 23.1236C14.4571 23.2523 14.0747 23.5476 13.7643 23.9982C13.416 24.4639 13.238 24.9901 13.238 25.5467L13.2304 27.3072C13.2267 27.8335 13.4008 28.2348 13.734 28.4885C13.9612 28.7194 14.23 28.8292 14.5366 28.8217C14.5821 28.8217 14.6237 28.8179 14.6692 28.8103C14.7373 28.7989 14.8092 28.7838 14.885 28.7649L16.3956 28.3219C16.4751 28.2992 16.5508 28.284 16.6228 28.2727C16.8727 28.2386 17.0847 28.2802 17.2702 28.3976C17.2929 28.4128 17.3194 28.4317 17.3421 28.4468C17.3573 28.4582 17.3686 28.4695 17.38 28.4809C17.6337 28.7005 17.7586 29.0375 17.7586 29.5069L17.751 31.3848C17.751 31.824 17.6223 32.214 17.3573 32.6002C17.1036 33.0015 16.7818 33.2589 16.3805 33.3801L14.866 33.8231C14.8206 33.8344 14.779 33.8458 14.7373 33.8534C14.7222 33.8534 14.7108 33.8571 14.6957 33.8609C14.4041 33.9026 14.1542 33.8117 13.9309 33.5883C13.6431 33.3763 13.5068 33.0621 13.5106 32.6305L13.5182 30.8661C13.5182 30.302 13.363 29.8818 13.0487 29.6167C12.92 29.5031 12.7799 29.4274 12.6247 29.3858C12.5262 29.3593 12.424 29.3441 12.3142 29.3441C12.2612 29.3441 12.2044 29.3479 12.1476 29.3555C12.1363 29.3555 12.1249 29.3555 12.1135 29.3593C12.0946 29.3593 12.0719 29.3668 12.0492 29.3706C12.0265 29.3744 12.0075 29.3782 11.9848 29.382C11.9432 29.3896 11.8977 29.4009 11.8523 29.4161L10.3379 29.8628C9.88733 29.9916 9.50494 30.2907 9.19448 30.7374C8.84616 31.1993 8.672 31.7218 8.672 32.2821L8.66442 34.0465C8.66064 34.5803 8.8348 34.9778 9.16797 35.2277C9.39135 35.4511 9.64881 35.5609 9.94412 35.5609C9.99713 35.5609 10.0539 35.5571 10.1107 35.5495C10.1789 35.5382 10.2508 35.523 10.3227 35.5041L11.8372 35.0611C11.9167 35.0384 11.9924 35.0195 12.0681 35.0119C12.106 35.0081 12.1438 35.0043 12.1779 35.0005C12.3407 34.993 12.4846 35.0195 12.6171 35.0801C12.6474 35.0952 12.6739 35.1103 12.7004 35.1255C12.742 35.152 12.7799 35.1823 12.8215 35.2164C13.0752 35.4435 13.2039 35.7805 13.2002 36.25L13.1926 38.0105C13.1926 38.1051 13.1926 38.196 13.2115 38.2679C13.2115 38.3209 13.2191 38.3664 13.2304 38.3929C13.2835 38.7677 13.45 39.063 13.7151 39.2599C13.9536 39.4946 14.2338 39.6044 14.5518 39.5855C14.5859 39.5855 14.6199 39.5817 14.6502 39.5741C14.7184 39.5628 14.7903 39.5476 14.8622 39.5287L16.3805 39.0857C16.46 39.063 16.5319 39.0479 16.6038 39.0365C16.9029 38.9949 17.1528 39.063 17.3573 39.2447C17.6147 39.4719 17.7359 39.8051 17.7359 40.2784L17.7283 42.0389C17.7283 42.0995 17.7359 42.1638 17.7359 42.2093V42.266C17.7321 42.7961 17.9063 43.1974 18.2394 43.4473C18.247 43.4549 18.2546 43.4624 18.2659 43.47C18.2811 43.4852 18.3 43.5003 18.3152 43.5155C18.5272 43.6972 18.7733 43.7881 19.0459 43.7767C19.0913 43.7767 19.133 43.7729 19.1784 43.7653C19.2465 43.754 19.3185 43.7388 19.3904 43.7199L20.9011 43.2769C20.9806 43.2542 21.0601 43.2353 21.132 43.2277C21.1509 43.2277 21.1699 43.2239 21.1888 43.2201C21.3743 43.2012 21.5371 43.2277 21.681 43.2959C21.7378 43.3224 21.7946 43.3602 21.8438 43.4019C21.8551 43.4132 21.8703 43.4246 21.8816 43.4359C22.1391 43.6631 22.264 44.0001 22.2603 44.4695L22.2527 46.2376C22.2489 46.7601 22.4231 47.1577 22.76 47.4113C22.9872 47.6423 23.256 47.7521 23.5627 47.7407C23.6081 47.7407 23.6498 47.7369 23.6952 47.7294C23.7633 47.718 23.8353 47.7029 23.911 47.6839L24.6304 47.4757V47.1274L23.911 47.3394C23.8504 47.3583 23.7936 47.3697 23.7368 47.3773C23.4453 47.4189 23.1954 47.3318 22.972 47.1122C22.6881 46.8926 22.548 46.5784 22.5518 46.1544L22.5594 44.3863C22.5594 43.8259 22.4041 43.4019 22.0937 43.1331C21.8438 42.9097 21.5295 42.8264 21.1623 42.8756C21.079 42.887 20.9919 42.9059 20.9011 42.9324L19.3866 43.3754C19.326 43.3943 19.2693 43.4057 19.2125 43.4132C18.9209 43.4549 18.6748 43.3678 18.4515 43.1406C18.1637 42.9286 18.0274 42.6144 18.0312 42.1828V42.1184C18.0312 42.0654 18.0236 42.0162 18.0274 41.9594L18.035 40.1988C18.035 39.6423 17.8798 39.2182 17.5693 38.9419C17.3156 38.7223 17.0014 38.6352 16.6304 38.6882C16.5471 38.6996 16.4638 38.7185 16.3729 38.745L14.8585 39.188C14.7979 39.2069 14.7411 39.2182 14.6843 39.2258C14.3928 39.2675 14.1429 39.1804 13.9157 38.957C13.6961 38.7904 13.5598 38.5557 13.5144 38.2377C13.5068 38.2111 13.5068 38.1846 13.503 38.143C13.4917 38.0748 13.4841 38.0029 13.4879 37.931L13.4955 36.1704C13.4955 35.6101 13.3402 35.1861 13.026 34.9173C12.7723 34.6939 12.4619 34.6106 12.0908 34.6636C12.0075 34.6749 11.9205 34.6939 11.8296 34.7204L10.3152 35.1633C10.2546 35.1823 10.1978 35.1936 10.141 35.2012C9.84947 35.2429 9.59959 35.1558 9.37621 34.9286C9.09604 34.7166 8.95974 34.4061 8.95974 33.9707L8.96731 32.2064C8.9711 31.7369 9.1074 31.328 9.39893 30.9419C9.65259 30.567 9.95927 30.3361 10.3341 30.2263L11.8485 29.7833C11.928 29.7606 12.0038 29.7417 12.0757 29.7341C12.3786 29.6925 12.6247 29.7606 12.8291 29.9423C13.0828 30.1619 13.2115 30.4989 13.2077 30.9722L13.2002 32.7365C13.1964 33.2627 13.3705 33.6641 13.7037 33.9177C13.9649 34.179 14.2792 34.2888 14.6427 34.2358C14.7108 34.2244 14.7827 34.2093 14.8547 34.1903L16.3653 33.7474C16.8537 33.6073 17.2588 33.2854 17.5655 32.797C17.8798 32.3465 18.0388 31.8505 18.0426 31.3243L18.0501 29.4464C18.0501 28.886 17.8949 28.462 17.5844 28.1969C17.3308 27.9736 17.0203 27.8903 16.6493 27.9433C16.566 27.9546 16.4789 27.9736 16.388 28.0001L14.8736 28.443C14.813 28.462 14.7525 28.4733 14.6919 28.4847C14.4041 28.5263 14.158 28.4393 13.9347 28.2121C13.6507 27.9925 13.5106 27.6783 13.5144 27.2542L13.522 25.4899C13.522 25.0204 13.6583 24.6115 13.9536 24.2178C14.2073 23.8467 14.5215 23.6082 14.8888 23.5022L16.3994 23.0592C16.4751 23.0365 16.5508 23.0214 16.6228 23.01C16.9257 22.9684 17.1755 23.0327 17.3838 23.2145C17.6412 23.4378 17.7662 23.7786 17.7624 24.2481L17.7548 26.0124C17.7548 26.5349 17.9252 26.94 18.2622 27.1936C18.5234 27.4587 18.8376 27.5647 19.2011 27.5117C19.2693 27.5003 19.3412 27.4852 19.4131 27.4662L20.9276 27.0195C21.4122 26.8794 21.8135 26.5576 22.1202 26.0692C22.4382 25.6148 22.5934 25.1189 22.5972 24.5964L22.6048 22.8321C22.6048 22.3664 22.7449 21.9537 23.0364 21.5599C23.2939 21.1889 23.6119 20.9504 23.9754 20.8406L24.7136 20.6248V20.2765M25.6185 5.46529C25.6185 5.46529 25.6488 5.4615 25.6639 5.45771C25.6867 5.45771 25.7094 5.45014 25.7321 5.45014C26.1486 5.39714 26.5575 5.40092 26.955 5.4615C27.0913 5.48422 27.2238 5.51072 27.3563 5.54479C27.4056 5.55615 27.4548 5.5713 27.504 5.58644C27.5873 5.61294 27.6706 5.63945 27.7501 5.66974L40.4448 10.5084C42.1826 11.1709 43.2579 13.0337 43.2503 15.381L43.1897 32.4979C43.1822 34.8377 42.088 37.3403 40.3464 39.0176L27.5873 51.2959C26.7165 52.1364 25.7397 52.7119 24.7629 52.9996C24.5471 53.0602 24.335 53.1094 24.123 53.1435C24.0927 53.1473 24.0624 53.151 24.0321 53.1586C23.9413 53.17 23.8504 53.1813 23.7595 53.1889C23.1613 53.2381 22.5783 53.17 22.0331 52.9769C22.0028 52.9655 21.9725 52.9542 21.9422 52.9428L9.24748 48.1042C7.50967 47.4416 6.43442 45.5789 6.44199 43.2315L6.50257 26.1146C6.51014 23.7748 7.60432 21.2722 9.34592 19.595L22.105 7.32047C22.9796 6.47996 23.9526 5.90447 24.9295 5.61673C25.0809 5.5713 25.2361 5.53344 25.3876 5.50315C25.4633 5.488 25.539 5.47664 25.6147 5.46529M25.7056 5.10182C25.4481 5.13968 25.1907 5.19269 24.9295 5.26841C23.8996 5.56751 22.8736 6.17707 21.9536 7.06301L9.19826 19.3375C7.38851 21.0791 6.2489 23.6536 6.20347 26.0881L6.17318 34.762L6.14289 43.3224C6.13532 45.1359 6.74488 46.6768 7.79363 47.6461C8.17223 47.9944 8.60763 48.267 9.09225 48.4525L19.5608 52.4468L21.787 53.2949C22.4723 53.5524 23.2181 53.6243 23.9829 53.5183C24.2404 53.4804 24.4978 53.4274 24.7591 53.3517C25.7889 53.0526 26.8149 52.443 27.7349 51.5571L40.4903 39.2826C42.3 37.541 43.4396 34.9627 43.4851 32.532L43.5153 23.8581L43.5456 15.2978C43.557 12.8292 42.425 10.8642 40.5963 10.1676L27.9015 5.3252C27.6365 5.22676 27.3639 5.15483 27.0799 5.10939C26.7089 5.0526 26.3265 5.04124 25.9365 5.07532C25.857 5.08289 25.7813 5.09046 25.7018 5.10182" fill="#231F20"/>
</g>
<mask id="mask3_1_7496" style="mask-type:luminance" maskUnits="userSpaceOnUse" x="24" y="4" width="17" height="46">
<path d="M24.6304 49.0469L24.7705 8.99767L40.4373 4.4165L40.2972 44.4695L24.6304 49.0469Z" fill="white"/>
</mask>
<g mask="url(#mask3_1_7496)">
<path d="M25.7056 36.3709C25.645 36.3785 25.5845 36.3899 25.5239 36.4088C25.5882 36.3936 25.6488 36.3785 25.7056 36.3709ZM28.3748 35.22C28.3748 35.22 28.3445 35.2237 28.3332 35.2275C28.3483 35.2275 28.3597 35.2237 28.3748 35.22ZM28.5073 35.1897C28.477 35.1972 28.4467 35.2048 28.4202 35.2124C28.4505 35.2048 28.477 35.1972 28.5073 35.1897ZM27.61 34.9966C27.7652 35.1405 27.9356 35.2162 28.1211 35.2313C27.9356 35.2162 27.7652 35.1367 27.61 34.9966ZM25.7662 30.7259C25.7018 30.7334 25.6337 30.7486 25.5655 30.7675C25.6337 30.7486 25.7018 30.7372 25.7662 30.7259ZM34.8036 28.4277C34.7316 28.4391 34.6597 28.4542 34.5802 28.4769L33.0696 28.9199C32.6947 29.0297 32.3881 29.2644 32.1306 29.6393C31.8391 30.0292 31.7028 30.4419 31.699 30.9076L31.6914 32.6757C31.6914 33.1944 31.5286 33.6904 31.2182 34.1447C30.9039 34.6331 30.5026 34.9549 30.018 35.0988L28.5035 35.5418C28.4316 35.5645 28.3597 35.5796 28.2915 35.5872C27.9281 35.6364 27.6138 35.5304 27.3526 35.2692C27.0194 35.0193 26.849 34.6142 26.849 34.0917L26.8566 32.3236C26.8604 31.8655 26.7316 31.5172 26.478 31.2976C26.2697 31.1158 26.0199 31.0477 25.7208 31.0893C25.6488 31.1007 25.5731 31.1158 25.4974 31.1386L24.6909 31.3733L24.672 36.3179L25.5125 36.0718C25.5883 36.0491 25.664 36.034 25.7397 36.0264C26.1032 35.9734 26.4174 36.0605 26.6711 36.2801C26.9815 36.5527 27.1405 36.9767 27.1368 37.537C27.1292 37.6279 27.1254 37.7036 27.1254 37.7756L27.1178 39.5361C27.114 40.0586 26.955 40.5583 26.6446 41.0089C26.3341 41.4973 25.929 41.8191 25.4482 41.9592L24.6531 42.1901L24.6342 47.131L25.4292 46.8962C25.8306 46.7827 26.1524 46.5252 26.4098 46.1201C26.6673 45.7377 26.796 45.344 26.796 44.9123L26.8036 43.1442C26.8036 42.5839 26.9815 42.0614 27.3298 41.5957C27.6365 41.1452 28.0227 40.8499 28.4732 40.7174L29.9877 40.2744C30.389 40.1608 30.707 39.9034 30.9683 39.4945C31.2295 39.1158 31.3582 38.7145 31.3582 38.2829V38.245C31.3658 38.1693 31.3658 38.1087 31.3696 38.0444L31.3772 36.2839C31.381 35.7197 31.5589 35.1935 31.9072 34.7316C32.2101 34.2848 32.5963 33.9895 33.0506 33.857L34.5613 33.414C34.9626 33.2966 35.2844 33.0392 35.5457 32.6303C35.8069 32.2517 35.9318 31.8541 35.9356 31.4225L35.9432 29.6544C35.9432 29.1849 35.822 28.8518 35.5646 28.6284C35.3526 28.4467 35.1065 28.3785 34.8036 28.4202M34.8528 28.0718C34.8301 28.0718 34.8112 28.0794 34.7884 28.0832C34.8112 28.0794 34.8339 28.0756 34.8528 28.0718ZM25.7283 20.3255C25.6564 20.3369 25.5845 20.352 25.505 20.3747L24.7288 20.6019L24.7099 25.5465L25.4822 25.3193C25.8836 25.2058 26.2016 24.9483 26.4628 24.5394C26.7241 24.1608 26.8528 23.7557 26.8528 23.3279L26.8604 21.5635C26.8604 21.0941 26.7392 20.7609 26.4818 20.5299C26.2735 20.3482 26.0236 20.2839 25.7208 20.3255M26.2773 19.9923C26.4325 20.034 26.5726 20.1097 26.7014 20.2195C26.5764 20.1097 26.4325 20.034 26.2773 19.9923Z" fill="#00C281"/>
<path d="M25.7056 36.3709C25.645 36.3784 25.5845 36.3898 25.5239 36.4087L25.4633 36.4314L24.6758 36.6624L24.6644 39.9714V40.4598L24.6569 41.838L25.4519 41.607C25.8533 41.4896 26.1713 41.2322 26.4325 40.8271C26.69 40.4447 26.8187 40.0509 26.8187 39.6155L26.8263 37.8588C26.8263 37.7717 26.8263 37.6808 26.8376 37.5938C26.8414 37.147 26.7165 36.81 26.459 36.5867C26.2887 36.439 26.0956 36.3633 25.8646 36.3633C25.8305 36.3633 25.7927 36.3633 25.7548 36.3671C25.7359 36.3671 25.717 36.3709 25.698 36.3746" fill="#EDEDED"/>
<path d="M25.7435 36.0151C25.6715 36.0265 25.5958 36.0416 25.5163 36.0605L24.6758 36.3066V36.6587L25.4595 36.4278L25.5201 36.4051C25.5844 36.3899 25.645 36.3748 25.7018 36.3672C25.7208 36.3672 25.7397 36.3634 25.7586 36.3596C25.7965 36.3596 25.8305 36.3558 25.8684 36.3558C26.0994 36.3558 26.2924 36.4316 26.4628 36.5792C26.7165 36.8026 26.8452 37.1396 26.8414 37.5863C26.8339 37.6734 26.8301 37.7605 26.8301 37.8513L26.8225 39.6081C26.8225 40.0473 26.6938 40.4372 26.4363 40.8196C26.1751 41.2247 25.857 41.4822 25.4557 41.5996L24.6606 41.8305V42.1788L25.4557 41.9479C25.9366 41.8078 26.3417 41.486 26.6521 40.9976C26.9626 40.5433 27.1216 40.0473 27.1254 39.5248L27.133 37.7643C27.133 37.6923 27.133 37.6166 27.1443 37.5257C27.1481 36.9654 26.9891 36.5414 26.6786 36.2688C26.425 36.0492 26.1107 35.9621 25.7473 36.0151" fill="#211D1E"/>
<path d="M25.5239 8.82343C25.3459 8.84993 25.168 8.88401 24.9901 8.93323L24.7705 8.99759L24.7326 20.2536L25.505 20.0265C25.5958 20 25.6829 19.981 25.77 19.9697C25.9517 19.9432 26.1221 19.9545 26.2773 19.9962C26.4326 20.0378 26.5726 20.1135 26.7014 20.2233C27.0118 20.4959 27.1708 20.92 27.1708 21.4765L27.1633 23.2408C27.1595 23.7633 26.9967 24.2555 26.6862 24.7136C26.372 25.2058 25.9707 25.5276 25.486 25.6677L24.7099 25.8949L24.691 31.0213L25.4936 30.7865C25.5163 30.7789 25.539 30.7752 25.5618 30.7676C25.6299 30.7487 25.6981 30.7373 25.7624 30.7259C26.1259 30.6729 26.4363 30.76 26.69 30.9796C27.0005 31.2522 27.1595 31.6725 27.1557 32.229L27.1481 33.9971C27.1481 34.4249 27.2844 34.7392 27.5646 34.955C27.5797 34.9701 27.5911 34.9815 27.6062 34.9966C27.7615 35.1405 27.9318 35.2162 28.1174 35.2314C28.1855 35.239 28.2574 35.2314 28.3294 35.2238C28.3445 35.2238 28.3559 35.22 28.371 35.2162C28.3862 35.2162 28.4013 35.2125 28.4127 35.2087C28.443 35.2011 28.4695 35.1935 28.4998 35.1859L30.0142 34.743C30.4155 34.6256 30.7373 34.3719 30.9948 33.963C31.256 33.5807 31.3848 33.1831 31.3848 32.7553L31.3923 30.9872C31.3961 30.4231 31.5741 29.9006 31.9224 29.4387C32.2253 28.9919 32.6114 28.6966 33.0658 28.5641L34.5764 28.1211C34.6446 28.1022 34.7127 28.0833 34.7809 28.0719C34.8036 28.0681 34.8263 28.0643 34.8452 28.0605C34.9815 28.0416 35.1103 28.0416 35.2314 28.0605C35.3109 28.0719 35.3904 28.0946 35.4624 28.1249C35.5722 28.1703 35.6744 28.2347 35.769 28.318C36.0795 28.5868 36.2385 29.0033 36.2347 29.5636L36.2272 31.3317C36.2272 31.8542 36.0681 32.3502 35.7539 32.8007C35.4434 33.2929 35.0383 33.6147 34.5537 33.7548L33.0431 34.1978C32.6682 34.3076 32.3616 34.5423 32.1041 34.9171C31.8126 35.3033 31.6763 35.716 31.6725 36.1893L31.6649 37.946C31.6649 38.0255 31.6649 38.0975 31.6536 38.1656V38.1807C31.6536 38.7032 31.4908 39.203 31.1765 39.6535C30.8661 40.1419 30.4609 40.4675 29.9801 40.6076L28.4657 41.0506C28.0909 41.1604 27.7842 41.3951 27.5267 41.77C27.2352 42.1599 27.0951 42.5764 27.0951 43.0383L27.0875 44.8064C27.0838 45.3289 26.9247 45.8211 26.6181 46.2754C26.3038 46.7638 25.9025 47.0856 25.4179 47.2257L24.6228 47.4567V49.0279C24.6569 49.0203 24.6947 49.0052 24.7402 48.9938C25.5807 48.7477 26.4212 48.2517 27.1746 47.5248L37.8779 37.2266C39.3885 35.7728 40.3237 33.6299 40.3275 31.6081L40.354 24.4259L40.3805 17.221C40.3805 15.2068 39.4643 13.6204 37.965 13.0487L27.3109 8.99002C26.7468 8.77421 26.1372 8.71742 25.5125 8.8045" fill="#EDEDED"/>
<path d="M34.8528 28.0719C34.8301 28.0719 34.8112 28.0795 34.7884 28.0833C34.7241 28.0946 34.6559 28.1098 34.584 28.1325L33.0733 28.5755C32.6228 28.708 32.2366 29.0033 31.9299 29.4501C31.5816 29.912 31.4037 30.4344 31.3999 30.9986L31.3923 32.7667C31.3923 33.1907 31.2636 33.5883 31.0024 33.9744C30.7449 34.3833 30.4231 34.637 30.0218 34.7544L28.5073 35.1973C28.477 35.2049 28.4467 35.2125 28.4202 35.2201C28.4051 35.2201 28.39 35.2276 28.3786 35.2276C28.3634 35.2276 28.3483 35.2314 28.3369 35.2352C28.265 35.2466 28.1931 35.2466 28.1249 35.2428C27.9394 35.2276 27.769 35.1481 27.6138 35.008C27.5987 34.9967 27.5873 34.9815 27.5722 34.9664C27.292 34.7506 27.1557 34.4363 27.1557 34.0085L27.1633 32.2404C27.167 31.6839 27.008 31.2636 26.6976 30.991C26.4439 30.7714 26.1372 30.6843 25.77 30.7373C25.7056 30.7449 25.6375 30.76 25.5693 30.779C25.5466 30.7866 25.5239 30.7903 25.5012 30.7979L24.6985 31.0326V31.381L25.5012 31.1462C25.5807 31.1235 25.6526 31.1084 25.7245 31.097C26.0236 31.0554 26.2735 31.1235 26.4818 31.3052C26.7316 31.5248 26.8642 31.8732 26.8604 32.3313L26.8528 34.0994C26.8528 34.6219 27.0232 35.027 27.3563 35.2768C27.6214 35.5381 27.9356 35.6479 28.2953 35.5949C28.3634 35.5835 28.4354 35.5684 28.5073 35.5494L30.0218 35.1065C30.5026 34.9626 30.9077 34.6408 31.2219 34.1524C31.5324 33.6981 31.6952 33.1983 31.6952 32.6834L31.7028 30.9153C31.7066 30.4496 31.8429 30.0369 32.1344 29.6469C32.3881 29.2721 32.6985 29.0412 33.0733 28.9276L34.584 28.4846C34.6597 28.4619 34.7354 28.4467 34.8074 28.4354C35.1103 28.3937 35.3601 28.4619 35.5684 28.6436C35.822 28.867 35.947 29.2002 35.947 29.6697L35.9394 31.4378C35.9356 31.8694 35.8107 32.2631 35.5494 32.6455C35.2882 33.0544 34.9664 33.3119 34.5651 33.4292L33.0544 33.8722C32.6039 34.0047 32.2177 34.3 31.911 34.7468C31.5627 35.2087 31.3847 35.735 31.381 36.2991L31.3734 38.0596C31.3734 38.124 31.3734 38.1846 31.362 38.2603V38.2981C31.362 38.726 31.2333 39.1311 30.9721 39.5097C30.7108 39.9148 30.3928 40.1723 29.9915 40.2896L28.477 40.7326C28.0265 40.8651 27.6403 41.1604 27.3336 41.611C26.9853 42.0767 26.8074 42.5991 26.8074 43.1595L26.7998 44.9276C26.7998 45.3592 26.6711 45.7492 26.4136 46.1353C26.1562 46.5405 25.8343 46.7979 25.433 46.9115L24.6379 47.1462V47.4946L25.433 47.2636C25.9138 47.1235 26.319 46.8017 26.6332 46.3133C26.9399 45.859 27.0989 45.3668 27.1027 44.8443L27.1103 43.0762C27.1103 42.6143 27.2503 42.1978 27.5419 41.8078C27.7993 41.433 28.106 41.1983 28.4808 41.0885L29.9953 40.6455C30.4761 40.5054 30.8812 40.1798 31.1917 39.6914C31.5059 39.2371 31.6649 38.7411 31.6687 38.2186V38.2035C31.6763 38.1353 31.6763 38.0596 31.6801 37.9839L31.6876 36.2272C31.6914 35.7539 31.8277 35.345 32.1192 34.955C32.3729 34.5802 32.6834 34.3455 33.0582 34.2357L34.5688 33.7927C35.0497 33.6526 35.4586 33.3308 35.769 32.8386C36.0833 32.3843 36.2423 31.8921 36.2423 31.3696L36.2499 29.6015C36.2537 29.0412 36.0984 28.6209 35.7842 28.3559C35.6895 28.2726 35.5873 28.2082 35.4775 28.1628C35.4056 28.1325 35.3261 28.1098 35.2466 28.0984C35.1254 28.0795 34.9967 28.0795 34.8604 28.0984M25.77 19.9659C25.6829 19.9773 25.5958 19.9962 25.505 20.0227L24.7326 20.2499V20.5982L25.505 20.371C25.5807 20.3483 25.6564 20.3332 25.7283 20.3218C26.0312 20.2802 26.2811 20.3445 26.4893 20.5263C26.743 20.7572 26.8679 21.0904 26.8679 21.5599L26.8604 23.3242C26.8604 23.7482 26.7316 24.1533 26.4704 24.5357C26.2092 24.9446 25.8911 25.1983 25.4898 25.3157L24.7174 25.5428V25.8911L25.4898 25.664C25.9706 25.5239 26.3758 25.2021 26.69 24.7099C27.0005 24.2518 27.1633 23.7596 27.167 23.2371L27.1746 21.4728C27.1746 20.9162 27.0194 20.4922 26.7051 20.2196C26.5802 20.1098 26.4363 20.0341 26.2811 19.9924C26.1259 19.9508 25.9555 19.9394 25.7738 19.9659" fill="#211D1E"/>
</g>
</g>
</g>
<defs>
<clipPath id="clip0_1_7496">
<rect width="48" height="55.9356" fill="white" transform="translate(0.600098 0.0322266)"/>
</clipPath>
</defs>
</svg>
