<svg width="768" height="529" viewBox="0 0 768 529" fill="none" xmlns="http://www.w3.org/2000/svg">
<path fill-rule="evenodd" clip-rule="evenodd" d="M715.893 197.633C715.784 198.725 715.126 199.709 714.139 200.146C713.043 200.692 611.768 259.917 610.672 260.464C607.932 261.884 604.754 261.884 602.014 260.464C600.918 259.917 499.643 200.692 498.547 200.146C497.56 199.709 496.793 198.725 496.793 197.633C496.793 197.414 496.903 197.195 496.903 197.086H496.793V156.656L716.003 156.874V197.086H715.893C715.784 197.305 715.784 197.414 715.893 197.633Z" fill="url(#paint0_linear_31_3192)"/>
<path fill-rule="evenodd" clip-rule="evenodd" d="M606.725 94.2617C605.191 94.2617 603.766 94.5895 602.451 95.2452C601.355 95.9008 500.08 154.033 498.984 154.689C497.997 155.126 497.34 156.109 497.23 157.202C497.34 158.295 497.997 159.278 498.984 159.715C500.08 160.262 601.355 218.394 602.451 219.05C605.191 220.47 608.369 220.47 611.109 219.05C612.206 218.503 713.48 160.371 714.577 159.715C715.563 159.278 716.221 158.295 716.33 157.202C716.221 156.109 715.563 155.126 714.577 154.689C713.48 154.142 612.206 96.0101 611.109 95.3544C609.685 94.5895 608.26 94.2617 606.725 94.2617Z" fill="url(#paint1_linear_31_3192)"/>
<path fill-rule="evenodd" clip-rule="evenodd" d="M219.1 135.535C218.991 136.628 218.333 137.611 217.346 138.048C216.25 138.594 114.976 197.82 113.879 198.366C111.139 199.786 107.961 199.786 105.221 198.366C104.125 197.82 2.84973 138.594 1.75368 138.048C0.767233 137.611 0 136.628 0 135.535C0 135.316 0.109603 135.098 0.109603 134.989H0V94.5581L219.21 94.7766V134.989H219.1C218.991 135.207 218.991 135.316 219.1 135.535Z" fill="url(#paint2_linear_31_3192)"/>
<path fill-rule="evenodd" clip-rule="evenodd" d="M109.932 32.1641C108.398 32.1641 106.973 32.4919 105.658 33.1475C104.562 33.8031 3.28674 91.9355 2.19069 92.5911C1.20424 93.0282 0.546617 94.0117 0.437012 95.1044C0.546617 96.1971 1.20424 97.1805 2.19069 97.6176C3.28674 98.164 104.562 156.296 105.658 156.952C108.398 158.372 111.576 158.372 114.316 156.952C115.413 156.406 216.687 98.2732 217.784 97.6176C218.77 97.1805 219.428 96.1971 219.537 95.1044C219.428 94.0117 218.77 93.0282 217.784 92.5911C216.687 92.0448 115.413 33.9124 114.316 33.2568C112.892 32.4919 111.467 32.1641 109.932 32.1641Z" fill="url(#paint3_linear_31_3192)"/>
<path fill-rule="evenodd" clip-rule="evenodd" d="M766.975 465.058C766.866 466.151 766.208 467.134 765.221 467.572C764.125 468.118 662.851 527.343 661.754 527.889C659.014 529.31 655.836 529.31 653.096 527.889C652 527.343 550.725 468.118 549.629 467.572C548.642 467.134 547.875 466.151 547.875 465.058C547.875 464.84 547.985 464.621 547.985 464.512H547.875V424.082L767.085 424.3V464.512H766.975C766.866 464.73 766.866 464.84 766.975 465.058Z" fill="url(#paint4_linear_31_3192)"/>
<path fill-rule="evenodd" clip-rule="evenodd" d="M657.807 361.688C656.273 361.688 654.848 362.015 653.533 362.671C652.437 363.327 551.162 421.459 550.066 422.115C549.079 422.552 548.422 423.535 548.312 424.628C548.422 425.721 549.079 426.704 550.066 427.141C551.162 427.687 652.437 485.82 653.533 486.475C656.273 487.896 659.451 487.896 662.191 486.475C663.288 485.929 764.562 427.797 765.659 427.141C766.645 426.704 767.303 425.721 767.412 424.628C767.303 423.535 766.645 422.552 765.659 422.115C764.562 421.568 663.288 363.436 662.191 362.78C660.767 362.015 659.342 361.688 657.807 361.688Z" fill="url(#paint5_linear_31_3192)"/>
<circle cx="14.0224" cy="14.0224" r="14.0224" transform="matrix(-0.859406 -0.511293 0 1 613.039 469.171)" fill="#A4B6E2"/>
<circle cx="8.2743" cy="8.2743" r="8.2743" transform="matrix(-0.859406 -0.511293 0 1 607.167 472.309)" fill="#7686AD"/>
<g clip-path="url(#clip0_31_3192)">
<path d="M673.615 120.561V154.108C673.615 159.088 671.968 164.067 668.674 168.751C665.393 173.43 660.465 177.817 653.89 181.613C627.578 196.8 584.929 196.8 558.63 181.613C545.48 174.013 538.918 164.067 538.905 154.108V120.561H572.14C593.121 113.428 619.369 113.428 640.363 120.561H673.611H673.615Z" fill="url(#paint6_linear_31_3192)"/>
<path d="M692.512 49.5455V92.503C692.512 98.8805 690.402 105.258 686.186 111.25C681.983 117.246 675.674 122.855 667.255 127.723C633.561 147.169 578.947 147.169 545.27 127.723C528.432 117.996 520.03 105.258 520.013 92.5073V49.5497H562.576C589.446 40.4144 623.054 40.4144 649.941 49.5497H692.516L692.512 49.5455Z" fill="#AEB2F4"/>
<path d="M692.512 56.652V99.6095C692.512 105.987 690.402 112.365 686.186 118.356C681.983 124.352 675.674 129.962 667.255 134.83C633.561 154.276 578.947 154.276 545.27 134.83C528.432 125.103 520.03 112.365 520.013 99.6095V56.652H562.576C589.446 47.5209 623.054 47.5209 649.941 56.652H692.516H692.512Z" fill="url(#paint7_linear_31_3192)"/>
<path d="M692.512 80.0986V87.0381C692.512 93.4156 690.402 99.7932 686.186 105.785C681.983 111.781 675.674 117.391 667.255 122.258C633.561 141.704 578.946 141.704 545.27 122.258C528.432 112.531 520.03 99.7932 520.013 87.0423V80.1029C520.03 92.8581 528.432 105.592 545.27 115.323C578.946 134.769 633.565 134.769 667.255 115.323C675.674 110.46 681.983 104.846 686.186 98.8497C690.402 92.8538 692.512 86.4762 692.512 80.1029V80.0986Z" fill="#1482FF"/>
<path d="M667.255 85.0187C633.57 104.469 578.951 104.469 545.266 85.0187C511.576 65.5686 511.576 34.0367 545.266 14.5866C578.951 -4.86351 633.57 -4.86351 667.255 14.5866C700.944 34.0367 700.944 65.5686 667.255 85.0187Z" fill="#EFF3FF"/>
<path d="M675.494 55.5069C673.435 47.1521 666.843 39.1019 655.7 32.6728C628.402 16.9155 584.127 16.9155 556.812 32.6728C545.669 39.0976 539.077 47.1521 537.035 55.5069C534.046 43.3693 540.638 30.597 556.812 21.2472C584.127 5.48985 628.397 5.48985 655.7 21.2472C671.891 30.597 678.483 43.365 675.494 55.5069Z" fill="#1482FF"/>
<path d="M569.447 154.743V170.32C565.63 168.892 561.993 167.198 558.634 165.255C552.308 161.601 547.509 157.402 544.237 152.933V137.356C547.509 141.825 552.308 146.024 558.634 149.678C561.988 151.621 565.625 153.315 569.447 154.743Z" fill="#1482FF"/>
<path d="M602.394 160.97V176.548C593.743 176.282 585.157 175.038 577.188 172.829V157.252C585.161 159.461 593.743 160.705 602.394 160.97Z" fill="#1482FF"/>
<path d="M635.341 157.252V172.829C627.368 175.038 618.786 176.282 610.135 176.548V160.97C618.786 160.705 627.373 159.461 635.341 157.252Z" fill="#1482FF"/>
<path d="M668.284 137.356V152.933C665.012 157.402 660.212 161.601 653.886 165.255C650.532 167.198 646.895 168.892 643.074 170.32V154.743C646.891 153.315 650.528 151.621 653.886 149.678C660.212 146.024 665.012 141.825 668.284 137.356Z" fill="#1482FF"/>
<path d="M575.442 110.641V117.58C564.433 115.174 554.135 111.404 545.27 106.287C542.795 104.859 540.522 103.367 538.412 101.818V94.8789C540.522 96.4229 542.795 97.9197 545.27 99.3479C554.139 104.465 564.433 108.23 575.442 110.641Z" fill="#1482FF"/>
<path d="M674.113 94.8789V101.818C672.002 103.362 669.712 104.859 667.255 106.287C658.385 111.404 648.075 115.17 637.082 117.58V110.641C648.075 108.235 658.389 104.465 667.255 99.3479C669.712 97.9197 672.002 96.4272 674.113 94.8789Z" fill="#1482FF"/>
</g>
<circle cx="14.0224" cy="14.0224" r="14.0224" transform="matrix(0.872496 -0.488621 0 1 158.25 136.006)" fill="#A4B6E2"/>
<circle cx="8.2743" cy="8.2743" r="8.2743" transform="matrix(0.872496 -0.488621 0 1 164.26 139.402)" fill="#7686AD"/>
<circle cx="14.0224" cy="14.0224" r="14.0224" transform="matrix(0.872496 -0.488621 0 1 327.523 376.393)" fill="#A4B6E2"/>
<circle cx="8.2743" cy="8.2743" r="8.2743" transform="matrix(0.872496 -0.488621 0 1 333.533 379.789)" fill="#7686AD"/>
<circle cx="14.0224" cy="14.0224" r="14.0224" transform="matrix(-0.859406 -0.511293 0 1 557.953 202.749)" fill="#A4B6E2"/>
<circle cx="8.2743" cy="8.2743" r="8.2743" transform="matrix(-0.859406 -0.511293 0 1 552.081 205.887)" fill="#7686AD"/>
<path d="M343.547 386.729L548.633 504.839C550.324 505.813 552.413 505.78 554.072 504.754L599.956 476.372" stroke="#C2C2DF" stroke-width="1.20589" stroke-linecap="round"/>
<rect width="97.9277" height="97.9277" rx="22.3077" transform="matrix(0.866025 0.5 -0.866025 0.5 658.378 376.323)" fill="white" stroke="#241E1E" stroke-opacity="0.75" stroke-width="8.36539"/>
<path d="M592.233 421.806C581.563 415.646 581.563 405.658 592.233 399.498L638.403 372.842C649.073 366.682 666.371 366.682 677.041 372.842L723.211 399.498C733.88 405.658 733.88 415.646 723.211 421.806L677.041 448.462C666.371 454.622 649.072 454.622 638.403 448.462L592.233 421.806Z" fill="url(#paint8_linear_31_3192)"/>
<g clip-path="url(#clip1_31_3192)">
<path d="M664.587 391.68C659.171 391.058 653.573 391.219 648.29 392.147C643.007 393.075 638.203 394.743 634.305 397.001C630.405 399.251 627.526 402.021 625.926 405.067C624.326 408.113 624.052 411.339 625.131 414.461M632.988 397.762C634.224 400.845 636.148 403.822 638.713 406.619M635.621 396.241C640.963 396.954 646.122 398.064 650.968 399.544M690.92 406.883C691.997 410.01 691.719 413.243 690.112 416.293C688.504 419.343 685.615 422.117 681.703 424.367C677.807 426.619 673.009 428.28 667.734 429.204C662.458 430.128 656.869 430.286 651.463 429.664M680.386 425.127C675.046 424.414 669.889 423.303 665.045 421.822M683.02 423.607C681.786 420.523 679.863 417.544 677.3 414.747M626.405 422.847L639.571 427.408L632.988 419.046L647.471 422.847L639.571 415.245M665.904 400.042L679.07 404.603L672.487 396.241L686.969 400.042L679.07 392.441M646.154 411.444L659.32 416.005L652.737 407.644L667.22 411.444L659.32 403.843" stroke="white" stroke-width="3" stroke-linecap="round" stroke-linejoin="round"/>
</g>
<rect width="97.9277" height="97.9277" rx="22.3077" transform="matrix(0.866025 0.5 -0.866025 0.5 111.175 46.3232)" fill="white" stroke="#241E1E" stroke-opacity="0.75" stroke-width="8.36539"/>
<path d="M45.03 91.8057C34.3604 85.6456 34.3604 75.6581 45.03 69.498L91.1998 42.8419C101.869 36.6818 119.168 36.6818 129.838 42.8419L176.008 69.498C186.677 75.6581 186.677 85.6456 176.008 91.8057L129.838 118.462C119.168 124.622 101.869 124.622 91.1998 118.462L45.03 91.8057Z" fill="url(#paint9_linear_31_3192)"/>
<g clip-path="url(#clip2_31_3192)">
<path d="M117.384 61.6804C111.968 61.0584 106.369 61.2186 101.086 62.1469C95.8034 63.0752 90.9996 64.7428 87.1019 67.0015C83.2015 69.2507 80.3232 72.0211 78.7228 75.0668C77.1224 78.1125 76.8493 81.3393 77.9278 84.4606M85.7852 67.7617C87.0208 70.8448 88.9451 73.8221 91.5098 76.6189M88.4182 66.2415C93.7599 66.9536 98.9186 68.0636 103.765 69.5436M143.716 76.8834C144.794 80.0104 144.516 83.2427 142.908 86.2928C141.301 89.343 138.412 92.1165 134.5 94.3668C130.604 96.6187 125.806 98.2805 120.53 99.2045C115.255 100.128 109.666 100.286 104.26 99.6635M133.183 95.127C127.843 94.4136 122.686 93.3026 117.842 91.8219M135.816 93.6068C134.583 90.5228 132.66 87.5444 130.097 84.7465M79.2019 92.8467L92.3681 97.4076L85.785 89.0459L100.268 92.8467L92.3681 85.2452M118.7 70.0422L131.867 74.6031L125.283 66.2415L139.766 70.0422L131.867 62.4407M98.9512 81.4444L112.117 86.0053L105.534 77.6437L120.017 81.4444L112.117 73.843" stroke="white" stroke-width="3" stroke-linecap="round" stroke-linejoin="round"/>
</g>
<path d="M545.369 212.952L344.048 326.633" stroke="#C2C2DF" stroke-width="1.20589" stroke-linecap="round"/>
<path fill-rule="evenodd" clip-rule="evenodd" d="M389.374 375.918C389.264 377.01 388.606 377.994 387.62 378.431C386.524 378.977 285.249 438.202 284.153 438.749C281.413 440.169 278.234 440.169 275.494 438.749C274.398 438.202 173.123 378.977 172.027 378.431C171.041 377.994 170.273 377.01 170.273 375.918C170.273 375.699 170.383 375.481 170.383 375.371H170.273V334.941L389.483 335.159V375.371H389.374C389.264 375.59 389.264 375.699 389.374 375.918Z" fill="url(#paint10_linear_31_3192)"/>
<path fill-rule="evenodd" clip-rule="evenodd" d="M280.206 272.547C278.671 272.547 277.246 272.875 275.931 273.53C274.835 274.186 173.56 332.318 172.464 332.974C171.478 333.411 170.82 334.394 170.71 335.487C170.82 336.58 171.478 337.563 172.464 338C173.56 338.547 274.835 396.679 275.931 397.335C278.671 398.755 281.85 398.755 284.59 397.335C285.686 396.788 386.961 338.656 388.057 338C389.043 337.563 389.701 336.58 389.811 335.487C389.701 334.394 389.043 333.411 388.057 332.974C386.961 332.428 285.686 274.295 284.59 273.64C283.165 272.875 281.74 272.547 280.206 272.547Z" fill="url(#paint11_linear_31_3192)"/>
<rect width="97.9277" height="97.9277" rx="22.3077" transform="matrix(0.866025 0.5 -0.866025 0.5 281.577 283.925)" fill="white" stroke="#241E1E" stroke-opacity="0.75" stroke-width="8.36539"/>
<path d="M215.432 329.407C204.763 323.247 204.763 313.26 215.432 307.1L261.602 280.443C272.272 274.283 289.571 274.283 300.24 280.443L346.41 307.1C357.08 313.26 357.08 323.247 346.41 329.407L300.24 356.063C289.571 362.224 272.272 362.224 261.602 356.063L215.432 329.407Z" fill="url(#paint12_linear_31_3192)"/>
<g clip-path="url(#clip3_31_3192)">
<path d="M287.786 299.282C282.37 298.66 276.772 298.82 271.489 299.748C266.206 300.677 261.402 302.344 257.504 304.603C253.604 306.852 250.726 309.623 249.125 312.668C247.525 315.714 247.252 318.941 248.33 322.062M256.188 305.363C257.423 308.446 259.347 311.424 261.912 314.22M258.821 303.843C264.162 304.555 269.321 305.665 274.167 307.145M314.119 314.485C315.196 317.612 314.919 320.844 313.311 323.894C311.703 326.945 308.815 329.718 304.902 331.968C301.007 334.22 296.208 335.882 290.933 336.806C285.658 337.73 280.069 337.888 274.662 337.265M303.586 332.729C298.246 332.015 293.089 330.904 288.244 329.423M306.219 331.208C304.985 328.124 303.063 325.146 300.499 322.348M249.604 330.448L262.77 335.009L256.187 326.647L270.67 330.448L262.77 322.847M289.103 307.644L302.269 312.205L295.686 303.843L310.169 307.644L302.269 300.042M269.353 319.046L282.52 323.607L275.937 315.245L290.419 319.046L282.52 311.445" stroke="white" stroke-width="3" stroke-linecap="round" stroke-linejoin="round"/>
</g>
<path d="M173.778 146.847L279.447 205.941M279.447 205.941L175.775 268.985C172.364 271.059 172.379 276.014 175.802 278.068L225.861 308.104M279.447 205.941L606.468 394.241" stroke="#C2C2DF" stroke-width="1.20589" stroke-linecap="round"/>
<defs>
<linearGradient id="paint0_linear_31_3192" x1="544.595" y1="163.732" x2="474.229" y2="344.559" gradientUnits="userSpaceOnUse">
<stop stop-color="#354065"/>
<stop offset="0.652971" stop-color="#636F99"/>
</linearGradient>
<linearGradient id="paint1_linear_31_3192" x1="497.23" y1="157.188" x2="716.33" y2="157.188" gradientUnits="userSpaceOnUse">
<stop offset="0.51" stop-color="#636F99"/>
<stop offset="0.875" stop-color="#3F4B75"/>
</linearGradient>
<linearGradient id="paint2_linear_31_3192" x1="0" y1="146.995" x2="219.21" y2="146.995" gradientUnits="userSpaceOnUse">
<stop stop-color="white"/>
<stop offset="1" stop-color="#A9BCEA"/>
</linearGradient>
<linearGradient id="paint3_linear_31_3192" x1="109.987" y1="32.1641" x2="109.987" y2="158.017" gradientUnits="userSpaceOnUse">
<stop offset="0.31" stop-color="white"/>
<stop offset="0.81" stop-color="#C4D1F1"/>
<stop offset="1" stop-color="#C4D1F1"/>
</linearGradient>
<linearGradient id="paint4_linear_31_3192" x1="547.875" y1="476.518" x2="767.085" y2="476.518" gradientUnits="userSpaceOnUse">
<stop stop-color="white"/>
<stop offset="1" stop-color="#A9BCEA"/>
</linearGradient>
<linearGradient id="paint5_linear_31_3192" x1="657.862" y1="361.688" x2="657.862" y2="487.541" gradientUnits="userSpaceOnUse">
<stop offset="0.31" stop-color="white"/>
<stop offset="0.81" stop-color="#C4D1F1"/>
<stop offset="1" stop-color="#C4D1F1"/>
</linearGradient>
<linearGradient id="paint6_linear_31_3192" x1="606.26" y1="115.211" x2="606.26" y2="193.003" gradientUnits="userSpaceOnUse">
<stop stop-color="white"/>
<stop offset="1" stop-color="#B1B9D5"/>
</linearGradient>
<linearGradient id="paint7_linear_31_3192" x1="606.265" y1="49.8037" x2="606.265" y2="149.414" gradientUnits="userSpaceOnUse">
<stop stop-color="white"/>
<stop offset="1" stop-color="#B0BBE2"/>
</linearGradient>
<linearGradient id="paint8_linear_31_3192" x1="615.318" y1="386.17" x2="657.722" y2="459.616" gradientUnits="userSpaceOnUse">
<stop stop-color="#4D4D4D"/>
<stop offset="1" stop-color="#241E1E"/>
</linearGradient>
<linearGradient id="paint9_linear_31_3192" x1="68.1149" y1="56.1699" x2="110.519" y2="129.616" gradientUnits="userSpaceOnUse">
<stop stop-color="#4D4D4D"/>
<stop offset="1" stop-color="#241E1E"/>
</linearGradient>
<linearGradient id="paint10_linear_31_3192" x1="170.273" y1="387.378" x2="389.483" y2="387.378" gradientUnits="userSpaceOnUse">
<stop stop-color="white"/>
<stop offset="1" stop-color="#A9BCEA"/>
</linearGradient>
<linearGradient id="paint11_linear_31_3192" x1="280.261" y1="272.547" x2="280.261" y2="398.4" gradientUnits="userSpaceOnUse">
<stop offset="0.31" stop-color="white"/>
<stop offset="0.81" stop-color="#C4D1F1"/>
<stop offset="1" stop-color="#C4D1F1"/>
</linearGradient>
<linearGradient id="paint12_linear_31_3192" x1="238.517" y1="293.771" x2="280.921" y2="367.217" gradientUnits="userSpaceOnUse">
<stop stop-color="#4D4D4D"/>
<stop offset="1" stop-color="#241E1E"/>
</linearGradient>
<clipPath id="clip0_31_3192">
<rect width="172.521" height="193" fill="white" transform="translate(520)"/>
</clipPath>
<clipPath id="clip1_31_3192">
<rect width="72.9743" height="72.9743" fill="white" transform="matrix(0.866025 -0.5 0.866025 0.5 594.806 410.685)"/>
</clipPath>
<clipPath id="clip2_31_3192">
<rect width="72.9743" height="72.9743" fill="white" transform="matrix(0.866025 -0.5 0.866025 0.5 47.6033 80.6846)"/>
</clipPath>
<clipPath id="clip3_31_3192">
<rect width="72.9743" height="72.9743" fill="white" transform="matrix(0.866025 -0.5 0.866025 0.5 218.006 318.286)"/>
</clipPath>
</defs>
</svg>
