<svg width="49" height="58" viewBox="0 0 49 58" fill="none" xmlns="http://www.w3.org/2000/svg">
<g clip-path="url(#clip0_1_7484)">
<mask id="mask0_1_7484" style="mask-type:luminance" maskUnits="userSpaceOnUse" x="2" y="-2" width="42" height="62">
<path d="M2.64868 59.4132L2.75024 4.274L43.2198 -1.41333L43.1182 53.7259L2.64868 59.4132Z" fill="white"/>
</mask>
<g mask="url(#mask0_1_7484)">
<mask id="mask1_1_7484" style="mask-type:luminance" maskUnits="userSpaceOnUse" x="2" y="-1" width="38" height="59">
<path d="M2.65234 57.6605L2.82161 9.88999L39.9247 -0.946777L39.7554 46.82L2.65234 57.6605Z" fill="white"/>
</mask>
<g mask="url(#mask1_1_7484)">
<path d="M23.5623 47.4405C23.4908 47.4631 23.4193 47.4781 23.3516 47.4856C23.4193 47.4743 23.4908 47.4593 23.5623 47.4405ZM22.5166 47.2562C22.6633 47.3765 22.825 47.448 22.9981 47.4781C22.825 47.448 22.6633 47.3728 22.5166 47.2562ZM19.0673 43.5022C18.9959 43.5248 18.9282 43.5399 18.8567 43.5474C18.9244 43.5361 18.9959 43.521 19.0673 43.5022ZM20.7938 43.0132C20.7938 43.0132 20.7562 43.0208 20.7374 43.0208C20.7562 43.0208 20.775 43.0132 20.7938 43.0132ZM23.4532 41.866C23.4532 41.866 23.4269 41.8698 23.4118 41.8735C23.4269 41.8735 23.4382 41.8698 23.4532 41.866ZM13.3048 39.2255C13.3349 39.2518 13.365 39.2781 13.3951 39.3007L13.4026 39.312C13.4402 39.3496 13.4816 39.3834 13.5267 39.4135C13.4816 39.3797 13.444 39.3458 13.4026 39.312L13.3951 39.3007C13.365 39.2781 13.3349 39.2518 13.3048 39.2255ZM18.9545 37.9014C18.9545 37.9014 18.9244 37.9052 18.9094 37.9089C18.9094 37.9089 18.9394 37.9052 18.9545 37.9014ZM19.0899 37.8676C19.0598 37.8751 19.0297 37.8864 18.9959 37.8901C19.026 37.8826 19.0561 37.8751 19.0899 37.8676ZM11.8152 35.1142C11.7438 35.1255 11.6648 35.1405 11.5858 35.1631L10.0812 35.6032C10.0097 35.6257 9.93827 35.6408 9.87056 35.6483C9.93827 35.637 10.0097 35.622 10.0812 35.6032L11.5858 35.1631C11.6648 35.1405 11.74 35.1217 11.8152 35.1142ZM14.5273 33.9481C14.4896 33.9556 14.4558 33.9632 14.4182 33.9707C14.4558 33.9669 14.4896 33.9594 14.5273 33.9481ZM13.9518 33.9067C14.0307 33.9444 14.1135 33.9669 14.2 33.9745C14.1135 33.9669 14.0307 33.9406 13.9518 33.9067ZM8.93772 35.3286C9.14836 35.5392 9.39662 35.6521 9.67497 35.6596C9.39662 35.6521 9.14836 35.543 8.93772 35.3286ZM12.3719 29.5246C12.5262 29.566 12.6653 29.645 12.7932 29.7541C12.6691 29.6413 12.5262 29.566 12.3719 29.5246ZM11.74 29.5209C11.6986 29.5284 11.6535 29.5397 11.6084 29.5547C11.6535 29.5435 11.6949 29.5322 11.74 29.5209ZM11.8641 29.4983C11.8453 29.4983 11.8228 29.5058 11.8002 29.5096C11.8228 29.5058 11.8416 29.5021 11.8641 29.4983ZM20.854 27.2151C20.7826 27.2264 20.7073 27.2414 20.6321 27.264L19.1275 27.7041C18.7551 27.8132 18.4542 28.0502 18.1984 28.4188C17.9088 28.8024 17.7696 29.2124 17.7696 29.6826L17.7621 31.4317C17.7583 31.9508 17.6004 32.4435 17.2882 32.8949C17.0023 33.3463 16.6261 33.6585 16.1861 33.809C16.1635 33.8202 16.1334 33.8315 16.0995 33.839L14.595 34.2829L14.5009 34.3017C14.4595 34.313 14.4182 34.3205 14.3768 34.3243C14.027 34.3732 13.711 34.2678 13.4477 34.0083C13.1129 33.7601 12.9437 33.3576 12.9437 32.8347L12.9512 31.0857C12.9512 30.6155 12.8308 30.2769 12.5751 30.0588C12.3719 29.8782 12.1237 29.8105 11.8228 29.8519C11.7513 29.8632 11.6761 29.8782 11.6008 29.9008L10.0963 30.3409C9.72387 30.45 9.41919 30.6869 9.16717 31.0556C8.87754 31.443 8.73837 31.8492 8.73837 32.3194L8.73084 34.0685C8.72708 34.4935 8.86626 34.8057 9.14836 35.0164C9.37029 35.2421 9.61479 35.3286 9.90066 35.291C9.95708 35.2834 10.0173 35.2684 10.0774 35.2534L11.5858 34.8133C11.6761 34.7869 11.7626 34.7681 11.8453 34.7568C12.2102 34.7042 12.5186 34.7907 12.7707 35.0126C13.0791 35.2834 13.2333 35.6972 13.2333 36.2501L13.2258 38.0105C13.2258 38.1685 13.2446 38.3152 13.2822 38.4393C13.2935 38.4732 13.3048 38.5033 13.3198 38.5371C13.3687 38.665 13.444 38.7816 13.5455 38.8756L13.6471 38.9734L13.6245 39.0073L13.632 39.0261C13.6546 39.0449 13.6922 39.0712 13.7261 39.1013C13.9217 39.2555 14.1473 39.312 14.4031 39.2781C14.4595 39.2706 14.5197 39.2593 14.5762 39.2405L16.0807 38.8004L16.1409 38.7816L16.344 38.6951H16.3628C16.7127 38.6462 17.0136 38.7327 17.2618 38.9471C17.5628 39.2142 17.717 39.6204 17.7245 40.1583V40.1771V40.1959L17.717 41.9676C17.717 42.3964 17.8524 42.7086 18.1345 42.9192C18.3602 43.1411 18.6084 43.2314 18.8981 43.19C18.9545 43.1825 19.0109 43.1712 19.0673 43.1524L20.5757 42.7123C20.6622 42.686 20.7487 42.6672 20.8315 42.6559C21.1926 42.6032 21.5048 42.6898 21.7568 42.9079C22.0652 43.1825 22.2194 43.6038 22.2194 44.1567L22.2119 45.9058C22.2119 46.3346 22.3473 46.6468 22.6294 46.8612C22.8476 47.0831 23.0921 47.1697 23.378 47.1283C23.4344 47.1208 23.4946 47.1057 23.5585 47.0869L24.3898 46.8424L24.4086 41.9337L23.5773 42.1744C23.5059 42.197 23.4344 42.2121 23.3667 42.2196C23.0093 42.2685 22.6971 42.1632 22.4338 41.9036C22.1028 41.6554 21.9336 41.2604 21.9336 40.7338L21.9411 38.9546C21.9411 38.3979 22.1216 37.8789 22.4677 37.4124C22.7761 36.9648 23.1598 36.6752 23.6037 36.5435L24.4312 36.3028L24.45 31.3903L23.6225 31.6311C23.2501 31.7401 22.9492 31.9734 22.6934 32.3457C22.4038 32.7332 22.2608 33.1432 22.2608 33.6058L22.2533 35.3587C22.2533 35.8778 22.0953 36.3705 21.7793 36.8219C21.4784 37.3033 21.0797 37.6231 20.5945 37.766L19.0899 38.2061C19.0184 38.2287 18.947 38.2437 18.8755 38.2512C18.5144 38.3001 18.2022 38.1986 17.9464 37.9353C17.6267 37.687 17.4537 37.3071 17.4461 36.8144L17.4537 35.0126C17.4537 34.4522 17.6305 33.9331 17.9765 33.4779C18.285 33.0303 18.6686 32.7369 19.1125 32.609L20.6208 32.1652C21.0158 32.0523 21.3317 31.7966 21.5913 31.3866C21.8546 31.0104 21.9825 30.6192 21.9825 30.1867L21.99 28.4376C21.99 27.9674 21.8659 27.6289 21.6138 27.4107C21.4107 27.2302 21.1625 27.1624 20.8616 27.2038M20.8992 26.8615C20.8352 26.8691 20.7713 26.8841 20.7036 26.8991C20.7713 26.8803 20.8352 26.8691 20.8992 26.8615ZM25.1233 5.98919C24.9728 6.01928 24.8186 6.05689 24.6682 6.10203C23.6977 6.3879 22.7272 6.95964 21.8621 7.79469L9.18222 20.0006C7.44818 21.667 6.36488 24.1495 6.35736 26.4703C6.36488 24.1495 7.45195 21.667 9.18222 20.0006L21.8583 7.79469C22.7235 6.95964 23.6939 6.3879 24.6644 6.10203C24.8148 6.05689 24.9691 6.01928 25.1195 5.98919M25.4618 5.93653C26.0148 5.86506 26.5602 5.89515 27.0755 6.03056C26.5602 5.89515 26.0185 5.86506 25.4618 5.93653ZM25.3941 5.94405C25.3941 5.94405 25.364 5.94781 25.349 5.95157C25.364 5.95157 25.3791 5.94781 25.3941 5.94405ZM22.0991 4.65763C22.0991 4.65763 22.069 4.66139 22.0539 4.66515C22.0088 4.67267 21.9637 4.6802 21.9185 4.68772C21.738 4.72157 21.5537 4.76295 21.3731 4.81561C20.4064 5.10148 19.436 5.67322 18.5671 6.51203L5.88718 18.7104C4.15691 20.3768 3.07361 22.8631 3.06608 25.1839L3.0059 42.1932C2.99838 44.5216 4.06663 46.3722 5.78938 47.0342L7.44066 47.6624C6.52286 46.6957 5.99626 45.2476 6.00378 43.5699L6.03387 35.0653L6.06397 26.444C6.1091 24.0329 7.2413 21.4714 9.03928 19.7411L21.7079 7.53891C22.6219 6.65873 23.645 6.05313 24.6644 5.75598C24.9202 5.68075 25.1797 5.62432 25.4355 5.59047C25.6048 5.5679 25.7703 5.55286 25.9358 5.54533L24.1754 4.87203C24.1566 4.86451 24.134 4.85699 24.1152 4.84946C24.0663 4.83066 24.0174 4.81561 23.9648 4.7968C23.3968 4.61625 22.7874 4.56735 22.1668 4.64634C22.1442 4.64634 22.1216 4.65387 22.0991 4.65387" fill="#FFD712"/>
<path d="M22.1405 4.30409C21.8848 4.3417 21.629 4.39436 21.3732 4.46959C20.3501 4.76675 19.3307 5.37234 18.4129 6.25252L5.74432 18.4509C3.94634 20.1812 2.81415 22.739 2.76901 25.1539L2.73892 33.7751L2.70882 42.2798C2.69754 44.7285 3.82222 46.6845 5.639 47.3766L8.49771 48.4674C8.10276 48.2605 7.74918 47.9897 7.44074 47.6624L5.78946 47.0343C4.06671 46.3723 2.99846 44.5216 3.00598 42.1933L3.06616 25.184C3.07369 22.8631 4.16075 20.3768 5.88726 18.7105L18.5634 6.51207C19.4285 5.67326 20.399 5.10152 21.3694 4.81565C21.5537 4.76299 21.7343 4.71785 21.9148 4.68776C21.96 4.68023 22.0051 4.67271 22.0503 4.66519C22.0653 4.66519 22.0803 4.66143 22.0954 4.65767C22.118 4.65767 22.1405 4.65014 22.1631 4.65014C22.7837 4.57115 23.3931 4.62005 23.9611 4.8006C24.01 4.81565 24.0626 4.83445 24.1115 4.85326C24.1303 4.86078 24.1529 4.86831 24.1717 4.87583L25.9321 5.54913C26.5151 5.52656 27.0831 5.61308 27.6135 5.81243L37.3632 9.53252C37.224 9.46105 37.0811 9.39711 36.9344 9.34068L24.3184 4.52978C23.6376 4.27024 22.8966 4.19877 22.1368 4.30409" fill="#231F20"/>
</g>
<mask id="mask2_1_7484" style="mask-type:luminance" maskUnits="userSpaceOnUse" x="5" y="0" width="39" height="59">
<path d="M5.94751 58.9507L6.11678 11.1764L43.2161 0.3396L43.0468 48.1102L5.94751 58.9507Z" fill="white"/>
</mask>
<g mask="url(#mask2_1_7484)">
<path d="M24.4314 36.6527L23.6039 36.8972C23.2353 37.0025 22.9343 37.2357 22.6748 37.6081C22.3852 37.9993 22.2422 38.4093 22.2422 38.872L22.2347 40.6511C22.2347 41.08 22.3701 41.3884 22.6485 41.6028C22.8742 41.8247 23.1224 41.915 23.4121 41.8736C23.4271 41.8736 23.4384 41.8699 23.4534 41.8661C23.4685 41.8661 23.4798 41.8623 23.4948 41.8586C23.5249 41.8511 23.5512 41.8435 23.5813 41.836L24.4126 41.5915V40.6775L24.4164 40.1396L24.4276 36.6527M24.7436 9.3069C24.9204 9.258 25.0972 9.22414 25.274 9.19781C25.8946 9.1113 26.504 9.16772 27.0607 9.38213L37.6454 13.4144C39.1312 13.9824 40.0452 15.5584 40.0452 17.5595L40.0189 24.7176L39.9926 31.8493C39.985 33.8617 39.056 35.9907 37.5589 37.4313L26.9253 47.6663C26.1955 48.3659 25.3831 48.8549 24.5743 49.1032L24.469 49.1332C24.4427 49.1408 24.4126 49.1483 24.3863 49.152L24.3938 47.1923L23.5625 47.4368C23.491 47.4594 23.4196 47.4744 23.3519 47.482C23.2277 47.5008 23.1111 47.497 22.9983 47.482C22.8253 47.4519 22.6635 47.3766 22.5168 47.26C22.483 47.2337 22.4491 47.2036 22.419 47.1735C22.088 46.9215 21.9188 46.5266 21.9188 45.9999L21.9263 44.2471C21.9263 43.7844 21.8059 43.4459 21.5501 43.2202C21.3696 43.066 21.1589 42.9945 20.9107 43.0058C20.8731 43.0058 20.8355 43.0096 20.7941 43.0171C20.7753 43.0171 20.7565 43.0246 20.7377 43.0246C20.685 43.0359 20.6286 43.0472 20.5721 43.0622L19.0676 43.5061C18.9961 43.5287 18.9284 43.5437 18.8569 43.5512C18.8344 43.5512 18.8118 43.5588 18.7892 43.5588C18.4582 43.5889 18.1648 43.4798 17.9203 43.2353C17.5855 42.987 17.4163 42.5845 17.4163 42.0617L17.4238 40.3126V40.2449C17.4238 39.7973 17.2997 39.4738 17.0514 39.2556C16.8521 39.0864 16.6113 39.0187 16.3405 39.0488L16.1788 39.1165L16.1562 38.951L16.1712 39.1165L16.0772 39.1503L14.5726 39.5904C14.4974 39.613 14.4259 39.628 14.3545 39.6393C14.3356 39.6393 14.3168 39.6431 14.2943 39.6468C14.0046 39.6732 13.7413 39.6017 13.5194 39.4249C13.4743 39.3911 13.4367 39.3572 13.3953 39.3234L13.3878 39.3121C13.3577 39.2895 13.3276 39.2632 13.2975 39.2368L13.1846 39.1353L13.2223 39.0826C13.1395 38.9848 13.0793 38.8795 13.0379 38.7591C13.0191 38.7178 13.0041 38.6764 12.9928 38.635C12.9439 38.4808 12.9213 38.3002 12.9213 38.1046L12.9289 36.3518C12.9289 35.8816 12.8085 35.5468 12.5527 35.3249C12.5414 35.3136 12.5264 35.3024 12.5151 35.2911C12.4135 35.2083 12.2969 35.1519 12.169 35.1256C12.0901 35.1068 12.0073 35.103 11.917 35.1068C11.8832 35.1068 11.8456 35.1105 11.8079 35.118C11.7365 35.1293 11.6575 35.1444 11.5785 35.1669L10.0739 35.607C10.0024 35.6296 9.93097 35.6446 9.86327 35.6522C9.79556 35.6635 9.73162 35.6672 9.66391 35.6635C9.38556 35.6559 9.13731 35.5468 8.92666 35.3324C8.59566 35.0842 8.42639 34.6855 8.42639 34.1589L8.43391 32.4098C8.43391 31.8493 8.6107 31.3265 8.95676 30.8714C9.25767 30.4275 9.6451 30.1341 10.0927 30.0025L11.6011 29.5586C11.6462 29.5473 11.6876 29.536 11.7327 29.5247C11.7553 29.521 11.7741 29.5172 11.7967 29.5135C11.8192 29.5097 11.838 29.5059 11.8606 29.5022C12.0449 29.4758 12.2142 29.4834 12.3684 29.5285C12.5226 29.5736 12.6618 29.6489 12.7897 29.758C13.0981 30.025 13.2523 30.4425 13.2523 31.003L13.2448 32.7521C13.2411 33.1809 13.3802 33.4931 13.6623 33.7037C13.7526 33.794 13.8467 33.8617 13.9482 33.9068C14.0272 33.9445 14.11 33.967 14.1965 33.9746C14.2679 33.9821 14.3394 33.9821 14.4146 33.9708C14.4523 33.967 14.4861 33.9595 14.5237 33.9482L14.5914 33.9369L16.096 33.4969L16.1637 33.4743C16.5361 33.3426 16.8295 33.0981 17.0702 32.7182C17.3298 32.3421 17.4577 31.9434 17.4577 31.5146L17.4652 29.7692C17.4652 29.205 17.642 28.6859 17.988 28.227C18.2927 27.7832 18.6801 27.4898 19.124 27.3581L20.6323 26.9181C20.6549 26.9105 20.6775 26.9068 20.7 26.8992C20.7677 26.8804 20.8317 26.8692 20.8956 26.8616C21.0762 26.8353 21.2455 26.8466 21.3997 26.888C21.5539 26.9293 21.6931 27.0046 21.821 27.1137C22.1294 27.3845 22.2836 27.802 22.2836 28.3625L22.2761 30.1115C22.2723 30.6344 22.1143 31.1309 21.8021 31.5747C21.4937 32.06 21.095 32.3835 20.6135 32.5226L19.1089 32.9627C18.7366 33.0718 18.4356 33.305 18.1799 33.6736C17.8902 34.0611 17.7511 34.4711 17.7511 34.9337L17.7435 36.7317C17.7473 37.1229 17.8827 37.4238 18.1611 37.6345C18.1761 37.6495 18.1874 37.6608 18.2024 37.6758C18.3115 37.7774 18.4281 37.8451 18.556 37.8827C18.6651 37.9128 18.7855 37.9203 18.9096 37.9015C18.9246 37.9015 18.9397 37.8978 18.9547 37.894C18.9698 37.894 18.9848 37.8865 18.9999 37.8865C19.0299 37.879 19.06 37.8714 19.0939 37.8639L20.6022 37.4238C21.001 37.311 21.3169 37.0552 21.5689 36.6527C21.8322 36.2728 21.9564 35.8816 21.9564 35.4491L21.9639 33.6962C21.9639 33.1358 22.1444 32.6204 22.4905 32.154C22.7952 31.7139 23.1826 31.4168 23.6265 31.2851L24.454 31.0444L24.5292 9.36708L24.7474 9.30314M25.3943 5.94415C25.3943 5.94415 25.3643 5.94791 25.3492 5.95167C25.274 5.96296 25.1987 5.97424 25.1235 5.98929C24.9731 6.01938 24.8188 6.05699 24.6684 6.10213C23.6979 6.388 22.7275 6.95974 21.8623 7.79479L9.18244 20.0007C7.44841 21.6671 6.36511 24.1496 6.35759 26.4704L6.2974 43.4835C6.28988 45.8081 7.35814 47.6588 9.08465 48.317L21.6968 53.1317C21.7269 53.143 21.757 53.1542 21.7871 53.1655C22.3288 53.3574 22.908 53.4251 23.5023 53.3762C23.5926 53.3687 23.6829 53.3574 23.7732 53.3461C23.8032 53.3423 23.8333 53.3386 23.8634 53.331C24.0741 53.2972 24.2885 53.2483 24.4991 53.1881C25.4696 52.9022 26.44 52.3305 27.3052 51.4954L39.9813 39.2895C41.7153 37.6232 42.7986 35.1406 42.8061 32.8198L42.8663 15.8067C42.8739 13.4821 41.8056 11.6315 40.0791 10.9732L27.4669 6.15855C27.3879 6.12846 27.3052 6.09837 27.2224 6.0758C27.1735 6.06076 27.1246 6.04571 27.0757 6.03443C26.5604 5.89901 26.0187 5.86892 25.462 5.94039C25.4395 5.94039 25.4169 5.94791 25.3943 5.94791" fill="white"/>
<path d="M24.4312 36.3067L23.6037 36.5474C23.1599 36.6791 22.7762 36.9687 22.4678 37.4163C22.1217 37.8828 21.9412 38.4018 21.9412 38.9585L21.9336 40.7377C21.9336 41.2643 22.1029 41.6593 22.4339 41.9075C22.6972 42.1708 23.0094 42.2762 23.3667 42.2235C23.4345 42.2122 23.5059 42.1972 23.5774 42.1784L24.4087 41.9376V41.5916L23.5774 41.8361C23.5473 41.8436 23.521 41.8511 23.4909 41.8586C23.4758 41.8586 23.4645 41.8662 23.4495 41.8662C23.4345 41.8662 23.4232 41.8699 23.4081 41.8737C23.1185 41.9151 22.8702 41.8248 22.6445 41.6029C22.3662 41.3885 22.2308 41.08 22.2308 40.6512L22.2383 38.872C22.2383 38.4094 22.3812 37.9994 22.6709 37.6082C22.9304 37.2358 23.2313 37.0063 23.6 36.8973L24.4275 36.6528V36.3067M20.8992 26.8617C20.8353 26.8692 20.7713 26.8843 20.7036 26.8993C20.6811 26.9068 20.6585 26.9106 20.6359 26.9181L19.1276 27.3582C18.68 27.4899 18.2963 27.7832 17.9916 28.2271C17.6456 28.686 17.4725 29.2088 17.4688 29.7693L17.4613 31.5146C17.4613 31.9397 17.3334 32.3384 17.0738 32.7183C16.8331 33.0982 16.5359 33.3427 16.1673 33.4743L16.0996 33.4969L14.595 33.937L14.5273 33.9483C14.4897 33.9558 14.4558 33.9633 14.4182 33.9708C14.343 33.9821 14.2715 33.9821 14.2001 33.9746C14.1136 33.9671 14.0308 33.9408 13.9518 33.9069C13.8502 33.8618 13.7562 33.7941 13.6659 33.7038C13.3838 33.4931 13.2447 33.1809 13.2484 32.7521L13.2559 31.0031C13.2559 30.4426 13.1017 30.0251 12.7933 29.758C12.6691 29.6452 12.5262 29.5699 12.372 29.5286C12.2178 29.4872 12.0485 29.4759 11.8642 29.5022C11.8454 29.5022 11.8228 29.5098 11.8003 29.5135C11.7777 29.5173 11.7589 29.521 11.7363 29.5248C11.6949 29.5323 11.6498 29.5436 11.6047 29.5587L10.0963 30.0025C9.6487 30.1342 9.26503 30.4276 8.96035 30.8714C8.6143 31.3303 8.43751 31.8531 8.43751 32.4098L8.42998 34.1589C8.42998 34.6855 8.59925 35.0842 8.93026 35.3325C9.1409 35.5431 9.38916 35.656 9.6675 35.6635C9.73145 35.6635 9.79916 35.6635 9.86686 35.6522C9.93457 35.6409 10.006 35.6259 10.0775 35.6071L11.5821 35.167C11.6611 35.1444 11.7363 35.1256 11.8115 35.1181C11.8492 35.1143 11.8868 35.1106 11.9206 35.1068C12.0109 35.103 12.0936 35.1068 12.1726 35.1256C12.3005 35.1519 12.4134 35.2084 12.5187 35.2911C12.53 35.3024 12.545 35.3137 12.5563 35.325C12.8121 35.5469 12.9362 35.8817 12.9325 36.3519L12.9249 38.1047C12.9249 38.3003 12.9475 38.4771 12.9964 38.6351C13.0077 38.6764 13.0227 38.7178 13.0415 38.7592C13.0867 38.8758 13.1469 38.9811 13.2258 39.0827L13.1882 39.1353L13.3011 39.2369C13.3312 39.2632 13.3613 39.2896 13.3913 39.3121L13.3989 39.3234C13.4365 39.361 13.4779 39.3949 13.523 39.425C13.7449 39.6018 14.0082 39.6732 14.2979 39.6469C14.3167 39.6469 14.3355 39.6431 14.358 39.6394C14.4295 39.6281 14.501 39.613 14.5762 39.5905L16.0808 39.1504L16.1748 39.1165L16.1598 38.951L16.1824 39.1165L16.3441 39.0488C16.6149 39.0187 16.8557 39.0827 17.055 39.2557C17.3033 39.4701 17.4236 39.7974 17.4312 40.245V40.3127L17.4199 42.0617C17.4199 42.5846 17.5891 42.9871 17.9239 43.2353C18.1684 43.4798 18.4618 43.5889 18.7928 43.5588C18.8154 43.5588 18.8379 43.5551 18.8605 43.5513C18.9282 43.54 18.9997 43.525 19.0712 43.5062L20.5757 43.0623C20.6322 43.0473 20.6848 43.0322 20.7412 43.0247C20.7601 43.0247 20.7789 43.0172 20.7977 43.0172C20.8353 43.0134 20.8767 43.0096 20.9143 43.0059C21.1625 42.9946 21.3732 43.0661 21.5537 43.2203C21.8095 43.446 21.9299 43.7845 21.9299 44.2472L21.9223 46C21.9223 46.5266 22.0916 46.9216 22.4226 47.1736C22.4527 47.2037 22.4866 47.2338 22.5204 47.2601C22.6671 47.3805 22.8289 47.4519 23.0019 47.482C23.1147 47.5008 23.2313 47.5008 23.3555 47.482C23.4232 47.4707 23.4946 47.4557 23.5661 47.4369L24.3974 47.1924V46.8426L23.5661 47.0871C23.5059 47.1059 23.4457 47.1172 23.3856 47.1284C23.0997 47.1698 22.8552 47.0833 22.637 46.8614C22.3587 46.647 22.2195 46.3348 22.2195 45.906L22.227 44.1569C22.227 43.6039 22.0766 43.1827 21.7644 42.9081C21.5123 42.6899 21.2001 42.6072 20.839 42.6561C20.7563 42.6673 20.6698 42.6862 20.5833 42.7125L19.0749 43.1526C19.0185 43.1714 18.9621 43.1827 18.9057 43.1902C18.616 43.2316 18.3678 43.1413 18.1421 42.9194C17.8637 42.7087 17.7246 42.3965 17.7246 41.9677L17.7321 40.1961V40.1773V40.1585C17.7283 39.6206 17.5703 39.2106 17.2694 38.9473C17.0212 38.7366 16.7202 38.6463 16.3704 38.6952H16.3516L16.1485 38.7855L16.0883 38.8043L14.5837 39.2444C14.5236 39.2632 14.4671 39.2745 14.4107 39.282C14.1549 39.3196 13.9255 39.2595 13.7336 39.1052C13.6998 39.0789 13.6659 39.0488 13.6396 39.03L13.6321 39.0112L13.6547 38.9774L13.5531 38.8796C13.4515 38.7818 13.3763 38.6689 13.3274 38.541C13.3161 38.5072 13.3048 38.4771 13.2898 38.4432C13.2522 38.3191 13.2334 38.1762 13.2334 38.0144L13.2409 36.2541C13.2409 35.7011 13.0867 35.2836 12.7782 35.0165C12.53 34.7946 12.2178 34.7119 11.8529 34.7608C11.7702 34.772 11.6836 34.7908 11.5934 34.8172L10.085 35.2573C10.0248 35.2761 9.96466 35.2874 9.90824 35.2949C9.6186 35.3363 9.37411 35.246 9.15595 35.0203C8.87384 34.8097 8.73466 34.4975 8.73842 34.0724L8.74595 32.3233C8.74595 31.8531 8.88512 31.4469 9.17475 31.0595C9.42677 30.6871 9.73145 30.4539 10.1038 30.3448L11.6084 29.9047C11.6836 29.8821 11.7589 29.8671 11.8303 29.8558C12.1313 29.8144 12.3795 29.8859 12.5826 30.0627C12.8347 30.2809 12.9588 30.6194 12.9588 31.0896L12.9513 32.8386C12.9513 33.3615 13.1205 33.764 13.4553 34.0122C13.7148 34.268 14.0308 34.3771 14.3844 34.3282C14.4258 34.3207 14.4671 34.3131 14.5085 34.3056L14.6025 34.2868L16.1071 33.843C16.141 33.8354 16.1748 33.8242 16.1936 33.8129C16.6337 33.6624 17.0061 33.3502 17.2957 32.8988C17.6079 32.4437 17.7659 31.9509 17.7697 31.4356L17.7772 29.6865C17.7772 29.2164 17.9164 28.8101 18.206 28.4227C18.4618 28.0503 18.7627 27.8171 19.1351 27.708L20.6397 27.2679C20.7149 27.2454 20.7901 27.2303 20.8616 27.219C21.1625 27.1777 21.4108 27.2491 21.6139 27.4259C21.8659 27.6441 21.9938 27.9788 21.99 28.4528L21.9825 30.2019C21.9825 30.6344 21.8546 31.0256 21.5913 31.4018C21.3318 31.808 21.0158 32.0638 20.6209 32.1804L19.1125 32.6242C18.6649 32.7521 18.285 33.0455 17.9766 33.4931C17.6305 33.952 17.4575 34.4711 17.4537 35.0278L17.4462 36.8296C17.4537 37.3223 17.6268 37.7022 17.9465 37.9505C18.2023 38.21 18.5145 38.3153 18.8756 38.2664C18.9433 38.2552 19.0147 38.2401 19.09 38.2213L20.5945 37.7812C21.0798 37.6383 21.4785 37.3185 21.7794 36.8371C22.0954 36.3819 22.2496 35.893 22.2534 35.3739L22.2609 33.621C22.2609 33.1584 22.4038 32.7484 22.6934 32.3609C22.9492 31.9886 23.2501 31.7516 23.6225 31.6463L24.45 31.4055V31.0595L23.6225 31.3002C23.1787 31.4319 22.795 31.729 22.4866 32.1691C22.1405 32.6355 21.96 33.1546 21.96 33.7113L21.9524 35.4641C21.9524 35.8967 21.8283 36.2841 21.565 36.6678C21.313 37.0703 20.9933 37.3223 20.5983 37.4389L19.09 37.879C19.0599 37.8865 19.0298 37.8978 18.9959 37.9016C18.9809 37.9016 18.9658 37.9091 18.9508 37.9091C18.9357 37.9091 18.9207 37.9129 18.9057 37.9166C18.7778 37.9354 18.6612 37.9279 18.5521 37.8978C18.4242 37.8602 18.3076 37.7925 18.1985 37.6909C18.1835 37.6796 18.1722 37.6646 18.1571 37.6496C17.8788 37.4389 17.7471 37.138 17.7396 36.7468L17.7471 34.9488C17.7471 34.4862 17.8863 34.0762 18.1759 33.6887C18.4317 33.3164 18.7326 33.0831 19.105 32.9778L20.6096 32.5377C21.0911 32.3986 21.4898 32.0751 21.7982 31.5898C22.1142 31.1422 22.2684 30.6495 22.2722 30.1266L22.2797 28.3776C22.2797 27.8171 22.1255 27.3996 21.817 27.1288C21.6891 27.0197 21.55 26.9444 21.3957 26.9031C21.2415 26.8617 21.0723 26.8504 20.8917 26.8767M25.349 5.95173C25.349 5.95173 25.3791 5.94797 25.3942 5.94421C25.4167 5.94421 25.4393 5.93668 25.4619 5.93668C26.0148 5.86521 26.5602 5.89531 27.0755 6.03072C27.1244 6.042 27.1733 6.05705 27.2222 6.07209C27.305 6.09843 27.3877 6.12476 27.4667 6.15485L40.0789 10.9695C41.8054 11.6278 42.8737 13.4784 42.8662 15.803L42.806 32.8161C42.7984 35.1369 41.7114 37.6195 39.9811 39.2858L27.305 51.4917C26.4399 52.3268 25.4694 52.8985 24.4989 53.1844C24.2845 53.2446 24.0739 53.2935 23.8633 53.3273C23.8332 53.3311 23.8031 53.3348 23.773 53.3424C23.6827 53.3537 23.5924 53.3649 23.5022 53.3725C22.9078 53.4214 22.3286 53.3537 21.7869 53.1618C21.7568 53.1505 21.7267 53.1393 21.6967 53.128L9.08448 48.3133C7.35797 47.655 6.28971 45.8044 6.29723 43.4798L6.35742 26.4667C6.36494 24.1459 7.452 21.6634 9.18228 19.997L21.8584 7.79484C22.7235 6.9598 23.694 6.38806 24.6644 6.10219C24.8149 6.05705 24.9691 6.01943 25.1196 5.98934C25.1948 5.9743 25.27 5.96301 25.3453 5.95173M25.4355 5.59063C25.1798 5.62824 24.924 5.6809 24.6644 5.75613C23.6413 6.05329 22.622 6.65888 21.7079 7.53906L9.03558 19.7375C7.2376 21.4678 6.1054 24.0293 6.06026 26.4404L6.03017 35.0617L6.00008 43.5663C5.99256 45.2439 6.51916 46.6921 7.43696 47.6588C7.7454 47.9861 8.10274 48.2569 8.49393 48.4638C8.6331 48.539 8.7798 48.6029 8.9265 48.6594L21.5387 53.474C22.2195 53.7298 22.9605 53.8013 23.7203 53.696C23.9761 53.6583 24.2319 53.6057 24.4914 53.5304C25.5145 53.2333 26.5339 52.6277 27.4479 51.7475L40.1203 39.5491C41.9183 37.8188 43.0505 35.2573 43.0956 32.8424L43.1257 24.2211L43.1558 15.7165C43.1671 13.2715 42.0424 11.3156 40.2256 10.6235L37.3631 9.52888L27.6134 5.80879C27.0831 5.60944 26.5151 5.52292 25.9321 5.54549C25.7666 5.55301 25.6011 5.56806 25.4318 5.59063" fill="#231F20"/>
</g>
<mask id="mask3_1_7484" style="mask-type:luminance" maskUnits="userSpaceOnUse" x="24" y="4" width="17" height="46">
<path d="M24.3862 49.1596L24.5292 9.37085L40.0903 4.82324L39.9512 44.612L24.3862 49.1596Z" fill="white"/>
</mask>
<g mask="url(#mask3_1_7484)">
<path d="M29.8479 35.1181C29.7764 35.1293 29.6975 35.1444 29.6185 35.167L28.1139 35.6071C27.7415 35.7161 27.4368 35.9493 27.1848 36.318C26.8952 36.7016 26.756 37.1116 26.756 37.5781L26.7485 39.3271C26.7447 39.8537 26.5867 40.3465 26.2745 40.7903C25.9661 41.2793 25.5636 41.5991 25.0859 41.7382L24.4126 41.9338L24.3938 46.8425L25.0671 46.6469C25.4658 46.5341 25.7818 46.2783 26.0376 45.8758C26.3009 45.4959 26.4288 45.101 26.4288 44.6722L26.4363 42.9193C26.4363 42.3626 26.6131 41.8436 26.9591 41.3809C27.2638 40.9333 27.6512 40.6436 28.0951 40.512L29.5997 40.0719C29.9984 39.9553 30.3181 39.6995 30.5701 39.297C30.8372 38.9134 30.9613 38.5259 30.9613 38.0934L30.9688 36.3443C30.9688 35.8741 30.8485 35.5356 30.5927 35.3174C30.3896 35.1369 30.1451 35.0692 29.8442 35.1105M30.3858 34.7871C30.54 34.8284 30.683 34.9074 30.8071 35.0165C30.683 34.9037 30.54 34.8284 30.3858 34.7871ZM29.8742 34.7607C29.7915 34.772 29.705 34.7908 29.6185 34.8171C29.7087 34.7908 29.7915 34.772 29.8742 34.7607ZM25.3492 31.1497C25.2777 31.161 25.2025 31.1761 25.1235 31.1986L24.4465 31.3942L24.4277 36.3067L25.1047 36.1073C25.5034 35.9907 25.8194 35.7349 26.0752 35.3325C26.3347 34.9563 26.4664 34.5538 26.4664 34.1288L26.4739 32.376C26.4739 31.9095 26.3535 31.5785 26.0977 31.3528C25.8946 31.1723 25.6464 31.1008 25.3454 31.146M25.8344 30.8074C26.015 30.845 26.173 30.9278 26.3159 31.0482C26.173 30.924 26.0112 30.845 25.8344 30.8074Z" fill="#EDC811"/>
<path d="M25.2739 9.19776C25.0971 9.22409 24.9203 9.25794 24.7435 9.30684L24.5254 9.37078L24.4501 31.0481L25.1272 30.8487C25.2137 30.8224 25.3002 30.8036 25.383 30.7923C25.5447 30.7697 25.6914 30.7735 25.8306 30.8036C26.0111 30.8412 26.1691 30.924 26.3121 31.0443C26.6205 31.3189 26.7747 31.7402 26.7747 32.2931L26.7672 34.046C26.7634 34.5613 26.6054 35.054 26.2932 35.5092C25.9848 35.9906 25.5823 36.3104 25.1009 36.4495L24.4238 36.6489L24.4125 40.1358V40.6737L24.4088 41.5877L25.0821 41.3883C25.477 41.2755 25.7967 41.0197 26.0525 40.6097C26.3158 40.2336 26.4437 39.8461 26.4437 39.4098L26.4512 37.6607C26.4512 37.0965 26.628 36.5812 26.9741 36.1185C27.275 35.6784 27.6624 35.3813 28.11 35.2496L29.6146 34.8095C29.7049 34.7832 29.7876 34.7644 29.8704 34.7531C30.0547 34.7268 30.224 34.7343 30.3782 34.7795C30.5324 34.8208 30.6753 34.8998 30.7995 35.0089C31.1079 35.276 31.2621 35.6935 31.2621 36.2539L31.2546 38.003C31.2546 38.5259 31.0929 39.0224 30.7807 39.4662C30.476 39.9477 30.0735 40.2712 29.592 40.4141L28.0875 40.8542C27.7226 40.9595 27.4104 41.1965 27.1584 41.5651C26.8687 41.9563 26.7296 42.3663 26.7296 42.829L26.7221 44.5818C26.7183 45.1009 26.5603 45.5974 26.2481 46.045C25.9397 46.5265 25.5372 46.8462 25.0595 46.9892L24.3862 47.1848L24.3787 49.1445C24.405 49.137 24.4313 49.1332 24.4614 49.1257L24.5667 49.0956C25.3754 48.8473 26.1879 48.3583 26.9176 47.6587L37.5513 37.4238C39.0521 35.9794 39.9812 33.8541 39.985 31.8418L40.0113 24.71L40.0376 17.552C40.0376 15.5509 39.1273 13.9748 37.6378 13.4068L27.0531 9.37454C26.4926 9.16014 25.887 9.10372 25.2664 9.19023" fill="#EDEDED"/>
<path d="M29.8741 34.7606C29.7914 34.7719 29.7049 34.7907 29.6184 34.8171L28.1138 35.2571C27.6662 35.3888 27.2825 35.6859 26.9778 36.126C26.6318 36.5925 26.455 37.1078 26.455 37.6682L26.4475 39.4173C26.4475 39.8536 26.3196 40.2411 26.0563 40.6172C25.8005 41.0235 25.4808 41.2792 25.0858 41.3958L24.4125 41.5952V41.9413L25.0858 41.7457C25.5635 41.6065 25.966 41.2868 26.2744 40.7978C26.5866 40.3502 26.7446 39.8612 26.7484 39.3346L26.7559 37.5855C26.7559 37.1191 26.8951 36.7091 27.1847 36.3254C27.4367 35.953 27.7414 35.7198 28.1138 35.6145L29.6184 35.1744C29.6974 35.1518 29.7726 35.133 29.8478 35.1255C30.145 35.0841 30.3932 35.1518 30.5963 35.3324C30.8521 35.5505 30.9725 35.8891 30.9725 36.3592L30.965 38.1083C30.965 38.5409 30.8408 38.9283 30.5738 39.312C30.3218 39.7145 30.002 39.9665 29.6033 40.0869L28.0987 40.5269C27.6549 40.6586 27.2712 40.9482 26.9628 41.3958C26.6167 41.8623 26.4399 42.3813 26.4399 42.9343L26.4324 44.6871C26.4324 45.1159 26.3045 45.5071 26.0412 45.8908C25.7854 46.2933 25.4695 46.5453 25.0708 46.6619L24.3975 46.8575V47.2073L25.0708 47.0117C25.5485 46.8688 25.9509 46.549 26.2594 46.0676C26.5716 45.6162 26.7296 45.1235 26.7333 44.6044L26.7408 42.8515C26.7408 42.3889 26.88 41.9789 27.1697 41.5877C27.4217 41.2191 27.7339 40.9858 28.0987 40.8768L29.6033 40.4367C30.0848 40.2937 30.4873 39.9703 30.7919 39.4888C31.1041 39.0412 31.2621 38.5484 31.2659 38.0256L31.2734 36.2765C31.2734 35.716 31.1192 35.2985 30.8107 35.0315C30.6866 34.9186 30.5437 34.8434 30.3895 34.802C30.2352 34.7606 30.066 34.7493 29.8817 34.7757M25.383 30.796C25.3002 30.8073 25.2175 30.8261 25.1272 30.8525L24.4501 31.0518V31.3979L25.1234 31.2023C25.2024 31.1797 25.2776 31.1647 25.3491 31.1534C25.65 31.112 25.8945 31.1797 26.1014 31.3603C26.3572 31.586 26.4813 31.917 26.4775 32.3834L26.47 34.1362C26.47 34.5575 26.3384 34.9637 26.0788 35.3399C25.8231 35.7386 25.5071 35.9944 25.1084 36.1148L24.4313 36.3141V36.6602L25.1046 36.4608C25.5861 36.3216 25.9886 36.0019 26.297 35.5204C26.6092 35.0653 26.7672 34.5688 26.7709 34.0572L26.7785 32.3044C26.7785 31.7515 26.6242 31.3302 26.3158 31.0556C26.1729 30.9315 26.0111 30.8525 25.8343 30.8149C25.6952 30.7848 25.5447 30.781 25.3867 30.8036" fill="#211D1E"/>
</g>
</g>
</g>
<defs>
<clipPath id="clip0_1_7484">
<rect width="48" height="57.3961" fill="white" transform="translate(0.199951 0.302002)"/>
</clipPath>
</defs>
</svg>
