<svg width="1841" height="860" viewBox="0 0 1841 860" fill="none" xmlns="http://www.w3.org/2000/svg">
              <g clip-path="url(#clip0_100_3164)">
              <path d="M-26.5 258.5H436.119C441.852 258.5 446.5 263.148 446.5 268.881V321.119C446.5 326.852 450.983 331.5 456.716 331.5C507.614 331.5 737.71 331.5 897.185 331.5C902.918 331.5 907.5 336.148 907.5 341.881V501.5M907.5 501.5C1076.25 501.5 1329.22 501.5 1382.8 501.5C1388.54 501.5 1393 506.148 1393 511.881V652.619C1393 658.352 1397.65 663 1403.38 663H1840M907.5 501.5V533" stroke="#C2C2DF" stroke-width="2.35937"/>
              <path d="M1324 503.5V374.381C1324 368.648 1328.65 364 1334.38 364H1842.5" stroke="#C2C2DF" stroke-width="2.35937"/>
              <rect x="1606.61" y="358.999" width="9.24303" height="23.1076" rx="4.62151" transform="rotate(90 1606.61 358.999)" fill="#117AF2"/>
              <rect x="1397.67" y="593.172" width="9.24303" height="23.1076" rx="4.62151" transform="rotate(180 1397.67 593.172)" fill="#117AF2"/>
              <rect x="1695.5" y="667.243" width="9.24303" height="23.1076" rx="4.62151" transform="rotate(-90 1695.5 667.243)" fill="#117AF2"/>
              <path d="M-7 607C9.60253 607 193.078 607 292.144 607C297.878 607 302.5 602.352 302.5 596.619V542.381C302.5 536.648 307.148 532 312.881 532H908" stroke="#C2C2DF" stroke-width="2.35937"/>
              <rect x="479.5" y="536.243" width="9.24303" height="23.1076" rx="4.62151" transform="rotate(-90 479.5 536.243)" fill="#117AF2"/>
              <rect x="86.5" y="263.243" width="9.24303" height="23.1076" rx="4.62151" transform="rotate(-90 86.5 263.243)" fill="#117AF2"/>
              <rect x="502.5" y="335.243" width="9.24303" height="23.1076" rx="4.62151" transform="rotate(-90 502.5 335.243)" fill="#117AF2"/>
              <rect x="-0.5" y="182" width="81" height="497" fill="url(#paint0_linear_100_3164)"/>
              <rect width="81" height="497" transform="matrix(-1 0 0 1 1840.5 182)" fill="url(#paint1_linear_100_3164)"/>
              </g>
              <defs>
              <linearGradient id="paint0_linear_100_3164" x1="-0.5" y1="430.5" x2="80.5" y2="430.5" gradientUnits="userSpaceOnUse">
              <stop stop-color="white"/>
              <stop offset="1" stop-color="white" stop-opacity="0"/>
              </linearGradient>
              <linearGradient id="paint1_linear_100_3164" x1="0" y1="248.5" x2="81" y2="248.5" gradientUnits="userSpaceOnUse">
              <stop stop-color="white"/>
              <stop offset="1" stop-color="white" stop-opacity="0"/>
              </linearGradient>
              <clipPath id="clip0_100_3164">
              <rect width="1841" height="860" rx="12" fill="white"/>
              </clipPath>
              </defs>
              </svg>