<svg width="48" height="49" viewBox="0 0 48 49" fill="none" xmlns="http://www.w3.org/2000/svg">
<path d="M18.6962 34.2059H14.7156V21.387H18.6962V34.2059ZM16.7037 19.6384C15.4309 19.6384 14.3984 18.5841 14.3984 17.3112C14.3984 16.6998 14.6413 16.1134 15.0736 15.6811C15.506 15.2487 16.0923 15.0059 16.7037 15.0059C17.3151 15.0059 17.9015 15.2487 18.3338 15.6811C18.7661 16.1134 19.009 16.6998 19.009 17.3112C19.009 18.5841 17.9762 19.6384 16.7037 19.6384ZM33.5942 34.2059H29.6222V27.9657C29.6222 26.4785 29.5922 24.5714 27.5526 24.5714C25.483 24.5714 25.1659 26.1871 25.1659 27.8586V34.2059H21.1896V21.387H25.0073V23.1356H25.063C25.5944 22.1284 26.8926 21.0656 28.8293 21.0656C32.8579 21.0656 33.5984 23.7185 33.5984 27.1643V34.2059H33.5942Z" fill="white"/>
</svg>
