<svg width="48" height="49" viewBox="0 0 48 49" fill="none" xmlns="http://www.w3.org/2000/svg">
<path fill-rule="evenodd" clip-rule="evenodd" d="M20.0406 15.0635C21.0646 15.0165 21.391 15.0059 23.9984 15.0059C26.6064 15.0059 26.9323 15.0171 27.9557 15.0635C28.9781 15.1099 29.6763 15.2725 30.287 15.5099C30.9275 15.751 31.5076 16.1288 31.9872 16.6171C32.4755 17.0966 32.8534 17.6768 33.0944 18.3173C33.3317 18.928 33.4939 19.6261 33.5408 20.648C33.5878 21.672 33.5984 21.9984 33.5984 24.6059C33.5984 27.2133 33.5873 27.5397 33.5408 28.5638C33.4944 29.5856 33.3317 30.2837 33.0944 30.8944C32.8491 31.5254 32.5205 32.0613 31.9872 32.5946C31.5077 33.0829 30.9275 33.4608 30.287 33.7019C29.6763 33.9392 28.9781 34.1013 27.9563 34.1483C26.9323 34.1952 26.6059 34.2059 23.9984 34.2059C21.391 34.2059 21.0646 34.1947 20.0406 34.1483C19.0187 34.1018 18.3206 33.9392 17.7099 33.7019C17.079 33.4565 16.543 33.128 16.0096 32.5946C15.5213 32.1152 15.1435 31.5349 14.9024 30.8944C14.6651 30.2837 14.503 29.5856 14.456 28.5638C14.4091 27.5397 14.3984 27.2138 14.3984 24.6059C14.3984 21.9979 14.4096 21.672 14.456 20.6485C14.5024 19.6261 14.6651 18.928 14.9024 18.3173C15.1436 17.6769 15.5214 17.0966 16.0096 16.6171C16.4891 16.1287 17.0694 15.7509 17.7099 15.5099C18.3206 15.2725 19.0187 15.1104 20.0406 15.0635ZM27.8779 16.7915C26.8656 16.7456 26.5616 16.7355 23.9984 16.7355C21.4352 16.7355 21.1312 16.7456 20.119 16.7915C19.183 16.8341 18.6747 16.9904 18.3366 17.1221C17.8886 17.296 17.5686 17.504 17.2326 17.84C16.8971 18.176 16.6886 18.496 16.5147 18.944C16.383 19.2821 16.2267 19.7904 16.184 20.7264C16.1382 21.7387 16.128 22.0427 16.128 24.6059C16.128 27.1691 16.1382 27.473 16.184 28.4853C16.2267 29.4213 16.383 29.9296 16.5147 30.2678C16.6685 30.6848 16.9138 31.0619 17.2326 31.3718C17.5423 31.6905 17.9196 31.9358 18.3366 32.0896C18.6747 32.2214 19.183 32.3776 20.119 32.4203C21.1312 32.4662 21.4347 32.4763 23.9984 32.4763C26.5622 32.4763 26.8656 32.4662 27.8779 32.4203C28.8139 32.3776 29.3222 32.2214 29.6603 32.0896C30.1083 31.9157 30.4283 31.7078 30.7643 31.3718C31.0831 31.062 31.3284 30.6848 31.4822 30.2678C31.6139 29.9296 31.7702 29.4213 31.8128 28.4853C31.8587 27.473 31.8689 27.1691 31.8689 24.6059C31.8689 22.0427 31.8587 21.7387 31.8128 20.7264C31.7702 19.7904 31.6139 19.2821 31.4822 18.944C31.3083 18.496 31.1003 18.176 30.7643 17.84C30.4283 17.5045 30.1083 17.296 29.6603 17.1221C29.3222 16.9904 28.8139 16.8341 27.8779 16.7915ZM22.7727 27.5652C23.1613 27.7262 23.5778 27.809 23.9984 27.809C24.848 27.809 25.6627 27.4715 26.2634 26.8708C26.8642 26.2702 27.2017 25.4554 27.2017 24.6059C27.2017 23.7563 26.8642 22.9416 26.2634 22.3409C25.6627 21.7401 24.848 21.4027 23.9984 21.4027C23.5778 21.4027 23.1613 21.4855 22.7727 21.6465C22.384 21.8075 22.0309 22.0434 21.7335 22.3409C21.436 22.6383 21.2001 22.9914 21.0391 23.38C20.8781 23.7687 20.7953 24.1852 20.7953 24.6059C20.7953 25.0265 20.8781 25.4431 21.0391 25.8317C21.2001 26.2203 21.436 26.5734 21.7335 26.8708C22.0309 27.1683 22.384 27.4043 22.7727 27.5652ZM20.5093 21.1167C21.4347 20.1913 22.6898 19.6715 23.9984 19.6715C25.3072 19.6715 26.5622 20.1913 27.4876 21.1167C28.413 22.0421 28.9328 23.2972 28.9328 24.6059C28.9328 25.9145 28.413 27.1696 27.4876 28.095C26.5622 29.0204 25.3072 29.5403 23.9984 29.5403C22.6898 29.5403 21.4347 29.0204 20.5093 28.095C19.5839 27.1696 19.0641 25.9145 19.0641 24.6059C19.0641 23.2972 19.5839 22.0421 20.5093 21.1167ZM30.027 20.4066C30.2457 20.1879 30.3686 19.8912 30.3686 19.5819C30.3686 19.2725 30.2457 18.9758 30.027 18.7571C29.8082 18.5383 29.5115 18.4155 29.2022 18.4155C28.8929 18.4155 28.5961 18.5383 28.3774 18.7571C28.1586 18.9758 28.0358 19.2725 28.0358 19.5819C28.0358 19.8912 28.1586 20.1879 28.3774 20.4066C28.5961 20.6254 28.8929 20.7483 29.2022 20.7483C29.5115 20.7483 29.8082 20.6254 30.027 20.4066Z" fill="white"/>
</svg>
