<svg width="48" height="49" viewBox="0 0 48 49" fill="none" xmlns="http://www.w3.org/2000/svg">
<path d="M35.5058 18.8337C35.2293 17.806 34.4183 16.9957 33.3908 16.7187C31.5125 16.2051 24.0002 16.2051 24.0002 16.2051C24.0002 16.2051 16.4879 16.2051 14.6096 16.6995C13.6013 16.976 12.7711 17.8064 12.4945 18.8342C12 20.7116 12 24.6051 12 24.6051C12 24.6051 12 28.5183 12.4941 30.3764C12.7711 31.4042 13.5811 32.2145 14.6096 32.4914C16.5071 33.0051 24.0002 33.0051 24.0002 33.0051C24.0002 33.0051 31.5125 33.0051 33.3908 32.5107C34.4188 32.2342 35.2293 31.4234 35.5058 30.3957C35.9999 28.5178 35.9999 24.6243 35.9999 24.6243C35.9999 24.6243 36.0196 20.7106 35.5054 18.8332L35.5058 18.8337ZM21.6081 28.2024V21.0078L27.8552 24.6051L21.6081 28.2024Z" fill="white"/>
</svg>
