<svg width="247" height="275" viewBox="0 0 247 275" fill="none" xmlns="http://www.w3.org/2000/svg">
<path d="M247 263.478V70.8859C247 69.079 245.72 66.8821 244.155 66.0022L134.495 4.33453C133.654 3.86141 132.871 3.89612 132.399 4.42747L131.346 5.61165C130.42 6.65346 130.015 8.32836 130.207 10.3308L130.586 14.3037L135.655 193.614C135.772 197.739 138.52 202.627 142.026 204.948L240.618 270.201C241.895 271.046 243.114 271.012 243.764 270.114L246.047 266.96C246.671 266.098 247 264.896 247 263.478Z" fill="#07101D"/>
<path d="M242.682 269.234V72.5531C242.682 71.3595 241.844 69.908 240.81 69.3112L132.011 6.49621C130.978 5.89938 130.14 6.38321 130.14 7.57686V204.258C130.14 205.452 130.978 206.903 132.011 207.5L240.81 270.315C241.844 270.912 242.682 270.428 242.682 269.234Z" fill="url(#paint0_linear_1_9355)"/>
<path d="M139.986 30.2793L232.835 83.8858C236.783 86.1653 239.983 84.3174 239.983 79.7586C239.983 75.1998 236.783 69.6563 232.835 67.3769L139.986 13.7704C136.038 11.491 132.837 13.3388 132.837 17.8976C132.837 22.4564 136.038 27.9999 139.986 30.2793Z" fill="white"/>
<path d="M158.517 32.2285C158.517 34.2194 159.915 36.6403 161.639 37.6358C163.363 38.6312 164.761 37.8242 164.761 35.8333C164.761 33.8425 163.363 31.4215 161.639 30.4261C159.915 29.4307 158.517 30.2376 158.517 32.2285Z" fill="#3A5DF3"/>
<path d="M147.591 25.9201C147.591 27.911 148.989 30.3319 150.713 31.3273C152.437 32.3228 153.835 31.5158 153.835 29.5249C153.835 27.534 152.437 25.1131 150.713 24.1177C148.989 23.1222 147.591 23.9292 147.591 25.9201Z" fill="#3A5DF3"/>
<path d="M136.664 19.6116C136.664 21.6025 138.062 24.0234 139.786 25.0189C141.51 26.0143 142.908 25.2073 142.908 23.2165C142.908 21.2256 141.51 18.8047 139.786 17.8092C138.062 16.8138 136.664 17.6207 136.664 19.6116Z" fill="#3A5DF3"/>
<path d="M177.175 121.096L199.9 134.216M177.175 144.698L199.9 157.819M160.317 102.663L200.909 126.099C203.183 127.411 205.026 130.604 205.026 133.229V141.12C205.026 143.746 203.183 144.81 200.909 143.497L160.317 120.062C158.043 118.749 156.2 115.556 156.2 112.931V105.04C156.2 102.414 158.043 101.35 160.317 102.663ZM166.328 114.833C166.328 116.421 165.213 117.065 163.837 116.271C162.461 115.477 161.346 113.545 161.346 111.957C161.346 110.369 162.461 109.725 163.837 110.519C165.213 111.313 166.328 113.245 166.328 114.833ZM160.317 126.266L200.909 149.701C203.183 151.014 205.026 154.206 205.026 156.832V164.723C205.026 167.348 203.183 168.413 200.909 167.1L160.317 143.664C158.043 142.351 156.2 139.159 156.2 136.534V128.642C156.2 126.017 158.043 124.953 160.317 126.266ZM166.328 138.435C166.328 140.024 165.213 140.668 163.837 139.873C162.461 139.079 161.346 137.148 161.346 135.56C161.346 133.971 162.461 133.327 163.837 134.122C165.213 134.916 166.328 136.847 166.328 138.435Z" stroke="white" stroke-width="2.22814" stroke-linecap="round" stroke-linejoin="round"/>
<path d="M216.023 263.478V70.8859C216.023 69.079 214.744 66.8821 213.179 66.0022L103.518 4.33453C102.677 3.86141 101.894 3.89612 101.422 4.42747L100.369 5.61165C99.4433 6.65346 99.0389 8.32836 99.23 10.3308L99.6092 14.3037L104.679 193.614C104.795 197.739 107.543 202.627 111.049 204.948L209.642 270.201C210.919 271.046 212.138 271.012 212.788 270.114L215.071 266.96C215.694 266.098 216.023 264.896 216.023 263.478Z" fill="#07101D"/>
<path d="M211.705 269.234V72.5531C211.705 71.3595 210.867 69.908 209.834 69.3112L101.035 6.49621C100.001 5.89938 99.1631 6.38321 99.1631 7.57686V204.258C99.1631 205.452 100.001 206.903 101.035 207.5L209.834 270.315C210.867 270.912 211.705 270.428 211.705 269.234Z" fill="url(#paint1_linear_1_9355)"/>
<path d="M109.009 30.2793L201.858 83.8858C205.806 86.1653 209.007 84.3174 209.007 79.7586C209.007 75.1998 205.806 69.6563 201.858 67.3769L109.009 13.7704C105.061 11.491 101.861 13.3388 101.861 17.8976C101.861 22.4564 105.061 27.9999 109.009 30.2793Z" fill="white"/>
<path d="M127.541 32.2285C127.541 34.2194 128.939 36.6403 130.663 37.6358C132.387 38.6312 133.785 37.8242 133.785 35.8333C133.785 33.8425 132.387 31.4215 130.663 30.4261C128.939 29.4307 127.541 30.2376 127.541 32.2285Z" fill="#3A5DF3"/>
<path d="M116.614 25.9201C116.614 27.911 118.012 30.3319 119.736 31.3273C121.46 32.3228 122.858 31.5158 122.858 29.5249C122.858 27.534 121.46 25.1131 119.736 24.1177C118.012 23.1222 116.614 23.9292 116.614 25.9201Z" fill="#3A5DF3"/>
<path d="M105.688 19.6116C105.688 21.6025 107.085 24.0234 108.81 25.0189C110.534 26.0143 111.931 25.2073 111.931 23.2165C111.931 21.2256 110.534 18.8047 108.81 17.8092C107.085 16.8138 105.688 17.6207 105.688 19.6116Z" fill="#3A5DF3"/>
<path d="M146.199 121.096L168.924 134.216M146.199 144.698L168.924 157.819M129.341 102.663L169.932 126.099C172.206 127.411 174.049 130.604 174.049 133.229V141.12C174.049 143.746 172.206 144.81 169.932 143.497L129.341 120.062C127.067 118.749 125.224 115.556 125.224 112.931V105.04C125.224 102.414 127.067 101.35 129.341 102.663ZM135.351 114.833C135.351 116.421 134.236 117.065 132.86 116.271C131.485 115.477 130.37 113.545 130.37 111.957C130.37 110.369 131.485 109.725 132.86 110.519C134.236 111.313 135.351 113.245 135.351 114.833ZM129.341 126.266L169.932 149.701C172.206 151.014 174.049 154.206 174.049 156.832V164.723C174.049 167.348 172.206 168.413 169.932 167.1L129.341 143.664C127.067 142.351 125.224 139.159 125.224 136.534V128.642C125.224 126.017 127.067 124.953 129.341 126.266ZM135.351 138.435C135.351 140.024 134.236 140.668 132.86 139.873C131.485 139.079 130.37 137.148 130.37 135.56C130.37 133.971 131.485 133.327 132.86 134.122C134.236 134.916 135.351 136.847 135.351 138.435Z" stroke="white" stroke-width="2.22814" stroke-linecap="round" stroke-linejoin="round"/>
<path d="M185.046 263.478V70.8859C185.046 69.079 183.767 66.8821 182.202 66.0022L72.5419 4.33453C71.7006 3.86141 70.9177 3.89612 70.4454 4.42747L69.3928 5.61165C68.4667 6.65346 68.0624 8.32836 68.2535 10.3308L68.6326 14.3037L73.702 193.614C73.8186 197.739 76.5666 202.627 80.0727 204.948L178.665 270.201C179.942 271.046 181.161 271.012 181.811 270.114L184.094 266.96C184.718 266.098 185.046 264.896 185.046 263.478Z" fill="#07101D"/>
<path d="M180.729 269.234V72.5531C180.729 71.3595 179.891 69.908 178.857 69.3112L70.0583 6.49621C69.0245 5.89938 68.1865 6.38321 68.1865 7.57686V204.258C68.1865 205.452 69.0245 206.903 70.0583 207.5L178.857 270.315C179.891 270.912 180.729 270.428 180.729 269.234Z" fill="url(#paint2_linear_1_9355)"/>
<path d="M78.0326 30.2793L170.882 83.8858C174.83 86.1653 178.03 84.3174 178.03 79.7586C178.03 75.1998 174.83 69.6563 170.882 67.3769L78.0326 13.7704C74.0845 11.491 70.884 13.3388 70.884 17.8976C70.884 22.4564 74.0845 27.9999 78.0326 30.2793Z" fill="white"/>
<path d="M96.5643 32.2285C96.5643 34.2194 97.962 36.6403 99.6861 37.6358C101.41 38.6312 102.808 37.8242 102.808 35.8333C102.808 33.8425 101.41 31.4215 99.6861 30.4261C97.962 29.4307 96.5643 30.2376 96.5643 32.2285Z" fill="#3A5DF3"/>
<path d="M85.6377 25.9201C85.6377 27.911 87.0354 30.3319 88.7596 31.3273C90.4838 32.3228 91.8815 31.5158 91.8815 29.5249C91.8815 27.534 90.4838 25.1131 88.7596 24.1177C87.0354 23.1222 85.6377 23.9292 85.6377 25.9201Z" fill="#3A5DF3"/>
<path d="M74.7112 19.6116C74.7112 21.6025 76.1089 24.0234 77.833 25.0189C79.5572 26.0143 80.9549 25.2073 80.9549 23.2165C80.9549 21.2256 79.5572 18.8047 77.833 17.8092C76.1089 16.8138 74.7112 17.6207 74.7112 19.6116Z" fill="#3A5DF3"/>
<path d="M115.222 121.096L137.947 134.216M115.222 144.698L137.947 157.819M98.3639 102.663L138.956 126.099C141.23 127.411 143.073 130.604 143.073 133.229V141.12C143.073 143.746 141.23 144.81 138.956 143.497L98.3639 120.062C96.0903 118.749 94.2471 115.556 94.2471 112.931V105.04C94.2471 102.414 96.0903 101.35 98.3639 102.663ZM104.375 114.833C104.375 116.421 103.259 117.065 101.884 116.271C100.508 115.477 99.3932 113.545 99.3932 111.957C99.3932 110.369 100.508 109.725 101.884 110.519C103.259 111.313 104.375 113.245 104.375 114.833ZM98.3639 126.266L138.956 149.701C141.23 151.014 143.073 154.206 143.073 156.832V164.723C143.073 167.348 141.23 168.413 138.956 167.1L98.3639 143.664C96.0903 142.351 94.2471 139.159 94.2471 136.534V128.642C94.2471 126.017 96.0903 124.953 98.3639 126.266ZM104.375 138.435C104.375 140.024 103.259 140.668 101.884 139.873C100.508 139.079 99.3932 137.148 99.3932 135.56C99.3932 133.971 100.508 133.327 101.884 134.122C103.259 134.916 104.375 136.847 104.375 138.435Z" stroke="white" stroke-width="2.22814" stroke-linecap="round" stroke-linejoin="round"/>
<path fill-rule="evenodd" clip-rule="evenodd" d="M80.2616 223.918C80.2214 224.318 79.9805 224.679 79.6192 224.839C79.2177 225.039 42.1183 246.734 41.7168 246.934C40.713 247.455 39.5486 247.455 38.5448 246.934C38.1433 246.734 1.04392 225.039 0.642413 224.839C0.281056 224.679 0 224.318 0 223.918C0 223.838 0.0401503 223.758 0.0401503 223.718H0V208.907L80.3017 208.987V223.718H80.2616C80.2214 223.798 80.2214 223.838 80.2616 223.918Z" fill="url(#paint3_linear_1_9355)"/>
<path fill-rule="evenodd" clip-rule="evenodd" d="M40.2708 186.051C39.7087 186.051 39.1867 186.171 38.7049 186.411C38.3034 186.651 1.20399 207.946 0.802478 208.187C0.44112 208.347 0.200216 208.707 0.160065 209.107C0.200216 209.508 0.44112 209.868 0.802478 210.028C1.20399 210.228 38.3034 231.523 38.7049 231.764C39.7087 232.284 40.8731 232.284 41.8768 231.764C42.2783 231.563 79.3777 210.268 79.7793 210.028C80.1406 209.868 80.3815 209.508 80.4217 209.107C80.3815 208.707 80.1406 208.347 79.7793 208.187C79.3777 207.987 42.2783 186.691 41.8768 186.451C41.3549 186.171 40.8329 186.051 40.2708 186.051Z" fill="url(#paint4_linear_1_9355)"/>
<path fill-rule="evenodd" clip-rule="evenodd" d="M80.2616 204.977C80.2214 205.377 79.9805 205.737 79.6192 205.897C79.2177 206.097 42.1183 227.793 41.7168 227.993C40.713 228.513 39.5486 228.513 38.5448 227.993C38.1433 227.793 1.04392 206.097 0.642413 205.897C0.281056 205.737 0 205.377 0 204.977C0 204.897 0.0401503 204.816 0.0401503 204.776H0V189.966L80.3017 190.046V204.776H80.2616C80.2214 204.856 80.2214 204.897 80.2616 204.977Z" fill="url(#paint5_linear_1_9355)"/>
<path fill-rule="evenodd" clip-rule="evenodd" d="M40.2708 167.109C39.7087 167.109 39.1867 167.229 38.7049 167.47C38.3034 167.71 1.20399 189.005 0.802478 189.245C0.44112 189.405 0.200216 189.766 0.160065 190.166C0.200216 190.566 0.44112 190.926 0.802478 191.087C1.20399 191.287 38.3034 212.582 38.7049 212.822C39.7087 213.343 40.8731 213.343 41.8768 212.822C42.2783 212.622 79.3777 191.327 79.7793 191.087C80.1406 190.926 80.3815 190.566 80.4217 190.166C80.3815 189.766 80.1406 189.405 79.7793 189.245C79.3777 189.045 42.2783 167.75 41.8768 167.51C41.3549 167.229 40.8329 167.109 40.2708 167.109Z" fill="url(#paint6_linear_1_9355)"/>
<path fill-rule="evenodd" clip-rule="evenodd" d="M80.2616 186.039C80.2214 186.439 79.9805 186.8 79.6192 186.96C79.2177 187.16 42.1183 208.855 41.7168 209.056C40.713 209.576 39.5486 209.576 38.5448 209.056C38.1433 208.855 1.04392 187.16 0.642413 186.96C0.281056 186.8 0 186.439 0 186.039C0 185.959 0.0401503 185.879 0.0401503 185.839H0V171.028L80.3017 171.108V185.839H80.2616C80.2214 185.919 80.2214 185.959 80.2616 186.039Z" fill="url(#paint7_linear_1_9355)"/>
<path fill-rule="evenodd" clip-rule="evenodd" d="M40.2708 148.172C39.7087 148.172 39.1867 148.292 38.7049 148.532C38.3034 148.772 1.20399 170.068 0.802478 170.308C0.44112 170.468 0.200216 170.828 0.160065 171.228C0.200216 171.629 0.44112 171.989 0.802478 172.149C1.20399 172.349 38.3034 193.644 38.7049 193.885C39.7087 194.405 40.8731 194.405 41.8768 193.885C42.2783 193.684 79.3777 172.389 79.7793 172.149C80.1406 171.989 80.3815 171.629 80.4217 171.228C80.3815 170.828 80.1406 170.468 79.7793 170.308C79.3777 170.108 42.2783 148.812 41.8768 148.572C41.3549 148.292 40.8329 148.172 40.2708 148.172Z" fill="url(#paint8_linear_1_9355)"/>
<g clip-path="url(#clip0_1_9355)">
<path d="M40.0162 173.614C52.2724 173.614 62.2081 163.679 62.2081 151.422C62.2081 139.166 52.2724 129.23 40.0162 129.23C27.7599 129.23 17.8242 139.166 17.8242 151.422C17.8242 163.679 27.7599 173.614 40.0162 173.614Z" fill="url(#paint9_radial_1_9355)"/>
</g>
<defs>
<linearGradient id="paint0_linear_1_9355" x1="186.411" y1="37.9037" x2="99.3735" y2="188.657" gradientUnits="userSpaceOnUse">
<stop stop-color="#346AF6"/>
<stop offset="1" stop-color="#1482FF"/>
</linearGradient>
<linearGradient id="paint1_linear_1_9355" x1="155.434" y1="37.9037" x2="68.3969" y2="188.657" gradientUnits="userSpaceOnUse">
<stop stop-color="#346AF6"/>
<stop offset="1" stop-color="#1482FF"/>
</linearGradient>
<linearGradient id="paint2_linear_1_9355" x1="124.458" y1="37.9037" x2="37.4204" y2="188.657" gradientUnits="userSpaceOnUse">
<stop stop-color="#346AF6"/>
<stop offset="1" stop-color="#1482FF"/>
</linearGradient>
<linearGradient id="paint3_linear_1_9355" x1="17.5111" y1="211.499" x2="-8.26581" y2="277.741" gradientUnits="userSpaceOnUse">
<stop stop-color="#354065"/>
<stop offset="0.652971" stop-color="#636F99"/>
</linearGradient>
<linearGradient id="paint4_linear_1_9355" x1="0.160065" y1="209.102" x2="80.4217" y2="209.102" gradientUnits="userSpaceOnUse">
<stop offset="0.51" stop-color="#636F99"/>
<stop offset="0.875" stop-color="#3F4B75"/>
</linearGradient>
<linearGradient id="paint5_linear_1_9355" x1="17.5111" y1="192.558" x2="-8.26581" y2="258.799" gradientUnits="userSpaceOnUse">
<stop stop-color="#354065"/>
<stop offset="0.652971" stop-color="#636F99"/>
</linearGradient>
<linearGradient id="paint6_linear_1_9355" x1="0.160065" y1="190.161" x2="80.4217" y2="190.161" gradientUnits="userSpaceOnUse">
<stop offset="0.51" stop-color="#636F99"/>
<stop offset="0.875" stop-color="#3F4B75"/>
</linearGradient>
<linearGradient id="paint7_linear_1_9355" x1="17.5111" y1="173.621" x2="-8.26581" y2="239.862" gradientUnits="userSpaceOnUse">
<stop stop-color="#354065"/>
<stop offset="0.652971" stop-color="#636F99"/>
</linearGradient>
<linearGradient id="paint8_linear_1_9355" x1="0.160065" y1="171.223" x2="80.4217" y2="171.223" gradientUnits="userSpaceOnUse">
<stop offset="0.51" stop-color="#636F99"/>
<stop offset="0.875" stop-color="#3F4B75"/>
</linearGradient>
<radialGradient id="paint9_radial_1_9355" cx="0" cy="0" r="1" gradientUnits="userSpaceOnUse" gradientTransform="translate(35.5969 139.333) scale(30.6858)">
<stop offset="0.19" stop-color="#D3DAF5"/>
<stop offset="0.59" stop-color="#A6B0D3"/>
<stop offset="0.72" stop-color="#909DC8"/>
<stop offset="0.87" stop-color="#8390C0"/>
<stop offset="1" stop-color="#69759F"/>
</radialGradient>
<clipPath id="clip0_1_9355">
<rect width="44.3839" height="44.3839" fill="white" transform="translate(17.8242 129.23)"/>
</clipPath>
</defs>
</svg>
