<svg width="397" height="292" viewBox="0 0 397 292" fill="none" xmlns="http://www.w3.org/2000/svg">
<path fill-rule="evenodd" clip-rule="evenodd" d="M164.671 213.692C164.589 214.513 164.095 215.252 163.353 215.58C162.529 215.991 86.4133 260.504 85.5895 260.914C83.5301 261.982 81.1412 261.982 79.0817 260.914C78.258 260.504 2.1418 215.991 1.31803 215.58C0.576637 215.252 0 214.513 0 213.692C0 213.527 0.0823756 213.363 0.0823756 213.281H0V182.894L164.754 183.059V213.281H164.671C164.589 213.445 164.589 213.527 164.671 213.692Z" fill="url(#paint0_linear_1_9568)"/>
<path fill-rule="evenodd" clip-rule="evenodd" d="M82.6228 136C81.4696 136 80.3987 136.246 79.4101 136.739C78.5864 137.232 2.4702 180.923 1.64643 181.416C0.905036 181.744 0.410776 182.483 0.3284 183.305C0.410776 184.126 0.905036 184.865 1.64643 185.194C2.4702 185.604 78.5864 229.295 79.4101 229.788C81.4696 230.856 83.8585 230.856 85.9179 229.788C86.7417 229.377 162.858 185.686 163.682 185.194C164.423 184.865 164.917 184.126 165 183.305C164.917 182.483 164.423 181.744 163.682 181.416C162.858 181.005 86.7417 137.314 85.9179 136.821C84.847 136.246 83.7761 136 82.6228 136Z" fill="url(#paint1_linear_1_9568)"/>
<path d="M369.39 246.237V112.515C369.39 109.906 367.552 106.735 365.293 105.446L185.165 2.62718C184.24 2.0992 183.345 1.95146 182.626 2.20825L175.887 4.61473C174.847 4.98649 174.286 6.16426 174.388 7.76506L182.788 139.195C182.947 141.681 184.643 144.532 186.722 145.808L358.949 251.488C360.009 252.139 361.04 252.294 361.823 251.92L368.063 248.945C368.908 248.542 369.39 247.559 369.39 246.237Z" fill="#07101D"/>
<path d="M362.151 249.852V116.086C362.151 114.084 360.747 111.651 359.013 110.65L176.615 5.34278C174.882 4.34222 173.477 5.15332 173.477 7.15445V140.921C173.477 142.922 174.882 145.356 176.615 146.356L359.013 251.664C360.746 252.665 362.151 251.853 362.151 249.852Z" fill="url(#paint2_linear_1_9568)"/>
<path d="M184.461 29.2712L351.166 125.518C354.735 127.579 357.627 125.909 357.627 121.788C357.627 117.667 354.735 112.657 351.166 110.596L184.461 14.3491C180.892 12.2888 177.999 13.959 177.999 18.0796C177.999 22.2002 180.892 27.2108 184.461 29.2712Z" fill="white"/>
<path d="M200.696 31.998C200.696 33.6463 201.853 35.6505 203.281 36.4747C204.708 37.2988 205.865 36.6307 205.865 34.9825C205.865 33.3342 204.708 31.33 203.281 30.5058C201.853 29.6817 200.696 30.3498 200.696 31.998Z" fill="#3A5DF3"/>
<path d="M191.65 26.7753C191.65 28.4236 192.807 30.4278 194.235 31.2519C195.662 32.0761 196.819 31.408 196.819 29.7597C196.819 28.1115 195.662 26.1072 194.235 25.2831C192.807 24.459 191.65 25.1271 191.65 26.7753Z" fill="#3A5DF3"/>
<path d="M182.604 21.5526C182.604 23.2008 183.761 25.2051 185.189 26.0292C186.616 26.8533 187.773 26.1853 187.773 24.537C187.773 22.8888 186.616 20.8845 185.189 20.0604C183.761 19.2363 182.604 19.9044 182.604 21.5526Z" fill="#3A5DF3"/>
<g clip-path="url(#clip0_1_9568)">
<path d="M238.562 109.647L282.785 135.18M238.562 127.885L282.785 153.417M259.357 103.416C254.922 109.061 252.571 117.182 252.571 126.854C252.571 136.526 254.922 147.362 259.357 158.128M261.99 104.936C266.424 115.702 268.775 126.537 268.775 136.209C268.775 145.882 266.424 154.002 261.99 159.648M236.982 117.854C236.982 121.446 237.595 125.357 238.786 129.364C239.976 133.37 241.721 137.393 243.921 141.204C246.121 145.014 248.733 148.537 251.607 151.571C254.482 154.605 257.562 157.092 260.673 158.888C263.785 160.684 266.865 161.755 269.739 162.04C272.614 162.325 275.225 161.817 277.425 160.547C279.625 159.277 281.37 157.269 282.561 154.637C283.752 152.006 284.364 148.802 284.364 145.21C284.364 137.955 281.868 129.555 277.425 121.86C272.982 114.165 266.957 107.804 260.673 104.176C254.39 100.548 248.364 99.9515 243.921 102.517C239.478 105.082 236.982 110.599 236.982 117.854Z" stroke="white" stroke-width="3.62336" stroke-linecap="round" stroke-linejoin="round"/>
</g>
<path d="M83.3296 143.235V151.315V176.337C83.3296 177.497 83.668 178.699 84.3665 179.916C87.7796 185.821 98.5232 189.687 108.367 188.557C115.999 187.678 120.845 184.049 121.054 179.707H121.061V146.368L83.3152 143.235H83.3296Z" fill="#1482FF"/>
<path d="M120.026 142.837C116.612 136.933 105.869 133.066 96.0255 134.196C86.1821 135.334 80.9615 141.044 84.3747 146.949C87.7878 152.853 98.5313 156.72 108.375 155.59C118.218 154.452 123.439 148.742 120.026 142.837Z" fill="#346AF6"/>
<path d="M58.1642 174.971V190.863C58.1642 192.023 58.5027 193.225 59.2012 194.442C62.6143 200.347 73.3578 204.214 83.2012 203.083C90.834 202.205 95.6801 198.575 95.889 194.233H95.8961V178.104L58.1498 174.971H58.1642Z" fill="#1482FF"/>
<path d="M94.8655 174.577C91.4524 168.672 80.7089 164.806 70.8654 165.936C61.022 167.074 55.8015 172.784 59.2146 178.689C62.6278 184.593 73.3713 188.46 83.2147 187.329C93.0581 186.192 98.2787 180.482 94.8655 174.577Z" fill="#346AF6"/>
<path d="M70.7485 200.457L66.4784 201.299C61.6107 197.504 53.3803 195.344 45.7043 196.23C44.3217 196.388 43.0256 196.64 41.8375 196.972L33.0022 197.324V205.404C33.0022 206.563 33.3406 207.766 34.0391 208.982C37.4522 214.887 48.1957 218.754 58.0392 217.623C65.672 216.745 70.5181 213.116 70.7269 208.774H70.7341V200.457H70.7485Z" fill="#1482FF"/>
<path d="M69.6984 196.929C66.2853 191.025 55.5417 187.158 45.6983 188.288C35.8549 189.426 30.6344 195.136 34.0475 201.041C37.4607 206.946 48.2042 210.812 58.0476 209.682C67.891 208.544 73.1116 202.834 69.6984 196.929Z" fill="#346AF6"/>
<g clip-path="url(#clip1_1_9568)">
<mask id="mask0_1_9568" style="mask-type:luminance" maskUnits="userSpaceOnUse" x="247" y="173" width="111" height="119">
<path d="M266.265 174L357.658 190.625L339.388 291.054L247.996 274.428L266.265 174Z" fill="white"/>
</mask>
<g mask="url(#mask0_1_9568)">
<path d="M285.495 191.347C283.178 194.979 281.433 199.523 280.457 204.904C279.636 209.415 279.413 214.185 279.707 219.032L313.242 229.509L285.495 191.35V191.347Z" fill="#1482FF"/>
<path d="M303.69 230.715C309.678 230.036 314.655 229.148 318.342 228.392C330.14 225.971 332.445 224.145 332.794 222.3C332.968 221.385 332.632 220.61 332.451 220.212C326.453 206.872 318.339 199.84 318.339 199.84C312.732 194.98 306.201 189.321 295.727 187.26C289.225 185.98 283.673 186.571 280.099 187.247L303.69 230.712V230.715Z" fill="#086EE3"/>
<path d="M319.844 223.192L306.685 283.545C313.892 282.886 318.661 280.443 321.622 278.384C335.682 268.593 340.245 245.529 332.693 220.846C328.411 221.822 324.126 222.794 319.844 223.77V223.195V223.192Z" fill="#6A6C72"/>
<path d="M313.249 229.599L279.718 219.106C280.981 239.016 291.128 260.335 305.684 271.261C308.178 273.132 310.67 274.596 313.126 275.679L313.252 229.593V229.602L313.249 229.599Z" fill="white"/>
<path d="M264.651 197.356C262.276 201.066 260.495 205.706 259.494 211.203C258.657 215.812 258.427 220.685 258.734 225.639L293.102 236.361L264.648 197.356H264.651Z" fill="#1482FF"/>
<path d="M292.379 235.563L320.979 223.606C316.409 211.61 309.022 200.581 299.97 193.791C286.087 183.372 272.233 185.418 264.613 197.285L292.379 235.725V235.563Z" fill="#1482FF"/>
<path d="M292.343 235.57L292.272 281.679C298.264 284.309 304.035 284.632 309.064 282.874C320.038 279.035 323.499 266.341 325.186 260.14C329.681 243.623 323.68 229.155 320.946 223.519C311.442 227.523 301.938 231.527 292.437 235.531L292.347 235.57H292.343Z" fill="#74777E"/>
<path d="M292.349 235.576L258.818 225.08C260.082 244.99 270.229 266.308 284.784 277.235C287.279 279.106 289.77 280.57 292.226 281.652L292.353 235.576H292.349Z" fill="white"/>
</g>
</g>
<g clip-path="url(#clip2_1_9568)">
<path d="M380.5 76C389.613 76 397 68.6127 397 59.5C397 50.3873 389.613 43 380.5 43C371.387 43 364 50.3873 364 59.5C364 68.6127 371.387 76 380.5 76Z" fill="url(#paint3_radial_1_9568)"/>
</g>
<defs>
<linearGradient id="paint0_linear_1_9568" x1="0" y1="222.305" x2="164.754" y2="222.305" gradientUnits="userSpaceOnUse">
<stop stop-color="white"/>
<stop offset="1" stop-color="#A9BCEA"/>
</linearGradient>
<linearGradient id="paint1_linear_1_9568" x1="82.664" y1="136" x2="82.664" y2="230.589" gradientUnits="userSpaceOnUse">
<stop offset="0.31" stop-color="white"/>
<stop offset="0.81" stop-color="#C4D1F1"/>
<stop offset="1" stop-color="#C4D1F1"/>
</linearGradient>
<linearGradient id="paint2_linear_1_9568" x1="267.814" y1="57.9966" x2="206.754" y2="163.757" gradientUnits="userSpaceOnUse">
<stop stop-color="#346AF6"/>
<stop offset="1" stop-color="#1482FF"/>
</linearGradient>
<radialGradient id="paint3_radial_1_9568" cx="0" cy="0" r="1" gradientUnits="userSpaceOnUse" gradientTransform="translate(377.214 50.511) scale(22.8153)">
<stop offset="0.19" stop-color="#D3DAF5"/>
<stop offset="0.59" stop-color="#A6B0D3"/>
<stop offset="0.72" stop-color="#909DC8"/>
<stop offset="0.87" stop-color="#8390C0"/>
<stop offset="1" stop-color="#69759F"/>
</radialGradient>
<clipPath id="clip0_1_9568">
<rect width="72.9491" height="72.9491" fill="white" transform="matrix(0.866025 0.5 0 1 229.085 76.8201)"/>
</clipPath>
<clipPath id="clip1_1_9568">
<rect width="109.658" height="117.052" fill="white" transform="matrix(-1 0 0 1 357.656 174)"/>
</clipPath>
<clipPath id="clip2_1_9568">
<rect width="33" height="33" fill="white" transform="translate(364 43)"/>
</clipPath>
</defs>
</svg>
