<svg width="320" height="263" viewBox="0 0 320 263" fill="none" xmlns="http://www.w3.org/2000/svg">
<path d="M262.858 170.872C262.858 225.902 224.224 248.208 176.566 220.692C128.908 193.177 90.2741 126.261 90.2741 71.2306C90.2741 16.2002 128.908 -6.10519 176.566 21.41C224.224 48.9251 262.858 115.841 262.858 170.872Z" fill="url(#paint0_linear_1_9136)"/>
<path d="M253.799 171.438C253.799 226.468 215.165 248.774 167.508 221.258C119.85 193.743 81.2158 126.827 81.2158 71.7967C81.2158 16.7664 119.85 -5.53905 167.508 21.9761C215.165 49.4913 253.799 116.408 253.799 171.438Z" fill="url(#paint1_linear_1_9136)"/>
<path d="M232.226 158.983C232.226 200.255 203.251 216.985 167.508 196.348C131.764 175.712 102.789 125.525 102.789 84.2519C102.789 42.9791 131.764 26.25 167.508 46.8864C203.251 67.5228 232.226 117.71 232.226 158.983Z" fill="white"/>
<path d="M216.047 149.641C216.047 180.596 194.315 193.143 167.508 177.665C140.7 162.188 118.968 124.548 118.968 93.5932C118.968 62.6387 140.7 50.0919 167.508 65.5691C194.315 81.0464 216.047 118.687 216.047 149.641Z" fill="url(#paint2_linear_1_9136)"/>
<path d="M194.811 137.381C194.811 154.793 182.587 161.85 167.508 153.144C152.428 144.438 140.204 123.266 140.204 105.854C140.204 88.4418 152.428 81.3842 167.508 90.0902C182.587 98.7962 194.811 119.969 194.811 137.381Z" fill="white"/>
<g clip-path="url(#clip0_1_9136)">
<path d="M275.504 75C284.617 75 292.004 67.6127 292.004 58.5C292.004 49.3873 284.617 42 275.504 42C266.391 42 259.004 49.3873 259.004 58.5C259.004 67.6127 266.391 75 275.504 75Z" fill="url(#paint3_radial_1_9136)"/>
</g>
<rect width="91.9372" height="91.9372" rx="12.2583" transform="matrix(0.859406 0.511293 0 1 209.483 112.969)" fill="#0309BB"/>
<g clip-path="url(#clip1_1_9136)">
<rect width="91.9372" height="91.9372" rx="12.2583" transform="matrix(0.859406 0.511293 0 1 197.416 115.896)" fill="white"/>
<g clip-path="url(#clip2_1_9136)">
<path d="M228.008 181.033V190.609C228.008 193.076 231.907 197.329 236.72 200.107C241.534 202.886 245.432 203.134 245.432 200.667V191.09M241.076 164.314V174.53C241.076 175.207 241.306 175.989 241.714 176.704C242.123 177.418 242.676 178.007 243.254 178.341L251.966 183.369M241.076 164.314L225.83 155.514C224.675 154.847 223.567 154.746 222.75 155.232C221.933 155.719 221.474 156.753 221.474 158.108V193.861C221.474 195.216 221.933 196.78 222.75 198.209C223.567 199.638 224.675 200.816 225.83 201.483L247.61 214.055C248.765 214.721 249.873 214.823 250.69 214.336C251.507 213.85 251.966 212.816 251.966 211.461V183.369M241.076 164.314L251.966 183.369M228.008 181.671C228.008 182.856 228.926 184.523 230.56 186.304C232.194 188.085 234.41 189.835 236.72 191.169C239.031 192.503 241.247 193.311 242.88 193.416C244.514 193.521 245.432 192.914 245.432 191.728C245.432 190.543 244.514 188.877 242.88 187.095C241.247 185.314 239.031 183.564 236.72 182.231C234.41 180.897 232.194 180.089 230.56 179.984C228.926 179.879 228.008 180.486 228.008 181.671Z" stroke="black" stroke-width="2" stroke-linecap="round" stroke-linejoin="round"/>
</g>
</g>
<rect width="75.1372" height="75.1372" rx="10.0183" transform="matrix(0.859406 0.511293 0 1 56.5378 56.2437)" fill="#0309BB"/>
<g clip-path="url(#clip3_1_9136)">
<rect width="75.1372" height="75.1372" rx="10.0183" transform="matrix(0.859406 0.511293 0 1 46.6758 58.6353)" fill="white"/>
<g clip-path="url(#clip4_1_9136)">
<path d="M78.7979 102.413C78.7979 103.52 79.173 104.799 79.8406 105.967C80.5083 107.135 81.4138 108.098 82.3579 108.643C83.3021 109.187 84.2076 109.27 84.8752 108.873C85.5429 108.475 85.9179 107.63 85.9179 106.523M78.7979 102.413C78.7979 101.306 79.173 100.461 79.8406 100.064C80.5083 99.6661 81.4138 99.7489 82.3579 100.294C83.3021 100.839 84.2076 101.801 84.8752 102.97C85.5429 104.138 85.9179 105.416 85.9179 106.523M78.7979 102.413L64.558 94.1938M85.9179 106.523L93.0379 110.633M68.118 108.772C68.118 109.879 68.493 111.157 69.1607 112.325C69.8283 113.493 70.7338 114.456 71.678 115.001C72.6221 115.546 73.5276 115.629 74.1953 115.231C74.8629 114.834 75.238 113.988 75.238 112.881M68.118 108.772C68.118 107.664 68.493 106.819 69.1607 106.422C69.8283 106.024 70.7338 106.107 71.678 106.652C72.6221 107.197 73.5276 108.16 74.1953 109.328C74.8629 110.496 75.238 111.774 75.238 112.881M68.118 108.772L64.558 106.717M75.238 112.881L93.0379 123.156M84.1379 130.541C84.1379 131.648 84.513 132.927 85.1806 134.095C85.8483 135.263 86.7538 136.226 87.6979 136.771C88.6421 137.316 89.5476 137.398 90.2152 137.001C90.8828 136.603 91.2579 135.758 91.2579 134.651M84.1379 130.541C84.1379 129.434 84.513 128.589 85.1806 128.192C85.8483 127.794 86.7538 127.877 87.6979 128.422C88.6421 128.967 89.5476 129.929 90.2152 131.098C90.8828 132.266 91.2579 133.544 91.2579 134.651M84.1379 130.541L64.558 119.24M91.2579 134.651L93.0379 135.679" stroke="black" stroke-width="2" stroke-linecap="round" stroke-linejoin="round"/>
</g>
</g>
<g clip-path="url(#clip5_1_9136)">
<mask id="mask0_1_9136" style="mask-type:luminance" maskUnits="userSpaceOnUse" x="-1" y="69" width="90" height="95">
<path d="M14.7739 69.0001L88.6846 82.4453L73.9101 163.664L-0.000584382 150.218L14.7739 69.0001Z" fill="white"/>
</mask>
<g mask="url(#mask0_1_9136)">
<path d="M30.3259 83.0288C28.452 85.9663 27.0408 89.6408 26.2515 93.9922C25.5877 97.6406 25.4074 101.498 25.6452 105.418L52.765 113.891L30.3259 83.0314V83.0288Z" fill="#1482FF"/>
<path d="M45.04 114.866C49.8827 114.318 53.9074 113.599 56.8894 112.987C66.4311 111.03 68.2945 109.553 68.5767 108.061C68.7179 107.321 68.4461 106.694 68.2997 106.373C63.4491 95.5844 56.8868 89.8976 56.8868 89.8976C52.3524 85.9669 47.0706 81.3908 38.6004 79.7234C33.3422 78.6885 28.8523 79.1667 25.9618 79.7129L45.04 114.864V114.866Z" fill="#086EE3"/>
<path d="M58.1044 108.782L47.4624 157.591C53.2904 157.058 57.1478 155.082 59.5418 153.417C70.9129 145.499 74.6031 126.846 68.4954 106.885C65.0326 107.674 61.5672 108.461 58.1044 109.25V108.785V108.782Z" fill="#6A6C72"/>
<path d="M52.7705 113.964L25.6533 105.478C26.6752 121.58 34.8814 138.82 46.6524 147.657C48.67 149.17 50.685 150.354 52.6712 151.229L52.7731 113.959V113.967L52.7705 113.964Z" fill="white"/>
<path d="M13.469 87.8882C11.5481 90.8884 10.1081 94.6413 9.29794 99.0868C8.62105 102.814 8.4355 106.755 8.68378 110.761L36.4778 119.433L13.4664 87.8882H13.469Z" fill="#1482FF"/>
<path d="M35.8929 118.787L59.0219 109.117C55.3265 99.4159 49.3522 90.4962 42.0319 85.0054C30.8045 76.5796 19.6006 78.2339 13.4381 87.8305L35.8929 118.918V118.787Z" fill="#1482FF"/>
<path d="M35.864 118.792L35.8065 156.081C40.6518 158.209 45.3195 158.47 49.386 157.048C58.2613 153.943 61.0603 143.678 62.4245 138.663C66.0598 125.305 61.2066 113.605 58.9957 109.047C51.3095 112.285 43.6233 115.523 35.9398 118.761L35.8666 118.792H35.864Z" fill="#74777E"/>
<path d="M35.8688 118.798L8.75167 110.309C9.77353 126.411 17.9798 143.652 29.7508 152.488C31.7683 154.001 33.7833 155.185 35.7695 156.06L35.8715 118.798H35.8688Z" fill="white"/>
</g>
</g>
<defs>
<linearGradient id="paint0_linear_1_9136" x1="172.037" y1="9.62451" x2="172.037" y2="233.044" gradientUnits="userSpaceOnUse">
<stop stop-color="#2C59CD"/>
<stop offset="1" stop-color="#0C58AE"/>
</linearGradient>
<linearGradient id="paint1_linear_1_9136" x1="172.037" y1="9.62451" x2="172.037" y2="233.044" gradientUnits="userSpaceOnUse">
<stop stop-color="#346AF6"/>
<stop offset="1" stop-color="#1482FF"/>
</linearGradient>
<linearGradient id="paint2_linear_1_9136" x1="172.037" y1="9.62451" x2="172.037" y2="233.044" gradientUnits="userSpaceOnUse">
<stop stop-color="#346AF6"/>
<stop offset="1" stop-color="#1482FF"/>
</linearGradient>
<radialGradient id="paint3_radial_1_9136" cx="0" cy="0" r="1" gradientUnits="userSpaceOnUse" gradientTransform="translate(272.218 49.511) scale(22.8153)">
<stop offset="0.19" stop-color="#D3DAF5"/>
<stop offset="0.59" stop-color="#A6B0D3"/>
<stop offset="0.72" stop-color="#909DC8"/>
<stop offset="0.87" stop-color="#8390C0"/>
<stop offset="1" stop-color="#69759F"/>
</radialGradient>
<clipPath id="clip0_1_9136">
<rect width="33" height="33" fill="white" transform="translate(259.004 42)"/>
</clipPath>
<clipPath id="clip1_1_9136">
<rect width="91.9372" height="91.9372" rx="12.2583" transform="matrix(0.859406 0.511293 0 1 197.416 115.896)" fill="white"/>
</clipPath>
<clipPath id="clip2_1_9136">
<rect width="61.2915" height="61.2915" fill="white" transform="matrix(0.852838 0.492271 0 1 210.584 139.053)"/>
</clipPath>
<clipPath id="clip3_1_9136">
<rect width="75.1372" height="75.1372" rx="10.0183" transform="matrix(0.859406 0.511293 0 1 46.6758 58.6353)" fill="white"/>
</clipPath>
<clipPath id="clip4_1_9136">
<rect width="50.0915" height="50.0915" fill="white" transform="matrix(0.852838 0.492271 0 1 57.438 77.561)"/>
</clipPath>
<clipPath id="clip5_1_9136">
<rect width="88.6823" height="94.6618" fill="white" transform="matrix(-1 0 0 1 88.6836 69)"/>
</clipPath>
</defs>
</svg>
