<svg width="24" height="24" viewBox="0 0 24 24" fill="none" xmlns="http://www.w3.org/2000/svg">
<path d="M23.5861 19.8648H0.413812C0.185297 19.8648 0 19.6795 0 19.451V4.55444C0 4.32592 0.185297 4.14062 0.413812 4.14062H23.5862C23.8147 4.14062 24 4.32592 24 4.55444V19.451C24 19.6795 23.8147 19.8648 23.5861 19.8648Z" fill="#F5F5F5"/>
<path d="M24 5.35023H0V4.55444C0 4.32592 0.185297 4.14062 0.413812 4.14062H23.5862C23.8147 4.14062 24 4.32592 24 4.55444L24 5.35023Z" fill="#FF4B55"/>
<path d="M24 8.97656H0V10.1861H24V8.97656Z" fill="#FF4B55"/>
<path d="M24 6.5625H0V7.77206H24V6.5625Z" fill="#FF4B55"/>
<path d="M24 12.608H0.413812C0.185297 12.608 0 12.4227 0 12.1942V11.3984H24V12.608Z" fill="#FF4B55"/>
<path d="M24 16.2383H0V17.4478H24V16.2383Z" fill="#FF4B55"/>
<path d="M23.5861 19.8658H0.413812C0.185297 19.8658 0 19.6805 0 19.452V18.6562H24V19.452C24 19.6806 23.8147 19.8658 23.5861 19.8658Z" fill="#FF4B55"/>
<path d="M24 13.8164H0V15.026H24V13.8164Z" fill="#FF4B55"/>
<path d="M10.7586 4.14062H0.413812C0.185297 4.14062 0 4.32587 0 4.55439V12.1936C0 12.4221 0.185297 12.6074 0.413812 12.6074H10.7586C10.9872 12.6074 11.1724 12.4221 11.1724 12.1936V4.55439C11.1724 4.32587 10.9871 4.14062 10.7586 4.14062Z" fill="#41479B"/>
<path d="M1.16577 5.08942L1.25736 5.36411L1.54691 5.36631C1.58441 5.36664 1.59992 5.41445 1.56978 5.43672L1.33686 5.60875L1.42423 5.8848C1.43558 5.92051 1.39484 5.95014 1.36433 5.9283L1.12878 5.75997L0.893235 5.92834C0.86272 5.95014 0.822079 5.92056 0.833329 5.88484L0.920704 5.6088L0.687782 5.43676C0.657642 5.41445 0.673157 5.36669 0.710657 5.36636L1.0002 5.36416L1.0918 5.08947C1.10361 5.05384 1.15386 5.05384 1.16577 5.08942Z" fill="#F5F5F5"/>
<path d="M1.16577 6.52664L1.25736 6.80133L1.54691 6.80353C1.58441 6.80386 1.59992 6.85167 1.56978 6.87394L1.33686 7.04597L1.42423 7.32202C1.43558 7.35773 1.39484 7.38736 1.36433 7.36552L1.12878 7.19719L0.893235 7.36556C0.86272 7.38736 0.822079 7.35778 0.833329 7.32206L0.920704 7.04602L0.687782 6.87399C0.657642 6.85167 0.673157 6.80391 0.710657 6.80358L1.0002 6.80138L1.0918 6.52669C1.10361 6.49111 1.15386 6.49111 1.16577 6.52664Z" fill="#F5F5F5"/>
<path d="M1.16577 7.96414L1.25736 8.23883L1.54691 8.24103C1.58441 8.24136 1.59992 8.28917 1.56978 8.31144L1.33686 8.48347L1.42423 8.75952C1.43558 8.79523 1.39484 8.82486 1.36433 8.80302L1.12878 8.63469L0.893235 8.80306C0.86272 8.82486 0.822079 8.79528 0.833329 8.75956L0.920704 8.48352L0.687782 8.31149C0.657642 8.28917 0.673157 8.24141 0.710657 8.24108L1.0002 8.23888L1.0918 7.96419C1.10361 7.92861 1.15386 7.92861 1.16577 7.96414Z" fill="#F5F5F5"/>
<path d="M1.16577 9.40168L1.25736 9.67636L1.54691 9.67857C1.58441 9.6789 1.59992 9.72671 1.56978 9.74897L1.33686 9.921L1.42423 10.1971C1.43558 10.2328 1.39484 10.2624 1.36433 10.2406L1.12878 10.0722L0.893235 10.2406C0.86272 10.2624 0.822079 10.2328 0.833329 10.1971L0.920704 9.92105L0.687782 9.74902C0.657642 9.72671 0.673157 9.67894 0.710657 9.67861L1.0002 9.67641L1.0918 9.40172C1.10361 9.3661 1.15386 9.3661 1.16577 9.40168Z" fill="#F5F5F5"/>
<path d="M1.16577 10.8392L1.25736 11.1139L1.54691 11.1161C1.58441 11.1164 1.59992 11.1642 1.56978 11.1865L1.33686 11.3585L1.42423 11.6346C1.43558 11.6703 1.39484 11.6999 1.36433 11.6781L1.12878 11.5098L0.893235 11.6781C0.86272 11.6999 0.822079 11.6704 0.833329 11.6346L0.920704 11.3586L0.687782 11.1866C0.657642 11.1642 0.673157 11.1165 0.710657 11.1161L1.0002 11.1139L1.0918 10.8393C1.10361 10.8036 1.15386 10.8036 1.16577 10.8392Z" fill="#F5F5F5"/>
<path d="M2.28295 5.79227L2.37455 6.06696L2.66409 6.06916C2.70159 6.06949 2.71711 6.1173 2.68697 6.13957L2.45405 6.3116L2.54142 6.58765C2.55277 6.62337 2.51203 6.65299 2.48152 6.63115L2.24597 6.46277L2.01042 6.63115C1.97991 6.65294 1.93927 6.62337 1.95052 6.58765L2.03789 6.3116L1.80497 6.13957C1.77483 6.11726 1.79035 6.06949 1.82784 6.06916L2.11739 6.06696L2.20898 5.79227C2.22075 5.75674 2.27109 5.75674 2.28295 5.79227Z" fill="#F5F5F5"/>
<path d="M2.28295 7.22981L2.37455 7.5045L2.66409 7.5067C2.70159 7.50703 2.71711 7.55484 2.68697 7.5771L2.45405 7.74914L2.54142 8.02518C2.55277 8.0609 2.51203 8.09053 2.48152 8.06868L2.24597 7.90031L2.01042 8.06868C1.97991 8.09048 1.93927 8.06095 1.95052 8.02518L2.03789 7.74914L1.80497 7.5771C1.77483 7.55479 1.79035 7.50703 1.82784 7.5067L2.11739 7.5045L2.20898 7.22981C2.22075 7.19423 2.27109 7.19423 2.28295 7.22981Z" fill="#F5F5F5"/>
<path d="M2.28295 8.66731L2.37455 8.94199L2.66409 8.9442C2.70159 8.94453 2.71711 8.99234 2.68697 9.0146L2.45405 9.18664L2.54142 9.46268C2.55277 9.4984 2.51203 9.52803 2.48152 9.50618L2.24597 9.33781L2.01042 9.50618C1.97991 9.52798 1.93927 9.4984 1.95052 9.46268L2.03789 9.18664L1.80497 9.0146C1.77483 8.99229 1.79035 8.94453 1.82784 8.9442L2.11739 8.94199L2.20898 8.66731C2.22075 8.63173 2.27109 8.63173 2.28295 8.66731Z" fill="#F5F5F5"/>
<path d="M2.28295 10.1048L2.37455 10.3795L2.66409 10.3817C2.70159 10.382 2.71711 10.4298 2.68697 10.4521L2.45405 10.6241L2.54142 10.9001C2.55277 10.9359 2.51203 10.9655 2.48152 10.9436L2.24597 10.7753L2.01042 10.9436C1.97991 10.9654 1.93927 10.9359 1.95052 10.9001L2.03789 10.6241L1.80497 10.4521C1.77483 10.4298 1.79035 10.382 1.82784 10.3817L2.11739 10.3795L2.20898 10.1048C2.22075 10.0692 2.27109 10.0692 2.28295 10.1048Z" fill="#F5F5F5"/>
<path d="M3.40014 5.08918L3.49173 5.36387L3.78128 5.36607C3.81878 5.3664 3.8343 5.41421 3.80416 5.43648L3.57123 5.60851L3.65861 5.88456C3.66995 5.92028 3.62922 5.9499 3.5987 5.92806L3.36316 5.75968L3.12761 5.92806C3.09709 5.94985 3.05645 5.92028 3.0677 5.88456L3.15508 5.60851L2.92216 5.43648C2.89202 5.41417 2.90753 5.3664 2.94503 5.36607L3.23458 5.36387L3.32617 5.08918C3.33798 5.05361 3.38828 5.05361 3.40014 5.08918Z" fill="#F5F5F5"/>
<path d="M3.40014 6.52665L3.49173 6.80134L3.78128 6.80354C3.81878 6.80387 3.8343 6.85168 3.80416 6.87394L3.57123 7.04598L3.65861 7.32202C3.66995 7.35774 3.62922 7.38737 3.5987 7.36552L3.36316 7.19715L3.12761 7.36552C3.09709 7.38732 3.05645 7.35774 3.0677 7.32202L3.15508 7.04598L2.92216 6.87394C2.89202 6.85163 2.90753 6.80387 2.94503 6.80354L3.23458 6.80134L3.32617 6.52665C3.33798 6.49112 3.38828 6.49112 3.40014 6.52665Z" fill="#F5F5F5"/>
<path d="M3.40014 7.96415L3.49173 8.23884L3.78128 8.24104C3.81878 8.24137 3.8343 8.28918 3.80416 8.31145L3.57123 8.48348L3.65861 8.75952C3.66995 8.79524 3.62922 8.82487 3.5987 8.80302L3.36316 8.63465L3.12761 8.80302C3.09709 8.82482 3.05645 8.79524 3.0677 8.75952L3.15508 8.48348L2.92216 8.31145C2.89202 8.28913 2.90753 8.24137 2.94503 8.24104L3.23458 8.23884L3.32617 7.96415C3.33798 7.92862 3.38828 7.92862 3.40014 7.96415Z" fill="#F5F5F5"/>
<path d="M3.40014 9.40168L3.49173 9.67637L3.78128 9.67857C3.81878 9.6789 3.8343 9.72671 3.80416 9.74898L3.57123 9.92101L3.65861 10.1971C3.66995 10.2328 3.62922 10.2624 3.5987 10.2406L3.36316 10.0722L3.12761 10.2406C3.09709 10.2624 3.05645 10.2328 3.0677 10.1971L3.15508 9.92101L2.92216 9.74898C2.89202 9.72667 2.90753 9.6789 2.94503 9.67857L3.23458 9.67637L3.32617 9.40168C3.33798 9.36611 3.38828 9.36611 3.40014 9.40168Z" fill="#F5F5F5"/>
<path d="M3.40014 10.8392L3.49173 11.1139L3.78128 11.1161C3.81878 11.1164 3.8343 11.1642 3.80416 11.1865L3.57123 11.3585L3.65861 11.6346C3.66995 11.6703 3.62922 11.6999 3.5987 11.6781L3.36316 11.5097L3.12761 11.6781C3.09709 11.6999 3.05645 11.6703 3.0677 11.6346L3.15508 11.3585L2.92216 11.1865C2.89202 11.1642 2.90753 11.1164 2.94503 11.1161L3.23458 11.1139L3.32617 10.8392C3.33798 10.8036 3.38828 10.8036 3.40014 10.8392Z" fill="#F5F5F5"/>
<path d="M4.50952 5.79227L4.60111 6.06696L4.89066 6.06916C4.92816 6.06949 4.94367 6.1173 4.91353 6.13957L4.68061 6.3116L4.76798 6.58765C4.77933 6.62337 4.73859 6.65299 4.70808 6.63115L4.47253 6.46277L4.23699 6.63115C4.20647 6.65294 4.16583 6.62337 4.17708 6.58765L4.26445 6.3116L4.03153 6.13957C4.00139 6.11726 4.01691 6.06949 4.05441 6.06916L4.34395 6.06696L4.43555 5.79227C4.44731 5.75674 4.49766 5.75674 4.50952 5.79227Z" fill="#F5F5F5"/>
<path d="M4.50952 7.22981L4.60111 7.5045L4.89066 7.5067C4.92816 7.50703 4.94367 7.55484 4.91353 7.5771L4.68061 7.74914L4.76798 8.02518C4.77933 8.0609 4.73859 8.09053 4.70808 8.06868L4.47253 7.90031L4.23699 8.06868C4.20647 8.09048 4.16583 8.06095 4.17708 8.02518L4.26445 7.74914L4.03153 7.5771C4.00139 7.55479 4.01691 7.50703 4.05441 7.5067L4.34395 7.5045L4.43555 7.22981C4.44731 7.19423 4.49766 7.19423 4.50952 7.22981Z" fill="#F5F5F5"/>
<path d="M4.50952 8.66731L4.60111 8.94199L4.89066 8.9442C4.92816 8.94453 4.94367 8.99234 4.91353 9.0146L4.68061 9.18664L4.76798 9.46268C4.77933 9.4984 4.73859 9.52803 4.70808 9.50618L4.47253 9.33781L4.23699 9.50618C4.20647 9.52798 4.16583 9.4984 4.17708 9.46268L4.26445 9.18664L4.03153 9.0146C4.00139 8.99229 4.01691 8.94453 4.05441 8.9442L4.34395 8.94199L4.43555 8.66731C4.44731 8.63173 4.49766 8.63173 4.50952 8.66731Z" fill="#F5F5F5"/>
<path d="M4.50952 10.1048L4.60111 10.3795L4.89066 10.3817C4.92816 10.382 4.94367 10.4298 4.91353 10.4521L4.68061 10.6241L4.76798 10.9001C4.77933 10.9359 4.73859 10.9655 4.70808 10.9436L4.47253 10.7753L4.23699 10.9436C4.20647 10.9654 4.16583 10.9359 4.17708 10.9001L4.26445 10.6241L4.03153 10.4521C4.00139 10.4298 4.01691 10.382 4.05441 10.3817L4.34395 10.3795L4.43555 10.1048C4.44731 10.0692 4.49766 10.0692 4.50952 10.1048Z" fill="#F5F5F5"/>
<path d="M5.62699 5.08918L5.71859 5.36387L6.00813 5.36607C6.04563 5.3664 6.06115 5.41421 6.03101 5.43648L5.79809 5.60851L5.88546 5.88456C5.89681 5.92028 5.85607 5.9499 5.82556 5.92806L5.58996 5.75968L5.35442 5.92806C5.3239 5.94985 5.28326 5.92028 5.29451 5.88456L5.38189 5.60851L5.14896 5.43648C5.11882 5.41417 5.13434 5.3664 5.17184 5.36607L5.46139 5.36387L5.55298 5.08918C5.56484 5.05361 5.61513 5.05361 5.62699 5.08918Z" fill="#F5F5F5"/>
<path d="M5.62675 6.52665L5.71834 6.80134L6.00789 6.80354C6.04539 6.80387 6.06091 6.85168 6.03076 6.87394L5.79784 7.04598L5.88522 7.32202C5.89656 7.35774 5.85583 7.38737 5.82531 7.36552L5.58972 7.19715L5.35417 7.36552C5.32366 7.38732 5.28302 7.35774 5.29427 7.32202L5.38164 7.04598L5.14872 6.87394C5.11858 6.85163 5.13409 6.80387 5.17159 6.80354L5.46114 6.80134L5.55273 6.52665C5.56459 6.49112 5.61489 6.49112 5.62675 6.52665Z" fill="#F5F5F5"/>
<path d="M5.62675 7.96415L5.71834 8.23884L6.00789 8.24104C6.04539 8.24137 6.06091 8.28918 6.03076 8.31145L5.79784 8.48348L5.88522 8.75952C5.89656 8.79524 5.85583 8.82487 5.82531 8.80302L5.58972 8.63465L5.35417 8.80302C5.32366 8.82482 5.28302 8.79524 5.29427 8.75952L5.38164 8.48348L5.14872 8.31145C5.11858 8.28913 5.13409 8.24137 5.17159 8.24104L5.46114 8.23884L5.55273 7.96415C5.56459 7.92862 5.61489 7.92862 5.62675 7.96415Z" fill="#F5F5F5"/>
<path d="M5.62675 9.40168L5.71834 9.67637L6.00789 9.67857C6.04539 9.6789 6.06091 9.72671 6.03076 9.74898L5.79784 9.92101L5.88522 10.1971C5.89656 10.2328 5.85583 10.2624 5.82531 10.2406L5.58972 10.0722L5.35417 10.2406C5.32366 10.2624 5.28302 10.2328 5.29427 10.1971L5.38164 9.92101L5.14872 9.74898C5.11858 9.72667 5.13409 9.6789 5.17159 9.67857L5.46114 9.67637L5.55273 9.40168C5.56459 9.36611 5.61489 9.36611 5.62675 9.40168Z" fill="#F5F5F5"/>
<path d="M5.62675 10.8392L5.71834 11.1139L6.00789 11.1161C6.04539 11.1164 6.06091 11.1642 6.03076 11.1865L5.79784 11.3585L5.88522 11.6346C5.89656 11.6703 5.85583 11.6999 5.82531 11.6781L5.58972 11.5097L5.35417 11.6781C5.32366 11.6999 5.28302 11.6703 5.29427 11.6346L5.38164 11.3585L5.14872 11.1865C5.11858 11.1642 5.13409 11.1164 5.17159 11.1161L5.46114 11.1139L5.55273 10.8392C5.56459 10.8036 5.61489 10.8036 5.62675 10.8392Z" fill="#F5F5F5"/>
<path d="M6.74389 5.79227L6.83548 6.06696L7.12503 6.06916C7.16253 6.06949 7.17805 6.1173 7.14791 6.13957L6.91498 6.3116L7.00236 6.58765C7.0137 6.62337 6.97297 6.65299 6.94245 6.63115L6.70691 6.46277L6.47136 6.63115C6.44084 6.65294 6.4002 6.62337 6.41145 6.58765L6.49883 6.3116L6.26591 6.13957C6.23577 6.11726 6.25128 6.06949 6.28878 6.06916L6.57833 6.06696L6.66992 5.79227C6.68178 5.75674 6.73203 5.75674 6.74389 5.79227Z" fill="#F5F5F5"/>
<path d="M6.74389 7.22981L6.83548 7.5045L7.12503 7.5067C7.16253 7.50703 7.17805 7.55484 7.14791 7.5771L6.91498 7.74914L7.00236 8.02518C7.0137 8.0609 6.97297 8.09053 6.94245 8.06868L6.70691 7.90031L6.47136 8.06868C6.44084 8.09048 6.4002 8.06095 6.41145 8.02518L6.49883 7.74914L6.26591 7.5771C6.23577 7.55479 6.25128 7.50703 6.28878 7.5067L6.57833 7.5045L6.66992 7.22981C6.68178 7.19423 6.73203 7.19423 6.74389 7.22981Z" fill="#F5F5F5"/>
<path d="M6.74389 8.66731L6.83548 8.94199L7.12503 8.9442C7.16253 8.94453 7.17805 8.99234 7.14791 9.0146L6.91498 9.18664L7.00236 9.46268C7.0137 9.4984 6.97297 9.52803 6.94245 9.50618L6.70691 9.33781L6.47136 9.50618C6.44084 9.52798 6.4002 9.4984 6.41145 9.46268L6.49883 9.18664L6.26591 9.0146C6.23577 8.99229 6.25128 8.94453 6.28878 8.9442L6.57833 8.94199L6.66992 8.66731C6.68178 8.63173 6.73203 8.63173 6.74389 8.66731Z" fill="#F5F5F5"/>
<path d="M6.74389 10.1048L6.83548 10.3795L7.12503 10.3817C7.16253 10.382 7.17805 10.4298 7.14791 10.4521L6.91498 10.6241L7.00236 10.9001C7.0137 10.9359 6.97297 10.9655 6.94245 10.9436L6.70691 10.7753L6.47136 10.9436C6.44084 10.9654 6.4002 10.9359 6.41145 10.9001L6.49883 10.6241L6.26591 10.4521C6.23577 10.4298 6.25128 10.382 6.28878 10.3817L6.57833 10.3795L6.66992 10.1048C6.68178 10.0692 6.73203 10.0692 6.74389 10.1048Z" fill="#F5F5F5"/>
<path d="M7.85327 5.08918L7.94486 5.36387L8.23441 5.36607C8.27191 5.3664 8.28742 5.41421 8.25728 5.43648L8.02436 5.60851L8.11173 5.88456C8.12308 5.92028 8.08234 5.9499 8.05183 5.92806L7.81628 5.75968L7.58074 5.92806C7.55022 5.94985 7.50958 5.92028 7.52083 5.88456L7.6082 5.60851L7.37528 5.43648C7.34514 5.41417 7.36066 5.3664 7.39816 5.36607L7.6877 5.36387L7.7793 5.08918C7.79106 5.05361 7.84141 5.05361 7.85327 5.08918Z" fill="#F5F5F5"/>
<path d="M7.85327 6.52665L7.94486 6.80134L8.23441 6.80354C8.27191 6.80387 8.28742 6.85168 8.25728 6.87394L8.02436 7.04598L8.11173 7.32202C8.12308 7.35774 8.08234 7.38737 8.05183 7.36552L7.81628 7.19715L7.58074 7.36552C7.55022 7.38732 7.50958 7.35774 7.52083 7.32202L7.6082 7.04598L7.37528 6.87394C7.34514 6.85163 7.36066 6.80387 7.39816 6.80354L7.6877 6.80134L7.7793 6.52665C7.79106 6.49112 7.84141 6.49112 7.85327 6.52665Z" fill="#F5F5F5"/>
<path d="M7.85327 7.96415L7.94486 8.23884L8.23441 8.24104C8.27191 8.24137 8.28742 8.28918 8.25728 8.31145L8.02436 8.48348L8.11173 8.75952C8.12308 8.79524 8.08234 8.82487 8.05183 8.80302L7.81628 8.63465L7.58074 8.80302C7.55022 8.82482 7.50958 8.79524 7.52083 8.75952L7.6082 8.48348L7.37528 8.31145C7.34514 8.28913 7.36066 8.24137 7.39816 8.24104L7.6877 8.23884L7.7793 7.96415C7.79106 7.92862 7.84141 7.92862 7.85327 7.96415Z" fill="#F5F5F5"/>
<path d="M7.85327 9.40168L7.94486 9.67637L8.23441 9.67857C8.27191 9.6789 8.28742 9.72671 8.25728 9.74898L8.02436 9.92101L8.11173 10.1971C8.12308 10.2328 8.08234 10.2624 8.05183 10.2406L7.81628 10.0722L7.58074 10.2406C7.55022 10.2624 7.50958 10.2328 7.52083 10.1971L7.6082 9.92101L7.37528 9.74898C7.34514 9.72667 7.36066 9.6789 7.39816 9.67857L7.6877 9.67637L7.7793 9.40168C7.79106 9.36611 7.84141 9.36611 7.85327 9.40168Z" fill="#F5F5F5"/>
<path d="M7.85327 10.8392L7.94486 11.1139L8.23441 11.1161C8.27191 11.1164 8.28742 11.1642 8.25728 11.1865L8.02436 11.3585L8.11173 11.6346C8.12308 11.6703 8.08234 11.6999 8.05183 11.6781L7.81628 11.5097L7.58074 11.6781C7.55022 11.6999 7.50958 11.6703 7.52083 11.6346L7.6082 11.3585L7.37528 11.1865C7.34514 11.1642 7.36066 11.1164 7.39816 11.1161L7.6877 11.1139L7.7793 10.8392C7.79106 10.8036 7.84141 10.8036 7.85327 10.8392Z" fill="#F5F5F5"/>
<path d="M8.97827 5.79227L9.06986 6.06696L9.35941 6.06916C9.39691 6.06949 9.41242 6.1173 9.38228 6.13957L9.14936 6.3116L9.23673 6.58765C9.24808 6.62337 9.20734 6.65299 9.17683 6.63115L8.94128 6.46277L8.70574 6.63115C8.67522 6.65294 8.63458 6.62337 8.64583 6.58765L8.7332 6.3116L8.50028 6.13957C8.47014 6.11726 8.48566 6.06949 8.52316 6.06916L8.8127 6.06696L8.9043 5.79227C8.91611 5.75674 8.96645 5.75674 8.97827 5.79227Z" fill="#F5F5F5"/>
<path d="M8.97827 7.22981L9.06986 7.5045L9.35941 7.5067C9.39691 7.50703 9.41242 7.55484 9.38228 7.5771L9.14936 7.74914L9.23673 8.02518C9.24808 8.0609 9.20734 8.09053 9.17683 8.06868L8.94128 7.90031L8.70574 8.06868C8.67522 8.09048 8.63458 8.06095 8.64583 8.02518L8.7332 7.74914L8.50028 7.5771C8.47014 7.55479 8.48566 7.50703 8.52316 7.5067L8.8127 7.5045L8.9043 7.22981C8.91611 7.19423 8.96645 7.19423 8.97827 7.22981Z" fill="#F5F5F5"/>
<path d="M8.97827 8.66731L9.06986 8.94199L9.35941 8.9442C9.39691 8.94453 9.41242 8.99234 9.38228 9.0146L9.14936 9.18664L9.23673 9.46268C9.24808 9.4984 9.20734 9.52803 9.17683 9.50618L8.94128 9.33781L8.70574 9.50618C8.67522 9.52798 8.63458 9.4984 8.64583 9.46268L8.7332 9.18664L8.50028 9.0146C8.47014 8.99229 8.48566 8.94453 8.52316 8.9442L8.8127 8.94199L8.9043 8.66731C8.91611 8.63173 8.96645 8.63173 8.97827 8.66731Z" fill="#F5F5F5"/>
<path d="M8.97827 10.1048L9.06986 10.3795L9.35941 10.3817C9.39691 10.382 9.41242 10.4298 9.38228 10.4521L9.14936 10.6241L9.23673 10.9001C9.24808 10.9359 9.20734 10.9655 9.17683 10.9436L8.94128 10.7753L8.70574 10.9436C8.67522 10.9654 8.63458 10.9359 8.64583 10.9001L8.7332 10.6241L8.50028 10.4521C8.47014 10.4298 8.48566 10.382 8.52316 10.3817L8.8127 10.3795L8.9043 10.1048C8.91611 10.0692 8.96645 10.0692 8.97827 10.1048Z" fill="#F5F5F5"/>
<path d="M10.0876 5.08918L10.1792 5.36387L10.4688 5.36607C10.5063 5.3664 10.5218 5.41421 10.4917 5.43648L10.2587 5.60851L10.3461 5.88456C10.3575 5.92028 10.3167 5.9499 10.2862 5.92806L10.0507 5.75968L9.81511 5.92806C9.78459 5.94985 9.74395 5.92028 9.7552 5.88456L9.84258 5.60851L9.60966 5.43648C9.57952 5.41417 9.59503 5.3664 9.63253 5.36607L9.92208 5.36387L10.0137 5.08918C10.0255 5.05361 10.0757 5.05361 10.0876 5.08918Z" fill="#F5F5F5"/>
<path d="M10.0876 6.52665L10.1792 6.80134L10.4688 6.80354C10.5063 6.80387 10.5218 6.85168 10.4917 6.87394L10.2587 7.04598L10.3461 7.32202C10.3575 7.35774 10.3167 7.38737 10.2862 7.36552L10.0507 7.19715L9.81511 7.36552C9.78459 7.38732 9.74395 7.35774 9.7552 7.32202L9.84258 7.04598L9.60966 6.87394C9.57952 6.85163 9.59503 6.80387 9.63253 6.80354L9.92208 6.80134L10.0137 6.52665C10.0255 6.49112 10.0757 6.49112 10.0876 6.52665Z" fill="#F5F5F5"/>
<path d="M10.0876 7.96415L10.1792 8.23884L10.4688 8.24104C10.5063 8.24137 10.5218 8.28918 10.4917 8.31145L10.2587 8.48348L10.3461 8.75952C10.3575 8.79524 10.3167 8.82487 10.2862 8.80302L10.0507 8.63465L9.81511 8.80302C9.78459 8.82482 9.74395 8.79524 9.7552 8.75952L9.84258 8.48348L9.60966 8.31145C9.57952 8.28913 9.59503 8.24137 9.63253 8.24104L9.92208 8.23884L10.0137 7.96415C10.0255 7.92862 10.0757 7.92862 10.0876 7.96415Z" fill="#F5F5F5"/>
<path d="M10.0876 9.40168L10.1792 9.67637L10.4688 9.67857C10.5063 9.6789 10.5218 9.72671 10.4917 9.74898L10.2587 9.92101L10.3461 10.1971C10.3575 10.2328 10.3167 10.2624 10.2862 10.2406L10.0507 10.0722L9.81511 10.2406C9.78459 10.2624 9.74395 10.2328 9.7552 10.1971L9.84258 9.92101L9.60966 9.74898C9.57952 9.72667 9.59503 9.6789 9.63253 9.67857L9.92208 9.67637L10.0137 9.40168C10.0255 9.36611 10.0757 9.36611 10.0876 9.40168Z" fill="#F5F5F5"/>
<path d="M10.0876 10.8392L10.1792 11.1139L10.4688 11.1161C10.5063 11.1164 10.5218 11.1642 10.4917 11.1865L10.2587 11.3585L10.3461 11.6346C10.3575 11.6703 10.3167 11.6999 10.2862 11.6781L10.0507 11.5097L9.81511 11.6781C9.78459 11.6999 9.74395 11.6703 9.7552 11.6346L9.84258 11.3585L9.60966 11.1865C9.57952 11.1642 9.59503 11.1164 9.63253 11.1161L9.92208 11.1139L10.0137 10.8392C10.0255 10.8036 10.0757 10.8036 10.0876 10.8392Z" fill="#F5F5F5"/>
</svg>
