<svg width="90" height="120" viewBox="0 0 90 120" fill="none" xmlns="http://www.w3.org/2000/svg">
<g clip-path="url(#clip0_36_2406)">
<path d="M9.32727 75C9.32727 78.9397 9.99928 82.4528 11.3049 85.3387C12.6106 88.2246 14.5243 90.4269 16.9369 91.8198C19.3494 93.2127 22.2135 93.7689 25.3656 93.4566C28.5178 93.1444 31.8962 91.9698 35.308 90C38.7199 88.0302 42.0983 85.3037 45.2504 81.9761C48.4026 78.6486 51.2667 74.7852 53.6792 70.6066C56.0917 66.428 58.0055 62.0159 59.3111 57.6223C60.6168 53.2287 61.2888 48.9397 61.2888 45C61.2888 41.0603 60.6168 37.5472 59.3111 34.6613C58.0055 31.7754 56.0917 29.5731 53.6792 28.1802C51.2667 26.7873 48.4026 26.2311 45.2504 26.5434C42.0983 26.8556 38.7199 28.0302 35.308 30C31.8962 31.9698 28.5178 34.6963 25.3656 38.0239C22.2135 41.3514 19.3494 45.2148 16.9369 49.3934C14.5243 53.572 12.6106 57.9841 11.3049 62.3777C9.99928 66.7713 9.32727 71.0603 9.32727 75Z" fill="#D2D8F6"/>
</g>
<g clip-path="url(#clip1_36_2406)">
<path d="M29.3273 75C29.3273 78.9397 29.9993 82.4528 31.3049 85.3387C32.6106 88.2246 34.5243 90.4269 36.9369 91.8198C39.3494 93.2127 42.2135 93.7689 45.3656 93.4566C48.5178 93.1444 51.8962 91.9698 55.308 90C58.7199 88.0302 62.0983 85.3037 65.2504 81.9761C68.4026 78.6486 71.2667 74.7852 73.6792 70.6066C76.0917 66.428 78.0055 62.0159 79.3111 57.6223C80.6168 53.2287 81.2888 48.9397 81.2888 45C81.2888 41.0603 80.6168 37.5472 79.3111 34.6613C78.0055 31.7754 76.0917 29.5731 73.6792 28.1802C71.2667 26.7873 68.4026 26.2311 65.2504 26.5434C62.0983 26.8556 58.7199 28.0302 55.308 30C51.8962 31.9698 48.5178 34.6963 45.3656 38.0239C42.2135 41.3514 39.3494 45.2148 36.9369 49.3934C34.5243 53.572 32.6106 57.9841 31.3049 62.3777C29.9993 66.7713 29.3273 71.0603 29.3273 75Z" fill="white"/>
</g>
<g clip-path="url(#clip2_36_2406)">
<path fill-rule="evenodd" clip-rule="evenodd" d="M44.8133 36.8023C48.1405 33.2899 51.7067 30.4119 55.308 28.3327C58.9094 26.2534 62.4756 25.0136 65.8028 24.684C69.1301 24.3544 72.1533 24.9415 74.6998 26.4118C77.2464 27.882 79.2665 30.2067 80.6447 33.2529C82.0228 36.2992 82.7322 40.0075 82.7322 44.166C82.7322 48.3245 82.0228 52.8519 80.6447 57.4896C79.2665 62.1272 77.2464 66.7844 74.6998 71.1952C72.1533 75.606 69.1301 79.684 65.8028 83.1964C62.4756 86.7088 58.9094 89.5868 55.308 91.666C51.7067 93.7453 48.1405 94.9851 44.8133 95.3147C41.486 95.6443 38.4628 95.0572 35.9163 93.5869C33.3697 92.1167 31.3496 89.792 29.9714 86.7458C28.5933 83.6995 27.8839 79.9912 27.8839 75.8327C27.8839 71.6742 28.5933 67.1468 29.9714 62.5091C31.3496 57.8715 33.3697 53.2143 35.9163 48.8035C38.4628 44.3927 41.486 40.3147 44.8133 36.8023ZM55.308 31.666C52.0858 33.5264 48.895 36.1014 45.918 39.2441C42.941 42.3868 40.236 46.0355 37.9575 49.982C35.679 53.9285 33.8716 58.0954 32.6385 62.2449C31.4053 66.3944 30.7707 70.4452 30.7707 74.166C30.7707 77.8868 31.4053 81.2047 32.6385 83.9303C33.8716 86.656 35.679 88.7359 37.9575 90.0514C40.236 91.3669 42.941 91.8922 45.918 91.5973C48.895 91.3024 52.0858 90.1931 55.308 88.3327C58.5303 86.4723 61.7211 83.8973 64.6981 80.7546C67.6751 77.6119 70.3801 73.9632 72.6586 70.0167C74.9371 66.0702 76.7445 61.9033 77.9776 57.7538C79.2108 53.6043 79.8454 49.5535 79.8454 45.8327C79.8454 42.1119 79.2108 38.794 77.9776 36.0684C76.7445 33.3427 74.9371 31.2628 72.6586 29.9473C70.3801 28.6318 67.6751 28.1065 64.6981 28.4014C61.7211 28.6963 58.5303 29.8056 55.308 31.666ZM64.9889 46.5649C65.5526 46.8904 65.5526 47.9456 64.9889 48.9219L53.4419 68.9219C52.8782 69.8983 51.9643 70.4259 51.4007 70.1004L45.6272 66.7671C45.0635 66.4417 45.0635 65.3864 45.6272 64.4101C46.1908 63.4338 47.1047 62.9061 47.6684 63.2316L52.4213 65.9757L62.9477 47.7434C63.5114 46.7671 64.4253 46.2395 64.9889 46.5649Z" fill="black"/>
</g>
<defs>
<clipPath id="clip0_36_2406">
<rect width="80" height="80" fill="white" transform="matrix(0.866025 -0.5 0 1 0.666992 40)"/>
</clipPath>
<clipPath id="clip1_36_2406">
<rect width="80" height="80" fill="white" transform="matrix(0.866025 -0.5 0 1 20.667 40)"/>
</clipPath>
<clipPath id="clip2_36_2406">
<rect width="80" height="80" fill="white" transform="matrix(0.866025 -0.5 0 1 20.667 40)"/>
</clipPath>
</defs>
</svg>
