<svg width="90" height="120" viewBox="0 0 90 120" fill="none" xmlns="http://www.w3.org/2000/svg">
<g clip-path="url(#clip0_36_646)">
<path d="M42.947 29.1918C43.0244 29.5161 43.1762 29.7713 43.39 29.9365C43.6038 30.1016 43.8736 30.1721 44.1774 30.1422C44.4812 30.1123 44.8105 29.9829 45.1384 29.7645C45.4663 29.546 45.7837 29.2447 46.0647 28.8851C53.1054 19.8701 61.1624 24.5184 56.8755 35.1234C56.7046 35.5464 56.6022 35.9717 56.5768 36.3648C56.5514 36.7579 56.6037 37.1078 56.7295 37.3859C56.8552 37.6641 57.0508 37.8627 57.3004 37.9657C57.55 38.0686 57.8465 38.073 58.1659 37.9784C66.1767 35.5968 66.1767 48.7534 58.1659 55.6251C57.8463 55.8991 57.5494 56.2458 57.2995 56.6369C57.0495 57.0281 56.8536 57.4527 56.7276 57.8763C56.6016 58.2999 56.549 58.7104 56.5742 59.0745C56.5994 59.4386 56.7017 59.746 56.8727 59.9718C61.1595 65.6268 53.1054 79.5801 46.0647 78.6951C45.7839 78.6598 45.4667 78.7247 45.139 78.8846C44.8112 79.0445 44.4821 79.2949 44.1783 79.6155C43.8746 79.936 43.6047 80.3177 43.3908 80.7294C43.1768 81.1411 43.0248 81.5714 42.947 81.9851C41.0042 92.3568 29.6102 98.9351 27.6645 90.8084C27.5871 90.484 27.4353 90.2289 27.2215 90.0637C27.0076 89.8986 26.7379 89.8281 26.4341 89.858C26.1303 89.8878 25.801 90.0173 25.4731 90.2357C25.1451 90.4542 24.8278 90.7554 24.5468 91.1151C17.506 100.13 9.4491 95.4818 13.7359 84.8768C13.9069 84.4538 14.0093 84.0285 14.0346 83.6354C14.06 83.2423 14.0077 82.8924 13.882 82.6143C13.7563 82.3361 13.5607 82.1375 13.3111 82.0345C13.0615 81.9316 12.765 81.9272 12.4456 82.0218C4.43482 84.4034 4.43482 71.2468 12.4456 64.3751C12.7652 64.1011 13.0621 63.7544 13.312 63.3633C13.5619 62.9721 13.7579 62.5474 13.8839 62.1239C14.0099 61.7003 14.0625 61.2898 14.0373 60.9257C14.012 60.5616 13.9098 60.2541 13.7388 60.0284C9.45199 54.3734 17.506 40.4201 24.5468 41.3051C24.8273 41.3421 25.1446 41.2783 25.4728 41.1189C25.8009 40.9595 26.1305 40.7091 26.4347 40.3881C26.7389 40.0671 27.0089 39.6848 27.2226 39.2723C27.4364 38.8598 27.5878 38.429 27.6645 38.0151C29.6073 27.6434 41.0013 21.0651 42.947 29.1918ZM35.3057 50.0001C33.0089 51.3262 30.8061 53.6515 29.182 56.4646C27.5579 59.2776 26.6455 62.3479 26.6455 65.0001C26.6455 67.6523 27.5579 69.669 29.182 70.6067C30.8061 71.5444 33.0089 71.3262 35.3057 70.0001C37.6026 68.674 39.8053 66.3487 41.4295 63.5356C43.0536 60.7226 43.966 57.6523 43.966 55.0001C43.966 52.3479 43.0536 50.3312 41.4295 49.3935C39.8053 48.4558 37.6026 48.674 35.3057 50.0001Z" fill="#D2D8F6"/>
<path d="M35.3057 50.0001C33.0089 51.3262 30.8061 53.6515 29.182 56.4646C27.5579 59.2776 26.6455 62.3479 26.6455 65.0001C26.6455 67.6523 27.5579 69.669 29.182 70.6067C30.8061 71.5444 33.0089 71.3262 35.3057 70.0001C37.6026 68.674 39.8053 66.3487 41.4295 63.5356C43.0536 60.7226 43.966 57.6523 43.966 55.0001C43.966 52.3479 43.0536 50.3312 41.4295 49.3935C39.8053 48.4558 37.6026 48.674 35.3057 50.0001Z" fill="#D2D8F6"/>
</g>
<g clip-path="url(#clip1_36_646)">
<path d="M62.334 33.3333C62.4048 33.6118 62.8616 33.1841 63.057 33.321C63.2525 33.4579 63.4991 33.5113 63.7768 33.4769C64.0545 33.4425 64.3555 33.3212 64.6553 33.123C64.9551 32.9247 65.2452 32.655 65.502 32.3359C71.9383 24.3363 77.9194 27.3692 74.0006 36.6672C73.8443 37.038 75.1348 38.1718 75.1116 38.5127C75.0884 38.8537 75.1362 39.1549 75.2511 39.3921C75.3661 39.6293 75.5449 39.7957 75.773 39.8777C76.0012 39.9598 76.3948 40.8453 76.6868 40.7545C84.0097 38.4679 83.8872 48.9634 76.5643 55.1355C76.272 55.3816 76.0007 55.69 75.7722 56.0355C75.5437 56.3811 75.3646 56.754 75.2494 57.1241C75.1342 57.4942 75.0862 57.851 75.1092 58.1653C75.1323 58.4797 75.2257 58.7429 75.382 58.9334C79.3008 63.7065 71.9383 76.0081 65.502 75.4405C65.2454 75.4178 64.9554 75.4829 64.6558 75.6305C64.3562 75.7782 64.0553 76.0041 63.7777 76.2901C63.5 76.576 63.2533 76.9139 63.0577 77.2762C62.8622 77.6385 62.7232 78.0151 62.652 78.3753C60.8761 87.4055 50.4604 93.419 48.6818 86.4411C48.611 86.1625 48.4722 85.946 48.2767 85.8091C48.0813 85.6722 47.8347 85.6188 47.557 85.6532C47.2793 85.6876 46.9783 85.8089 46.6785 86.0071C46.3787 86.2054 46.0886 86.4751 45.8318 86.7942C39.3955 94.7938 32.0304 90.998 35.9491 81.7C36.1054 81.3292 36.199 80.9583 36.2222 80.6174C36.2454 80.2764 36.1976 79.9752 36.0827 79.738C35.9677 79.5008 35.7889 79.3344 35.5608 79.2524C35.3326 79.1703 35.0615 79.1749 34.7695 79.2657C27.4466 81.5522 27.4466 70.1667 34.7695 63.9946C35.0617 63.7485 35.3331 63.4401 35.5616 63.0946C35.7901 62.749 35.9692 62.3761 36.0844 62.006C36.1996 61.6359 36.2476 61.2791 36.2246 60.9647C36.2015 60.6504 36.108 60.3872 35.9518 60.1967C32.033 55.4236 39.3955 43.122 45.8318 43.6896C46.0882 43.7137 46.3782 43.6496 46.6782 43.5024C46.9782 43.3553 47.2795 43.1293 47.5575 42.8429C47.8356 42.5566 48.0824 42.2181 48.2778 41.8552C48.4732 41.4922 48.6116 41.1151 48.6818 40.7548C50.4577 31.7246 60.5554 26.3554 62.334 33.3333ZM55.6669 50.9112C53.5673 52.1235 51.5536 54.1978 50.069 56.6778C48.5843 59.1579 47.7502 61.8406 47.7502 64.1357C47.7502 66.4309 48.5843 68.1504 50.069 68.9162C51.5536 69.6819 53.5673 69.4311 55.6669 68.2188C57.7665 67.0066 59.7802 64.9323 61.2648 62.4522C62.7495 59.9722 63.5836 57.2895 63.5836 54.9944C63.5836 52.6992 62.7495 50.9797 61.2648 50.2139C59.7802 49.4482 57.7665 49.699 55.6669 50.9112Z" fill="white"/>
<path d="M55.6669 50.9112C53.5673 52.1235 51.5536 54.1978 50.069 56.6778C48.5843 59.1579 47.7502 61.8406 47.7502 64.1357C47.7502 66.4309 48.5843 68.1504 50.069 68.9162C51.5536 69.6819 53.5673 69.4311 55.6669 68.2188C57.7665 67.0066 59.7802 64.9323 61.2648 62.4522C62.7495 59.9722 63.5836 57.2895 63.5836 54.9944C63.5836 52.6992 62.7495 50.9797 61.2648 50.2139C59.7802 49.4482 57.7665 49.699 55.6669 50.9112Z" fill="white"/>
</g>
<g clip-path="url(#clip2_36_646)">
<path d="M53.7038 90.635C52.9009 90.8025 52.1795 90.6843 51.612 90.2924C51.0445 89.9004 50.6509 89.2483 50.4706 88.4017C50.2861 87.6289 49.9244 87.0211 49.4149 86.6279C48.9055 86.2346 48.2626 86.067 47.5387 86.1386C46.8148 86.2102 46.0303 86.5191 45.2491 87.0401C44.4679 87.5611 43.712 88.2794 43.043 89.1367C38.5888 94.8417 33.4879 91.9 36.2014 85.1867C36.6088 84.1793 36.8525 83.1663 36.913 82.2299C36.9734 81.2936 36.8488 80.4604 36.5492 79.7979C36.2496 79.1355 35.7836 78.6626 35.189 78.4177C34.5943 78.1728 33.8879 78.1627 33.127 78.3883C28.0579 79.895 28.0579 71.5683 33.127 67.2217C33.8886 66.5689 34.5958 65.743 35.1911 64.811C35.7864 63.879 36.253 62.8673 36.5529 61.8582C36.8528 60.8492 36.9775 59.8714 36.917 59.0043C36.8564 58.1372 36.6122 57.4053 36.2043 56.8683C33.4908 53.2917 38.5888 44.4583 43.0459 45.0183C45.9327 45.3783 49.6739 41.425 50.4706 37.1817C51.7004 30.6183 58.9115 26.455 60.1413 31.5983C60.3258 32.3711 60.6875 32.9789 61.197 33.3721C61.7065 33.7654 62.3493 33.933 63.0732 33.8614C63.7971 33.7898 64.5816 33.4809 65.3628 32.9599C66.144 32.4389 66.8999 31.7206 67.5689 30.8633C72.0231 25.1583 77.124 28.1 74.4105 34.8133C74.0032 35.8207 73.7594 36.8337 73.6989 37.7701C73.6385 38.7064 73.7631 39.5396 74.0627 40.2021C74.3623 40.8645 74.8283 41.3374 75.4229 41.5823C76.0176 41.8272 76.724 41.8373 77.4849 41.6117C81.2665 40.4883 82.2278 44.84 80.363 48.93M63.9662 78.3333L69.7397 81.6667L81.2867 61.6667M46.6457 65C46.6457 67.6522 47.5581 69.6689 49.1822 70.6066C50.8063 71.5443 53.0091 71.3261 55.306 70C57.6028 68.6739 59.8056 66.3486 61.4297 63.5355C63.0538 60.7225 63.9662 57.6522 63.9662 55C63.9662 52.3478 63.0538 50.3311 61.4297 49.3934C59.8056 48.4557 57.6028 48.6739 55.306 50C53.0091 51.3261 50.8063 53.6514 49.1822 56.4645C47.5581 59.2775 46.6457 62.3478 46.6457 65Z" stroke="black" stroke-width="3.33333" stroke-linecap="round" stroke-linejoin="round"/>
</g>
<defs>
<clipPath id="clip0_36_646">
<rect width="80" height="80" fill="white" transform="matrix(0.866025 -0.5 0 1 0.666992 40)"/>
</clipPath>
<clipPath id="clip1_36_646">
<rect width="73.131" height="69.2304" fill="white" transform="matrix(0.866025 -0.5 0 1 24 43.2324)"/>
</clipPath>
<clipPath id="clip2_36_646">
<rect width="80" height="80" fill="white" transform="matrix(0.866025 -0.5 0 1 20.667 40)"/>
</clipPath>
</defs>
</svg>
