<svg width="90" height="120" viewBox="0 0 90 120" fill="none" xmlns="http://www.w3.org/2000/svg">
<g clip-path="url(#clip0_36_292)">
<path d="M38.1948 28.3332V51.6665L55.5153 41.6665L32.4213 91.6665V68.3332L15.1008 78.3332L38.1948 28.3332Z" fill="#D2D8F6"/>
</g>
<g clip-path="url(#clip1_36_292)">
<path d="M58.1948 28.3332V51.6665L75.5153 41.6665L52.4213 91.6665V68.3332L35.1008 78.3332L58.1948 28.3332Z" fill="white"/>
</g>
<g clip-path="url(#clip2_36_292)">
<path fill-rule="evenodd" clip-rule="evenodd" d="M58.6412 26.4904C59.2358 26.3704 59.6382 26.7779 59.6382 27.4998V49.1665L75.5154 39.9998C76.0583 39.6863 76.5552 39.7512 76.8016 40.1676C77.0479 40.5839 77.002 41.2815 76.6827 41.9728L53.5887 91.9728C53.221 92.7689 52.5695 93.3891 51.975 93.5091C51.3805 93.6291 50.978 93.2217 50.978 92.4998V70.8331L35.1009 79.9998C34.558 80.3132 34.061 80.2484 33.8146 79.832C33.5683 79.4156 33.6142 78.7181 33.9335 78.0268L57.0276 28.0268C57.3953 27.2307 58.0467 26.6105 58.6412 26.4904ZM37.9353 75.03L52.4214 66.6664C53.2185 66.2062 53.8647 66.5793 53.8647 67.4998V85.7078L72.6809 44.9696L58.1949 53.3331C57.3977 53.7934 56.7515 53.4203 56.7515 52.4998V34.2918L37.9353 75.03Z" fill="black"/>
</g>
<defs>
<clipPath id="clip0_36_292">
<rect width="80" height="80" fill="white" transform="matrix(0.866025 -0.5 0 1 0.666992 40)"/>
</clipPath>
<clipPath id="clip1_36_292">
<rect width="80" height="80" fill="white" transform="matrix(0.866025 -0.5 0 1 20.667 40)"/>
</clipPath>
<clipPath id="clip2_36_292">
<rect width="80" height="80" fill="white" transform="matrix(0.866025 -0.5 0 1 20.667 40)"/>
</clipPath>
</defs>
</svg>
