<svg width="90" height="120" viewBox="0 0 90 120" fill="none" xmlns="http://www.w3.org/2000/svg">
<g clip-path="url(#clip0_36_159)">
<path d="M10.1727 48.8217C9.63129 49.7593 9.32715 50.7828 9.32715 51.6668V85.0002C9.32715 85.8842 9.63129 86.5565 10.1727 86.869C10.714 87.1816 11.4483 87.1089 12.2139 86.6668L26.6477 78.3335L35.3079 73.3335L43.9682 68.3335L58.4019 60.0002C59.1675 59.5581 59.9018 58.783 60.4432 57.8453C60.9845 56.9077 61.2887 55.8842 61.2887 55.0002V21.6668C61.2887 20.7828 60.9845 20.1105 60.4432 19.798C59.9018 19.4854 59.1675 19.5581 58.4019 20.0002L12.2139 46.6668C11.4483 47.1089 10.714 47.884 10.1727 48.8217Z" fill="#D2D8F6"/>
<path d="M26.6477 91.6668L43.9682 81.6668V68.3335L35.3079 73.3335L26.6477 78.3335V91.6668Z" fill="#D2D8F6"/>
<path d="M12.2139 46.6668V45.0002V46.6668ZM58.4019 20.0002V21.6668V20.0002ZM12.2139 86.6668V85.0002V86.6668ZM9.32715 85.0002L7.88377 85.8335L9.32715 85.0002ZM20.8742 93.3335C20.077 93.7937 19.4308 94.913 19.4308 95.8335C19.4308 96.754 20.077 97.1271 20.8742 96.6668V93.3335ZM49.7417 80.0002C50.5388 79.5399 51.185 78.4206 51.185 77.5002C51.185 76.5797 50.5388 76.2066 49.7417 76.6668V80.0002ZM26.6477 91.6668L25.2043 92.5002C25.2043 92.9422 25.3564 93.2783 25.627 93.4346C25.8977 93.5909 26.2648 93.5545 26.6477 93.3335V91.6668ZM43.9682 68.3335V66.6668V68.3335ZM43.9682 81.6668V83.3335C44.7653 82.8733 45.4115 81.754 45.4115 80.8335L43.9682 81.6668ZM25.2043 65.8335C25.2043 66.754 25.8505 67.1271 26.6477 66.6668C27.4448 66.2066 28.091 65.0873 28.091 64.1668L25.2043 65.8335ZM28.091 50.8335C28.091 49.913 27.4448 49.5399 26.6477 50.0002C25.8505 50.4604 25.2043 51.5797 25.2043 52.5002L28.091 50.8335ZM33.8645 60.8335C33.8645 61.754 34.5108 62.1271 35.3079 61.6668C36.1051 61.2066 36.7513 60.0873 36.7513 59.1668L33.8645 60.8335ZM36.7513 55.8335C36.7513 54.913 36.1051 54.5399 35.3079 55.0002C34.5108 55.4604 33.8645 56.5797 33.8645 57.5002L36.7513 55.8335ZM42.5248 55.8335C42.5248 56.754 43.171 57.1271 43.9682 56.6668C44.7653 56.2066 45.4115 55.0873 45.4115 54.1668L42.5248 55.8335ZM45.4115 47.5002C45.4115 46.5797 44.7653 46.2066 43.9682 46.6668C43.171 47.1271 42.5248 48.2464 42.5248 49.1668L45.4115 47.5002ZM10.7705 50.8335C10.7705 50.3915 10.9226 49.8797 11.1933 49.4109L9.15204 48.2324C8.33998 49.6389 7.88377 51.1741 7.88377 52.5002L10.7705 50.8335ZM11.1933 49.4109C11.464 48.9421 11.8311 48.5545 12.2139 48.3335V45.0002C11.0655 45.6632 9.96409 46.8259 9.15204 48.2324L11.1933 49.4109ZM12.2139 48.3335L58.4019 21.6668V18.3335L12.2139 45.0002V48.3335ZM58.4019 21.6668C58.7847 21.4458 59.1519 21.4094 59.4225 21.5657L61.4638 18.0302C60.6517 17.5614 59.5503 17.6705 58.4019 18.3335V21.6668ZM59.4225 21.5657C59.6932 21.722 59.8453 22.0581 59.8453 22.5002L62.732 20.8335C62.732 19.5074 62.2758 18.499 61.4638 18.0302L59.4225 21.5657ZM59.8453 22.5002V55.8335L62.732 54.1668V20.8335L59.8453 22.5002ZM59.8453 55.8335C59.8453 56.2755 59.6932 56.7872 59.4225 57.2561L61.4638 58.4346C62.2758 57.0281 62.732 55.4929 62.732 54.1668L59.8453 55.8335ZM59.4225 57.2561C59.1519 57.7249 58.7847 58.1125 58.4019 58.3335V61.6668C59.5503 61.0038 60.6517 59.8411 61.4638 58.4346L59.4225 57.2561ZM12.2139 85.0002C11.8311 85.2212 11.464 85.2575 11.1933 85.1013L9.15204 88.6368C9.96409 89.1056 11.0655 88.9965 12.2139 88.3335V85.0002ZM11.1933 85.1013C10.9226 84.945 10.7705 84.6089 10.7705 84.1668L7.88377 85.8335C7.88377 87.1596 8.33998 88.168 9.15204 88.6368L11.1933 85.1013ZM10.7705 84.1668V50.8335L7.88377 52.5002V85.8335L10.7705 84.1668ZM20.8742 96.6668L49.7417 80.0002V76.6668L20.8742 93.3335V96.6668ZM25.2043 79.1668V92.5002L28.091 90.8335V77.5002L25.2043 79.1668ZM42.5248 69.1668V82.5002L45.4115 80.8335V67.5002L42.5248 69.1668ZM28.091 64.1668V50.8335L25.2043 52.5002V65.8335L28.091 64.1668ZM36.7513 59.1668V55.8335L33.8645 57.5002V60.8335L36.7513 59.1668ZM45.4115 54.1668V47.5002L42.5248 49.1668V55.8335L45.4115 54.1668ZM58.4019 58.3335L35.3079 71.6668V75.0002L58.4019 61.6668V58.3335ZM35.3079 71.6668L12.2139 85.0002V88.3335L35.3079 75.0002V71.6668ZM12.2139 88.3335L26.6477 80.0002V76.6668L12.2139 85.0002V88.3335ZM26.6477 80.0002L35.3079 75.0002V71.6668L26.6477 76.6668V80.0002ZM35.3079 75.0002L43.9682 70.0002V66.6668L35.3079 71.6668V75.0002ZM43.9682 70.0002L58.4019 61.6668V58.3335L43.9682 66.6668V70.0002ZM26.6477 93.3335L43.9682 83.3335V80.0002L26.6477 90.0002V93.3335Z" fill="#D2D8F6"/>
</g>
<g clip-path="url(#clip1_36_159)">
<path d="M30.1727 48.8217C29.6313 49.7593 29.3271 50.7828 29.3271 51.6668V85.0002C29.3271 85.8842 29.6313 86.5565 30.1727 86.869C30.714 87.1816 31.4483 87.1089 32.2139 86.6668L46.6477 78.3335L55.3079 73.3335L63.9682 68.3335L78.4019 60.0002C79.1675 59.5581 79.9018 58.783 80.4432 57.8453C80.9845 56.9077 81.2887 55.8842 81.2887 55.0002V21.6668C81.2887 20.7828 80.9845 20.1105 80.4432 19.798C79.9018 19.4854 79.1675 19.5581 78.4019 20.0002L32.2139 46.6668C31.4483 47.1089 30.714 47.884 30.1727 48.8217Z" fill="white"/>
<path d="M46.6477 91.6668L63.9682 81.6668V68.3335L55.3079 73.3335L46.6477 78.3335V91.6668Z" fill="white"/>
<path d="M32.2139 46.6668V48.3335V46.6668ZM29.3271 85.0002L27.8838 85.8335L29.3271 85.0002ZM40.8742 93.3335C40.077 93.7937 39.4308 94.913 39.4308 95.8335C39.4308 96.754 40.077 97.1271 40.8742 96.6668V93.3335ZM69.7417 80.0002C70.5388 79.5399 71.185 78.4206 71.185 77.5002C71.185 76.5797 70.5388 76.2066 69.7417 76.6668V80.0002ZM46.6477 91.6668L45.2043 92.5002C45.2043 93.4206 45.8505 93.7937 46.6477 93.3335V91.6668ZM63.9682 81.6668V83.3335C64.7653 82.8733 65.4115 81.754 65.4115 80.8335L63.9682 81.6668ZM45.2043 65.8335C45.2043 66.754 45.8505 67.1271 46.6477 66.6668C47.4448 66.2066 48.091 65.0873 48.091 64.1668L45.2043 65.8335ZM48.091 50.8335C48.091 49.913 47.4448 49.5399 46.6477 50.0002C45.8505 50.4604 45.2043 51.5797 45.2043 52.5002L48.091 50.8335ZM53.8645 60.8335C53.8645 61.754 54.5108 62.1271 55.3079 61.6668C56.1051 61.2066 56.7513 60.0873 56.7513 59.1668L53.8645 60.8335ZM56.7513 55.8335C56.7513 54.913 56.1051 54.5399 55.3079 55.0002C54.5108 55.4604 53.8645 56.5797 53.8645 57.5002L56.7513 55.8335ZM62.5248 55.8335C62.5248 56.754 63.171 57.1271 63.9682 56.6668C64.7653 56.2066 65.4115 55.0873 65.4115 54.1668L62.5248 55.8335ZM65.4115 47.5002C65.4115 46.5797 64.7653 46.2066 63.9682 46.6668C63.171 47.1271 62.5248 48.2464 62.5248 49.1668L65.4115 47.5002ZM30.7705 50.8335C30.7705 50.3915 30.9226 49.8797 31.1933 49.4109L29.152 48.2324C28.34 49.6389 27.8838 51.1741 27.8838 52.5002L30.7705 50.8335ZM31.1933 49.4109C31.464 48.9421 31.8311 48.5545 32.2139 48.3335V45.0002C31.0655 45.6632 29.9641 46.8259 29.152 48.2324L31.1933 49.4109ZM32.2139 48.3335L78.4019 21.6668V18.3335L32.2139 45.0002V48.3335ZM78.4019 21.6668C78.7847 21.4458 79.1519 21.4094 79.4225 21.5657L81.4638 18.0302C80.6517 17.5614 79.5503 17.6705 78.4019 18.3335V21.6668ZM79.4225 21.5657C79.6932 21.722 79.8453 22.0581 79.8453 22.5002L82.732 20.8335C82.732 19.5074 82.2758 18.499 81.4638 18.0302L79.4225 21.5657ZM79.8453 22.5002V55.8335L82.732 54.1668V20.8335L79.8453 22.5002ZM79.8453 55.8335C79.8453 56.2755 79.6932 56.7872 79.4225 57.2561L81.4638 58.4346C82.2758 57.0281 82.732 55.4929 82.732 54.1668L79.8453 55.8335ZM79.4225 57.2561C79.1519 57.7249 78.7847 58.1125 78.4019 58.3335V61.6668C79.5503 61.0038 80.6517 59.8411 81.4638 58.4346L79.4225 57.2561ZM32.2139 85.0002C31.8311 85.2212 31.464 85.2575 31.1933 85.1013L29.152 88.6368C29.9641 89.1056 31.0655 88.9965 32.2139 88.3335V85.0002ZM31.1933 85.1013C30.9226 84.945 30.7705 84.6089 30.7705 84.1668L27.8838 85.8335C27.8838 87.1596 28.34 88.168 29.152 88.6368L31.1933 85.1013ZM30.7705 84.1668V50.8335L27.8838 52.5002V85.8335L30.7705 84.1668ZM40.8742 96.6668L69.7417 80.0002V76.6668L40.8742 93.3335V96.6668ZM45.2043 79.1668V92.5002L48.091 90.8335V77.5002L45.2043 79.1668ZM62.5248 69.1668V82.5002L65.4115 80.8335V67.5002L62.5248 69.1668ZM48.091 64.1668V50.8335L45.2043 52.5002V65.8335L48.091 64.1668ZM56.7513 59.1668V55.8335L53.8645 57.5002V60.8335L56.7513 59.1668ZM65.4115 54.1668V47.5002L62.5248 49.1668V55.8335L65.4115 54.1668ZM78.4019 58.3335L55.3079 71.6668V75.0002L78.4019 61.6668V58.3335ZM55.3079 71.6668L32.2139 85.0002V88.3335L55.3079 75.0002V71.6668ZM32.2139 88.3335L46.6477 80.0002V76.6668L32.2139 85.0002V88.3335ZM46.6477 80.0002L55.3079 75.0002V71.6668L46.6477 76.6668V80.0002ZM55.3079 75.0002L63.9682 70.0002V66.6668L55.3079 71.6668V75.0002ZM63.9682 70.0002L78.4019 61.6668V58.3335L63.9682 66.6668V70.0002ZM46.6477 93.3335L63.9682 83.3335V80.0002L46.6477 90.0002V93.3335Z" fill="#D2D8F6"/>
</g>
<g clip-path="url(#clip2_36_159)">
<path fill-rule="evenodd" clip-rule="evenodd" d="M32.2146 48.3324C31.8318 48.5534 31.4647 48.9409 31.194 49.4098C30.9233 49.8786 30.7713 50.3903 30.7713 50.8324V84.1657C30.7713 84.6077 30.9233 84.9438 31.194 85.1001C31.4647 85.2564 31.8318 85.22 32.2146 84.999L46.6484 76.6657L63.9689 66.6657L78.4027 58.3324C78.7855 58.1113 79.1526 57.7238 79.4233 57.2549C79.694 56.7861 79.846 56.2744 79.846 55.8324V22.499C79.846 22.057 79.694 21.7209 79.4233 21.5646C79.1526 21.4083 78.7855 21.4447 78.4027 21.6657L32.2146 48.3324ZM65.4123 69.1657L78.4027 61.6657C79.5511 61.0026 80.6525 59.84 81.4645 58.4335C82.2766 57.0269 82.7328 55.4918 82.7328 54.1657V20.8324C82.7328 19.5063 82.2766 18.4979 81.4645 18.0291C80.6525 17.5602 79.5511 17.6693 78.4027 18.3324L32.2146 44.999C31.0662 45.6621 29.9648 46.8247 29.1528 48.2313C28.3407 49.6378 27.8845 51.1729 27.8845 52.499V85.8324C27.8845 87.1584 28.3407 88.1668 29.1528 88.6357C29.9648 89.1045 31.0662 88.9954 32.2146 88.3324L45.205 80.8324V90.8324L40.8749 93.3324C40.0777 93.7926 39.4315 94.9119 39.4315 95.8324C39.4315 96.7528 40.0777 97.1259 40.8749 96.6657L46.6484 93.3324L63.9689 83.3324L69.7424 79.999C70.5396 79.5388 71.1858 78.4195 71.1858 77.499C71.1858 76.5785 70.5396 76.2055 69.7424 76.6657L65.4123 79.1657V69.1657ZM62.5255 70.8324L48.0918 79.1657V89.1657L62.5255 80.8324V70.8324ZM46.6484 49.999C47.4456 49.5388 48.0918 49.9119 48.0918 50.8324V64.1657C48.0918 65.0862 47.4456 66.2055 46.6484 66.6657C45.8512 67.1259 45.205 66.7528 45.205 65.8324V52.499C45.205 51.5785 45.8512 50.4593 46.6484 49.999ZM63.9689 46.6657C64.7661 46.2055 65.4123 46.5785 65.4123 47.499V54.1657C65.4123 55.0862 64.7661 56.2055 63.9689 56.6657C63.1718 57.1259 62.5255 56.7528 62.5255 55.8324V49.1657C62.5255 48.2452 63.1718 47.1259 63.9689 46.6657ZM55.3087 54.999C56.1058 54.5388 56.752 54.9119 56.752 55.8324V59.1657C56.752 60.0862 56.1058 61.2055 55.3087 61.6657C54.5115 62.1259 53.8653 61.7528 53.8653 60.8324V57.499C53.8653 56.5785 54.5115 55.4593 55.3087 54.999Z" fill="black"/>
</g>
<defs>
<clipPath id="clip0_36_159">
<rect width="80" height="80" fill="white" transform="matrix(0.866025 -0.5 0 1 0.666992 40)"/>
</clipPath>
<clipPath id="clip1_36_159">
<rect width="80" height="80" fill="white" transform="matrix(0.866025 -0.5 0 1 20.667 40)"/>
</clipPath>
<clipPath id="clip2_36_159">
<rect width="80" height="80" fill="white" transform="matrix(0.866025 -0.5 0 1 20.667 40)"/>
</clipPath>
</defs>
</svg>
